<svg width="194" height="132" viewBox="0 0 194 132" fill="none" xmlns="http://www.w3.org/2000/svg">
<rect x="0.5" y="74.5" width="19" height="19" rx="5.5" fill="white"/>
<rect x="0.5" y="74.5" width="19" height="19" rx="5.5" stroke="#D5D7DA"/>
<path d="M39.625 81.4205C39.5644 80.8826 39.3144 80.4659 38.875 80.1705C38.4356 79.8712 37.8826 79.7216 37.2159 79.7216C36.7386 79.7216 36.3258 79.7973 35.9773 79.9489C35.6288 80.0966 35.358 80.3011 35.1648 80.5625C34.9754 80.8201 34.8807 81.1136 34.8807 81.4432C34.8807 81.7197 34.9451 81.9583 35.0739 82.1591C35.2064 82.3598 35.3788 82.5284 35.5909 82.6648C35.8068 82.7973 36.0379 82.9091 36.2841 83C36.5303 83.0871 36.767 83.1591 36.9943 83.2159L38.1307 83.5114C38.5019 83.6023 38.8826 83.7254 39.2727 83.8807C39.6629 84.036 40.0246 84.2405 40.358 84.4943C40.6913 84.7481 40.9602 85.0625 41.1648 85.4375C41.3731 85.8125 41.4773 86.2614 41.4773 86.7841C41.4773 87.4432 41.3068 88.0284 40.9659 88.5398C40.6288 89.0511 40.1383 89.4545 39.4943 89.75C38.8542 90.0455 38.0795 90.1932 37.1705 90.1932C36.2992 90.1932 35.5455 90.0549 34.9091 89.7784C34.2727 89.5019 33.7746 89.1098 33.4148 88.6023C33.0549 88.0909 32.8561 87.4848 32.8182 86.7841H34.5795C34.6136 87.2045 34.75 87.5549 34.9886 87.8352C35.2311 88.1117 35.5398 88.3182 35.9148 88.4545C36.2936 88.5871 36.7083 88.6534 37.1591 88.6534C37.6553 88.6534 38.0966 88.5758 38.483 88.4205C38.8731 88.2614 39.1799 88.0417 39.4034 87.7614C39.6269 87.4773 39.7386 87.1458 39.7386 86.767C39.7386 86.4223 39.6402 86.1402 39.4432 85.9205C39.25 85.7008 38.9867 85.5189 38.6534 85.375C38.3239 85.2311 37.9508 85.1042 37.5341 84.9943L36.1591 84.6193C35.2273 84.3655 34.4886 83.9924 33.9432 83.5C33.4015 83.0076 33.1307 82.3561 33.1307 81.5455C33.1307 80.875 33.3125 80.2898 33.6761 79.7898C34.0398 79.2898 34.5322 78.9015 35.1534 78.625C35.7746 78.3447 36.4754 78.2045 37.2557 78.2045C38.0436 78.2045 38.7386 78.3428 39.3409 78.6193C39.947 78.8958 40.4242 79.2765 40.7727 79.7614C41.1212 80.2424 41.303 80.7955 41.3182 81.4205H39.625ZM47.2003 90.1761C46.3404 90.1761 45.5999 89.9924 44.9787 89.625C44.3613 89.2538 43.884 88.733 43.5469 88.0625C43.2135 87.3883 43.0469 86.5985 43.0469 85.6932C43.0469 84.7992 43.2135 84.0114 43.5469 83.3295C43.884 82.6477 44.3537 82.1155 44.956 81.733C45.562 81.3504 46.2704 81.1591 47.081 81.1591C47.5734 81.1591 48.0507 81.2405 48.5128 81.4034C48.9749 81.5663 49.3897 81.822 49.7571 82.1705C50.1245 82.5189 50.4143 82.9716 50.6264 83.5284C50.8385 84.0814 50.9446 84.7538 50.9446 85.5455V86.1477H44.0071V84.875H49.2798C49.2798 84.428 49.1889 84.0322 49.0071 83.6875C48.8253 83.339 48.5696 83.0644 48.2401 82.8636C47.9143 82.6629 47.5317 82.5625 47.0923 82.5625C46.6151 82.5625 46.1984 82.6799 45.8423 82.9148C45.4901 83.1458 45.2173 83.4489 45.0241 83.8239C44.8348 84.1951 44.7401 84.5985 44.7401 85.0341V86.0284C44.7401 86.6117 44.8423 87.108 45.0469 87.517C45.2552 87.9261 45.545 88.2386 45.9162 88.4545C46.2874 88.6667 46.7211 88.7727 47.2173 88.7727C47.5393 88.7727 47.8329 88.7273 48.098 88.6364C48.3632 88.5417 48.5923 88.4015 48.7855 88.2159C48.9787 88.0303 49.1264 87.8011 49.2287 87.5284L50.8366 87.8182C50.7079 88.2917 50.4768 88.7064 50.1435 89.0625C49.8139 89.4148 49.3991 89.6894 48.8991 89.8864C48.4029 90.0795 47.8366 90.1761 47.2003 90.1761ZM54.5284 78.3636V90H52.8295V78.3636H54.5284ZM60.5753 90.1761C59.7154 90.1761 58.9749 89.9924 58.3537 89.625C57.7363 89.2538 57.259 88.733 56.9219 88.0625C56.5885 87.3883 56.4219 86.5985 56.4219 85.6932C56.4219 84.7992 56.5885 84.0114 56.9219 83.3295C57.259 82.6477 57.7287 82.1155 58.331 81.733C58.937 81.3504 59.6454 81.1591 60.456 81.1591C60.9484 81.1591 61.4257 81.2405 61.8878 81.4034C62.3499 81.5663 62.7647 81.822 63.1321 82.1705C63.4995 82.5189 63.7893 82.9716 64.0014 83.5284C64.2135 84.0814 64.3196 84.7538 64.3196 85.5455V86.1477H57.3821V84.875H62.6548C62.6548 84.428 62.5639 84.0322 62.3821 83.6875C62.2003 83.339 61.9446 83.0644 61.6151 82.8636C61.2893 82.6629 60.9067 82.5625 60.4673 82.5625C59.9901 82.5625 59.5734 82.6799 59.2173 82.9148C58.8651 83.1458 58.5923 83.4489 58.3991 83.8239C58.2098 84.1951 58.1151 84.5985 58.1151 85.0341V86.0284C58.1151 86.6117 58.2173 87.108 58.4219 87.517C58.6302 87.9261 58.92 88.2386 59.2912 88.4545C59.6624 88.6667 60.0961 88.7727 60.5923 88.7727C60.9143 88.7727 61.2079 88.7273 61.473 88.6364C61.7382 88.5417 61.9673 88.4015 62.1605 88.2159C62.3537 88.0303 62.5014 87.8011 62.6037 87.5284L64.2116 87.8182C64.0829 88.2917 63.8518 88.7064 63.5185 89.0625C63.1889 89.4148 62.7741 89.6894 62.2741 89.8864C61.7779 90.0795 61.2116 90.1761 60.5753 90.1761ZM69.8807 90.1761C69.036 90.1761 68.3087 89.9848 67.6989 89.6023C67.0928 89.2159 66.6269 88.6837 66.3011 88.0057C65.9754 87.3277 65.8125 86.5511 65.8125 85.6761C65.8125 84.7898 65.9792 84.0076 66.3125 83.3295C66.6458 82.6477 67.1155 82.1155 67.7216 81.733C68.3277 81.3504 69.0417 81.1591 69.8636 81.1591C70.5265 81.1591 71.1174 81.2822 71.6364 81.5284C72.1553 81.7708 72.5739 82.1117 72.892 82.5511C73.214 82.9905 73.4053 83.5038 73.4659 84.0909H71.8125C71.7216 83.6818 71.5133 83.3295 71.1875 83.0341C70.8655 82.7386 70.4337 82.5909 69.892 82.5909C69.4186 82.5909 69.0038 82.7159 68.6477 82.9659C68.2955 83.2121 68.0208 83.5644 67.8239 84.0227C67.6269 84.4773 67.5284 85.0152 67.5284 85.6364C67.5284 86.2727 67.625 86.822 67.8182 87.2841C68.0114 87.7462 68.2841 88.1042 68.6364 88.358C68.9924 88.6117 69.411 88.7386 69.892 88.7386C70.214 88.7386 70.5057 88.6799 70.767 88.5625C71.0322 88.4413 71.2538 88.2689 71.4318 88.0455C71.6136 87.822 71.7405 87.553 71.8125 87.2386H73.4659C73.4053 87.803 73.2216 88.3068 72.9148 88.75C72.608 89.1932 72.197 89.5417 71.6818 89.7955C71.1705 90.0492 70.5701 90.1761 69.8807 90.1761ZM79.3565 81.2727V82.6364H74.5895V81.2727H79.3565ZM75.8679 79.1818H77.5668V87.4375C77.5668 87.767 77.616 88.0152 77.7145 88.1818C77.813 88.3447 77.9399 88.4564 78.0952 88.517C78.2543 88.5739 78.4266 88.6023 78.6122 88.6023C78.7486 88.6023 78.8679 88.5928 78.9702 88.5739C79.0724 88.5549 79.152 88.5398 79.2088 88.5284L79.5156 89.9318C79.4171 89.9697 79.277 90.0076 79.0952 90.0455C78.9134 90.0871 78.6861 90.1098 78.4134 90.1136C77.9664 90.1212 77.5497 90.0417 77.1634 89.875C76.777 89.7083 76.4645 89.4508 76.2259 89.1023C75.9872 88.7538 75.8679 88.3163 75.8679 87.7898V79.1818ZM89.544 81.2727V82.6364H84.777V81.2727H89.544ZM86.0554 79.1818H87.7543V87.4375C87.7543 87.767 87.8035 88.0152 87.902 88.1818C88.0005 88.3447 88.1274 88.4564 88.2827 88.517C88.4418 88.5739 88.6141 88.6023 88.7997 88.6023C88.9361 88.6023 89.0554 88.5928 89.1577 88.5739C89.2599 88.5549 89.3395 88.5398 89.3963 88.5284L89.7031 89.9318C89.6046 89.9697 89.4645 90.0076 89.2827 90.0455C89.1009 90.0871 88.8736 90.1098 88.6009 90.1136C88.1539 90.1212 87.7372 90.0417 87.3509 89.875C86.9645 89.7083 86.652 89.4508 86.4134 89.1023C86.1747 88.7538 86.0554 88.3163 86.0554 87.7898V79.1818ZM93.3097 84.8182V90H91.6108V78.3636H93.2869V82.6932H93.3949C93.5994 82.2235 93.9119 81.8504 94.3324 81.5739C94.7528 81.2973 95.3021 81.1591 95.9801 81.1591C96.5786 81.1591 97.1013 81.2822 97.5483 81.5284C97.9991 81.7746 98.3475 82.142 98.5938 82.6307C98.8438 83.1155 98.9688 83.7216 98.9688 84.4489V90H97.2699V84.6534C97.2699 84.0133 97.1051 83.517 96.7756 83.1648C96.446 82.8087 95.9877 82.6307 95.4006 82.6307C94.9991 82.6307 94.6392 82.7159 94.321 82.8864C94.0066 83.0568 93.7585 83.3068 93.5767 83.6364C93.3987 83.9621 93.3097 84.3561 93.3097 84.8182ZM101.236 90V81.2727H102.935V90H101.236ZM102.094 79.9261C101.798 79.9261 101.545 79.8277 101.332 79.6307C101.124 79.4299 101.02 79.1913 101.02 78.9148C101.02 78.6345 101.124 78.3958 101.332 78.1989C101.545 77.9981 101.798 77.8977 102.094 77.8977C102.389 77.8977 102.641 77.9981 102.849 78.1989C103.062 78.3958 103.168 78.6345 103.168 78.9148C103.168 79.1913 103.062 79.4299 102.849 79.6307C102.641 79.8277 102.389 79.9261 102.094 79.9261ZM105.22 90V81.2727H106.862V82.6591H106.953C107.112 82.1894 107.393 81.8201 107.794 81.5511C108.199 81.2784 108.658 81.142 109.169 81.142C109.275 81.142 109.4 81.1458 109.544 81.1534C109.692 81.161 109.807 81.1705 109.891 81.1818V82.8068C109.822 82.7879 109.701 82.767 109.527 82.7443C109.353 82.7178 109.179 82.7045 109.004 82.7045C108.603 82.7045 108.245 82.7898 107.93 82.9602C107.62 83.1269 107.374 83.3598 107.192 83.6591C107.01 83.9545 106.919 84.2917 106.919 84.6705V90H105.22ZM114.315 90.1705C113.611 90.1705 112.982 89.9905 112.429 89.6307C111.88 89.267 111.448 88.75 111.134 88.0795C110.823 87.4053 110.668 86.5966 110.668 85.6534C110.668 84.7102 110.825 83.9034 111.139 83.233C111.457 82.5625 111.893 82.0492 112.446 81.6932C112.999 81.3371 113.626 81.1591 114.327 81.1591C114.868 81.1591 115.304 81.25 115.634 81.4318C115.967 81.6098 116.224 81.8182 116.406 82.0568C116.592 82.2955 116.736 82.5057 116.838 82.6875H116.94V78.3636H118.639V90H116.98V88.642H116.838C116.736 88.8277 116.588 89.0398 116.395 89.2784C116.205 89.517 115.944 89.7254 115.611 89.9034C115.277 90.0814 114.846 90.1705 114.315 90.1705ZM114.69 88.7216C115.179 88.7216 115.592 88.5928 115.929 88.3352C116.27 88.0739 116.527 87.7121 116.702 87.25C116.88 86.7879 116.969 86.25 116.969 85.6364C116.969 85.0303 116.882 84.5 116.707 84.0455C116.533 83.5909 116.277 83.2367 115.94 82.983C115.603 82.7292 115.187 82.6023 114.69 82.6023C114.179 82.6023 113.753 82.7348 113.412 83C113.071 83.2652 112.813 83.6269 112.639 84.0852C112.469 84.5436 112.384 85.0606 112.384 85.6364C112.384 86.2197 112.471 86.7443 112.645 87.2102C112.819 87.6761 113.077 88.0455 113.418 88.3182C113.762 88.5871 114.187 88.7216 114.69 88.7216ZM128.974 90.1761C128.156 90.1761 127.442 89.9886 126.832 89.6136C126.223 89.2386 125.749 88.714 125.412 88.0398C125.075 87.3655 124.906 86.5777 124.906 85.6761C124.906 84.7708 125.075 83.9792 125.412 83.3011C125.749 82.6231 126.223 82.0966 126.832 81.7216C127.442 81.3466 128.156 81.1591 128.974 81.1591C129.793 81.1591 130.507 81.3466 131.116 81.7216C131.726 82.0966 132.2 82.6231 132.537 83.3011C132.874 83.9792 133.043 84.7708 133.043 85.6761C133.043 86.5777 132.874 87.3655 132.537 88.0398C132.2 88.714 131.726 89.2386 131.116 89.6136C130.507 89.9886 129.793 90.1761 128.974 90.1761ZM128.98 88.75C129.51 88.75 129.95 88.6098 130.298 88.3295C130.647 88.0492 130.904 87.6761 131.071 87.2102C131.241 86.7443 131.327 86.2311 131.327 85.6705C131.327 85.1136 131.241 84.6023 131.071 84.1364C130.904 83.6667 130.647 83.2898 130.298 83.0057C129.95 82.7216 129.51 82.5795 128.98 82.5795C128.446 82.5795 128.003 82.7216 127.651 83.0057C127.302 83.2898 127.043 83.6667 126.872 84.1364C126.705 84.6023 126.622 85.1136 126.622 85.6705C126.622 86.2311 126.705 86.7443 126.872 87.2102C127.043 87.6761 127.302 88.0492 127.651 88.3295C128.003 88.6098 128.446 88.75 128.98 88.75ZM134.939 93.2727V81.2727H136.598V82.6875H136.74C136.839 82.5057 136.981 82.2955 137.166 82.0568C137.352 81.8182 137.609 81.6098 137.939 81.4318C138.268 81.25 138.704 81.1591 139.246 81.1591C139.95 81.1591 140.579 81.3371 141.132 81.6932C141.685 82.0492 142.119 82.5625 142.433 83.233C142.751 83.9034 142.911 84.7102 142.911 85.6534C142.911 86.5966 142.753 87.4053 142.439 88.0795C142.125 88.75 141.693 89.267 141.143 89.6307C140.594 89.9905 139.967 90.1705 139.263 90.1705C138.732 90.1705 138.299 90.0814 137.962 89.9034C137.628 89.7254 137.367 89.517 137.178 89.2784C136.988 89.0398 136.842 88.8277 136.74 88.642H136.638V93.2727H134.939ZM136.604 85.6364C136.604 86.25 136.693 86.7879 136.871 87.25C137.049 87.7121 137.306 88.0739 137.643 88.3352C137.981 88.5928 138.393 88.7216 138.882 88.7216C139.39 88.7216 139.814 88.5871 140.155 88.3182C140.496 88.0455 140.753 87.6761 140.928 87.2102C141.106 86.7443 141.195 86.2197 141.195 85.6364C141.195 85.0606 141.107 84.5436 140.933 84.0852C140.763 83.6269 140.505 83.2652 140.161 83C139.82 82.7348 139.393 82.6023 138.882 82.6023C138.39 82.6023 137.973 82.7292 137.632 82.983C137.295 83.2367 137.039 83.5909 136.865 84.0455C136.691 84.5 136.604 85.0303 136.604 85.6364ZM148.888 81.2727V82.6364H144.121V81.2727H148.888ZM145.399 79.1818H147.098V87.4375C147.098 87.767 147.147 88.0152 147.246 88.1818C147.344 88.3447 147.471 88.4564 147.626 88.517C147.786 88.5739 147.958 88.6023 148.143 88.6023C148.28 88.6023 148.399 88.5928 148.501 88.5739C148.604 88.5549 148.683 88.5398 148.74 88.5284L149.047 89.9318C148.948 89.9697 148.808 90.0076 148.626 90.0455C148.445 90.0871 148.217 90.1098 147.945 90.1136C147.498 90.1212 147.081 90.0417 146.695 89.875C146.308 89.7083 145.996 89.4508 145.757 89.1023C145.518 88.7538 145.399 88.3163 145.399 87.7898V79.1818ZM150.767 90V81.2727H152.466V90H150.767ZM151.625 79.9261C151.33 79.9261 151.076 79.8277 150.864 79.6307C150.655 79.4299 150.551 79.1913 150.551 78.9148C150.551 78.6345 150.655 78.3958 150.864 78.1989C151.076 77.9981 151.33 77.8977 151.625 77.8977C151.92 77.8977 152.172 77.9981 152.381 78.1989C152.593 78.3958 152.699 78.6345 152.699 78.9148C152.699 79.1913 152.593 79.4299 152.381 79.6307C152.172 79.8277 151.92 79.9261 151.625 79.9261ZM158.428 90.1761C157.609 90.1761 156.895 89.9886 156.286 89.6136C155.676 89.2386 155.202 88.714 154.865 88.0398C154.528 87.3655 154.359 86.5777 154.359 85.6761C154.359 84.7708 154.528 83.9792 154.865 83.3011C155.202 82.6231 155.676 82.0966 156.286 81.7216C156.895 81.3466 157.609 81.1591 158.428 81.1591C159.246 81.1591 159.96 81.3466 160.57 81.7216C161.179 82.0966 161.653 82.6231 161.99 83.3011C162.327 83.9792 162.496 84.7708 162.496 85.6761C162.496 86.5777 162.327 87.3655 161.99 88.0398C161.653 88.714 161.179 89.2386 160.57 89.6136C159.96 89.9886 159.246 90.1761 158.428 90.1761ZM158.433 88.75C158.964 88.75 159.403 88.6098 159.751 88.3295C160.1 88.0492 160.357 87.6761 160.524 87.2102C160.695 86.7443 160.78 86.2311 160.78 85.6705C160.78 85.1136 160.695 84.6023 160.524 84.1364C160.357 83.6667 160.1 83.2898 159.751 83.0057C159.403 82.7216 158.964 82.5795 158.433 82.5795C157.899 82.5795 157.456 82.7216 157.104 83.0057C156.755 83.2898 156.496 83.6667 156.325 84.1364C156.159 84.6023 156.075 85.1136 156.075 85.6705C156.075 86.2311 156.159 86.7443 156.325 87.2102C156.496 87.6761 156.755 88.0492 157.104 88.3295C157.456 88.6098 157.899 88.75 158.433 88.75ZM166.091 84.8182V90H164.392V81.2727H166.023V82.6932H166.131C166.331 82.2311 166.646 81.8598 167.074 81.5795C167.506 81.2992 168.049 81.1591 168.705 81.1591C169.299 81.1591 169.82 81.2841 170.267 81.5341C170.714 81.7803 171.061 82.1477 171.307 82.6364C171.553 83.125 171.676 83.7292 171.676 84.4489V90H169.977V84.6534C169.977 84.0208 169.813 83.5265 169.483 83.1705C169.153 82.8106 168.701 82.6307 168.125 82.6307C167.731 82.6307 167.381 82.7159 167.074 82.8864C166.771 83.0568 166.53 83.3068 166.352 83.6364C166.178 83.9621 166.091 84.3561 166.091 84.8182Z" fill="#414651"/>
<rect x="0.5" y="110.5" width="19" height="19" rx="5.5" fill="white"/>
<rect x="0.5" y="110.5" width="19" height="19" rx="5.5" stroke="#D5D7DA"/>
<path d="M39.625 117.42C39.5644 116.883 39.3144 116.466 38.875 116.17C38.4356 115.871 37.8826 115.722 37.2159 115.722C36.7386 115.722 36.3258 115.797 35.9773 115.949C35.6288 116.097 35.358 116.301 35.1648 116.562C34.9754 116.82 34.8807 117.114 34.8807 117.443C34.8807 117.72 34.9451 117.958 35.0739 118.159C35.2064 118.36 35.3788 118.528 35.5909 118.665C35.8068 118.797 36.0379 118.909 36.2841 119C36.5303 119.087 36.767 119.159 36.9943 119.216L38.1307 119.511C38.5019 119.602 38.8826 119.725 39.2727 119.881C39.6629 120.036 40.0246 120.241 40.358 120.494C40.6913 120.748 40.9602 121.062 41.1648 121.438C41.3731 121.812 41.4773 122.261 41.4773 122.784C41.4773 123.443 41.3068 124.028 40.9659 124.54C40.6288 125.051 40.1383 125.455 39.4943 125.75C38.8542 126.045 38.0795 126.193 37.1705 126.193C36.2992 126.193 35.5455 126.055 34.9091 125.778C34.2727 125.502 33.7746 125.11 33.4148 124.602C33.0549 124.091 32.8561 123.485 32.8182 122.784H34.5795C34.6136 123.205 34.75 123.555 34.9886 123.835C35.2311 124.112 35.5398 124.318 35.9148 124.455C36.2936 124.587 36.7083 124.653 37.1591 124.653C37.6553 124.653 38.0966 124.576 38.483 124.42C38.8731 124.261 39.1799 124.042 39.4034 123.761C39.6269 123.477 39.7386 123.146 39.7386 122.767C39.7386 122.422 39.6402 122.14 39.4432 121.92C39.25 121.701 38.9867 121.519 38.6534 121.375C38.3239 121.231 37.9508 121.104 37.5341 120.994L36.1591 120.619C35.2273 120.366 34.4886 119.992 33.9432 119.5C33.4015 119.008 33.1307 118.356 33.1307 117.545C33.1307 116.875 33.3125 116.29 33.6761 115.79C34.0398 115.29 34.5322 114.902 35.1534 114.625C35.7746 114.345 36.4754 114.205 37.2557 114.205C38.0436 114.205 38.7386 114.343 39.3409 114.619C39.947 114.896 40.4242 115.277 40.7727 115.761C41.1212 116.242 41.303 116.795 41.3182 117.42H39.625ZM47.2003 126.176C46.3404 126.176 45.5999 125.992 44.9787 125.625C44.3613 125.254 43.884 124.733 43.5469 124.062C43.2135 123.388 43.0469 122.598 43.0469 121.693C43.0469 120.799 43.2135 120.011 43.5469 119.33C43.884 118.648 44.3537 118.116 44.956 117.733C45.562 117.35 46.2704 117.159 47.081 117.159C47.5734 117.159 48.0507 117.241 48.5128 117.403C48.9749 117.566 49.3897 117.822 49.7571 118.17C50.1245 118.519 50.4143 118.972 50.6264 119.528C50.8385 120.081 50.9446 120.754 50.9446 121.545V122.148H44.0071V120.875H49.2798C49.2798 120.428 49.1889 120.032 49.0071 119.688C48.8253 119.339 48.5696 119.064 48.2401 118.864C47.9143 118.663 47.5317 118.562 47.0923 118.562C46.6151 118.562 46.1984 118.68 45.8423 118.915C45.4901 119.146 45.2173 119.449 45.0241 119.824C44.8348 120.195 44.7401 120.598 44.7401 121.034V122.028C44.7401 122.612 44.8423 123.108 45.0469 123.517C45.2552 123.926 45.545 124.239 45.9162 124.455C46.2874 124.667 46.7211 124.773 47.2173 124.773C47.5393 124.773 47.8329 124.727 48.098 124.636C48.3632 124.542 48.5923 124.402 48.7855 124.216C48.9787 124.03 49.1264 123.801 49.2287 123.528L50.8366 123.818C50.7079 124.292 50.4768 124.706 50.1435 125.062C49.8139 125.415 49.3991 125.689 48.8991 125.886C48.4029 126.08 47.8366 126.176 47.2003 126.176ZM54.5284 114.364V126H52.8295V114.364H54.5284ZM60.5753 126.176C59.7154 126.176 58.9749 125.992 58.3537 125.625C57.7363 125.254 57.259 124.733 56.9219 124.062C56.5885 123.388 56.4219 122.598 56.4219 121.693C56.4219 120.799 56.5885 120.011 56.9219 119.33C57.259 118.648 57.7287 118.116 58.331 117.733C58.937 117.35 59.6454 117.159 60.456 117.159C60.9484 117.159 61.4257 117.241 61.8878 117.403C62.3499 117.566 62.7647 117.822 63.1321 118.17C63.4995 118.519 63.7893 118.972 64.0014 119.528C64.2135 120.081 64.3196 120.754 64.3196 121.545V122.148H57.3821V120.875H62.6548C62.6548 120.428 62.5639 120.032 62.3821 119.688C62.2003 119.339 61.9446 119.064 61.6151 118.864C61.2893 118.663 60.9067 118.562 60.4673 118.562C59.9901 118.562 59.5734 118.68 59.2173 118.915C58.8651 119.146 58.5923 119.449 58.3991 119.824C58.2098 120.195 58.1151 120.598 58.1151 121.034V122.028C58.1151 122.612 58.2173 123.108 58.4219 123.517C58.6302 123.926 58.92 124.239 59.2912 124.455C59.6624 124.667 60.0961 124.773 60.5923 124.773C60.9143 124.773 61.2079 124.727 61.473 124.636C61.7382 124.542 61.9673 124.402 62.1605 124.216C62.3537 124.03 62.5014 123.801 62.6037 123.528L64.2116 123.818C64.0829 124.292 63.8518 124.706 63.5185 125.062C63.1889 125.415 62.7741 125.689 62.2741 125.886C61.7779 126.08 61.2116 126.176 60.5753 126.176ZM69.8807 126.176C69.036 126.176 68.3087 125.985 67.6989 125.602C67.0928 125.216 66.6269 124.684 66.3011 124.006C65.9754 123.328 65.8125 122.551 65.8125 121.676C65.8125 120.79 65.9792 120.008 66.3125 119.33C66.6458 118.648 67.1155 118.116 67.7216 117.733C68.3277 117.35 69.0417 117.159 69.8636 117.159C70.5265 117.159 71.1174 117.282 71.6364 117.528C72.1553 117.771 72.5739 118.112 72.892 118.551C73.214 118.991 73.4053 119.504 73.4659 120.091H71.8125C71.7216 119.682 71.5133 119.33 71.1875 119.034C70.8655 118.739 70.4337 118.591 69.892 118.591C69.4186 118.591 69.0038 118.716 68.6477 118.966C68.2955 119.212 68.0208 119.564 67.8239 120.023C67.6269 120.477 67.5284 121.015 67.5284 121.636C67.5284 122.273 67.625 122.822 67.8182 123.284C68.0114 123.746 68.2841 124.104 68.6364 124.358C68.9924 124.612 69.411 124.739 69.892 124.739C70.214 124.739 70.5057 124.68 70.767 124.562C71.0322 124.441 71.2538 124.269 71.4318 124.045C71.6136 123.822 71.7405 123.553 71.8125 123.239H73.4659C73.4053 123.803 73.2216 124.307 72.9148 124.75C72.608 125.193 72.197 125.542 71.6818 125.795C71.1705 126.049 70.5701 126.176 69.8807 126.176ZM79.3565 117.273V118.636H74.5895V117.273H79.3565ZM75.8679 115.182H77.5668V123.438C77.5668 123.767 77.616 124.015 77.7145 124.182C77.813 124.345 77.9399 124.456 78.0952 124.517C78.2543 124.574 78.4266 124.602 78.6122 124.602C78.7486 124.602 78.8679 124.593 78.9702 124.574C79.0724 124.555 79.152 124.54 79.2088 124.528L79.5156 125.932C79.4171 125.97 79.277 126.008 79.0952 126.045C78.9134 126.087 78.6861 126.11 78.4134 126.114C77.9664 126.121 77.5497 126.042 77.1634 125.875C76.777 125.708 76.4645 125.451 76.2259 125.102C75.9872 124.754 75.8679 124.316 75.8679 123.79V115.182ZM89.6236 117.273V118.636H84.6918V117.273H89.6236ZM86.044 126V116.261C86.044 115.716 86.1634 115.263 86.402 114.903C86.6406 114.54 86.9569 114.269 87.3509 114.091C87.7448 113.909 88.1728 113.818 88.6349 113.818C88.9759 113.818 89.2675 113.847 89.5099 113.903C89.7524 113.956 89.9323 114.006 90.0497 114.051L89.652 115.426C89.5724 115.403 89.4702 115.377 89.3452 115.347C89.2202 115.312 89.0687 115.295 88.8906 115.295C88.4777 115.295 88.1823 115.398 88.0043 115.602C87.83 115.807 87.7429 116.102 87.7429 116.489V126H86.044ZM94.7088 126.176C93.8906 126.176 93.1766 125.989 92.5668 125.614C91.9569 125.239 91.4834 124.714 91.1463 124.04C90.8092 123.366 90.6406 122.578 90.6406 121.676C90.6406 120.771 90.8092 119.979 91.1463 119.301C91.4834 118.623 91.9569 118.097 92.5668 117.722C93.1766 117.347 93.8906 117.159 94.7088 117.159C95.527 117.159 96.241 117.347 96.8509 117.722C97.4607 118.097 97.9342 118.623 98.2713 119.301C98.6084 119.979 98.777 120.771 98.777 121.676C98.777 122.578 98.6084 123.366 98.2713 124.04C97.9342 124.714 97.4607 125.239 96.8509 125.614C96.241 125.989 95.527 126.176 94.7088 126.176ZM94.7145 124.75C95.2448 124.75 95.6842 124.61 96.0327 124.33C96.3812 124.049 96.6387 123.676 96.8054 123.21C96.9759 122.744 97.0611 122.231 97.0611 121.67C97.0611 121.114 96.9759 120.602 96.8054 120.136C96.6387 119.667 96.3812 119.29 96.0327 119.006C95.6842 118.722 95.2448 118.58 94.7145 118.58C94.1804 118.58 93.7372 118.722 93.3849 119.006C93.0365 119.29 92.777 119.667 92.6065 120.136C92.4399 120.602 92.3565 121.114 92.3565 121.67C92.3565 122.231 92.4399 122.744 92.6065 123.21C92.777 123.676 93.0365 124.049 93.3849 124.33C93.7372 124.61 94.1804 124.75 94.7145 124.75ZM106.202 122.381V117.273H107.906V126H106.236V124.489H106.145C105.944 124.955 105.622 125.343 105.179 125.653C104.74 125.96 104.192 126.114 103.537 126.114C102.976 126.114 102.48 125.991 102.048 125.744C101.62 125.494 101.283 125.125 101.037 124.636C100.795 124.148 100.673 123.544 100.673 122.824V117.273H102.372V122.619C102.372 123.214 102.537 123.687 102.866 124.04C103.196 124.392 103.624 124.568 104.151 124.568C104.469 124.568 104.785 124.489 105.099 124.33C105.418 124.17 105.681 123.93 105.889 123.608C106.101 123.286 106.205 122.877 106.202 122.381ZM110.189 126V117.273H111.831V118.659H111.922C112.081 118.189 112.361 117.82 112.763 117.551C113.168 117.278 113.626 117.142 114.138 117.142C114.244 117.142 114.369 117.146 114.513 117.153C114.661 117.161 114.776 117.17 114.859 117.182V118.807C114.791 118.788 114.67 118.767 114.496 118.744C114.321 118.718 114.147 118.705 113.973 118.705C113.571 118.705 113.214 118.79 112.899 118.96C112.589 119.127 112.342 119.36 112.161 119.659C111.979 119.955 111.888 120.292 111.888 120.67V126H110.189ZM120.919 117.273V118.636H116.152V117.273H120.919ZM117.43 115.182H119.129V123.438C119.129 123.767 119.179 124.015 119.277 124.182C119.375 124.345 119.502 124.456 119.658 124.517C119.817 124.574 119.989 124.602 120.175 124.602C120.311 124.602 120.43 124.593 120.533 124.574C120.635 124.555 120.714 124.54 120.771 124.528L121.078 125.932C120.98 125.97 120.839 126.008 120.658 126.045C120.476 126.087 120.249 126.11 119.976 126.114C119.529 126.121 119.112 126.042 118.726 125.875C118.339 125.708 118.027 125.451 117.788 125.102C117.55 124.754 117.43 124.316 117.43 123.79V115.182ZM124.685 120.818V126H122.986V114.364H124.662V118.693H124.77C124.974 118.223 125.287 117.85 125.707 117.574C126.128 117.297 126.677 117.159 127.355 117.159C127.954 117.159 128.476 117.282 128.923 117.528C129.374 117.775 129.723 118.142 129.969 118.631C130.219 119.116 130.344 119.722 130.344 120.449V126H128.645V120.653C128.645 120.013 128.48 119.517 128.151 119.165C127.821 118.809 127.363 118.631 126.776 118.631C126.374 118.631 126.014 118.716 125.696 118.886C125.382 119.057 125.134 119.307 124.952 119.636C124.774 119.962 124.685 120.356 124.685 120.818ZM140.521 126.176C139.703 126.176 138.989 125.989 138.379 125.614C137.769 125.239 137.296 124.714 136.959 124.04C136.622 123.366 136.453 122.578 136.453 121.676C136.453 120.771 136.622 119.979 136.959 119.301C137.296 118.623 137.769 118.097 138.379 117.722C138.989 117.347 139.703 117.159 140.521 117.159C141.339 117.159 142.054 117.347 142.663 117.722C143.273 118.097 143.747 118.623 144.084 119.301C144.421 119.979 144.589 120.771 144.589 121.676C144.589 122.578 144.421 123.366 144.084 124.04C143.747 124.714 143.273 125.239 142.663 125.614C142.054 125.989 141.339 126.176 140.521 126.176ZM140.527 124.75C141.057 124.75 141.497 124.61 141.845 124.33C142.194 124.049 142.451 123.676 142.618 123.21C142.788 122.744 142.874 122.231 142.874 121.67C142.874 121.114 142.788 120.602 142.618 120.136C142.451 119.667 142.194 119.29 141.845 119.006C141.497 118.722 141.057 118.58 140.527 118.58C139.993 118.58 139.55 118.722 139.197 119.006C138.849 119.29 138.589 119.667 138.419 120.136C138.252 120.602 138.169 121.114 138.169 121.67C138.169 122.231 138.252 122.744 138.419 123.21C138.589 123.676 138.849 124.049 139.197 124.33C139.55 124.61 139.993 124.75 140.527 124.75ZM146.486 129.273V117.273H148.145V118.688H148.287C148.385 118.506 148.527 118.295 148.713 118.057C148.899 117.818 149.156 117.61 149.486 117.432C149.815 117.25 150.251 117.159 150.793 117.159C151.497 117.159 152.126 117.337 152.679 117.693C153.232 118.049 153.666 118.562 153.98 119.233C154.298 119.903 154.457 120.71 154.457 121.653C154.457 122.597 154.3 123.405 153.986 124.08C153.671 124.75 153.24 125.267 152.69 125.631C152.141 125.991 151.514 126.17 150.81 126.17C150.279 126.17 149.846 126.081 149.509 125.903C149.175 125.725 148.914 125.517 148.724 125.278C148.535 125.04 148.389 124.828 148.287 124.642H148.185V129.273H146.486ZM148.151 121.636C148.151 122.25 148.24 122.788 148.418 123.25C148.596 123.712 148.853 124.074 149.19 124.335C149.527 124.593 149.94 124.722 150.429 124.722C150.937 124.722 151.361 124.587 151.702 124.318C152.043 124.045 152.3 123.676 152.474 123.21C152.652 122.744 152.741 122.22 152.741 121.636C152.741 121.061 152.654 120.544 152.48 120.085C152.31 119.627 152.052 119.265 151.707 119C151.366 118.735 150.94 118.602 150.429 118.602C149.937 118.602 149.52 118.729 149.179 118.983C148.842 119.237 148.586 119.591 148.412 120.045C148.238 120.5 148.151 121.03 148.151 121.636ZM160.435 117.273V118.636H155.668V117.273H160.435ZM156.946 115.182H158.645V123.438C158.645 123.767 158.694 124.015 158.793 124.182C158.891 124.345 159.018 124.456 159.173 124.517C159.332 124.574 159.505 124.602 159.69 124.602C159.827 124.602 159.946 124.593 160.048 124.574C160.151 124.555 160.23 124.54 160.287 124.528L160.594 125.932C160.495 125.97 160.355 126.008 160.173 126.045C159.991 126.087 159.764 126.11 159.491 126.114C159.045 126.121 158.628 126.042 158.241 125.875C157.855 125.708 157.543 125.451 157.304 125.102C157.065 124.754 156.946 124.316 156.946 123.79V115.182ZM162.314 126V117.273H164.013V126H162.314ZM163.172 115.926C162.876 115.926 162.623 115.828 162.411 115.631C162.202 115.43 162.098 115.191 162.098 114.915C162.098 114.634 162.202 114.396 162.411 114.199C162.623 113.998 162.876 113.898 163.172 113.898C163.467 113.898 163.719 113.998 163.928 114.199C164.14 114.396 164.246 114.634 164.246 114.915C164.246 115.191 164.14 115.43 163.928 115.631C163.719 115.828 163.467 115.926 163.172 115.926ZM169.974 126.176C169.156 126.176 168.442 125.989 167.832 125.614C167.223 125.239 166.749 124.714 166.412 124.04C166.075 123.366 165.906 122.578 165.906 121.676C165.906 120.771 166.075 119.979 166.412 119.301C166.749 118.623 167.223 118.097 167.832 117.722C168.442 117.347 169.156 117.159 169.974 117.159C170.793 117.159 171.507 117.347 172.116 117.722C172.726 118.097 173.2 118.623 173.537 119.301C173.874 119.979 174.043 120.771 174.043 121.676C174.043 122.578 173.874 123.366 173.537 124.04C173.2 124.714 172.726 125.239 172.116 125.614C171.507 125.989 170.793 126.176 169.974 126.176ZM169.98 124.75C170.51 124.75 170.95 124.61 171.298 124.33C171.647 124.049 171.904 123.676 172.071 123.21C172.241 122.744 172.327 122.231 172.327 121.67C172.327 121.114 172.241 120.602 172.071 120.136C171.904 119.667 171.647 119.29 171.298 119.006C170.95 118.722 170.51 118.58 169.98 118.58C169.446 118.58 169.003 118.722 168.651 119.006C168.302 119.29 168.043 119.667 167.872 120.136C167.705 120.602 167.622 121.114 167.622 121.67C167.622 122.231 167.705 122.744 167.872 123.21C168.043 123.676 168.302 124.049 168.651 124.33C169.003 124.61 169.446 124.75 169.98 124.75ZM177.638 120.818V126H175.939V117.273H177.57V118.693H177.678C177.878 118.231 178.193 117.86 178.621 117.58C179.053 117.299 179.596 117.159 180.251 117.159C180.846 117.159 181.367 117.284 181.814 117.534C182.261 117.78 182.607 118.148 182.854 118.636C183.1 119.125 183.223 119.729 183.223 120.449V126H181.524V120.653C181.524 120.021 181.359 119.527 181.03 119.17C180.7 118.811 180.248 118.631 179.672 118.631C179.278 118.631 178.928 118.716 178.621 118.886C178.318 119.057 178.077 119.307 177.899 119.636C177.725 119.962 177.638 120.356 177.638 120.818Z" fill="#414651"/>
<rect x="0.5" y="38.5" width="19" height="19" rx="5.5" fill="white"/>
<rect x="0.5" y="38.5" width="19" height="19" rx="5.5" stroke="#484646"/>
<path d="M14.6668 44.5L8.25016 50.9167L5.3335 48" stroke="#484646" stroke-width="2" stroke-linecap="round" stroke-linejoin="round"/>
<path d="M39.625 45.4205C39.5644 44.8826 39.3144 44.4659 38.875 44.1705C38.4356 43.8712 37.8826 43.7216 37.2159 43.7216C36.7386 43.7216 36.3258 43.7973 35.9773 43.9489C35.6288 44.0966 35.358 44.3011 35.1648 44.5625C34.9754 44.8201 34.8807 45.1136 34.8807 45.4432C34.8807 45.7197 34.9451 45.9583 35.0739 46.1591C35.2064 46.3598 35.3788 46.5284 35.5909 46.6648C35.8068 46.7973 36.0379 46.9091 36.2841 47C36.5303 47.0871 36.767 47.1591 36.9943 47.2159L38.1307 47.5114C38.5019 47.6023 38.8826 47.7254 39.2727 47.8807C39.6629 48.036 40.0246 48.2405 40.358 48.4943C40.6913 48.7481 40.9602 49.0625 41.1648 49.4375C41.3731 49.8125 41.4773 50.2614 41.4773 50.7841C41.4773 51.4432 41.3068 52.0284 40.9659 52.5398C40.6288 53.0511 40.1383 53.4545 39.4943 53.75C38.8542 54.0455 38.0795 54.1932 37.1705 54.1932C36.2992 54.1932 35.5455 54.0549 34.9091 53.7784C34.2727 53.5019 33.7746 53.1098 33.4148 52.6023C33.0549 52.0909 32.8561 51.4848 32.8182 50.7841H34.5795C34.6136 51.2045 34.75 51.5549 34.9886 51.8352C35.2311 52.1117 35.5398 52.3182 35.9148 52.4545C36.2936 52.5871 36.7083 52.6534 37.1591 52.6534C37.6553 52.6534 38.0966 52.5758 38.483 52.4205C38.8731 52.2614 39.1799 52.0417 39.4034 51.7614C39.6269 51.4773 39.7386 51.1458 39.7386 50.767C39.7386 50.4223 39.6402 50.1402 39.4432 49.9205C39.25 49.7008 38.9867 49.5189 38.6534 49.375C38.3239 49.2311 37.9508 49.1042 37.5341 48.9943L36.1591 48.6193C35.2273 48.3655 34.4886 47.9924 33.9432 47.5C33.4015 47.0076 33.1307 46.3561 33.1307 45.5455C33.1307 44.875 33.3125 44.2898 33.6761 43.7898C34.0398 43.2898 34.5322 42.9015 35.1534 42.625C35.7746 42.3447 36.4754 42.2045 37.2557 42.2045C38.0436 42.2045 38.7386 42.3428 39.3409 42.6193C39.947 42.8958 40.4242 43.2765 40.7727 43.7614C41.1212 44.2424 41.303 44.7955 41.3182 45.4205H39.625ZM47.2003 54.1761C46.3404 54.1761 45.5999 53.9924 44.9787 53.625C44.3613 53.2538 43.884 52.733 43.5469 52.0625C43.2135 51.3883 43.0469 50.5985 43.0469 49.6932C43.0469 48.7992 43.2135 48.0114 43.5469 47.3295C43.884 46.6477 44.3537 46.1155 44.956 45.733C45.562 45.3504 46.2704 45.1591 47.081 45.1591C47.5734 45.1591 48.0507 45.2405 48.5128 45.4034C48.9749 45.5663 49.3897 45.822 49.7571 46.1705C50.1245 46.5189 50.4143 46.9716 50.6264 47.5284C50.8385 48.0814 50.9446 48.7538 50.9446 49.5455V50.1477H44.0071V48.875H49.2798C49.2798 48.428 49.1889 48.0322 49.0071 47.6875C48.8253 47.339 48.5696 47.0644 48.2401 46.8636C47.9143 46.6629 47.5317 46.5625 47.0923 46.5625C46.6151 46.5625 46.1984 46.6799 45.8423 46.9148C45.4901 47.1458 45.2173 47.4489 45.0241 47.8239C44.8348 48.1951 44.7401 48.5985 44.7401 49.0341V50.0284C44.7401 50.6117 44.8423 51.108 45.0469 51.517C45.2552 51.9261 45.545 52.2386 45.9162 52.4545C46.2874 52.6667 46.7211 52.7727 47.2173 52.7727C47.5393 52.7727 47.8329 52.7273 48.098 52.6364C48.3632 52.5417 48.5923 52.4015 48.7855 52.2159C48.9787 52.0303 49.1264 51.8011 49.2287 51.5284L50.8366 51.8182C50.7079 52.2917 50.4768 52.7064 50.1435 53.0625C49.8139 53.4148 49.3991 53.6894 48.8991 53.8864C48.4029 54.0795 47.8366 54.1761 47.2003 54.1761ZM54.5284 42.3636V54H52.8295V42.3636H54.5284ZM60.5753 54.1761C59.7154 54.1761 58.9749 53.9924 58.3537 53.625C57.7363 53.2538 57.259 52.733 56.9219 52.0625C56.5885 51.3883 56.4219 50.5985 56.4219 49.6932C56.4219 48.7992 56.5885 48.0114 56.9219 47.3295C57.259 46.6477 57.7287 46.1155 58.331 45.733C58.937 45.3504 59.6454 45.1591 60.456 45.1591C60.9484 45.1591 61.4257 45.2405 61.8878 45.4034C62.3499 45.5663 62.7647 45.822 63.1321 46.1705C63.4995 46.5189 63.7893 46.9716 64.0014 47.5284C64.2135 48.0814 64.3196 48.7538 64.3196 49.5455V50.1477H57.3821V48.875H62.6548C62.6548 48.428 62.5639 48.0322 62.3821 47.6875C62.2003 47.339 61.9446 47.0644 61.6151 46.8636C61.2893 46.6629 60.9067 46.5625 60.4673 46.5625C59.9901 46.5625 59.5734 46.6799 59.2173 46.9148C58.8651 47.1458 58.5923 47.4489 58.3991 47.8239C58.2098 48.1951 58.1151 48.5985 58.1151 49.0341V50.0284C58.1151 50.6117 58.2173 51.108 58.4219 51.517C58.6302 51.9261 58.92 52.2386 59.2912 52.4545C59.6624 52.6667 60.0961 52.7727 60.5923 52.7727C60.9143 52.7727 61.2079 52.7273 61.473 52.6364C61.7382 52.5417 61.9673 52.4015 62.1605 52.2159C62.3537 52.0303 62.5014 51.8011 62.6037 51.5284L64.2116 51.8182C64.0829 52.2917 63.8518 52.7064 63.5185 53.0625C63.1889 53.4148 62.7741 53.6894 62.2741 53.8864C61.7779 54.0795 61.2116 54.1761 60.5753 54.1761ZM69.8807 54.1761C69.036 54.1761 68.3087 53.9848 67.6989 53.6023C67.0928 53.2159 66.6269 52.6837 66.3011 52.0057C65.9754 51.3277 65.8125 50.5511 65.8125 49.6761C65.8125 48.7898 65.9792 48.0076 66.3125 47.3295C66.6458 46.6477 67.1155 46.1155 67.7216 45.733C68.3277 45.3504 69.0417 45.1591 69.8636 45.1591C70.5265 45.1591 71.1174 45.2822 71.6364 45.5284C72.1553 45.7708 72.5739 46.1117 72.892 46.5511C73.214 46.9905 73.4053 47.5038 73.4659 48.0909H71.8125C71.7216 47.6818 71.5133 47.3295 71.1875 47.0341C70.8655 46.7386 70.4337 46.5909 69.892 46.5909C69.4186 46.5909 69.0038 46.7159 68.6477 46.9659C68.2955 47.2121 68.0208 47.5644 67.8239 48.0227C67.6269 48.4773 67.5284 49.0152 67.5284 49.6364C67.5284 50.2727 67.625 50.822 67.8182 51.2841C68.0114 51.7462 68.2841 52.1042 68.6364 52.358C68.9924 52.6117 69.411 52.7386 69.892 52.7386C70.214 52.7386 70.5057 52.6799 70.767 52.5625C71.0322 52.4413 71.2538 52.2689 71.4318 52.0455C71.6136 51.822 71.7405 51.553 71.8125 51.2386H73.4659C73.4053 51.803 73.2216 52.3068 72.9148 52.75C72.608 53.1932 72.197 53.5417 71.6818 53.7955C71.1705 54.0492 70.5701 54.1761 69.8807 54.1761ZM79.3565 45.2727V46.6364H74.5895V45.2727H79.3565ZM75.8679 43.1818H77.5668V51.4375C77.5668 51.767 77.616 52.0152 77.7145 52.1818C77.813 52.3447 77.9399 52.4564 78.0952 52.517C78.2543 52.5739 78.4266 52.6023 78.6122 52.6023C78.7486 52.6023 78.8679 52.5928 78.9702 52.5739C79.0724 52.5549 79.152 52.5398 79.2088 52.5284L79.5156 53.9318C79.4171 53.9697 79.277 54.0076 79.0952 54.0455C78.9134 54.0871 78.6861 54.1098 78.4134 54.1136C77.9664 54.1212 77.5497 54.0417 77.1634 53.875C76.777 53.7083 76.4645 53.4508 76.2259 53.1023C75.9872 52.7538 75.8679 52.3163 75.8679 51.7898V43.1818ZM92.0099 47.4034L90.4702 47.6761C90.4058 47.4792 90.3035 47.2917 90.1634 47.1136C90.027 46.9356 89.8414 46.7898 89.6065 46.6761C89.3717 46.5625 89.0781 46.5057 88.7259 46.5057C88.2448 46.5057 87.8433 46.6136 87.5213 46.8295C87.1993 47.0417 87.0384 47.3163 87.0384 47.6534C87.0384 47.9451 87.1463 48.1799 87.3622 48.358C87.5781 48.536 87.9266 48.6818 88.4077 48.7955L89.794 49.1136C90.5971 49.2992 91.1955 49.5852 91.5895 49.9716C91.9834 50.358 92.1804 50.8598 92.1804 51.4773C92.1804 52 92.0289 52.4659 91.7259 52.875C91.4266 53.2803 91.008 53.5985 90.4702 53.8295C89.9361 54.0606 89.3168 54.1761 88.6122 54.1761C87.6349 54.1761 86.8376 53.9678 86.2202 53.5511C85.6027 53.1307 85.224 52.5341 85.0838 51.7614L86.7259 51.5114C86.8281 51.9394 87.0384 52.2633 87.3565 52.483C87.6747 52.6989 88.0895 52.8068 88.6009 52.8068C89.1577 52.8068 89.6027 52.6913 89.9361 52.4602C90.2694 52.2254 90.4361 51.9394 90.4361 51.6023C90.4361 51.3295 90.3338 51.1004 90.1293 50.9148C89.9285 50.7292 89.6198 50.589 89.2031 50.4943L87.7259 50.1705C86.9115 49.9848 86.3092 49.6894 85.919 49.2841C85.5327 48.8788 85.3395 48.3655 85.3395 47.7443C85.3395 47.2292 85.4834 46.7784 85.7713 46.392C86.0592 46.0057 86.4569 45.7045 86.9645 45.4886C87.4721 45.2689 88.0535 45.1591 88.7088 45.1591C89.652 45.1591 90.3944 45.3636 90.9361 45.7727C91.4777 46.178 91.8357 46.7216 92.0099 47.4034ZM97.8097 54.1761C96.9498 54.1761 96.2093 53.9924 95.5881 53.625C94.9706 53.2538 94.4934 52.733 94.1562 52.0625C93.8229 51.3883 93.6562 50.5985 93.6562 49.6932C93.6562 48.7992 93.8229 48.0114 94.1562 47.3295C94.4934 46.6477 94.9631 46.1155 95.5653 45.733C96.1714 45.3504 96.8797 45.1591 97.6903 45.1591C98.1828 45.1591 98.66 45.2405 99.1222 45.4034C99.5843 45.5663 99.9991 45.822 100.366 46.1705C100.734 46.5189 101.024 46.9716 101.236 47.5284C101.448 48.0814 101.554 48.7538 101.554 49.5455V50.1477H94.6165V48.875H99.8892C99.8892 48.428 99.7983 48.0322 99.6165 47.6875C99.4347 47.339 99.179 47.0644 98.8494 46.8636C98.5237 46.6629 98.1411 46.5625 97.7017 46.5625C97.2244 46.5625 96.8078 46.6799 96.4517 46.9148C96.0994 47.1458 95.8267 47.4489 95.6335 47.8239C95.4441 48.1951 95.3494 48.5985 95.3494 49.0341V50.0284C95.3494 50.6117 95.4517 51.108 95.6562 51.517C95.8646 51.9261 96.1544 52.2386 96.5256 52.4545C96.8968 52.6667 97.3305 52.7727 97.8267 52.7727C98.1487 52.7727 98.4422 52.7273 98.7074 52.6364C98.9725 52.5417 99.2017 52.4015 99.3949 52.2159C99.5881 52.0303 99.7358 51.8011 99.8381 51.5284L101.446 51.8182C101.317 52.2917 101.086 52.7064 100.753 53.0625C100.423 53.4148 100.009 53.6894 99.5085 53.8864C99.0123 54.0795 98.446 54.1761 97.8097 54.1761ZM107.115 54.1761C106.27 54.1761 105.543 53.9848 104.933 53.6023C104.327 53.2159 103.861 52.6837 103.536 52.0057C103.21 51.3277 103.047 50.5511 103.047 49.6761C103.047 48.7898 103.214 48.0076 103.547 47.3295C103.88 46.6477 104.35 46.1155 104.956 45.733C105.562 45.3504 106.276 45.1591 107.098 45.1591C107.761 45.1591 108.352 45.2822 108.871 45.5284C109.39 45.7708 109.808 46.1117 110.126 46.5511C110.448 46.9905 110.64 47.5038 110.7 48.0909H109.047C108.956 47.6818 108.748 47.3295 108.422 47.0341C108.1 46.7386 107.668 46.5909 107.126 46.5909C106.653 46.5909 106.238 46.7159 105.882 46.9659C105.53 47.2121 105.255 47.5644 105.058 48.0227C104.861 48.4773 104.763 49.0152 104.763 49.6364C104.763 50.2727 104.859 50.822 105.053 51.2841C105.246 51.7462 105.518 52.1042 105.871 52.358C106.227 52.6117 106.645 52.7386 107.126 52.7386C107.448 52.7386 107.74 52.6799 108.001 52.5625C108.267 52.4413 108.488 52.2689 108.666 52.0455C108.848 51.822 108.975 51.553 109.047 51.2386H110.7C110.64 51.803 110.456 52.3068 110.149 52.75C109.842 53.1932 109.431 53.5417 108.916 53.7955C108.405 54.0492 107.804 54.1761 107.115 54.1761ZM116.193 54.1761C115.375 54.1761 114.661 53.9886 114.051 53.6136C113.441 53.2386 112.968 52.714 112.631 52.0398C112.294 51.3655 112.125 50.5777 112.125 49.6761C112.125 48.7708 112.294 47.9792 112.631 47.3011C112.968 46.6231 113.441 46.0966 114.051 45.7216C114.661 45.3466 115.375 45.1591 116.193 45.1591C117.011 45.1591 117.725 45.3466 118.335 45.7216C118.945 46.0966 119.419 46.6231 119.756 47.3011C120.093 47.9792 120.261 48.7708 120.261 49.6761C120.261 50.5777 120.093 51.3655 119.756 52.0398C119.419 52.714 118.945 53.2386 118.335 53.6136C117.725 53.9886 117.011 54.1761 116.193 54.1761ZM116.199 52.75C116.729 52.75 117.169 52.6098 117.517 52.3295C117.866 52.0492 118.123 51.6761 118.29 51.2102C118.46 50.7443 118.545 50.2311 118.545 49.6705C118.545 49.1136 118.46 48.6023 118.29 48.1364C118.123 47.6667 117.866 47.2898 117.517 47.0057C117.169 46.7216 116.729 46.5795 116.199 46.5795C115.665 46.5795 115.222 46.7216 114.869 47.0057C114.521 47.2898 114.261 47.6667 114.091 48.1364C113.924 48.6023 113.841 49.1136 113.841 49.6705C113.841 50.2311 113.924 50.7443 114.091 51.2102C114.261 51.6761 114.521 52.0492 114.869 52.3295C115.222 52.6098 115.665 52.75 116.199 52.75ZM123.857 48.8182V54H122.158V45.2727H123.788V46.6932H123.896C124.097 46.2311 124.411 45.8598 124.839 45.5795C125.271 45.2992 125.815 45.1591 126.47 45.1591C127.065 45.1591 127.586 45.2841 128.033 45.5341C128.48 45.7803 128.826 46.1477 129.072 46.6364C129.319 47.125 129.442 47.7292 129.442 48.4489V54H127.743V48.6534C127.743 48.0208 127.578 47.5265 127.249 47.1705C126.919 46.8106 126.466 46.6307 125.891 46.6307C125.497 46.6307 125.146 46.7159 124.839 46.8864C124.536 47.0568 124.296 47.3068 124.118 47.6364C123.944 47.9621 123.857 48.3561 123.857 48.8182ZM134.987 54.1705C134.283 54.1705 133.654 53.9905 133.101 53.6307C132.552 53.267 132.12 52.75 131.805 52.0795C131.495 51.4053 131.339 50.5966 131.339 49.6534C131.339 48.7102 131.497 47.9034 131.811 47.233C132.129 46.5625 132.565 46.0492 133.118 45.6932C133.671 45.3371 134.298 45.1591 134.999 45.1591C135.54 45.1591 135.976 45.25 136.305 45.4318C136.639 45.6098 136.896 45.8182 137.078 46.0568C137.264 46.2955 137.408 46.5057 137.51 46.6875H137.612V42.3636H139.311V54H137.652V52.642H137.51C137.408 52.8277 137.26 53.0398 137.067 53.2784C136.877 53.517 136.616 53.7254 136.283 53.9034C135.949 54.0814 135.518 54.1705 134.987 54.1705ZM135.362 52.7216C135.851 52.7216 136.264 52.5928 136.601 52.3352C136.942 52.0739 137.199 51.7121 137.374 51.25C137.552 50.7879 137.641 50.25 137.641 49.6364C137.641 49.0303 137.554 48.5 137.379 48.0455C137.205 47.5909 136.949 47.2367 136.612 46.983C136.275 46.7292 135.858 46.6023 135.362 46.6023C134.851 46.6023 134.425 46.7348 134.084 47C133.743 47.2652 133.485 47.6269 133.311 48.0852C133.141 48.5436 133.055 49.0606 133.055 49.6364C133.055 50.2197 133.143 50.7443 133.317 51.2102C133.491 51.6761 133.749 52.0455 134.089 52.3182C134.434 52.5871 134.858 52.7216 135.362 52.7216ZM149.646 54.1761C148.828 54.1761 148.114 53.9886 147.504 53.6136C146.894 53.2386 146.421 52.714 146.084 52.0398C145.747 51.3655 145.578 50.5777 145.578 49.6761C145.578 48.7708 145.747 47.9792 146.084 47.3011C146.421 46.6231 146.894 46.0966 147.504 45.7216C148.114 45.3466 148.828 45.1591 149.646 45.1591C150.464 45.1591 151.179 45.3466 151.788 45.7216C152.398 46.0966 152.872 46.6231 153.209 47.3011C153.546 47.9792 153.714 48.7708 153.714 49.6761C153.714 50.5777 153.546 51.3655 153.209 52.0398C152.872 52.714 152.398 53.2386 151.788 53.6136C151.179 53.9886 150.464 54.1761 149.646 54.1761ZM149.652 52.75C150.182 52.75 150.622 52.6098 150.97 52.3295C151.319 52.0492 151.576 51.6761 151.743 51.2102C151.913 50.7443 151.999 50.2311 151.999 49.6705C151.999 49.1136 151.913 48.6023 151.743 48.1364C151.576 47.6667 151.319 47.2898 150.97 47.0057C150.622 46.7216 150.182 46.5795 149.652 46.5795C149.118 46.5795 148.675 46.7216 148.322 47.0057C147.974 47.2898 147.714 47.6667 147.544 48.1364C147.377 48.6023 147.294 49.1136 147.294 49.6705C147.294 50.2311 147.377 50.7443 147.544 51.2102C147.714 51.6761 147.974 52.0492 148.322 52.3295C148.675 52.6098 149.118 52.75 149.652 52.75ZM155.611 57.2727V45.2727H157.27V46.6875H157.412C157.51 46.5057 157.652 46.2955 157.838 46.0568C158.024 45.8182 158.281 45.6098 158.611 45.4318C158.94 45.25 159.376 45.1591 159.918 45.1591C160.622 45.1591 161.251 45.3371 161.804 45.6932C162.357 46.0492 162.791 46.5625 163.105 47.233C163.423 47.9034 163.582 48.7102 163.582 49.6534C163.582 50.5966 163.425 51.4053 163.111 52.0795C162.796 52.75 162.365 53.267 161.815 53.6307C161.266 53.9905 160.639 54.1705 159.935 54.1705C159.404 54.1705 158.971 54.0814 158.634 53.9034C158.3 53.7254 158.039 53.517 157.849 53.2784C157.66 53.0398 157.514 52.8277 157.412 52.642H157.31V57.2727H155.611ZM157.276 49.6364C157.276 50.25 157.365 50.7879 157.543 51.25C157.721 51.7121 157.978 52.0739 158.315 52.3352C158.652 52.5928 159.065 52.7216 159.554 52.7216C160.062 52.7216 160.486 52.5871 160.827 52.3182C161.168 52.0455 161.425 51.6761 161.599 51.2102C161.777 50.7443 161.866 50.2197 161.866 49.6364C161.866 49.0606 161.779 48.5436 161.605 48.0852C161.435 47.6269 161.177 47.2652 160.832 47C160.491 46.7348 160.065 46.6023 159.554 46.6023C159.062 46.6023 158.645 46.7292 158.304 46.983C157.967 47.2367 157.711 47.5909 157.537 48.0455C157.363 48.5 157.276 49.0303 157.276 49.6364ZM169.56 45.2727V46.6364H164.793V45.2727H169.56ZM166.071 43.1818H167.77V51.4375C167.77 51.767 167.819 52.0152 167.918 52.1818C168.016 52.3447 168.143 52.4564 168.298 52.517C168.457 52.5739 168.63 52.6023 168.815 52.6023C168.952 52.6023 169.071 52.5928 169.173 52.5739C169.276 52.5549 169.355 52.5398 169.412 52.5284L169.719 53.9318C169.62 53.9697 169.48 54.0076 169.298 54.0455C169.116 54.0871 168.889 54.1098 168.616 54.1136C168.17 54.1212 167.753 54.0417 167.366 53.875C166.98 53.7083 166.668 53.4508 166.429 53.1023C166.19 52.7538 166.071 52.3163 166.071 51.7898V43.1818ZM171.439 54V45.2727H173.138V54H171.439ZM172.297 43.9261C172.001 43.9261 171.748 43.8277 171.536 43.6307C171.327 43.4299 171.223 43.1913 171.223 42.9148C171.223 42.6345 171.327 42.3958 171.536 42.1989C171.748 41.9981 172.001 41.8977 172.297 41.8977C172.592 41.8977 172.844 41.9981 173.053 42.1989C173.265 42.3958 173.371 42.6345 173.371 42.9148C173.371 43.1913 173.265 43.4299 173.053 43.6307C172.844 43.8277 172.592 43.9261 172.297 43.9261ZM179.099 54.1761C178.281 54.1761 177.567 53.9886 176.957 53.6136C176.348 53.2386 175.874 52.714 175.537 52.0398C175.2 51.3655 175.031 50.5777 175.031 49.6761C175.031 48.7708 175.2 47.9792 175.537 47.3011C175.874 46.6231 176.348 46.0966 176.957 45.7216C177.567 45.3466 178.281 45.1591 179.099 45.1591C179.918 45.1591 180.632 45.3466 181.241 45.7216C181.851 46.0966 182.325 46.6231 182.662 47.3011C182.999 47.9792 183.168 48.7708 183.168 49.6761C183.168 50.5777 182.999 51.3655 182.662 52.0398C182.325 52.714 181.851 53.2386 181.241 53.6136C180.632 53.9886 179.918 54.1761 179.099 54.1761ZM179.105 52.75C179.635 52.75 180.075 52.6098 180.423 52.3295C180.772 52.0492 181.029 51.6761 181.196 51.2102C181.366 50.7443 181.452 50.2311 181.452 49.6705C181.452 49.1136 181.366 48.6023 181.196 48.1364C181.029 47.6667 180.772 47.2898 180.423 47.0057C180.075 46.7216 179.635 46.5795 179.105 46.5795C178.571 46.5795 178.128 46.7216 177.776 47.0057C177.427 47.2898 177.168 47.6667 176.997 48.1364C176.83 48.6023 176.747 49.1136 176.747 49.6705C176.747 50.2311 176.83 50.7443 176.997 51.2102C177.168 51.6761 177.427 52.0492 177.776 52.3295C178.128 52.6098 178.571 52.75 179.105 52.75ZM186.763 48.8182V54H185.064V45.2727H186.695V46.6932H186.803C187.003 46.2311 187.318 45.8598 187.746 45.5795C188.178 45.2992 188.721 45.1591 189.376 45.1591C189.971 45.1591 190.492 45.2841 190.939 45.5341C191.386 45.7803 191.732 46.1477 191.979 46.6364C192.225 47.125 192.348 47.7292 192.348 48.4489V54H190.649V48.6534C190.649 48.0208 190.484 47.5265 190.155 47.1705C189.825 46.8106 189.373 46.6307 188.797 46.6307C188.403 46.6307 188.053 46.7159 187.746 46.8864C187.443 47.0568 187.202 47.3068 187.024 47.6364C186.85 47.9621 186.763 48.3561 186.763 48.8182Z" fill="#414651"/>
<rect x="0.5" y="2.5" width="19" height="19" rx="5.5" fill="white"/>
<rect x="0.5" y="2.5" width="19" height="19" rx="5.5" stroke="#484646"/>
<path d="M14.6668 8.5L8.25016 14.9167L5.3335 12" stroke="#484646" stroke-width="2" stroke-linecap="round" stroke-linejoin="round"/>
<path d="M39.625 9.42045C39.5644 8.88258 39.3144 8.46591 38.875 8.17045C38.4356 7.87121 37.8826 7.72159 37.2159 7.72159C36.7386 7.72159 36.3258 7.79735 35.9773 7.94886C35.6288 8.09659 35.358 8.30114 35.1648 8.5625C34.9754 8.82008 34.8807 9.11364 34.8807 9.44318C34.8807 9.7197 34.9451 9.95833 35.0739 10.1591C35.2064 10.3598 35.3788 10.5284 35.5909 10.6648C35.8068 10.7973 36.0379 10.9091 36.2841 11C36.5303 11.0871 36.767 11.1591 36.9943 11.2159L38.1307 11.5114C38.5019 11.6023 38.8826 11.7254 39.2727 11.8807C39.6629 12.036 40.0246 12.2405 40.358 12.4943C40.6913 12.7481 40.9602 13.0625 41.1648 13.4375C41.3731 13.8125 41.4773 14.2614 41.4773 14.7841C41.4773 15.4432 41.3068 16.0284 40.9659 16.5398C40.6288 17.0511 40.1383 17.4545 39.4943 17.75C38.8542 18.0455 38.0795 18.1932 37.1705 18.1932C36.2992 18.1932 35.5455 18.0549 34.9091 17.7784C34.2727 17.5019 33.7746 17.1098 33.4148 16.6023C33.0549 16.0909 32.8561 15.4848 32.8182 14.7841H34.5795C34.6136 15.2045 34.75 15.5549 34.9886 15.8352C35.2311 16.1117 35.5398 16.3182 35.9148 16.4545C36.2936 16.5871 36.7083 16.6534 37.1591 16.6534C37.6553 16.6534 38.0966 16.5758 38.483 16.4205C38.8731 16.2614 39.1799 16.0417 39.4034 15.7614C39.6269 15.4773 39.7386 15.1458 39.7386 14.767C39.7386 14.4223 39.6402 14.1402 39.4432 13.9205C39.25 13.7008 38.9867 13.5189 38.6534 13.375C38.3239 13.2311 37.9508 13.1042 37.5341 12.9943L36.1591 12.6193C35.2273 12.3655 34.4886 11.9924 33.9432 11.5C33.4015 11.0076 33.1307 10.3561 33.1307 9.54545C33.1307 8.875 33.3125 8.28977 33.6761 7.78977C34.0398 7.28977 34.5322 6.90151 35.1534 6.625C35.7746 6.3447 36.4754 6.20455 37.2557 6.20455C38.0436 6.20455 38.7386 6.3428 39.3409 6.61932C39.947 6.89583 40.4242 7.27652 40.7727 7.76136C41.1212 8.24242 41.303 8.79545 41.3182 9.42045H39.625ZM47.2003 18.1761C46.3404 18.1761 45.5999 17.9924 44.9787 17.625C44.3613 17.2538 43.884 16.733 43.5469 16.0625C43.2135 15.3883 43.0469 14.5985 43.0469 13.6932C43.0469 12.7992 43.2135 12.0114 43.5469 11.3295C43.884 10.6477 44.3537 10.1155 44.956 9.73295C45.562 9.35038 46.2704 9.15909 47.081 9.15909C47.5734 9.15909 48.0507 9.24053 48.5128 9.40341C48.9749 9.56629 49.3897 9.82197 49.7571 10.1705C50.1245 10.5189 50.4143 10.9716 50.6264 11.5284C50.8385 12.0814 50.9446 12.7538 50.9446 13.5455V14.1477H44.0071V12.875H49.2798C49.2798 12.428 49.1889 12.0322 49.0071 11.6875C48.8253 11.339 48.5696 11.0644 48.2401 10.8636C47.9143 10.6629 47.5317 10.5625 47.0923 10.5625C46.6151 10.5625 46.1984 10.6799 45.8423 10.9148C45.4901 11.1458 45.2173 11.4489 45.0241 11.8239C44.8348 12.1951 44.7401 12.5985 44.7401 13.0341V14.0284C44.7401 14.6117 44.8423 15.108 45.0469 15.517C45.2552 15.9261 45.545 16.2386 45.9162 16.4545C46.2874 16.6667 46.7211 16.7727 47.2173 16.7727C47.5393 16.7727 47.8329 16.7273 48.098 16.6364C48.3632 16.5417 48.5923 16.4015 48.7855 16.2159C48.9787 16.0303 49.1264 15.8011 49.2287 15.5284L50.8366 15.8182C50.7079 16.2917 50.4768 16.7064 50.1435 17.0625C49.8139 17.4148 49.3991 17.6894 48.8991 17.8864C48.4029 18.0795 47.8366 18.1761 47.2003 18.1761ZM54.5284 6.36364V18H52.8295V6.36364H54.5284ZM60.5753 18.1761C59.7154 18.1761 58.9749 17.9924 58.3537 17.625C57.7363 17.2538 57.259 16.733 56.9219 16.0625C56.5885 15.3883 56.4219 14.5985 56.4219 13.6932C56.4219 12.7992 56.5885 12.0114 56.9219 11.3295C57.259 10.6477 57.7287 10.1155 58.331 9.73295C58.937 9.35038 59.6454 9.15909 60.456 9.15909C60.9484 9.15909 61.4257 9.24053 61.8878 9.40341C62.3499 9.56629 62.7647 9.82197 63.1321 10.1705C63.4995 10.5189 63.7893 10.9716 64.0014 11.5284C64.2135 12.0814 64.3196 12.7538 64.3196 13.5455V14.1477H57.3821V12.875H62.6548C62.6548 12.428 62.5639 12.0322 62.3821 11.6875C62.2003 11.339 61.9446 11.0644 61.6151 10.8636C61.2893 10.6629 60.9067 10.5625 60.4673 10.5625C59.9901 10.5625 59.5734 10.6799 59.2173 10.9148C58.8651 11.1458 58.5923 11.4489 58.3991 11.8239C58.2098 12.1951 58.1151 12.5985 58.1151 13.0341V14.0284C58.1151 14.6117 58.2173 15.108 58.4219 15.517C58.6302 15.9261 58.92 16.2386 59.2912 16.4545C59.6624 16.6667 60.0961 16.7727 60.5923 16.7727C60.9143 16.7727 61.2079 16.7273 61.473 16.6364C61.7382 16.5417 61.9673 16.4015 62.1605 16.2159C62.3537 16.0303 62.5014 15.8011 62.6037 15.5284L64.2116 15.8182C64.0829 16.2917 63.8518 16.7064 63.5185 17.0625C63.1889 17.4148 62.7741 17.6894 62.2741 17.8864C61.7779 18.0795 61.2116 18.1761 60.5753 18.1761ZM69.8807 18.1761C69.036 18.1761 68.3087 17.9848 67.6989 17.6023C67.0928 17.2159 66.6269 16.6837 66.3011 16.0057C65.9754 15.3277 65.8125 14.5511 65.8125 13.6761C65.8125 12.7898 65.9792 12.0076 66.3125 11.3295C66.6458 10.6477 67.1155 10.1155 67.7216 9.73295C68.3277 9.35038 69.0417 9.15909 69.8636 9.15909C70.5265 9.15909 71.1174 9.2822 71.6364 9.52841C72.1553 9.77083 72.5739 10.1117 72.892 10.5511C73.214 10.9905 73.4053 11.5038 73.4659 12.0909H71.8125C71.7216 11.6818 71.5133 11.3295 71.1875 11.0341C70.8655 10.7386 70.4337 10.5909 69.892 10.5909C69.4186 10.5909 69.0038 10.7159 68.6477 10.9659C68.2955 11.2121 68.0208 11.5644 67.8239 12.0227C67.6269 12.4773 67.5284 13.0152 67.5284 13.6364C67.5284 14.2727 67.625 14.822 67.8182 15.2841C68.0114 15.7462 68.2841 16.1042 68.6364 16.358C68.9924 16.6117 69.411 16.7386 69.892 16.7386C70.214 16.7386 70.5057 16.6799 70.767 16.5625C71.0322 16.4413 71.2538 16.2689 71.4318 16.0455C71.6136 15.822 71.7405 15.553 71.8125 15.2386H73.4659C73.4053 15.803 73.2216 16.3068 72.9148 16.75C72.608 17.1932 72.197 17.5417 71.6818 17.7955C71.1705 18.0492 70.5701 18.1761 69.8807 18.1761ZM79.3565 9.27273V10.6364H74.5895V9.27273H79.3565ZM75.8679 7.18182H77.5668V15.4375C77.5668 15.767 77.616 16.0152 77.7145 16.1818C77.813 16.3447 77.9399 16.4564 78.0952 16.517C78.2543 16.5739 78.4266 16.6023 78.6122 16.6023C78.7486 16.6023 78.8679 16.5928 78.9702 16.5739C79.0724 16.5549 79.152 16.5398 79.2088 16.5284L79.5156 17.9318C79.4171 17.9697 79.277 18.0076 79.0952 18.0455C78.9134 18.0871 78.6861 18.1098 78.4134 18.1136C77.9664 18.1212 77.5497 18.0417 77.1634 17.875C76.777 17.7083 76.4645 17.4508 76.2259 17.1023C75.9872 16.7538 75.8679 16.3163 75.8679 15.7898V7.18182ZM89.6236 9.27273V10.6364H84.6918V9.27273H89.6236ZM86.044 18V8.26136C86.044 7.71591 86.1634 7.26326 86.402 6.90341C86.6406 6.53977 86.9569 6.26894 87.3509 6.09091C87.7448 5.90909 88.1728 5.81818 88.6349 5.81818C88.9759 5.81818 89.2675 5.84659 89.5099 5.90341C89.7524 5.95644 89.9323 6.00568 90.0497 6.05114L89.652 7.42614C89.5724 7.40341 89.4702 7.37689 89.3452 7.34659C89.2202 7.3125 89.0687 7.29545 88.8906 7.29545C88.4777 7.29545 88.1823 7.39773 88.0043 7.60227C87.83 7.80682 87.7429 8.10227 87.7429 8.48864V18H86.044ZM91.3764 18V9.27273H93.0753V18H91.3764ZM92.2344 7.92614C91.9389 7.92614 91.6851 7.82765 91.473 7.63068C91.2647 7.42992 91.1605 7.19129 91.1605 6.91477C91.1605 6.63447 91.2647 6.39583 91.473 6.19886C91.6851 5.99811 91.9389 5.89773 92.2344 5.89773C92.5298 5.89773 92.7817 5.99811 92.9901 6.19886C93.2022 6.39583 93.3082 6.63447 93.3082 6.91477C93.3082 7.19129 93.2022 7.42992 92.9901 7.63068C92.7817 7.82765 92.5298 7.92614 92.2344 7.92614ZM95.3608 18V9.27273H97.0028V10.6591H97.0938C97.2528 10.1894 97.5331 9.82008 97.9347 9.55114C98.34 9.27841 98.7983 9.14205 99.3097 9.14205C99.4157 9.14205 99.5407 9.14583 99.6847 9.15341C99.8324 9.16098 99.9479 9.17045 100.031 9.18182V10.8068C99.9631 10.7879 99.8419 10.767 99.6676 10.7443C99.4934 10.7178 99.3191 10.7045 99.1449 10.7045C98.7434 10.7045 98.3854 10.7898 98.071 10.9602C97.7604 11.1269 97.5142 11.3598 97.3324 11.6591C97.1506 11.9545 97.0597 12.2917 97.0597 12.6705V18H95.3608ZM108.041 11.4034L106.501 11.6761C106.437 11.4792 106.335 11.2917 106.195 11.1136C106.058 10.9356 105.873 10.7898 105.638 10.6761C105.403 10.5625 105.109 10.5057 104.757 10.5057C104.276 10.5057 103.875 10.6136 103.553 10.8295C103.231 11.0417 103.07 11.3163 103.07 11.6534C103.07 11.9451 103.178 12.1799 103.393 12.358C103.609 12.536 103.958 12.6818 104.439 12.7955L105.825 13.1136C106.628 13.2992 107.227 13.5852 107.621 13.9716C108.015 14.358 108.212 14.8598 108.212 15.4773C108.212 16 108.06 16.4659 107.757 16.875C107.458 17.2803 107.039 17.5985 106.501 17.8295C105.967 18.0606 105.348 18.1761 104.643 18.1761C103.666 18.1761 102.869 17.9678 102.251 17.5511C101.634 17.1307 101.255 16.5341 101.115 15.7614L102.757 15.5114C102.859 15.9394 103.07 16.2633 103.388 16.483C103.706 16.6989 104.121 16.8068 104.632 16.8068C105.189 16.8068 105.634 16.6913 105.967 16.4602C106.301 16.2254 106.467 15.9394 106.467 15.6023C106.467 15.3295 106.365 15.1004 106.161 14.9148C105.96 14.7292 105.651 14.589 105.234 14.4943L103.757 14.1705C102.943 13.9848 102.34 13.6894 101.95 13.2841C101.564 12.8788 101.371 12.3655 101.371 11.7443C101.371 11.2292 101.515 10.7784 101.803 10.392C102.09 10.0057 102.488 9.70455 102.996 9.48864C103.503 9.26894 104.085 9.15909 104.74 9.15909C105.683 9.15909 106.426 9.36364 106.967 9.77273C107.509 10.178 107.867 10.7216 108.041 11.4034ZM114.153 9.27273V10.6364H109.386V9.27273H114.153ZM110.665 7.18182H112.364V15.4375C112.364 15.767 112.413 16.0152 112.511 16.1818C112.61 16.3447 112.737 16.4564 112.892 16.517C113.051 16.5739 113.223 16.6023 113.409 16.6023C113.545 16.6023 113.665 16.5928 113.767 16.5739C113.869 16.5549 113.949 16.5398 114.006 16.5284L114.312 17.9318C114.214 17.9697 114.074 18.0076 113.892 18.0455C113.71 18.0871 113.483 18.1098 113.21 18.1136C112.763 18.1212 112.347 18.0417 111.96 17.875C111.574 17.7083 111.261 17.4508 111.023 17.1023C110.784 16.7538 110.665 16.3163 110.665 15.7898V7.18182ZM123.943 18.1761C123.125 18.1761 122.411 17.9886 121.801 17.6136C121.191 17.2386 120.718 16.714 120.381 16.0398C120.044 15.3655 119.875 14.5777 119.875 13.6761C119.875 12.7708 120.044 11.9792 120.381 11.3011C120.718 10.6231 121.191 10.0966 121.801 9.72159C122.411 9.34659 123.125 9.15909 123.943 9.15909C124.761 9.15909 125.475 9.34659 126.085 9.72159C126.695 10.0966 127.169 10.6231 127.506 11.3011C127.843 11.9792 128.011 12.7708 128.011 13.6761C128.011 14.5777 127.843 15.3655 127.506 16.0398C127.169 16.714 126.695 17.2386 126.085 17.6136C125.475 17.9886 124.761 18.1761 123.943 18.1761ZM123.949 16.75C124.479 16.75 124.919 16.6098 125.267 16.3295C125.616 16.0492 125.873 15.6761 126.04 15.2102C126.21 14.7443 126.295 14.2311 126.295 13.6705C126.295 13.1136 126.21 12.6023 126.04 12.1364C125.873 11.6667 125.616 11.2898 125.267 11.0057C124.919 10.7216 124.479 10.5795 123.949 10.5795C123.415 10.5795 122.972 10.7216 122.619 11.0057C122.271 11.2898 122.011 11.6667 121.841 12.1364C121.674 12.6023 121.591 13.1136 121.591 13.6705C121.591 14.2311 121.674 14.7443 121.841 15.2102C122.011 15.6761 122.271 16.0492 122.619 16.3295C122.972 16.6098 123.415 16.75 123.949 16.75ZM129.908 21.2727V9.27273H131.567V10.6875H131.709C131.807 10.5057 131.949 10.2955 132.135 10.0568C132.321 9.81818 132.578 9.60985 132.908 9.43182C133.237 9.25 133.673 9.15909 134.214 9.15909C134.919 9.15909 135.548 9.33712 136.101 9.69318C136.654 10.0492 137.088 10.5625 137.402 11.233C137.72 11.9034 137.879 12.7102 137.879 13.6534C137.879 14.5966 137.722 15.4053 137.408 16.0795C137.093 16.75 136.661 17.267 136.112 17.6307C135.563 17.9905 134.936 18.1705 134.232 18.1705C133.701 18.1705 133.268 18.0814 132.93 17.9034C132.597 17.7254 132.336 17.517 132.146 17.2784C131.957 17.0398 131.811 16.8277 131.709 16.642H131.607V21.2727H129.908ZM131.572 13.6364C131.572 14.25 131.661 14.7879 131.839 15.25C132.018 15.7121 132.275 16.0739 132.612 16.3352C132.949 16.5928 133.362 16.7216 133.851 16.7216C134.358 16.7216 134.783 16.5871 135.124 16.3182C135.464 16.0455 135.722 15.6761 135.896 15.2102C136.074 14.7443 136.163 14.2197 136.163 13.6364C136.163 13.0606 136.076 12.5436 135.902 12.0852C135.732 11.6269 135.474 11.2652 135.129 11C134.788 10.7348 134.362 10.6023 133.851 10.6023C133.358 10.6023 132.942 10.7292 132.601 10.983C132.264 11.2367 132.008 11.5909 131.834 12.0455C131.66 12.5 131.572 13.0303 131.572 13.6364ZM143.857 9.27273V10.6364H139.089V9.27273H143.857ZM140.368 7.18182H142.067V15.4375C142.067 15.767 142.116 16.0152 142.214 16.1818C142.313 16.3447 142.44 16.4564 142.595 16.517C142.754 16.5739 142.927 16.6023 143.112 16.6023C143.249 16.6023 143.368 16.5928 143.47 16.5739C143.572 16.5549 143.652 16.5398 143.709 16.5284L144.016 17.9318C143.917 17.9697 143.777 18.0076 143.595 18.0455C143.413 18.0871 143.186 18.1098 142.913 18.1136C142.466 18.1212 142.05 18.0417 141.663 17.875C141.277 17.7083 140.964 17.4508 140.726 17.1023C140.487 16.7538 140.368 16.3163 140.368 15.7898V7.18182ZM145.736 18V9.27273H147.435V18H145.736ZM146.594 7.92614C146.298 7.92614 146.045 7.82765 145.832 7.63068C145.624 7.42992 145.52 7.19129 145.52 6.91477C145.52 6.63447 145.624 6.39583 145.832 6.19886C146.045 5.99811 146.298 5.89773 146.594 5.89773C146.889 5.89773 147.141 5.99811 147.349 6.19886C147.562 6.39583 147.668 6.63447 147.668 6.91477C147.668 7.19129 147.562 7.42992 147.349 7.63068C147.141 7.82765 146.889 7.92614 146.594 7.92614ZM153.396 18.1761C152.578 18.1761 151.864 17.9886 151.254 17.6136C150.644 17.2386 150.171 16.714 149.834 16.0398C149.497 15.3655 149.328 14.5777 149.328 13.6761C149.328 12.7708 149.497 11.9792 149.834 11.3011C150.171 10.6231 150.644 10.0966 151.254 9.72159C151.864 9.34659 152.578 9.15909 153.396 9.15909C154.214 9.15909 154.929 9.34659 155.538 9.72159C156.148 10.0966 156.622 10.6231 156.959 11.3011C157.296 11.9792 157.464 12.7708 157.464 13.6761C157.464 14.5777 157.296 15.3655 156.959 16.0398C156.622 16.714 156.148 17.2386 155.538 17.6136C154.929 17.9886 154.214 18.1761 153.396 18.1761ZM153.402 16.75C153.932 16.75 154.372 16.6098 154.72 16.3295C155.069 16.0492 155.326 15.6761 155.493 15.2102C155.663 14.7443 155.749 14.2311 155.749 13.6705C155.749 13.1136 155.663 12.6023 155.493 12.1364C155.326 11.6667 155.069 11.2898 154.72 11.0057C154.372 10.7216 153.932 10.5795 153.402 10.5795C152.868 10.5795 152.425 10.7216 152.072 11.0057C151.724 11.2898 151.464 11.6667 151.294 12.1364C151.127 12.6023 151.044 13.1136 151.044 13.6705C151.044 14.2311 151.127 14.7443 151.294 15.2102C151.464 15.6761 151.724 16.0492 152.072 16.3295C152.425 16.6098 152.868 16.75 153.402 16.75ZM161.06 12.8182V18H159.361V9.27273H160.991V10.6932H161.099C161.3 10.2311 161.615 9.85985 162.043 9.57955C162.474 9.29924 163.018 9.15909 163.673 9.15909C164.268 9.15909 164.789 9.28409 165.236 9.53409C165.683 9.7803 166.029 10.1477 166.276 10.6364C166.522 11.125 166.645 11.7292 166.645 12.4489V18H164.946V12.6534C164.946 12.0208 164.781 11.5265 164.452 11.1705C164.122 10.8106 163.67 10.6307 163.094 10.6307C162.7 10.6307 162.349 10.7159 162.043 10.8864C161.74 11.0568 161.499 11.3068 161.321 11.6364C161.147 11.9621 161.06 12.3561 161.06 12.8182Z" fill="#414651"/>
</svg>
