<svg width="278" height="41" viewBox="0 0 278 41" fill="none" xmlns="http://www.w3.org/2000/svg">
<g clip-path="url(#clip0_8_16)">
<path d="M274 0.5H4C2.067 0.5 0.5 2.067 0.5 4V37C0.5 38.933 2.067 40.5 4 40.5H274C275.933 40.5 277.5 38.933 277.5 37V4C277.5 2.067 275.933 0.5 274 0.5Z" fill="white"/>
<path d="M274 0.5H4C2.067 0.5 0.5 2.067 0.5 4V37C0.5 38.933 2.067 40.5 4 40.5H274C275.933 40.5 277.5 38.933 277.5 37V4C277.5 2.067 275.933 0.5 274 0.5Z" stroke="#CAA5FF"/>
<path d="M29 11H15C13.6193 11 12.5 12.1193 12.5 13.5V27.5C12.5 28.8807 13.6193 30 15 30H29C30.3807 30 31.5 28.8807 31.5 27.5V13.5C31.5 12.1193 30.3807 11 29 11Z" stroke="#9549FF"/>
<path d="M28.25 18L22 24.25L15.75 18" stroke="white" stroke-width="0.9375" stroke-linecap="round" stroke-linejoin="round"/>
<path d="M45 10.5H44V30.5H45V10.5Z" fill="white"/>
<path d="M51.8015 18.3636C51.7419 17.8598 51.4999 17.4688 51.0757 17.1903C50.6514 16.9119 50.1311 16.7727 49.5146 16.7727C49.0638 16.7727 48.6694 16.8456 48.3314 16.9915C47.9966 17.1373 47.7348 17.3378 47.5459 17.593C47.3602 17.8482 47.2674 18.1383 47.2674 18.4631C47.2674 18.7348 47.3321 18.9685 47.4613 19.1641C47.5939 19.3563 47.7629 19.517 47.9684 19.6463C48.1739 19.7723 48.3894 19.8767 48.6147 19.9595C48.8401 20.0391 49.0473 20.1037 49.2362 20.1534L50.2703 20.4318C50.5354 20.5014 50.8304 20.5975 51.1552 20.7202C51.4834 20.8428 51.7966 21.0102 52.0949 21.2223C52.3965 21.4311 52.645 21.6996 52.8406 22.0277C53.0361 22.3558 53.1339 22.7585 53.1339 23.2358C53.1339 23.786 52.9897 24.2831 52.7014 24.7273C52.4164 25.1714 51.9987 25.5244 51.4486 25.7862C50.9017 26.0481 50.2371 26.179 49.4549 26.179C48.7258 26.179 48.0944 26.0613 47.5608 25.826C47.0305 25.5907 46.6129 25.2625 46.3079 24.8416C46.0063 24.4207 45.8356 23.9318 45.7959 23.375H47.0686C47.1017 23.7595 47.231 24.0777 47.4564 24.3295C47.6851 24.5781 47.9734 24.7637 48.3214 24.8864C48.6727 25.0057 49.0506 25.0653 49.4549 25.0653C49.9256 25.0653 50.3482 24.9891 50.7227 24.8366C51.0972 24.6809 51.3939 24.4654 51.6126 24.1903C51.8314 23.9119 51.9407 23.5871 51.9407 23.2159C51.9407 22.8778 51.8463 22.6027 51.6574 22.3906C51.4684 22.1785 51.2199 22.0062 50.9116 21.8736C50.6034 21.741 50.2703 21.625 49.9123 21.5256L48.6595 21.1676C47.864 20.9389 47.2343 20.6125 46.7703 20.1882C46.3063 19.764 46.0743 19.2088 46.0743 18.5227C46.0743 17.9527 46.2284 17.4555 46.5366 17.0312C46.8482 16.6037 47.2658 16.2723 47.7895 16.0369C48.3165 15.7983 48.9048 15.679 49.5544 15.679C50.2106 15.679 50.794 15.7966 51.3044 16.032C51.8148 16.264 52.2192 16.5821 52.5174 16.9865C52.8191 17.3909 52.9781 17.8499 52.9947 18.3636H51.8015ZM58.2037 26.1591C57.4679 26.1591 56.8332 25.9967 56.2996 25.6719C55.7693 25.3438 55.36 24.8864 55.0716 24.2997C54.7866 23.7098 54.644 23.0237 54.644 22.2415C54.644 21.4593 54.7866 20.7699 55.0716 20.1733C55.36 19.5734 55.761 19.1061 56.2747 18.7713C56.7918 18.4332 57.395 18.2642 58.0844 18.2642C58.4821 18.2642 58.8749 18.3305 59.2627 18.4631C59.6504 18.5956 60.0034 18.8111 60.3216 19.1094C60.6398 19.4044 60.8933 19.7955 61.0823 20.2827C61.2712 20.7699 61.3656 21.3698 61.3656 22.0824V22.5795H55.4793V21.5653H60.1725C60.1725 21.1345 60.0863 20.75 59.9139 20.4119C59.7449 20.0739 59.5029 19.8071 59.1881 19.6115C58.8765 19.416 58.5086 19.3182 58.0844 19.3182C57.6171 19.3182 57.2127 19.4342 56.8713 19.6662C56.5332 19.8949 56.2731 20.1932 56.0908 20.5611C55.9085 20.929 55.8173 21.3234 55.8173 21.7443V22.4205C55.8173 22.9972 55.9168 23.486 56.1156 23.8871C56.3178 24.2848 56.5979 24.5881 56.9558 24.7969C57.3138 25.0024 57.7297 25.1051 58.2037 25.1051C58.5119 25.1051 58.7904 25.062 59.0389 24.9759C59.2908 24.8864 59.5079 24.7538 59.6902 24.5781C59.8725 24.3991 60.0134 24.1771 60.1128 23.9119L61.2463 24.2301C61.127 24.6146 60.9265 24.9527 60.6448 25.2443C60.363 25.5327 60.015 25.758 59.6007 25.9205C59.1864 26.0795 58.7207 26.1591 58.2037 26.1591ZM64.3237 15.8182V26H63.1504V15.8182H64.3237ZM69.6744 26.1591C68.9386 26.1591 68.3039 25.9967 67.7703 25.6719C67.24 25.3438 66.8307 24.8864 66.5423 24.2997C66.2573 23.7098 66.1147 23.0237 66.1147 22.2415C66.1147 21.4593 66.2573 20.7699 66.5423 20.1733C66.8307 19.5734 67.2317 19.1061 67.7454 18.7713C68.2625 18.4332 68.8657 18.2642 69.5551 18.2642C69.9528 18.2642 70.3456 18.3305 70.7334 18.4631C71.1211 18.5956 71.4741 18.8111 71.7923 19.1094C72.1105 19.4044 72.364 19.7955 72.553 20.2827C72.7419 20.7699 72.8363 21.3698 72.8363 22.0824V22.5795H66.95V21.5653H71.6432C71.6432 21.1345 71.557 20.75 71.3846 20.4119C71.2156 20.0739 70.9736 19.8071 70.6588 19.6115C70.3472 19.416 69.9793 19.3182 69.5551 19.3182C69.0878 19.3182 68.6834 19.4342 68.342 19.6662C68.004 19.8949 67.7438 20.1932 67.5615 20.5611C67.3792 20.929 67.288 21.3234 67.288 21.7443V22.4205C67.288 22.9972 67.3875 23.486 67.5863 23.8871C67.7885 24.2848 68.0686 24.5881 68.4265 24.7969C68.7845 25.0024 69.2004 25.1051 69.6744 25.1051C69.9826 25.1051 70.2611 25.062 70.5096 24.9759C70.7615 24.8864 70.9786 24.7538 71.1609 24.5781C71.3432 24.3991 71.4841 24.1771 71.5835 23.9119L72.717 24.2301C72.5977 24.6146 72.3972 24.9527 72.1155 25.2443C71.8337 25.5327 71.4857 25.758 71.0714 25.9205C70.6571 26.0795 70.1915 26.1591 69.6744 26.1591ZM77.7234 26.1591C77.0075 26.1591 76.391 25.9901 75.874 25.652C75.3569 25.3139 74.9592 24.8482 74.6808 24.255C74.4024 23.6617 74.2632 22.9839 74.2632 22.2216C74.2632 21.446 74.4057 20.7616 74.6907 20.1683C74.9791 19.5717 75.3801 19.1061 75.8939 18.7713C76.4109 18.4332 77.0141 18.2642 77.7035 18.2642C78.2405 18.2642 78.7244 18.3636 79.1552 18.5625C79.5861 18.7614 79.9391 19.0398 80.2142 19.3977C80.4893 19.7557 80.66 20.1733 80.7263 20.6506H79.553C79.4635 20.3026 79.2646 19.9943 78.9564 19.7259C78.6514 19.4541 78.2405 19.3182 77.7234 19.3182C77.266 19.3182 76.865 19.4375 76.5203 19.6761C76.1789 19.9115 75.9121 20.2446 75.7199 20.6754C75.5309 21.103 75.4365 21.6051 75.4365 22.1818C75.4365 22.7718 75.5293 23.2855 75.7149 23.723C75.9038 24.1605 76.169 24.5002 76.5103 24.7422C76.855 24.9841 77.2594 25.1051 77.7234 25.1051C78.0283 25.1051 78.3051 25.0521 78.5537 24.946C78.8022 24.84 79.0127 24.6875 79.1851 24.4886C79.3574 24.2898 79.48 24.0511 79.553 23.7727H80.7263C80.66 24.2235 80.4959 24.6295 80.2341 24.9908C79.9755 25.3487 79.6325 25.6338 79.2049 25.8459C78.7807 26.0547 78.2869 26.1591 77.7234 26.1591ZM85.7625 18.3636V19.358H81.8051V18.3636H85.7625ZM82.9585 16.5341H84.1318V23.8125C84.1318 24.1439 84.1799 24.3925 84.276 24.5582C84.3754 24.7206 84.5013 24.83 84.6538 24.8864C84.8096 24.9394 84.9736 24.9659 85.146 24.9659C85.2753 24.9659 85.3813 24.9593 85.4642 24.946C85.547 24.9295 85.6133 24.9162 85.663 24.9062L85.9017 25.9602C85.8221 25.9901 85.7111 26.0199 85.5686 26.0497C85.4261 26.0829 85.2454 26.0994 85.0267 26.0994C84.6952 26.0994 84.3704 26.0282 84.0522 25.8857C83.7374 25.7431 83.4755 25.526 83.2667 25.2344C83.0612 24.9427 82.9585 24.5748 82.9585 24.1307V16.5341ZM91.4649 26V18.3636H92.5984V19.5568H92.6978C92.8569 19.1491 93.1138 18.8326 93.4684 18.6072C93.8231 18.3786 94.249 18.2642 94.7461 18.2642C95.2499 18.2642 95.6692 18.3786 96.004 18.6072C96.342 18.8326 96.6055 19.1491 96.7944 19.5568H96.874C97.0695 19.1624 97.3629 18.8492 97.754 18.6172C98.1451 18.3819 98.614 18.2642 99.1609 18.2642C99.8437 18.2642 100.402 18.478 100.836 18.9055C101.27 19.3298 101.487 19.991 101.487 20.8892V26H100.314V20.8892C100.314 20.3258 100.16 19.9231 99.852 19.6811C99.5437 19.4392 99.1808 19.3182 98.7632 19.3182C98.2263 19.3182 97.8103 19.4806 97.5153 19.8054C97.2203 20.1269 97.0728 20.5346 97.0728 21.0284V26H95.8797V20.7699C95.8797 20.3357 95.7388 19.986 95.4571 19.7209C95.1754 19.4524 94.8124 19.3182 94.3683 19.3182C94.0634 19.3182 93.7783 19.3994 93.5132 19.5618C93.2513 19.7242 93.0392 19.9496 92.8768 20.2379C92.7177 20.523 92.6382 20.8527 92.6382 21.2273V26H91.4649ZM108.445 22.8778V18.3636H109.618V26H108.445V24.7074H108.365C108.186 25.0952 107.908 25.425 107.53 25.6967C107.152 25.9652 106.675 26.0994 106.098 26.0994C105.621 26.0994 105.197 25.995 104.826 25.7862C104.454 25.5741 104.163 25.2559 103.951 24.8317C103.739 24.4041 103.632 23.8655 103.632 23.2159V18.3636H104.806V23.1364C104.806 23.6932 104.962 24.1373 105.273 24.4688C105.588 24.8002 105.989 24.9659 106.476 24.9659C106.768 24.9659 107.065 24.8913 107.366 24.7422C107.671 24.593 107.926 24.3643 108.132 24.0561C108.341 23.7479 108.445 23.3551 108.445 22.8778ZM112.941 15.8182V26H111.767V15.8182H112.941ZM118.411 18.3636V19.358H114.453V18.3636H118.411ZM115.607 16.5341H116.78V23.8125C116.78 24.1439 116.828 24.3925 116.924 24.5582C117.023 24.7206 117.149 24.83 117.302 24.8864C117.458 24.9394 117.622 24.9659 117.794 24.9659C117.923 24.9659 118.029 24.9593 118.112 24.946C118.195 24.9295 118.261 24.9162 118.311 24.9062L118.55 25.9602C118.47 25.9901 118.359 26.0199 118.217 26.0497C118.074 26.0829 117.893 26.0994 117.675 26.0994C117.343 26.0994 117.018 26.0282 116.7 25.8857C116.385 25.7431 116.124 25.526 115.915 25.2344C115.709 24.9427 115.607 24.5748 115.607 24.1307V16.5341ZM120.175 26V18.3636H121.349V26H120.175ZM120.772 17.0909C120.543 17.0909 120.346 17.013 120.18 16.8572C120.018 16.7015 119.937 16.5142 119.937 16.2955C119.937 16.0767 120.018 15.8894 120.18 15.7337C120.346 15.5779 120.543 15.5 120.772 15.5C121.001 15.5 121.196 15.5779 121.359 15.7337C121.524 15.8894 121.607 16.0767 121.607 16.2955C121.607 16.5142 121.524 16.7015 121.359 16.8572C121.196 17.013 121.001 17.0909 120.772 17.0909ZM123.498 28.8636V18.3636H124.631V19.5767H124.77C124.857 19.4441 124.976 19.2751 125.128 19.0696C125.284 18.8608 125.506 18.6752 125.795 18.5128C126.086 18.3471 126.481 18.2642 126.978 18.2642C127.621 18.2642 128.188 18.425 128.678 18.7464C129.169 19.0679 129.551 19.5237 129.827 20.1136C130.102 20.7036 130.239 21.3996 130.239 22.2017C130.239 23.0104 130.102 23.7114 129.827 24.3047C129.551 24.8946 129.17 25.352 128.683 25.6768C128.196 25.9983 127.634 26.1591 126.998 26.1591C126.507 26.1591 126.114 26.0779 125.819 25.9155C125.524 25.7498 125.297 25.5625 125.138 25.3537C124.979 25.1416 124.857 24.9659 124.77 24.8267H124.671V28.8636H123.498ZM124.651 22.1818C124.651 22.7585 124.736 23.2673 124.905 23.7081C125.074 24.1456 125.321 24.4886 125.645 24.7372C125.97 24.9825 126.368 25.1051 126.839 25.1051C127.329 25.1051 127.738 24.9759 128.067 24.7173C128.398 24.4555 128.647 24.1042 128.812 23.6634C128.981 23.2192 129.066 22.7254 129.066 22.1818C129.066 21.6449 128.983 21.161 128.817 20.7301C128.655 20.2959 128.408 19.9529 128.077 19.701C127.748 19.4458 127.336 19.3182 126.839 19.3182C126.361 19.3182 125.96 19.4392 125.635 19.6811C125.311 19.9197 125.065 20.2545 124.9 20.6854C124.734 21.1129 124.651 21.6117 124.651 22.1818ZM133.202 15.8182V26H132.029V15.8182H133.202ZM138.553 26.1591C137.817 26.1591 137.182 25.9967 136.649 25.6719C136.118 25.3438 135.709 24.8864 135.421 24.2997C135.136 23.7098 134.993 23.0237 134.993 22.2415C134.993 21.4593 135.136 20.7699 135.421 20.1733C135.709 19.5734 136.11 19.1061 136.624 18.7713C137.141 18.4332 137.744 18.2642 138.434 18.2642C138.831 18.2642 139.224 18.3305 139.612 18.4631C140 18.5956 140.353 18.8111 140.671 19.1094C140.989 19.4044 141.243 19.7955 141.431 20.2827C141.62 20.7699 141.715 21.3698 141.715 22.0824V22.5795H135.828V21.5653H140.522C140.522 21.1345 140.435 20.75 140.263 20.4119C140.094 20.0739 139.852 19.8071 139.537 19.6115C139.226 19.416 138.858 19.3182 138.434 19.3182C137.966 19.3182 137.562 19.4342 137.221 19.6662C136.882 19.8949 136.622 20.1932 136.44 20.5611C136.258 20.929 136.167 21.3234 136.167 21.7443V22.4205C136.167 22.9972 136.266 23.486 136.465 23.8871C136.667 24.2848 136.947 24.5881 137.305 24.7969C137.663 25.0024 138.079 25.1051 138.553 25.1051C138.861 25.1051 139.14 25.062 139.388 24.9759C139.64 24.8864 139.857 24.7538 140.039 24.5781C140.222 24.3991 140.363 24.1771 140.462 23.9119L141.596 24.2301C141.476 24.6146 141.276 24.9527 140.994 25.2443C140.712 25.5327 140.364 25.758 139.95 25.9205C139.536 26.0795 139.07 26.1591 138.553 26.1591ZM150.539 26.1591C149.85 26.1591 149.245 25.995 148.725 25.6669C148.208 25.3388 147.803 24.8797 147.512 24.2898C147.223 23.6998 147.079 23.0104 147.079 22.2216C147.079 21.4261 147.223 20.7318 147.512 20.1385C147.803 19.5452 148.208 19.0845 148.725 18.7564C149.245 18.4283 149.85 18.2642 150.539 18.2642C151.229 18.2642 151.832 18.4283 152.349 18.7564C152.869 19.0845 153.274 19.5452 153.562 20.1385C153.854 20.7318 154 21.4261 154 22.2216C154 23.0104 153.854 23.6998 153.562 24.2898C153.274 24.8797 152.869 25.3388 152.349 25.6669C151.832 25.995 151.229 26.1591 150.539 26.1591ZM150.539 25.1051C151.063 25.1051 151.494 24.9709 151.832 24.7024C152.17 24.4339 152.42 24.081 152.583 23.6435C152.745 23.206 152.826 22.732 152.826 22.2216C152.826 21.7112 152.745 21.2356 152.583 20.7947C152.42 20.3539 152.17 19.9976 151.832 19.7259C151.494 19.4541 151.063 19.3182 150.539 19.3182C150.016 19.3182 149.585 19.4541 149.247 19.7259C148.909 19.9976 148.658 20.3539 148.496 20.7947C148.334 21.2356 148.252 21.7112 148.252 22.2216C148.252 22.732 148.334 23.206 148.496 23.6435C148.658 24.081 148.909 24.4339 149.247 24.7024C149.585 24.9709 150.016 25.1051 150.539 25.1051ZM155.791 28.8636V18.3636H156.924V19.5767H157.063C157.15 19.4441 157.269 19.2751 157.421 19.0696C157.577 18.8608 157.799 18.6752 158.088 18.5128C158.379 18.3471 158.774 18.2642 159.271 18.2642C159.914 18.2642 160.481 18.425 160.971 18.7464C161.462 19.0679 161.844 19.5237 162.119 20.1136C162.395 20.7036 162.532 21.3996 162.532 22.2017C162.532 23.0104 162.395 23.7114 162.119 24.3047C161.844 24.8946 161.463 25.352 160.976 25.6768C160.489 25.9983 159.927 26.1591 159.291 26.1591C158.8 26.1591 158.407 26.0779 158.112 25.9155C157.817 25.7498 157.59 25.5625 157.431 25.3537C157.272 25.1416 157.15 24.9659 157.063 24.8267H156.964V28.8636H155.791ZM156.944 22.1818C156.944 22.7585 157.029 23.2673 157.198 23.7081C157.367 24.1456 157.614 24.4886 157.938 24.7372C158.263 24.9825 158.661 25.1051 159.132 25.1051C159.622 25.1051 160.031 24.9759 160.36 24.7173C160.691 24.4555 160.94 24.1042 161.105 23.6634C161.274 23.2192 161.359 22.7254 161.359 22.1818C161.359 21.6449 161.276 21.161 161.11 20.7301C160.948 20.2959 160.701 19.9529 160.369 19.701C160.041 19.4458 159.629 19.3182 159.132 19.3182C158.654 19.3182 158.253 19.4392 157.928 19.6811C157.604 19.9197 157.358 20.2545 157.193 20.6854C157.027 21.1129 156.944 21.6117 156.944 22.1818ZM167.643 18.3636V19.358H163.686V18.3636H167.643ZM164.839 16.5341H166.012V23.8125C166.012 24.1439 166.06 24.3925 166.156 24.5582C166.256 24.7206 166.382 24.83 166.534 24.8864C166.69 24.9394 166.854 24.9659 167.026 24.9659C167.156 24.9659 167.262 24.9593 167.345 24.946C167.427 24.9295 167.494 24.9162 167.544 24.9062L167.782 25.9602C167.703 25.9901 167.592 26.0199 167.449 26.0497C167.307 26.0829 167.126 26.0994 166.907 26.0994C166.576 26.0994 166.251 26.0282 165.933 25.8857C165.618 25.7431 165.356 25.526 165.147 25.2344C164.942 24.9427 164.839 24.5748 164.839 24.1307V16.5341ZM169.408 26V18.3636H170.581V26H169.408ZM170.004 17.0909C169.776 17.0909 169.579 17.013 169.413 16.8572C169.25 16.7015 169.169 16.5142 169.169 16.2955C169.169 16.0767 169.25 15.8894 169.413 15.7337C169.579 15.5779 169.776 15.5 170.004 15.5C170.233 15.5 170.429 15.5779 170.591 15.7337C170.757 15.8894 170.84 16.0767 170.84 16.2955C170.84 16.5142 170.757 16.7015 170.591 16.8572C170.429 17.013 170.233 17.0909 170.004 17.0909ZM175.832 26.1591C175.143 26.1591 174.538 25.995 174.018 25.6669C173.501 25.3388 173.096 24.8797 172.805 24.2898C172.516 23.6998 172.372 23.0104 172.372 22.2216C172.372 21.4261 172.516 20.7318 172.805 20.1385C173.096 19.5452 173.501 19.0845 174.018 18.7564C174.538 18.4283 175.143 18.2642 175.832 18.2642C176.522 18.2642 177.125 18.4283 177.642 18.7564C178.162 19.0845 178.567 19.5452 178.855 20.1385C179.147 20.7318 179.293 21.4261 179.293 22.2216C179.293 23.0104 179.147 23.6998 178.855 24.2898C178.567 24.8797 178.162 25.3388 177.642 25.6669C177.125 25.995 176.522 26.1591 175.832 26.1591ZM175.832 25.1051C176.356 25.1051 176.787 24.9709 177.125 24.7024C177.463 24.4339 177.713 24.081 177.876 23.6435C178.038 23.206 178.119 22.732 178.119 22.2216C178.119 21.7112 178.038 21.2356 177.876 20.7947C177.713 20.3539 177.463 19.9976 177.125 19.7259C176.787 19.4541 176.356 19.3182 175.832 19.3182C175.309 19.3182 174.878 19.4541 174.54 19.7259C174.202 19.9976 173.951 20.3539 173.789 20.7947C173.627 21.2356 173.545 21.7112 173.545 22.2216C173.545 22.732 173.627 23.206 173.789 23.6435C173.951 24.081 174.202 24.4339 174.54 24.7024C174.878 24.9709 175.309 25.1051 175.832 25.1051ZM182.257 21.4062V26H181.084V18.3636H182.217V19.5568H182.317C182.496 19.169 182.767 18.8575 183.132 18.6222C183.497 18.3835 183.967 18.2642 184.544 18.2642C185.061 18.2642 185.513 18.3703 185.901 18.5824C186.289 18.7912 186.59 19.1094 186.806 19.5369C187.021 19.9612 187.129 20.4981 187.129 21.1477V26H185.956V21.2273C185.956 20.6274 185.8 20.16 185.488 19.8253C185.177 19.4872 184.749 19.3182 184.206 19.3182C183.831 19.3182 183.497 19.3994 183.202 19.5618C182.91 19.7242 182.68 19.9612 182.51 20.2727C182.341 20.5843 182.257 20.9621 182.257 21.4062ZM194.682 20.0739L193.628 20.3722C193.562 20.1965 193.464 20.0258 193.335 19.8601C193.209 19.6911 193.037 19.5518 192.818 19.4425C192.599 19.3331 192.319 19.2784 191.978 19.2784C191.51 19.2784 191.121 19.3861 190.809 19.6016C190.501 19.8137 190.347 20.0838 190.347 20.4119C190.347 20.7036 190.453 20.9339 190.665 21.103C190.877 21.272 191.209 21.4129 191.659 21.5256L192.793 21.804C193.476 21.9697 193.984 22.2232 194.319 22.5646C194.654 22.9027 194.821 23.3385 194.821 23.8722C194.821 24.3097 194.695 24.7008 194.444 25.0455C194.195 25.3902 193.847 25.6619 193.4 25.8608C192.952 26.0597 192.432 26.1591 191.838 26.1591C191.06 26.1591 190.415 25.9901 189.904 25.652C189.394 25.3139 189.071 24.8201 188.935 24.1705L190.049 23.892C190.155 24.303 190.355 24.6113 190.65 24.8168C190.949 25.0223 191.338 25.125 191.819 25.125C192.365 25.125 192.8 25.009 193.121 24.777C193.446 24.5417 193.608 24.2599 193.608 23.9318C193.608 23.6667 193.516 23.4446 193.33 23.2656C193.144 23.0833 192.859 22.9474 192.475 22.858L191.202 22.5597C190.503 22.3939 189.989 22.1371 189.661 21.7891C189.336 21.4377 189.174 20.9986 189.174 20.4716C189.174 20.0407 189.295 19.6596 189.537 19.3281C189.782 18.9967 190.115 18.7365 190.536 18.5476C190.96 18.3587 191.441 18.2642 191.978 18.2642C192.733 18.2642 193.327 18.4299 193.757 18.7614C194.192 19.0928 194.5 19.5303 194.682 20.0739Z" fill="#9549FF"/>
<path d="M28.2993 16.4697L20.5815 24.1875L16.7227 20.3286" stroke="#9549FF" stroke-width="2" stroke-linecap="round"/>
</g>
<defs>
<clipPath id="clip0_8_16">
<rect width="278" height="41" fill="white"/>
</clipPath>
</defs>
</svg>
