<svg width="278" height="41" viewBox="0 0 278 41" fill="none" xmlns="http://www.w3.org/2000/svg">
<g clip-path="url(#clip0_8_10)">
<path d="M274 0.5H4C2.067 0.5 0.5 2.067 0.5 4V37C0.5 38.933 2.067 40.5 4 40.5H274C275.933 40.5 277.5 38.933 277.5 37V4C277.5 2.067 275.933 0.5 274 0.5Z" fill="white"/>
<path d="M274 0.5H4C2.067 0.5 0.5 2.067 0.5 4V37C0.5 38.933 2.067 40.5 4 40.5H274C275.933 40.5 277.5 38.933 277.5 37V4C277.5 2.067 275.933 0.5 274 0.5Z" stroke="#CAA5FF"/>
<path d="M18.8015 18.3636C18.7419 17.8598 18.4999 17.4688 18.0757 17.1903C17.6514 16.9119 17.1311 16.7727 16.5146 16.7727C16.0638 16.7727 15.6694 16.8456 15.3314 16.9915C14.9966 17.1373 14.7348 17.3378 14.5459 17.593C14.3602 17.8482 14.2674 18.1383 14.2674 18.4631C14.2674 18.7348 14.3321 18.9685 14.4613 19.1641C14.5939 19.3563 14.7629 19.517 14.9684 19.6463C15.1739 19.7723 15.3894 19.8767 15.6147 19.9595C15.8401 20.0391 16.0473 20.1037 16.2362 20.1534L17.2703 20.4318C17.5354 20.5014 17.8304 20.5975 18.1552 20.7202C18.4834 20.8428 18.7966 21.0102 19.0949 21.2223C19.3965 21.4311 19.645 21.6996 19.8406 22.0277C20.0361 22.3558 20.1339 22.7585 20.1339 23.2358C20.1339 23.786 19.9897 24.2831 19.7014 24.7273C19.4164 25.1714 18.9987 25.5244 18.4486 25.7862C17.9017 26.0481 17.2371 26.179 16.4549 26.179C15.7258 26.179 15.0944 26.0613 14.5608 25.826C14.0305 25.5907 13.6129 25.2625 13.3079 24.8416C13.0063 24.4207 12.8356 23.9318 12.7959 23.375H14.0686C14.1017 23.7595 14.231 24.0777 14.4564 24.3295C14.6851 24.5781 14.9734 24.7637 15.3214 24.8864C15.6727 25.0057 16.0506 25.0653 16.4549 25.0653C16.9256 25.0653 17.3482 24.9891 17.7227 24.8366C18.0972 24.6809 18.3939 24.4654 18.6126 24.1903C18.8314 23.9119 18.9407 23.5871 18.9407 23.2159C18.9407 22.8778 18.8463 22.6027 18.6574 22.3906C18.4684 22.1785 18.2199 22.0062 17.9116 21.8736C17.6034 21.741 17.2703 21.625 16.9123 21.5256L15.6595 21.1676C14.864 20.9389 14.2343 20.6125 13.7703 20.1882C13.3063 19.764 13.0743 19.2088 13.0743 18.5227C13.0743 17.9527 13.2284 17.4555 13.5366 17.0312C13.8482 16.6037 14.2658 16.2723 14.7895 16.0369C15.3165 15.7983 15.9048 15.679 16.5544 15.679C17.2106 15.679 17.794 15.7966 18.3044 16.032C18.8148 16.264 19.2192 16.5821 19.5174 16.9865C19.8191 17.3909 19.9781 17.8499 19.9947 18.3636H18.8015ZM25.2037 26.1591C24.4679 26.1591 23.8332 25.9967 23.2996 25.6719C22.7693 25.3438 22.36 24.8864 22.0716 24.2997C21.7866 23.7098 21.644 23.0237 21.644 22.2415C21.644 21.4593 21.7866 20.7699 22.0716 20.1733C22.36 19.5734 22.761 19.1061 23.2747 18.7713C23.7918 18.4332 24.395 18.2642 25.0844 18.2642C25.4821 18.2642 25.8749 18.3305 26.2627 18.4631C26.6504 18.5956 27.0034 18.8111 27.3216 19.1094C27.6398 19.4044 27.8933 19.7955 28.0823 20.2827C28.2712 20.7699 28.3656 21.3698 28.3656 22.0824V22.5795H22.4793V21.5653H27.1725C27.1725 21.1345 27.0863 20.75 26.9139 20.4119C26.7449 20.0739 26.5029 19.8071 26.1881 19.6115C25.8765 19.416 25.5086 19.3182 25.0844 19.3182C24.6171 19.3182 24.2127 19.4342 23.8713 19.6662C23.5332 19.8949 23.2731 20.1932 23.0908 20.5611C22.9085 20.929 22.8173 21.3234 22.8173 21.7443V22.4205C22.8173 22.9972 22.9168 23.486 23.1156 23.8871C23.3178 24.2848 23.5979 24.5881 23.9558 24.7969C24.3138 25.0024 24.7297 25.1051 25.2037 25.1051C25.5119 25.1051 25.7904 25.062 26.0389 24.9759C26.2908 24.8864 26.5079 24.7538 26.6902 24.5781C26.8725 24.3991 27.0134 24.1771 27.1128 23.9119L28.2463 24.2301C28.127 24.6146 27.9265 24.9527 27.6448 25.2443C27.363 25.5327 27.015 25.758 26.6007 25.9205C26.1864 26.0795 25.7207 26.1591 25.2037 26.1591ZM31.3237 15.8182V26H30.1504V15.8182H31.3237ZM36.6744 26.1591C35.9386 26.1591 35.3039 25.9967 34.7703 25.6719C34.24 25.3438 33.8307 24.8864 33.5423 24.2997C33.2573 23.7098 33.1147 23.0237 33.1147 22.2415C33.1147 21.4593 33.2573 20.7699 33.5423 20.1733C33.8307 19.5734 34.2317 19.1061 34.7454 18.7713C35.2625 18.4332 35.8657 18.2642 36.5551 18.2642C36.9528 18.2642 37.3456 18.3305 37.7334 18.4631C38.1211 18.5956 38.4741 18.8111 38.7923 19.1094C39.1105 19.4044 39.364 19.7955 39.553 20.2827C39.7419 20.7699 39.8363 21.3698 39.8363 22.0824V22.5795H33.95V21.5653H38.6432C38.6432 21.1345 38.557 20.75 38.3846 20.4119C38.2156 20.0739 37.9736 19.8071 37.6588 19.6115C37.3472 19.416 36.9793 19.3182 36.5551 19.3182C36.0878 19.3182 35.6834 19.4342 35.342 19.6662C35.004 19.8949 34.7438 20.1932 34.5615 20.5611C34.3792 20.929 34.288 21.3234 34.288 21.7443V22.4205C34.288 22.9972 34.3875 23.486 34.5863 23.8871C34.7885 24.2848 35.0686 24.5881 35.4265 24.7969C35.7845 25.0024 36.2004 25.1051 36.6744 25.1051C36.9826 25.1051 37.2611 25.062 37.5096 24.9759C37.7615 24.8864 37.9786 24.7538 38.1609 24.5781C38.3432 24.3991 38.4841 24.1771 38.5835 23.9119L39.717 24.2301C39.5977 24.6146 39.3972 24.9527 39.1155 25.2443C38.8337 25.5327 38.4857 25.758 38.0714 25.9205C37.6571 26.0795 37.1915 26.1591 36.6744 26.1591ZM44.7234 26.1591C44.0075 26.1591 43.391 25.9901 42.874 25.652C42.3569 25.3139 41.9592 24.8482 41.6808 24.255C41.4024 23.6617 41.2632 22.9839 41.2632 22.2216C41.2632 21.446 41.4057 20.7616 41.6907 20.1683C41.9791 19.5717 42.3801 19.1061 42.8939 18.7713C43.4109 18.4332 44.0141 18.2642 44.7035 18.2642C45.2405 18.2642 45.7244 18.3636 46.1552 18.5625C46.5861 18.7614 46.9391 19.0398 47.2142 19.3977C47.4893 19.7557 47.66 20.1733 47.7263 20.6506H46.553C46.4635 20.3026 46.2646 19.9943 45.9564 19.7259C45.6514 19.4541 45.2405 19.3182 44.7234 19.3182C44.266 19.3182 43.865 19.4375 43.5203 19.6761C43.1789 19.9115 42.9121 20.2446 42.7199 20.6754C42.5309 21.103 42.4365 21.6051 42.4365 22.1818C42.4365 22.7718 42.5293 23.2855 42.7149 23.723C42.9038 24.1605 43.169 24.5002 43.5103 24.7422C43.855 24.9841 44.2594 25.1051 44.7234 25.1051C45.0283 25.1051 45.3051 25.0521 45.5537 24.946C45.8022 24.84 46.0127 24.6875 46.1851 24.4886C46.3574 24.2898 46.48 24.0511 46.553 23.7727H47.7263C47.66 24.2235 47.4959 24.6295 47.2341 24.9908C46.9755 25.3487 46.6325 25.6338 46.2049 25.8459C45.7807 26.0547 45.2869 26.1591 44.7234 26.1591ZM52.7625 18.3636V19.358H48.8051V18.3636H52.7625ZM49.9585 16.5341H51.1318V23.8125C51.1318 24.1439 51.1799 24.3925 51.276 24.5582C51.3754 24.7206 51.5013 24.83 51.6538 24.8864C51.8096 24.9394 51.9736 24.9659 52.146 24.9659C52.2753 24.9659 52.3813 24.9593 52.4642 24.946C52.547 24.9295 52.6133 24.9162 52.663 24.9062L52.9017 25.9602C52.8221 25.9901 52.7111 26.0199 52.5686 26.0497C52.4261 26.0829 52.2454 26.0994 52.0267 26.0994C51.6952 26.0994 51.3704 26.0282 51.0522 25.8857C50.7374 25.7431 50.4755 25.526 50.2667 25.2344C50.0612 24.9427 49.9585 24.5748 49.9585 24.1307V16.5341ZM60.712 26.179C60.2281 26.179 59.789 26.0878 59.3946 25.9055C59.0002 25.7199 58.687 25.4531 58.4549 25.1051C58.2229 24.7538 58.1069 24.3295 58.1069 23.8324C58.1069 23.3949 58.1931 23.0402 58.3655 22.7685C58.5378 22.4934 58.7682 22.2779 59.0565 22.1222C59.3449 21.9664 59.663 21.8504 60.0111 21.7741C60.3624 21.6946 60.7154 21.6316 61.07 21.5852C61.534 21.5256 61.9102 21.4808 62.1986 21.451C62.4902 21.4179 62.7023 21.3632 62.8349 21.2869C62.9708 21.2107 63.0388 21.0781 63.0388 20.8892V20.8494C63.0388 20.3589 62.9045 19.9777 62.6361 19.706C62.3709 19.4342 61.9682 19.2983 61.428 19.2983C60.8678 19.2983 60.4287 19.4209 60.1105 19.6662C59.7923 19.9115 59.5686 20.1733 59.4393 20.4517L58.3257 20.054C58.5245 19.59 58.7897 19.2287 59.1211 18.9702C59.4559 18.7083 59.8205 18.526 60.2149 18.4233C60.6126 18.3172 61.0037 18.2642 61.3882 18.2642C61.6334 18.2642 61.9152 18.294 62.2334 18.3537C62.5549 18.41 62.8647 18.5277 63.163 18.7067C63.4647 18.8857 63.7149 19.1558 63.9138 19.517C64.1126 19.8783 64.212 20.3622 64.212 20.9688V26H63.0388V24.9659H62.9791C62.8995 25.1316 62.767 25.3089 62.5814 25.4979C62.3958 25.6868 62.1488 25.8475 61.8406 25.9801C61.5324 26.1127 61.1562 26.179 60.712 26.179ZM60.891 25.125C61.355 25.125 61.7461 25.0339 62.0643 24.8516C62.3858 24.6693 62.6278 24.4339 62.7902 24.1456C62.9559 23.8572 63.0388 23.554 63.0388 23.2358V22.1619C62.989 22.2216 62.8797 22.2763 62.7106 22.326C62.5449 22.3724 62.3527 22.4138 62.1339 22.4503C61.9185 22.4834 61.708 22.5133 61.5025 22.5398C61.3004 22.563 61.1363 22.5829 61.0103 22.5994C60.7054 22.6392 60.4204 22.7038 60.1552 22.7933C59.8934 22.8795 59.6813 23.0104 59.5189 23.1861C59.3598 23.3584 59.2802 23.5937 59.2802 23.892C59.2802 24.2997 59.431 24.608 59.7326 24.8168C60.0376 25.0223 60.4237 25.125 60.891 25.125ZM67.5269 21.4062V26H66.3536V18.3636H67.4871V19.5568H67.5865C67.7655 19.169 68.0373 18.8575 68.4019 18.6222C68.7664 18.3835 69.2371 18.2642 69.8138 18.2642C70.3308 18.2642 70.7832 18.3703 71.171 18.5824C71.5588 18.7912 71.8604 19.1094 72.0759 19.5369C72.2913 19.9612 72.399 20.4981 72.399 21.1477V26H71.2257V21.2273C71.2257 20.6274 71.0699 20.16 70.7584 19.8253C70.4468 19.4872 70.0193 19.3182 69.4757 19.3182C69.1012 19.3182 68.7664 19.3994 68.4715 19.5618C68.1798 19.7242 67.9494 19.9612 67.7804 20.2727C67.6114 20.5843 67.5269 20.9621 67.5269 21.4062ZM81.5828 26.1591C80.8934 26.1591 80.2885 25.995 79.7682 25.6669C79.2511 25.3388 78.8468 24.8797 78.5551 24.2898C78.2667 23.6998 78.1226 23.0104 78.1226 22.2216C78.1226 21.4261 78.2667 20.7318 78.5551 20.1385C78.8468 19.5452 79.2511 19.0845 79.7682 18.7564C80.2885 18.4283 80.8934 18.2642 81.5828 18.2642C82.2722 18.2642 82.8754 18.4283 83.3924 18.7564C83.9128 19.0845 84.3172 19.5452 84.6055 20.1385C84.8972 20.7318 85.043 21.4261 85.043 22.2216C85.043 23.0104 84.8972 23.6998 84.6055 24.2898C84.3172 24.8797 83.9128 25.3388 83.3924 25.6669C82.8754 25.995 82.2722 26.1591 81.5828 26.1591ZM81.5828 25.1051C82.1065 25.1051 82.5373 24.9709 82.8754 24.7024C83.2135 24.4339 83.4637 24.081 83.6261 23.6435C83.7885 23.206 83.8697 22.732 83.8697 22.2216C83.8697 21.7112 83.7885 21.2356 83.6261 20.7947C83.4637 20.3539 83.2135 19.9976 82.8754 19.7259C82.5373 19.4541 82.1065 19.3182 81.5828 19.3182C81.0591 19.3182 80.6282 19.4541 80.2902 19.7259C79.9521 19.9976 79.7019 20.3539 79.5395 20.7947C79.3771 21.2356 79.2959 21.7112 79.2959 22.2216C79.2959 22.732 79.3771 23.206 79.5395 23.6435C79.7019 24.081 79.9521 24.4339 80.2902 24.7024C80.6282 24.9709 81.0591 25.1051 81.5828 25.1051ZM86.834 28.8636V18.3636H87.9676V19.5767H88.1068C88.1929 19.4441 88.3122 19.2751 88.4647 19.0696C88.6205 18.8608 88.8426 18.6752 89.1309 18.5128C89.4226 18.3471 89.817 18.2642 90.3141 18.2642C90.9571 18.2642 91.5239 18.425 92.0144 18.7464C92.505 19.0679 92.8878 19.5237 93.1629 20.1136C93.438 20.7036 93.5755 21.3996 93.5755 22.2017C93.5755 23.0104 93.438 23.7114 93.1629 24.3047C92.8878 24.8946 92.5066 25.352 92.0194 25.6768C91.5322 25.9983 90.9704 26.1591 90.334 26.1591C89.8435 26.1591 89.4507 26.0779 89.1558 25.9155C88.8608 25.7498 88.6337 25.5625 88.4747 25.3537C88.3156 25.1416 88.1929 24.9659 88.1068 24.8267H88.0073V28.8636H86.834ZM87.9874 22.1818C87.9874 22.7585 88.072 23.2673 88.241 23.7081C88.41 24.1456 88.6569 24.4886 88.9818 24.7372C89.3066 24.9825 89.7043 25.1051 90.1749 25.1051C90.6655 25.1051 91.0748 24.9759 91.4029 24.7173C91.7344 24.4555 91.9829 24.1042 92.1487 23.6634C92.3177 23.2192 92.4022 22.7254 92.4022 22.1818C92.4022 21.6449 92.3194 21.161 92.1536 20.7301C91.9912 20.2959 91.7443 19.9529 91.4129 19.701C91.0847 19.4458 90.6721 19.3182 90.1749 19.3182C89.6977 19.3182 89.2966 19.4392 88.9718 19.6811C88.647 19.9197 88.4017 20.2545 88.236 20.6854C88.0703 21.1129 87.9874 21.6117 87.9874 22.1818ZM98.6863 18.3636V19.358H94.7289V18.3636H98.6863ZM95.8823 16.5341H97.0556V23.8125C97.0556 24.1439 97.1037 24.3925 97.1998 24.5582C97.2992 24.7206 97.4252 24.83 97.5776 24.8864C97.7334 24.9394 97.8975 24.9659 98.0698 24.9659C98.1991 24.9659 98.3051 24.9593 98.388 24.946C98.4709 24.9295 98.5372 24.9162 98.5869 24.9062L98.8255 25.9602C98.746 25.9901 98.6349 26.0199 98.4924 26.0497C98.3499 26.0829 98.1693 26.0994 97.9505 26.0994C97.6191 26.0994 97.2943 26.0282 96.9761 25.8857C96.6612 25.7431 96.3994 25.526 96.1906 25.2344C95.9851 24.9427 95.8823 24.5748 95.8823 24.1307V16.5341ZM100.451 26V18.3636H101.624V26H100.451ZM101.047 17.0909C100.819 17.0909 100.622 17.013 100.456 16.8572C100.293 16.7015 100.212 16.5142 100.212 16.2955C100.212 16.0767 100.293 15.8894 100.456 15.7337C100.622 15.5779 100.819 15.5 101.047 15.5C101.276 15.5 101.472 15.5779 101.634 15.7337C101.8 15.8894 101.883 16.0767 101.883 16.2955C101.883 16.5142 101.8 16.7015 101.634 16.8572C101.472 17.013 101.276 17.0909 101.047 17.0909ZM106.875 26.1591C106.186 26.1591 105.581 25.995 105.061 25.6669C104.544 25.3388 104.139 24.8797 103.848 24.2898C103.559 23.6998 103.415 23.0104 103.415 22.2216C103.415 21.4261 103.559 20.7318 103.848 20.1385C104.139 19.5452 104.544 19.0845 105.061 18.7564C105.581 18.4283 106.186 18.2642 106.875 18.2642C107.565 18.2642 108.168 18.4283 108.685 18.7564C109.205 19.0845 109.61 19.5452 109.898 20.1385C110.19 20.7318 110.336 21.4261 110.336 22.2216C110.336 23.0104 110.19 23.6998 109.898 24.2898C109.61 24.8797 109.205 25.3388 108.685 25.6669C108.168 25.995 107.565 26.1591 106.875 26.1591ZM106.875 25.1051C107.399 25.1051 107.83 24.9709 108.168 24.7024C108.506 24.4339 108.756 24.081 108.919 23.6435C109.081 23.206 109.162 22.732 109.162 22.2216C109.162 21.7112 109.081 21.2356 108.919 20.7947C108.756 20.3539 108.506 19.9976 108.168 19.7259C107.83 19.4541 107.399 19.3182 106.875 19.3182C106.352 19.3182 105.921 19.4541 105.583 19.7259C105.245 19.9976 104.994 20.3539 104.832 20.7947C104.67 21.2356 104.588 21.7112 104.588 22.2216C104.588 22.732 104.67 23.206 104.832 23.6435C104.994 24.081 105.245 24.4339 105.583 24.7024C105.921 24.9709 106.352 25.1051 106.875 25.1051ZM113.3 21.4062V26H112.127V18.3636H113.26V19.5568H113.36C113.539 19.169 113.81 18.8575 114.175 18.6222C114.539 18.3835 115.01 18.2642 115.587 18.2642C116.104 18.2642 116.556 18.3703 116.944 18.5824C117.332 18.7912 117.633 19.1094 117.849 19.5369C118.064 19.9612 118.172 20.4981 118.172 21.1477V26H116.999V21.2273C116.999 20.6274 116.843 20.16 116.531 19.8253C116.22 19.4872 115.792 19.3182 115.249 19.3182C114.874 19.3182 114.539 19.3994 114.244 19.5618C113.953 19.7242 113.722 19.9612 113.553 20.2727C113.384 20.5843 113.3 20.9621 113.3 21.4062Z" fill="#9549FF"/>
<path d="M262.25 18L256 24.25L249.75 18" stroke="#9549FF" stroke-width="0.9375" stroke-linecap="round" stroke-linejoin="round"/>
</g>
<defs>
<clipPath id="clip0_8_10">
<rect width="278" height="41" fill="white"/>
</clipPath>
</defs>
</svg>
