<svg width="344" height="226" viewBox="0 0 344 226" fill="none" xmlns="http://www.w3.org/2000/svg">
<g filter="url(#filter0_dd_8620_6563)">
<rect x="12" y="56" width="320" height="146" rx="8" fill="white"/>
<rect x="12.5" y="56.5" width="319" height="145" rx="7.5" stroke="#F5F5F5"/>
<path d="M33.625 79.4205C33.5644 78.8826 33.3144 78.4659 32.875 78.1705C32.4356 77.8712 31.8826 77.7216 31.2159 77.7216C30.7386 77.7216 30.3258 77.7973 29.9773 77.9489C29.6288 78.0966 29.358 78.3011 29.1648 78.5625C28.9754 78.8201 28.8807 79.1136 28.8807 79.4432C28.8807 79.7197 28.9451 79.9583 29.0739 80.1591C29.2064 80.3598 29.3788 80.5284 29.5909 80.6648C29.8068 80.7973 30.0379 80.9091 30.2841 81C30.5303 81.0871 30.767 81.1591 30.9943 81.2159L32.1307 81.5114C32.5019 81.6023 32.8826 81.7254 33.2727 81.8807C33.6629 82.036 34.0246 82.2405 34.358 82.4943C34.6913 82.7481 34.9602 83.0625 35.1648 83.4375C35.3731 83.8125 35.4773 84.2614 35.4773 84.7841C35.4773 85.4432 35.3068 86.0284 34.9659 86.5398C34.6288 87.0511 34.1383 87.4545 33.4943 87.75C32.8542 88.0455 32.0795 88.1932 31.1705 88.1932C30.2992 88.1932 29.5455 88.0549 28.9091 87.7784C28.2727 87.5019 27.7746 87.1098 27.4148 86.6023C27.0549 86.0909 26.8561 85.4848 26.8182 84.7841H28.5795C28.6136 85.2045 28.75 85.5549 28.9886 85.8352C29.2311 86.1117 29.5398 86.3182 29.9148 86.4545C30.2936 86.5871 30.7083 86.6534 31.1591 86.6534C31.6553 86.6534 32.0966 86.5758 32.483 86.4205C32.8731 86.2614 33.1799 86.0417 33.4034 85.7614C33.6269 85.4773 33.7386 85.1458 33.7386 84.767C33.7386 84.4223 33.6402 84.1402 33.4432 83.9205C33.25 83.7008 32.9867 83.5189 32.6534 83.375C32.3239 83.2311 31.9508 83.1042 31.5341 82.9943L30.1591 82.6193C29.2273 82.3655 28.4886 81.9924 27.9432 81.5C27.4015 81.0076 27.1307 80.3561 27.1307 79.5455C27.1307 78.875 27.3125 78.2898 27.6761 77.7898C28.0398 77.2898 28.5322 76.9015 29.1534 76.625C29.7746 76.3447 30.4754 76.2045 31.2557 76.2045C32.0436 76.2045 32.7386 76.3428 33.3409 76.6193C33.947 76.8958 34.4242 77.2765 34.7727 77.7614C35.1212 78.2424 35.303 78.7955 35.3182 79.4205H33.625ZM41.2003 88.1761C40.3404 88.1761 39.5999 87.9924 38.9787 87.625C38.3613 87.2538 37.884 86.733 37.5469 86.0625C37.2135 85.3883 37.0469 84.5985 37.0469 83.6932C37.0469 82.7992 37.2135 82.0114 37.5469 81.3295C37.884 80.6477 38.3537 80.1155 38.956 79.733C39.562 79.3504 40.2704 79.1591 41.081 79.1591C41.5734 79.1591 42.0507 79.2405 42.5128 79.4034C42.9749 79.5663 43.3897 79.822 43.7571 80.1705C44.1245 80.5189 44.4143 80.9716 44.6264 81.5284C44.8385 82.0814 44.9446 82.7538 44.9446 83.5455V84.1477H38.0071V82.875H43.2798C43.2798 82.428 43.1889 82.0322 43.0071 81.6875C42.8253 81.339 42.5696 81.0644 42.2401 80.8636C41.9143 80.6629 41.5317 80.5625 41.0923 80.5625C40.6151 80.5625 40.1984 80.6799 39.8423 80.9148C39.4901 81.1458 39.2173 81.4489 39.0241 81.8239C38.8348 82.1951 38.7401 82.5985 38.7401 83.0341V84.0284C38.7401 84.6117 38.8423 85.108 39.0469 85.517C39.2552 85.9261 39.545 86.2386 39.9162 86.4545C40.2874 86.6667 40.7211 86.7727 41.2173 86.7727C41.5393 86.7727 41.8329 86.7273 42.098 86.6364C42.3632 86.5417 42.5923 86.4015 42.7855 86.2159C42.9787 86.0303 43.1264 85.8011 43.2287 85.5284L44.8366 85.8182C44.7079 86.2917 44.4768 86.7064 44.1435 87.0625C43.8139 87.4148 43.3991 87.6894 42.8991 87.8864C42.4029 88.0795 41.8366 88.1761 41.2003 88.1761ZM48.5284 76.3636V88H46.8295V76.3636H48.5284ZM54.5753 88.1761C53.7154 88.1761 52.9749 87.9924 52.3537 87.625C51.7363 87.2538 51.259 86.733 50.9219 86.0625C50.5885 85.3883 50.4219 84.5985 50.4219 83.6932C50.4219 82.7992 50.5885 82.0114 50.9219 81.3295C51.259 80.6477 51.7287 80.1155 52.331 79.733C52.937 79.3504 53.6454 79.1591 54.456 79.1591C54.9484 79.1591 55.4257 79.2405 55.8878 79.4034C56.3499 79.5663 56.7647 79.822 57.1321 80.1705C57.4995 80.5189 57.7893 80.9716 58.0014 81.5284C58.2135 82.0814 58.3196 82.7538 58.3196 83.5455V84.1477H51.3821V82.875H56.6548C56.6548 82.428 56.5639 82.0322 56.3821 81.6875C56.2003 81.339 55.9446 81.0644 55.6151 80.8636C55.2893 80.6629 54.9067 80.5625 54.4673 80.5625C53.9901 80.5625 53.5734 80.6799 53.2173 80.9148C52.8651 81.1458 52.5923 81.4489 52.3991 81.8239C52.2098 82.1951 52.1151 82.5985 52.1151 83.0341V84.0284C52.1151 84.6117 52.2173 85.108 52.4219 85.517C52.6302 85.9261 52.92 86.2386 53.2912 86.4545C53.6624 86.6667 54.0961 86.7727 54.5923 86.7727C54.9143 86.7727 55.2079 86.7273 55.473 86.6364C55.7382 86.5417 55.9673 86.4015 56.1605 86.2159C56.3537 86.0303 56.5014 85.8011 56.6037 85.5284L58.2116 85.8182C58.0829 86.2917 57.8518 86.7064 57.5185 87.0625C57.1889 87.4148 56.7741 87.6894 56.2741 87.8864C55.7779 88.0795 55.2116 88.1761 54.5753 88.1761ZM63.8807 88.1761C63.036 88.1761 62.3087 87.9848 61.6989 87.6023C61.0928 87.2159 60.6269 86.6837 60.3011 86.0057C59.9754 85.3277 59.8125 84.5511 59.8125 83.6761C59.8125 82.7898 59.9792 82.0076 60.3125 81.3295C60.6458 80.6477 61.1155 80.1155 61.7216 79.733C62.3277 79.3504 63.0417 79.1591 63.8636 79.1591C64.5265 79.1591 65.1174 79.2822 65.6364 79.5284C66.1553 79.7708 66.5739 80.1117 66.892 80.5511C67.214 80.9905 67.4053 81.5038 67.4659 82.0909H65.8125C65.7216 81.6818 65.5133 81.3295 65.1875 81.0341C64.8655 80.7386 64.4337 80.5909 63.892 80.5909C63.4186 80.5909 63.0038 80.7159 62.6477 80.9659C62.2955 81.2121 62.0208 81.5644 61.8239 82.0227C61.6269 82.4773 61.5284 83.0152 61.5284 83.6364C61.5284 84.2727 61.625 84.822 61.8182 85.2841C62.0114 85.7462 62.2841 86.1042 62.6364 86.358C62.9924 86.6117 63.411 86.7386 63.892 86.7386C64.214 86.7386 64.5057 86.6799 64.767 86.5625C65.0322 86.4413 65.2538 86.2689 65.4318 86.0455C65.6136 85.822 65.7405 85.553 65.8125 85.2386H67.4659C67.4053 85.803 67.2216 86.3068 66.9148 86.75C66.608 87.1932 66.197 87.5417 65.6818 87.7955C65.1705 88.0492 64.5701 88.1761 63.8807 88.1761ZM73.3565 79.2727V80.6364H68.5895V79.2727H73.3565ZM69.8679 77.1818H71.5668V85.4375C71.5668 85.767 71.616 86.0152 71.7145 86.1818C71.813 86.3447 71.9399 86.4564 72.0952 86.517C72.2543 86.5739 72.4266 86.6023 72.6122 86.6023C72.7486 86.6023 72.8679 86.5928 72.9702 86.5739C73.0724 86.5549 73.152 86.5398 73.2088 86.5284L73.5156 87.9318C73.4171 87.9697 73.277 88.0076 73.0952 88.0455C72.9134 88.0871 72.6861 88.1098 72.4134 88.1136C71.9664 88.1212 71.5497 88.0417 71.1634 87.875C70.777 87.7083 70.4645 87.4508 70.2259 87.1023C69.9872 86.7538 69.8679 86.3163 69.8679 85.7898V77.1818ZM83.6236 79.2727V80.6364H78.6918V79.2727H83.6236ZM80.044 88V78.2614C80.044 77.7159 80.1634 77.2633 80.402 76.9034C80.6406 76.5398 80.9569 76.2689 81.3509 76.0909C81.7448 75.9091 82.1728 75.8182 82.6349 75.8182C82.9759 75.8182 83.2675 75.8466 83.5099 75.9034C83.7524 75.9564 83.9323 76.0057 84.0497 76.0511L83.652 77.4261C83.5724 77.4034 83.4702 77.3769 83.3452 77.3466C83.2202 77.3125 83.0687 77.2955 82.8906 77.2955C82.4777 77.2955 82.1823 77.3977 82.0043 77.6023C81.83 77.8068 81.7429 78.1023 81.7429 78.4886V88H80.044ZM85.3764 88V79.2727H87.0753V88H85.3764ZM86.2344 77.9261C85.9389 77.9261 85.6851 77.8277 85.473 77.6307C85.2647 77.4299 85.1605 77.1913 85.1605 76.9148C85.1605 76.6345 85.2647 76.3958 85.473 76.1989C85.6851 75.9981 85.9389 75.8977 86.2344 75.8977C86.5298 75.8977 86.7817 75.9981 86.9901 76.1989C87.2022 76.3958 87.3082 76.6345 87.3082 76.9148C87.3082 77.1913 87.2022 77.4299 86.9901 77.6307C86.7817 77.8277 86.5298 77.9261 86.2344 77.9261ZM89.3608 88V79.2727H91.0028V80.6591H91.0938C91.2528 80.1894 91.5331 79.8201 91.9347 79.5511C92.34 79.2784 92.7983 79.142 93.3097 79.142C93.4157 79.142 93.5407 79.1458 93.6847 79.1534C93.8324 79.161 93.9479 79.1705 94.0312 79.1818V80.8068C93.9631 80.7879 93.8419 80.767 93.6676 80.7443C93.4934 80.7178 93.3191 80.7045 93.1449 80.7045C92.7434 80.7045 92.3854 80.7898 92.071 80.9602C91.7604 81.1269 91.5142 81.3598 91.3324 81.6591C91.1506 81.9545 91.0597 82.2917 91.0597 82.6705V88H89.3608ZM102.041 81.4034L100.501 81.6761C100.437 81.4792 100.335 81.2917 100.195 81.1136C100.058 80.9356 99.8726 80.7898 99.6378 80.6761C99.4029 80.5625 99.1094 80.5057 98.7571 80.5057C98.276 80.5057 97.8745 80.6136 97.5526 80.8295C97.2306 81.0417 97.0696 81.3163 97.0696 81.6534C97.0696 81.9451 97.1776 82.1799 97.3935 82.358C97.6094 82.536 97.9579 82.6818 98.4389 82.7955L99.8253 83.1136C100.628 83.2992 101.227 83.5852 101.621 83.9716C102.015 84.358 102.212 84.8598 102.212 85.4773C102.212 86 102.06 86.4659 101.757 86.875C101.458 87.2803 101.039 87.5985 100.501 87.8295C99.9673 88.0606 99.348 88.1761 98.6435 88.1761C97.6662 88.1761 96.8688 87.9678 96.2514 87.5511C95.634 87.1307 95.2552 86.5341 95.1151 85.7614L96.7571 85.5114C96.8594 85.9394 97.0696 86.2633 97.3878 86.483C97.706 86.6989 98.1207 86.8068 98.6321 86.8068C99.1889 86.8068 99.634 86.6913 99.9673 86.4602C100.301 86.2254 100.467 85.9394 100.467 85.6023C100.467 85.3295 100.365 85.1004 100.161 84.9148C99.9598 84.7292 99.651 84.589 99.2344 84.4943L97.7571 84.1705C96.9427 83.9848 96.3404 83.6894 95.9503 83.2841C95.5639 82.8788 95.3707 82.3655 95.3707 81.7443C95.3707 81.2292 95.5147 80.7784 95.8026 80.392C96.0904 80.0057 96.4882 79.7045 96.9957 79.4886C97.5033 79.2689 98.0848 79.1591 98.7401 79.1591C99.6832 79.1591 100.426 79.3636 100.967 79.7727C101.509 80.178 101.867 80.7216 102.041 81.4034ZM108.153 79.2727V80.6364H103.386V79.2727H108.153ZM104.665 77.1818H106.364V85.4375C106.364 85.767 106.413 86.0152 106.511 86.1818C106.61 86.3447 106.737 86.4564 106.892 86.517C107.051 86.5739 107.223 86.6023 107.409 86.6023C107.545 86.6023 107.665 86.5928 107.767 86.5739C107.869 86.5549 107.949 86.5398 108.006 86.5284L108.312 87.9318C108.214 87.9697 108.074 88.0076 107.892 88.0455C107.71 88.0871 107.483 88.1098 107.21 88.1136C106.763 88.1212 106.347 88.0417 105.96 87.875C105.574 87.7083 105.261 87.4508 105.023 87.1023C104.784 86.7538 104.665 86.3163 104.665 85.7898V77.1818ZM117.943 88.1761C117.125 88.1761 116.411 87.9886 115.801 87.6136C115.191 87.2386 114.718 86.714 114.381 86.0398C114.044 85.3655 113.875 84.5777 113.875 83.6761C113.875 82.7708 114.044 81.9792 114.381 81.3011C114.718 80.6231 115.191 80.0966 115.801 79.7216C116.411 79.3466 117.125 79.1591 117.943 79.1591C118.761 79.1591 119.475 79.3466 120.085 79.7216C120.695 80.0966 121.169 80.6231 121.506 81.3011C121.843 81.9792 122.011 82.7708 122.011 83.6761C122.011 84.5777 121.843 85.3655 121.506 86.0398C121.169 86.714 120.695 87.2386 120.085 87.6136C119.475 87.9886 118.761 88.1761 117.943 88.1761ZM117.949 86.75C118.479 86.75 118.919 86.6098 119.267 86.3295C119.616 86.0492 119.873 85.6761 120.04 85.2102C120.21 84.7443 120.295 84.2311 120.295 83.6705C120.295 83.1136 120.21 82.6023 120.04 82.1364C119.873 81.6667 119.616 81.2898 119.267 81.0057C118.919 80.7216 118.479 80.5795 117.949 80.5795C117.415 80.5795 116.972 80.7216 116.619 81.0057C116.271 81.2898 116.011 81.6667 115.841 82.1364C115.674 82.6023 115.591 83.1136 115.591 83.6705C115.591 84.2311 115.674 84.7443 115.841 85.2102C116.011 85.6761 116.271 86.0492 116.619 86.3295C116.972 86.6098 117.415 86.75 117.949 86.75ZM123.908 91.2727V79.2727H125.567V80.6875H125.709C125.807 80.5057 125.949 80.2955 126.135 80.0568C126.321 79.8182 126.578 79.6098 126.908 79.4318C127.237 79.25 127.673 79.1591 128.214 79.1591C128.919 79.1591 129.548 79.3371 130.101 79.6932C130.654 80.0492 131.088 80.5625 131.402 81.233C131.72 81.9034 131.879 82.7102 131.879 83.6534C131.879 84.5966 131.722 85.4053 131.408 86.0795C131.093 86.75 130.661 87.267 130.112 87.6307C129.563 87.9905 128.936 88.1705 128.232 88.1705C127.701 88.1705 127.268 88.0814 126.93 87.9034C126.597 87.7254 126.336 87.517 126.146 87.2784C125.957 87.0398 125.811 86.8277 125.709 86.642H125.607V91.2727H123.908ZM125.572 83.6364C125.572 84.25 125.661 84.7879 125.839 85.25C126.018 85.7121 126.275 86.0739 126.612 86.3352C126.949 86.5928 127.362 86.7216 127.851 86.7216C128.358 86.7216 128.783 86.5871 129.124 86.3182C129.464 86.0455 129.722 85.6761 129.896 85.2102C130.074 84.7443 130.163 84.2197 130.163 83.6364C130.163 83.0606 130.076 82.5436 129.902 82.0852C129.732 81.6269 129.474 81.2652 129.129 81C128.788 80.7348 128.362 80.6023 127.851 80.6023C127.358 80.6023 126.942 80.7292 126.601 80.983C126.264 81.2367 126.008 81.5909 125.834 82.0455C125.66 82.5 125.572 83.0303 125.572 83.6364ZM137.857 79.2727V80.6364H133.089V79.2727H137.857ZM134.368 77.1818H136.067V85.4375C136.067 85.767 136.116 86.0152 136.214 86.1818C136.313 86.3447 136.44 86.4564 136.595 86.517C136.754 86.5739 136.927 86.6023 137.112 86.6023C137.249 86.6023 137.368 86.5928 137.47 86.5739C137.572 86.5549 137.652 86.5398 137.709 86.5284L138.016 87.9318C137.917 87.9697 137.777 88.0076 137.595 88.0455C137.413 88.0871 137.186 88.1098 136.913 88.1136C136.466 88.1212 136.05 88.0417 135.663 87.875C135.277 87.7083 134.964 87.4508 134.726 87.1023C134.487 86.7538 134.368 86.3163 134.368 85.7898V77.1818ZM139.736 88V79.2727H141.435V88H139.736ZM140.594 77.9261C140.298 77.9261 140.045 77.8277 139.832 77.6307C139.624 77.4299 139.52 77.1913 139.52 76.9148C139.52 76.6345 139.624 76.3958 139.832 76.1989C140.045 75.9981 140.298 75.8977 140.594 75.8977C140.889 75.8977 141.141 75.9981 141.349 76.1989C141.562 76.3958 141.668 76.6345 141.668 76.9148C141.668 77.1913 141.562 77.4299 141.349 77.6307C141.141 77.8277 140.889 77.9261 140.594 77.9261ZM147.396 88.1761C146.578 88.1761 145.864 87.9886 145.254 87.6136C144.644 87.2386 144.171 86.714 143.834 86.0398C143.497 85.3655 143.328 84.5777 143.328 83.6761C143.328 82.7708 143.497 81.9792 143.834 81.3011C144.171 80.6231 144.644 80.0966 145.254 79.7216C145.864 79.3466 146.578 79.1591 147.396 79.1591C148.214 79.1591 148.929 79.3466 149.538 79.7216C150.148 80.0966 150.622 80.6231 150.959 81.3011C151.296 81.9792 151.464 82.7708 151.464 83.6761C151.464 84.5777 151.296 85.3655 150.959 86.0398C150.622 86.714 150.148 87.2386 149.538 87.6136C148.929 87.9886 148.214 88.1761 147.396 88.1761ZM147.402 86.75C147.932 86.75 148.372 86.6098 148.72 86.3295C149.069 86.0492 149.326 85.6761 149.493 85.2102C149.663 84.7443 149.749 84.2311 149.749 83.6705C149.749 83.1136 149.663 82.6023 149.493 82.1364C149.326 81.6667 149.069 81.2898 148.72 81.0057C148.372 80.7216 147.932 80.5795 147.402 80.5795C146.868 80.5795 146.425 80.7216 146.072 81.0057C145.724 81.2898 145.464 81.6667 145.294 82.1364C145.127 82.6023 145.044 83.1136 145.044 83.6705C145.044 84.2311 145.127 84.7443 145.294 85.2102C145.464 85.6761 145.724 86.0492 146.072 86.3295C146.425 86.6098 146.868 86.75 147.402 86.75ZM155.06 82.8182V88H153.361V79.2727H154.991V80.6932H155.099C155.3 80.2311 155.615 79.8598 156.043 79.5795C156.474 79.2992 157.018 79.1591 157.673 79.1591C158.268 79.1591 158.789 79.2841 159.236 79.5341C159.683 79.7803 160.029 80.1477 160.276 80.6364C160.522 81.125 160.645 81.7292 160.645 82.4489V88H158.946V82.6534C158.946 82.0208 158.781 81.5265 158.452 81.1705C158.122 80.8106 157.67 80.6307 157.094 80.6307C156.7 80.6307 156.349 80.7159 156.043 80.8864C155.74 81.0568 155.499 81.3068 155.321 81.6364C155.147 81.9621 155.06 82.3561 155.06 82.8182Z" fill="#181D27"/>
<rect width="320" height="44" transform="translate(12 104)" fill="#D2D2D2" fill-opacity="0.07"/>
<path d="M33.625 123.42C33.5644 122.883 33.3144 122.466 32.875 122.17C32.4356 121.871 31.8826 121.722 31.2159 121.722C30.7386 121.722 30.3258 121.797 29.9773 121.949C29.6288 122.097 29.358 122.301 29.1648 122.562C28.9754 122.82 28.8807 123.114 28.8807 123.443C28.8807 123.72 28.9451 123.958 29.0739 124.159C29.2064 124.36 29.3788 124.528 29.5909 124.665C29.8068 124.797 30.0379 124.909 30.2841 125C30.5303 125.087 30.767 125.159 30.9943 125.216L32.1307 125.511C32.5019 125.602 32.8826 125.725 33.2727 125.881C33.6629 126.036 34.0246 126.241 34.358 126.494C34.6913 126.748 34.9602 127.062 35.1648 127.438C35.3731 127.812 35.4773 128.261 35.4773 128.784C35.4773 129.443 35.3068 130.028 34.9659 130.54C34.6288 131.051 34.1383 131.455 33.4943 131.75C32.8542 132.045 32.0795 132.193 31.1705 132.193C30.2992 132.193 29.5455 132.055 28.9091 131.778C28.2727 131.502 27.7746 131.11 27.4148 130.602C27.0549 130.091 26.8561 129.485 26.8182 128.784H28.5795C28.6136 129.205 28.75 129.555 28.9886 129.835C29.2311 130.112 29.5398 130.318 29.9148 130.455C30.2936 130.587 30.7083 130.653 31.1591 130.653C31.6553 130.653 32.0966 130.576 32.483 130.42C32.8731 130.261 33.1799 130.042 33.4034 129.761C33.6269 129.477 33.7386 129.146 33.7386 128.767C33.7386 128.422 33.6402 128.14 33.4432 127.92C33.25 127.701 32.9867 127.519 32.6534 127.375C32.3239 127.231 31.9508 127.104 31.5341 126.994L30.1591 126.619C29.2273 126.366 28.4886 125.992 27.9432 125.5C27.4015 125.008 27.1307 124.356 27.1307 123.545C27.1307 122.875 27.3125 122.29 27.6761 121.79C28.0398 121.29 28.5322 120.902 29.1534 120.625C29.7746 120.345 30.4754 120.205 31.2557 120.205C32.0436 120.205 32.7386 120.343 33.3409 120.619C33.947 120.896 34.4242 121.277 34.7727 121.761C35.1212 122.242 35.303 122.795 35.3182 123.42H33.625ZM41.2003 132.176C40.3404 132.176 39.5999 131.992 38.9787 131.625C38.3613 131.254 37.884 130.733 37.5469 130.062C37.2135 129.388 37.0469 128.598 37.0469 127.693C37.0469 126.799 37.2135 126.011 37.5469 125.33C37.884 124.648 38.3537 124.116 38.956 123.733C39.562 123.35 40.2704 123.159 41.081 123.159C41.5734 123.159 42.0507 123.241 42.5128 123.403C42.9749 123.566 43.3897 123.822 43.7571 124.17C44.1245 124.519 44.4143 124.972 44.6264 125.528C44.8385 126.081 44.9446 126.754 44.9446 127.545V128.148H38.0071V126.875H43.2798C43.2798 126.428 43.1889 126.032 43.0071 125.688C42.8253 125.339 42.5696 125.064 42.2401 124.864C41.9143 124.663 41.5317 124.562 41.0923 124.562C40.6151 124.562 40.1984 124.68 39.8423 124.915C39.4901 125.146 39.2173 125.449 39.0241 125.824C38.8348 126.195 38.7401 126.598 38.7401 127.034V128.028C38.7401 128.612 38.8423 129.108 39.0469 129.517C39.2552 129.926 39.545 130.239 39.9162 130.455C40.2874 130.667 40.7211 130.773 41.2173 130.773C41.5393 130.773 41.8329 130.727 42.098 130.636C42.3632 130.542 42.5923 130.402 42.7855 130.216C42.9787 130.03 43.1264 129.801 43.2287 129.528L44.8366 129.818C44.7079 130.292 44.4768 130.706 44.1435 131.062C43.8139 131.415 43.3991 131.689 42.8991 131.886C42.4029 132.08 41.8366 132.176 41.2003 132.176ZM48.5284 120.364V132H46.8295V120.364H48.5284ZM54.5753 132.176C53.7154 132.176 52.9749 131.992 52.3537 131.625C51.7363 131.254 51.259 130.733 50.9219 130.062C50.5885 129.388 50.4219 128.598 50.4219 127.693C50.4219 126.799 50.5885 126.011 50.9219 125.33C51.259 124.648 51.7287 124.116 52.331 123.733C52.937 123.35 53.6454 123.159 54.456 123.159C54.9484 123.159 55.4257 123.241 55.8878 123.403C56.3499 123.566 56.7647 123.822 57.1321 124.17C57.4995 124.519 57.7893 124.972 58.0014 125.528C58.2135 126.081 58.3196 126.754 58.3196 127.545V128.148H51.3821V126.875H56.6548C56.6548 126.428 56.5639 126.032 56.3821 125.688C56.2003 125.339 55.9446 125.064 55.6151 124.864C55.2893 124.663 54.9067 124.562 54.4673 124.562C53.9901 124.562 53.5734 124.68 53.2173 124.915C52.8651 125.146 52.5923 125.449 52.3991 125.824C52.2098 126.195 52.1151 126.598 52.1151 127.034V128.028C52.1151 128.612 52.2173 129.108 52.4219 129.517C52.6302 129.926 52.92 130.239 53.2912 130.455C53.6624 130.667 54.0961 130.773 54.5923 130.773C54.9143 130.773 55.2079 130.727 55.473 130.636C55.7382 130.542 55.9673 130.402 56.1605 130.216C56.3537 130.03 56.5014 129.801 56.6037 129.528L58.2116 129.818C58.0829 130.292 57.8518 130.706 57.5185 131.062C57.1889 131.415 56.7741 131.689 56.2741 131.886C55.7779 132.08 55.2116 132.176 54.5753 132.176ZM63.8807 132.176C63.036 132.176 62.3087 131.985 61.6989 131.602C61.0928 131.216 60.6269 130.684 60.3011 130.006C59.9754 129.328 59.8125 128.551 59.8125 127.676C59.8125 126.79 59.9792 126.008 60.3125 125.33C60.6458 124.648 61.1155 124.116 61.7216 123.733C62.3277 123.35 63.0417 123.159 63.8636 123.159C64.5265 123.159 65.1174 123.282 65.6364 123.528C66.1553 123.771 66.5739 124.112 66.892 124.551C67.214 124.991 67.4053 125.504 67.4659 126.091H65.8125C65.7216 125.682 65.5133 125.33 65.1875 125.034C64.8655 124.739 64.4337 124.591 63.892 124.591C63.4186 124.591 63.0038 124.716 62.6477 124.966C62.2955 125.212 62.0208 125.564 61.8239 126.023C61.6269 126.477 61.5284 127.015 61.5284 127.636C61.5284 128.273 61.625 128.822 61.8182 129.284C62.0114 129.746 62.2841 130.104 62.6364 130.358C62.9924 130.612 63.411 130.739 63.892 130.739C64.214 130.739 64.5057 130.68 64.767 130.562C65.0322 130.441 65.2538 130.269 65.4318 130.045C65.6136 129.822 65.7405 129.553 65.8125 129.239H67.4659C67.4053 129.803 67.2216 130.307 66.9148 130.75C66.608 131.193 66.197 131.542 65.6818 131.795C65.1705 132.049 64.5701 132.176 63.8807 132.176ZM73.3565 123.273V124.636H68.5895V123.273H73.3565ZM69.8679 121.182H71.5668V129.438C71.5668 129.767 71.616 130.015 71.7145 130.182C71.813 130.345 71.9399 130.456 72.0952 130.517C72.2543 130.574 72.4266 130.602 72.6122 130.602C72.7486 130.602 72.8679 130.593 72.9702 130.574C73.0724 130.555 73.152 130.54 73.2088 130.528L73.5156 131.932C73.4171 131.97 73.277 132.008 73.0952 132.045C72.9134 132.087 72.6861 132.11 72.4134 132.114C71.9664 132.121 71.5497 132.042 71.1634 131.875C70.777 131.708 70.4645 131.451 70.2259 131.102C69.9872 130.754 69.8679 130.316 69.8679 129.79V121.182ZM86.0099 125.403L84.4702 125.676C84.4058 125.479 84.3035 125.292 84.1634 125.114C84.027 124.936 83.8414 124.79 83.6065 124.676C83.3717 124.562 83.0781 124.506 82.7259 124.506C82.2448 124.506 81.8433 124.614 81.5213 124.83C81.1993 125.042 81.0384 125.316 81.0384 125.653C81.0384 125.945 81.1463 126.18 81.3622 126.358C81.5781 126.536 81.9266 126.682 82.4077 126.795L83.794 127.114C84.5971 127.299 85.1955 127.585 85.5895 127.972C85.9834 128.358 86.1804 128.86 86.1804 129.477C86.1804 130 86.0289 130.466 85.7259 130.875C85.4266 131.28 85.008 131.598 84.4702 131.83C83.9361 132.061 83.3168 132.176 82.6122 132.176C81.6349 132.176 80.8376 131.968 80.2202 131.551C79.6027 131.131 79.224 130.534 79.0838 129.761L80.7259 129.511C80.8281 129.939 81.0384 130.263 81.3565 130.483C81.6747 130.699 82.0895 130.807 82.6009 130.807C83.1577 130.807 83.6027 130.691 83.9361 130.46C84.2694 130.225 84.4361 129.939 84.4361 129.602C84.4361 129.33 84.3338 129.1 84.1293 128.915C83.9285 128.729 83.6198 128.589 83.2031 128.494L81.7259 128.17C80.9115 127.985 80.3092 127.689 79.919 127.284C79.5327 126.879 79.3395 126.366 79.3395 125.744C79.3395 125.229 79.4834 124.778 79.7713 124.392C80.0592 124.006 80.4569 123.705 80.9645 123.489C81.4721 123.269 82.0535 123.159 82.7088 123.159C83.652 123.159 84.3944 123.364 84.9361 123.773C85.4777 124.178 85.8357 124.722 86.0099 125.403ZM91.8097 132.176C90.9498 132.176 90.2093 131.992 89.5881 131.625C88.9706 131.254 88.4934 130.733 88.1562 130.062C87.8229 129.388 87.6562 128.598 87.6562 127.693C87.6562 126.799 87.8229 126.011 88.1562 125.33C88.4934 124.648 88.9631 124.116 89.5653 123.733C90.1714 123.35 90.8797 123.159 91.6903 123.159C92.1828 123.159 92.66 123.241 93.1222 123.403C93.5843 123.566 93.9991 123.822 94.3665 124.17C94.7339 124.519 95.0237 124.972 95.2358 125.528C95.4479 126.081 95.554 126.754 95.554 127.545V128.148H88.6165V126.875H93.8892C93.8892 126.428 93.7983 126.032 93.6165 125.688C93.4347 125.339 93.179 125.064 92.8494 124.864C92.5237 124.663 92.1411 124.562 91.7017 124.562C91.2244 124.562 90.8078 124.68 90.4517 124.915C90.0994 125.146 89.8267 125.449 89.6335 125.824C89.4441 126.195 89.3494 126.598 89.3494 127.034V128.028C89.3494 128.612 89.4517 129.108 89.6562 129.517C89.8646 129.926 90.1544 130.239 90.5256 130.455C90.8968 130.667 91.3305 130.773 91.8267 130.773C92.1487 130.773 92.4422 130.727 92.7074 130.636C92.9725 130.542 93.2017 130.402 93.3949 130.216C93.5881 130.03 93.7358 129.801 93.8381 129.528L95.446 129.818C95.3172 130.292 95.0862 130.706 94.7528 131.062C94.4233 131.415 94.0085 131.689 93.5085 131.886C93.0123 132.08 92.446 132.176 91.8097 132.176ZM101.115 132.176C100.27 132.176 99.5431 131.985 98.9332 131.602C98.3272 131.216 97.8613 130.684 97.5355 130.006C97.2098 129.328 97.0469 128.551 97.0469 127.676C97.0469 126.79 97.2135 126.008 97.5469 125.33C97.8802 124.648 98.3499 124.116 98.956 123.733C99.562 123.35 100.276 123.159 101.098 123.159C101.761 123.159 102.352 123.282 102.871 123.528C103.39 123.771 103.808 124.112 104.126 124.551C104.448 124.991 104.64 125.504 104.7 126.091H103.047C102.956 125.682 102.748 125.33 102.422 125.034C102.1 124.739 101.668 124.591 101.126 124.591C100.653 124.591 100.238 124.716 99.8821 124.966C99.5298 125.212 99.2552 125.564 99.0582 126.023C98.8613 126.477 98.7628 127.015 98.7628 127.636C98.7628 128.273 98.8594 128.822 99.0526 129.284C99.2457 129.746 99.5185 130.104 99.8707 130.358C100.227 130.612 100.645 130.739 101.126 130.739C101.448 130.739 101.74 130.68 102.001 130.562C102.267 130.441 102.488 130.269 102.666 130.045C102.848 129.822 102.975 129.553 103.047 129.239H104.7C104.64 129.803 104.456 130.307 104.149 130.75C103.842 131.193 103.431 131.542 102.916 131.795C102.405 132.049 101.804 132.176 101.115 132.176ZM110.193 132.176C109.375 132.176 108.661 131.989 108.051 131.614C107.441 131.239 106.968 130.714 106.631 130.04C106.294 129.366 106.125 128.578 106.125 127.676C106.125 126.771 106.294 125.979 106.631 125.301C106.968 124.623 107.441 124.097 108.051 123.722C108.661 123.347 109.375 123.159 110.193 123.159C111.011 123.159 111.725 123.347 112.335 123.722C112.945 124.097 113.419 124.623 113.756 125.301C114.093 125.979 114.261 126.771 114.261 127.676C114.261 128.578 114.093 129.366 113.756 130.04C113.419 130.714 112.945 131.239 112.335 131.614C111.725 131.989 111.011 132.176 110.193 132.176ZM110.199 130.75C110.729 130.75 111.169 130.61 111.517 130.33C111.866 130.049 112.123 129.676 112.29 129.21C112.46 128.744 112.545 128.231 112.545 127.67C112.545 127.114 112.46 126.602 112.29 126.136C112.123 125.667 111.866 125.29 111.517 125.006C111.169 124.722 110.729 124.58 110.199 124.58C109.665 124.58 109.222 124.722 108.869 125.006C108.521 125.29 108.261 125.667 108.091 126.136C107.924 126.602 107.841 127.114 107.841 127.67C107.841 128.231 107.924 128.744 108.091 129.21C108.261 129.676 108.521 130.049 108.869 130.33C109.222 130.61 109.665 130.75 110.199 130.75ZM117.857 126.818V132H116.158V123.273H117.788V124.693H117.896C118.097 124.231 118.411 123.86 118.839 123.58C119.271 123.299 119.815 123.159 120.47 123.159C121.065 123.159 121.586 123.284 122.033 123.534C122.48 123.78 122.826 124.148 123.072 124.636C123.319 125.125 123.442 125.729 123.442 126.449V132H121.743V126.653C121.743 126.021 121.578 125.527 121.249 125.17C120.919 124.811 120.466 124.631 119.891 124.631C119.497 124.631 119.146 124.716 118.839 124.886C118.536 125.057 118.296 125.307 118.118 125.636C117.944 125.962 117.857 126.356 117.857 126.818ZM128.987 132.17C128.283 132.17 127.654 131.991 127.101 131.631C126.552 131.267 126.12 130.75 125.805 130.08C125.495 129.405 125.339 128.597 125.339 127.653C125.339 126.71 125.497 125.903 125.811 125.233C126.129 124.562 126.565 124.049 127.118 123.693C127.671 123.337 128.298 123.159 128.999 123.159C129.54 123.159 129.976 123.25 130.305 123.432C130.639 123.61 130.896 123.818 131.078 124.057C131.264 124.295 131.408 124.506 131.51 124.688H131.612V120.364H133.311V132H131.652V130.642H131.51C131.408 130.828 131.26 131.04 131.067 131.278C130.877 131.517 130.616 131.725 130.283 131.903C129.949 132.081 129.518 132.17 128.987 132.17ZM129.362 130.722C129.851 130.722 130.264 130.593 130.601 130.335C130.942 130.074 131.199 129.712 131.374 129.25C131.552 128.788 131.641 128.25 131.641 127.636C131.641 127.03 131.554 126.5 131.379 126.045C131.205 125.591 130.949 125.237 130.612 124.983C130.275 124.729 129.858 124.602 129.362 124.602C128.851 124.602 128.425 124.735 128.084 125C127.743 125.265 127.485 125.627 127.311 126.085C127.141 126.544 127.055 127.061 127.055 127.636C127.055 128.22 127.143 128.744 127.317 129.21C127.491 129.676 127.749 130.045 128.089 130.318C128.434 130.587 128.858 130.722 129.362 130.722ZM143.646 132.176C142.828 132.176 142.114 131.989 141.504 131.614C140.894 131.239 140.421 130.714 140.084 130.04C139.747 129.366 139.578 128.578 139.578 127.676C139.578 126.771 139.747 125.979 140.084 125.301C140.421 124.623 140.894 124.097 141.504 123.722C142.114 123.347 142.828 123.159 143.646 123.159C144.464 123.159 145.179 123.347 145.788 123.722C146.398 124.097 146.872 124.623 147.209 125.301C147.546 125.979 147.714 126.771 147.714 127.676C147.714 128.578 147.546 129.366 147.209 130.04C146.872 130.714 146.398 131.239 145.788 131.614C145.179 131.989 144.464 132.176 143.646 132.176ZM143.652 130.75C144.182 130.75 144.622 130.61 144.97 130.33C145.319 130.049 145.576 129.676 145.743 129.21C145.913 128.744 145.999 128.231 145.999 127.67C145.999 127.114 145.913 126.602 145.743 126.136C145.576 125.667 145.319 125.29 144.97 125.006C144.622 124.722 144.182 124.58 143.652 124.58C143.118 124.58 142.675 124.722 142.322 125.006C141.974 125.29 141.714 125.667 141.544 126.136C141.377 126.602 141.294 127.114 141.294 127.67C141.294 128.231 141.377 128.744 141.544 129.21C141.714 129.676 141.974 130.049 142.322 130.33C142.675 130.61 143.118 130.75 143.652 130.75ZM149.611 135.273V123.273H151.27V124.688H151.412C151.51 124.506 151.652 124.295 151.838 124.057C152.024 123.818 152.281 123.61 152.611 123.432C152.94 123.25 153.376 123.159 153.918 123.159C154.622 123.159 155.251 123.337 155.804 123.693C156.357 124.049 156.791 124.562 157.105 125.233C157.423 125.903 157.582 126.71 157.582 127.653C157.582 128.597 157.425 129.405 157.111 130.08C156.796 130.75 156.365 131.267 155.815 131.631C155.266 131.991 154.639 132.17 153.935 132.17C153.404 132.17 152.971 132.081 152.634 131.903C152.3 131.725 152.039 131.517 151.849 131.278C151.66 131.04 151.514 130.828 151.412 130.642H151.31V135.273H149.611ZM151.276 127.636C151.276 128.25 151.365 128.788 151.543 129.25C151.721 129.712 151.978 130.074 152.315 130.335C152.652 130.593 153.065 130.722 153.554 130.722C154.062 130.722 154.486 130.587 154.827 130.318C155.168 130.045 155.425 129.676 155.599 129.21C155.777 128.744 155.866 128.22 155.866 127.636C155.866 127.061 155.779 126.544 155.605 126.085C155.435 125.627 155.177 125.265 154.832 125C154.491 124.735 154.065 124.602 153.554 124.602C153.062 124.602 152.645 124.729 152.304 124.983C151.967 125.237 151.711 125.591 151.537 126.045C151.363 126.5 151.276 127.03 151.276 127.636ZM163.56 123.273V124.636H158.793V123.273H163.56ZM160.071 121.182H161.77V129.438C161.77 129.767 161.819 130.015 161.918 130.182C162.016 130.345 162.143 130.456 162.298 130.517C162.457 130.574 162.63 130.602 162.815 130.602C162.952 130.602 163.071 130.593 163.173 130.574C163.276 130.555 163.355 130.54 163.412 130.528L163.719 131.932C163.62 131.97 163.48 132.008 163.298 132.045C163.116 132.087 162.889 132.11 162.616 132.114C162.17 132.121 161.753 132.042 161.366 131.875C160.98 131.708 160.668 131.451 160.429 131.102C160.19 130.754 160.071 130.316 160.071 129.79V121.182ZM165.439 132V123.273H167.138V132H165.439ZM166.297 121.926C166.001 121.926 165.748 121.828 165.536 121.631C165.327 121.43 165.223 121.191 165.223 120.915C165.223 120.634 165.327 120.396 165.536 120.199C165.748 119.998 166.001 119.898 166.297 119.898C166.592 119.898 166.844 119.998 167.053 120.199C167.265 120.396 167.371 120.634 167.371 120.915C167.371 121.191 167.265 121.43 167.053 121.631C166.844 121.828 166.592 121.926 166.297 121.926ZM173.099 132.176C172.281 132.176 171.567 131.989 170.957 131.614C170.348 131.239 169.874 130.714 169.537 130.04C169.2 129.366 169.031 128.578 169.031 127.676C169.031 126.771 169.2 125.979 169.537 125.301C169.874 124.623 170.348 124.097 170.957 123.722C171.567 123.347 172.281 123.159 173.099 123.159C173.918 123.159 174.632 123.347 175.241 123.722C175.851 124.097 176.325 124.623 176.662 125.301C176.999 125.979 177.168 126.771 177.168 127.676C177.168 128.578 176.999 129.366 176.662 130.04C176.325 130.714 175.851 131.239 175.241 131.614C174.632 131.989 173.918 132.176 173.099 132.176ZM173.105 130.75C173.635 130.75 174.075 130.61 174.423 130.33C174.772 130.049 175.029 129.676 175.196 129.21C175.366 128.744 175.452 128.231 175.452 127.67C175.452 127.114 175.366 126.602 175.196 126.136C175.029 125.667 174.772 125.29 174.423 125.006C174.075 124.722 173.635 124.58 173.105 124.58C172.571 124.58 172.128 124.722 171.776 125.006C171.427 125.29 171.168 125.667 170.997 126.136C170.83 126.602 170.747 127.114 170.747 127.67C170.747 128.231 170.83 128.744 170.997 129.21C171.168 129.676 171.427 130.049 171.776 130.33C172.128 130.61 172.571 130.75 173.105 130.75ZM180.763 126.818V132H179.064V123.273H180.695V124.693H180.803C181.003 124.231 181.318 123.86 181.746 123.58C182.178 123.299 182.721 123.159 183.376 123.159C183.971 123.159 184.492 123.284 184.939 123.534C185.386 123.78 185.732 124.148 185.979 124.636C186.225 125.125 186.348 125.729 186.348 126.449V132H184.649V126.653C184.649 126.021 184.484 125.527 184.155 125.17C183.825 124.811 183.373 124.631 182.797 124.631C182.403 124.631 182.053 124.716 181.746 124.886C181.443 125.057 181.202 125.307 181.024 125.636C180.85 125.962 180.763 126.356 180.763 126.818Z" fill="#181D27"/>
<path d="M33.625 167.42C33.5644 166.883 33.3144 166.466 32.875 166.17C32.4356 165.871 31.8826 165.722 31.2159 165.722C30.7386 165.722 30.3258 165.797 29.9773 165.949C29.6288 166.097 29.358 166.301 29.1648 166.562C28.9754 166.82 28.8807 167.114 28.8807 167.443C28.8807 167.72 28.9451 167.958 29.0739 168.159C29.2064 168.36 29.3788 168.528 29.5909 168.665C29.8068 168.797 30.0379 168.909 30.2841 169C30.5303 169.087 30.767 169.159 30.9943 169.216L32.1307 169.511C32.5019 169.602 32.8826 169.725 33.2727 169.881C33.6629 170.036 34.0246 170.241 34.358 170.494C34.6913 170.748 34.9602 171.062 35.1648 171.438C35.3731 171.812 35.4773 172.261 35.4773 172.784C35.4773 173.443 35.3068 174.028 34.9659 174.54C34.6288 175.051 34.1383 175.455 33.4943 175.75C32.8542 176.045 32.0795 176.193 31.1705 176.193C30.2992 176.193 29.5455 176.055 28.9091 175.778C28.2727 175.502 27.7746 175.11 27.4148 174.602C27.0549 174.091 26.8561 173.485 26.8182 172.784H28.5795C28.6136 173.205 28.75 173.555 28.9886 173.835C29.2311 174.112 29.5398 174.318 29.9148 174.455C30.2936 174.587 30.7083 174.653 31.1591 174.653C31.6553 174.653 32.0966 174.576 32.483 174.42C32.8731 174.261 33.1799 174.042 33.4034 173.761C33.6269 173.477 33.7386 173.146 33.7386 172.767C33.7386 172.422 33.6402 172.14 33.4432 171.92C33.25 171.701 32.9867 171.519 32.6534 171.375C32.3239 171.231 31.9508 171.104 31.5341 170.994L30.1591 170.619C29.2273 170.366 28.4886 169.992 27.9432 169.5C27.4015 169.008 27.1307 168.356 27.1307 167.545C27.1307 166.875 27.3125 166.29 27.6761 165.79C28.0398 165.29 28.5322 164.902 29.1534 164.625C29.7746 164.345 30.4754 164.205 31.2557 164.205C32.0436 164.205 32.7386 164.343 33.3409 164.619C33.947 164.896 34.4242 165.277 34.7727 165.761C35.1212 166.242 35.303 166.795 35.3182 167.42H33.625ZM41.2003 176.176C40.3404 176.176 39.5999 175.992 38.9787 175.625C38.3613 175.254 37.884 174.733 37.5469 174.062C37.2135 173.388 37.0469 172.598 37.0469 171.693C37.0469 170.799 37.2135 170.011 37.5469 169.33C37.884 168.648 38.3537 168.116 38.956 167.733C39.562 167.35 40.2704 167.159 41.081 167.159C41.5734 167.159 42.0507 167.241 42.5128 167.403C42.9749 167.566 43.3897 167.822 43.7571 168.17C44.1245 168.519 44.4143 168.972 44.6264 169.528C44.8385 170.081 44.9446 170.754 44.9446 171.545V172.148H38.0071V170.875H43.2798C43.2798 170.428 43.1889 170.032 43.0071 169.688C42.8253 169.339 42.5696 169.064 42.2401 168.864C41.9143 168.663 41.5317 168.562 41.0923 168.562C40.6151 168.562 40.1984 168.68 39.8423 168.915C39.4901 169.146 39.2173 169.449 39.0241 169.824C38.8348 170.195 38.7401 170.598 38.7401 171.034V172.028C38.7401 172.612 38.8423 173.108 39.0469 173.517C39.2552 173.926 39.545 174.239 39.9162 174.455C40.2874 174.667 40.7211 174.773 41.2173 174.773C41.5393 174.773 41.8329 174.727 42.098 174.636C42.3632 174.542 42.5923 174.402 42.7855 174.216C42.9787 174.03 43.1264 173.801 43.2287 173.528L44.8366 173.818C44.7079 174.292 44.4768 174.706 44.1435 175.062C43.8139 175.415 43.3991 175.689 42.8991 175.886C42.4029 176.08 41.8366 176.176 41.2003 176.176ZM48.5284 164.364V176H46.8295V164.364H48.5284ZM54.5753 176.176C53.7154 176.176 52.9749 175.992 52.3537 175.625C51.7363 175.254 51.259 174.733 50.9219 174.062C50.5885 173.388 50.4219 172.598 50.4219 171.693C50.4219 170.799 50.5885 170.011 50.9219 169.33C51.259 168.648 51.7287 168.116 52.331 167.733C52.937 167.35 53.6454 167.159 54.456 167.159C54.9484 167.159 55.4257 167.241 55.8878 167.403C56.3499 167.566 56.7647 167.822 57.1321 168.17C57.4995 168.519 57.7893 168.972 58.0014 169.528C58.2135 170.081 58.3196 170.754 58.3196 171.545V172.148H51.3821V170.875H56.6548C56.6548 170.428 56.5639 170.032 56.3821 169.688C56.2003 169.339 55.9446 169.064 55.6151 168.864C55.2893 168.663 54.9067 168.562 54.4673 168.562C53.9901 168.562 53.5734 168.68 53.2173 168.915C52.8651 169.146 52.5923 169.449 52.3991 169.824C52.2098 170.195 52.1151 170.598 52.1151 171.034V172.028C52.1151 172.612 52.2173 173.108 52.4219 173.517C52.6302 173.926 52.92 174.239 53.2912 174.455C53.6624 174.667 54.0961 174.773 54.5923 174.773C54.9143 174.773 55.2079 174.727 55.473 174.636C55.7382 174.542 55.9673 174.402 56.1605 174.216C56.3537 174.03 56.5014 173.801 56.6037 173.528L58.2116 173.818C58.0829 174.292 57.8518 174.706 57.5185 175.062C57.1889 175.415 56.7741 175.689 56.2741 175.886C55.7779 176.08 55.2116 176.176 54.5753 176.176ZM63.8807 176.176C63.036 176.176 62.3087 175.985 61.6989 175.602C61.0928 175.216 60.6269 174.684 60.3011 174.006C59.9754 173.328 59.8125 172.551 59.8125 171.676C59.8125 170.79 59.9792 170.008 60.3125 169.33C60.6458 168.648 61.1155 168.116 61.7216 167.733C62.3277 167.35 63.0417 167.159 63.8636 167.159C64.5265 167.159 65.1174 167.282 65.6364 167.528C66.1553 167.771 66.5739 168.112 66.892 168.551C67.214 168.991 67.4053 169.504 67.4659 170.091H65.8125C65.7216 169.682 65.5133 169.33 65.1875 169.034C64.8655 168.739 64.4337 168.591 63.892 168.591C63.4186 168.591 63.0038 168.716 62.6477 168.966C62.2955 169.212 62.0208 169.564 61.8239 170.023C61.6269 170.477 61.5284 171.015 61.5284 171.636C61.5284 172.273 61.625 172.822 61.8182 173.284C62.0114 173.746 62.2841 174.104 62.6364 174.358C62.9924 174.612 63.411 174.739 63.892 174.739C64.214 174.739 64.5057 174.68 64.767 174.562C65.0322 174.441 65.2538 174.269 65.4318 174.045C65.6136 173.822 65.7405 173.553 65.8125 173.239H67.4659C67.4053 173.803 67.2216 174.307 66.9148 174.75C66.608 175.193 66.197 175.542 65.6818 175.795C65.1705 176.049 64.5701 176.176 63.8807 176.176ZM73.3565 167.273V168.636H68.5895V167.273H73.3565ZM69.8679 165.182H71.5668V173.438C71.5668 173.767 71.616 174.015 71.7145 174.182C71.813 174.345 71.9399 174.456 72.0952 174.517C72.2543 174.574 72.4266 174.602 72.6122 174.602C72.7486 174.602 72.8679 174.593 72.9702 174.574C73.0724 174.555 73.152 174.54 73.2088 174.528L73.5156 175.932C73.4171 175.97 73.277 176.008 73.0952 176.045C72.9134 176.087 72.6861 176.11 72.4134 176.114C71.9664 176.121 71.5497 176.042 71.1634 175.875C70.777 175.708 70.4645 175.451 70.2259 175.102C69.9872 174.754 69.8679 174.316 69.8679 173.79V165.182ZM83.544 167.273V168.636H78.777V167.273H83.544ZM80.0554 165.182H81.7543V173.438C81.7543 173.767 81.8035 174.015 81.902 174.182C82.0005 174.345 82.1274 174.456 82.2827 174.517C82.4418 174.574 82.6141 174.602 82.7997 174.602C82.9361 174.602 83.0554 174.593 83.1577 174.574C83.2599 174.555 83.3395 174.54 83.3963 174.528L83.7031 175.932C83.6046 175.97 83.4645 176.008 83.2827 176.045C83.1009 176.087 82.8736 176.11 82.6009 176.114C82.1539 176.121 81.7372 176.042 81.3509 175.875C80.9645 175.708 80.652 175.451 80.4134 175.102C80.1747 174.754 80.0554 174.316 80.0554 173.79V165.182ZM87.3097 170.818V176H85.6108V164.364H87.2869V168.693H87.3949C87.5994 168.223 87.9119 167.85 88.3324 167.574C88.7528 167.297 89.3021 167.159 89.9801 167.159C90.5786 167.159 91.1013 167.282 91.5483 167.528C91.9991 167.775 92.3475 168.142 92.5938 168.631C92.8438 169.116 92.9688 169.722 92.9688 170.449V176H91.2699V170.653C91.2699 170.013 91.1051 169.517 90.7756 169.165C90.446 168.809 89.9877 168.631 89.4006 168.631C88.9991 168.631 88.6392 168.716 88.321 168.886C88.0066 169.057 87.7585 169.307 87.5767 169.636C87.3987 169.962 87.3097 170.356 87.3097 170.818ZM95.2358 176V167.273H96.9347V176H95.2358ZM96.0938 165.926C95.7983 165.926 95.5445 165.828 95.3324 165.631C95.1241 165.43 95.0199 165.191 95.0199 164.915C95.0199 164.634 95.1241 164.396 95.3324 164.199C95.5445 163.998 95.7983 163.898 96.0938 163.898C96.3892 163.898 96.6411 163.998 96.8494 164.199C97.0616 164.396 97.1676 164.634 97.1676 164.915C97.1676 165.191 97.0616 165.43 96.8494 165.631C96.6411 165.828 96.3892 165.926 96.0938 165.926ZM99.2202 176V167.273H100.862V168.659H100.953C101.112 168.189 101.393 167.82 101.794 167.551C102.199 167.278 102.658 167.142 103.169 167.142C103.275 167.142 103.4 167.146 103.544 167.153C103.692 167.161 103.807 167.17 103.891 167.182V168.807C103.822 168.788 103.701 168.767 103.527 168.744C103.353 168.718 103.179 168.705 103.004 168.705C102.603 168.705 102.245 168.79 101.93 168.96C101.62 169.127 101.374 169.36 101.192 169.659C101.01 169.955 100.919 170.292 100.919 170.67V176H99.2202ZM108.315 176.17C107.611 176.17 106.982 175.991 106.429 175.631C105.88 175.267 105.448 174.75 105.134 174.08C104.823 173.405 104.668 172.597 104.668 171.653C104.668 170.71 104.825 169.903 105.139 169.233C105.457 168.562 105.893 168.049 106.446 167.693C106.999 167.337 107.626 167.159 108.327 167.159C108.868 167.159 109.304 167.25 109.634 167.432C109.967 167.61 110.224 167.818 110.406 168.057C110.592 168.295 110.736 168.506 110.838 168.688H110.94V164.364H112.639V176H110.98V174.642H110.838C110.736 174.828 110.588 175.04 110.395 175.278C110.205 175.517 109.944 175.725 109.611 175.903C109.277 176.081 108.846 176.17 108.315 176.17ZM108.69 174.722C109.179 174.722 109.592 174.593 109.929 174.335C110.27 174.074 110.527 173.712 110.702 173.25C110.88 172.788 110.969 172.25 110.969 171.636C110.969 171.03 110.882 170.5 110.707 170.045C110.533 169.591 110.277 169.237 109.94 168.983C109.603 168.729 109.187 168.602 108.69 168.602C108.179 168.602 107.753 168.735 107.412 169C107.071 169.265 106.813 169.627 106.639 170.085C106.469 170.544 106.384 171.061 106.384 171.636C106.384 172.22 106.471 172.744 106.645 173.21C106.819 173.676 107.077 174.045 107.418 174.318C107.762 174.587 108.187 174.722 108.69 174.722ZM122.974 176.176C122.156 176.176 121.442 175.989 120.832 175.614C120.223 175.239 119.749 174.714 119.412 174.04C119.075 173.366 118.906 172.578 118.906 171.676C118.906 170.771 119.075 169.979 119.412 169.301C119.749 168.623 120.223 168.097 120.832 167.722C121.442 167.347 122.156 167.159 122.974 167.159C123.793 167.159 124.507 167.347 125.116 167.722C125.726 168.097 126.2 168.623 126.537 169.301C126.874 169.979 127.043 170.771 127.043 171.676C127.043 172.578 126.874 173.366 126.537 174.04C126.2 174.714 125.726 175.239 125.116 175.614C124.507 175.989 123.793 176.176 122.974 176.176ZM122.98 174.75C123.51 174.75 123.95 174.61 124.298 174.33C124.647 174.049 124.904 173.676 125.071 173.21C125.241 172.744 125.327 172.231 125.327 171.67C125.327 171.114 125.241 170.602 125.071 170.136C124.904 169.667 124.647 169.29 124.298 169.006C123.95 168.722 123.51 168.58 122.98 168.58C122.446 168.58 122.003 168.722 121.651 169.006C121.302 169.29 121.043 169.667 120.872 170.136C120.705 170.602 120.622 171.114 120.622 171.67C120.622 172.231 120.705 172.744 120.872 173.21C121.043 173.676 121.302 174.049 121.651 174.33C122.003 174.61 122.446 174.75 122.98 174.75ZM128.939 179.273V167.273H130.598V168.688H130.74C130.839 168.506 130.981 168.295 131.166 168.057C131.352 167.818 131.609 167.61 131.939 167.432C132.268 167.25 132.704 167.159 133.246 167.159C133.95 167.159 134.579 167.337 135.132 167.693C135.685 168.049 136.119 168.562 136.433 169.233C136.751 169.903 136.911 170.71 136.911 171.653C136.911 172.597 136.753 173.405 136.439 174.08C136.125 174.75 135.693 175.267 135.143 175.631C134.594 175.991 133.967 176.17 133.263 176.17C132.732 176.17 132.299 176.081 131.962 175.903C131.628 175.725 131.367 175.517 131.178 175.278C130.988 175.04 130.842 174.828 130.74 174.642H130.638V179.273H128.939ZM130.604 171.636C130.604 172.25 130.693 172.788 130.871 173.25C131.049 173.712 131.306 174.074 131.643 174.335C131.981 174.593 132.393 174.722 132.882 174.722C133.39 174.722 133.814 174.587 134.155 174.318C134.496 174.045 134.753 173.676 134.928 173.21C135.106 172.744 135.195 172.22 135.195 171.636C135.195 171.061 135.107 170.544 134.933 170.085C134.763 169.627 134.505 169.265 134.161 169C133.82 168.735 133.393 168.602 132.882 168.602C132.39 168.602 131.973 168.729 131.632 168.983C131.295 169.237 131.039 169.591 130.865 170.045C130.691 170.5 130.604 171.03 130.604 171.636ZM142.888 167.273V168.636H138.121V167.273H142.888ZM139.399 165.182H141.098V173.438C141.098 173.767 141.147 174.015 141.246 174.182C141.344 174.345 141.471 174.456 141.626 174.517C141.786 174.574 141.958 174.602 142.143 174.602C142.28 174.602 142.399 174.593 142.501 174.574C142.604 174.555 142.683 174.54 142.74 174.528L143.047 175.932C142.948 175.97 142.808 176.008 142.626 176.045C142.445 176.087 142.217 176.11 141.945 176.114C141.498 176.121 141.081 176.042 140.695 175.875C140.308 175.708 139.996 175.451 139.757 175.102C139.518 174.754 139.399 174.316 139.399 173.79V165.182ZM144.767 176V167.273H146.466V176H144.767ZM145.625 165.926C145.33 165.926 145.076 165.828 144.864 165.631C144.655 165.43 144.551 165.191 144.551 164.915C144.551 164.634 144.655 164.396 144.864 164.199C145.076 163.998 145.33 163.898 145.625 163.898C145.92 163.898 146.172 163.998 146.381 164.199C146.593 164.396 146.699 164.634 146.699 164.915C146.699 165.191 146.593 165.43 146.381 165.631C146.172 165.828 145.92 165.926 145.625 165.926ZM152.428 176.176C151.609 176.176 150.895 175.989 150.286 175.614C149.676 175.239 149.202 174.714 148.865 174.04C148.528 173.366 148.359 172.578 148.359 171.676C148.359 170.771 148.528 169.979 148.865 169.301C149.202 168.623 149.676 168.097 150.286 167.722C150.895 167.347 151.609 167.159 152.428 167.159C153.246 167.159 153.96 167.347 154.57 167.722C155.179 168.097 155.653 168.623 155.99 169.301C156.327 169.979 156.496 170.771 156.496 171.676C156.496 172.578 156.327 173.366 155.99 174.04C155.653 174.714 155.179 175.239 154.57 175.614C153.96 175.989 153.246 176.176 152.428 176.176ZM152.433 174.75C152.964 174.75 153.403 174.61 153.751 174.33C154.1 174.049 154.357 173.676 154.524 173.21C154.695 172.744 154.78 172.231 154.78 171.67C154.78 171.114 154.695 170.602 154.524 170.136C154.357 169.667 154.1 169.29 153.751 169.006C153.403 168.722 152.964 168.58 152.433 168.58C151.899 168.58 151.456 168.722 151.104 169.006C150.755 169.29 150.496 169.667 150.325 170.136C150.159 170.602 150.075 171.114 150.075 171.67C150.075 172.231 150.159 172.744 150.325 173.21C150.496 173.676 150.755 174.049 151.104 174.33C151.456 174.61 151.899 174.75 152.433 174.75ZM160.091 170.818V176H158.392V167.273H160.023V168.693H160.131C160.331 168.231 160.646 167.86 161.074 167.58C161.506 167.299 162.049 167.159 162.705 167.159C163.299 167.159 163.82 167.284 164.267 167.534C164.714 167.78 165.061 168.148 165.307 168.636C165.553 169.125 165.676 169.729 165.676 170.449V176H163.977V170.653C163.977 170.021 163.813 169.527 163.483 169.17C163.153 168.811 162.701 168.631 162.125 168.631C161.731 168.631 161.381 168.716 161.074 168.886C160.771 169.057 160.53 169.307 160.352 169.636C160.178 169.962 160.091 170.356 160.091 170.818Z" fill="#181D27"/>
</g>
<g filter="url(#filter1_dd_8620_6563)">
<rect x="12" y="4" width="320" height="44" rx="8" fill="white"/>
<rect x="12.5" y="4.5" width="319" height="43" rx="7.5" stroke="#939090"/>
<path d="M43.5 33.5L39.875 29.875M41.8333 25.1667C41.8333 28.8486 38.8486 31.8333 35.1667 31.8333C31.4848 31.8333 28.5 28.8486 28.5 25.1667C28.5 21.4848 31.4848 18.5 35.1667 18.5C38.8486 18.5 41.8333 21.4848 41.8333 25.1667Z" stroke="#717680" stroke-width="1.66667" stroke-linecap="round" stroke-linejoin="round"/>
<path d="M61.625 23.4205C61.5644 22.8826 61.3144 22.4659 60.875 22.1705C60.4356 21.8712 59.8826 21.7216 59.2159 21.7216C58.7386 21.7216 58.3258 21.7973 57.9773 21.9489C57.6288 22.0966 57.358 22.3011 57.1648 22.5625C56.9754 22.8201 56.8807 23.1136 56.8807 23.4432C56.8807 23.7197 56.9451 23.9583 57.0739 24.1591C57.2064 24.3598 57.3788 24.5284 57.5909 24.6648C57.8068 24.7973 58.0379 24.9091 58.2841 25C58.5303 25.0871 58.767 25.1591 58.9943 25.2159L60.1307 25.5114C60.5019 25.6023 60.8826 25.7254 61.2727 25.8807C61.6629 26.036 62.0246 26.2405 62.358 26.4943C62.6913 26.7481 62.9602 27.0625 63.1648 27.4375C63.3731 27.8125 63.4773 28.2614 63.4773 28.7841C63.4773 29.4432 63.3068 30.0284 62.9659 30.5398C62.6288 31.0511 62.1383 31.4545 61.4943 31.75C60.8542 32.0455 60.0795 32.1932 59.1705 32.1932C58.2992 32.1932 57.5455 32.0549 56.9091 31.7784C56.2727 31.5019 55.7746 31.1098 55.4148 30.6023C55.0549 30.0909 54.8561 29.4848 54.8182 28.7841H56.5795C56.6136 29.2045 56.75 29.5549 56.9886 29.8352C57.2311 30.1117 57.5398 30.3182 57.9148 30.4545C58.2936 30.5871 58.7083 30.6534 59.1591 30.6534C59.6553 30.6534 60.0966 30.5758 60.483 30.4205C60.8731 30.2614 61.1799 30.0417 61.4034 29.7614C61.6269 29.4773 61.7386 29.1458 61.7386 28.767C61.7386 28.4223 61.6402 28.1402 61.4432 27.9205C61.25 27.7008 60.9867 27.5189 60.6534 27.375C60.3239 27.2311 59.9508 27.1042 59.5341 26.9943L58.1591 26.6193C57.2273 26.3655 56.4886 25.9924 55.9432 25.5C55.4015 25.0076 55.1307 24.3561 55.1307 23.5455C55.1307 22.875 55.3125 22.2898 55.6761 21.7898C56.0398 21.2898 56.5322 20.9015 57.1534 20.625C57.7746 20.3447 58.4754 20.2045 59.2557 20.2045C60.0436 20.2045 60.7386 20.3428 61.3409 20.6193C61.947 20.8958 62.4242 21.2765 62.7727 21.7614C63.1212 22.2424 63.303 22.7955 63.3182 23.4205H61.625ZM69.2003 32.1761C68.3404 32.1761 67.5999 31.9924 66.9787 31.625C66.3613 31.2538 65.884 30.733 65.5469 30.0625C65.2135 29.3883 65.0469 28.5985 65.0469 27.6932C65.0469 26.7992 65.2135 26.0114 65.5469 25.3295C65.884 24.6477 66.3537 24.1155 66.956 23.733C67.562 23.3504 68.2704 23.1591 69.081 23.1591C69.5734 23.1591 70.0507 23.2405 70.5128 23.4034C70.9749 23.5663 71.3897 23.822 71.7571 24.1705C72.1245 24.5189 72.4143 24.9716 72.6264 25.5284C72.8385 26.0814 72.9446 26.7538 72.9446 27.5455V28.1477H66.0071V26.875H71.2798C71.2798 26.428 71.1889 26.0322 71.0071 25.6875C70.8253 25.339 70.5696 25.0644 70.2401 24.8636C69.9143 24.6629 69.5317 24.5625 69.0923 24.5625C68.6151 24.5625 68.1984 24.6799 67.8423 24.9148C67.4901 25.1458 67.2173 25.4489 67.0241 25.8239C66.8348 26.1951 66.7401 26.5985 66.7401 27.0341V28.0284C66.7401 28.6117 66.8423 29.108 67.0469 29.517C67.2552 29.9261 67.545 30.2386 67.9162 30.4545C68.2874 30.6667 68.7211 30.7727 69.2173 30.7727C69.5393 30.7727 69.8329 30.7273 70.098 30.6364C70.3632 30.5417 70.5923 30.4015 70.7855 30.2159C70.9787 30.0303 71.1264 29.8011 71.2287 29.5284L72.8366 29.8182C72.7079 30.2917 72.4768 30.7064 72.1435 31.0625C71.8139 31.4148 71.3991 31.6894 70.8991 31.8864C70.4029 32.0795 69.8366 32.1761 69.2003 32.1761ZM76.5284 20.3636V32H74.8295V20.3636H76.5284ZM82.5753 32.1761C81.7154 32.1761 80.9749 31.9924 80.3537 31.625C79.7363 31.2538 79.259 30.733 78.9219 30.0625C78.5885 29.3883 78.4219 28.5985 78.4219 27.6932C78.4219 26.7992 78.5885 26.0114 78.9219 25.3295C79.259 24.6477 79.7287 24.1155 80.331 23.733C80.937 23.3504 81.6454 23.1591 82.456 23.1591C82.9484 23.1591 83.4257 23.2405 83.8878 23.4034C84.3499 23.5663 84.7647 23.822 85.1321 24.1705C85.4995 24.5189 85.7893 24.9716 86.0014 25.5284C86.2135 26.0814 86.3196 26.7538 86.3196 27.5455V28.1477H79.3821V26.875H84.6548C84.6548 26.428 84.5639 26.0322 84.3821 25.6875C84.2003 25.339 83.9446 25.0644 83.6151 24.8636C83.2893 24.6629 82.9067 24.5625 82.4673 24.5625C81.9901 24.5625 81.5734 24.6799 81.2173 24.9148C80.8651 25.1458 80.5923 25.4489 80.3991 25.8239C80.2098 26.1951 80.1151 26.5985 80.1151 27.0341V28.0284C80.1151 28.6117 80.2173 29.108 80.4219 29.517C80.6302 29.9261 80.92 30.2386 81.2912 30.4545C81.6624 30.6667 82.0961 30.7727 82.5923 30.7727C82.9143 30.7727 83.2079 30.7273 83.473 30.6364C83.7382 30.5417 83.9673 30.4015 84.1605 30.2159C84.3537 30.0303 84.5014 29.8011 84.6037 29.5284L86.2116 29.8182C86.0829 30.2917 85.8518 30.7064 85.5185 31.0625C85.1889 31.4148 84.7741 31.6894 84.2741 31.8864C83.7779 32.0795 83.2116 32.1761 82.5753 32.1761ZM91.8807 32.1761C91.036 32.1761 90.3087 31.9848 89.6989 31.6023C89.0928 31.2159 88.6269 30.6837 88.3011 30.0057C87.9754 29.3277 87.8125 28.5511 87.8125 27.6761C87.8125 26.7898 87.9792 26.0076 88.3125 25.3295C88.6458 24.6477 89.1155 24.1155 89.7216 23.733C90.3277 23.3504 91.0417 23.1591 91.8636 23.1591C92.5265 23.1591 93.1174 23.2822 93.6364 23.5284C94.1553 23.7708 94.5739 24.1117 94.892 24.5511C95.214 24.9905 95.4053 25.5038 95.4659 26.0909H93.8125C93.7216 25.6818 93.5133 25.3295 93.1875 25.0341C92.8655 24.7386 92.4337 24.5909 91.892 24.5909C91.4186 24.5909 91.0038 24.7159 90.6477 24.9659C90.2955 25.2121 90.0208 25.5644 89.8239 26.0227C89.6269 26.4773 89.5284 27.0152 89.5284 27.6364C89.5284 28.2727 89.625 28.822 89.8182 29.2841C90.0114 29.7462 90.2841 30.1042 90.6364 30.358C90.9924 30.6117 91.411 30.7386 91.892 30.7386C92.214 30.7386 92.5057 30.6799 92.767 30.5625C93.0322 30.4413 93.2538 30.2689 93.4318 30.0455C93.6136 29.822 93.7405 29.553 93.8125 29.2386H95.4659C95.4053 29.803 95.2216 30.3068 94.9148 30.75C94.608 31.1932 94.197 31.5417 93.6818 31.7955C93.1705 32.0492 92.5701 32.1761 91.8807 32.1761ZM101.357 23.2727V24.6364H96.5895V23.2727H101.357ZM97.8679 21.1818H99.5668V29.4375C99.5668 29.767 99.616 30.0152 99.7145 30.1818C99.813 30.3447 99.9399 30.4564 100.095 30.517C100.254 30.5739 100.427 30.6023 100.612 30.6023C100.749 30.6023 100.868 30.5928 100.97 30.5739C101.072 30.5549 101.152 30.5398 101.209 30.5284L101.516 31.9318C101.417 31.9697 101.277 32.0076 101.095 32.0455C100.913 32.0871 100.686 32.1098 100.413 32.1136C99.9664 32.1212 99.5497 32.0417 99.1634 31.875C98.777 31.7083 98.4645 31.4508 98.2259 31.1023C97.9872 30.7538 97.8679 30.3163 97.8679 29.7898V21.1818ZM110.01 32.1932C109.457 32.1932 108.957 32.0909 108.51 31.8864C108.063 31.678 107.709 31.3769 107.447 30.983C107.19 30.589 107.061 30.1061 107.061 29.5341C107.061 29.0417 107.156 28.6364 107.345 28.3182C107.535 28 107.79 27.7481 108.112 27.5625C108.434 27.3769 108.794 27.2367 109.192 27.142C109.589 27.0473 109.995 26.9754 110.408 26.9261C110.93 26.8655 111.355 26.8163 111.68 26.7784C112.006 26.7367 112.243 26.6705 112.391 26.5795C112.538 26.4886 112.612 26.3409 112.612 26.1364V26.0966C112.612 25.6004 112.472 25.2159 112.192 24.9432C111.915 24.6705 111.502 24.5341 110.953 24.5341C110.381 24.5341 109.93 24.661 109.601 24.9148C109.275 25.1648 109.05 25.4432 108.925 25.75L107.328 25.3864C107.518 24.8561 107.794 24.428 108.158 24.1023C108.525 23.7727 108.947 23.5341 109.425 23.3864C109.902 23.2348 110.404 23.1591 110.93 23.1591C111.279 23.1591 111.648 23.2008 112.038 23.2841C112.432 23.3636 112.8 23.5114 113.141 23.7273C113.485 23.9432 113.768 24.2519 113.987 24.6534C114.207 25.0511 114.317 25.5682 114.317 26.2045V32H112.658V30.8068H112.589C112.48 31.0265 112.315 31.2424 112.095 31.4545C111.875 31.6667 111.593 31.8428 111.249 31.983C110.904 32.1231 110.491 32.1932 110.01 32.1932ZM110.379 30.8295C110.849 30.8295 111.25 30.7367 111.584 30.5511C111.921 30.3655 112.177 30.1231 112.351 29.8239C112.529 29.5208 112.618 29.197 112.618 28.8523V27.7273C112.557 27.7879 112.44 27.8447 112.266 27.8977C112.095 27.947 111.9 27.9905 111.68 28.0284C111.461 28.0625 111.247 28.0947 111.038 28.125C110.83 28.1515 110.656 28.1742 110.516 28.1932C110.186 28.2348 109.885 28.3049 109.612 28.4034C109.343 28.5019 109.127 28.6439 108.964 28.8295C108.805 29.0114 108.726 29.2538 108.726 29.5568C108.726 29.9773 108.881 30.2955 109.192 30.5114C109.502 30.7235 109.898 30.8295 110.379 30.8295ZM118.278 26.8182V32H116.58V23.2727H118.21V24.6932H118.318C118.519 24.2311 118.833 23.8598 119.261 23.5795C119.693 23.2992 120.237 23.1591 120.892 23.1591C121.487 23.1591 122.008 23.2841 122.455 23.5341C122.902 23.7803 123.248 24.1477 123.494 24.6364C123.741 25.125 123.864 25.7292 123.864 26.4489V32H122.165V26.6534C122.165 26.0208 122 25.5265 121.67 25.1705C121.341 24.8106 120.888 24.6307 120.312 24.6307C119.919 24.6307 119.568 24.7159 119.261 24.8864C118.958 25.0568 118.718 25.3068 118.54 25.6364C118.366 25.9621 118.278 26.3561 118.278 26.8182ZM134.053 32.1761C133.234 32.1761 132.52 31.9886 131.911 31.6136C131.301 31.2386 130.827 30.714 130.49 30.0398C130.153 29.3655 129.984 28.5777 129.984 27.6761C129.984 26.7708 130.153 25.9792 130.49 25.3011C130.827 24.6231 131.301 24.0966 131.911 23.7216C132.52 23.3466 133.234 23.1591 134.053 23.1591C134.871 23.1591 135.585 23.3466 136.195 23.7216C136.804 24.0966 137.278 24.6231 137.615 25.3011C137.952 25.9792 138.121 26.7708 138.121 27.6761C138.121 28.5777 137.952 29.3655 137.615 30.0398C137.278 30.714 136.804 31.2386 136.195 31.6136C135.585 31.9886 134.871 32.1761 134.053 32.1761ZM134.058 30.75C134.589 30.75 135.028 30.6098 135.376 30.3295C135.725 30.0492 135.982 29.6761 136.149 29.2102C136.32 28.7443 136.405 28.2311 136.405 27.6705C136.405 27.1136 136.32 26.6023 136.149 26.1364C135.982 25.6667 135.725 25.2898 135.376 25.0057C135.028 24.7216 134.589 24.5795 134.058 24.5795C133.524 24.5795 133.081 24.7216 132.729 25.0057C132.38 25.2898 132.121 25.6667 131.95 26.1364C131.784 26.6023 131.7 27.1136 131.7 27.6705C131.7 28.2311 131.784 28.7443 131.95 29.2102C132.121 29.6761 132.38 30.0492 132.729 30.3295C133.081 30.6098 133.524 30.75 134.058 30.75ZM140.017 35.2727V23.2727H141.676V24.6875H141.818C141.917 24.5057 142.059 24.2955 142.244 24.0568C142.43 23.8182 142.688 23.6098 143.017 23.4318C143.347 23.25 143.782 23.1591 144.324 23.1591C145.028 23.1591 145.657 23.3371 146.21 23.6932C146.763 24.0492 147.197 24.5625 147.511 25.233C147.83 25.9034 147.989 26.7102 147.989 27.6534C147.989 28.5966 147.831 29.4053 147.517 30.0795C147.203 30.75 146.771 31.267 146.222 31.6307C145.672 31.9905 145.045 32.1705 144.341 32.1705C143.811 32.1705 143.377 32.0814 143.04 31.9034C142.706 31.7254 142.445 31.517 142.256 31.2784C142.066 31.0398 141.92 30.8277 141.818 30.642H141.716V35.2727H140.017ZM141.682 27.6364C141.682 28.25 141.771 28.7879 141.949 29.25C142.127 29.7121 142.384 30.0739 142.722 30.3352C143.059 30.5928 143.472 30.7216 143.96 30.7216C144.468 30.7216 144.892 30.5871 145.233 30.3182C145.574 30.0455 145.831 29.6761 146.006 29.2102C146.184 28.7443 146.273 28.2197 146.273 27.6364C146.273 27.0606 146.186 26.5436 146.011 26.0852C145.841 25.6269 145.583 25.2652 145.239 25C144.898 24.7348 144.472 24.6023 143.96 24.6023C143.468 24.6023 143.051 24.7292 142.71 24.983C142.373 25.2367 142.117 25.5909 141.943 26.0455C141.769 26.5 141.682 27.0303 141.682 27.6364ZM153.966 23.2727V24.6364H149.199V23.2727H153.966ZM150.477 21.1818H152.176V29.4375C152.176 29.767 152.225 30.0152 152.324 30.1818C152.422 30.3447 152.549 30.4564 152.705 30.517C152.864 30.5739 153.036 30.6023 153.222 30.6023C153.358 30.6023 153.477 30.5928 153.58 30.5739C153.682 30.5549 153.761 30.5398 153.818 30.5284L154.125 31.9318C154.027 31.9697 153.886 32.0076 153.705 32.0455C153.523 32.0871 153.295 32.1098 153.023 32.1136C152.576 32.1212 152.159 32.0417 151.773 31.875C151.386 31.7083 151.074 31.4508 150.835 31.1023C150.597 30.7538 150.477 30.3163 150.477 29.7898V21.1818ZM155.845 32V23.2727H157.544V32H155.845ZM156.703 21.9261C156.408 21.9261 156.154 21.8277 155.942 21.6307C155.733 21.4299 155.629 21.1913 155.629 20.9148C155.629 20.6345 155.733 20.3958 155.942 20.1989C156.154 19.9981 156.408 19.8977 156.703 19.8977C156.999 19.8977 157.25 19.9981 157.459 20.1989C157.671 20.3958 157.777 20.6345 157.777 20.9148C157.777 21.1913 157.671 21.4299 157.459 21.6307C157.25 21.8277 156.999 21.9261 156.703 21.9261ZM163.506 32.1761C162.688 32.1761 161.973 31.9886 161.364 31.6136C160.754 31.2386 160.28 30.714 159.943 30.0398C159.606 29.3655 159.438 28.5777 159.438 27.6761C159.438 26.7708 159.606 25.9792 159.943 25.3011C160.28 24.6231 160.754 24.0966 161.364 23.7216C161.973 23.3466 162.688 23.1591 163.506 23.1591C164.324 23.1591 165.038 23.3466 165.648 23.7216C166.258 24.0966 166.731 24.6231 167.068 25.3011C167.405 25.9792 167.574 26.7708 167.574 27.6761C167.574 28.5777 167.405 29.3655 167.068 30.0398C166.731 30.714 166.258 31.2386 165.648 31.6136C165.038 31.9886 164.324 32.1761 163.506 32.1761ZM163.511 30.75C164.042 30.75 164.481 30.6098 164.83 30.3295C165.178 30.0492 165.436 29.6761 165.602 29.2102C165.773 28.7443 165.858 28.2311 165.858 27.6705C165.858 27.1136 165.773 26.6023 165.602 26.1364C165.436 25.6667 165.178 25.2898 164.83 25.0057C164.481 24.7216 164.042 24.5795 163.511 24.5795C162.977 24.5795 162.534 24.7216 162.182 25.0057C161.833 25.2898 161.574 25.6667 161.403 26.1364C161.237 26.6023 161.153 27.1136 161.153 27.6705C161.153 28.2311 161.237 28.7443 161.403 29.2102C161.574 29.6761 161.833 30.0492 162.182 30.3295C162.534 30.6098 162.977 30.75 163.511 30.75ZM171.169 26.8182V32H169.47V23.2727H171.101V24.6932H171.209C171.41 24.2311 171.724 23.8598 172.152 23.5795C172.584 23.2992 173.127 23.1591 173.783 23.1591C174.377 23.1591 174.898 23.2841 175.345 23.5341C175.792 23.7803 176.139 24.1477 176.385 24.6364C176.631 25.125 176.754 25.7292 176.754 26.4489V32H175.055V26.6534C175.055 26.0208 174.891 25.5265 174.561 25.1705C174.232 24.8106 173.779 24.6307 173.203 24.6307C172.809 24.6307 172.459 24.7159 172.152 24.8864C171.849 25.0568 171.608 25.3068 171.43 25.6364C171.256 25.9621 171.169 26.3561 171.169 26.8182Z" fill="#181D27"/>
</g>
<path d="M308.667 122L299.5 131.167L295.333 127" stroke="#605E5E" stroke-width="1.66667" stroke-linecap="round" stroke-linejoin="round"/>
<defs>
<filter id="filter0_dd_8620_6563" x="0" y="56" width="344" height="170" filterUnits="userSpaceOnUse" color-interpolation-filters="sRGB">
<feFlood flood-opacity="0" result="BackgroundImageFix"/>
<feColorMatrix in="SourceAlpha" type="matrix" values="0 0 0 0 0 0 0 0 0 0 0 0 0 0 0 0 0 0 127 0" result="hardAlpha"/>
<feMorphology radius="2" operator="erode" in="SourceAlpha" result="effect1_dropShadow_8620_6563"/>
<feOffset dy="4"/>
<feGaussianBlur stdDeviation="3"/>
<feColorMatrix type="matrix" values="0 0 0 0 0.0392157 0 0 0 0 0.0496732 0 0 0 0 0.0705882 0 0 0 0.03 0"/>
<feBlend mode="normal" in2="BackgroundImageFix" result="effect1_dropShadow_8620_6563"/>
<feColorMatrix in="SourceAlpha" type="matrix" values="0 0 0 0 0 0 0 0 0 0 0 0 0 0 0 0 0 0 127 0" result="hardAlpha"/>
<feMorphology radius="4" operator="erode" in="SourceAlpha" result="effect2_dropShadow_8620_6563"/>
<feOffset dy="12"/>
<feGaussianBlur stdDeviation="8"/>
<feColorMatrix type="matrix" values="0 0 0 0 0.0392157 0 0 0 0 0.0496732 0 0 0 0 0.0705882 0 0 0 0.08 0"/>
<feBlend mode="normal" in2="effect1_dropShadow_8620_6563" result="effect2_dropShadow_8620_6563"/>
<feBlend mode="normal" in="SourceGraphic" in2="effect2_dropShadow_8620_6563" result="shape"/>
</filter>
<filter id="filter1_dd_8620_6563" x="8" y="0" width="328" height="52" filterUnits="userSpaceOnUse" color-interpolation-filters="sRGB">
<feFlood flood-opacity="0" result="BackgroundImageFix"/>
<feColorMatrix in="SourceAlpha" type="matrix" values="0 0 0 0 0 0 0 0 0 0 0 0 0 0 0 0 0 0 127 0" result="hardAlpha"/>
<feMorphology radius="4" operator="dilate" in="SourceAlpha" result="effect1_dropShadow_8620_6563"/>
<feOffset/>
<feColorMatrix type="matrix" values="0 0 0 0 0.956863 0 0 0 0 0.921569 0 0 0 0 1 0 0 0 1 0"/>
<feBlend mode="normal" in2="BackgroundImageFix" result="effect1_dropShadow_8620_6563"/>
<feColorMatrix in="SourceAlpha" type="matrix" values="0 0 0 0 0 0 0 0 0 0 0 0 0 0 0 0 0 0 127 0" result="hardAlpha"/>
<feOffset dy="1"/>
<feGaussianBlur stdDeviation="1"/>
<feColorMatrix type="matrix" values="0 0 0 0 0.0392157 0 0 0 0 0.0496732 0 0 0 0 0.0705882 0 0 0 0.05 0"/>
<feBlend mode="normal" in2="effect1_dropShadow_8620_6563" result="effect2_dropShadow_8620_6563"/>
<feBlend mode="normal" in="SourceGraphic" in2="effect2_dropShadow_8620_6563" result="shape"/>
</filter>
</defs>
</svg>
