<svg width="29" height="29" viewBox="0 0 29 29" fill="none" xmlns="http://www.w3.org/2000/svg">
<mask id="mask0_2511_1394" style="mask-type:luminance" maskUnits="userSpaceOnUse" x="4" y="4" width="21" height="21">
<path d="M10.245 4.5H18.525L24.385 10.36V18.64L18.525 24.5H10.245L4.38501 18.64V10.36L10.245 4.5Z" fill="white"/>
<path d="M15.385 18.5C15.385 19.0523 14.9373 19.5 14.385 19.5C13.8327 19.5 13.385 19.0523 13.385 18.5C13.385 17.9477 13.8327 17.5 14.385 17.5C14.9373 17.5 15.385 17.9477 15.385 18.5Z" fill="white"/>
</mask>
<g mask="url(#mask0_2511_1394)">
<path d="M14.885 10.5C14.885 10.2239 14.6612 10 14.385 10C14.1089 10 13.885 10.2239 13.885 10.5H14.885ZM13.885 14.5C13.885 14.7761 14.1089 15 14.385 15C14.6612 15 14.885 14.7761 14.885 14.5H13.885ZM13.885 10.5V14.5H14.885V10.5H13.885ZM10.245 4.5V3.5C9.97979 3.5 9.72544 3.60536 9.5379 3.79289L10.245 4.5ZM18.525 4.5L19.2321 3.79289C19.0446 3.60536 18.7902 3.5 18.525 3.5V4.5ZM24.385 10.36H25.385C25.385 10.0948 25.2797 9.84043 25.0921 9.65289L24.385 10.36ZM24.385 18.64L25.0921 19.3471C25.2797 19.1596 25.385 18.9052 25.385 18.64H24.385ZM18.525 24.5V25.5C18.7902 25.5 19.0446 25.3946 19.2321 25.2071L18.525 24.5ZM10.245 24.5L9.5379 25.2071C9.72544 25.3946 9.97979 25.5 10.245 25.5V24.5ZM4.38501 18.64H3.38501C3.38501 18.9052 3.49037 19.1596 3.6779 19.3471L4.38501 18.64ZM4.38501 10.36L3.6779 9.65289C3.49037 9.84043 3.38501 10.0948 3.38501 10.36H4.38501ZM10.245 5.5H18.525V3.5H10.245V5.5ZM17.8179 5.20711L23.6779 11.0671L25.0921 9.65289L19.2321 3.79289L17.8179 5.20711ZM23.385 10.36V18.64H25.385V10.36H23.385ZM23.6779 17.9329L17.8179 23.7929L19.2321 25.2071L25.0921 19.3471L23.6779 17.9329ZM18.525 23.5H10.245V25.5H18.525V23.5ZM10.9521 23.7929L5.09212 17.9329L3.6779 19.3471L9.5379 25.2071L10.9521 23.7929ZM5.38501 18.64V10.36H3.38501V18.64H5.38501ZM5.09212 11.0671L10.9521 5.20711L9.5379 3.79289L3.6779 9.65289L5.09212 11.0671ZM14.385 18.5V20.5C15.4896 20.5 16.385 19.6046 16.385 18.5H14.385ZM14.385 18.5H12.385C12.385 19.6046 13.2804 20.5 14.385 20.5V18.5ZM14.385 18.5V16.5C13.2804 16.5 12.385 17.3954 12.385 18.5H14.385ZM14.385 18.5H16.385C16.385 17.3954 15.4896 16.5 14.385 16.5V18.5Z" fill="#999999"/>
</g>
</svg>
