<svg width="29" height="29" viewBox="0 0 29 29" fill="none" xmlns="http://www.w3.org/2000/svg">
<mask id="mask0_2511_1400" style="mask-type:luminance" maskUnits="userSpaceOnUse" x="3" y="5" width="22" height="19">
<path d="M12.675 6.3602L4.20503 20.5002C4.0304 20.8026 3.938 21.1455 3.93702 21.4947C3.93604 21.8439 4.02652 22.1873 4.19946 22.4907C4.37239 22.7941 4.62176 23.0469 4.92274 23.224C5.22372 23.4011 5.56583 23.4963 5.91503 23.5002H22.855C23.2042 23.4963 23.5463 23.4011 23.8473 23.224C24.1483 23.0469 24.3977 22.7941 24.5706 22.4907C24.7435 22.1873 24.834 21.8439 24.833 21.4947C24.8321 21.1455 24.7397 20.8026 24.565 20.5002L16.095 6.3602C15.9168 6.06631 15.6658 5.82332 15.3662 5.65468C15.0667 5.48605 14.7288 5.39746 14.385 5.39746C14.0413 5.39746 13.7034 5.48605 13.4038 5.65468C13.1043 5.82332 12.8533 6.06631 12.675 6.3602Z" fill="white"/>
<path d="M15.385 19.5C15.385 20.0523 14.9373 20.5 14.385 20.5C13.8327 20.5 13.385 20.0523 13.385 19.5C13.385 18.9477 13.8327 18.5 14.385 18.5C14.9373 18.5 15.385 18.9477 15.385 19.5Z" fill="white"/>
</mask>
<g mask="url(#mask0_2511_1400)">
<path d="M14.885 11.5002C14.885 11.224 14.6612 11.0002 14.385 11.0002C14.1089 11.0002 13.885 11.224 13.885 11.5002H14.885ZM13.885 15.5002C13.885 15.7763 14.1089 16.0002 14.385 16.0002C14.6612 16.0002 14.885 15.7763 14.885 15.5002H13.885ZM13.885 11.5002V15.5002H14.885V11.5002H13.885ZM12.675 6.3602L11.82 5.84156L11.8172 5.84633L12.675 6.3602ZM4.20503 20.5002L3.34716 19.9863C3.34442 19.9909 3.34171 19.9955 3.33904 20.0001L4.20503 20.5002ZM5.91503 23.5002L5.90404 24.5002H5.91503V23.5002ZM22.855 23.5002V24.5002L22.866 24.5001L22.855 23.5002ZM24.565 20.5002L25.431 20.0001C25.4284 19.9955 25.4256 19.9909 25.4229 19.9863L24.565 20.5002ZM16.095 6.3602L16.9529 5.84632L16.95 5.84157L16.095 6.3602ZM11.8172 5.84633L3.34716 19.9863L5.0629 21.014L13.5329 6.87407L11.8172 5.84633ZM3.33904 20.0001C3.07709 20.4537 2.93849 20.968 2.93702 21.4919L4.93702 21.4975C4.9375 21.3229 4.9837 21.1514 5.07102 21.0002L3.33904 20.0001ZM2.93702 21.4919C2.93556 22.0157 3.07128 22.5308 3.33068 22.9859L5.06823 21.9955C4.98177 21.8438 4.93653 21.6721 4.93702 21.4975L2.93702 21.4919ZM3.33068 22.9859C3.59008 23.441 3.96413 23.8202 4.4156 24.0859L5.42988 22.3621C5.27938 22.2736 5.1547 22.1472 5.06823 21.9955L3.33068 22.9859ZM4.4156 24.0859C4.86707 24.3515 5.38024 24.4944 5.90404 24.5002L5.92602 22.5002C5.75142 22.4983 5.58037 22.4507 5.42988 22.3621L4.4156 24.0859ZM5.91503 24.5002H22.855V22.5002H5.91503V24.5002ZM22.866 24.5001C23.3898 24.4943 23.903 24.3515 24.3545 24.0859L23.3402 22.3621C23.1897 22.4507 23.0186 22.4983 22.844 22.5002L22.866 24.5001ZM24.3545 24.0859C24.8059 23.8202 25.18 23.441 25.4394 22.9859L23.7018 21.9955C23.6154 22.1472 23.4907 22.2736 23.3402 22.3621L24.3545 24.0859ZM25.4394 22.9859C25.6988 22.5308 25.8345 22.0157 25.833 21.4919L23.833 21.4975C23.8335 21.6721 23.7883 21.8438 23.7018 21.9955L25.4394 22.9859ZM25.833 21.4919C25.8316 20.968 25.693 20.4537 25.431 20.0001L23.699 21.0002C23.7864 21.1514 23.8326 21.3229 23.833 21.4975L25.833 21.4919ZM25.4229 19.9863L16.9529 5.84632L15.2372 6.87407L23.7072 21.014L25.4229 19.9863ZM16.95 5.84157C16.6826 5.40073 16.3061 5.03625 15.8568 4.7833L14.8756 6.52607C15.0254 6.61039 15.1509 6.73188 15.24 6.87883L16.95 5.84157ZM15.8568 4.7833C15.4075 4.53034 14.9006 4.39746 14.385 4.39746V6.39746C14.5569 6.39746 14.7259 6.44175 14.8756 6.52607L15.8568 4.7833ZM14.385 4.39746C13.8694 4.39746 13.3625 4.53034 12.9132 4.7833L13.8944 6.52607C14.0442 6.44175 14.2132 6.39746 14.385 6.39746V4.39746ZM12.9132 4.7833C12.4639 5.03625 12.0874 5.40072 11.82 5.84156L13.53 6.87883C13.6192 6.73188 13.7447 6.61039 13.8944 6.52607L12.9132 4.7833ZM14.385 19.5002V21.5002C15.4896 21.5002 16.385 20.6048 16.385 19.5002H14.385ZM14.385 19.5002H12.385C12.385 20.6048 13.2804 21.5002 14.385 21.5002V19.5002ZM14.385 19.5002V17.5002C13.2804 17.5002 12.385 18.3956 12.385 19.5002H14.385ZM14.385 19.5002H16.385C16.385 18.3956 15.4896 17.5002 14.385 17.5002V19.5002Z" fill="#999999"/>
</g>
</svg>
