<svg width="29" height="30" viewBox="0 0 29 30" fill="none" xmlns="http://www.w3.org/2000/svg">
<path d="M14.1447 10.9068C15.8015 10.9068 17.1447 9.56359 17.1447 7.90674C17.1447 6.24989 15.8015 4.90674 14.1447 4.90674C12.4878 4.90674 11.1447 6.24989 11.1447 7.90674C11.1447 9.56359 12.4878 10.9068 14.1447 10.9068ZM14.1447 10.9068V24.9068M14.1447 24.9068C11.4925 24.9068 8.94895 23.8532 7.07359 21.9778C5.19822 20.1025 4.14465 17.5589 4.14465 14.9068H7.14465M14.1447 24.9068C16.7968 24.9068 19.3404 23.8532 21.2157 21.9778C23.0911 20.1025 24.1447 17.5589 24.1447 14.9068H21.1447" stroke="#999999" stroke-linecap="round" stroke-linejoin="round"/>
</svg>
