<svg width="29" height="29" viewBox="0 0 29 29" fill="none" xmlns="http://www.w3.org/2000/svg">
<path d="M18.1447 10.4994V15.4994C18.1447 16.295 18.4607 17.0581 19.0233 17.6207C19.586 18.1833 20.349 18.4994 21.1447 18.4994C21.9403 18.4994 22.7034 18.1833 23.266 17.6207C23.8286 17.0581 24.1447 16.295 24.1447 15.4994V14.4994C24.1445 12.2424 23.3809 10.0519 21.9779 8.28391C20.575 6.51596 18.6152 5.2746 16.4173 4.76168C14.2194 4.24875 11.9126 4.49442 9.87201 5.45875C7.83142 6.42307 6.17706 8.04933 5.17792 10.0731C4.17878 12.0969 3.89363 14.3991 4.36883 16.6055C4.84403 18.8119 6.05164 20.7926 7.79529 22.2256C9.53895 23.6587 11.7161 24.4597 13.9727 24.4985C16.2294 24.5373 18.4328 23.8116 20.2247 22.4394M18.1447 14.4994C18.1447 16.7085 16.3538 18.4994 14.1447 18.4994C11.9355 18.4994 10.1447 16.7085 10.1447 14.4994C10.1447 12.2902 11.9355 10.4994 14.1447 10.4994C16.3538 10.4994 18.1447 12.2902 18.1447 14.4994Z" stroke="#999999" stroke-linecap="round" stroke-linejoin="round"/>
</svg>
