<svg width="28" height="30" viewBox="0 0 28 30" fill="none" xmlns="http://www.w3.org/2000/svg">
<path d="M13.9998 2.30908C10.9133 2.30908 8.39982 4.82251 8.39982 7.90908V9.02908C8.39764 9.23033 8.50264 9.41845 8.67764 9.52126C8.85264 9.62189 9.06701 9.62189 9.24201 9.52126C9.41701 9.41845 9.52201 9.23033 9.51982 9.02908V7.90908C9.51982 5.42845 11.5192 3.42908 13.9998 3.42908C16.4804 3.42908 18.4798 5.42845 18.4798 7.90908V9.02908C18.4776 9.23033 18.5826 9.41845 18.7576 9.52126C18.9326 9.62189 19.147 9.62189 19.322 9.52126C19.497 9.41845 19.602 9.23033 19.5998 9.02908V7.90908C19.5998 4.82251 17.0864 2.30908 13.9998 2.30908ZM8.95982 10.1491C8.34076 10.1491 7.83982 10.65 7.83982 11.269H5.03982C5.02232 11.269 5.00482 11.269 4.98732 11.269C4.7467 11.2931 4.54982 11.4703 4.49732 11.7065L2.81732 19.109C2.76045 19.3912 2.9267 19.6712 3.20232 19.7565C3.20232 19.7565 3.28326 19.7718 3.28982 19.774L2.23982 26.8615C2.21357 27.0256 2.2617 27.1897 2.36889 27.3143C2.47826 27.4412 2.63576 27.5112 2.79982 27.509H4.47982V28.069H6.15982V27.509H21.8398V28.069H23.5198V27.509H25.1998C25.3639 27.5112 25.5214 27.4412 25.6308 27.3143C25.738 27.1897 25.7861 27.0256 25.7598 26.8615L24.7098 19.774C24.7164 19.7718 24.7973 19.7565 24.7973 19.7565C25.073 19.6712 25.2392 19.3912 25.1823 19.109L23.5023 11.7065C23.4455 11.4528 23.2201 11.2712 22.9598 11.269H20.1598C20.1598 10.65 19.6589 10.1491 19.0398 10.1491C18.4208 10.1491 17.9198 10.65 17.9198 11.269H10.0798C10.0798 10.65 9.57889 10.1491 8.95982 10.1491ZM5.47732 12.389H22.5223L23.9748 18.8115C23.2683 19.0193 19.0442 20.229 13.9998 20.229C9.14795 20.229 5.13389 19.1353 4.19982 18.864C4.17795 18.8509 4.15389 18.84 4.12982 18.829C4.11451 18.8247 4.05545 18.8159 4.04232 18.8115C4.03576 18.8115 4.03139 18.8115 4.02482 18.8115L5.47732 12.389ZM4.37482 20.0715C5.9542 20.474 8.97514 21.1456 12.4248 21.314C12.6479 21.979 13.2604 22.469 13.9998 22.469C14.7392 22.469 15.3517 21.979 15.5748 21.314C19.0136 21.1478 22.0236 20.4762 23.6073 20.0715L24.5523 26.389H3.44732L4.37482 20.0715Z" fill="#999999"/>
</svg>
