<svg width="28" height="30" viewBox="0 0 28 30" fill="none" xmlns="http://www.w3.org/2000/svg">
<path d="M14 2.36133C12.46 2.36133 11.2 3.62133 11.2 5.16133C11.2 6.06695 11.6485 6.87195 12.32 7.38383C11.9307 7.61789 11.5435 7.91758 11.1475 8.25883C10.1807 9.09227 9.19192 10.2123 8.29504 11.4788C6.50348 14.0098 5.04004 17.0438 5.04004 19.4413V23.1863C4.76223 23.2782 4.49536 23.3854 4.28754 23.5888C4.06004 23.8098 3.92004 24.1488 3.92004 24.4813V26.5638C3.92004 26.612 3.92661 26.6579 3.93754 26.7038C4.03598 27.0495 4.35317 27.3754 4.74254 27.5438C5.13192 27.7123 5.62192 27.8041 6.33504 27.8763C7.75911 28.0207 10.0757 28.0688 14 28.0688C17.9157 28.0688 20.276 28.1082 21.735 27.9988C22.4635 27.9441 22.9775 27.8741 23.3975 27.6488C23.8175 27.4235 24.08 26.9204 24.08 26.4938V24.4813C24.08 24.1445 23.9269 23.8098 23.695 23.5888C23.4741 23.3766 23.2029 23.2607 22.9075 23.1688C22.9163 22.3507 22.96 19.892 22.96 19.4413C22.96 17.0438 21.4966 14.0098 19.705 11.4788C18.8082 10.2123 17.8194 9.09227 16.8525 8.25883C16.4566 7.91758 16.0694 7.61789 15.68 7.38383C16.3516 6.87195 16.8 6.06695 16.8 5.16133C16.8 3.62133 15.54 2.36133 14 2.36133ZM14 3.48133C14.9341 3.48133 15.68 4.22727 15.68 5.16133C15.68 6.09539 14.9341 6.84133 14 6.84133C13.066 6.84133 12.32 6.09539 12.32 5.16133C12.32 4.22727 13.066 3.48133 14 3.48133ZM14 7.96133C14.4419 7.96133 15.2644 8.34852 16.135 9.09883C17.0057 9.84914 17.9419 10.921 18.795 12.1263C20.5035 14.537 21.84 17.5273 21.84 19.4413C21.84 19.787 21.7985 21.9504 21.7875 22.9588C21.4179 22.9216 21.0154 22.8954 20.58 22.8888C18.7579 22.8604 16.3822 23.0288 14 23.0288C11.561 23.0288 9.19192 22.8604 7.38504 22.8888C6.93879 22.8954 6.53411 22.9195 6.16004 22.9588V19.4413C6.16004 17.5273 7.49661 14.537 9.20504 12.1263C10.0582 10.921 10.9944 9.84914 11.865 9.09883C12.7357 8.34852 13.5582 7.96133 14 7.96133ZM7.40254 24.0088C9.12192 23.9826 11.5107 24.1488 14 24.1488C16.4347 24.1488 18.8279 23.9826 20.5625 24.0088C21.431 24.022 22.1266 24.092 22.54 24.2188C22.7479 24.2823 22.8791 24.3501 22.925 24.3938C22.971 24.4376 22.96 24.4245 22.96 24.4813V26.4938C22.96 26.6535 23.0125 26.5945 22.8725 26.6688C22.7325 26.7432 22.3366 26.8285 21.665 26.8788C20.3241 26.9795 17.9244 26.9488 14 26.9488C10.0844 26.9488 7.75911 26.9095 6.44004 26.7738C5.77942 26.706 5.37254 26.612 5.18004 26.5288C5.01161 26.4566 5.04442 26.4545 5.04004 26.4238V24.4813C5.04004 24.4223 5.03129 24.4354 5.07504 24.3938C5.11879 24.3523 5.24129 24.2823 5.44254 24.2188C5.84504 24.0941 6.54286 24.022 7.40254 24.0088Z" fill="#999999"/>
</svg>
