<svg width="29" height="29" viewBox="0 0 29 29" fill="none" xmlns="http://www.w3.org/2000/svg">
<path d="M14.385 5.5C12.5285 5.5 10.748 6.2375 9.43526 7.55025C8.12251 8.86301 7.38501 10.6435 7.38501 12.5V17.5C7.38501 18.2956 7.06894 19.0587 6.50633 19.6213C5.94372 20.1839 5.18066 20.5 4.38501 20.5H24.385C23.5894 20.5 22.8263 20.1839 22.2637 19.6213C21.7011 19.0587 21.385 18.2956 21.385 17.5V12.5C21.385 10.6435 20.6475 8.86301 19.3348 7.55025C18.022 6.2375 16.2415 5.5 14.385 5.5ZM14.385 5.5V2.5M16.115 24.5C15.9392 24.8031 15.6869 25.0547 15.3832 25.2295C15.0796 25.4044 14.7354 25.4965 14.385 25.4965C14.0346 25.4965 13.6904 25.4044 13.3868 25.2295C13.0832 25.0547 12.8308 24.8031 12.655 24.5" stroke="#999999" stroke-linecap="round" stroke-linejoin="round"/>
</svg>
