<svg width="29" height="30" viewBox="0 0 29 30" fill="none" xmlns="http://www.w3.org/2000/svg">
<path d="M20.5912 21.371C20.5912 22.796 19.4287 23.996 17.9662 23.996H10.8037C9.37871 23.996 8.17871 22.796 8.17871 21.371V8.62109C8.17871 7.19609 9.37871 5.99609 10.8037 5.99609H17.9662C19.4287 5.99609 20.5912 7.19609 20.5912 8.62109V21.371Z" stroke="#999999" stroke-miterlimit="10"/>
<path d="M18.8287 7.9458H9.94116V11.2083H18.8287V7.9458Z" stroke="#999999" stroke-miterlimit="10"/>
<path d="M11.7412 13.3833H9.94116V15.1083H11.7412V13.3833Z" stroke="#999999" stroke-miterlimit="10"/>
<path d="M15.3037 13.3833H13.5037V15.1083H15.3037V13.3833Z" stroke="#999999" stroke-miterlimit="10"/>
<path d="M18.8288 13.3833H17.0288V15.1083H18.8288V13.3833Z" stroke="#999999" stroke-miterlimit="10"/>
<path d="M11.7412 16.4956H9.94116V18.2206H11.7412V16.4956Z" stroke="#999999" stroke-miterlimit="10"/>
<path d="M15.3037 16.4956H13.5037V18.2206H15.3037V16.4956Z" stroke="#999999" stroke-miterlimit="10"/>
<path d="M18.8288 16.4956H17.0288V18.2206H18.8288V16.4956Z" stroke="#999999" stroke-miterlimit="10"/>
<path d="M11.7412 19.5708H9.94116V21.2958H11.7412V19.5708Z" stroke="#999999" stroke-miterlimit="10"/>
<path d="M15.3037 19.5708H13.5037V21.2958H15.3037V19.5708Z" stroke="#999999" stroke-miterlimit="10"/>
<path d="M18.8288 19.5708H17.0288V21.2958H18.8288V19.5708Z" stroke="#999999" stroke-miterlimit="10"/>
</svg>
