<svg width="29" height="30" viewBox="0 0 29 30" fill="none" xmlns="http://www.w3.org/2000/svg">
<path d="M14.8882 9.90674C14.8882 8.84587 14.4668 7.82846 13.7166 7.07831C12.9665 6.32817 11.949 5.90674 10.8882 5.90674H4.88818V20.9068H11.8882C12.6838 20.9068 13.4469 21.2228 14.0095 21.7854C14.5721 22.348 14.8882 23.1111 14.8882 23.9068M14.8882 9.90674V23.9068M14.8882 9.90674C14.8882 8.84587 15.3096 7.82846 16.0598 7.07831C16.8099 6.32817 17.8273 5.90674 18.8882 5.90674H24.8882V20.9068H17.8882C17.0925 20.9068 16.3295 21.2228 15.7669 21.7854C15.2043 22.348 14.8882 23.1111 14.8882 23.9068" stroke="#999999" stroke-linecap="round" stroke-linejoin="round"/>
</svg>
