<svg width="29" height="30" viewBox="0 0 29 30" fill="none" xmlns="http://www.w3.org/2000/svg">
<path d="M4.64465 8.90674L14.1447 13.4068L23.6447 8.90674M14.1447 25.4258V13.6658M15.0347 4.11568L23.0347 8.11568C23.3679 8.28126 23.6483 8.5365 23.8444 8.85272C24.0405 9.16894 24.1445 9.53359 24.1447 9.90568V19.4357C24.1445 19.8078 24.0405 20.1724 23.8444 20.4887C23.6483 20.8049 23.3679 21.0601 23.0347 21.2257L15.0347 25.2257C14.7568 25.3647 14.4504 25.4371 14.1397 25.4371C13.829 25.4371 13.5226 25.3647 13.2447 25.2257L5.2447 21.2257C4.91183 21.058 4.63245 20.8006 4.43809 20.4825C4.24373 20.1645 4.14211 19.7984 4.1447 19.4257V9.90568C4.1449 9.53359 4.24889 9.16894 4.44498 8.85272C4.64107 8.5365 4.92149 8.28126 5.2547 8.11568L13.2547 4.11568C13.5313 3.97825 13.8359 3.90674 14.1447 3.90674C14.4535 3.90674 14.7581 3.97825 15.0347 4.11568Z" stroke="#999999" stroke-linecap="round" stroke-linejoin="round"/>
</svg>
