<svg width="28" height="30" viewBox="0 0 28 30" fill="none" xmlns="http://www.w3.org/2000/svg">
<path d="M25.9351 4.56656C25.9045 4.57094 25.8761 4.57531 25.8476 4.58406C25.793 4.58844 25.7405 4.59938 25.6901 4.61906C24.8676 4.91875 24.4192 5.70844 24.1851 6.57906C23.9511 7.44969 23.903 8.46688 23.9401 9.53656C24.0036 11.4113 24.3142 13.3144 24.5351 14.6466C20.1383 14.7494 17.8086 15.83 16.4151 16.9566C15.6845 17.5472 15.2098 18.1466 14.8401 18.5316C14.4704 18.9166 14.2801 19.0391 14.0001 19.0391C13.7201 19.0391 13.5933 18.9319 13.2651 18.5491C12.937 18.1663 12.5148 17.5735 11.8126 16.9741C10.4717 15.8322 8.12232 14.745 3.46514 14.6466C3.68607 13.3144 3.9967 11.4113 4.06014 9.53656C4.09732 8.46688 4.0492 7.44969 3.81514 6.57906C3.58107 5.70844 3.13264 4.91875 2.31014 4.61906C2.23795 4.59281 2.1592 4.57969 2.08264 4.58406C1.79607 4.57313 1.54888 4.78094 1.50951 5.06531C1.46795 5.3475 1.64732 5.61656 1.92514 5.68656C2.28826 5.82 2.54639 6.17219 2.73014 6.85906C2.91389 7.54594 2.97514 8.49313 2.94014 9.50156C2.87014 11.5184 2.45232 13.7934 2.24014 15.1016C2.24014 15.1191 2.24014 15.1366 2.24014 15.1541C2.24014 15.1716 2.24014 15.1891 2.24014 15.2066C2.06076 16.145 1.68014 17.8163 1.68014 20.2291C1.68014 21.5744 2.12639 22.9722 3.09764 24.0441C4.06889 25.1159 5.56295 25.8291 7.54264 25.8291C9.79795 25.8291 10.9595 24.8294 11.7251 23.9566C12.1079 23.5191 12.4098 23.1275 12.7401 22.8716C13.0704 22.6156 13.4117 22.4691 14.0001 22.4691C14.5886 22.4691 14.9692 22.6244 15.3476 22.8891C15.7261 23.1538 16.0914 23.5453 16.5026 23.9741C17.3273 24.8316 18.4605 25.8291 20.4576 25.8291C22.4373 25.8291 23.9314 25.1159 24.9026 24.0441C25.8739 22.9722 26.3201 21.5744 26.3201 20.2291C26.3201 17.8031 25.9373 16.1253 25.7601 15.1891C25.7623 15.1606 25.7623 15.13 25.7601 15.1016C25.548 13.7934 25.1301 11.5184 25.0601 9.50156C25.0251 8.49313 25.0864 7.54594 25.2701 6.85906C25.4539 6.17219 25.712 5.82 26.0751 5.68656C26.3836 5.64719 26.6045 5.365 26.5651 5.05656C26.5258 4.74813 26.2436 4.52719 25.9351 4.56656ZM3.25514 15.7666C7.84889 15.8366 9.93357 16.8406 11.0776 17.8141C11.6704 18.3194 12.027 18.84 12.4076 19.2841C12.7883 19.7281 13.3001 20.1591 14.0001 20.1591C14.7001 20.1591 15.2186 19.7435 15.6451 19.3016C16.0717 18.8597 16.4808 18.3435 17.1151 17.8316C18.3358 16.845 20.4248 15.8584 24.7451 15.7841C24.9376 16.7728 25.2001 18.1444 25.2001 20.2291C25.2001 21.3294 24.8392 22.4538 24.0801 23.2916C23.3211 24.1294 22.1748 24.7091 20.4576 24.7091C18.8039 24.7091 18.0973 24.0266 17.3076 23.2041C16.9139 22.7928 16.5179 22.3444 15.9951 21.9791C15.4723 21.6138 14.8117 21.3491 14.0001 21.3491C13.1886 21.3491 12.5411 21.6225 12.0576 21.9966C11.5742 22.3706 11.2395 22.8191 10.8851 23.2216C10.1786 24.0288 9.50045 24.7091 7.54264 24.7091C5.82545 24.7091 4.6792 24.1294 3.92014 23.2916C3.16107 22.4538 2.80014 21.3294 2.80014 20.2291C2.80014 18.1335 3.06264 16.7553 3.25514 15.7666Z" fill="#999999"/>
</svg>
