<svg width="29" height="30" viewBox="0 0 29 30" fill="none" xmlns="http://www.w3.org/2000/svg">
<path d="M3.38501 3.90674L25.385 25.9068M17.665 18.1868C17.3331 18.6718 16.8984 19.0778 16.3918 19.3757C15.8852 19.6737 15.3192 19.8564 14.734 19.9108C14.1487 19.9651 13.5587 19.8899 13.0059 19.6904C12.4531 19.4908 11.951 19.1719 11.5354 18.7563C11.1198 18.3408 10.8009 17.8387 10.6014 17.2859C10.4019 16.733 10.3266 16.143 10.381 15.5578C10.4354 14.9726 10.6181 14.4066 10.916 13.9C11.214 13.3934 11.62 12.9587 12.105 12.6268M23.385 23.9068H5.38501C4.85458 23.9068 4.34587 23.696 3.9708 23.321C3.59572 22.9459 3.38501 22.4372 3.38501 21.9068V10.9068C3.38501 10.3763 3.59572 9.8676 3.9708 9.49253C4.34587 9.11745 4.85458 8.90674 5.38501 8.90674H8.38501L23.385 23.9068ZM11.385 5.90674H17.385L19.385 8.90674H23.385C23.9154 8.90674 24.4242 9.11745 24.7992 9.49253C25.1743 9.8676 25.385 10.3763 25.385 10.9068V20.2468L11.385 5.90674Z" stroke="#999999" stroke-linecap="round" stroke-linejoin="round"/>
</svg>
