<svg width="29" height="30" viewBox="0 0 29 30" fill="none" xmlns="http://www.w3.org/2000/svg">
<mask id="mask0_2511_1511" style="mask-type:luminance" maskUnits="userSpaceOnUse" x="3" y="5" width="22" height="18">
<path d="M4.14465 9.90674V7.90674C4.14465 7.37631 4.35537 6.8676 4.73044 6.49253C5.10551 6.11745 5.61422 5.90674 6.14465 5.90674H22.1447C22.6751 5.90674 23.1838 6.11745 23.5589 6.49253C23.9339 6.8676 24.1447 7.37631 24.1447 7.90674V19.9068C24.1447 20.4372 23.9339 20.9459 23.5589 21.321C23.1838 21.696 22.6751 21.9068 22.1447 21.9068H16.1447" fill="white"/>
<path d="M5.14465 21.9067C5.14465 22.4589 4.69694 22.9067 4.14465 22.9067C3.59237 22.9067 3.14465 22.4589 3.14465 21.9067C3.14465 21.3544 3.59237 20.9067 4.14465 20.9067C4.69694 20.9067 5.14465 21.3544 5.14465 21.9067Z" fill="white"/>
</mask>
<g mask="url(#mask0_2511_1511)">
<path d="M4.24457 17.5168C3.974 17.4617 3.70992 17.6363 3.65474 17.9068C3.59956 18.1774 3.77417 18.4415 4.04474 18.4967L4.24457 17.5168ZM7.55474 22.0067C7.60992 22.2772 7.874 22.4519 8.14457 22.3967C8.41514 22.3415 8.58975 22.0774 8.53457 21.8068L7.55474 22.0067ZM4.19992 13.4598C3.92547 13.4293 3.67824 13.627 3.64772 13.9015C3.61719 14.1759 3.81493 14.4232 4.08938 14.4537L4.19992 13.4598ZM11.5977 21.962C11.6282 22.2365 11.8755 22.4342 12.1499 22.4037C12.4244 22.3732 12.6221 22.1259 12.5916 21.8515L11.5977 21.962ZM4.04474 18.4967C4.90954 18.673 5.70339 19.0998 6.32748 19.7239L7.03459 19.0168C6.2718 18.254 5.30155 17.7324 4.24457 17.5168L4.04474 18.4967ZM6.32748 19.7239C6.95158 20.348 7.37837 21.1419 7.55474 22.0067L8.53457 21.8068C8.319 20.7499 7.79737 19.7796 7.03459 19.0168L6.32748 19.7239ZM4.08938 14.4537C6.00735 14.667 7.79564 15.5266 9.16021 16.8912L9.86732 16.1841C8.34221 14.659 6.34353 13.6982 4.19992 13.4598L4.08938 14.4537ZM9.16021 16.8912C10.5248 18.2558 11.3844 20.0441 11.5977 21.962L12.5916 21.8515C12.3532 19.7079 11.3924 17.7092 9.86732 16.1841L9.16021 16.8912ZM3.14465 9.90674C3.14465 10.459 3.59237 10.9068 4.14465 10.9068C4.69694 10.9068 5.14465 10.459 5.14465 9.90674H3.14465ZM16.1447 20.9068C15.5924 20.9068 15.1447 21.3545 15.1447 21.9068C15.1447 22.459 15.5924 22.9068 16.1447 22.9068V20.9068ZM5.14465 9.90674V7.90674H3.14465V9.90674H5.14465ZM5.14465 7.90674C5.14465 7.64152 5.25001 7.38717 5.43755 7.19963L4.02333 5.78542C3.46072 6.34803 3.14465 7.11109 3.14465 7.90674H5.14465ZM5.43755 7.19963C5.62508 7.0121 5.87944 6.90674 6.14465 6.90674V4.90674C5.349 4.90674 4.58594 5.22281 4.02333 5.78542L5.43755 7.19963ZM6.14465 6.90674H22.1447V4.90674H6.14465V6.90674ZM22.1447 6.90674C22.4099 6.90674 22.6642 7.0121 22.8518 7.19963L24.266 5.78542C23.7034 5.22281 22.9403 4.90674 22.1447 4.90674V6.90674ZM22.8518 7.19963C23.0393 7.38717 23.1447 7.64152 23.1447 7.90674H25.1447C25.1447 7.11109 24.8286 6.34803 24.266 5.78542L22.8518 7.19963ZM23.1447 7.90674V19.9068H25.1447V7.90674H23.1447ZM23.1447 19.9068C23.1447 20.172 23.0393 20.4263 22.8518 20.6139L24.266 22.0281C24.8286 21.4655 25.1447 20.7024 25.1447 19.9068H23.1447ZM22.8518 20.6139C22.6642 20.8014 22.4099 20.9068 22.1447 20.9068V22.9068C22.9403 22.9068 23.7034 22.5907 24.266 22.0281L22.8518 20.6139ZM22.1447 20.9068H16.1447V22.9068H22.1447V20.9068ZM4.14465 21.9068V23.9068C5.24922 23.9068 6.14465 23.0113 6.14465 21.9068H4.14465ZM4.14465 21.9068H2.14465C2.14465 23.0113 3.04008 23.9068 4.14465 23.9068V21.9068ZM4.14465 21.9068V19.9068C3.04008 19.9068 2.14465 20.8022 2.14465 21.9068H4.14465ZM4.14465 21.9068H6.14465C6.14465 20.8022 5.24922 19.9068 4.14465 19.9068V21.9068Z" fill="#999999"/>
</g>
</svg>
