<svg width="29" height="30" viewBox="0 0 29 30" fill="none" xmlns="http://www.w3.org/2000/svg">
<path d="M18.8882 6.90674H20.8882C21.4186 6.90674 21.9273 7.11745 22.3024 7.49253C22.6775 7.8676 22.8882 8.37631 22.8882 8.90674V22.9068C22.8882 23.4372 22.6775 23.9459 22.3024 24.321C21.9273 24.696 21.4186 24.9068 20.8882 24.9068H8.88818C8.35775 24.9068 7.84904 24.696 7.47397 24.321C7.0989 23.9459 6.88818 23.4372 6.88818 22.9068V8.90674C6.88818 8.37631 7.0989 7.8676 7.47397 7.49253C7.84904 7.11745 8.35775 6.90674 8.88818 6.90674H10.8882M11.8882 4.90674H17.8882C18.4405 4.90674 18.8882 5.35446 18.8882 5.90674V7.90674C18.8882 8.45903 18.4405 8.90674 17.8882 8.90674H11.8882C11.3359 8.90674 10.8882 8.45903 10.8882 7.90674V5.90674C10.8882 5.35446 11.3359 4.90674 11.8882 4.90674Z" stroke="#999999" stroke-linecap="round" stroke-linejoin="round"/>
</svg>
