<svg width="28" height="30" viewBox="0 0 28 30" fill="none" xmlns="http://www.w3.org/2000/svg">
<g clip-path="url(#clip0_2511_1547)">
<mask id="mask0_2511_1547" style="mask-type:luminance" maskUnits="userSpaceOnUse" x="0" y="1" width="28" height="29">
<path d="M28 1.18896H0V29.189H28V1.18896Z" fill="white"/>
</mask>
<g mask="url(#mask0_2511_1547)">
<path d="M14 1.18896C12.1297 1.18896 10.9463 1.6024 10.57 1.74896C10.535 1.75771 10.4978 1.76865 10.465 1.78396C10.4519 1.78834 10.395 1.80146 10.395 1.80146C10.3447 1.82334 10.2966 1.85396 10.255 1.88896C10.255 1.89553 10.255 1.8999 10.255 1.90646C10.2288 1.92834 10.2069 1.95021 10.185 1.97646L9.0125 3.09646L6.7025 3.81396C6.685 3.81834 6.6675 3.8249 6.65 3.83146L6.5975 3.84896C6.58 3.85334 6.5625 3.8599 6.545 3.86646C6.53406 3.87084 6.52094 3.8774 6.51 3.88396C6.50344 3.89053 6.49906 3.8949 6.4925 3.90146C6.49031 3.90146 6.44438 3.91678 6.44 3.91896C6.42688 3.9299 6.41594 3.94084 6.405 3.95396C6.10313 4.11365 3.45188 5.56178 2.7475 8.38146C2.695 8.59365 2.49156 9.16021 2.2225 9.83396C1.95344 10.5077 1.62094 11.3193 1.295 12.1264C0.969063 12.9336 0.658437 13.7343 0.42 14.4189C0.181563 15.1036 0 15.6002 0 16.0814V24.7089C0 25.0174 0.251563 25.2689 0.56 25.2689H4.48C4.78844 25.2689 5.04 25.0174 5.04 24.7089V17.9889C5.04 18.0611 5.05531 17.9124 5.11 17.7439C5.16469 17.5755 5.25 17.3502 5.355 17.0964C5.56281 16.5911 5.84281 15.9699 6.125 15.3639C6.14906 15.3114 6.17094 15.2764 6.195 15.2239V28.6289C6.195 28.9374 6.44656 29.1889 6.755 29.1889H21.245C21.5534 29.1889 21.805 28.9374 21.805 28.6289V15.2239C21.8291 15.2764 21.8509 15.3114 21.875 15.3639C22.1572 15.9699 22.4372 16.5911 22.645 17.0964C22.75 17.3502 22.8353 17.5755 22.89 17.7439C22.9447 17.9124 22.96 18.0611 22.96 17.9889V24.7089C22.96 25.0174 23.2116 25.2689 23.52 25.2689H27.44C27.7484 25.2689 28 25.0174 28 24.7089V16.0814C28 15.6002 27.8184 15.1036 27.58 14.4189C27.3416 13.7343 27.0309 12.9336 26.705 12.1264C26.3791 11.3193 26.0466 10.5077 25.7775 9.83396C25.5084 9.16021 25.305 8.59365 25.2525 8.38146C24.5525 5.58146 21.9472 4.13115 21.6125 3.95396C21.5753 3.92553 21.5338 3.90146 21.49 3.88396C21.4791 3.8774 21.4659 3.87084 21.455 3.86646C21.4484 3.86646 21.4441 3.86646 21.4375 3.86646C21.4266 3.8599 21.4134 3.85334 21.4025 3.84896C21.385 3.8424 21.3675 3.83584 21.35 3.83146H21.3325C21.315 3.8249 21.2975 3.81834 21.28 3.81396L19.0225 3.11396H19.005L17.8325 1.99396C17.8216 1.98084 17.8106 1.9699 17.7975 1.95896L17.7625 1.90646C17.7559 1.90646 17.7516 1.90646 17.745 1.90646C17.7406 1.89553 17.7341 1.8824 17.7275 1.87146C17.7209 1.87146 17.7166 1.87146 17.71 1.87146C17.6991 1.85834 17.6881 1.8474 17.675 1.83646C17.6684 1.83646 17.6641 1.83646 17.6575 1.83646C17.6466 1.8299 17.6334 1.82334 17.6225 1.81896C17.6159 1.8124 17.6116 1.80803 17.605 1.80146C17.5547 1.77521 17.5022 1.75771 17.4475 1.74896C17.0975 1.61115 15.9075 1.18896 14 1.18896ZM14 2.30896C15.1769 2.30896 15.9753 2.46428 16.485 2.60646L14 6.33396L11.515 2.60646C12.0247 2.46428 12.8231 2.30896 14 2.30896ZM10.535 3.18396L13.1775 7.13896L11.0075 8.20646L9.905 3.79646L10.535 3.18396ZM17.465 3.18396L18.095 3.79646L16.9925 8.20646L14.8225 7.13896L17.465 3.18396ZM8.8725 4.32146L10.0975 9.16896C10.1391 9.33303 10.2506 9.46865 10.4038 9.54084C10.5569 9.61084 10.7341 9.61084 10.885 9.53646L14 7.97896L17.115 9.53646C17.2659 9.61084 17.4431 9.61084 17.5963 9.54084C17.7494 9.46865 17.8609 9.33303 17.9025 9.16896L19.1275 4.32146L20.615 4.77646C20.4728 5.45678 19.9063 8.48428 20.6675 12.7389C20.6697 12.7499 20.6653 12.763 20.6675 12.7739C20.6675 12.7805 20.6675 12.7849 20.6675 12.7914C20.6719 12.8221 20.6763 12.8505 20.685 12.8789C20.685 12.8855 20.685 12.8899 20.685 12.8964V28.0689H7.315V12.9139C7.34781 12.8177 7.35438 12.7149 7.3325 12.6164C8.12219 9.26084 7.51406 5.49615 7.385 4.77646L8.8725 4.32146ZM21.6475 5.30146C22.4547 5.87896 23.765 7.03178 24.1675 8.64396C24.2616 9.01803 24.4563 9.55178 24.7275 10.2365C24.9988 10.9211 25.3334 11.7436 25.655 12.5464C25.9766 13.3493 26.3025 14.1346 26.53 14.7864C26.7575 15.4383 26.88 16.0202 26.88 16.0814V24.1489H24.08V17.9889C24.08 17.7461 24.0275 17.6039 23.9575 17.3939C23.8875 17.1839 23.7869 16.9455 23.6775 16.6764C23.4566 16.1405 23.1766 15.5061 22.89 14.8914C22.3475 13.7321 21.8313 12.7193 21.77 12.5989C21.1706 9.29584 21.4484 6.57459 21.6475 5.30146ZM6.335 5.31896C6.53188 6.82178 6.83375 10.0527 6.2125 12.5114C6.20156 12.5574 6.195 12.6033 6.195 12.6514C6.10094 12.8418 5.63063 13.7802 5.11 14.8914C4.82344 15.5061 4.54344 16.1405 4.3225 16.6764C4.21313 16.9455 4.1125 17.1839 4.0425 17.3939C3.9725 17.6039 3.92 17.7461 3.92 17.9889V24.1489H1.12V16.0814C1.12 16.0202 1.2425 15.4383 1.47 14.7864C1.6975 14.1346 2.02344 13.3493 2.345 12.5464C2.66656 11.7436 3.00125 10.9211 3.2725 10.2365C3.54375 9.55178 3.73844 9.01803 3.8325 8.64396C4.23281 7.0449 5.52563 5.90084 6.335 5.31896ZM11.76 12.9489C11.1409 12.9489 10.64 13.4499 10.64 14.0689C10.64 14.688 11.1409 15.1889 11.76 15.1889C12.3791 15.1889 12.88 14.688 12.88 14.0689C12.88 13.4499 12.3791 12.9489 11.76 12.9489ZM16.8 12.9489C16.1809 12.9489 15.68 13.4499 15.68 14.0689C15.68 14.688 16.1809 15.1889 16.8 15.1889C17.4191 15.1889 17.92 14.688 17.92 14.0689C17.92 13.4499 17.4191 12.9489 16.8 12.9489ZM11.76 17.4289C11.1409 17.4289 10.64 17.9299 10.64 18.5489C10.64 19.168 11.1409 19.6689 11.76 19.6689C12.3791 19.6689 12.88 19.168 12.88 18.5489C12.88 17.9299 12.3791 17.4289 11.76 17.4289ZM16.8 17.4289C16.1809 17.4289 15.68 17.9299 15.68 18.5489C15.68 19.168 16.1809 19.6689 16.8 19.6689C17.4191 19.6689 17.92 19.168 17.92 18.5489C17.92 17.9299 17.4191 17.4289 16.8 17.4289ZM11.76 21.9089C11.1409 21.9089 10.64 22.4099 10.64 23.0289C10.64 23.648 11.1409 24.1489 11.76 24.1489C12.3791 24.1489 12.88 23.648 12.88 23.0289C12.88 22.4099 12.3791 21.9089 11.76 21.9089ZM16.8 21.9089C16.1809 21.9089 15.68 22.4099 15.68 23.0289C15.68 23.648 16.1809 24.1489 16.8 24.1489C17.4191 24.1489 17.92 23.648 17.92 23.0289C17.92 22.4099 17.4191 21.9089 16.8 21.9089Z" fill="#999999"/>
</g>
</g>
<defs>
<clipPath id="clip0_2511_1547">
<rect width="28" height="29" fill="white" transform="translate(0 0.5)"/>
</clipPath>
</defs>
</svg>
