<svg width="29" height="30" viewBox="0 0 29 30" fill="none" xmlns="http://www.w3.org/2000/svg">
<path d="M7.88818 17.9068H6.88818C6.35775 17.9068 5.84904 17.696 5.47397 17.321C5.0989 16.9459 4.88818 16.4372 4.88818 15.9068V6.90674C4.88818 6.37631 5.0989 5.8676 5.47397 5.49253C5.84904 5.11745 6.35775 4.90674 6.88818 4.90674H15.8882C16.4186 4.90674 16.9273 5.11745 17.3024 5.49253C17.6775 5.8676 17.8882 6.37631 17.8882 6.90674V7.90674M13.8882 11.9068H22.8882C23.9928 11.9068 24.8882 12.8022 24.8882 13.9068V22.9068C24.8882 24.0113 23.9928 24.9068 22.8882 24.9068H13.8882C12.7836 24.9068 11.8882 24.0113 11.8882 22.9068V13.9068C11.8882 12.8022 12.7836 11.9068 13.8882 11.9068Z" stroke="#999999" stroke-linecap="round" stroke-linejoin="round"/>
</svg>
