<svg width="28" height="30" viewBox="0 0 28 30" fill="none" xmlns="http://www.w3.org/2000/svg">
<path d="M13.9475 1.73153C13.9234 1.73591 13.8994 1.74247 13.8775 1.74903C13.6172 1.80809 13.4334 2.04216 13.44 2.30903V3.53403L11.2 4.00653C11.2 3.99997 11.2 3.99559 11.2 3.98903C11.2022 3.82716 11.1322 3.67403 11.0119 3.56684C10.8915 3.45966 10.7297 3.40934 10.57 3.42903C10.535 3.43778 10.4978 3.44872 10.465 3.46403L8.78498 4.02403C8.55748 4.09841 8.40217 4.31059 8.39998 4.54903C8.39998 4.57091 8.39998 4.59716 8.39998 4.61903L6.03748 5.12653C5.82311 5.14841 5.63936 5.29278 5.56717 5.49622C5.49498 5.69966 5.54748 5.92716 5.69842 6.08028C5.85154 6.23122 6.07904 6.28372 6.28248 6.21153L8.43498 5.73903C8.60342 9.28934 9.43029 13.0912 9.50248 13.4216C9.50248 13.4391 9.50248 13.4566 9.50248 13.4741C9.44123 13.6841 7.05904 21.9572 6.17748 26.8441C6.12279 27.1437 6.31748 27.4303 6.61498 27.4916C6.61498 27.4916 9.47404 28.0691 14 28.0691C18.5259 28.0691 21.385 27.4916 21.385 27.4916C21.6825 27.4303 21.8772 27.1437 21.8225 26.8441C20.9409 21.9572 18.5587 13.6841 18.4975 13.4741C18.5478 13.2444 19.3944 9.34841 19.565 5.73903L21.7175 6.21153C21.9209 6.28372 22.1484 6.23122 22.3015 6.08028C22.4525 5.92716 22.505 5.69966 22.4328 5.49622C22.3606 5.29278 22.1769 5.14841 21.9625 5.12653L19.6 4.61903C19.6 4.59716 19.6 4.57091 19.6 4.54903C19.5978 4.31059 19.4425 4.09841 19.215 4.02403L17.535 3.46403C17.3665 3.40934 17.1806 3.43559 17.034 3.54059C16.8897 3.64341 16.8022 3.80966 16.8 3.98903C16.8 3.99559 16.8 3.99997 16.8 4.00653L14.56 3.53403V2.30903C14.5665 2.14716 14.5009 1.99184 14.385 1.88247C14.2669 1.77091 14.1072 1.71622 13.9475 1.73153ZM14 4.54903H14.0175L16.7125 5.14403C16.5047 6.39966 15.9469 6.97497 15.33 7.48903C14.9384 7.81497 14.5009 8.09059 14.1225 8.48653C14.0722 8.53903 14.0459 8.62216 14 8.67903C13.9562 8.62653 13.9234 8.55216 13.8775 8.50403C13.499 8.11028 13.079 7.83247 12.6875 7.50653C12.0706 6.99028 11.4997 6.40403 11.2875 5.14403L14 4.54903ZM10.1675 4.72403C10.3556 6.60966 11.1584 7.70122 11.9525 8.36403C12.4009 8.73809 12.8209 9.01153 13.0725 9.27403C13.324 9.53653 13.44 9.74216 13.44 10.149H14.56C14.56 9.73122 14.6759 9.52122 14.9275 9.25653C15.179 8.99184 15.5815 8.71841 16.03 8.34653C16.824 7.68809 17.6444 6.60966 17.8325 4.72403L18.445 4.93403C18.3837 8.27216 17.6137 12.2316 17.4475 13.0541C16.7825 13.2006 15.2031 13.5091 14 13.5091C12.7969 13.5091 11.2175 13.2006 10.5525 13.0541C10.3884 12.2447 9.63592 8.39684 9.55498 5.09153C9.55498 5.07403 9.55498 5.05653 9.55498 5.03903C9.55498 5.00403 9.55498 4.96903 9.55498 4.93403L10.1675 4.72403ZM10.4825 14.1741C11.2503 14.3425 12.7181 14.6291 14 14.6291C15.2819 14.6291 16.7497 14.3425 17.5175 14.1741C17.885 15.4647 19.7487 22.0666 20.5975 26.4766C19.9194 26.5947 17.769 26.9491 14 26.9491C10.2309 26.9491 8.08061 26.5947 7.40248 26.4766C8.25123 22.0666 10.115 15.4647 10.4825 14.1741Z" fill="#999999"/>
</svg>
