<svg width="29" height="30" viewBox="0 0 29 30" fill="none" xmlns="http://www.w3.org/2000/svg">
<path d="M11.1447 3.90674V6.90674M17.1447 3.90674V6.90674M11.1447 22.9068V25.9068M17.1447 22.9068V25.9068M22.1447 11.9068H25.1447M22.1447 16.9068H25.1447M3.14465 11.9068H6.14465M3.14465 16.9068H6.14465M8.14465 6.90674H20.1447C21.2492 6.90674 22.1447 7.80217 22.1447 8.90674V20.9068C22.1447 22.0113 21.2492 22.9068 20.1447 22.9068H8.14465C7.04008 22.9068 6.14465 22.0113 6.14465 20.9068V8.90674C6.14465 7.80217 7.04008 6.90674 8.14465 6.90674ZM11.1447 11.9068H17.1447V17.9068H11.1447V11.9068Z" stroke="#999999" stroke-linecap="round" stroke-linejoin="round"/>
</svg>
