<svg width="29" height="30" viewBox="0 0 29 30" fill="none" xmlns="http://www.w3.org/2000/svg">
<path d="M23.1447 7.90674C23.1447 9.56359 19.1152 10.9068 14.1447 10.9068C9.17409 10.9068 5.14465 9.56359 5.14465 7.90674M23.1447 7.90674C23.1447 6.24989 19.1152 4.90674 14.1447 4.90674C9.17409 4.90674 5.14465 6.24989 5.14465 7.90674M23.1447 7.90674V21.9068C23.1447 23.5668 19.1447 24.9068 14.1447 24.9068C9.14465 24.9068 5.14465 23.5668 5.14465 21.9068V7.90674M23.1447 14.9068C23.1447 16.5668 19.1447 17.9068 14.1447 17.9068C9.14465 17.9068 5.14465 16.5668 5.14465 14.9068" stroke="#999999" stroke-linecap="round" stroke-linejoin="round"/>
</svg>
