<svg width="29" height="30" viewBox="0 0 29 30" fill="none" xmlns="http://www.w3.org/2000/svg">
<path d="M20.7615 14.8307C20.7615 19.6968 16.793 23.6653 11.9268 23.6653C7.01343 23.7126 3.04492 19.7441 3.04492 14.8307C3.04492 9.96459 7.01343 5.99609 11.8796 5.99609C16.793 5.99609 20.7615 9.96459 20.7615 14.8307Z" stroke="#999999" stroke-miterlimit="10"/>
<path d="M14.3362 10.3424C14.3362 11.6652 13.2496 12.7991 11.8795 12.7991C10.5567 12.7991 9.42285 11.7125 9.42285 10.3424C9.42285 9.0196 10.5095 7.88574 11.8795 7.88574C13.2496 7.88574 14.3362 8.97235 14.3362 10.3424Z" stroke="#999999" stroke-miterlimit="10"/>
<path d="M14.3362 19.3659C14.3362 20.6888 13.2496 21.8226 11.8795 21.8226C10.5567 21.8226 9.42285 20.736 9.42285 19.3659C9.42285 18.0431 10.5095 16.9092 11.8795 16.9092C13.2496 16.9092 14.3362 17.9958 14.3362 19.3659Z" stroke="#999999" stroke-miterlimit="10"/>
<path d="M16.4149 17.2874C15.0921 17.2874 13.9583 16.2008 13.9583 14.8307C13.9583 13.5078 15.0449 12.374 16.4149 12.374C17.7378 12.374 18.8716 13.4606 18.8716 14.8307C18.8244 16.2008 17.7378 17.2874 16.4149 17.2874Z" stroke="#999999" stroke-miterlimit="10"/>
<path d="M7.39126 17.2874C6.06843 17.2874 4.93457 16.2008 4.93457 14.8307C4.93457 13.5078 6.02118 12.374 7.39126 12.374C8.7141 12.374 9.84796 13.4606 9.84796 14.8307C9.80071 16.2008 8.7141 17.2874 7.39126 17.2874Z" stroke="#999999" stroke-miterlimit="10"/>
<path d="M15.8481 6.94059C17.9269 6.79886 21.4702 5.52327 22.1789 8.49964C22.4623 9.72799 22.2261 11.665 23.3127 12.5627C24.3048 13.413 25.6277 13.602 25.7222 15.1611C25.7694 16.3894 25.2497 17.9485 24.5411 18.9879C24.0686 19.6965 23.5489 20.2162 23.3127 21.0666C23.0292 22.0115 22.982 23.0036 22.982 23.9957" stroke="#999999" stroke-miterlimit="10"/>
</svg>
