<svg width="29" height="30" viewBox="0 0 29 30" fill="none" xmlns="http://www.w3.org/2000/svg">
<path d="M24.0617 14.2353C23.2275 10.6066 20.9751 8.02059 19.0982 8.43768C18.5143 8.56281 18.0555 8.97991 17.6801 9.56385C17.6801 9.56385 14.7187 11.5659 11.0899 9.56385C10.7146 8.97991 10.2558 8.56281 9.67182 8.43768C7.79488 8.02059 5.54256 10.6066 4.70837 14.2353C3.87417 17.8641 4.70837 21.1592 6.5853 21.5762C8.21198 21.9516 12.0493 17.3219 12.0493 17.3219C12.0493 17.3219 14.385 15.1112 16.3871 17.3219C16.3871 17.3219 20.558 21.9516 22.1847 21.5762C24.0617 21.1174 24.8958 17.8641 24.0617 14.2353Z" stroke="#999999" stroke-miterlimit="10" stroke-linejoin="round"/>
<path d="M20.2661 12.2335C20.2661 12.734 19.849 13.1511 19.3485 13.1511C18.848 13.1511 18.4309 12.734 18.4309 12.2335C18.4309 11.733 18.848 11.3159 19.3485 11.3159C19.849 11.3159 20.2661 11.733 20.2661 12.2335Z" stroke="#999999" stroke-miterlimit="10" stroke-linejoin="round"/>
<path d="M20.2661 16.446C20.2661 16.9465 19.849 17.3636 19.3485 17.3636C18.848 17.3636 18.4309 16.9465 18.4309 16.446C18.4309 15.9454 18.848 15.5283 19.3485 15.5283C19.849 15.5283 20.2661 15.9454 20.2661 16.446Z" stroke="#999999" stroke-miterlimit="10" stroke-linejoin="round"/>
<path d="M21.434 15.2781C20.9335 15.2781 20.5164 14.861 20.5164 14.3605C20.5164 13.86 20.9335 13.4429 21.434 13.4429C21.9345 13.4429 22.3516 13.86 22.3516 14.3605C22.3516 14.861 21.9345 15.2781 21.434 15.2781Z" stroke="#999999" stroke-miterlimit="10" stroke-linejoin="round"/>
<path d="M17.2213 15.2782C16.7208 15.2782 16.3037 14.8611 16.3037 14.3605C16.3037 13.86 16.7208 13.4429 17.2213 13.4429C17.7218 13.4429 18.1389 13.86 18.1389 14.3605C18.1806 14.8611 17.7635 15.2782 17.2213 15.2782Z" stroke="#999999" stroke-miterlimit="10" stroke-linejoin="round"/>
<path d="M11.8406 13.6516C11.8406 15.1114 10.6728 16.2793 9.2129 16.2793C7.75307 16.2793 6.58521 15.1114 6.58521 13.6516C6.58521 12.1917 7.75307 11.0239 9.2129 11.0239C10.6728 11.0656 11.8406 12.2334 11.8406 13.6516Z" stroke="#999999" stroke-miterlimit="10" stroke-linejoin="round"/>
</svg>
