<svg width="29" height="30" viewBox="0 0 29 30" fill="none" xmlns="http://www.w3.org/2000/svg">
<mask id="mask0_2511_1661" style="mask-type:luminance" maskUnits="userSpaceOnUse" x="5" y="5" width="9" height="10">
<path d="M12.5163 6.83507V13.2799H6.0714V6.83507H12.5163ZM13.3553 5.99609H5.23242V14.1189H13.3553V5.99609Z" fill="white"/>
</mask>
<g mask="url(#mask0_2511_1661)">
<path d="M12.5163 6.83507H13.5163V5.83507H12.5163V6.83507ZM12.5163 13.2799V14.2799H13.5163V13.2799H12.5163ZM6.0714 13.2799H5.0714V14.2799H6.0714V13.2799ZM6.0714 6.83507V5.83507H5.0714V6.83507H6.0714ZM13.3553 5.99609H14.3553V4.99609H13.3553V5.99609ZM5.23242 5.99609V4.99609H4.23242V5.99609H5.23242ZM5.23242 14.1189H4.23242V15.1189H5.23242V14.1189ZM13.3553 14.1189V15.1189H14.3553V14.1189H13.3553ZM11.5163 6.83507V13.2799H13.5163V6.83507H11.5163ZM12.5163 12.2799H6.0714V14.2799H12.5163V12.2799ZM7.0714 13.2799V6.83507H5.0714V13.2799H7.0714ZM6.0714 7.83507H12.5163V5.83507H6.0714V7.83507ZM13.3553 4.99609H5.23242V6.99609H13.3553V4.99609ZM4.23242 5.99609V14.1189H6.23242V5.99609H4.23242ZM5.23242 15.1189H13.3553V13.1189H5.23242V15.1189ZM14.3553 14.1189V5.99609H12.3553V14.1189H14.3553Z" fill="#999999"/>
</g>
<mask id="mask1_2511_1661" style="mask-type:luminance" maskUnits="userSpaceOnUse" x="15" y="5" width="9" height="10">
<path d="M22.6984 6.83507V13.2799H16.2535V6.83507H22.6984ZM23.5373 5.99609H15.4146V14.1189H23.5373V5.99609Z" fill="white"/>
</mask>
<g mask="url(#mask1_2511_1661)">
<path d="M22.6984 6.83507H23.6984V5.83507H22.6984V6.83507ZM22.6984 13.2799V14.2799H23.6984V13.2799H22.6984ZM16.2535 13.2799H15.2535V14.2799H16.2535V13.2799ZM16.2535 6.83507V5.83507H15.2535V6.83507H16.2535ZM23.5373 5.99609H24.5373V4.99609H23.5373V5.99609ZM15.4146 5.99609V4.99609H14.4146V5.99609H15.4146ZM15.4146 14.1189H14.4146V15.1189H15.4146V14.1189ZM23.5373 14.1189V15.1189H24.5373V14.1189H23.5373ZM21.6984 6.83507V13.2799H23.6984V6.83507H21.6984ZM22.6984 12.2799H16.2535V14.2799H22.6984V12.2799ZM17.2535 13.2799V6.83507H15.2535V13.2799H17.2535ZM16.2535 7.83507H22.6984V5.83507H16.2535V7.83507ZM23.5373 4.99609H15.4146V6.99609H23.5373V4.99609ZM14.4146 5.99609V14.1189H16.4146V5.99609H14.4146ZM15.4146 15.1189H23.5373V13.1189H15.4146V15.1189ZM24.5373 14.1189V5.99609H22.5373V14.1189H24.5373Z" fill="#999999"/>
</g>
<mask id="mask2_2511_1661" style="mask-type:luminance" maskUnits="userSpaceOnUse" x="5" y="15" width="9" height="9">
<path d="M12.5163 16.6739V23.1569H6.0714V16.6739H12.5163ZM13.3553 15.873H5.23242V23.9959H13.3553V15.873Z" fill="white"/>
</mask>
<g mask="url(#mask2_2511_1661)">
<path d="M12.5163 16.6739H13.5163V15.6739H12.5163V16.6739ZM12.5163 23.1569V24.1569H13.5163V23.1569H12.5163ZM6.0714 23.1569H5.0714V24.1569H6.0714V23.1569ZM6.0714 16.6739V15.6739H5.0714V16.6739H6.0714ZM13.3553 15.873H14.3553V14.873H13.3553V15.873ZM5.23242 15.873V14.873H4.23242V15.873H5.23242ZM5.23242 23.9959H4.23242V24.9959H5.23242V23.9959ZM13.3553 23.9959V24.9959H14.3553V23.9959H13.3553ZM11.5163 16.6739V23.1569H13.5163V16.6739H11.5163ZM12.5163 22.1569H6.0714V24.1569H12.5163V22.1569ZM7.0714 23.1569V16.6739H5.0714V23.1569H7.0714ZM6.0714 17.6739H12.5163V15.6739H6.0714V17.6739ZM13.3553 14.873H5.23242V16.873H13.3553V14.873ZM4.23242 15.873V23.9959H6.23242V15.873H4.23242ZM5.23242 24.9959H13.3553V22.9959H5.23242V24.9959ZM14.3553 23.9959V15.873H12.3553V23.9959H14.3553Z" fill="#999999"/>
</g>
<mask id="mask3_2511_1661" style="mask-type:luminance" maskUnits="userSpaceOnUse" x="15" y="15" width="9" height="9">
<path d="M22.6984 16.6739V23.1569H16.2535V16.6739H22.6984ZM23.5373 15.873H15.4146V23.9959H23.5373V15.873Z" fill="white"/>
</mask>
<g mask="url(#mask3_2511_1661)">
<path d="M22.6984 16.6739H23.6984V15.6739H22.6984V16.6739ZM22.6984 23.1569V24.1569H23.6984V23.1569H22.6984ZM16.2535 23.1569H15.2535V24.1569H16.2535V23.1569ZM16.2535 16.6739V15.6739H15.2535V16.6739H16.2535ZM23.5373 15.873H24.5373V14.873H23.5373V15.873ZM15.4146 15.873V14.873H14.4146V15.873H15.4146ZM15.4146 23.9959H14.4146V24.9959H15.4146V23.9959ZM23.5373 23.9959V24.9959H24.5373V23.9959H23.5373ZM21.6984 16.6739V23.1569H23.6984V16.6739H21.6984ZM22.6984 22.1569H16.2535V24.1569H22.6984V22.1569ZM17.2535 23.1569V16.6739H15.2535V23.1569H17.2535ZM16.2535 17.6739H22.6984V15.6739H16.2535V17.6739ZM23.5373 14.873H15.4146V16.873H23.5373V14.873ZM14.4146 15.873V23.9959H16.4146V15.873H14.4146ZM15.4146 24.9959H23.5373V22.9959H15.4146V24.9959ZM24.5373 23.9959V15.873H22.5373V23.9959H24.5373Z" fill="#999999"/>
</g>
</svg>
