<svg width="29" height="30" viewBox="0 0 29 30" fill="none" xmlns="http://www.w3.org/2000/svg">
<path d="M22.1447 14.9068V24.9068H6.14465V14.9068M14.1447 24.9068V9.90674M14.1447 9.90674H9.64465C8.98161 9.90674 8.34573 9.64335 7.87689 9.17451C7.40805 8.70567 7.14465 8.06978 7.14465 7.40674C7.14465 6.7437 7.40805 6.10781 7.87689 5.63897C8.34573 5.17013 8.98161 4.90674 9.64465 4.90674C13.1447 4.90674 14.1447 9.90674 14.1447 9.90674ZM14.1447 9.90674H18.6447C19.3077 9.90674 19.9436 9.64335 20.4124 9.17451C20.8813 8.70567 21.1447 8.06978 21.1447 7.40674C21.1447 6.7437 20.8813 6.10781 20.4124 5.63897C19.9436 5.17013 19.3077 4.90674 18.6447 4.90674C15.1447 4.90674 14.1447 9.90674 14.1447 9.90674ZM4.14465 9.90674H24.1447V14.9068H4.14465V9.90674Z" stroke="#999999" stroke-linecap="round" stroke-linejoin="round"/>
</svg>
