<svg width="28" height="29" viewBox="0 0 28 29" fill="none" xmlns="http://www.w3.org/2000/svg">
<path d="M24 13.5C24 19.0228 19.5228 23.5 14 23.5M24 13.5C24 7.97715 19.5228 3.5 14 3.5M24 13.5H4M14 23.5C8.47715 23.5 4 19.0228 4 13.5M14 23.5C16.5013 20.7616 17.9228 17.208 18 13.5C17.9228 9.79203 16.5013 6.23835 14 3.5M14 23.5C11.4987 20.7616 10.0772 17.208 10 13.5C10.0772 9.79203 11.4987 6.23835 14 3.5M14 3.5C8.47715 3.5 4 7.97715 4 13.5" stroke="#999999" stroke-linecap="round" stroke-linejoin="round"/>
</svg>
