<svg width="29" height="30" viewBox="0 0 29 30" fill="none" xmlns="http://www.w3.org/2000/svg">
<mask id="mask0_2511_1699" style="mask-type:luminance" maskUnits="userSpaceOnUse" x="4" y="6" width="21" height="17">
<path d="M7.83501 8.01674L4.38501 14.9068V20.9068C4.38501 21.4372 4.59572 21.9459 4.9708 22.321C5.34587 22.696 5.85458 22.9068 6.38501 22.9068H22.385C22.9154 22.9068 23.4242 22.696 23.7992 22.321C24.1743 21.9459 24.385 21.4372 24.385 20.9068V14.9068L20.935 8.01674C20.7694 7.68353 20.5142 7.40311 20.198 7.20702C19.8817 7.01093 19.5171 6.90694 19.145 6.90674H9.62501C9.25293 6.90694 8.88827 7.01093 8.57205 7.20702C8.25583 7.40311 8.00059 7.68353 7.83501 8.01674Z" fill="white"/>
<path d="M9.38501 18.9067C9.38501 19.4589 8.93729 19.9067 8.38501 19.9067C7.83273 19.9067 7.38501 19.4589 7.38501 18.9067C7.38501 18.3544 7.83273 17.9067 8.38501 17.9067C8.93729 17.9067 9.38501 18.3544 9.38501 18.9067Z" fill="white"/>
<path d="M13.385 18.9067C13.385 19.4589 12.9373 19.9067 12.385 19.9067C11.8327 19.9067 11.385 19.4589 11.385 18.9067C11.385 18.3544 11.8327 17.9067 12.385 17.9067C12.9373 17.9067 13.385 18.3544 13.385 18.9067Z" fill="white"/>
</mask>
<g mask="url(#mask0_2511_1699)">
<path d="M24.385 15.4068C24.6612 15.4068 24.885 15.1829 24.885 14.9068C24.885 14.6306 24.6612 14.4068 24.385 14.4068V15.4068ZM4.38501 14.4068C4.10887 14.4068 3.88501 14.6306 3.88501 14.9068C3.88501 15.1829 4.10887 15.4068 4.38501 15.4068V14.4068ZM24.385 14.4068H4.38501V15.4068H24.385V14.4068ZM24.385 14.9068H25.385C25.385 14.7513 25.3488 14.598 25.2792 14.459L24.385 14.9068ZM4.38501 14.9068L3.49084 14.459C3.42125 14.598 3.38501 14.7513 3.38501 14.9068H4.38501ZM7.83501 8.01674L8.72918 8.46448L8.73054 8.46174L7.83501 8.01674ZM20.935 8.01674L20.0395 8.46174L20.0408 8.46447L20.935 8.01674ZM6.94084 7.56901L3.49084 14.459L5.27918 15.3545L8.72918 8.46448L6.94084 7.56901ZM3.38501 14.9068V20.9068H5.38501V14.9068H3.38501ZM3.38501 20.9068C3.38501 21.7024 3.70108 22.4655 4.26369 23.0281L5.6779 21.6139C5.49037 21.4263 5.38501 21.172 5.38501 20.9068H3.38501ZM4.26369 23.0281C4.8263 23.5907 5.58936 23.9068 6.38501 23.9068V21.9068C6.11979 21.9068 5.86544 21.8014 5.6779 21.6139L4.26369 23.0281ZM6.38501 23.9068H22.385V21.9068H6.38501V23.9068ZM22.385 23.9068C23.1807 23.9068 23.9437 23.5907 24.5063 23.0281L23.0921 21.6139C22.9046 21.8014 22.6502 21.9068 22.385 21.9068V23.9068ZM24.5063 23.0281C25.0689 22.4655 25.385 21.7024 25.385 20.9068H23.385C23.385 21.172 23.2797 21.4263 23.0921 21.6139L24.5063 23.0281ZM25.385 20.9068V14.9068H23.385V20.9068H25.385ZM25.2792 14.459L21.8292 7.56901L20.0408 8.46447L23.4908 15.3545L25.2792 14.459ZM21.8305 7.57174C21.5822 7.07192 21.1993 6.6513 20.725 6.35716L19.671 8.05688C19.8291 8.15492 19.9567 8.29513 20.0395 8.46174L21.8305 7.57174ZM20.725 6.35716C20.2506 6.06302 19.7037 5.90704 19.1455 5.90674L19.1445 7.90674C19.3305 7.90684 19.5128 7.95883 19.671 8.05688L20.725 6.35716ZM19.1455 5.90674H9.62501V7.90674H19.1445L19.1455 5.90674ZM9.62501 5.90674C9.06688 5.90704 8.51937 6.06302 8.04505 6.35716L9.09906 8.05688C9.25717 7.95883 9.43897 7.90684 9.62501 7.90674V5.90674ZM8.04505 6.35716C7.57072 6.6513 7.18785 7.07192 6.93948 7.57174L8.73054 8.46174C8.81333 8.29513 8.94095 8.15493 9.09906 8.05688L8.04505 6.35716ZM8.38501 18.9068V20.9068C9.48958 20.9068 10.385 20.0113 10.385 18.9068H8.38501ZM8.38501 18.9068H6.38501C6.38501 20.0113 7.28044 20.9068 8.38501 20.9068V18.9068ZM8.38501 18.9068V16.9068C7.28044 16.9068 6.38501 17.8022 6.38501 18.9068H8.38501ZM8.38501 18.9068H10.385C10.385 17.8022 9.48958 16.9068 8.38501 16.9068V18.9068ZM12.385 18.9068V20.9068C13.4896 20.9068 14.385 20.0113 14.385 18.9068H12.385ZM12.385 18.9068H10.385C10.385 20.0113 11.2804 20.9068 12.385 20.9068V18.9068ZM12.385 18.9068V16.9068C11.2804 16.9068 10.385 17.8022 10.385 18.9068H12.385ZM12.385 18.9068H14.385C14.385 17.8022 13.4896 16.9068 12.385 16.9068V18.9068Z" fill="#999999"/>
</g>
</svg>
