<svg width="29" height="30" viewBox="0 0 29 30" fill="none" xmlns="http://www.w3.org/2000/svg">
<path d="M22.6025 7.86428C22.1138 7.35979 21.5335 6.95958 20.8949 6.68654C20.2563 6.41349 19.5718 6.27295 18.8805 6.27295C18.1893 6.27295 17.5048 6.41349 16.8661 6.68654C16.2275 6.95958 15.6473 7.35979 15.1586 7.86428L14.1444 8.91081L13.1302 7.86428C12.1431 6.84571 10.8043 6.27348 9.40826 6.27348C8.01227 6.27348 6.67345 6.84571 5.68633 7.86428C4.69921 8.88286 4.14465 10.2643 4.14465 11.7049C4.14465 13.1453 4.69921 14.5268 5.68633 15.5454L6.70053 16.5919L14.1444 24.273L21.5883 16.5919L22.6025 15.5454C23.0914 15.0411 23.4792 14.4424 23.7438 13.7834C24.0085 13.1245 24.1447 12.4182 24.1447 11.7049C24.1447 10.9916 24.0085 10.2852 23.7438 9.62624C23.4792 8.96726 23.0914 8.36855 22.6025 7.86428Z" stroke="#999999" stroke-linecap="round" stroke-linejoin="round"/>
</svg>
