<svg width="29" height="29" viewBox="0 0 29 29" fill="none" xmlns="http://www.w3.org/2000/svg">
<mask id="mask0_2511_1714" style="mask-type:luminance" maskUnits="userSpaceOnUse" x="4" y="4" width="21" height="21">
<path d="M14.385 24.5C19.9079 24.5 24.385 20.0228 24.385 14.5C24.385 8.97715 19.9079 4.5 14.385 4.5C8.86216 4.5 4.38501 8.97715 4.38501 14.5C4.38501 20.0228 8.86216 24.5 14.385 24.5Z" fill="white"/>
<path d="M11.475 11.5001C11.7101 10.8318 12.1742 10.2682 12.785 9.90921C13.3958 9.55024 14.1139 9.41902 14.8122 9.53879C15.5105 9.65857 16.1438 10.0216 16.6001 10.5636C17.0563 11.1056 17.3061 11.7916 17.305 12.5001C17.305 14.5001 14.305 15.5001 14.305 15.5001" fill="white"/>
<path d="M15.385 19.5C15.385 20.0523 14.9373 20.5 14.385 20.5C13.8327 20.5 13.385 20.0523 13.385 19.5C13.385 18.9477 13.8327 18.5 14.385 18.5C14.9373 18.5 15.385 18.9477 15.385 19.5Z" fill="white"/>
</mask>
<g mask="url(#mask0_2511_1714)">
<path d="M10.5317 11.1682C10.3484 11.6891 10.6222 12.2601 11.1432 12.4433C11.6642 12.6266 12.2351 12.3528 12.4183 11.8318L10.5317 11.1682ZM17.305 12.5L16.305 12.4985V12.5H17.305ZM13.9888 14.5513C13.4648 14.726 13.1817 15.2923 13.3563 15.8162C13.531 16.3402 14.0973 16.6233 14.6212 16.4487L13.9888 14.5513ZM23.385 14.5C23.385 19.4706 19.3556 23.5 14.385 23.5V25.5C20.4601 25.5 25.385 20.5751 25.385 14.5H23.385ZM14.385 23.5C9.41445 23.5 5.38501 19.4706 5.38501 14.5H3.38501C3.38501 20.5751 8.30988 25.5 14.385 25.5V23.5ZM5.38501 14.5C5.38501 9.52944 9.41445 5.5 14.385 5.5V3.5C8.30988 3.5 3.38501 8.42487 3.38501 14.5H5.38501ZM14.385 5.5C19.3556 5.5 23.385 9.52944 23.385 14.5H25.385C25.385 8.42487 20.4601 3.5 14.385 3.5V5.5ZM12.4183 11.8318C12.5751 11.3863 12.8844 11.0106 13.2916 10.7713L12.2783 9.047C11.4639 9.52563 10.8451 10.277 10.5317 11.1682L12.4183 11.8318ZM13.2916 10.7713C13.6988 10.5319 14.1776 10.4445 14.6431 10.5243L14.9812 8.55311C14.0502 8.39341 13.0927 8.56837 12.2783 9.047L13.2916 10.7713ZM14.6431 10.5243C15.1086 10.6042 15.5309 10.8462 15.8351 11.2075L17.3651 9.91953C16.7568 9.19686 15.9123 8.7128 14.9812 8.55311L14.6431 10.5243ZM15.8351 11.2075C16.1392 11.5689 16.3057 12.0262 16.305 12.4985L18.305 12.5015C18.3064 11.5569 17.9735 10.6422 17.3651 9.91953L15.8351 11.2075ZM16.305 12.5C16.305 12.9691 15.9399 13.4582 15.2503 13.9179C14.9359 14.1275 14.6145 14.289 14.3676 14.3987C14.2456 14.4529 14.1454 14.4929 14.0779 14.5186C14.0443 14.5314 14.0191 14.5406 14.0037 14.5461C13.996 14.5488 13.9913 14.5504 13.9888 14.5513C13.9875 14.5517 13.9864 14.5521 13.9864 14.5521C13.986 14.5522 13.9865 14.5521 13.9864 14.5521C13.9866 14.552 13.9875 14.5517 13.9878 14.5516C13.9879 14.5516 13.9887 14.5513 13.9888 14.5513C13.989 14.5512 13.9888 14.5513 14.305 15.5C14.6212 16.4487 14.6209 16.4488 14.6212 16.4487C14.6213 16.4486 14.6223 16.4483 14.6225 16.4483C14.623 16.4481 14.6235 16.4479 14.624 16.4478C14.6251 16.4474 14.6264 16.4469 14.6279 16.4464C14.6309 16.4454 14.6346 16.4442 14.639 16.4427C14.6478 16.4396 14.6594 16.4356 14.6737 16.4305C14.7023 16.4203 14.7415 16.4061 14.7899 16.3876C14.8865 16.3508 15.0206 16.2971 15.1799 16.2263C15.4956 16.086 15.9241 15.8725 16.3597 15.5821C17.1701 15.0418 18.305 14.0309 18.305 12.5H16.305ZM14.385 19.5V21.5C15.4896 21.5 16.385 20.6046 16.385 19.5H14.385ZM14.385 19.5H12.385C12.385 20.6046 13.2804 21.5 14.385 21.5V19.5ZM14.385 19.5V17.5C13.2804 17.5 12.385 18.3954 12.385 19.5H14.385ZM14.385 19.5H16.385C16.385 18.3954 15.4896 17.5 14.385 17.5V19.5Z" fill="#999999"/>
</g>
</svg>
