<svg width="29" height="30" viewBox="0 0 29 30" fill="none" xmlns="http://www.w3.org/2000/svg">
<path d="M7.14465 23.9961H21.1447C22.2492 23.9961 23.1447 23.1006 23.1447 21.9961V7.99609C23.1447 6.89152 22.2492 5.99609 21.1447 5.99609H7.14465C6.04008 5.99609 5.14465 6.89152 5.14465 7.99609V21.9961C5.14465 23.1006 6.04008 23.9961 7.14465 23.9961ZM7.14465 23.9961L18.1447 12.9961L23.1447 17.9961M12.1447 11.4961C12.1447 12.3245 11.4731 12.9961 10.6447 12.9961C9.81623 12.9961 9.14465 12.3245 9.14465 11.4961C9.14465 10.6676 9.81623 9.99609 10.6447 9.99609C11.4731 9.99609 12.1447 10.6676 12.1447 11.4961Z" stroke="#999999" stroke-linecap="round" stroke-linejoin="round"/>
</svg>
