<svg width="28" height="29" viewBox="0 0 28 29" fill="none" xmlns="http://www.w3.org/2000/svg">
<path d="M24 14.5H18L16 17.5H12L10 14.5H4M24 14.5V20.5C24 21.0304 23.7893 21.5391 23.4142 21.9142C23.0391 22.2893 22.5304 22.5 22 22.5H6C5.46957 22.5 4.96086 22.2893 4.58579 21.9142C4.21071 21.5391 4 21.0304 4 20.5V14.5M24 14.5L20.55 7.61C20.3844 7.27679 20.1292 6.99637 19.813 6.80028C19.4967 6.60419 19.1321 6.5002 18.76 6.5H9.24C8.86792 6.5002 8.50326 6.60419 8.18704 6.80028C7.87083 6.99637 7.61558 7.27679 7.45 7.61L4 14.5" stroke="#999999" stroke-linecap="round" stroke-linejoin="round"/>
</svg>
