<svg width="29" height="29" viewBox="0 0 29 29" fill="none" xmlns="http://www.w3.org/2000/svg">
<path d="M24.1447 14.5H18.1447L16.1447 17.5H12.1447L10.1447 14.5H4.14465M24.1447 14.5V20.5C24.1447 21.0304 23.9339 21.5391 23.5589 21.9142C23.1838 22.2893 22.6751 22.5 22.1447 22.5H6.14465C5.61422 22.5 5.10551 22.2893 4.73044 21.9142C4.35537 21.5391 4.14465 21.0304 4.14465 20.5V14.5M24.1447 14.5L20.6947 7.61C20.5291 7.27679 20.2738 6.99637 19.9576 6.80028C19.6414 6.60419 19.2767 6.5002 18.9047 6.5H9.38465C9.01257 6.5002 8.64792 6.60419 8.3317 6.80028C8.01548 6.99637 7.76023 7.27679 7.59465 7.61L4.14465 14.5" stroke="#999999" stroke-linecap="round" stroke-linejoin="round"/>
</svg>
