<svg width="28" height="30" viewBox="0 0 28 30" fill="none" xmlns="http://www.w3.org/2000/svg">
<mask id="mask0_2511_1744" style="mask-type:luminance" maskUnits="userSpaceOnUse" x="0" y="1" width="28" height="29">
<path d="M28 1.18896H0V29.189H28V1.18896Z" fill="white"/>
</mask>
<g mask="url(#mask0_2511_1744)">
<path d="M14 1.18896C11.8716 1.18896 9.29906 1.68553 8.9775 1.74896C8.96656 1.75115 8.91188 1.74896 8.9075 1.74896C8.8725 1.75115 8.8375 1.75771 8.8025 1.76646C8.785 1.77084 8.7675 1.7774 8.75 1.78396C8.53563 1.83209 8.36938 2.00053 8.32344 2.2149C8.27969 2.42928 8.36281 2.65021 8.54 2.78146C8.6625 3.08115 9.05406 4.07865 9.205 5.03896C8.23594 5.35834 6.7725 5.84396 6.6675 5.87896C6.61938 5.8899 6.57125 5.9074 6.5275 5.93146C6.51 5.9424 6.4925 5.95334 6.475 5.96646C6.3175 6.04521 3.78656 7.34677 2.765 10.4115C2.56156 11.0239 1.87469 12.9074 1.2425 14.7689C0.925313 15.7008 0.6125 16.6239 0.385 17.3939C0.1575 18.1639 0 18.7086 0 19.1789V28.0689C0 28.3774 0.251563 28.6289 0.56 28.6289H4.48C4.78844 28.6289 5.04 28.3774 5.04 28.0689V19.6689C5.04 19.7389 5.05531 19.6033 5.11 19.4414C5.16469 19.2796 5.25219 19.0564 5.355 18.8114C5.55844 18.3236 5.82969 17.7133 6.1075 17.1314C6.13375 17.0768 6.13375 17.0811 6.16 17.0264V25.8289C6.16 26.1374 6.41156 26.3889 6.72 26.3889H21.28C21.5884 26.3889 21.84 26.1374 21.84 25.8289V17.0264C21.8663 17.0811 21.8663 17.0768 21.8925 17.1314C22.1703 17.7133 22.4416 18.3236 22.645 18.8114C22.7478 19.0564 22.8353 19.2796 22.89 19.4414C22.9447 19.6033 22.96 19.7389 22.96 19.6689V28.0689C22.96 28.3774 23.2116 28.6289 23.52 28.6289H27.44C27.7484 28.6289 28 28.3774 28 28.0689V19.1789C28 18.7086 27.8425 18.1639 27.615 17.3939C27.3875 16.6239 27.0747 15.7008 26.7575 14.7689C26.1253 12.9074 25.4384 11.0239 25.235 10.4115C24.2659 7.50427 21.9888 6.21802 21.6125 6.01896C21.595 6.00584 21.5775 5.9949 21.56 5.98396C21.5469 5.9774 21.4725 5.93146 21.4725 5.93146C21.4222 5.90521 21.3697 5.88771 21.315 5.87896C21.1903 5.8374 19.6656 5.32115 18.7425 5.02146C18.8234 3.97365 19.04 2.39646 19.04 2.39646C19.04 2.3899 19.04 2.38553 19.04 2.37896C19.04 2.36803 19.04 2.3549 19.04 2.34396C19.04 2.3374 19.04 2.33303 19.04 2.32646C19.04 2.31553 19.04 2.3024 19.04 2.29146C19.04 2.2849 19.04 2.28053 19.04 2.27396C19.04 2.25646 19.04 2.23896 19.04 2.22146C19.04 2.2149 19.04 2.21053 19.04 2.20396C19.0356 2.19303 19.0291 2.1799 19.0225 2.16896C19.0225 2.1624 19.0225 2.15803 19.0225 2.15146C19.0181 2.14053 19.0116 2.1274 19.005 2.11646C19.005 2.1099 19.005 2.10553 19.005 2.09896C19.0006 2.08803 18.9941 2.0749 18.9875 2.06396C18.9809 2.0574 18.9766 2.05303 18.97 2.04646C18.9656 2.03553 18.9591 2.0224 18.9525 2.01146C18.9481 2.00053 18.9416 1.9874 18.935 1.97646C18.9284 1.9699 18.9241 1.96553 18.9175 1.95896C18.9131 1.94803 18.9066 1.9349 18.9 1.92396C18.8934 1.92396 18.8891 1.92396 18.8825 1.92396C18.8716 1.91084 18.8606 1.8999 18.8475 1.88896C18.8409 1.8824 18.8366 1.87803 18.83 1.87146C18.8234 1.8649 18.8191 1.86053 18.8125 1.85396C18.8059 1.8474 18.8016 1.84303 18.795 1.83646C18.7841 1.8299 18.7709 1.82334 18.76 1.81896C18.7534 1.81896 18.7491 1.81896 18.7425 1.81896C18.7316 1.8124 18.7184 1.80584 18.7075 1.80146C18.7009 1.7949 18.6966 1.79053 18.69 1.78396C18.6791 1.78396 18.6659 1.78396 18.655 1.78396C18.6441 1.7774 18.6309 1.77084 18.62 1.76646H18.6025C18.585 1.7599 18.5675 1.75334 18.55 1.74896C18.5434 1.74678 18.5084 1.75115 18.4975 1.74896C18.1847 1.67459 16.1 1.18896 14 1.18896ZM14 2.30896C15.1091 2.30896 16.2378 2.46209 17.08 2.60646L15.75 3.53396C15.6516 3.60178 15.5794 3.70021 15.54 3.81396C15.54 3.81396 14.7919 6.33396 14 9.86896C13.195 6.31646 12.46 3.81396 12.46 3.81396C12.4206 3.68271 12.3331 3.57115 12.215 3.49896L10.64 2.60646C11.6353 2.46428 12.9106 2.30896 14 2.30896ZM17.78 3.46396C17.6859 4.15521 17.5919 4.68678 17.57 5.38896C17.5591 5.6449 17.7253 5.87677 17.9725 5.94896C18.5238 6.11521 20.0616 6.6424 20.5975 6.82396C20.4269 7.54146 19.6394 11.2339 20.685 14.5239C20.6806 14.6005 20.6938 14.6793 20.72 14.7514V25.2689H7.28V14.7339C7.28 14.723 7.28 14.7099 7.28 14.6989C7.28438 14.6924 7.29313 14.688 7.2975 14.6814C7.30406 14.6639 7.31063 14.6464 7.315 14.6289C8.07188 13.1393 8.05219 11.1705 7.875 9.50146C7.7175 8.02052 7.47688 7.19365 7.385 6.82396C7.88156 6.65552 9.34938 6.16552 10.0275 5.94896C10.2747 5.87677 10.4409 5.6449 10.43 5.38896C10.3994 4.7524 10.1938 4.12021 10.01 3.55146L11.445 4.35646C11.5281 4.61459 12.495 7.54146 13.4575 12.4589C13.5253 12.7061 13.7506 12.8746 14.0066 12.8724C14.2625 12.868 14.4834 12.6908 14.5425 12.4414C15.4634 7.54584 16.4566 4.5774 16.5375 4.33896L17.78 3.46396ZM6.405 7.31396C6.5275 7.86521 6.66531 8.62427 6.7725 9.62396C6.94531 11.258 6.88188 13.1743 6.2825 14.2614C6.26063 14.2943 6.24313 14.3293 6.23 14.3664C6.21688 14.3949 6.20375 14.4233 6.195 14.4539C6.13156 14.5764 5.62406 15.5455 5.0925 16.6589C4.81031 17.2518 4.52156 17.8533 4.305 18.3739C4.19781 18.6343 4.11031 18.8683 4.0425 19.0739C3.97469 19.2796 3.92 19.4305 3.92 19.6689V27.5089H1.12V19.1789C1.12 19.1068 1.25125 18.4702 1.47 17.7264C1.68875 16.9827 1.9775 16.0596 2.2925 15.1364C2.92031 13.2902 3.60938 11.4308 3.8325 10.7614C4.445 8.92177 5.67219 7.83021 6.405 7.31396ZM21.63 7.34896C22.3672 7.87615 23.5659 8.95459 24.1675 10.7614C24.3906 11.4308 25.0797 13.2902 25.7075 15.1364C26.0225 16.0596 26.3113 16.9827 26.53 17.7264C26.7488 18.4702 26.88 19.1068 26.88 19.1789V27.5089H24.08V19.6689C24.08 19.4305 24.0253 19.2796 23.9575 19.0739C23.8897 18.8683 23.8022 18.6343 23.695 18.3739C23.4784 17.8533 23.1897 17.2518 22.9075 16.6589C22.3716 15.5346 21.8575 14.5393 21.805 14.4364C20.9584 12.063 21.3719 8.80802 21.63 7.34896Z" fill="#999999"/>
</g>
</svg>
