<svg width="28" height="30" viewBox="0 0 28 30" fill="none" xmlns="http://www.w3.org/2000/svg">
<path d="M14 1.74902C12.0925 1.74902 10.9025 2.17121 10.5525 2.30902H10.535L6.685 2.88652H6.65C6.6325 2.8909 6.615 2.89746 6.5975 2.90402C6.5625 2.91277 6.52531 2.92371 6.4925 2.93902C6.44 2.96746 6.39406 3.00246 6.3525 3.04402C6.34594 3.05058 6.34156 3.05496 6.335 3.06152C6.31531 3.07683 6.29781 3.09433 6.2825 3.11402C6.26938 3.12496 6.25844 3.1359 6.2475 3.14902C6.24313 3.1534 6.23438 3.16215 6.23 3.16652C6.22344 3.17746 6.21688 3.19058 6.2125 3.20152C5.8975 3.53183 4.5675 4.95152 3.185 7.03402C1.61219 9.40308 0 12.5487 0 15.749V23.589C0 23.8975 0.251563 24.149 0.56 24.149H4.48C4.78844 24.149 5.04 23.8975 5.04 23.589V15.749C5.04 15.8212 5.05531 15.6725 5.11 15.504C5.16469 15.3356 5.25 15.1103 5.355 14.8565C5.56281 14.3512 5.84281 13.73 6.125 13.124C6.13813 13.0978 6.14688 13.0803 6.16 13.054V27.509C6.16 27.8175 6.41156 28.069 6.72 28.069H21.28C21.5884 28.069 21.84 27.8175 21.84 27.509V13.054C21.8531 13.0803 21.8619 13.0978 21.875 13.124C22.1572 13.73 22.4372 14.3512 22.645 14.8565C22.75 15.1103 22.8353 15.3356 22.89 15.504C22.9447 15.6725 22.96 15.8212 22.96 15.749V23.589C22.96 23.8975 23.2116 24.149 23.52 24.149H27.44C27.7484 24.149 28 23.8975 28 23.589V15.749C28 12.5487 26.3878 9.40308 24.815 7.03402C23.4063 4.91215 22.05 3.47715 21.77 3.18402C21.77 3.17746 21.77 3.17308 21.77 3.16652C21.7153 3.07683 21.6366 3.00465 21.5425 2.95652C21.4834 2.92152 21.4178 2.89746 21.35 2.88652H21.3325L17.465 2.30902C17.4584 2.30683 17.4541 2.31121 17.4475 2.30902C17.0975 2.17121 15.9075 1.74902 14 1.74902ZM14 2.86902C15.1922 2.86902 15.995 3.02433 16.5025 3.16652C16.065 3.73527 15.2184 4.54902 14 4.54902C12.7816 4.54902 11.935 3.73527 11.4975 3.16652C12.005 3.02433 12.8078 2.86902 14 2.86902ZM10.4125 3.48152C10.7231 4.01965 11.7644 5.66902 14 5.66902C16.2356 5.66902 17.2769 4.01965 17.5875 3.48152L20.615 3.91902C20.3897 4.73058 19.7356 7.47371 20.6675 10.499C20.6719 10.51 20.6631 10.5231 20.6675 10.534C20.6675 10.5406 20.6675 10.545 20.6675 10.5515C20.6763 10.6128 20.6938 10.6719 20.72 10.7265C20.72 10.7331 20.72 10.7375 20.72 10.744V26.949H7.28V10.7265C7.28 10.72 7.28 10.7156 7.28 10.709C7.29313 10.6806 7.30625 10.6522 7.315 10.6215C7.32375 10.5931 7.32375 10.5625 7.3325 10.534C7.3325 10.5275 7.3325 10.5231 7.3325 10.5165C8.27094 7.48465 7.61031 4.73058 7.385 3.91902L10.4125 3.48152ZM6.4225 4.60152C6.66969 5.85277 6.95188 8.11464 6.3 10.219C6.29781 10.2256 6.28469 10.23 6.2825 10.2365C6.27594 10.2475 6.26938 10.2606 6.265 10.2715C6.265 10.2715 5.68531 11.4222 5.11 12.6515C4.82344 13.2662 4.54344 13.9006 4.3225 14.4365C4.21313 14.7056 4.1125 14.944 4.0425 15.154C3.9725 15.364 3.92 15.5062 3.92 15.749V23.029H1.12V15.749C1.12 12.9294 2.60094 9.92371 4.1125 7.64652C5.005 6.3034 5.845 5.26652 6.4225 4.60152ZM21.5775 4.60152C22.155 5.26652 22.995 6.3034 23.8875 7.64652C25.3991 9.92371 26.88 12.9294 26.88 15.749V23.029H24.08V15.749C24.08 15.5062 24.0275 15.364 23.9575 15.154C23.8875 14.944 23.7869 14.7056 23.6775 14.4365C23.4566 13.9006 23.1766 13.2662 22.89 12.6515C22.3147 11.4222 21.735 10.2715 21.735 10.2715C21.7219 10.2343 21.7044 10.1993 21.6825 10.1665C21.0503 8.07746 21.3325 5.84183 21.5775 4.60152Z" fill="#999999"/>
</svg>
