<svg width="29" height="30" viewBox="0 0 29 30" fill="none" xmlns="http://www.w3.org/2000/svg">
<path d="M18.1447 10.7139C19.736 10.7139 21.2621 11.346 22.3873 12.4712C23.5125 13.5964 24.1447 15.1226 24.1447 16.7139V23.7139H20.1447V16.7139C20.1447 16.1834 19.9339 15.6747 19.5589 15.2997C19.1838 14.9246 18.6751 14.7139 18.1447 14.7139C17.6142 14.7139 17.1055 14.9246 16.7304 15.2997C16.3554 15.6747 16.1447 16.1834 16.1447 16.7139V23.7139H12.1447V16.7139C12.1447 15.1226 12.7768 13.5964 13.902 12.4712C15.0272 11.346 16.5534 10.7139 18.1447 10.7139Z" stroke="#999999" stroke-linecap="round" stroke-linejoin="round"/>
<path d="M8.14465 11.7139H4.14465V23.7139H8.14465V11.7139Z" stroke="#999999" stroke-linecap="round" stroke-linejoin="round"/>
<path d="M6.14465 8.71387C7.24922 8.71387 8.14465 7.81844 8.14465 6.71387C8.14465 5.6093 7.24922 4.71387 6.14465 4.71387C5.04008 4.71387 4.14465 5.6093 4.14465 6.71387C4.14465 7.81844 5.04008 8.71387 6.14465 8.71387Z" stroke="#999999" stroke-linecap="round" stroke-linejoin="round"/>
</svg>
