<svg width="28" height="29" viewBox="0 0 28 29" fill="none" xmlns="http://www.w3.org/2000/svg">
<path d="M10 8.5H23M10 14.5H23M10 20.5H23" stroke="#999999" stroke-linecap="round" stroke-linejoin="round"/>
<path d="M5.5 8.5C5.5 8.77614 5.27614 9 5 9C4.72386 9 4.5 8.77614 4.5 8.5C4.5 8.22386 4.72386 8 5 8C5.27614 8 5.5 8.22386 5.5 8.5ZM5.5 14.5C5.5 14.7761 5.27614 15 5 15C4.72386 15 4.5 14.7761 4.5 14.5C4.5 14.2239 4.72386 14 5 14C5.27614 14 5.5 14.2239 5.5 14.5ZM5.5 20.5C5.5 20.7761 5.27614 21 5 21C4.72386 21 4.5 20.7761 4.5 20.5C4.5 20.2239 4.72386 20 5 20C5.27614 20 5.5 20.2239 5.5 20.5Z" stroke="#999999"/>
</svg>
