<svg width="28" height="30" viewBox="0 0 28 30" fill="none" xmlns="http://www.w3.org/2000/svg">
<path d="M11.6177 2.13818L8.88334 3.05037L9.46084 6.29225C9.27928 6.3885 9.17866 6.41693 8.89428 6.64006C8.41303 7.0185 7.83991 7.60693 7.83991 8.45131C7.83991 9.39631 8.34303 10.1576 8.76084 10.8445C9.18084 11.5313 9.51991 12.1416 9.51991 12.6688C9.51991 13.0516 9.42584 13.3054 9.24647 13.6138C9.06491 13.9245 8.78709 14.2723 8.48959 14.7316C7.89241 15.6526 7.27991 17.0154 7.27991 19.4435C7.27991 22.5957 8.41741 27.0845 8.41741 27.0845L8.49616 27.4038L8.81334 27.4891C8.81334 27.4891 10.9177 28.0579 13.9999 28.0579C17.0821 28.0579 19.1865 27.4891 19.1865 27.4891L19.5037 27.4038L19.5824 27.0845C19.5824 27.0845 20.7199 22.5957 20.7199 19.4435C20.7199 17.0154 20.1074 15.6526 19.5102 14.7316C19.2127 14.2723 18.9349 13.9245 18.7533 13.6138C18.574 13.3054 18.4799 13.0516 18.4799 12.6688C18.4799 12.1416 18.819 11.5313 19.239 10.8445C19.6568 10.1576 20.1599 9.39631 20.1599 8.45131C20.1599 7.60693 19.5868 7.0185 19.1055 6.64006C18.8212 6.41693 18.7205 6.3885 18.539 6.29225L19.1165 3.05037L16.3821 2.13818L16.2508 2.75068C15.8768 4.51162 14.3608 5.36693 13.9999 5.55943C13.639 5.36693 12.123 4.51162 11.749 2.75068L11.6177 2.13818ZM10.8958 3.56006C11.6855 5.72131 13.7637 6.73631 13.7637 6.73631L13.9999 6.84568L14.2362 6.73631C14.2362 6.73631 16.3143 5.72131 17.104 3.56006L17.8433 3.80725L17.2921 6.89818L17.6924 7.07756C17.6924 7.07756 18.0555 7.24162 18.4143 7.52162C18.773 7.80162 19.0399 8.15818 19.0399 8.45131C19.0399 8.96537 18.703 9.57131 18.2808 10.2604C17.8608 10.9495 17.3599 11.7173 17.3599 12.6688C17.3599 13.266 17.5458 13.7626 17.7865 14.176C18.0249 14.5916 18.3071 14.9373 18.5696 15.3398C19.0924 16.1491 19.5999 17.1926 19.5999 19.4435C19.5999 22.132 18.6943 25.9491 18.5674 26.4741C18.1671 26.5726 16.5877 26.9379 13.9999 26.9379C11.4121 26.9379 9.83272 26.5726 9.43241 26.4741C9.30553 25.9491 8.39991 22.132 8.39991 19.4435C8.39991 17.1926 8.90741 16.1491 9.43022 15.3398C9.69272 14.9373 9.97491 14.5916 10.2133 14.176C10.454 13.7626 10.6399 13.266 10.6399 12.6688C10.6399 11.7173 10.139 10.9495 9.71897 10.2604C9.29678 9.57131 8.95991 8.96537 8.95991 8.45131C8.95991 8.15818 9.22678 7.80162 9.58553 7.52162C9.94428 7.24162 10.3074 7.07756 10.3074 7.07756L10.7077 6.89818L10.1565 3.80725L10.8958 3.56006Z" fill="#999999"/>
</svg>
