<svg width="28" height="30" viewBox="0 0 28 30" fill="none" xmlns="http://www.w3.org/2000/svg">
<path d="M5.60005 3.42871C5.45153 3.42873 5.3091 3.48773 5.20408 3.59275C5.09907 3.69777 5.04006 3.8402 5.04005 3.98871V5.89074C3.91251 8.47081 3.92005 11.2162 3.92005 11.2162V12.9465V13.4125V26.3887C3.92006 26.5372 3.97906 26.6797 4.08408 26.7847C4.1891 26.8897 4.33153 26.9487 4.48005 26.9487H12.32C12.4564 26.9487 12.5882 26.8989 12.6905 26.8087C12.7927 26.7185 12.8586 26.5941 12.8757 26.4587L13.9957 17.4955L15.1004 26.4576C15.1172 26.5932 15.1829 26.7179 15.2853 26.8083C15.3876 26.8988 15.5194 26.9487 15.656 26.9487H23.52C23.6686 26.9487 23.811 26.8897 23.916 26.7847C24.021 26.6797 24.08 26.5372 24.08 26.3887V13.4125V12.9695V11.2162C24.08 11.2162 24.0876 8.47081 22.96 5.89074V3.98871C22.96 3.8402 22.901 3.69777 22.796 3.59275C22.691 3.48773 22.5486 3.42873 22.4 3.42871H5.60005ZM6.16005 4.54871H21.84V5.66871H6.16005V4.54871ZM5.8877 6.78871H9.52005C9.52005 9.50249 8.27347 10.8114 6.99786 11.5553C6.24869 11.9922 5.53188 12.1912 5.04005 12.2914V11.2162C5.04005 11.2162 5.06279 8.96556 5.8877 6.78871ZM10.64 6.78871H17.36C17.36 9.86365 18.9135 11.6343 20.4379 12.5233C21.4366 13.1057 22.3911 13.3325 22.96 13.43V25.8287H16.1515L14.5557 12.8798C14.5387 12.7445 14.4729 12.6201 14.3707 12.5298C14.2685 12.4395 14.1369 12.3897 14.0005 12.3895C13.8642 12.3894 13.7324 12.439 13.6301 12.5291C13.5277 12.6191 13.4617 12.7435 13.4444 12.8787L11.8257 25.8287H5.04005V13.43C5.60896 13.3325 6.5635 13.1057 7.56223 12.5233C9.08662 11.6343 10.64 9.86365 10.64 6.78871ZM18.48 6.78871H22.1124C22.9373 8.96556 22.96 11.2162 22.96 11.2162V12.2914C22.4682 12.1912 21.7514 11.9922 21.0022 11.5553C19.7266 10.8114 18.48 9.50249 18.48 6.78871Z" fill="#999999"/>
</svg>
