<svg width="28" height="30" viewBox="0 0 28 30" fill="none" xmlns="http://www.w3.org/2000/svg">
<path d="M11.1125 2.30908L7.75249 2.86908L7.50749 2.92158L7.38499 3.11408L1.22499 12.074L0.92749 12.494L1.32999 12.8265L4.68999 15.6265L5.14499 16.0115L5.49499 15.504L6.71999 13.789V22.469H7.27999V28.069H8.39999V22.469H19.6V28.069H20.72V22.469H21.28V14.349L22.505 16.064L22.855 16.5715L23.31 16.1865L26.67 13.3865L27.055 13.054L26.7925 12.6515L20.6325 3.13158L20.4925 2.92158L20.2475 2.86908L16.8875 2.30908H11.1125ZM12.04 3.42908H15.9775L14.1225 8.24158L12.04 3.42908ZM10.8675 3.49908L14.56 12.039V21.349H7.83999V10.2541L6.82499 11.7065L4.93499 14.3665L2.43249 12.284L8.15499 3.95408L10.8675 3.49908ZM17.15 3.49908L19.8275 3.95408L25.585 12.844L23.065 14.9265L21.175 12.2665L20.16 10.814V21.349H15.68V11.829L15.6275 11.724L14.77 9.71158L17.15 3.49908ZM12.88 14.069C12.5716 14.069 12.32 14.3206 12.32 14.629C12.32 14.9375 12.5716 15.189 12.88 15.189C13.1884 15.189 13.44 14.9375 13.44 14.629C13.44 14.3206 13.1884 14.069 12.88 14.069ZM12.88 16.309C12.5716 16.309 12.32 16.5606 12.32 16.869C12.32 17.1775 12.5716 17.429 12.88 17.429C13.1884 17.429 13.44 17.1775 13.44 16.869C13.44 16.5606 13.1884 16.309 12.88 16.309ZM12.88 18.549C12.5716 18.549 12.32 18.8006 12.32 19.109C12.32 19.4175 12.5716 19.669 12.88 19.669C13.1884 19.669 13.44 19.4175 13.44 19.109C13.44 18.8006 13.1884 18.549 12.88 18.549ZM13.44 25.829V28.069H14.56V25.829H13.44Z" fill="#999999"/>
</svg>
