<svg width="28" height="30" viewBox="0 0 28 30" fill="none" xmlns="http://www.w3.org/2000/svg">
<path d="M3.02749 6.70131C2.78249 6.70131 2.64468 6.83256 2.57249 6.91131C2.5003 6.99006 2.4653 7.05787 2.43249 7.12131C2.36687 7.246 2.30562 7.37287 2.25749 7.52381C2.16124 7.82787 2.0628 8.22381 1.95999 8.69631C1.75437 9.6435 1.5378 10.8838 1.32999 12.1263C0.914365 14.6113 0.55999 17.0963 0.55999 17.0963C0.557803 17.1203 0.557803 17.1422 0.55999 17.1663C0.55999 17.4638 0.739365 17.6169 0.82249 17.6738C0.905615 17.7306 0.975615 17.7394 1.03249 17.7613C1.14624 17.8028 1.24905 17.8356 1.38249 17.8663C1.65155 17.9275 2.00593 17.98 2.43249 18.0588C3.2878 18.2163 4.42312 18.446 5.58249 18.7763C6.74186 19.1066 7.92968 19.5397 8.85499 20.1238C9.7803 20.7078 10.4256 21.421 10.6575 22.2763L10.6925 22.2588C10.7516 22.5628 10.9375 22.7903 11.13 22.9238C11.3553 23.0791 11.6025 23.1775 11.9 23.2738C12.495 23.4663 13.2387 23.5888 14 23.5888C14.7612 23.5888 15.505 23.4663 16.1 23.2738C16.3975 23.1775 16.6447 23.0791 16.87 22.9238C17.0625 22.7903 17.2484 22.5628 17.3075 22.2588L17.3425 22.2763C17.5744 21.421 18.2197 20.7078 19.145 20.1238C20.0703 19.5397 21.2581 19.1066 22.4175 18.7763C23.5769 18.446 24.7122 18.2163 25.5675 18.0588C25.9941 17.98 26.3484 17.9253 26.6175 17.8663C26.7509 17.8356 26.8537 17.8028 26.9675 17.7613C27.0244 17.7394 27.0944 17.7306 27.1775 17.6738C27.2606 17.6169 27.44 17.466 27.44 17.1663C27.4422 17.1422 27.4422 17.1203 27.44 17.0963C27.44 17.0963 27.0856 14.6113 26.67 12.1263C26.4622 10.8838 26.2456 9.6435 26.04 8.69631C25.9372 8.22381 25.8387 7.82787 25.7425 7.52381C25.6944 7.37287 25.6331 7.246 25.5675 7.12131C25.5347 7.05787 25.4997 6.99006 25.4275 6.91131C25.3553 6.83256 25.2175 6.70131 24.9725 6.70131C24.8741 6.69912 24.7778 6.72319 24.6925 6.77131C24.6925 6.77131 24.6728 6.79319 24.395 6.87631C24.1172 6.95944 23.6294 7.0885 22.855 7.20881C21.3041 7.44944 18.5916 7.69881 14 7.69881C9.40843 7.69881 6.69593 7.44944 5.14499 7.20881C4.37062 7.0885 3.8828 6.95944 3.60499 6.87631C3.32718 6.79319 3.30749 6.77131 3.30749 6.77131C3.22218 6.72319 3.12593 6.69912 3.02749 6.70131ZM3.28999 7.96131C3.62905 8.06412 4.15405 8.18444 4.96999 8.31131C6.60186 8.56506 9.36905 8.81881 14 8.81881C18.6309 8.81881 21.3981 8.56506 23.03 8.31131C23.8459 8.18444 24.3709 8.06412 24.71 7.96131C24.7822 8.19975 24.8478 8.51475 24.9375 8.92381C25.1366 9.83381 25.3619 11.0675 25.5675 12.3013C25.9394 14.5347 26.1931 16.3744 26.25 16.7813C26.0247 16.8294 25.7359 16.8863 25.3575 16.9563C24.4978 17.116 23.3231 17.3435 22.1025 17.6913C21.2603 17.9319 20.405 18.236 19.6 18.6188C19.6372 15.9281 19.4687 12.6381 18.4275 10.4638C18.3225 10.2385 18.0797 10.1094 17.8325 10.1488C17.6553 10.1751 17.5 10.2844 17.4169 10.4441C17.3337 10.6038 17.3316 10.7941 17.4125 10.9538C18.34 12.8919 18.5303 16.4925 18.4625 19.2138C18.4625 19.2203 18.4625 19.2247 18.4625 19.2313C17.4322 19.9006 16.5769 20.7997 16.2575 21.9788C16.2509 21.9853 16.2466 21.9897 16.24 21.9963C16.1591 22.0531 15.9775 22.1319 15.75 22.2063C15.295 22.3528 14.6387 22.4688 14 22.4688C13.3612 22.4688 12.705 22.3528 12.25 22.2063C12.0225 22.1319 11.8409 22.0531 11.76 21.9963C11.7491 21.9875 11.7469 21.9941 11.7425 21.9963C11.7425 21.9897 11.7425 21.9853 11.7425 21.9788C11.4231 20.7997 10.5678 19.9006 9.53749 19.2313C9.53749 19.2247 9.53749 19.2203 9.53749 19.2138C9.46968 16.4925 9.65999 12.8919 10.5875 10.9538C10.6837 10.7656 10.6641 10.5381 10.5394 10.3676C10.4125 10.1969 10.2003 10.1138 9.99249 10.1488C9.80874 10.1772 9.65124 10.2954 9.57249 10.4638C8.53124 12.6381 8.3628 15.9281 8.39999 18.6188C7.59499 18.236 6.73968 17.9297 5.89749 17.6913C4.67687 17.3456 3.50218 17.1335 2.64249 16.9738C2.26405 16.9038 1.9753 16.8294 1.74999 16.7813C1.80687 16.3744 2.06062 14.5347 2.43249 12.3013C2.63812 11.0675 2.86343 9.83381 3.06249 8.92381C3.15218 8.51475 3.2178 8.19975 3.28999 7.96131Z" fill="#999999"/>
</svg>
