<svg width="28" height="30" viewBox="0 0 28 30" fill="none" xmlns="http://www.w3.org/2000/svg">
<g clip-path="url(#clip0_2511_1811)">
<mask id="mask0_2511_1811" style="mask-type:luminance" maskUnits="userSpaceOnUse" x="0" y="1" width="28" height="29">
<path d="M28 1.18896H0V29.189H28V1.18896Z" fill="white"/>
</mask>
<g mask="url(#mask0_2511_1811)">
<path d="M14.245 1.18886C14.0087 1.19324 13.7768 1.23043 13.545 1.29386C12.414 1.60011 11.4734 2.19949 10.92 3.28886C10.3665 4.37824 10.15 5.88105 10.15 8.06636V9.02886C9.00154 9.45324 7.33247 10.0789 7.33247 10.0789C7.32154 10.0832 7.30841 10.0898 7.29747 10.0964C6.88622 10.2889 6.40279 10.4595 5.93247 10.7789C5.91716 10.7898 5.89529 10.7854 5.87997 10.7964C5.84935 10.8117 5.82091 10.8292 5.79247 10.8489C5.76185 10.8686 5.73122 10.8926 5.70497 10.9189C5.67216 10.9451 5.63279 10.9407 5.59997 10.9714C5.0356 11.4964 4.67904 12.3604 4.51497 13.8589L3.35997 25.8814C3.34685 26.052 3.41029 26.2204 3.53497 26.3364C5.60435 28.2439 9.11747 29.1714 9.11747 29.1714C9.2531 29.2042 9.39747 29.1867 9.51997 29.1189L23.065 22.1539C23.2531 22.062 23.3756 21.8739 23.38 21.6639C23.38 19.1898 22.9993 16.8426 22.995 16.8164C23.1809 16.6523 23.625 16.2914 23.625 16.2914C23.7497 16.1754 23.8131 16.007 23.8 15.8364C23.8 15.8364 23.3318 11.2711 22.435 8.76636C21.969 7.46699 21.164 6.67511 20.2825 6.31636C19.8406 6.13699 19.4031 6.05386 18.97 6.05386C18.5368 6.05386 18.1168 6.13043 17.745 6.24636C17.6772 6.26824 17.349 6.39293 17.22 6.43886V5.47636C17.22 3.91668 16.8393 2.74855 16.1525 2.01136C15.809 1.64386 15.3978 1.39668 14.945 1.27636C14.7197 1.2173 14.4812 1.18449 14.245 1.18886ZM14.2625 2.30886C14.6672 2.29355 15.015 2.4423 15.33 2.78136C15.75 3.23199 16.1 4.10043 16.1 5.47636V6.84136C15.9556 6.89386 15.9468 6.8873 15.785 6.94636C14.7743 7.31605 13.5012 7.79511 12.25 8.25886C11.7512 8.44261 11.7447 8.45136 11.27 8.62636V8.06636C11.27 5.9598 11.504 4.61011 11.9175 3.79636C12.3309 2.98261 12.8953 2.6348 13.8425 2.37886C13.9912 2.33949 14.1268 2.31324 14.2625 2.30886ZM18.9525 7.17386C19.2587 7.17386 19.5693 7.23074 19.8625 7.34886C20.4465 7.5873 21.0043 8.08824 21.385 9.15136C22.1309 11.2317 22.5925 15.2086 22.645 15.6614C22.3431 15.9348 20.3525 17.7176 18.2175 18.6889C14.1137 20.5548 11.6681 21.1214 10.9375 21.2789C10.8806 20.3404 10.6487 16.6129 10.01 13.8764C9.63591 12.2773 8.72154 11.457 7.87497 11.0764C7.93404 11.0545 9.28591 10.5579 10.01 10.2889C10.1784 10.4967 10.5065 10.6389 10.9025 10.6389C11.4625 10.6389 11.9175 10.3435 11.9175 9.99136C11.9175 9.85793 11.8693 9.74418 11.76 9.64136C12.18 9.48605 12.1865 9.47511 12.635 9.30886C13.6762 8.92386 14.6672 8.54105 15.575 8.20636C15.7281 8.43605 16.1 8.59136 16.52 8.59136C17.08 8.59136 17.535 8.29605 17.535 7.94386C17.535 7.80386 17.4628 7.68136 17.3425 7.57636C17.559 7.4998 18.0293 7.32918 18.0775 7.31386C18.3465 7.22855 18.6462 7.17386 18.9525 7.17386ZM6.64997 11.8639C6.8206 11.8726 7.04372 11.9164 7.31497 12.0214C7.7656 12.1964 8.25779 12.5157 8.60997 13.2464L8.62747 27.8064C7.65404 27.4629 5.77497 26.7192 4.51497 25.6539L5.63497 13.9814V13.9639C5.77497 12.6973 6.03966 12.1745 6.31747 11.8814C6.35904 11.877 6.47935 11.8551 6.64997 11.8639ZM21.98 17.6564C22.0762 18.3454 22.2162 19.6492 22.2425 21.3314L9.74747 27.7539L9.72997 20.2639C9.81091 21.2439 9.86997 22.0139 9.86997 22.0139C9.8831 22.1736 9.96185 22.3201 10.0887 22.4164C10.2156 22.5126 10.3775 22.552 10.535 22.5214C10.535 22.5214 12.6503 22.1254 15.9775 20.8414C16.2334 21.4014 16.8853 21.6311 17.5525 21.3489C18.2218 21.0667 18.6768 20.3776 18.6375 19.7214C18.655 19.7126 18.6725 19.7126 18.69 19.7039C19.9172 19.1461 21.0787 18.3432 21.98 17.6564Z" fill="#999999"/>
</g>
</g>
<defs>
<clipPath id="clip0_2511_1811">
<rect width="28" height="29" fill="white" transform="translate(0 0.5)"/>
</clipPath>
</defs>
</svg>
