<svg width="28" height="30" viewBox="0 0 28 30" fill="none" xmlns="http://www.w3.org/2000/svg">
<path d="M3 3.90975L25 25.9098M17 12.2498V6.90975C17.0007 6.16578 16.725 5.44807 16.2264 4.89595C15.7277 4.34383 15.0417 3.99669 14.3015 3.92193C13.5613 3.84716 12.8197 4.05009 12.2207 4.49134C11.6217 4.93259 11.208 5.58066 11.06 6.30975M19 19.8598C18.0238 20.8562 16.7721 21.5382 15.4056 21.8184C14.0391 22.0985 12.62 21.964 11.3305 21.4321C10.041 20.9001 8.93976 19.995 8.16817 18.8329C7.39658 17.6708 6.9898 16.3047 7 14.9098V12.9098M21 12.9098V14.9098C20.9996 15.3222 20.9628 15.7338 20.89 16.1398M14 21.9098V25.9098M10 25.9098H18M11 11.9098V14.9098C11.0005 15.5027 11.1768 16.0823 11.5064 16.5751C11.8361 17.068 12.3045 17.4521 12.8523 17.6789C13.4002 17.9058 14.0029 17.9652 14.5845 17.8496C15.1661 17.7341 15.7005 17.4488 16.12 17.0298L11 11.9098Z" stroke="#999999" stroke-linecap="round" stroke-linejoin="round"/>
</svg>
