<svg width="28" height="29" viewBox="0 0 28 29" fill="none" xmlns="http://www.w3.org/2000/svg">
<path d="M13 14.5C13 15.0523 13.4477 15.5 14 15.5C14.5523 15.5 15 15.0523 15 14.5C15 13.9477 14.5523 13.5 14 13.5C13.4477 13.5 13 13.9477 13 14.5Z" stroke="#999999" stroke-linecap="round" stroke-linejoin="round"/>
<path d="M13 21.5C13 22.0523 13.4477 22.5 14 22.5C14.5523 22.5 15 22.0523 15 21.5C15 20.9477 14.5523 20.5 14 20.5C13.4477 20.5 13 20.9477 13 21.5Z" stroke="#999999" stroke-linecap="round" stroke-linejoin="round"/>
<path d="M13 7.5C13 8.05228 13.4477 8.5 14 8.5C14.5523 8.5 15 8.05228 15 7.5C15 6.94772 14.5523 6.5 14 6.5C13.4477 6.5 13 6.94772 13 7.5Z" stroke="#999999" stroke-linecap="round" stroke-linejoin="round"/>
</svg>
