<svg width="29" height="30" viewBox="0 0 29 30" fill="none" xmlns="http://www.w3.org/2000/svg">
<path d="M4.70506 8.63281L14.3851 13.4728M14.3851 13.4728L24.0651 8.63281M14.3851 13.4728V25.2328M9.38506 5.97281L19.3851 10.9728M15.2751 3.92281L23.2751 7.92281C23.6083 8.08838 23.8887 8.34363 24.0848 8.65985C24.2809 8.97607 24.3849 9.34072 24.3851 9.71281V19.2428C24.3849 19.6149 24.2809 19.9795 24.0848 20.2958C23.8887 20.612 23.6083 20.8672 23.2751 21.0328L15.2751 25.0328C14.9972 25.1718 14.6908 25.2442 14.3801 25.2442C14.0694 25.2442 13.7629 25.1718 13.4851 25.0328L5.48506 21.0328C5.15219 20.8651 4.87281 20.6077 4.67845 20.2896C4.48408 19.9716 4.38246 19.6055 4.38506 19.2328V9.71281C4.38526 9.34072 4.48925 8.97607 4.68534 8.65985C4.88143 8.34363 5.16185 8.08838 5.49506 7.92281L13.4951 3.92281C13.7716 3.78538 14.0762 3.71387 14.3851 3.71387C14.6939 3.71387 14.9985 3.78538 15.2751 3.92281Z" stroke="#999999" stroke-linecap="round" stroke-linejoin="round"/>
</svg>
