<svg width="28" height="30" viewBox="0 0 28 30" fill="none" xmlns="http://www.w3.org/2000/svg">
<path d="M2.24006 9.58873C1.97975 9.58873 1.79162 9.7178 1.66256 9.83373C1.5335 9.94967 1.44818 10.0678 1.36506 10.2012C1.19881 10.4659 1.05881 10.7766 0.945059 11.0763C0.719746 11.6734 0.577559 12.2488 0.577559 12.2488C0.566621 12.2947 0.560059 12.3406 0.560059 12.3888C0.560059 12.6578 0.715371 12.8088 0.805059 12.8788C0.894746 12.9488 0.964746 12.9728 1.03256 13.0013C1.17037 13.0581 1.31475 13.115 1.48756 13.1588C1.831 13.2484 2.28818 13.3469 2.83506 13.4738C3.92662 13.7275 5.366 14.0906 6.79006 14.6813C8.21412 15.2719 9.59881 16.0747 10.6226 17.1838C11.6463 18.2928 12.3201 19.6972 12.3201 21.5763C12.3201 21.8453 12.4994 22.0794 12.6526 22.1888C12.8057 22.2981 12.9457 22.3441 13.0901 22.3813C13.381 22.4556 13.6916 22.4688 14.0001 22.4688C14.3085 22.4688 14.6191 22.4556 14.9101 22.3813C15.0544 22.3441 15.1944 22.2981 15.3476 22.1888C15.5007 22.0794 15.6801 21.8453 15.6801 21.5763C15.6801 19.6972 16.3538 18.2928 17.3776 17.1838C18.4013 16.0747 19.786 15.2719 21.2101 14.6813C22.6341 14.0906 24.0735 13.7275 25.1651 13.4738C25.7119 13.3469 26.1691 13.2484 26.5126 13.1588C26.6854 13.115 26.8297 13.0581 26.9676 13.0013C27.0354 12.9728 27.1054 12.9488 27.1951 12.8788C27.2847 12.8088 27.4401 12.6578 27.4401 12.3888C27.4401 12.3406 27.4335 12.2947 27.4226 12.2488C27.4226 12.2488 27.2804 11.6734 27.0551 11.0763C26.9413 10.7766 26.8013 10.4659 26.6351 10.2012C26.5519 10.0678 26.4666 9.94967 26.3376 9.83373C26.2085 9.7178 26.0204 9.58873 25.7601 9.58873C25.701 9.58436 25.6419 9.59092 25.5851 9.60623C25.5851 9.60623 25.2416 9.73092 23.5726 9.86873C21.9035 10.0066 18.9854 10.1487 14.0001 10.1487C9.01475 10.1487 6.09662 10.0066 4.42756 9.86873C2.7585 9.73092 2.41506 9.60623 2.41506 9.60623C2.35818 9.59092 2.29912 9.58436 2.24006 9.58873ZM2.36256 10.7263C2.496 10.7613 2.83506 10.8663 4.32256 10.9888C6.03537 11.1309 8.99506 11.2688 14.0001 11.2688C19.0051 11.2688 21.9647 11.1309 23.6776 10.9888C25.1651 10.8663 25.5041 10.7613 25.6376 10.7263C25.6551 10.7481 25.666 10.7569 25.6901 10.7963C25.7863 10.9516 25.9066 11.2009 26.0051 11.4613C26.1188 11.7609 26.1385 11.8681 26.1976 12.0738C25.8979 12.1503 25.4626 12.2444 24.9201 12.3713C23.8066 12.6294 22.306 13.0188 20.7901 13.6488C19.2741 14.2788 17.7188 15.1494 16.5376 16.4313C15.4088 17.6541 14.6454 19.2816 14.5776 21.2963C14.4419 21.3247 14.2297 21.3488 14.0001 21.3488C13.7704 21.3488 13.5582 21.3247 13.4226 21.2963C13.3547 19.2816 12.5913 17.6541 11.4626 16.4313C10.2813 15.1494 8.726 14.2788 7.21006 13.6488C5.69412 13.0188 4.1935 12.6294 3.08006 12.3713C2.53756 12.2444 2.10225 12.1503 1.80256 12.0738C1.86162 11.8681 1.88131 11.7609 1.99506 11.4613C2.0935 11.2009 2.21381 10.9516 2.31006 10.7963C2.33412 10.7569 2.34506 10.7481 2.36256 10.7263Z" fill="#999999"/>
</svg>
