<svg width="29" height="29" viewBox="0 0 29 29" fill="none" xmlns="http://www.w3.org/2000/svg">
<path d="M23.583 14.1622L14.393 23.3522C13.2671 24.4781 11.7402 25.1106 10.148 25.1106C8.55581 25.1106 7.02883 24.4781 5.90299 23.3522C4.77715 22.2264 4.14465 20.6994 4.14465 19.1072C4.14465 17.515 4.77715 15.9881 5.90299 14.8622L15.093 5.67222C15.8436 4.92166 16.8615 4.5 17.923 4.5C18.9844 4.5 20.0024 4.92166 20.753 5.67222C21.5036 6.42279 21.9252 7.44077 21.9252 8.50222C21.9252 9.56368 21.5036 10.5817 20.753 11.3322L11.553 20.5222C11.1777 20.8975 10.6687 21.1083 10.138 21.1083C9.60726 21.1083 9.09827 20.8975 8.72299 20.5222C8.34771 20.1469 8.13688 19.638 8.13688 19.1072C8.13688 18.5765 8.34771 18.0675 8.72299 17.6922L17.213 9.21222" stroke="#999999" stroke-linecap="round" stroke-linejoin="round"/>
</svg>
