<svg width="29" height="30" viewBox="0 0 29 30" fill="none" xmlns="http://www.w3.org/2000/svg">
<path d="M18.3825 10.7368C18.9404 11.294 19.3829 11.9557 19.6849 12.6841C19.9868 13.4125 20.1422 14.1933 20.1422 14.9818C20.1422 15.7703 19.9868 16.551 19.6849 17.2794C19.3829 18.0078 18.9404 18.6695 18.3825 19.2268M9.90252 19.2168C9.34466 18.6595 8.90211 17.9978 8.60016 17.2694C8.29821 16.541 8.1428 15.7603 8.1428 14.9718C8.1428 14.1833 8.29821 13.4025 8.60016 12.6741C8.90211 11.9457 9.34466 11.284 9.90252 10.7268M21.2125 7.90674C23.0872 9.78202 24.1404 12.3251 24.1404 14.9768C24.1404 17.6284 23.0872 20.1715 21.2125 22.0468M7.07252 22.0468C5.19781 20.1715 4.14465 17.6284 4.14465 14.9768C4.14465 12.3251 5.19781 9.78202 7.07252 7.90674M16.1425 14.9768C16.1425 16.0813 15.2471 16.9768 14.1425 16.9768C13.0379 16.9768 12.1425 16.0813 12.1425 14.9768C12.1425 13.8722 13.0379 12.9768 14.1425 12.9768C15.2471 12.9768 16.1425 13.8722 16.1425 14.9768Z" stroke="#999999" stroke-linecap="round" stroke-linejoin="round"/>
</svg>
