<svg width="28" height="30" viewBox="0 0 28 30" fill="none" xmlns="http://www.w3.org/2000/svg">
<g clip-path="url(#clip0_2511_1895)">
<mask id="mask0_2511_1895" style="mask-type:luminance" maskUnits="userSpaceOnUse" x="0" y="1" width="28" height="29">
<path d="M28 1.18896H0V29.189H28V1.18896Z" fill="white"/>
</mask>
<g mask="url(#mask0_2511_1895)">
<path d="M9.41406 1.19C9.36593 1.20094 9.31781 1.21844 9.27406 1.2425L0.314057 5.70499C0.0799946 5.82093 -0.0425053 6.08124 0.0165572 6.33499L1.55656 12.4425C1.62437 12.7181 1.88906 12.8975 2.16906 12.8625L5.52906 12.4425C5.37374 13.451 4.63218 18.5128 5.59906 24.2375C5.63406 24.4606 5.80031 24.64 6.01906 24.6925C8.32687 25.2897 9.28937 26.2981 9.72906 27.125C10.1687 27.9519 10.0791 28.56 10.0791 28.56C10.0594 28.7197 10.1097 28.8816 10.2169 29.0019C10.3241 29.1222 10.4772 29.1922 10.6391 29.19H17.3591C17.5209 29.1922 17.6741 29.1222 17.7812 29.0019C17.8884 28.8816 17.9387 28.7197 17.9191 28.56C17.9191 28.56 17.8294 27.9519 18.2691 27.125C18.7087 26.2981 19.6712 25.2897 21.9791 24.6925C22.1978 24.64 22.3641 24.4606 22.3991 24.2375C23.2719 19.2544 22.6112 12.8494 22.4691 11.5325L25.6891 12.8275C25.84 12.8888 26.0084 12.88 26.1528 12.8056C26.2972 12.7335 26.4022 12.6 26.4416 12.4425L27.9816 6.33499C28.0406 6.08124 27.9181 5.82093 27.6841 5.70499L18.7241 1.2425C18.5819 1.17469 18.4156 1.16812 18.2691 1.22937C18.1225 1.28844 18.0087 1.40875 17.9541 1.55749C17.6478 2.36906 16.9128 2.81312 16.0816 3.07999C15.2503 3.34687 14.3709 3.39499 13.9991 3.39499C13.6272 3.39499 12.7478 3.34687 11.9166 3.07999C11.0853 2.81312 10.3503 2.36906 10.0441 1.55749C9.95656 1.31687 9.72031 1.16594 9.46656 1.19C9.44906 1.19 9.43156 1.19 9.41406 1.19ZM9.37906 2.44999C9.92812 3.30312 10.7331 3.87843 11.5666 4.14749C12.5772 4.47343 13.5528 4.51499 13.9991 4.51499C14.4453 4.51499 15.4209 4.47343 16.4316 4.14749C17.265 3.87843 18.07 3.30312 18.6191 2.44999L26.7916 6.49249L25.5141 11.55L22.0491 10.1675C21.8675 10.0931 21.6575 10.1194 21.5 10.2375C21.3425 10.3556 21.2572 10.5481 21.2791 10.745C21.2791 10.745 22.1475 18.5456 21.3141 23.7475C19.0544 24.4256 17.8425 25.5588 17.2891 26.6C16.9872 27.1666 16.8603 27.6806 16.8166 28.07H11.1816C11.1378 27.6806 11.0109 27.1666 10.7091 26.6C10.1556 25.5588 8.94374 24.4256 6.68406 23.7475C5.74124 17.7713 6.71906 11.9 6.71906 11.9C6.74968 11.725 6.69281 11.5435 6.56812 11.4166C6.44343 11.2897 6.26624 11.2285 6.08906 11.2525L2.51906 11.69L1.20656 6.49249L9.37906 2.44999ZM13.9991 7.90999C13.2137 7.90999 12.7237 8.49843 12.4416 8.95999C12.2841 9.21812 12.2819 9.29468 12.2141 9.46749C11.9537 9.47406 11.6169 9.49593 11.2341 9.64249C10.7966 9.81093 10.3197 10.185 10.1491 10.7975C9.93249 11.5741 10.2891 12.2588 10.6391 12.67C10.8359 12.9019 10.9125 12.9281 11.0591 13.0375C11.0109 13.2125 10.9759 13.2869 10.9541 13.5975C10.9169 14.1313 10.9912 14.875 11.5841 15.3825C11.8837 15.6385 12.2534 15.75 12.5816 15.75C13.2706 15.75 13.7366 15.4656 14.0341 15.2425C14.3469 15.4372 14.8194 15.68 15.4866 15.68C15.7731 15.68 16.0816 15.621 16.3616 15.435C16.6897 15.2163 16.8866 14.8728 16.9741 14.56C17.0616 14.2472 17.0616 13.941 17.0441 13.6675C17.0222 13.3131 16.985 13.1994 16.9391 13.02C17.0769 12.9041 17.1578 12.8669 17.3591 12.6175C17.6937 12.2019 18.0656 11.5456 17.8666 10.7975C17.6828 10.1106 17.0725 9.77593 16.5891 9.62499C16.2456 9.51781 16.04 9.53093 15.8191 9.51999C15.7556 9.34718 15.7316 9.24437 15.5566 8.95999C15.2744 8.49843 14.7844 7.90999 13.9991 7.90999ZM13.9991 9.02999C14.185 9.02999 14.4169 9.22031 14.6116 9.53749C14.8062 9.85468 14.9091 10.185 14.9091 10.185L15.0316 10.605L15.4516 10.5875H15.5041C15.6178 10.5875 15.9569 10.6006 16.2566 10.6925C16.5562 10.7844 16.7312 10.9069 16.7816 11.095C16.845 11.3313 16.7116 11.6353 16.4841 11.9175C16.2566 12.1997 15.9941 12.3725 15.9941 12.3725L15.6616 12.6175L15.8016 13.0025C15.8016 13.0025 15.9 13.3525 15.9241 13.7375C15.9372 13.93 15.9262 14.1269 15.8891 14.2625C15.8519 14.3981 15.8103 14.4485 15.7491 14.49C15.6812 14.5338 15.6047 14.56 15.4866 14.56C15.0687 14.56 14.3316 14.1225 14.3316 14.1225L13.9816 13.86L13.6316 14.14C13.6316 14.14 12.9469 14.63 12.5816 14.63C12.4656 14.63 12.4066 14.6169 12.3191 14.5425C12.1134 14.3653 12.0478 14.0438 12.0741 13.685C12.1003 13.3263 12.2141 13.02 12.2141 13.02L12.3541 12.6L11.9691 12.355C11.9691 12.355 11.7197 12.1953 11.4966 11.935C11.2734 11.6747 11.1312 11.4013 11.2166 11.095C11.28 10.8697 11.4069 10.78 11.6366 10.6925C11.8662 10.605 12.1747 10.57 12.3541 10.57C12.4591 10.57 12.5116 10.5875 12.5116 10.5875L12.9666 10.64L13.1066 10.185C13.1066 10.185 13.2094 9.85468 13.4041 9.53749C13.5987 9.22031 13.8153 9.02999 13.9991 9.02999ZM13.9991 10.7625C13.5987 10.7625 13.9291 11.8475 13.9291 11.8475C13.9291 11.8475 13.0562 11.1956 12.9141 11.585C12.7719 11.9766 13.8941 11.97 13.8941 11.97C13.8941 11.97 13.0453 12.6263 13.3341 12.88C13.6228 13.1338 13.9991 12.0575 13.9991 12.0575C13.9991 12.0575 14.3469 13.1425 14.6641 12.88C14.9812 12.6175 14.1041 11.97 14.1041 11.97C14.1041 11.97 15.2328 11.9744 15.0841 11.585C14.9353 11.1956 14.0691 11.8475 14.0691 11.8475C14.0691 11.8475 14.3994 10.7625 13.9991 10.7625Z" fill="#999999"/>
</g>
</g>
<defs>
<clipPath id="clip0_2511_1895">
<rect width="28" height="29" fill="white" transform="translate(0 0.5)"/>
</clipPath>
</defs>
</svg>
