<svg width="29" height="29" viewBox="0 0 29 29" fill="none" xmlns="http://www.w3.org/2000/svg">
<path d="M4.88818 6.49067V12.4907M4.88818 12.4907H10.8882M4.88818 12.4907L9.52818 8.13067C10.9091 6.75209 12.7006 5.85964 14.6329 5.58779C16.5651 5.31593 18.5333 5.67941 20.241 6.62344C21.9487 7.56747 23.3033 9.04091 24.1008 10.8218C24.8983 12.6026 25.0954 14.5944 24.6624 16.497C24.2294 18.3996 23.1899 20.11 21.7003 21.3704C20.2108 22.6308 18.3519 23.373 16.4039 23.4851C14.4559 23.5973 12.5242 23.0732 10.8998 21.992C9.27552 20.9109 8.04658 19.331 7.39818 17.4907" stroke="#999999" stroke-linecap="round" stroke-linejoin="round"/>
</svg>
