<svg width="29" height="30" viewBox="0 0 29 30" fill="none" xmlns="http://www.w3.org/2000/svg">
<mask id="mask0_2511_1909" style="mask-type:luminance" maskUnits="userSpaceOnUse" x="4" y="4" width="21" height="21">
<path d="M22.1447 4.90674H6.14465C5.04008 4.90674 4.14465 5.80217 4.14465 6.90674V10.9068C4.14465 12.0113 5.04008 12.9068 6.14465 12.9068H22.1447C23.2492 12.9068 24.1447 12.0113 24.1447 10.9068V6.90674C24.1447 5.80217 23.2492 4.90674 22.1447 4.90674Z" fill="white"/>
<path d="M22.1447 16.9067H6.14465C5.04008 16.9067 4.14465 17.8021 4.14465 18.9067V22.9067C4.14465 24.0112 5.04008 24.9067 6.14465 24.9067H22.1447C23.2492 24.9067 24.1447 24.0112 24.1447 22.9067V18.9067C24.1447 17.8021 23.2492 16.9067 22.1447 16.9067Z" fill="white"/>
<path d="M9.14465 20.9067C9.14465 21.4589 8.69694 21.9067 8.14465 21.9067C7.59237 21.9067 7.14465 21.4589 7.14465 20.9067C7.14465 20.3544 7.59237 19.9067 8.14465 19.9067C8.69694 19.9067 9.14465 20.3544 9.14465 20.9067Z" fill="white"/>
<path d="M9.14465 8.90674C9.14465 9.45903 8.69694 9.90674 8.14465 9.90674C7.59237 9.90674 7.14465 9.45903 7.14465 8.90674C7.14465 8.35446 7.59237 7.90674 8.14465 7.90674C8.69694 7.90674 9.14465 8.35446 9.14465 8.90674Z" fill="white"/>
</mask>
<g mask="url(#mask0_2511_1909)">
<path d="M6.14465 5.90674H22.1447V3.90674H6.14465V5.90674ZM22.1447 5.90674C22.6969 5.90674 23.1447 6.35446 23.1447 6.90674H25.1447C25.1447 5.24989 23.8015 3.90674 22.1447 3.90674V5.90674ZM23.1447 6.90674V10.9068H25.1447V6.90674H23.1447ZM23.1447 10.9068C23.1447 11.459 22.6969 11.9068 22.1447 11.9068V13.9068C23.8015 13.9068 25.1447 12.5636 25.1447 10.9068H23.1447ZM22.1447 11.9068H6.14465V13.9068H22.1447V11.9068ZM6.14465 11.9068C5.59237 11.9068 5.14465 11.459 5.14465 10.9068H3.14465C3.14465 12.5636 4.4878 13.9068 6.14465 13.9068V11.9068ZM5.14465 10.9068V6.90674H3.14465V10.9068H5.14465ZM5.14465 6.90674C5.14465 6.35446 5.59237 5.90674 6.14465 5.90674V3.90674C4.4878 3.90674 3.14465 5.24989 3.14465 6.90674H5.14465ZM6.14465 17.9068H22.1447V15.9068H6.14465V17.9068ZM22.1447 17.9068C22.6969 17.9068 23.1447 18.3545 23.1447 18.9068H25.1447C25.1447 17.2499 23.8015 15.9068 22.1447 15.9068V17.9068ZM23.1447 18.9068V22.9068H25.1447V18.9068H23.1447ZM23.1447 22.9068C23.1447 23.459 22.6969 23.9068 22.1447 23.9068V25.9068C23.8015 25.9068 25.1447 24.5636 25.1447 22.9068H23.1447ZM22.1447 23.9068H6.14465V25.9068H22.1447V23.9068ZM6.14465 23.9068C5.59237 23.9068 5.14465 23.459 5.14465 22.9068H3.14465C3.14465 24.5636 4.4878 25.9068 6.14465 25.9068V23.9068ZM5.14465 22.9068V18.9068H3.14465V22.9068H5.14465ZM5.14465 18.9068C5.14465 18.3545 5.59237 17.9068 6.14465 17.9068V15.9068C4.4878 15.9068 3.14465 17.2499 3.14465 18.9068H5.14465ZM8.14465 20.9068V22.9068C9.24922 22.9068 10.1447 22.0113 10.1447 20.9068H8.14465ZM8.14465 20.9068H6.14465C6.14465 22.0113 7.04008 22.9068 8.14465 22.9068V20.9068ZM8.14465 20.9068V18.9068C7.04008 18.9068 6.14465 19.8022 6.14465 20.9068H8.14465ZM8.14465 20.9068H10.1447C10.1447 19.8022 9.24922 18.9068 8.14465 18.9068V20.9068ZM8.14465 8.90674V10.9068C9.24922 10.9068 10.1447 10.0113 10.1447 8.90674H8.14465ZM8.14465 8.90674H6.14465C6.14465 10.0113 7.04008 10.9068 8.14465 10.9068V8.90674ZM8.14465 8.90674V6.90674C7.04008 6.90674 6.14465 7.80217 6.14465 8.90674H8.14465ZM8.14465 8.90674H10.1447C10.1447 7.80217 9.24922 6.90674 8.14465 6.90674V8.90674Z" fill="#999999"/>
</g>
</svg>
