<svg width="28" height="29" viewBox="0 0 28 29" fill="none" xmlns="http://www.w3.org/2000/svg">
<path d="M10.59 16.01L17.42 19.99M17.41 9.01L10.59 12.99M23 7.5C23 9.15685 21.6569 10.5 20 10.5C18.3431 10.5 17 9.15685 17 7.5C17 5.84315 18.3431 4.5 20 4.5C21.6569 4.5 23 5.84315 23 7.5ZM11 14.5C11 16.1569 9.65685 17.5 8 17.5C6.34315 17.5 5 16.1569 5 14.5C5 12.8431 6.34315 11.5 8 11.5C9.65685 11.5 11 12.8431 11 14.5ZM23 21.5C23 23.1569 21.6569 24.5 20 24.5C18.3431 24.5 17 23.1569 17 21.5C17 19.8431 18.3431 18.5 20 18.5C21.6569 18.5 23 19.8431 23 21.5Z" stroke="#999999" stroke-linecap="round" stroke-linejoin="round"/>
</svg>
