<svg width="28" height="30" viewBox="0 0 28 30" fill="none" xmlns="http://www.w3.org/2000/svg">
<mask id="mask0_2511_1928" style="mask-type:luminance" maskUnits="userSpaceOnUse" x="0" y="1" width="28" height="29">
<path d="M28 1.18896H0V29.189H28V1.18896Z" fill="white"/>
</mask>
<g mask="url(#mask0_2511_1928)">
<path d="M14 1.74902C12.0575 1.74902 10.8566 2.17996 10.535 2.30902C10.4781 2.32433 10.4256 2.3484 10.3775 2.37902C10.3709 2.37902 10.3666 2.37902 10.36 2.37902C10.3491 2.3834 10.3359 2.38996 10.325 2.39652C10.3184 2.40308 10.3141 2.40746 10.3075 2.41402C10.2966 2.4184 10.2834 2.42496 10.2725 2.43152C10.2659 2.43808 10.2616 2.44246 10.255 2.44902C10.2353 2.46433 10.2178 2.48183 10.2025 2.50152C10.1959 2.51246 10.1894 2.52558 10.185 2.53652C10.1784 2.54308 10.1741 2.54746 10.1675 2.55402C10.1609 2.56496 10.1544 2.57808 10.15 2.58902L9.1525 4.05902L6.5975 4.88152C6.5625 4.89027 6.52531 4.90121 6.4925 4.91652C5.99594 5.0784 5.40969 5.4459 4.76 6.10652C4.05125 6.8284 3.3075 7.8784 2.765 9.34402C2.345 10.4772 1.66688 12.2556 1.085 13.8765C0.794063 14.6881 0.527187 15.4472 0.3325 16.099C0.137813 16.7509 0 17.2409 0 17.674V25.829C0 26.1375 0.251563 26.389 0.56 26.389H4.48C4.78844 26.389 5.04 26.1375 5.04 25.829V18.0065C5.04 18.0087 5.04 18.0065 5.04 17.989C5.04438 17.9628 5.05969 17.8972 5.0925 17.814C5.145 17.6806 5.23469 17.5078 5.3375 17.3065C5.54094 16.9019 5.82531 16.3987 6.1075 15.924C6.13375 15.8781 6.13375 15.8825 6.16 15.8365V28.069C6.16 28.3775 6.41156 28.629 6.72 28.629H21.28C21.5884 28.629 21.84 28.3775 21.84 28.069L21.805 16.9215V16.904L21.8225 15.8015C21.8597 15.8628 21.8553 15.8606 21.8925 15.924C22.1747 16.3987 22.4591 16.9019 22.6625 17.3065C22.7653 17.5078 22.855 17.6806 22.9075 17.814C22.9469 17.9147 22.9578 17.9978 22.96 18.0065V25.829C22.96 26.1375 23.2116 26.389 23.52 26.389H27.44C27.7484 26.389 28 26.1375 28 25.829V17.674C28 17.2409 27.8622 16.7509 27.6675 16.099C27.4728 15.4472 27.2059 14.6881 26.915 13.8765C26.3331 12.2556 25.655 10.4772 25.235 9.34402C24.6925 7.8784 23.9488 6.8284 23.24 6.10652C22.5838 5.43933 21.9909 5.07402 21.49 4.91652C21.4616 4.9034 21.4331 4.89027 21.4025 4.88152L18.8475 4.05902L17.8675 2.60652C17.8566 2.58902 17.8456 2.57152 17.8325 2.55402C17.8216 2.5409 17.8106 2.52996 17.7975 2.51902C17.7975 2.51246 17.7975 2.50808 17.7975 2.50152C17.745 2.44246 17.6794 2.39433 17.605 2.36152C17.605 2.36152 17.5897 2.34402 17.5875 2.34402C17.5547 2.32871 17.5175 2.31777 17.4825 2.30902C17.1894 2.1909 15.9797 1.74902 14 1.74902ZM14 2.86902C15.3584 2.86902 16.2247 3.06808 16.695 3.21902C16.6141 3.5034 16.4872 3.87308 16.2575 4.26902C15.8288 5.0084 15.1922 5.66902 14 5.66902C12.8078 5.66902 12.1713 5.0084 11.7425 4.26902C11.5128 3.87308 11.3859 3.5034 11.305 3.21902C11.7753 3.06808 12.6416 2.86902 14 2.86902ZM10.4825 4.12902C10.5766 4.36308 10.6334 4.57527 10.78 4.82902C11.1234 5.42183 11.6638 6.0584 12.425 6.43902L10.9375 7.92652L10.1325 4.67152L10.4825 4.12902ZM17.5175 4.12902L17.8675 4.67152L17.0625 7.92652L15.575 6.43902C16.3363 6.0584 16.8766 5.42183 17.22 4.82902C17.3666 4.57527 17.4234 4.36308 17.5175 4.12902ZM9.1175 5.26652L10.0975 9.16902C10.1456 9.36808 10.2966 9.52558 10.4934 9.58027C10.6881 9.63277 10.9003 9.57808 11.0425 9.43152L13.72 6.75402C13.8141 6.76058 13.9016 6.78902 14 6.78902C14.0984 6.78902 14.1859 6.76058 14.28 6.75402L16.9575 9.43152C17.0997 9.57808 17.3119 9.63277 17.5066 9.58027C17.7034 9.52558 17.8544 9.36808 17.9025 9.16902L18.8825 5.26652L20.615 5.80902C20.5406 6.1634 20.3678 6.93558 20.2475 8.41652C20.1163 10.0375 20.1338 12.0194 20.6325 13.754C20.6369 13.7715 20.6434 13.789 20.65 13.8065C20.6522 13.8109 20.6478 13.8197 20.65 13.824C20.6588 13.8787 20.6763 13.9312 20.7025 13.9815C20.7113 14.01 20.7113 14.0406 20.72 14.069L20.685 16.904L20.72 27.509H7.28V14.139C8.08281 12.6209 8.05438 10.5231 7.875 8.71402C7.71531 7.11715 7.49 6.18746 7.4025 5.80902L9.1175 5.26652ZM6.37 6.24652C6.49688 6.83277 6.65875 7.67715 6.7725 8.81902C6.92563 10.3612 6.88844 12.1397 6.475 13.2815C6.40063 13.3362 6.33938 13.4084 6.3 13.4915C6.3 13.4915 5.7225 14.3906 5.145 15.364C4.85625 15.8519 4.56313 16.355 4.34 16.799C4.22844 17.0222 4.13219 17.2234 4.06 17.4115C3.98781 17.5997 3.92 17.7462 3.92 17.989V25.269H1.12V17.674C1.12 17.5647 1.21406 17.0506 1.4 16.4315C1.58594 15.8125 1.84844 15.0447 2.135 14.244C2.71031 12.6428 3.38844 10.8972 3.815 9.74652C4.305 8.42746 4.96781 7.50215 5.565 6.89402C5.84938 6.60527 6.13813 6.40183 6.37 6.24652ZM21.6475 6.24652C21.8772 6.39965 22.155 6.60965 22.435 6.89402C23.0322 7.50215 23.695 8.42746 24.185 9.74652C24.6116 10.8972 25.2897 12.6428 25.865 14.244C26.1516 15.0447 26.4141 15.8125 26.6 16.4315C26.7859 17.0506 26.88 17.5647 26.88 17.674V25.269H24.08V17.989C24.08 17.7462 24.0122 17.5997 23.94 17.4115C23.8678 17.2234 23.7716 17.0222 23.66 16.799C23.4369 16.355 23.1438 15.8519 22.855 15.364C22.2775 14.3906 21.7 13.4915 21.7 13.4915C21.6847 13.4609 21.6672 13.4325 21.6475 13.404C21.2341 11.9056 21.2428 10.0397 21.3675 8.50402C21.4484 7.51746 21.5534 6.78027 21.6475 6.24652Z" fill="#999999"/>
</g>
</svg>
