<svg width="29" height="30" viewBox="0 0 29 30" fill="none" xmlns="http://www.w3.org/2000/svg">
<path d="M5.85767 8.7959L8.85767 4.7959H20.8577L23.8577 8.7959M5.85767 8.7959V22.7959C5.85767 23.3263 6.06838 23.835 6.44345 24.2101C6.81853 24.5852 7.32723 24.7959 7.85767 24.7959H21.8577C22.3881 24.7959 22.8968 24.5852 23.2719 24.2101C23.647 23.835 23.8577 23.3263 23.8577 22.7959V8.7959M5.85767 8.7959H23.8577M18.8577 12.7959C18.8577 13.8568 18.4362 14.8742 17.6861 15.6243C16.9359 16.3745 15.9185 16.7959 14.8577 16.7959C13.7968 16.7959 12.7794 16.3745 12.0292 15.6243C11.2791 14.8742 10.8577 13.8568 10.8577 12.7959" stroke="#999999" stroke-linecap="round" stroke-linejoin="round"/>
</svg>
