<svg width="29" height="30" viewBox="0 0 29 30" fill="none" xmlns="http://www.w3.org/2000/svg">
<path d="M5.38501 8.71387L8.38501 4.71387H20.385L23.385 8.71387M5.38501 8.71387V22.7139C5.38501 23.2443 5.59572 23.753 5.9708 24.1281C6.34587 24.5032 6.85458 24.7139 7.38501 24.7139H21.385C21.9154 24.7139 22.4242 24.5032 22.7992 24.1281C23.1743 23.753 23.385 23.2443 23.385 22.7139V8.71387M5.38501 8.71387H23.385M18.385 12.7139C18.385 13.7747 17.9636 14.7921 17.2134 15.5423C16.4633 16.2924 15.4459 16.7139 14.385 16.7139C13.3241 16.7139 12.3067 16.2924 11.5566 15.5423C10.8064 14.7921 10.385 13.7747 10.385 12.7139" stroke="#999999" stroke-linecap="round" stroke-linejoin="round"/>
</svg>
