<svg width="28" height="30" viewBox="0 0 28 30" fill="none" xmlns="http://www.w3.org/2000/svg">
<path d="M7.84 2.8689C4.13533 2.8689 1.12 5.88423 1.12 9.5889V16.3089H1.14843C1.13788 16.402 1.12 16.4932 1.12 16.5889C1.12 17.4541 1.56241 18.2215 2.23234 18.6758L2.91156 23.6972C3.20866 25.8762 5.07788 27.5089 7.27781 27.5089H7.28218C9.48163 27.5089 11.3513 25.8768 11.6484 23.6972L12.3277 18.6758C12.9976 18.2215 13.44 17.4541 13.44 16.5889C13.44 16.4932 13.4221 16.402 13.4116 16.3089H13.44V8.4689C13.44 5.38255 10.9263 2.8689 7.84 2.8689ZM20.16 2.8689C17.0736 2.8689 14.56 5.38255 14.56 8.4689V16.3089H14.5884C14.5779 16.402 14.56 16.4932 14.56 16.5889C14.56 17.4541 15.0024 18.2215 15.6723 18.6758L16.3516 23.6972C16.6487 25.8768 18.5184 27.5089 20.7178 27.5089H20.7222C22.9221 27.5089 24.7913 25.8762 25.0884 23.6972L25.7677 18.6758C26.4376 18.2215 26.88 17.4541 26.88 16.5889C26.88 16.4932 26.8621 16.402 26.8516 16.3089H26.88V9.5889C26.88 5.88423 23.8647 2.8689 20.16 2.8689ZM7.84 3.9889C10.3212 3.9889 12.32 5.98772 12.32 8.4689V14.4977C11.9188 14.2276 11.4368 14.0689 10.92 14.0689H10.9156C10.4796 13.0917 9.5356 12.3889 8.39999 12.3889C7.98658 12.3889 7.62643 12.5393 7.28 12.6985C6.93356 12.5393 6.5734 12.3889 6.16 12.3889C5.02402 12.3889 4.08024 13.0918 3.64437 14.0689H3.64C3.12318 14.0689 2.64118 14.2276 2.24 14.4977V9.5889C2.24 6.48956 4.74066 3.9889 7.84 3.9889ZM20.16 3.9889C23.2593 3.9889 25.76 6.48956 25.76 9.5889V14.4977C25.3588 14.2276 24.8768 14.0689 24.36 14.0689H24.3556C23.9197 13.0918 22.976 12.3889 21.84 12.3889C21.4266 12.3889 21.0664 12.5393 20.72 12.6985C20.3736 12.5393 20.0134 12.3889 19.6 12.3889C18.4644 12.3889 17.5203 13.0917 17.0844 14.0689H17.08C16.5632 14.0689 16.0812 14.2276 15.68 14.4977V8.4689C15.68 5.98772 17.6788 3.9889 20.16 3.9889ZM6.16 13.5089C6.4623 13.5089 6.7426 13.5942 6.99781 13.743C7.08346 13.793 7.18084 13.8193 7.28 13.8193C7.37915 13.8193 7.47653 13.793 7.56218 13.743C7.81739 13.5942 8.09768 13.5089 8.39999 13.5089C9.18577 13.5089 9.82999 14.0444 10.0177 14.7689C10.0487 14.8892 10.1189 14.9957 10.2171 15.0717C10.3153 15.1478 10.436 15.189 10.5602 15.1889H10.92C11.6998 15.1889 12.32 15.8091 12.32 16.5889C12.32 17.3688 11.6998 17.9889 10.92 17.9889C10.5581 17.9889 10.2359 17.8508 9.98265 17.6203C9.87492 17.5223 9.73322 17.4701 9.58763 17.4748C9.44203 17.4795 9.304 17.5407 9.20281 17.6455C8.99754 17.8583 8.71827 17.9889 8.39999 17.9889C8.11274 17.9889 7.85899 17.8804 7.65515 17.6969C7.55225 17.6041 7.41858 17.5527 7.28 17.5527C7.14141 17.5527 7.00774 17.6041 6.90484 17.6969C6.701 17.8804 6.44724 17.9889 6.16 17.9889C5.84171 17.9889 5.56245 17.8583 5.35718 17.6455C5.25599 17.5407 5.11796 17.4795 4.97236 17.4748C4.82677 17.4701 4.68507 17.5223 4.57734 17.6203C4.32406 17.8508 4.0019 17.9889 3.64 17.9889C2.86016 17.9889 2.24 17.3688 2.24 16.5889C2.24 15.8091 2.86016 15.1889 3.64 15.1889H3.99984C4.12403 15.189 4.24472 15.1478 4.34293 15.0717C4.44113 14.9957 4.51128 14.8892 4.54234 14.7689C4.73005 14.0442 5.37352 13.5089 6.16 13.5089ZM19.6 13.5089C19.9023 13.5089 20.1826 13.5942 20.4378 13.743C20.5235 13.793 20.6208 13.8193 20.72 13.8193C20.8192 13.8193 20.9165 13.793 21.0022 13.743C21.2574 13.5942 21.5377 13.5089 21.84 13.5089C22.6265 13.5089 23.2699 14.0442 23.4577 14.7689C23.4887 14.8892 23.5589 14.9957 23.6571 15.0717C23.7553 15.1478 23.876 15.189 24.0002 15.1889H24.36C25.1398 15.1889 25.76 15.8091 25.76 16.5889C25.76 17.3688 25.1398 17.9889 24.36 17.9889C23.9981 17.9889 23.6759 17.8508 23.4227 17.6203C23.3149 17.5223 23.1732 17.4701 23.0276 17.4748C22.882 17.4795 22.744 17.5407 22.6428 17.6455C22.4375 17.8583 22.1583 17.9889 21.84 17.9889C21.5528 17.9889 21.299 17.8804 21.0952 17.6969C20.9923 17.6041 20.8586 17.5527 20.72 17.5527C20.5814 17.5527 20.4477 17.6041 20.3448 17.6969C20.141 17.8804 19.8872 17.9889 19.6 17.9889C19.2817 17.9889 19.0025 17.8583 18.7972 17.6455C18.696 17.5407 18.558 17.4795 18.4124 17.4748C18.2668 17.4701 18.1251 17.5223 18.0173 17.6203C17.7641 17.8508 17.4419 17.9889 17.08 17.9889C16.3002 17.9889 15.68 17.3688 15.68 16.5889C15.68 15.8091 16.3002 15.1889 17.08 15.1889H17.4398C17.564 15.189 17.6847 15.1478 17.7829 15.0717C17.8811 14.9957 17.9513 14.8892 17.9823 14.7689C18.17 14.0444 18.8142 13.5089 19.6 13.5089ZM4.94046 18.6933C5.29661 18.9329 5.70011 19.1089 6.16 19.1089C6.57758 19.1089 6.94762 18.9626 7.28 18.7633C7.61237 18.9626 7.9824 19.1089 8.39999 19.1089C8.85987 19.1089 9.26337 18.9329 9.61952 18.6933C10.0029 18.9331 10.4334 19.1089 10.92 19.1089C10.9959 19.1089 11.0677 19.0926 11.142 19.086L10.5383 23.5463C10.3157 25.1792 8.92994 26.3889 7.28218 26.3889H7.27781C5.62976 26.3889 4.24475 25.1792 4.02171 23.5474V23.5463L3.41687 19.086C3.4915 19.0927 3.5637 19.1089 3.64 19.1089C4.1266 19.1089 4.55711 18.9331 4.94046 18.6933ZM18.3805 18.6933C18.7366 18.9329 19.1401 19.1089 19.6 19.1089C20.0176 19.1089 20.3876 18.9626 20.72 18.7633C21.0524 18.9626 21.4224 19.1089 21.84 19.1089C22.2999 19.1089 22.7034 18.9329 23.0595 18.6933C23.4429 18.9331 23.8734 19.1089 24.36 19.1089C24.4363 19.1089 24.5085 19.0927 24.5831 19.086L23.9783 23.5474C23.7552 25.1792 22.3702 26.3889 20.7222 26.3889H20.7178C19.0701 26.3889 17.6843 25.1792 17.4617 23.5463L16.858 19.086C16.9322 19.0926 17.0041 19.1089 17.08 19.1089C17.5666 19.1089 17.9971 18.9331 18.3805 18.6933Z" fill="#999999"/>
</svg>
