<svg width="28" height="30" viewBox="0 0 28 30" fill="none" xmlns="http://www.w3.org/2000/svg">
<path d="M10.5875 2.29135C10.5635 2.29572 10.5394 2.30229 10.5175 2.30885C10.2572 2.36791 10.0735 2.60197 10.08 2.86885V4.44385C10.01 4.60354 9.74316 5.22041 9.46754 6.07135C9.15473 7.03822 8.83535 8.16041 8.96004 9.09885C9.14379 10.4682 9.55285 11.7588 9.52004 12.9313C9.46973 14.6398 8.6691 16.4598 8.17254 18.3388C7.42879 21.1476 7.1641 24.4792 6.73754 26.8438C6.68066 27.1326 6.85785 27.4148 7.14004 27.4913C7.14004 27.4913 9.4741 28.0688 14 28.0688C18.526 28.0688 20.86 27.4913 20.86 27.4913C21.1422 27.4148 21.3194 27.1326 21.2625 26.8438C20.836 24.4792 20.5713 21.1476 19.8275 18.3388C19.331 16.4598 18.5304 14.6398 18.48 12.9313C18.4472 11.7588 18.8563 10.4682 19.04 9.09885C19.1647 8.16041 18.8454 7.03822 18.5325 6.07135C18.2569 5.22041 17.99 4.60354 17.92 4.44385V2.86885C17.9244 2.69604 17.8479 2.53197 17.7144 2.4226C17.5832 2.31322 17.406 2.27166 17.2375 2.30885C16.9772 2.36791 16.7935 2.60197 16.8 2.86885V4.54885C16.8 7.22197 14.5097 8.99603 14 9.37885C13.4882 9.0026 11.2 7.25697 11.2 4.54885C11.2 4.53135 11.2 4.51385 11.2 4.49635V2.86885C11.2066 2.70697 11.141 2.55166 11.025 2.44229C10.9069 2.33072 10.7472 2.27604 10.5875 2.29135ZM10.5 6.64885C11.4341 9.14041 13.685 10.6213 13.685 10.6213C13.8754 10.7504 14.1247 10.7504 14.315 10.6213C14.315 10.6213 16.5638 9.12072 17.5 6.64885C17.7582 7.50635 17.9813 8.49728 17.92 8.95885C17.756 10.1904 17.3185 11.5292 17.36 12.9663C17.4191 14.9898 18.2963 16.8863 18.76 18.6363C19.4163 21.1082 19.6963 24.0832 20.09 26.4763C19.5388 26.5945 17.7669 26.9488 14 26.9488C10.2332 26.9488 8.46129 26.5945 7.91004 26.4763C8.30379 24.0832 8.58379 21.1082 9.24004 18.6363C9.70379 16.8863 10.581 14.9898 10.64 12.9663C10.6816 11.5292 10.2441 10.1904 10.08 8.95885C10.0188 8.49728 10.2419 7.50635 10.5 6.64885Z" fill="#999999"/>
</svg>
