<svg width="28" height="30" viewBox="0 0 28 30" fill="none" xmlns="http://www.w3.org/2000/svg">
<g clip-path="url(#clip0_2511_1964)">
<mask id="mask0_2511_1964" style="mask-type:luminance" maskUnits="userSpaceOnUse" x="0" y="1" width="28" height="29">
<path d="M28 1.18896H0V29.189H28V1.18896Z" fill="white"/>
</mask>
<g mask="url(#mask0_2511_1964)">
<path d="M14.0351 1.18896C12.6001 1.18896 11.5304 1.23928 10.7276 1.41646C10.3251 1.50615 9.98166 1.63303 9.6951 1.83646C9.40853 2.0399 9.18103 2.3549 9.1351 2.71146C9.10666 2.92365 9.10228 2.91709 9.0476 3.07896C8.99291 3.24084 8.9251 3.50115 8.8376 4.02396C8.58166 5.57053 7.80072 5.48303 7.0876 6.24646C7.06135 6.2749 7.02635 6.28584 7.0001 6.31646C6.15791 6.92896 5.6001 7.91334 5.6001 9.02896V21.3489C5.6001 22.4646 6.15791 23.4489 7.0001 24.0614C7.00666 24.068 7.01103 24.0724 7.0176 24.0789C7.04166 24.0964 7.06353 24.1161 7.0876 24.1314C7.7876 24.8839 8.54666 24.8227 8.8376 26.3714C8.9251 26.8418 8.99947 27.078 9.0476 27.2289C9.09572 27.3799 9.10228 27.4193 9.1351 27.6664C9.17885 28.0121 9.39978 28.3205 9.6776 28.5239C9.95541 28.7274 10.2813 28.8521 10.6751 28.9439C11.4626 29.1277 12.5279 29.1889 13.9651 29.1889C15.4001 29.1889 16.4698 29.1386 17.2726 28.9614C17.6751 28.8718 18.0185 28.7449 18.3051 28.5414C18.5917 28.338 18.8192 28.023 18.8651 27.6664C18.8935 27.4543 18.8979 27.4608 18.9526 27.2989C19.0073 27.1371 19.0751 26.8768 19.1626 26.3539C19.4185 24.8074 20.1995 24.8949 20.9126 24.1314C20.9367 24.1161 20.9585 24.0964 20.9826 24.0789C20.9892 24.0724 20.9935 24.068 21.0001 24.0614C21.8423 23.4489 22.4001 22.4646 22.4001 21.3489V20.2289C22.7085 20.2289 22.9601 19.9774 22.9601 19.6689V16.3089C22.9601 16.0005 22.7085 15.7489 22.4001 15.7489V14.0689C23.0235 14.023 23.5201 13.4958 23.5201 12.8614V10.7964C23.5201 10.1621 23.0235 9.6349 22.4001 9.58896V9.02896C22.4001 7.91334 21.8423 6.92896 21.0001 6.31646C20.9935 6.3099 20.9892 6.30553 20.9826 6.29896C20.9585 6.28146 20.9367 6.26178 20.9126 6.24646C20.2126 5.49396 19.4535 5.55521 19.1626 4.00646C19.0751 3.53615 19.0007 3.2999 18.9526 3.14896C18.9045 2.99803 18.8979 2.95865 18.8651 2.71146C18.8213 2.36584 18.6004 2.0574 18.3226 1.85396C18.0448 1.65053 17.7188 1.52584 17.3251 1.43396C16.5376 1.25021 15.4723 1.18896 14.0351 1.18896ZM14.0351 2.30896C15.4373 2.30896 16.4676 2.37678 17.0801 2.51896C17.3863 2.59115 17.5679 2.68084 17.6576 2.74646C17.7473 2.81209 17.7385 2.82521 17.7451 2.86896C17.7845 3.16865 17.8392 3.33709 17.8851 3.48146C17.931 3.62584 17.9792 3.78115 18.0601 4.21646C18.176 4.83553 18.4035 5.29271 18.6551 5.66896H9.3626C9.61416 5.29053 9.83728 4.8224 9.9401 4.19896C10.021 3.71334 10.0735 3.55146 10.1151 3.42896C10.1567 3.30646 10.2179 3.15115 10.2551 2.86896C10.2617 2.82084 10.2485 2.81428 10.3426 2.74646C10.4367 2.67865 10.6379 2.58896 10.9551 2.51896C11.5873 2.37896 12.6307 2.30896 14.0351 2.30896ZM8.9601 6.78896H19.0401C20.2826 6.78896 21.2801 7.78646 21.2801 9.02896V10.2365C21.0942 10.5821 20.9651 11.0808 20.9651 11.8289C20.9651 12.5749 21.0963 13.0736 21.2801 13.4214V21.3489C21.2801 22.5914 20.2826 23.5889 19.0401 23.5889H8.9601C7.7176 23.5889 6.7201 22.5914 6.7201 21.3489V9.02896C6.7201 7.78646 7.7176 6.78896 8.9601 6.78896ZM16.2401 9.02896C15.3192 9.02896 14.5601 9.78803 14.5601 10.7089C14.5601 11.6299 15.3192 12.3889 16.2401 12.3889C17.161 12.3889 17.9201 11.6299 17.9201 10.7089C17.9201 9.78803 17.161 9.02896 16.2401 9.02896ZM12.0401 9.58896C11.2745 9.58896 10.6401 10.2233 10.6401 10.9889C10.6401 11.7546 11.2745 12.3889 12.0401 12.3889C12.8057 12.3889 13.4401 11.7546 13.4401 10.9889C13.4401 10.2233 12.8057 9.58896 12.0401 9.58896ZM16.2401 10.149C16.5551 10.149 16.8001 10.394 16.8001 10.7089C16.8001 11.0239 16.5551 11.2689 16.2401 11.2689C15.9251 11.2689 15.6801 11.0239 15.6801 10.7089C15.6801 10.394 15.9251 10.149 16.2401 10.149ZM9.2401 10.7089C8.77635 10.7089 8.4001 11.0852 8.4001 11.5489C8.4001 12.0127 8.77635 12.3889 9.2401 12.3889C9.70385 12.3889 10.0801 12.0127 10.0801 11.5489C10.0801 11.0852 9.70385 10.7089 9.2401 10.7089ZM12.0401 10.7089C12.202 10.7089 12.3201 10.8271 12.3201 10.9889C12.3201 11.1508 12.202 11.2689 12.0401 11.2689C11.8782 11.2689 11.7601 11.1508 11.7601 10.9889C11.7601 10.8271 11.8782 10.7089 12.0401 10.7089ZM22.3126 10.7089C22.3695 10.7089 22.4001 10.7396 22.4001 10.7964V12.8614C22.4001 12.9183 22.3695 12.9489 22.3126 12.9489H22.2951C22.2885 12.9402 22.2863 12.9446 22.2776 12.9314C22.2032 12.8111 22.0851 12.5049 22.0851 11.8289C22.0851 11.153 22.2207 10.8446 22.2951 10.7264C22.306 10.7089 22.3038 10.7199 22.3126 10.7089ZM14.0001 12.9489C12.7685 12.9489 11.7601 13.9574 11.7601 15.1889C11.7601 16.4205 12.7685 17.4289 14.0001 17.4289C15.2317 17.4289 16.2401 16.4205 16.2401 15.1889C16.2401 13.9574 15.2317 12.9489 14.0001 12.9489ZM9.5201 13.5089C8.59916 13.5089 7.8401 14.268 7.8401 15.1889C7.8401 16.1099 8.59916 16.8689 9.5201 16.8689C10.441 16.8689 11.2001 16.1099 11.2001 15.1889C11.2001 14.268 10.441 13.5089 9.5201 13.5089ZM18.4801 13.5089C17.5592 13.5089 16.8001 14.268 16.8001 15.1889C16.8001 16.1099 17.5592 16.8689 18.4801 16.8689C19.401 16.8689 20.1601 16.1099 20.1601 15.1889C20.1601 14.268 19.401 13.5089 18.4801 13.5089ZM14.0001 14.0689C14.6257 14.0689 15.1201 14.5633 15.1201 15.1889C15.1201 15.8146 14.6257 16.3089 14.0001 16.3089C13.3745 16.3089 12.8801 15.8146 12.8801 15.1889C12.8801 14.5633 13.3745 14.0689 14.0001 14.0689ZM9.5201 14.6289C9.8351 14.6289 10.0801 14.8739 10.0801 15.1889C10.0801 15.5039 9.8351 15.7489 9.5201 15.7489C9.2051 15.7489 8.9601 15.5039 8.9601 15.1889C8.9601 14.8739 9.2051 14.6289 9.5201 14.6289ZM18.4801 14.6289C18.7951 14.6289 19.0401 14.8739 19.0401 15.1889C19.0401 15.5039 18.7951 15.7489 18.4801 15.7489C18.1651 15.7489 17.9201 15.5039 17.9201 15.1889C17.9201 14.8739 18.1651 14.6289 18.4801 14.6289ZM18.7601 17.4289C18.2963 17.4289 17.9201 17.8052 17.9201 18.2689C17.9201 18.7327 18.2963 19.1089 18.7601 19.1089C19.2238 19.1089 19.6001 18.7327 19.6001 18.2689C19.6001 17.8052 19.2238 17.4289 18.7601 17.4289ZM11.7601 17.9889C10.8392 17.9889 10.0801 18.748 10.0801 19.6689C10.0801 20.5899 10.8392 21.3489 11.7601 21.3489C12.681 21.3489 13.4401 20.5899 13.4401 19.6689C13.4401 18.748 12.681 17.9889 11.7601 17.9889ZM15.9601 17.9889C15.1945 17.9889 14.5601 18.6233 14.5601 19.3889C14.5601 20.1546 15.1945 20.7889 15.9601 20.7889C16.7257 20.7889 17.3601 20.1546 17.3601 19.3889C17.3601 18.6233 16.7257 17.9889 15.9601 17.9889ZM11.7601 19.1089C12.0751 19.1089 12.3201 19.3539 12.3201 19.6689C12.3201 19.9839 12.0751 20.2289 11.7601 20.2289C11.4451 20.2289 11.2001 19.9839 11.2001 19.6689C11.2001 19.3539 11.4451 19.1089 11.7601 19.1089ZM15.9601 19.1089C16.122 19.1089 16.2401 19.2271 16.2401 19.3889C16.2401 19.5508 16.122 19.6689 15.9601 19.6689C15.7982 19.6689 15.6801 19.5508 15.6801 19.3889C15.6801 19.2271 15.7982 19.1089 15.9601 19.1089ZM9.3451 24.7089H18.6376C18.386 25.0874 18.1629 25.5555 18.0601 26.1789C17.9792 26.6646 17.9267 26.8264 17.8851 26.9489C17.8435 27.0714 17.7823 27.2268 17.7451 27.5089C17.7385 27.5571 17.7517 27.5636 17.6576 27.6314C17.5635 27.6993 17.3623 27.7889 17.0451 27.8589C16.4129 27.9989 15.3695 28.0689 13.9651 28.0689C12.5629 28.0689 11.5326 28.0011 10.9201 27.8589C10.6138 27.7868 10.4323 27.6971 10.3426 27.6314C10.2529 27.5658 10.2617 27.5527 10.2551 27.5089C10.2157 27.2093 10.161 27.0408 10.1151 26.8964C10.0692 26.7521 10.021 26.5968 9.9401 26.1614C9.82416 25.5424 9.59666 25.0852 9.3451 24.7089Z" fill="#999999"/>
</g>
</g>
<defs>
<clipPath id="clip0_2511_1964">
<rect width="28" height="29" fill="white" transform="translate(0 0.5)"/>
</clipPath>
</defs>
</svg>
