<svg width="29" height="30" viewBox="0 0 29 30" fill="none" xmlns="http://www.w3.org/2000/svg">
<mask id="mask0_2511_1958" style="mask-type:luminance" maskUnits="userSpaceOnUse" x="7" y="4" width="15" height="21">
<path d="M19.385 4.90674H9.38501C8.28044 4.90674 7.38501 5.80217 7.38501 6.90674V22.9068C7.38501 24.0113 8.28044 24.9068 9.38501 24.9068H19.385C20.4896 24.9068 21.385 24.0113 21.385 22.9068V6.90674C21.385 5.80217 20.4896 4.90674 19.385 4.90674Z" fill="white"/>
<path d="M15.385 20.9067C15.385 21.4589 14.9373 21.9067 14.385 21.9067C13.8327 21.9067 13.385 21.4589 13.385 20.9067C13.385 20.3544 13.8327 19.9067 14.385 19.9067C14.9373 19.9067 15.385 20.3544 15.385 20.9067Z" fill="white"/>
</mask>
<g mask="url(#mask0_2511_1958)">
<path d="M9.38501 5.90674H19.385V3.90674H9.38501V5.90674ZM19.385 5.90674C19.9373 5.90674 20.385 6.35446 20.385 6.90674H22.385C22.385 5.24989 21.0419 3.90674 19.385 3.90674V5.90674ZM20.385 6.90674V22.9068H22.385V6.90674H20.385ZM20.385 22.9068C20.385 23.459 19.9373 23.9068 19.385 23.9068V25.9068C21.0419 25.9068 22.385 24.5636 22.385 22.9068H20.385ZM19.385 23.9068H9.38501V25.9068H19.385V23.9068ZM9.38501 23.9068C8.83272 23.9068 8.38501 23.459 8.38501 22.9068H6.38501C6.38501 24.5636 7.72816 25.9068 9.38501 25.9068V23.9068ZM8.38501 22.9068V6.90674H6.38501V22.9068H8.38501ZM8.38501 6.90674C8.38501 6.35446 8.83272 5.90674 9.38501 5.90674V3.90674C7.72816 3.90674 6.38501 5.24989 6.38501 6.90674H8.38501ZM14.385 20.9068V22.9068C15.4896 22.9068 16.385 22.0113 16.385 20.9068H14.385ZM14.385 20.9068H12.385C12.385 22.0113 13.2804 22.9068 14.385 22.9068V20.9068ZM14.385 20.9068V18.9068C13.2804 18.9068 12.385 19.8022 12.385 20.9068H14.385ZM14.385 20.9068H16.385C16.385 19.8022 15.4896 18.9068 14.385 18.9068V20.9068Z" fill="#999999"/>
</g>
</svg>
