<svg width="28" height="30" viewBox="0 0 28 30" fill="none" xmlns="http://www.w3.org/2000/svg">
<mask id="mask0_2511_1970" style="mask-type:luminance" maskUnits="userSpaceOnUse" x="0" y="1" width="28" height="29">
<path d="M28 1.18896H0V29.189H28V1.18896Z" fill="white"/>
</mask>
<g mask="url(#mask0_2511_1970)">
<path d="M7.26358 3.98901C7.20889 3.99058 7.15472 4.00016 7.1028 4.01744C6.11407 4.34702 5.13089 5.10124 4.2689 5.90744C4.17203 5.99804 4.08502 6.08967 3.99218 6.18088C3.92736 6.22268 3.87188 6.27742 3.82921 6.34166C3.16966 7.00848 2.62674 7.66975 2.31983 8.18135C0.566393 11.1038 0.00764703 14.5371 0.00764703 14.5371C-0.00480961 14.6118 -0.00202488 14.6881 0.0158332 14.7616C0.0336913 14.8351 0.0662528 14.9042 0.111553 14.9648C0.112797 14.9665 0.114683 14.9676 0.115928 14.9692C0.139211 14.9999 0.165601 15.0281 0.194678 15.0534C1.33946 16.5507 2.78698 17.7912 4.45483 18.6715L17.2539 25.4287C18.2962 26.0882 19.5523 26.389 20.72 26.389C20.7463 26.3891 20.7727 26.3872 20.7987 26.3836L24.7187 25.8236L24.6859 25.8268C25.2309 25.7822 25.9927 25.6387 26.6842 25.2329C27.3757 24.8271 28 24.0731 28 23.029C28.0001 23.0111 27.9994 22.9932 27.9978 22.9754C27.9978 22.9754 27.9548 22.5281 27.883 22.0446C27.847 21.8029 27.8042 21.5516 27.7517 21.3282C27.7255 21.2166 27.6966 21.1132 27.6598 21.0111C27.6231 20.9089 27.5989 20.8113 27.4684 20.6687C27.4042 20.5989 27.3233 20.5466 27.2333 20.5167L23.263 19.1801L22.3212 18.2384L22.1353 17.7407L22.4733 17.5712C22.5872 17.5155 22.6789 17.4227 22.7332 17.3081C22.7876 17.1934 22.8014 17.0637 22.7724 16.9402C22.7434 16.8167 22.6734 16.7067 22.5737 16.6282C22.4741 16.5497 22.3508 16.5073 22.2239 16.5081C22.136 16.5087 22.0494 16.5301 21.9712 16.5704L21.7394 16.6864L21.4451 15.9021L21.6497 15.8157C21.7721 15.7661 21.873 15.6747 21.9346 15.5578C21.9962 15.4409 22.0145 15.306 21.9862 15.1769C21.9579 15.0479 21.8849 14.9329 21.7801 14.8525C21.6753 14.772 21.5454 14.7312 21.4134 14.7373C21.344 14.7404 21.2758 14.7563 21.2122 14.7843L21.0514 14.8521L20.7276 13.9881L20.8753 13.9345C21.0001 13.8914 21.1057 13.8055 21.1733 13.6921C21.241 13.5787 21.2664 13.445 21.2451 13.3147C21.2237 13.1844 21.1571 13.0658 21.0568 12.9799C20.9565 12.8939 20.8291 12.8462 20.697 12.8451C20.6279 12.8446 20.5593 12.8568 20.4947 12.8812L20.3339 12.9392L20.0069 12.0686L20.2092 11.9953C20.334 11.9521 20.4396 11.8663 20.5072 11.7529C20.5749 11.6395 20.6003 11.5058 20.579 11.3755C20.5577 11.2452 20.491 11.1266 20.3907 11.0406C20.2904 10.9547 20.163 10.907 20.0309 10.9059C19.9615 10.9052 19.8925 10.9174 19.8275 10.942L19.6142 11.0196L19.2784 10.1238C19.28 10.0862 19.2778 10.0484 19.2719 10.0112C19.2719 10.0112 19.0071 8.34357 19.5475 6.49041C19.7697 5.72827 19.0939 5.04111 18.3487 5.12213C16.3656 5.3367 13.8119 6.26182 13.8119 6.26182C13.679 6.30911 13.5688 6.40481 13.5034 6.52979L12.5508 8.35197C12.0579 8.45427 11.1813 8.37686 10.3709 8.07525C9.45088 7.73282 8.62807 7.12574 8.34312 6.54291C8.00971 5.86087 7.83999 5.59266 7.83999 4.54901C7.84002 4.47407 7.825 4.39988 7.79583 4.33085C7.76667 4.26182 7.72395 4.19935 7.6702 4.14713C7.61645 4.09491 7.55276 4.05401 7.48292 4.02685C7.41308 3.99969 7.33849 3.98682 7.26358 3.98901ZM6.83155 5.41635C6.93723 6.04871 7.10733 6.56554 7.33687 7.0351C7.82975 8.04323 8.88283 8.71673 9.98046 9.12525C10.231 9.21851 10.4846 9.29565 10.7373 9.36041C10.5783 9.40649 10.4193 9.45233 10.2605 9.484C9.42553 9.65054 8.61826 9.63134 7.72843 9.20838C6.91428 8.82139 6.01427 8.06532 5.03671 6.72338C5.62041 6.17785 6.25012 5.73765 6.83155 5.41635ZM18.4636 6.23666C18.2285 7.06743 18.1354 7.85499 18.1059 8.51057C17.4936 8.1637 16.7251 8.01347 15.9611 7.94729C15.8434 7.93709 15.7266 7.93879 15.6089 7.93307C15.5672 7.92387 15.5247 7.91947 15.482 7.91994C15.4576 7.91994 15.4342 7.925 15.4098 7.92541C14.9217 7.91203 14.4471 7.93512 14 7.9965L14.3894 7.25275C14.6955 7.14719 16.8478 6.41282 18.4636 6.23666ZM4.24265 7.53713C5.25916 8.8978 6.25405 9.74751 7.24827 10.2201C8.37403 10.7552 9.48041 10.7814 10.4792 10.5821C12.437 10.1916 14.0847 9.09156 15.4 9.0476C15.5557 9.05084 15.712 9.04967 15.8648 9.06291C16.8805 9.15089 17.7378 9.50558 17.9911 9.87885L18.562 11.4003L18.1081 11.5643C18.039 11.5894 17.9754 11.6278 17.9211 11.6775C17.8668 11.7271 17.8228 11.7869 17.7916 11.8535C17.7604 11.9202 17.7427 11.9923 17.7394 12.0658C17.7361 12.1393 17.7473 12.2127 17.7723 12.2818C17.7974 12.351 17.8358 12.4145 17.8855 12.4688C17.9351 12.5231 17.9949 12.5671 18.0615 12.5983C18.1282 12.6295 18.2003 12.6473 18.2738 12.6506C18.3473 12.6539 18.4207 12.6427 18.4898 12.6176L18.9547 12.4492L19.2817 13.3198L18.7753 13.5036C18.7049 13.5276 18.6401 13.5654 18.5845 13.6148C18.5289 13.6642 18.4837 13.7242 18.4516 13.7913C18.4194 13.8583 18.4009 13.9311 18.3972 14.0054C18.3934 14.0796 18.4045 14.1539 18.4298 14.2238C18.4551 14.2938 18.494 14.358 18.5444 14.4127C18.5947 14.4674 18.6555 14.5116 18.7231 14.5426C18.7906 14.5736 18.8637 14.5908 18.9381 14.5932C19.0124 14.5957 19.0864 14.5833 19.1559 14.5568L19.6744 14.3687L20.02 15.2907L19.6066 15.4657C19.5362 15.4926 19.472 15.5334 19.4178 15.5856C19.3636 15.6378 19.3204 15.7004 19.291 15.7697C19.2615 15.839 19.2463 15.9135 19.2463 15.9888C19.2462 16.064 19.2614 16.1386 19.2908 16.2079C19.3202 16.2772 19.3633 16.3398 19.4175 16.3921C19.4717 16.4443 19.5359 16.4851 19.6062 16.512C19.6765 16.5389 19.7515 16.5514 19.8267 16.5486C19.902 16.5459 19.9759 16.528 20.0441 16.4961L20.4137 16.3396L20.7331 17.1917L20.3284 17.3951C20.2627 17.4281 20.2041 17.4738 20.156 17.5295C20.1079 17.5851 20.0713 17.6497 20.0482 17.7196C20.0251 17.7894 20.0159 17.8631 20.0213 17.9365C20.0267 18.0098 20.0464 18.0814 20.0795 18.1471C20.1125 18.2129 20.1582 18.2714 20.2139 18.3195C20.2695 18.3676 20.3341 18.4042 20.404 18.4273C20.4738 18.4504 20.5475 18.4595 20.6209 18.4541C20.6943 18.4487 20.7658 18.429 20.8316 18.3959L21.1291 18.2461L21.3161 18.7459C21.3441 18.8206 21.3877 18.8885 21.4441 18.945L22.5641 20.065C22.6253 20.126 22.6997 20.172 22.7817 20.1995L26.6361 21.4967C26.6448 21.5279 26.6521 21.5465 26.6612 21.5853C26.6991 21.7462 26.7363 21.9619 26.7684 22.1737C26.6474 22.2648 26.47 22.3399 26.227 22.3892C25.893 22.457 25.4717 22.469 25.0676 22.469H22.5323C21.9938 22.469 21.3941 22.6252 20.8841 22.7709C20.5242 22.8737 20.3883 22.9248 20.2387 22.9765C17.7507 21.6217 17.7509 20.5021 16.6151 19.5837C14.983 18.2638 13.9022 18.6665 13.2147 18.5993H13.2136C13.0343 18.5819 12.186 18.3024 11.9766 18.1881C11.9736 18.1866 11.9707 18.1851 11.9678 18.1837L9.97937 17.1436C8.78402 16.4919 7.93531 15.163 7.21437 13.8065C6.47159 12.4079 4.8947 10.5233 2.74858 9.73229C2.91087 9.40547 3.08689 9.07875 3.28015 8.75666C3.45347 8.46773 3.80774 8.017 4.24265 7.53713ZM2.28593 10.7582C4.0749 11.3972 5.59645 13.1468 6.22562 14.3315C6.97076 15.7336 7.8959 17.2832 9.44343 18.1268C9.44633 18.1283 9.44925 18.1298 9.45218 18.1312L11.4406 19.1714H11.4417C11.883 19.412 12.5479 19.6596 13.1064 19.7139C14.2175 19.822 14.5121 19.3228 15.9108 20.4543H15.9119C16.6155 21.0233 16.9494 22.5556 19.9019 24.0867C19.9706 24.1221 20.0459 24.143 20.1231 24.1478C20.2003 24.1527 20.2776 24.1416 20.3503 24.1151C20.3503 24.1151 20.7212 23.9815 21.1914 23.8471C21.6616 23.7128 22.2477 23.589 22.5323 23.589H25.0676C25.4874 23.589 25.972 23.5843 26.4501 23.4873C26.5786 23.4612 26.7088 23.4259 26.8373 23.3823C26.7453 23.7937 26.4881 24.0486 26.1176 24.2661C25.6499 24.5405 25.0123 24.6769 24.5941 24.7112C24.5831 24.712 24.5721 24.7131 24.5612 24.7145L20.6992 25.2657C19.7207 25.262 18.6404 24.993 17.8194 24.4629C17.8055 24.4543 17.7913 24.4463 17.7767 24.4389L4.97765 17.6806C3.49172 16.8963 2.20739 15.791 1.17358 14.4693C1.22413 14.1922 1.53058 12.5855 2.28593 10.7582Z" fill="#999999"/>
</g>
</svg>
