<svg width="29" height="30" viewBox="0 0 29 30" fill="none" xmlns="http://www.w3.org/2000/svg">
<mask id="mask0_2511_1976" style="mask-type:luminance" maskUnits="userSpaceOnUse" x="6" y="4" width="17" height="21">
<path d="M20.385 4.90674H8.38501C7.28044 4.90674 6.38501 5.80217 6.38501 6.90674V22.9068C6.38501 24.0113 7.28044 24.9068 8.38501 24.9068H20.385C21.4896 24.9068 22.385 24.0113 22.385 22.9068V6.90674C22.385 5.80217 21.4896 4.90674 20.385 4.90674Z" fill="white"/>
<path d="M14.385 20.9067C16.5941 20.9067 18.385 19.1158 18.385 16.9067C18.385 14.6975 16.5941 12.9067 14.385 12.9067C12.1759 12.9067 10.385 14.6975 10.385 16.9067C10.385 19.1158 12.1759 20.9067 14.385 20.9067Z" fill="white"/>
<path d="M15.385 8.90674C15.385 9.45903 14.9373 9.90674 14.385 9.90674C13.8327 9.90674 13.385 9.45903 13.385 8.90674C13.385 8.35446 13.8327 7.90674 14.385 7.90674C14.9373 7.90674 15.385 8.35446 15.385 8.90674Z" fill="white"/>
</mask>
<g mask="url(#mask0_2511_1976)">
<path d="M8.38501 5.90674H20.385V3.90674H8.38501V5.90674ZM20.385 5.90674C20.9373 5.90674 21.385 6.35446 21.385 6.90674H23.385C23.385 5.24989 22.0419 3.90674 20.385 3.90674V5.90674ZM21.385 6.90674V22.9068H23.385V6.90674H21.385ZM21.385 22.9068C21.385 23.459 20.9373 23.9068 20.385 23.9068V25.9068C22.0419 25.9068 23.385 24.5636 23.385 22.9068H21.385ZM20.385 23.9068H8.38501V25.9068H20.385V23.9068ZM8.38501 23.9068C7.83272 23.9068 7.38501 23.459 7.38501 22.9068H5.38501C5.38501 24.5636 6.72816 25.9068 8.38501 25.9068V23.9068ZM7.38501 22.9068V6.90674H5.38501V22.9068H7.38501ZM7.38501 6.90674C7.38501 6.35446 7.83272 5.90674 8.38501 5.90674V3.90674C6.72816 3.90674 5.38501 5.24989 5.38501 6.90674H7.38501ZM17.385 16.9068C17.385 18.5636 16.0419 19.9068 14.385 19.9068V21.9068C17.1464 21.9068 19.385 19.6682 19.385 16.9068H17.385ZM14.385 19.9068C12.7282 19.9068 11.385 18.5636 11.385 16.9068H9.38501C9.38501 19.6682 11.6236 21.9068 14.385 21.9068V19.9068ZM11.385 16.9068C11.385 15.2499 12.7282 13.9068 14.385 13.9068V11.9068C11.6236 11.9068 9.38501 14.1453 9.38501 16.9068H11.385ZM14.385 13.9068C16.0419 13.9068 17.385 15.2499 17.385 16.9068H19.385C19.385 14.1453 17.1464 11.9068 14.385 11.9068V13.9068ZM14.385 8.90674V10.9068C15.4896 10.9068 16.385 10.0113 16.385 8.90674H14.385ZM14.385 8.90674H12.385C12.385 10.0113 13.2804 10.9068 14.385 10.9068V8.90674ZM14.385 8.90674V6.90674C13.2804 6.90674 12.385 7.80217 12.385 8.90674H14.385ZM14.385 8.90674H16.385C16.385 7.80217 15.4896 6.90674 14.385 6.90674V8.90674Z" fill="#999999"/>
</g>
</svg>
