<svg width="29" height="30" viewBox="0 0 29 30" fill="none" xmlns="http://www.w3.org/2000/svg">
<path d="M17.3467 10.5144L9.92212 17.939L11.4601 19.4769L18.8846 12.0524L17.3467 10.5144Z" stroke="#999999" stroke-miterlimit="10" stroke-linejoin="round"/>
<path d="M13.4663 21.4834C13.9163 21.9334 13.9163 22.7209 13.4663 23.1709L12.9788 23.6584C12.5288 24.1084 11.7413 24.1084 11.2913 23.6584L5.74131 18.1084C5.29131 17.6584 5.29131 16.8709 5.74131 16.4209L6.22881 15.9334C6.67881 15.4834 7.46631 15.4834 7.91631 15.9334L13.4663 21.4834Z" stroke="#999999" stroke-miterlimit="10" stroke-linejoin="round"/>
<path d="M9.79126 22.1582C10.2413 22.6082 10.3538 23.2832 10.0163 23.6582C9.67876 23.9957 9.00376 23.9207 8.51626 23.4332L6.00376 20.9207C5.55376 20.4707 5.44126 19.7957 5.77876 19.4207C6.11626 19.0832 6.79126 19.1582 7.27876 19.6457L9.79126 22.1582Z" stroke="#999999" stroke-miterlimit="10" stroke-linejoin="round"/>
<path d="M7.24131 22.1584L6.52881 22.8709" stroke="#999999" stroke-miterlimit="10" stroke-linejoin="round"/>
<path d="M15.3414 8.50835C14.8914 8.05835 14.8914 7.27085 15.3414 6.82085L15.8289 6.33335C16.2789 5.88335 17.0664 5.88335 17.5164 6.33335L23.0289 11.8458C23.4789 12.2958 23.4789 13.0833 23.0289 13.5333L22.5414 14.0208C22.0914 14.4708 21.3039 14.4708 20.8539 14.0208L15.3414 8.50835Z" stroke="#999999" stroke-miterlimit="10" stroke-linejoin="round"/>
<path d="M19.0165 7.83332C18.5665 7.38332 18.454 6.70832 18.7915 6.33332C19.129 5.99582 19.804 6.07082 20.2915 6.55832L22.804 9.07082C23.254 9.52082 23.3665 10.1958 23.029 10.5708C22.6915 10.9083 22.0165 10.8333 21.529 10.3458L19.0165 7.83332Z" stroke="#999999" stroke-miterlimit="10" stroke-linejoin="round"/>
<path d="M21.5664 7.83335L22.2789 7.12085" stroke="#999999" stroke-miterlimit="10" stroke-linejoin="round"/>
</svg>
