<svg width="29" height="30" viewBox="0 0 29 30" fill="none" xmlns="http://www.w3.org/2000/svg">
<mask id="mask0_2511_2010" style="mask-type:luminance" maskUnits="userSpaceOnUse" x="6" y="4" width="17" height="21">
<path d="M8.38501 24.9068H20.385C21.4896 24.9068 22.385 24.0113 22.385 22.9068V6.90674C22.385 5.80217 21.4896 4.90674 20.385 4.90674H8.38501C7.28044 4.90674 6.38501 5.80217 6.38501 6.90674V22.9068C6.38501 24.0113 7.28044 24.9068 8.38501 24.9068Z" fill="white"/>
<path d="M15.385 20.9067C15.385 21.4589 14.9373 21.9067 14.385 21.9067C13.8327 21.9067 13.385 21.4589 13.385 20.9067C13.385 20.3544 13.8327 19.9067 14.385 19.9067C14.9373 19.9067 15.385 20.3544 15.385 20.9067Z" fill="white"/>
</mask>
<g mask="url(#mask0_2511_2010)">
<path d="M20.385 23.9068H8.38501V25.9068H20.385V23.9068ZM8.38501 23.9068C7.83273 23.9068 7.38501 23.459 7.38501 22.9068H5.38501C5.38501 24.5636 6.72816 25.9068 8.38501 25.9068V23.9068ZM7.38501 22.9068V6.90674H5.38501V22.9068H7.38501ZM7.38501 6.90674C7.38501 6.35446 7.83272 5.90674 8.38501 5.90674V3.90674C6.72816 3.90674 5.38501 5.24988 5.38501 6.90674H7.38501ZM8.38501 5.90674H20.385V3.90674H8.38501V5.90674ZM20.385 5.90674C20.9373 5.90674 21.385 6.35445 21.385 6.90674H23.385C23.385 5.24988 22.0419 3.90674 20.385 3.90674V5.90674ZM21.385 6.90674V22.9068H23.385V6.90674H21.385ZM21.385 22.9068C21.385 23.459 20.9373 23.9068 20.385 23.9068V25.9068C22.0419 25.9068 23.385 24.5636 23.385 22.9068H21.385ZM14.385 20.9068V22.9068C15.4896 22.9068 16.385 22.0113 16.385 20.9068H14.385ZM14.385 20.9068H12.385C12.385 22.0113 13.2804 22.9068 14.385 22.9068V20.9068ZM14.385 20.9068V18.9068C13.2804 18.9068 12.385 19.8022 12.385 20.9068H14.385ZM14.385 20.9068H16.385C16.385 19.8022 15.4896 18.9068 14.385 18.9068V20.9068Z" fill="#999999"/>
</g>
</svg>
