<svg width="28" height="29" viewBox="0 0 28 29" fill="none" xmlns="http://www.w3.org/2000/svg">
<mask id="mask0_2511_2016" style="mask-type:luminance" maskUnits="userSpaceOnUse" x="4" y="4" width="20" height="21">
<path d="M23.3933 16.4061L15.9135 23.8879C15.7197 24.082 15.4896 24.2359 15.2363 24.3409C14.983 24.4459 14.7115 24.5 14.4373 24.5C14.1631 24.5 13.8916 24.4459 13.6383 24.3409C13.3851 24.2359 13.155 24.082 12.9612 23.8879L4 14.9348V4.5H14.4321L23.3933 13.4635C23.7819 13.8545 24 14.3835 24 14.9348C24 15.4862 23.7819 16.0151 23.3933 16.4061Z" fill="white"/>
<path d="M10 9.5C10 10.0523 9.55228 10.5 9 10.5C8.44772 10.5 8 10.0523 8 9.5C8 8.94772 8.44772 8.5 9 8.5C9.55228 8.5 10 8.94772 10 9.5Z" fill="white"/>
</mask>
<g mask="url(#mask0_2511_2016)">
<path d="M23.3933 16.4061L24.1005 17.1132L24.1026 17.1111L23.3933 16.4061ZM12.9612 23.8879L13.6688 23.1813L13.668 23.1805L12.9612 23.8879ZM4 14.9348H3C3 15.2002 3.10548 15.4547 3.29321 15.6423L4 14.9348ZM4 4.5V3.5C3.44772 3.5 3 3.94772 3 4.5H4ZM14.4321 4.5L15.1393 3.79299C14.9518 3.60539 14.6974 3.5 14.4321 3.5V4.5ZM23.3933 13.4635L24.1026 12.7586L24.1005 12.7565L23.3933 13.4635ZM22.6861 15.6991L15.2063 23.1809L16.6207 24.5949L24.1005 17.1132L22.6861 15.6991ZM15.2063 23.1809C15.1054 23.282 14.9851 23.3625 14.8533 23.4172L15.6193 25.2647C15.994 25.1093 16.334 24.882 16.6207 24.5949L15.2063 23.1809ZM14.8533 23.4172C14.7214 23.4719 14.5801 23.5 14.4373 23.5V25.5C14.843 25.5 15.2446 25.42 15.6193 25.2647L14.8533 23.4172ZM14.4373 23.5C14.2946 23.5 14.1532 23.4719 14.0214 23.4172L13.2553 25.2647C13.63 25.42 14.0317 25.5 14.4373 25.5V23.5ZM14.0214 23.4172C13.8895 23.3625 13.7697 23.2824 13.6688 23.1813L12.2536 24.5945C12.5402 24.8816 12.8806 25.1093 13.2553 25.2647L14.0214 23.4172ZM13.668 23.1805L4.70679 14.2274L3.29321 15.6423L12.2544 24.5953L13.668 23.1805ZM5 14.9348V4.5H3V14.9348H5ZM4 5.5H14.4321V3.5H4V5.5ZM13.7249 5.20701L22.6861 14.1705L24.1005 12.7565L15.1393 3.79299L13.7249 5.20701ZM22.684 14.1684C22.8864 14.3721 23 14.6476 23 14.9348H25C25 14.1194 24.6774 13.337 24.1026 12.7586L22.684 14.1684ZM23 14.9348C23 15.2221 22.8864 15.4976 22.684 15.7012L24.1026 17.1111C24.6774 16.5326 25 15.7503 25 14.9348H23ZM9 9.5V11.5C10.1046 11.5 11 10.6046 11 9.5H9ZM9 9.5H7C7 10.6046 7.89543 11.5 9 11.5V9.5ZM9 9.5V7.5C7.89543 7.5 7 8.39543 7 9.5H9ZM9 9.5H11C11 8.39543 10.1046 7.5 9 7.5V9.5Z" fill="#999999"/>
</g>
</svg>
