<svg width="29" height="30" viewBox="0 0 29 30" fill="none" xmlns="http://www.w3.org/2000/svg">
<path d="M14.1447 24.9068C19.6675 24.9068 24.1447 20.4296 24.1447 14.9068C24.1447 9.38389 19.6675 4.90674 14.1447 4.90674C8.62181 4.90674 4.14465 9.38389 4.14465 14.9068C4.14465 20.4296 8.62181 24.9068 14.1447 24.9068Z" stroke="#999999" stroke-linecap="round" stroke-linejoin="round"/>
<path d="M14.1447 20.9068C17.4584 20.9068 20.1447 18.2205 20.1447 14.9068C20.1447 11.5931 17.4584 8.90674 14.1447 8.90674C10.8309 8.90674 8.14465 11.5931 8.14465 14.9068C8.14465 18.2205 10.8309 20.9068 14.1447 20.9068Z" stroke="#999999" stroke-linecap="round" stroke-linejoin="round"/>
<path d="M14.1447 16.907C15.2492 16.907 16.1447 16.0115 16.1447 14.907C16.1447 13.8024 15.2492 12.907 14.1447 12.907C13.0401 12.907 12.1447 13.8024 12.1447 14.907C12.1447 16.0115 13.0401 16.907 14.1447 16.907Z" stroke="#999999" stroke-linecap="round" stroke-linejoin="round"/>
</svg>
