<svg width="28" height="30" viewBox="0 0 28 30" fill="none" xmlns="http://www.w3.org/2000/svg">
<path d="M8.24241 2.8689C8.06085 2.90171 7.90772 3.01983 7.83116 3.18827C7.75241 3.35671 7.76335 3.54921 7.85741 3.7089L8.39991 19.5289C7.3346 21.7296 6.0921 22.3114 5.23241 22.8714C4.46898 23.3702 3.99648 24.0417 3.91991 24.7789C3.84335 25.5161 4.21523 26.2599 4.91741 26.6864C5.40085 26.9796 5.96741 27.0014 6.49241 26.9139C7.01741 26.8264 7.53366 26.6317 8.03241 26.4064C8.98397 25.9777 9.84585 25.4264 10.2024 25.2514C10.2046 25.2492 10.2177 25.2536 10.2199 25.2514C10.4102 25.2449 10.6443 25.2296 10.9024 25.1989C10.9133 25.1967 10.9265 25.2011 10.9374 25.1989C11.1321 25.1727 11.3202 25.1246 11.4974 25.0589C11.9262 24.8992 12.3002 24.6017 12.5824 24.2014C12.893 23.7617 13.0046 23.228 13.0374 22.6789C13.0637 22.2196 13.0155 21.7646 12.8799 21.3489V11.2689H15.1199V21.3139C14.9755 21.7383 14.934 22.2086 14.9624 22.6789C14.9952 23.228 15.1068 23.7617 15.4174 24.2014C15.6996 24.6017 16.0737 24.8992 16.5024 25.0589C16.6905 25.1289 16.8896 25.1727 17.0974 25.1989C17.3621 25.2296 17.6049 25.2471 17.7974 25.2514C18.154 25.4264 19.0158 25.9777 19.9674 26.4064C20.4662 26.6317 20.9824 26.8264 21.5074 26.9139C22.0324 27.0014 22.599 26.9796 23.0824 26.6864C23.7846 26.2599 24.1565 25.5161 24.0799 24.7789C24.0033 24.0417 23.5308 23.3702 22.7674 22.8714C21.9077 22.3114 20.6652 21.7296 19.5999 19.5289L20.1599 3.5339C20.1621 3.50546 20.1621 3.47483 20.1599 3.4464C20.1621 3.41796 20.1621 3.38733 20.1599 3.3589C20.1599 3.35233 20.1599 3.34796 20.1599 3.3414C20.1599 3.33046 20.1599 3.31733 20.1599 3.3064C20.1533 3.29983 20.149 3.29546 20.1424 3.2889C20.1315 3.24077 20.114 3.19265 20.0899 3.1489C20.0833 3.14233 20.079 3.13796 20.0724 3.1314C20.0199 3.05046 19.9477 2.98483 19.8624 2.9389C19.8515 2.93233 19.8383 2.92577 19.8274 2.9214C19.8208 2.91483 19.8165 2.91046 19.8099 2.9039C19.799 2.89733 19.7858 2.89077 19.7749 2.8864C19.7683 2.8864 19.764 2.8864 19.7574 2.8864C19.7355 2.87983 19.7115 2.87327 19.6874 2.8689C19.6699 2.8689 19.6524 2.8689 19.6349 2.8689C19.624 2.8689 19.6108 2.8689 19.5999 2.8689H8.39991C8.38241 2.8689 8.36491 2.8689 8.34741 2.8689C8.32991 2.8689 8.31241 2.8689 8.29491 2.8689C8.27741 2.8689 8.25991 2.8689 8.24241 2.8689ZM8.97741 3.9889H19.0224L18.9874 5.1089H9.01241L8.97741 3.9889ZM9.04741 6.2289H13.4399V10.1489H12.3199C12.3024 10.1489 12.2849 10.1489 12.2674 10.1489C12.2499 10.1489 12.2324 10.1489 12.2149 10.1489C12.0355 10.1686 11.878 10.2714 11.7862 10.4267C11.6965 10.5821 11.6877 10.7724 11.7599 10.9364V20.3864C10.1302 20.8567 9.51991 22.4077 9.51991 23.8689C9.51991 24.0264 9.53304 24.1664 9.55491 24.3239C9.02554 24.6039 8.32991 25.0524 7.57741 25.3914C7.12897 25.5949 6.67397 25.748 6.29991 25.8114C5.92585 25.8749 5.6721 25.8377 5.51241 25.7414C5.11429 25.4986 4.9896 25.223 5.02241 24.9014C5.05523 24.5799 5.29585 24.1577 5.84491 23.7989C6.57335 23.3221 8.20304 22.4689 9.39741 20.0189C9.40397 20.008 9.41054 19.9949 9.41491 19.9839C9.41929 19.9774 9.42804 19.973 9.43241 19.9664C9.44554 19.9446 9.45647 19.9205 9.46741 19.8964C9.47397 19.8899 9.47835 19.8855 9.48491 19.8789C9.48491 19.868 9.48491 19.8549 9.48491 19.8439C9.49147 19.8374 9.49585 19.833 9.50241 19.8264C9.51991 19.763 9.52429 19.6996 9.51991 19.6339V19.6164C9.51991 19.5989 9.51991 19.5814 9.51991 19.5639L9.04741 6.2289ZM14.5599 6.2289H18.9524L18.4799 19.4939C18.4777 19.5224 18.4777 19.553 18.4799 19.5814V19.6339C18.4755 19.6689 18.4755 19.7039 18.4799 19.7389C18.4843 19.7564 18.4908 19.7739 18.4974 19.7914C18.4974 19.798 18.4974 19.8024 18.4974 19.8089C18.5018 19.8199 18.5083 19.833 18.5149 19.8439C18.5149 19.8505 18.5149 19.8549 18.5149 19.8614C18.5193 19.8724 18.5258 19.8855 18.5324 19.8964C18.5324 19.903 18.5324 19.9074 18.5324 19.9139C18.5368 19.9205 18.5455 19.9249 18.5499 19.9314C18.5652 19.9555 18.5827 19.9796 18.6024 20.0014C19.7968 22.4624 21.4243 23.3221 22.1549 23.7989C22.704 24.1577 22.9446 24.5799 22.9774 24.9014C23.0102 25.223 22.8855 25.4986 22.4874 25.7414C22.3277 25.8377 22.074 25.8749 21.6999 25.8114C21.3258 25.748 20.8708 25.5949 20.4224 25.3914C19.6699 25.0524 18.9743 24.6039 18.4449 24.3239C18.4668 24.1664 18.4799 24.0264 18.4799 23.8689C18.4799 22.4077 17.8696 20.8567 16.2399 20.3864V10.7089C16.2399 10.4005 15.9883 10.1489 15.6799 10.1489H14.5599V6.2289ZM11.7774 21.5589C11.878 21.7821 11.959 22.2042 11.9349 22.6089C11.9108 23.0136 11.7818 23.4161 11.6724 23.5714C11.4952 23.8208 11.3443 23.9236 11.1124 24.0089C10.9899 24.0549 10.8412 24.0899 10.6574 24.1139C10.6465 24.0308 10.6399 23.9521 10.6399 23.8689C10.6399 22.9961 10.8587 21.9899 11.7774 21.5589ZM16.2224 21.5589C17.1412 21.9899 17.3599 22.9961 17.3599 23.8689C17.3599 23.9521 17.3533 24.0308 17.3424 24.1139C17.1587 24.0899 17.0099 24.0549 16.8874 24.0089C16.6555 23.9236 16.5046 23.8208 16.3274 23.5714C16.218 23.4161 16.089 23.0136 16.0649 22.6089C16.0408 22.2042 16.1218 21.7821 16.2224 21.5589Z" fill="#999999"/>
</svg>
