<svg width="29" height="30" viewBox="0 0 29 30" fill="none" xmlns="http://www.w3.org/2000/svg">
<path d="M12.4595 21.8755H16.6133" stroke="#999999" stroke-miterlimit="10"/>
<path d="M4.02197 21.8755H7.52678" stroke="#999999" stroke-miterlimit="10" stroke-linecap="round" stroke-linejoin="round"/>
<path d="M21.5028 21.8757H22.1518C23.5797 21.8757 24.748 20.7074 24.748 19.2795V14.4766H15.0557V5.99585H6.61816" stroke="#999999" stroke-miterlimit="10" stroke-linecap="round" stroke-linejoin="round"/>
<path d="M14.623 7.20752H19.599L24.7481 14.52" stroke="#999999" stroke-miterlimit="10" stroke-linejoin="round"/>
<path d="M12.4593 21.5294C12.4593 22.8707 11.3776 23.9957 9.99296 23.9957C8.60834 23.9957 7.52661 22.914 7.52661 21.5294C7.52661 20.188 8.60834 19.063 9.99296 19.063C11.3776 19.063 12.4593 20.188 12.4593 21.5294Z" stroke="#999999" stroke-miterlimit="10" stroke-linejoin="round"/>
<path d="M21.5028 21.5294C21.5028 22.8707 20.421 23.9957 19.0364 23.9957C17.6951 23.9957 16.5701 22.914 16.5701 21.5294C16.5701 20.188 17.6518 19.063 19.0364 19.063C20.421 19.063 21.5028 20.188 21.5028 21.5294Z" stroke="#999999" stroke-miterlimit="10" stroke-linejoin="round"/>
<path d="M6.31519 9.32764H11.7238" stroke="#999999" stroke-miterlimit="10" stroke-linecap="round" stroke-linejoin="round"/>
<path d="M4.97388 12.7458H10.3825" stroke="#999999" stroke-miterlimit="10" stroke-linecap="round" stroke-linejoin="round"/>
<path d="M4.19507 16.1641H9.60372" stroke="#999999" stroke-miterlimit="10" stroke-linecap="round" stroke-linejoin="round"/>
</svg>
