<svg width="28" height="30" viewBox="0 0 28 30" fill="none" xmlns="http://www.w3.org/2000/svg">
<g clip-path="url(#clip0_2511_2060)">
<mask id="mask0_2511_2060" style="mask-type:luminance" maskUnits="userSpaceOnUse" x="0" y="1" width="28" height="29">
<path d="M28 1.18896H0V29.189H28V1.18896Z" fill="white"/>
</mask>
<g mask="url(#mask0_2511_2060)">
<path d="M6.65002 1.18896C6.38314 1.23928 6.19064 1.47553 6.19502 1.74896V28.6289C6.19502 28.9374 6.44658 29.1889 6.75502 29.1889H11.935C12.2194 29.1911 12.46 28.9811 12.495 28.6989L14 15.1364L15.505 28.6989C15.54 28.9811 15.7806 29.1911 16.065 29.1889H21.245C21.5535 29.1889 21.805 28.9374 21.805 28.6289V1.74896C21.805 1.44053 21.5535 1.18896 21.245 1.18896H6.75502C6.73752 1.18896 6.72002 1.18896 6.70252 1.18896C6.68502 1.18896 6.66752 1.18896 6.65002 1.18896ZM7.31502 2.30896H20.685V3.42896H17.465C17.3906 3.41365 17.3119 3.41365 17.2375 3.42896H10.745C10.6706 3.41365 10.5919 3.41365 10.5175 3.42896H7.31502V2.30896ZM7.31502 4.54896H10.0625C9.93564 6.38865 9.19189 7.31396 8.47002 7.83896C8.02596 8.16271 7.61252 8.3049 7.31502 8.38146V4.54896ZM11.165 4.54896H16.835C16.9772 6.71459 17.9003 8.02928 18.865 8.73146C19.5825 9.25428 20.2978 9.43803 20.685 9.51896V28.0689H16.5725L14.56 9.95646C14.5556 9.65021 14.3063 9.40521 14 9.40521C13.6938 9.40521 13.4444 9.65021 13.44 9.95646L11.4275 28.0689H7.31502V9.51896C7.70221 9.43803 8.41752 9.25428 9.13502 8.73146C10.0997 8.02928 11.0228 6.71459 11.165 4.54896ZM17.9375 4.54896H20.685V8.38146C20.3875 8.3049 19.9741 8.16271 19.53 7.83896C18.8081 7.31396 18.0644 6.38865 17.9375 4.54896Z" fill="#999999"/>
</g>
</g>
<defs>
<clipPath id="clip0_2511_2060">
<rect width="28" height="29" fill="white" transform="translate(0 0.5)"/>
</clipPath>
</defs>
</svg>
