<svg width="29" height="30" viewBox="0 0 29 30" fill="none" xmlns="http://www.w3.org/2000/svg">
<path d="M25.1447 5.72392C24.187 6.3994 23.1268 6.91603 22.0047 7.25392C21.4024 6.56143 20.602 6.07061 19.7117 5.84785C18.8214 5.62508 17.8841 5.68112 17.0267 6.00838C16.1693 6.33563 15.4331 6.91832 14.9176 7.67764C14.4022 8.43695 14.1324 9.33626 14.1447 10.2539V11.2539C12.3873 11.2995 10.6459 10.9097 9.07566 10.1194C7.5054 9.329 6.15497 8.16256 5.14465 6.72392C5.14465 6.72392 1.14465 15.7239 10.1447 19.7239C8.08518 21.1219 5.63181 21.8229 3.14465 21.7239C12.1447 26.7239 23.1447 21.7239 23.1447 10.2239C23.1437 9.94538 23.117 9.66752 23.0647 9.39392C24.0853 8.38742 24.8055 7.11664 25.1447 5.72392Z" stroke="#999999" stroke-linecap="round" stroke-linejoin="round"/>
</svg>
