<svg width="29" height="30" viewBox="0 0 29 30" fill="none" xmlns="http://www.w3.org/2000/svg">
<path d="M18.15 18.9936L14.15 14.9936M14.15 14.9936L10.15 18.9936M14.15 14.9936V23.9936M22.54 21.3836C23.5153 20.8519 24.2858 20.0105 24.7299 18.9922C25.1739 17.974 25.2662 16.8368 24.9922 15.7603C24.7182 14.6838 24.0935 13.7291 23.2167 13.0471C22.3398 12.365 21.2608 11.9943 20.15 11.9936H18.89C18.5873 10.8229 18.0231 9.73597 17.2399 8.81463C16.4567 7.89329 15.4748 7.16148 14.3681 6.67424C13.2613 6.187 12.0585 5.95699 10.8501 6.00152C9.64167 6.04604 8.45905 6.36393 7.39116 6.9313C6.32327 7.49866 5.3979 8.30074 4.68461 9.27722C3.97132 10.2537 3.48867 11.3792 3.27296 12.569C3.05725 13.7589 3.11409 14.9821 3.4392 16.1469C3.76431 17.3116 4.34923 18.3875 5.14999 19.2936" stroke="#999999" stroke-linecap="round" stroke-linejoin="round"/>
</svg>
