<svg width="29" height="30" viewBox="0 0 29 30" fill="none" xmlns="http://www.w3.org/2000/svg">
<path d="M13.045 7.90674H16.385C16.9154 7.90674 17.4242 8.11745 17.7992 8.49253C18.1743 8.8676 18.385 9.37631 18.385 9.90674V13.2468L19.385 14.2468L25.385 9.90674V19.9068M3.38501 3.90674L25.385 25.9068M18.385 18.9068V19.9068C18.385 20.4372 18.1743 20.9459 17.7992 21.321C17.4242 21.696 16.9154 21.9068 16.385 21.9068H5.38501C4.85458 21.9068 4.34587 21.696 3.9708 21.321C3.59572 20.9459 3.38501 20.4372 3.38501 19.9068V9.90674C3.38501 9.37631 3.59572 8.8676 3.9708 8.49253C4.34587 8.11745 4.85458 7.90674 5.38501 7.90674H7.38501L18.385 18.9068Z" stroke="#999999" stroke-linecap="round" stroke-linejoin="round"/>
</svg>
