<svg width="29" height="30" viewBox="0 0 29 30" fill="none" xmlns="http://www.w3.org/2000/svg">
<path d="M14.385 11.907V14.907L15.885 16.407M18.895 20.257L18.545 24.087C18.5 24.5856 18.2695 25.0492 17.8992 25.3862C17.5289 25.7232 17.0457 25.909 16.545 25.907H12.215C11.7143 25.909 11.2311 25.7232 10.8608 25.3862C10.4905 25.0492 10.2601 24.5856 10.215 24.087L9.86501 20.257M9.87501 9.557L10.225 5.727C10.2699 5.23007 10.4989 4.76788 10.8671 4.43115C11.2353 4.09442 11.7161 3.90747 12.215 3.907H16.565C17.0657 3.90497 17.5489 4.09079 17.9192 4.42777C18.2895 4.76474 18.52 5.22835 18.565 5.727L18.915 9.557M21.385 14.907C21.385 18.773 18.251 21.907 14.385 21.907C10.519 21.907 7.38501 18.773 7.38501 14.907C7.38501 11.041 10.519 7.907 14.385 7.907C18.251 7.907 21.385 11.041 21.385 14.907Z" stroke="#999999" stroke-linecap="round" stroke-linejoin="round"/>
</svg>
