<svg width="29" height="30" viewBox="0 0 29 30" fill="none" xmlns="http://www.w3.org/2000/svg">
<path d="M6.72465 14.4541C8.70122 12.8078 11.1923 11.9062 13.7647 11.9062C16.337 11.9062 18.8281 12.8078 20.8047 14.4541M3.14465 10.9041C6.06708 8.32806 9.82895 6.90674 13.7247 6.90674C17.6204 6.90674 21.3822 8.32806 24.3047 10.9041M10.2547 18.0141C11.2699 17.2929 12.4843 16.9054 13.7297 16.9054C14.975 16.9054 16.1895 17.2929 17.2047 18.0141M14.7247 22.9041C14.7247 23.4564 14.277 23.9041 13.7247 23.9041C13.1724 23.9041 12.7247 23.4564 12.7247 22.9041C12.7247 22.3518 13.1724 21.9041 13.7247 21.9041C14.277 21.9041 14.7247 22.3518 14.7247 22.9041Z" stroke="#999999" stroke-linecap="round" stroke-linejoin="round"/>
</svg>
