<svg width="28" height="30" viewBox="0 0 28 30" fill="none" xmlns="http://www.w3.org/2000/svg">
<path d="M9.52008 2.86891C9.50695 2.86881 9.49381 2.86918 9.4807 2.87L9.47523 2.8711C9.45839 2.87216 9.4416 2.87399 9.42492 2.87657C9.37982 2.88357 9.33574 2.89606 9.29367 2.91375C9.19669 2.94281 8.43699 3.17239 7.54258 3.55797C7.06614 3.76336 6.56558 4.00699 6.12289 4.29188C5.6802 4.57677 5.28339 4.88872 5.04555 5.3386L5.04445 5.33969C4.3687 6.62127 1.75227 11.2744 1.75227 11.2744C1.68028 11.4025 1.66149 11.5537 1.69996 11.6955C1.73842 11.8373 1.83105 11.9583 1.95789 12.0324L5.31789 13.9924C5.44517 14.0666 5.59656 14.0876 5.73925 14.051C5.88195 14.0143 6.00446 13.923 6.08023 13.7966L6.86992 12.4808L7.26258 17.0658C7.27674 17.2545 7.28311 17.443 7.28008 17.6302C7.27392 18.0308 7.22761 18.4311 7.14336 18.8246C7.14259 18.8286 7.14186 18.8326 7.14117 18.8366L5.60992 26.844C5.59447 26.9249 5.5971 27.0083 5.6176 27.0882C5.6381 27.168 5.67598 27.2424 5.72853 27.3059C5.78109 27.3694 5.84701 27.4206 5.92161 27.4557C5.99621 27.4908 6.07764 27.509 6.16008 27.509H21.8401C21.9225 27.509 22.0039 27.4908 22.0785 27.4557C22.1531 27.4206 22.2191 27.3694 22.2716 27.3059C22.3242 27.2424 22.3621 27.168 22.3826 27.0882C22.4031 27.0083 22.4057 26.9249 22.3902 26.844L20.859 18.8366C20.8583 18.8326 20.8576 18.8286 20.8568 18.8246C20.7725 18.4311 20.7262 18.0308 20.7201 17.6302C20.717 17.4416 20.723 17.2529 20.7376 17.0658V17.0615L21.1302 12.4808L21.9199 13.7966C21.9957 13.923 22.1182 14.0143 22.2609 14.051C22.4036 14.0876 22.555 14.0666 22.6823 13.9924L26.0423 12.0324C26.1691 11.9583 26.2617 11.8373 26.3002 11.6955C26.3387 11.5537 26.3199 11.4025 26.2479 11.2744C26.2479 11.2744 23.6315 6.62127 22.9557 5.33969L22.9546 5.3386C22.7168 4.88871 22.32 4.57677 21.8773 4.29188C21.4346 4.00699 20.934 3.76336 20.4576 3.55797C19.5651 3.17325 18.8086 2.94481 18.7087 2.91485C18.6517 2.89044 18.5911 2.87566 18.5293 2.8711C18.5129 2.86965 18.4965 2.86892 18.4801 2.86891C18.4775 2.86889 18.475 2.86889 18.4724 2.86891H14.0001H9.53648H9.52008ZM10.2441 3.98891H14.0001H17.756C17.6516 4.30252 17.4938 4.68909 17.2387 5.08594C16.6801 5.95484 15.7734 6.78891 14.0001 6.78891C12.2267 6.78891 11.3201 5.95484 10.7615 5.08594C10.5064 4.68909 10.3485 4.30252 10.2441 3.98891ZM9.12414 4.16938C9.24807 4.58286 9.45671 5.12883 9.81867 5.69188C10.5201 6.78298 11.8534 7.90891 14.0001 7.90891C16.1467 7.90891 17.4801 6.78298 18.1815 5.69188C18.5434 5.12883 18.7521 4.58286 18.876 4.16938C19.18 4.26797 19.4222 4.33072 20.0146 4.5861C20.4551 4.776 20.9092 5.00058 21.2713 5.2336C21.6334 5.46662 21.8904 5.72187 21.9648 5.8625C22.6175 7.10028 24.6463 10.7026 25.0054 11.3411L22.5959 12.7466L21.2002 10.4213C21.1393 10.3199 21.0479 10.2404 20.939 10.1942C20.8302 10.148 20.7095 10.1374 20.5942 10.164C20.479 10.1906 20.3752 10.253 20.2976 10.3422C20.22 10.4315 20.1726 10.543 20.1623 10.6608L19.622 16.9696L19.6209 16.974C19.6032 17.1987 19.5975 17.4234 19.6012 17.6477C19.6085 18.1219 19.6625 18.5942 19.762 19.0586L19.7587 19.0466L21.163 26.389H6.83711L8.24148 19.0466L8.2382 19.0586C8.33763 18.5942 8.3917 18.1219 8.39898 17.6477C8.40262 17.4223 8.39619 17.1978 8.3793 16.975L8.3782 16.9696L7.83789 10.6608C7.82756 10.543 7.7802 10.4315 7.7026 10.3422C7.625 10.253 7.52114 10.1906 7.40591 10.164C7.29068 10.1374 7.16999 10.148 7.06113 10.1942C6.95227 10.2404 6.86083 10.3199 6.79992 10.4213L5.4043 12.7466L2.99477 11.3411C3.35385 10.7026 5.38269 7.10028 6.03539 5.8625C6.10975 5.72187 6.36674 5.46662 6.72883 5.2336C7.09091 5.00058 7.54505 4.776 7.98555 4.5861C8.57794 4.33072 8.82013 4.26797 9.12414 4.16938Z" fill="#999999"/>
</svg>
