<svg width="28" height="30" viewBox="0 0 28 30" fill="none" xmlns="http://www.w3.org/2000/svg">
<path d="M11.06 2.30884L7.45499 4.11134L7.38499 4.23384L1.22499 13.1938L0.92749 13.6138L1.32999 13.9463L4.12999 16.1863L4.58499 16.5538L4.93499 16.0813L6.59749 13.8588L6.15999 20.7538L6.12499 21.3488H7.17499C7.0153 22.4273 6.71999 24.6673 6.71999 26.3888V26.9488H7.27999C9.92686 26.9488 12.075 28.0163 12.075 28.0163L12.355 28.1563L12.635 27.9813L14 27.0713L15.365 27.9813L15.645 28.1563L15.925 28.0163C15.925 28.0163 18.0491 26.9488 20.72 26.9488H21.28V26.3888C21.28 24.3129 20.9934 22.3332 20.825 21.3488H21.875L21.84 20.7538L21.4025 14.4363L23.065 16.6413L23.415 17.1138L23.87 16.7463L26.67 14.5063L27.0725 14.1913L26.7925 13.7713L20.6325 4.25134L20.545 4.11134L16.94 2.30884H11.06ZM12.1625 3.42884H15.8375L14 6.75384L12.1625 3.42884ZM10.9725 3.62134L14.665 10.2538L12.145 8.78384C10.8675 8.0379 10.08 6.67509 10.08 5.19634V4.05884L10.9725 3.62134ZM17.0275 3.62134L17.92 4.05884V5.19634C17.92 6.67509 17.1325 8.0379 15.855 8.78384L15.3125 9.09884L14.6475 7.90884L17.0275 3.62134ZM8.95999 4.61884V5.19634C8.95999 7.07103 9.96405 8.81884 11.585 9.76384L15.68 12.1613V20.2288H7.31499L7.83999 12.0563L7.96249 10.1838L6.82499 11.6888L4.37499 14.9438L2.43249 13.3863L8.20749 5.00384L8.95999 4.61884ZM19.04 4.61884L19.775 4.98634L25.5675 13.9463L23.625 15.5038L21.175 12.2488L20.0375 10.7438L20.16 12.6163L20.685 20.2288H16.8V11.7938L16.73 11.6713L15.855 10.0788L16.415 9.76384C18.0359 8.81884 19.04 7.07103 19.04 5.19634V4.61884ZM14 13.5088C13.6916 13.5088 13.44 13.7604 13.44 14.0688C13.44 14.3773 13.6916 14.6288 14 14.6288C14.3084 14.6288 14.56 14.3773 14.56 14.0688C14.56 13.7604 14.3084 13.5088 14 13.5088ZM14 15.7488C13.6916 15.7488 13.44 16.0004 13.44 16.3088C13.44 16.6173 13.6916 16.8688 14 16.8688C14.3084 16.8688 14.56 16.6173 14.56 16.3088C14.56 16.0004 14.3084 15.7488 14 15.7488ZM14 17.9888C13.6916 17.9888 13.44 18.2404 13.44 18.5488C13.44 18.8573 13.6916 19.1088 14 19.1088C14.3084 19.1088 14.56 18.8573 14.56 18.5488C14.56 18.2404 14.3084 17.9888 14 17.9888ZM8.32999 21.3488H19.6875C19.8166 22.1648 20.0769 23.9848 20.125 25.8813C17.7603 26.0104 16.1328 26.6973 15.75 26.8788L14.315 25.9163L14 25.7238L13.685 25.9163L12.2325 26.8788C11.8344 26.6929 10.2134 26.0104 7.87499 25.8813C7.93405 24.0373 8.23374 21.9745 8.32999 21.3488Z" fill="#999999"/>
</svg>
