<svg width="29" height="30" viewBox="0 0 29 30" fill="none" xmlns="http://www.w3.org/2000/svg">
<path d="M8.89344 11.1444H7.71124C6.33835 11.1444 5.23242 10.0385 5.23242 8.66558V8.4749C5.23242 7.10202 6.33835 5.99609 7.71124 5.99609H21.0968C22.4316 5.99609 23.5375 7.10202 23.5375 8.4749V8.66558C23.5375 10.0385 22.4316 11.1444 21.0587 11.1444H20.0672" stroke="white" stroke-miterlimit="10" stroke-linecap="round"/>
<path d="M19.8764 23.2332C19.8764 23.6527 19.5331 23.9959 19.1137 23.9959H9.65602C9.23653 23.9959 8.89331 23.6527 8.89331 23.2332V8.8179C8.89331 8.3984 9.23653 8.05518 9.65602 8.05518H19.1137C19.5331 8.05518 19.8764 8.3984 19.8764 8.8179V23.2332Z" stroke="white" stroke-miterlimit="10" stroke-linecap="round"/>
<path d="M15.2622 9.77148V22.4325" stroke="white" stroke-miterlimit="10" stroke-linecap="round"/>
</svg>
