<svg width="28" height="30" viewBox="0 0 28 30" fill="none" xmlns="http://www.w3.org/2000/svg">
<path d="M14 1.74902C13.2869 1.74902 12.6416 1.91746 12.1275 2.23902C11.8212 2.42933 11.5434 2.67871 11.375 2.99152C8.40655 3.36558 5.74218 4.38933 3.79749 6.12402C1.7828 7.91996 0.55999 10.5056 0.55999 13.754V19.7915C0.557803 19.8156 0.557803 19.8375 0.55999 19.8615V19.879C0.55999 19.8856 0.55999 19.89 0.55999 19.8965C0.55999 19.9381 0.56874 19.9906 0.57749 20.0365C0.599365 20.3537 0.684677 20.6731 0.82249 21.104C0.97999 21.5962 1.19874 22.1803 1.45249 22.8015C1.96218 24.0462 2.61405 25.4287 3.21999 26.4065C3.77562 27.3012 4.34218 27.8284 5.03999 27.999C5.7378 28.1697 6.40499 27.9794 7.13999 27.719C8.60999 27.2006 10.5394 26.319 14 26.319C17.4606 26.319 19.3528 27.2006 20.8075 27.719C21.5337 27.9794 22.1878 28.1697 22.89 27.999C23.5922 27.8284 24.1719 27.3144 24.7625 26.424C25.2897 25.63 25.9262 24.2562 26.46 22.959C26.7269 22.3094 26.9697 21.6794 27.1425 21.1565C27.2934 20.6994 27.3962 20.3712 27.4225 20.0365C27.4334 19.984 27.44 19.9272 27.44 19.879V13.754C27.44 10.4968 26.2172 7.92215 24.2025 6.12402C22.2556 4.38715 19.6044 3.35902 16.625 2.99152C16.4566 2.67871 16.1787 2.42933 15.8725 2.23902C15.3584 1.91746 14.7131 1.74902 14 1.74902ZM14 2.86902C14.525 2.86902 14.9975 3.01558 15.295 3.20152C15.5925 3.38746 15.68 3.56465 15.68 3.70902C15.68 3.8534 15.5925 4.03058 15.295 4.21652C14.9975 4.40246 14.525 4.54902 14 4.54902C13.475 4.54902 13.0025 4.40246 12.705 4.21652C12.4075 4.03058 12.32 3.8534 12.32 3.70902C12.32 3.56465 12.4075 3.38746 12.705 3.20152C13.0025 3.01558 13.475 2.86902 14 2.86902ZM16.73 4.14652C19.4316 4.51621 21.77 5.44808 23.45 6.94652C25.2416 8.54558 26.32 10.7703 26.32 13.754V19.4415C26.2194 19.4175 26.1887 19.4219 26.04 19.3715C25.4253 19.1594 24.4737 18.7415 23.2925 18.2865C20.9278 17.3787 17.6247 16.309 13.965 16.309C10.3031 16.309 7.02405 17.405 4.67249 18.3215C3.4978 18.7787 2.54843 19.1812 1.94249 19.389C1.8003 19.4372 1.77624 19.4372 1.67999 19.459V13.754C1.67999 10.7812 2.75843 8.5609 4.54999 6.96402C6.22999 5.46558 8.57499 4.54027 11.27 4.16402C11.41 4.59058 11.7425 4.9384 12.1275 5.17902C12.6416 5.50058 13.2869 5.66902 14 5.66902C14.7131 5.66902 15.3584 5.50058 15.8725 5.17902C16.2619 4.93621 16.5922 4.57965 16.73 4.14652ZM14.2275 7.34902C12.8559 7.34902 11.8431 7.88058 11.4275 8.94152C11.2678 9.37246 11.2 9.71371 11.2 10.709C11.2 11.7044 11.2678 12.0456 11.4275 12.4765C11.8431 13.5375 12.8559 14.069 14.2275 14.069C15.4022 14.069 16.2509 13.6206 16.6425 13.0365C16.7344 12.9031 16.8 12.7697 16.8 12.6165C16.8 12.2425 16.4566 11.9865 16.03 11.9865C15.7412 11.9865 15.5072 12.0872 15.2775 12.354C14.9887 12.68 14.7241 12.8265 14.2275 12.8265C13.5931 12.8265 13.2103 12.5487 13.0375 12.109C12.9456 11.8684 12.915 11.6365 12.915 10.709C12.915 9.78152 12.9456 9.54746 13.0375 9.30902C13.2103 8.86933 13.5931 8.59152 14.2275 8.59152C14.7241 8.59152 14.9887 8.73808 15.2775 9.06402C15.5072 9.3309 15.7412 9.43152 16.03 9.43152C16.4566 9.43152 16.8 9.17558 16.8 8.80152C16.8 8.6484 16.7344 8.51496 16.6425 8.38152C16.2509 7.79746 15.4022 7.34902 14.2275 7.34902ZM13.965 17.429C17.4037 17.429 20.5756 18.4462 22.89 19.3365C24.0472 19.7806 24.9769 20.1984 25.6725 20.439C25.8344 20.4937 25.9853 20.5419 26.1275 20.579C26.1034 20.6578 26.1034 20.7212 26.075 20.8065C25.9131 21.2944 25.6856 21.909 25.4275 22.539C24.9091 23.799 24.2572 25.1553 23.835 25.794C23.3166 26.575 22.9534 26.8353 22.6275 26.914C22.3016 26.9928 21.8575 26.9119 21.175 26.669C19.81 26.1812 17.6531 25.199 14 25.199C10.3469 25.199 8.15718 26.1812 6.77249 26.669C6.08124 26.914 5.63718 26.9928 5.31999 26.914C5.0028 26.8353 4.64843 26.5903 4.16499 25.8115C3.6203 24.9322 2.99468 23.5825 2.50249 22.3815C2.25749 21.78 2.03437 21.2244 1.88999 20.7715C1.8703 20.7103 1.85499 20.6731 1.83749 20.614C1.98624 20.5769 2.14155 20.5134 2.30999 20.4565C3.00562 20.2181 3.94187 19.8025 5.09249 19.354C7.39374 18.4572 10.5262 17.429 13.965 17.429Z" fill="white"/>
</svg>
