<svg width="29" height="30" viewBox="0 0 29 30" fill="none" xmlns="http://www.w3.org/2000/svg">
<path d="M11.0117 5.97471C12.077 5.37359 13.2812 5.06212 14.5044 5.07133C15.7275 5.08054 16.9269 5.41011 17.9831 6.0272C19.0392 6.6443 19.9152 7.52737 20.5238 8.58843C21.1324 9.64949 21.4523 10.8515 21.4517 12.0748V16.0748M16.1817 24.0748C16.0058 24.3778 15.7535 24.6294 15.4499 24.8043C15.1463 24.9792 14.802 25.0712 14.4517 25.0712C14.1013 25.0712 13.7571 24.9792 13.4534 24.8043C13.1498 24.6294 12.8975 24.3778 12.7217 24.0748M3.45166 4.07471L25.4517 26.0748M19.4517 20.0748H4.45166C5.24731 20.0748 6.01037 19.7587 6.57298 19.1961C7.13559 18.6335 7.45166 17.8704 7.45166 17.0748V12.0748C7.45025 10.9545 7.71774 9.85016 8.23166 8.85471L19.4517 20.0748Z" stroke="white" stroke-linecap="round" stroke-linejoin="round"/>
</svg>
