<svg width="29" height="30" viewBox="0 0 29 30" fill="none" xmlns="http://www.w3.org/2000/svg">
<path d="M7.88818 14.9068H15.8882C16.949 14.9068 17.9665 14.4853 18.7166 13.7352C19.4668 12.985 19.8882 11.9676 19.8882 10.9068C19.8882 9.84587 19.4668 8.82846 18.7166 8.07831C17.9665 7.32817 16.949 6.90674 15.8882 6.90674H7.88818V14.9068ZM7.88818 14.9068H16.8882C17.949 14.9068 18.9665 15.3282 19.7166 16.0783C20.4668 16.8285 20.8882 17.8459 20.8882 18.9068C20.8882 19.9676 20.4668 20.985 19.7166 21.7352C18.9665 22.4853 17.949 22.9068 16.8882 22.9068H7.88818V14.9068Z" stroke="white" stroke-linecap="round" stroke-linejoin="round"/>
</svg>
