<svg width="28" height="30" viewBox="0 0 28 30" fill="none" xmlns="http://www.w3.org/2000/svg">
<mask id="mask0_2511_1492" style="mask-type:luminance" maskUnits="userSpaceOnUse" x="0" y="1" width="28" height="29">
<path d="M28 1.18896H0V29.189H28V1.18896Z" fill="white"/>
</mask>
<g mask="url(#mask0_2511_1492)">
<path d="M9.24004 1.74902C8.47661 1.74902 7.85536 1.95027 7.33254 2.16902C6.80973 2.38777 6.37879 2.61308 5.86254 2.74652C5.10348 2.94121 4.50411 2.80558 3.16754 3.07902C2.62504 3.19058 2.11098 3.56246 1.90754 4.11152C1.70411 4.66058 1.68004 5.31465 1.68004 6.29902C1.68004 7.1609 1.73911 11.3872 1.68004 12.8265C1.61879 14.3097 1.48098 15.5194 1.10254 16.2915C0.487857 17.5472 -0.0174561 19.3169 -0.0174561 20.999C-0.0174561 21.6159 0.0481689 22.0687 0.122544 22.3815C0.140044 22.4559 0.155357 22.4975 0.175044 22.5565C0.0831692 22.7009 0.0175439 22.8825 0.0175439 23.099C0.0175439 23.1056 0.0175439 23.11 0.0175439 23.1165L0.175044 27.159C0.175044 27.159 0.192544 27.1919 0.192544 27.194C0.192544 27.2269 0.188169 27.415 0.315044 27.614C0.452857 27.8306 0.770044 28.0165 1.10254 28.0165C1.29286 28.0165 2.29254 28.0515 2.29254 28.0515C2.32754 28.0559 2.36254 28.0559 2.39754 28.0515C2.39754 28.0515 2.50692 28.0384 2.64254 27.9815C2.71036 27.9531 2.79129 27.9028 2.88754 27.8065C2.97504 27.719 3.04942 27.5615 3.06254 27.3865C3.06254 27.4522 3.04286 27.4456 3.08004 27.5615C3.12161 27.695 3.23973 27.8525 3.39504 27.9465C3.55036 28.0406 3.71004 28.069 3.85004 28.069H6.37004C6.41161 28.0669 6.45317 28.0625 6.49254 28.0515C6.49254 28.0515 6.62161 28.0297 6.77254 27.9465C6.92348 27.8634 7.19254 27.6315 7.19254 27.264V26.0565C7.32817 26.0719 7.47036 26.074 7.64754 26.0915C8.12442 26.1375 8.73036 26.1987 9.32754 26.249C10.3972 26.3409 11.2219 26.4087 11.4275 26.424C11.421 26.5903 11.41 26.774 11.41 26.774C11.4035 26.8572 11.4144 26.9403 11.445 27.019C11.445 27.019 11.4975 27.17 11.6025 27.2815C11.7075 27.3931 11.8957 27.4959 12.11 27.544C12.3266 27.5922 12.6307 27.6294 12.9325 27.6665C13.2344 27.7037 13.4925 27.7365 13.4925 27.7365C13.5275 27.7409 13.5625 27.7409 13.5975 27.7365C13.5975 27.7365 13.7157 27.7387 13.86 27.7015C13.9322 27.6819 14.0263 27.649 14.14 27.579C14.2538 27.509 14.455 27.3253 14.455 27.0365C14.455 27.065 14.4682 26.9884 14.4725 26.9665C14.525 26.9665 14.5513 26.9687 14.595 26.9665C14.5972 26.9819 14.5929 27.0015 14.595 27.019C14.6191 27.1547 14.63 27.264 14.63 27.264H14.665C14.6694 27.334 14.6563 27.4194 14.7525 27.579C14.8794 27.7934 15.2185 28.0034 15.54 27.9815C15.4547 27.9881 15.6188 27.9772 15.75 27.9815C15.8813 27.9859 16.0585 27.9903 16.2225 27.999C16.5485 28.0144 16.8525 28.034 16.8525 28.034C16.881 28.0362 16.9116 28.0362 16.94 28.034C16.94 28.034 17.1304 28.0078 17.29 27.894C17.4454 27.7825 17.5788 27.5375 17.605 27.299H17.6225C17.6225 27.2947 17.6225 27.2859 17.6225 27.2815C17.6291 27.1787 17.6247 27.1481 17.6225 27.054C17.8019 27.0519 17.9441 27.0562 18.165 27.054C18.351 27.0519 18.5325 27.054 18.6725 27.054C18.7163 27.054 18.7032 27.0519 18.7425 27.054L18.76 27.3865C18.7732 27.5047 18.8213 27.614 18.9 27.7015C18.9 27.7015 19.0247 27.94 19.4075 28.034C19.5782 28.0778 19.576 28.0515 19.635 28.0515C19.6941 28.0515 19.7575 28.0559 19.8275 28.0515C19.9675 28.0428 20.1404 28.0319 20.3 28.0165C20.6216 27.9881 20.9125 27.9465 20.9125 27.9465C21.0919 27.9334 21.2538 27.8372 21.35 27.684C21.35 27.684 21.4025 27.5834 21.455 27.474C21.4813 27.4194 21.4988 27.3581 21.525 27.2815C21.5382 27.2422 21.5666 27.2094 21.5775 27.1415C21.5797 27.1328 21.5579 27.1 21.56 27.089C21.571 27.0322 21.5732 26.9337 21.525 26.809C21.5732 26.9294 21.5797 27.0037 21.5775 27.0365C21.5754 27.054 21.5797 27.0628 21.5775 27.0715C21.5929 27.0256 21.6147 26.9556 21.6475 26.879C21.6738 26.82 21.6782 26.8069 21.7 26.7565C21.91 26.7106 22.1113 26.6734 22.2775 26.634C22.2972 26.6625 22.3104 26.6909 22.33 26.7215C22.3913 26.8156 22.4285 26.8594 22.4525 26.8965C22.4613 26.9315 22.4525 26.925 22.47 26.9665C22.5094 27.054 22.5816 27.1765 22.7325 27.264C22.8835 27.3515 23.0869 27.3494 23.2225 27.3165C23.1919 27.3253 23.2991 27.3012 23.415 27.2815C23.531 27.2619 23.6754 27.2356 23.8175 27.2115C24.0997 27.1634 24.3775 27.124 24.3775 27.124C24.5175 27.1 24.6422 27.0256 24.7275 26.914L24.9025 26.669C24.9616 26.5859 24.9988 26.4897 25.0075 26.389L25.0775 25.829C25.1454 25.8028 25.2175 25.77 25.2875 25.7415C25.3729 25.7087 25.3794 25.6978 25.445 25.6715L25.6025 25.934C25.6572 26.0237 25.736 26.0959 25.83 26.144C25.83 26.144 25.9088 26.1878 26.005 26.214C26.1013 26.2403 26.2369 26.2709 26.46 26.1965C26.6 26.1506 26.6175 26.1397 26.7225 26.0915C26.8275 26.0434 26.9457 25.9931 27.0725 25.934C27.3241 25.8181 27.5625 25.7065 27.5625 25.7065C27.6872 25.6497 27.7857 25.5512 27.8425 25.4265C27.8425 25.4265 27.8754 25.3434 27.9125 25.234C27.93 25.1794 27.9497 25.1028 27.965 25.024C27.9804 24.9453 28.0175 24.8644 27.9475 24.6565C27.9454 24.65 27.9497 24.6456 27.9475 24.639C27.9388 24.6019 27.9235 24.545 27.9125 24.4815C27.8885 24.3525 27.871 24.1797 27.8425 24.009C27.8141 23.8384 27.7747 23.6612 27.755 23.519C27.7354 23.3769 27.72 23.25 27.72 23.274C27.7179 23.0378 27.591 22.8431 27.4575 22.714C27.4444 22.1803 27.3394 21.1281 26.74 20.299C25.9766 19.2447 24.6794 18.7 23.52 18.7415C22.5969 18.7744 22.0304 19.0347 21.7 19.179C21.3697 19.3234 21.3479 19.365 20.86 19.214C20.2979 19.0412 19.8932 18.8597 19.705 18.7765C19.6394 18.1312 19.3747 17.5647 18.9 17.2365C18.3029 16.8231 17.5504 16.6459 16.765 16.5015C15.691 16.3047 15.1004 16.2565 14.105 15.5915C13.6479 15.2875 13.381 14.9615 13.1425 14.4015C12.9041 13.8415 12.7182 13.0322 12.5125 11.9165C12.401 11.3062 12.3354 9.69402 12.32 8.04902C12.3047 6.40402 12.32 4.68246 12.32 3.69152C12.32 3.00465 11.8257 2.48402 11.2525 2.18652C10.6794 1.88902 9.98379 1.74902 9.24004 1.74902ZM9.24004 2.86902C9.83286 2.86902 10.3907 3.00027 10.745 3.18402C11.0994 3.36777 11.2 3.52527 11.2 3.69152C11.2 4.66933 11.1847 6.40621 11.2 8.06652C11.2154 9.72683 11.2547 11.28 11.41 12.1265C11.62 13.264 11.806 14.1281 12.11 14.839C12.4141 15.55 12.8516 16.1034 13.475 16.519C14.6388 17.2956 15.5379 17.4159 16.5725 17.604C17.3032 17.7375 17.9288 17.9103 18.27 18.1465C18.6025 18.3762 18.7294 18.5797 18.6725 19.0915C18.6704 19.1069 18.6747 19.1112 18.6725 19.1265C18.666 19.144 18.6594 19.1615 18.655 19.179C18.6047 19.4787 18.3335 20.0409 17.99 20.614C17.6357 21.2069 17.2354 21.7997 16.9575 22.294C16.8307 22.4669 16.8132 22.6965 16.9116 22.8869C17.0122 23.0772 17.2113 23.1931 17.4257 23.1865C17.6422 23.18 17.8325 23.0509 17.92 22.854C18.1541 22.4384 18.5741 21.8237 18.9525 21.1915C19.2063 20.7672 19.3375 20.3275 19.495 19.8965C19.7772 20.0169 20.0047 20.1372 20.5275 20.299C21.2254 20.5134 21.781 20.3581 22.155 20.194C22.5291 20.03 22.8025 19.8878 23.555 19.8615C24.29 19.8353 25.3379 20.2662 25.83 20.9465C26.1954 21.4519 26.2763 22.2722 26.3025 22.679C25.9197 22.8737 24.0035 23.8187 20.23 24.184C16.4347 24.5515 13.6566 24.5734 8.83754 23.1165C7.97567 22.8562 6.99348 22.7512 6.09004 22.6965C5.18661 22.6419 4.34879 22.6222 3.90254 22.5565C1.81129 22.2437 1.36067 22.1606 1.22504 22.1365C1.22286 22.1234 1.22942 22.1322 1.22504 22.119C1.17254 21.8959 1.10254 21.5328 1.10254 20.999C1.10254 19.5509 1.57942 17.8972 2.11754 16.799C2.26629 16.495 2.37786 16.1647 2.46754 15.819C3.51973 16.3572 6.66317 18.1422 7.91004 21.0865C8.03036 21.3709 8.36067 21.5044 8.64504 21.384C8.92942 21.2637 9.06286 20.9334 8.94254 20.649C7.33692 16.8559 3.28129 14.9419 2.66004 14.664C2.72786 14.0953 2.77379 13.4959 2.80004 12.8615C2.86348 11.304 2.80004 7.10402 2.80004 6.29902C2.80004 5.34746 2.86129 4.75465 2.95754 4.49652C3.05379 4.2384 3.06254 4.23183 3.39504 4.16402C4.58067 3.92121 5.15161 4.08746 6.14254 3.83152C6.79879 3.66308 7.30192 3.39621 7.77004 3.20152C8.23817 3.00683 8.66692 2.86902 9.24004 2.86902ZM9.92254 4.35652C9.55067 4.35652 9.24004 4.66715 9.24004 5.03902C9.24004 5.4109 9.55067 5.70402 9.92254 5.70402C10.2944 5.70402 10.5875 5.4109 10.5875 5.03902C10.5875 4.66715 10.2944 4.35652 9.92254 4.35652ZM9.87004 7.31402C9.49817 7.31402 9.20504 7.62464 9.20504 7.99652C9.20504 8.36839 9.49817 8.66152 9.87004 8.66152C10.2419 8.66152 10.5525 8.36839 10.5525 7.99652C10.5525 7.62464 10.2419 7.31402 9.87004 7.31402ZM9.95754 10.0965C9.58567 10.0965 9.29254 10.4071 9.29254 10.779C9.29254 11.1509 9.58567 11.444 9.95754 11.444C10.3294 11.444 10.64 11.1509 10.64 10.779C10.64 10.4071 10.3294 10.0965 9.95754 10.0965ZM10.36 13.1765C9.98817 13.1765 9.69504 13.4697 9.69504 13.8415C9.69504 14.2134 9.98817 14.524 10.36 14.524C10.7319 14.524 11.0425 14.2134 11.0425 13.8415C11.0425 13.4697 10.7319 13.1765 10.36 13.1765ZM11.7075 15.609C11.3357 15.609 11.0425 15.9197 11.0425 16.2915C11.0425 16.6634 11.3357 16.9565 11.7075 16.9565C12.0794 16.9565 12.39 16.6634 12.39 16.2915C12.39 15.9197 12.0794 15.609 11.7075 15.609ZM13.825 17.1315C13.4532 17.1315 13.1425 17.4422 13.1425 17.814C13.1425 18.1859 13.4532 18.479 13.825 18.479C14.1969 18.479 14.49 18.1859 14.49 17.814C14.49 17.4422 14.1969 17.1315 13.825 17.1315ZM16.4675 17.989C16.0957 17.989 15.785 18.2822 15.785 18.654C15.785 19.0259 16.0957 19.3365 16.4675 19.3365C16.8394 19.3365 17.1325 19.0259 17.1325 18.654C17.1325 18.2822 16.8394 17.989 16.4675 17.989ZM1.13754 23.2565C1.52254 23.3244 2.19192 23.4447 3.74504 23.6765C4.34223 23.7662 5.14504 23.764 6.02004 23.8165C6.89504 23.869 7.82473 23.9719 8.52254 24.184C13.4619 25.6759 16.4894 25.6584 20.335 25.2865C23.566 24.9737 25.7535 24.1622 26.67 23.764C26.6875 23.9019 26.6963 24.0484 26.7225 24.2015C26.7532 24.3787 26.7838 24.5537 26.81 24.6915C26.8188 24.7397 26.821 24.7769 26.8275 24.814C26.74 24.8556 26.716 24.8665 26.6 24.919C26.5147 24.9584 26.4338 24.989 26.355 25.024L26.215 24.814C26.1232 24.6653 25.9679 24.569 25.795 24.5515L25.4975 24.5165C25.4079 24.5078 25.3182 24.5187 25.235 24.5515C25.235 24.5515 25.0513 24.6369 24.8675 24.709C24.7757 24.744 24.6904 24.7725 24.6225 24.7965C24.5875 24.8075 24.546 24.8272 24.535 24.8315C24.4016 24.86 24.2835 24.93 24.22 24.989C24.1391 25.0656 24.1063 25.129 24.08 25.1815C24.0275 25.2865 24.0079 25.3434 23.9925 25.409C23.9641 25.5381 23.9575 25.654 23.9575 25.654L23.9225 26.0565C23.8175 26.074 23.7782 26.0828 23.625 26.109C23.5135 26.1287 23.4129 26.144 23.31 26.1615C23.2947 26.1353 23.2925 26.1353 23.275 26.109C23.2335 26.0434 23.1941 25.9778 23.1525 25.9165C23.111 25.8553 23.1088 25.8378 22.995 25.724C22.8025 25.5315 22.6954 25.5381 22.61 25.514C22.5247 25.49 22.47 25.479 22.47 25.479C22.3957 25.4637 22.3169 25.4637 22.2425 25.479C22.2425 25.479 21.4266 25.6737 21.35 25.689C21.2122 25.7175 21.0832 25.7744 20.9825 25.8465C20.9322 25.8815 20.895 25.91 20.86 25.9515C20.825 25.9931 20.79 26.074 20.79 26.074C20.7835 26.0806 20.7791 26.085 20.7725 26.0915C20.7725 26.0915 20.6916 26.2469 20.615 26.424C20.5779 26.5115 20.5407 26.6144 20.51 26.704C20.4947 26.7478 20.4882 26.785 20.475 26.844C20.4729 26.8528 20.4772 26.8703 20.475 26.879C20.3657 26.89 20.335 26.8834 20.195 26.8965C20.0704 26.9075 19.9522 26.925 19.845 26.9315L19.8275 26.599C19.8122 26.4569 19.7444 26.3256 19.635 26.2315C19.635 26.2315 19.4644 25.9822 19.04 25.934C18.9022 25.9187 18.8213 25.934 18.6725 25.934C18.5238 25.934 18.3532 25.9319 18.165 25.934C17.791 25.9384 17.3885 25.934 17.255 25.934C17.0582 25.934 16.8832 26.0303 16.7825 26.1265C16.6819 26.2228 16.6229 26.3147 16.59 26.389C16.5222 26.5356 16.5025 26.669 16.5025 26.669C16.4982 26.704 16.4982 26.739 16.5025 26.774C16.5025 26.774 16.5025 26.855 16.5025 26.8965C16.4019 26.8922 16.3954 26.8856 16.275 26.879C16.1088 26.8703 15.9404 26.8659 15.8025 26.8615C15.7588 26.8594 15.7282 26.8637 15.6975 26.8615C15.6954 26.844 15.6997 26.844 15.6975 26.8265C15.6757 26.7062 15.6625 26.5181 15.6625 26.599C15.6625 26.3847 15.54 26.2162 15.4525 26.1265C15.365 26.0369 15.2885 25.9844 15.225 25.9515C15.0982 25.8881 14.9975 25.864 14.9975 25.864C14.9275 25.8509 14.8575 25.8509 14.7875 25.864C14.7875 25.864 14.5316 25.8859 14.315 25.864C14.081 25.84 13.8185 25.8619 13.615 26.0565C13.4794 26.1878 13.5057 26.3059 13.4925 26.424L13.44 26.4065C13.44 26.4065 13.4072 26.5006 13.3875 26.599C13.2847 26.5881 13.2432 26.5859 13.0725 26.564C12.8494 26.5356 12.6569 26.5006 12.5125 26.4765C12.5213 26.319 12.5454 26.2381 12.53 26.0565C12.5038 25.7481 12.2479 25.4747 12.0575 25.3915C11.8979 25.3215 11.8016 25.339 11.76 25.339V25.3215C11.76 25.3215 11.7097 25.3215 11.7075 25.3215C11.6572 25.3172 10.5766 25.2275 9.41504 25.129C8.82004 25.0787 8.22067 25.035 7.75254 24.989C7.51848 24.965 7.31942 24.9365 7.17504 24.919C7.10286 24.9103 7.03942 24.9081 7.00004 24.9015C6.84473 24.849 6.60411 24.8206 6.38754 24.954C6.17098 25.0875 6.09223 25.3019 6.07254 25.4265C6.04629 25.5862 6.07473 25.6103 6.09004 25.6715H6.07254V26.949C5.71817 26.949 4.70536 26.949 4.16504 26.949C4.15848 26.6778 4.14754 26.3015 4.14754 26.3015C4.14973 26.2775 4.14973 26.2556 4.14754 26.2315C4.14754 26.2315 4.08848 25.9887 3.92004 25.794C3.75161 25.5994 3.44754 25.4331 3.08004 25.409C2.70379 25.385 2.35161 25.4922 2.15254 25.724C1.96661 25.9406 1.97754 26.1944 1.97754 26.2315H1.96004V26.2665C1.96004 26.3015 1.96004 26.6165 1.96004 26.914C1.72817 26.9053 1.52473 26.9009 1.27754 26.8965L1.13754 23.2565Z" fill="white"/>
</g>
</svg>
