<svg width="29" height="30" viewBox="0 0 29 30" fill="none" xmlns="http://www.w3.org/2000/svg">
<path d="M18.385 23.7139V7.71387C18.385 7.18343 18.1743 6.67473 17.7992 6.29965C17.4242 5.92458 16.9154 5.71387 16.385 5.71387H12.385C11.8546 5.71387 11.3459 5.92458 10.9708 6.29965C10.5957 6.67473 10.385 7.18343 10.385 7.71387V23.7139M6.38501 9.71387H22.385C23.4896 9.71387 24.385 10.6093 24.385 11.7139V21.7139C24.385 22.8184 23.4896 23.7139 22.385 23.7139H6.38501C5.28044 23.7139 4.38501 22.8184 4.38501 21.7139V11.7139C4.38501 10.6093 5.28044 9.71387 6.38501 9.71387Z" stroke="white" stroke-linecap="round" stroke-linejoin="round"/>
</svg>
