<svg width="29" height="30" viewBox="0 0 29 30" fill="none" xmlns="http://www.w3.org/2000/svg">
<path d="M25.385 21.9068C25.385 22.4372 25.1743 22.9459 24.7992 23.321C24.4242 23.696 23.9154 23.9068 23.385 23.9068H5.38501C4.85458 23.9068 4.34587 23.696 3.9708 23.321C3.59572 22.9459 3.38501 22.4372 3.38501 21.9068V10.9068C3.38501 10.3763 3.59572 9.8676 3.9708 9.49253C4.34587 9.11745 4.85458 8.90674 5.38501 8.90674H9.38501L11.385 5.90674H17.385L19.385 8.90674H23.385C23.9154 8.90674 24.4242 9.11745 24.7992 9.49253C25.1743 9.8676 25.385 10.3763 25.385 10.9068V21.9068Z" stroke="white" stroke-linecap="round" stroke-linejoin="round"/>
<path d="M14.385 19.9067C16.5941 19.9067 18.385 18.1158 18.385 15.9067C18.385 13.6975 16.5941 11.9067 14.385 11.9067C12.1759 11.9067 10.385 13.6975 10.385 15.9067C10.385 18.1158 12.1759 19.9067 14.385 19.9067Z" stroke="white" stroke-linecap="round" stroke-linejoin="round"/>
</svg>
