<svg width="28" height="30" viewBox="0 0 28 30" fill="none" xmlns="http://www.w3.org/2000/svg">
<path d="M17.9144 7.3487C17.8572 7.34951 17.8004 7.3591 17.746 7.37714L16.0627 7.93714C15.9625 7.97057 15.8739 8.03164 15.8069 8.11331C15.7399 8.19497 15.6974 8.29391 15.6843 8.3987C15.6843 8.3987 15.6661 8.58583 15.4951 8.99808C15.324 9.41032 15.0063 10.0051 14.4155 10.6945C14.2766 10.8566 14.1194 11.025 13.9485 11.1965C13.9028 11.2289 13.8623 11.268 13.8282 11.3125C12.5285 12.5745 10.324 14.0359 6.55584 15.2139C5.61065 15.5094 4.09684 15.5254 2.74303 15.8679C2.06613 16.0392 1.40879 16.3012 0.892407 16.7933C0.376021 17.2853 0.0447337 18.0085 0.00756347 18.914C-0.0454789 20.2033 0.991764 21.2402 2.23991 21.3312V22.1887C2.23991 22.6524 2.61567 23.0287 3.07991 23.0287C3.54415 23.0287 3.91991 22.6524 3.91991 22.1887V21.3487H5.03991V22.1887C5.03991 22.6524 5.41567 23.0287 5.87991 23.0287C6.34415 23.0287 6.71991 22.6524 6.71991 22.1887V21.3487H7.83991V22.1887C7.83991 22.6524 8.21567 23.0287 8.67991 23.0287C9.14415 23.0287 9.51991 22.6524 9.51991 22.1887V21.3487H10.6399V22.1887C10.6399 22.6524 11.0157 23.0287 11.4799 23.0287C11.9441 23.0287 12.3199 22.6524 12.3199 22.1887V21.3487H21.2799V22.1887C21.2799 22.6524 21.6562 23.0287 22.1199 23.0287C22.5836 23.0287 22.9599 22.6524 22.9599 22.1887V21.3487H24.0799V22.1887C24.0799 22.6524 24.4562 23.0287 24.9199 23.0287C25.3836 23.0287 25.7599 22.6524 25.7599 22.1887V21.3104C26.4063 21.1759 26.9379 20.6719 27.0669 19.9979C27.732 16.5271 27.4465 11.6803 26.8657 9.44761C26.8344 9.32756 26.7642 9.22129 26.666 9.14548C26.5678 9.06966 26.4472 9.02859 26.3232 9.0287C26.3232 9.0287 26.1591 9.05283 26.1558 9.05386C26.1526 9.05487 26.1504 9.05605 26.1504 9.05605C26.1479 9.05683 26.1458 9.05756 26.1438 9.05823C26.1398 9.05958 26.1349 9.06157 26.1285 9.0637C26.1157 9.06796 26.097 9.07351 26.0738 9.0812C26.0275 9.09658 25.9614 9.11837 25.8824 9.14464C25.7244 9.19717 25.5142 9.26713 25.3038 9.33714C24.8831 9.47716 24.4627 9.61714 24.4627 9.61714C24.3929 9.64043 24.3284 9.67725 24.2729 9.72548C24.2173 9.77371 24.1718 9.83241 24.139 9.89823C24.139 9.89823 23.7066 10.7087 22.9599 10.7087C21.7839 10.7087 20.6282 9.96884 19.7716 9.17745C18.9151 8.38607 18.3891 7.59808 18.3891 7.59808C18.3372 7.52013 18.2665 7.45646 18.1836 7.41289C18.1006 7.36932 18.0081 7.34725 17.9144 7.3487ZM17.7515 8.5562C17.9268 8.80402 18.2317 9.2795 19.0115 9.99995C19.9732 10.8886 21.3359 11.8287 22.9599 11.8287C24.2124 11.8287 24.7816 10.9544 24.9702 10.63C25.0839 10.5921 25.3141 10.5148 25.6582 10.4003C25.7278 10.3771 25.7818 10.3594 25.8496 10.3368C26.2868 12.4794 26.5406 16.7913 25.9666 19.7868C25.9174 20.0439 25.6903 20.2287 25.4176 20.2287H19.6808L14.9668 11.7434C15.0669 11.6362 15.1758 11.5275 15.2654 11.4229C15.9342 10.6424 16.3159 9.94208 16.5298 9.42683C16.6538 9.12795 16.6474 9.06998 16.684 8.91167L17.7515 8.5562ZM14.1323 12.5484L18.399 20.2287H16.8808L13.0735 13.3753C13.4652 13.0981 13.8178 12.8216 14.1323 12.5484ZM12.134 13.9911L15.599 20.2287H14.0808L10.9735 14.6364C11.388 14.4234 11.7759 14.2085 12.134 13.9911ZM9.96506 15.1275L12.799 20.2287H2.41381C1.69519 20.2287 1.09799 19.6522 1.12647 18.96C1.15426 18.283 1.35332 17.9014 1.66459 17.6048C1.97587 17.3082 2.44266 17.0984 3.01756 16.9529C4.16738 16.662 5.66684 16.6662 6.89053 16.2836C8.04397 15.923 9.06252 15.5334 9.96506 15.1275Z" fill="white"/>
</svg>
