<svg width="29" height="30" viewBox="0 0 29 30" fill="none" xmlns="http://www.w3.org/2000/svg">
<path d="M10.1536 20.0918L14.1536 24.0918M14.1536 24.0918L18.1536 20.0918M14.1536 24.0918V15.0918M23.0336 21.1818C23.903 20.5704 24.555 19.6979 24.8949 18.6909C25.2348 17.6839 25.245 16.5948 24.924 15.5816C24.603 14.5684 23.9675 13.6838 23.1097 13.0563C22.2519 12.4288 21.2164 12.0909 20.1536 12.0918H18.8936C18.5929 10.9196 18.0301 9.83098 17.2477 8.90781C16.4654 7.98464 15.4838 7.25099 14.3768 6.76209C13.2699 6.27318 12.0665 6.04176 10.8571 6.08525C9.64783 6.12874 8.46413 6.446 7.39517 7.01316C6.32621 7.58031 5.39984 8.38258 4.68581 9.35956C3.97177 10.3365 3.48867 11.4628 3.27288 12.6535C3.05709 13.8442 3.11423 15.0683 3.44 16.2338C3.76577 17.3992 4.35168 18.4755 5.15362 19.3818" stroke="white" stroke-linecap="round" stroke-linejoin="round"/>
</svg>
