<svg width="29" height="30" viewBox="0 0 29 30" fill="none" xmlns="http://www.w3.org/2000/svg">
<path d="M16.549 17.116C16.2743 17.4108 15.9431 17.6472 15.5751 17.8112C15.2071 17.9751 14.8099 18.0633 14.407 18.0704C14.0042 18.0775 13.6041 18.0034 13.2306 17.8525C12.857 17.7017 12.5177 17.4771 12.2328 17.1922C11.9479 16.9073 11.7233 16.568 11.5725 16.1944C11.4216 15.8209 11.3475 15.4208 11.3546 15.018C11.3617 14.6151 11.4499 14.2179 11.6138 13.8499C11.7778 13.4819 12.0142 13.1507 12.309 12.8761M3.42896 3.99609L25.429 25.996M20.369 20.9361C18.6595 22.2391 16.5781 22.9609 14.429 22.996C7.42896 22.996 3.42896 14.996 3.42896 14.996C4.67285 12.6779 6.39809 10.6527 8.48896 9.05609L20.369 20.9361ZM12.329 7.23609C13.0173 7.07497 13.722 6.99443 14.429 6.99609C21.429 6.99609 25.429 14.996 25.429 14.996C24.8219 16.1317 24.098 17.2008 23.269 18.186L12.329 7.23609Z" stroke="white" stroke-linecap="round" stroke-linejoin="round"/>
</svg>
