<svg width="28" height="30" viewBox="0 0 28 30" fill="none" xmlns="http://www.w3.org/2000/svg">
<path d="M7.84 2.30908C5.66562 2.30908 3.94625 3.26939 2.8175 4.66283C1.68656 6.05408 1.12 7.85658 1.12 9.61751C1.12 13.0868 2.84593 17.0112 3.50218 20.3931C3.74281 21.6356 4.04031 23.5081 4.04031 23.5081V23.5015C4.1125 23.9828 4.28312 25.1028 4.97656 26.1309C5.67 27.159 6.94968 28.069 8.96 28.069C10.0144 28.069 11.1628 27.7409 12.0312 26.8418C12.8975 25.9406 13.44 24.5187 13.44 22.469C13.44 20.9531 12.88 18.829 12.88 16.5431C12.88 13.0431 13.44 11.2275 13.44 7.90908C13.44 6.10876 12.7947 4.67377 11.7556 3.7222C10.7166 2.77064 9.31218 2.30908 7.84 2.30908ZM20.16 2.30908C18.6878 2.30908 17.2834 2.77064 16.2444 3.7222C15.2053 4.67377 14.56 6.10876 14.56 7.90908C14.56 11.2275 15.12 13.0431 15.12 16.5431C15.12 18.829 14.56 20.9531 14.56 22.469C14.56 24.5187 15.1025 25.9406 15.9687 26.8418C16.8372 27.7409 17.9856 28.069 19.04 28.069C21.0503 28.069 22.33 27.159 23.0234 26.1309C23.7169 25.1028 23.8875 23.9828 23.9597 23.5015V23.5059C23.9597 23.5059 24.2572 21.6378 24.4978 20.3931C25.1541 17.0112 26.88 13.0868 26.88 9.61751C26.88 7.85876 26.3134 6.05408 25.1825 4.66283C24.0537 3.26939 22.3344 2.30908 20.16 2.30908ZM7.84 3.42908C9.08031 3.42908 10.1981 3.81627 10.9987 4.54908C11.8016 5.28189 12.32 6.36689 12.32 7.90908C12.32 11.1006 11.76 12.925 11.76 16.5431C11.76 19.004 12.32 21.2593 12.32 22.469C12.32 24.324 11.8453 25.42 11.2241 26.0653C10.6006 26.7084 9.78906 26.949 8.96 26.949C7.26687 26.949 6.43125 26.2862 5.90406 25.5053C5.37687 24.7222 5.21718 23.799 5.14718 23.3353C5.14718 23.3353 5.14718 23.3331 5.14718 23.3309C5.14718 23.3309 4.84968 21.4606 4.6025 20.1787C3.90906 16.6065 2.24 12.6997 2.24 9.61751C2.24 8.10158 2.74093 6.53095 3.68593 5.3672C4.63092 4.20345 5.98937 3.42908 7.84 3.42908ZM20.16 3.42908C22.0106 3.42908 23.3691 4.20345 24.3141 5.3672C25.2591 6.53095 25.76 8.10158 25.76 9.61751C25.76 12.6997 24.0909 16.6065 23.3975 20.1787C23.1503 21.4606 22.8528 23.3287 22.8528 23.3287C22.8528 23.3309 22.8528 23.3331 22.8528 23.3353C22.7828 23.7968 22.6231 24.7222 22.0959 25.5053C21.5687 26.2862 20.7331 26.949 19.04 26.949C18.2109 26.949 17.3994 26.7084 16.7759 26.0653C16.1547 25.42 15.68 24.324 15.68 22.469C15.68 21.2593 16.24 19.004 16.24 16.5431C16.24 12.925 15.68 11.1006 15.68 7.90908C15.68 6.36689 16.1984 5.28189 17.0012 4.54908C17.8019 3.81627 18.9197 3.42908 20.16 3.42908ZM7.28 5.66908C1.99062 9.37689 4.32687 17.779 4.87593 18.6715C6.265 20.929 7.37406 18.6825 6.2475 18.2143C4.27437 17.0878 4.71625 9.04439 7.28 7.34908C9.30562 9.55408 11.2897 12.6165 9.73875 16.8647C8.92937 18.2209 10.6159 19.7106 10.9791 17.149C11.0687 16.4228 11.2 15.9262 11.2 13.2378C11.2 11.035 9.82625 6.96189 7.28 5.66908ZM20.72 5.66908C18.1737 6.96189 16.8 11.035 16.8 13.2378C16.8 15.9262 16.9291 16.4206 17.0187 17.149C17.3819 19.7106 19.0706 18.2209 18.2612 16.8668C16.7103 12.6187 18.6944 9.55408 20.72 7.34908C23.2837 9.04439 23.7234 17.0878 21.7525 18.2143C20.6259 18.6825 21.7372 20.929 23.1262 18.6715C23.6731 17.779 26.0094 9.37689 20.72 5.66908Z" fill="white"/>
</svg>
