<svg width="29" height="30" viewBox="0 0 29 30" fill="none" xmlns="http://www.w3.org/2000/svg">
<path d="M20.2473 5.99609L4.37231 17.8711L23.2057 23.996C23.2473 23.996 27.289 16.6211 20.2473 5.99609Z" stroke="white" stroke-miterlimit="10"/>
<path d="M18.2473 7.62061C18.4556 8.99561 19.7056 9.41228 20.3723 10.5373C21.0806 11.6623 20.8306 12.7039 20.914 13.9539C20.9973 15.1623 21.9556 15.9123 22.2056 17.0373C22.414 18.0789 21.3723 18.5789 21.4556 19.5789C21.4973 20.2039 21.8723 20.9956 21.789 21.6206C21.7056 22.2456 21.164 22.8289 20.789 23.2873" stroke="white" stroke-miterlimit="10"/>
<path d="M17.164 15.6206C16.2057 15.7873 15.3307 15.1206 15.164 14.1623C14.9973 13.2039 15.664 12.3289 16.6223 12.1623C17.5807 11.9956 18.4557 12.6623 18.6223 13.6206C18.789 14.5789 18.1223 15.4539 17.164 15.6206Z" stroke="white" stroke-miterlimit="10"/>
<path d="M18.2474 20.3291C17.3724 20.4541 16.5391 19.8708 16.3724 18.9958C16.2057 18.1208 16.8307 17.2875 17.7474 17.1208C18.6224 16.9958 19.4557 17.5791 19.6224 18.4541C19.7474 19.3291 19.1641 20.1625 18.2474 20.3291Z" stroke="white" stroke-miterlimit="10"/>
<path d="M12.7889 18.0794C11.9556 18.2044 11.1639 17.6627 11.0389 16.8294C10.9139 15.996 11.4556 15.2044 12.2889 15.0794C13.1222 14.9544 13.9139 15.496 14.0389 16.3294C14.1639 17.1627 13.6222 17.9127 12.7889 18.0794Z" stroke="white" stroke-miterlimit="10"/>
</svg>
