<svg width="28" height="30" viewBox="0 0 28 30" fill="none" xmlns="http://www.w3.org/2000/svg">
<path d="M11.4625 8.85381C11.41 8.856 11.3575 8.85819 11.305 8.87131C11.0993 8.926 10.92 9.05288 10.78 9.20381C10.6684 9.32631 10.6815 9.35038 10.6575 9.39631C10.6334 9.44225 10.6115 9.50131 10.5875 9.55381C10.5393 9.661 10.4868 9.78788 10.4125 9.93881C10.2659 10.2429 10.0581 10.6191 9.78246 10.9888C9.23121 11.726 8.46778 12.3888 7.27996 12.3888C6.29996 12.3888 5.24996 12.0147 4.28746 11.6013C3.32496 11.1878 2.51996 10.7088 1.67996 10.7088C1.47434 10.711 1.28621 10.8247 1.18996 11.0063C0.492151 12.345 0.538089 14.0753 0.577463 15.2238C0.647463 17.2975 1.07184 18.9907 1.11996 19.1788V21.3488C1.11996 21.6572 1.37153 21.9088 1.67996 21.9088H7.83996C8.1484 21.9088 8.39996 21.6572 8.39996 21.3488V19.6863C9.59653 19.73 10.2528 19.8088 10.71 20.0188C13.0287 21.0819 13.7703 21.9088 19.04 21.9088C22.7981 21.9088 24.769 21.8082 25.8825 21.5938C26.4403 21.4866 26.8056 21.3619 27.09 21.1038C27.3743 20.8457 27.44 20.4432 27.44 20.2288C27.44 18.9382 27.0068 17.9122 26.32 17.1663C25.6331 16.4203 24.7275 15.9566 23.7825 15.6088C21.8925 14.911 19.7553 14.6375 18.725 14.1213C17.605 13.5613 15.925 12.3144 14.56 11.2163C13.195 10.1182 12.1275 9.16881 12.1275 9.16881L12.11 9.18631C12.0575 9.101 12.0618 9.03538 11.8825 8.94131C11.7709 8.88225 11.62 8.84725 11.4625 8.85381ZM11.55 10.1488C11.679 10.2626 12.5628 11.0457 13.86 12.0913C15.249 13.2091 16.9312 14.4844 18.235 15.1363C19.6284 15.8341 21.6934 16.031 23.3975 16.6588C24.2484 16.9738 24.9878 17.3653 25.4975 17.9188C26.0071 18.4722 26.32 19.1766 26.32 20.2288C26.32 20.2682 26.3331 20.2616 26.3375 20.2638C26.3221 20.2769 26.1384 20.4016 25.6725 20.4913C24.7406 20.6707 22.7762 20.7888 19.04 20.7888C13.8775 20.7888 13.6237 20.1238 11.1825 19.0038C10.4168 18.6516 9.58121 18.5969 7.99746 18.5663C7.98653 18.5663 7.9734 18.5663 7.96246 18.5663C7.92309 18.5553 7.88153 18.551 7.83996 18.5488H7.01746C6.70246 18.5444 6.43996 18.5378 6.07246 18.5313C6.0659 18.5247 6.06153 18.5203 6.05496 18.5138L2.13496 18.5488C2.02121 18.0653 1.75434 16.8578 1.69746 15.1888C1.66465 14.2088 1.73246 12.9182 2.06496 11.9688C2.45871 12.0694 3.01215 12.2641 3.83246 12.6163C4.82996 13.0428 6.01996 13.5088 7.27996 13.5088C8.89215 13.5088 10.0034 12.5725 10.675 11.6713C11.0118 11.2207 11.2634 10.77 11.4275 10.4288C11.4822 10.3151 11.5106 10.2341 11.55 10.1488ZM2.23996 19.6688H7.27996V20.7888H2.23996V19.6688Z" fill="white"/>
</svg>
