<svg width="28" height="30" viewBox="0 0 28 30" fill="none" xmlns="http://www.w3.org/2000/svg">
<mask id="mask0_2511_1680" style="mask-type:luminance" maskUnits="userSpaceOnUse" x="0" y="1" width="28" height="29">
<path d="M28 1.18896H0V29.189H28V1.18896Z" fill="white"/>
</mask>
<g mask="url(#mask0_2511_1680)">
<path d="M5.88002 6.229C5.6744 6.229 5.36377 6.32306 5.14502 6.509C4.92627 6.69494 4.75346 6.94213 4.51502 7.3315C4.33346 7.62681 4.04252 8.25681 3.60502 9.1865C3.16752 10.1162 2.62502 11.2778 2.10002 12.424C1.05002 14.7143 0.0525233 16.9215 0.0525233 16.9215C-0.0459142 17.0878 -0.0524767 17.2912 0.0350233 17.464C0.0393983 17.475 0.0459608 17.4881 0.0525233 17.499C0.0831486 17.6018 0.118149 17.6915 0.175023 17.7615C0.277836 17.8862 0.389399 17.9453 0.472523 17.989C0.640961 18.0787 0.759086 18.1159 0.840023 18.164C1.0019 18.2625 1.12002 18.2843 1.12002 18.934C1.12002 20.2421 1.4919 21.6903 2.50252 22.819C3.51315 23.9478 5.15159 24.709 7.50752 24.709C9.41721 24.709 10.8391 24.0856 11.7075 22.959C12.576 21.8325 12.88 20.2968 12.88 18.549V17.184C13.0769 17.0593 13.4247 16.869 14 16.869C14.5753 16.869 14.9231 17.0593 15.12 17.184V18.549C15.12 20.2968 15.4241 21.8325 16.2925 22.959C17.161 24.0856 18.5828 24.709 20.4925 24.709C22.8485 24.709 24.4869 23.9565 25.4975 22.8365C26.5081 21.7165 26.88 20.2859 26.88 19.004C26.88 18.3215 27.0069 18.2865 27.16 18.199C27.2366 18.1553 27.3416 18.1246 27.51 18.0415C27.5953 18 27.6981 17.9387 27.8075 17.814C27.8906 17.7178 27.9541 17.5821 27.9825 17.4465C28.0591 17.2759 28.046 17.079 27.9475 16.9215C27.9475 16.9215 26.95 14.7143 25.9 12.424C25.375 11.2778 24.8325 10.1162 24.395 9.1865C23.9575 8.25681 23.6666 7.62681 23.485 7.3315C23.2466 6.94213 23.0738 6.69494 22.855 6.509C22.6363 6.32306 22.3256 6.229 22.12 6.229C21.8685 6.229 21.5863 6.34713 21.385 6.5265C21.1838 6.70588 21.0175 6.94869 20.8075 7.279C20.4772 7.83025 20.2475 8.154 20.2475 8.154C20.0725 8.41431 20.1447 8.7665 20.405 8.9415C20.6653 9.1165 21.0175 9.04431 21.1925 8.784C21.1925 8.784 21.4178 8.42963 21.7525 7.874C21.7569 7.86525 21.7481 7.86525 21.7525 7.8565C21.921 7.59181 22.0544 7.44744 22.12 7.384C22.1835 7.43869 22.3344 7.594 22.54 7.9265C22.5816 7.99431 22.9622 8.73588 23.3975 9.659C23.8328 10.5821 24.36 11.7525 24.885 12.8965C25.6594 14.5831 26.051 15.4625 26.39 16.204C26.2303 16.169 26.0881 16.1318 25.9 16.099C24.7144 15.8934 22.9272 15.749 20.3875 15.749C18.7403 15.749 17.0647 16.1187 15.785 16.2915C15.5225 16.1078 14.9516 15.749 14 15.749C13.0485 15.749 12.4775 16.1078 12.215 16.2915C10.9353 16.1187 9.25971 15.749 7.61252 15.749C5.07284 15.749 3.28346 15.8846 2.10002 16.0815C1.9119 16.1121 1.76752 16.1515 1.61002 16.1865C1.95127 15.4406 2.34502 14.5765 3.11502 12.8965C3.64002 11.7525 4.16721 10.5821 4.60252 9.659C5.03784 8.73588 5.41846 7.99431 5.46002 7.9265V7.909C5.65909 7.58963 5.81877 7.43869 5.88002 7.384C5.94565 7.44744 6.07909 7.59181 6.24752 7.8565C6.2519 7.86525 6.24315 7.86525 6.24752 7.874C6.58221 8.42963 6.80752 8.784 6.80752 8.784C6.98252 9.04431 7.33471 9.1165 7.59502 8.9415C7.85534 8.7665 7.92752 8.41431 7.75252 8.154C7.75252 8.154 7.52284 7.83025 7.19252 7.279C6.98252 6.94869 6.81627 6.70588 6.61502 6.5265C6.41377 6.34713 6.13159 6.229 5.88002 6.229ZM7.61252 16.869C8.98409 16.869 10.4606 17.1884 11.76 17.3765V18.549C11.76 20.1612 11.4581 21.4256 10.815 22.259C10.1719 23.0925 9.18315 23.589 7.50752 23.589C5.38346 23.589 4.10596 22.9393 3.32502 22.0665C2.54409 21.1937 2.24002 20.0343 2.24002 18.934C2.24002 18.1378 1.90315 17.6456 1.55752 17.359C1.76971 17.3 1.94252 17.2431 2.29252 17.184C3.37752 17.0025 5.11221 16.869 7.61252 16.869ZM20.3875 16.869C22.8878 16.869 24.6247 17.0156 25.7075 17.2015C26.0706 17.265 26.2478 17.3284 26.46 17.394C26.1035 17.6762 25.76 18.1815 25.76 19.004C25.76 20.0737 25.456 21.2178 24.675 22.084C23.8941 22.9503 22.6166 23.589 20.4925 23.589C18.8169 23.589 17.8281 23.0925 17.185 22.259C16.5419 21.4256 16.24 20.1612 16.24 18.549V17.3765C17.5394 17.1884 19.016 16.869 20.3875 16.869Z" fill="white"/>
</g>
</svg>
