<svg width="29" height="30" viewBox="0 0 29 30" fill="none" xmlns="http://www.w3.org/2000/svg">
<path d="M5.70219 10.5936L8.52844 12.8249M5.67594 19.7811L8.51094 17.5499M18.3809 20.6036L21.2072 22.8349M24.7072 15.2136C24.7053 15.8008 24.6496 16.3866 24.5409 16.9636C24.1567 19.1352 23.068 21.1197 21.443 22.6105C19.818 24.1013 17.7472 25.0154 15.5506 25.2115C13.3541 25.4076 11.1542 24.8748 9.29077 23.6954C7.42738 22.516 6.00431 20.7557 5.24149 18.6866C4.47868 16.6175 4.4186 14.3547 5.07054 12.248C5.72247 10.1413 7.05012 8.30797 8.8483 7.03136C10.6465 5.75476 12.8151 5.10595 15.0189 5.1852C17.2227 5.26446 19.3391 6.06737 21.0409 7.46985L18.5734 9.9636C17.4435 9.10655 16.0629 8.64531 14.6447 8.6511C13.4218 8.64972 12.2228 8.99009 11.183 9.63379C10.1432 10.2775 9.304 11.199 8.75997 12.2942C8.21594 13.3894 7.98876 14.6149 8.10406 15.8324C8.21936 17.0498 8.67255 18.2109 9.41251 19.1845C10.1525 20.1581 11.1498 20.9056 12.2919 21.3427C13.4341 21.7798 14.6756 21.889 15.8765 21.6581C17.0774 21.4272 18.1899 20.8653 19.0885 20.0358C19.9871 19.2063 20.6361 18.1423 20.9622 16.9636H15.0822V13.4636H24.5409C24.6452 14.0413 24.7008 14.6267 24.7072 15.2136Z" stroke="white" stroke-linecap="round" stroke-linejoin="round"/>
</svg>
