<svg width="29" height="30" viewBox="0 0 29 30" fill="none" xmlns="http://www.w3.org/2000/svg">
<path d="M3.38501 4.49609H7.38501L10.065 17.886C10.1565 18.3464 10.4069 18.76 10.7726 19.0543C11.1382 19.3487 11.5957 19.505 12.065 19.496H21.785C22.2543 19.505 22.7118 19.3487 23.0775 19.0543C23.4431 18.76 23.6936 18.3464 23.785 17.886L25.385 9.49609H8.38501M12.385 24.496C12.385 25.0483 11.9373 25.496 11.385 25.496C10.8327 25.496 10.385 25.0483 10.385 24.496C10.385 23.9438 10.8327 23.496 11.385 23.496C11.9373 23.496 12.385 23.9438 12.385 24.496ZM23.385 24.496C23.385 25.0483 22.9373 25.496 22.385 25.496C21.8327 25.496 21.385 25.0483 21.385 24.496C21.385 23.9438 21.8327 23.496 22.385 23.496C22.9373 23.496 23.385 23.9438 23.385 24.496Z" stroke="white" stroke-linecap="round" stroke-linejoin="round"/>
</svg>
