<svg width="28" height="30" viewBox="0 0 28 30" fill="none" xmlns="http://www.w3.org/2000/svg">
<path d="M13.9998 2.30908C10.9133 2.30908 8.39982 4.82251 8.39982 7.90908V9.02908C8.39764 9.23033 8.50264 9.41845 8.67764 9.52126C8.85264 9.62189 9.06701 9.62189 9.24201 9.52126C9.41701 9.41845 9.52201 9.23033 9.51982 9.02908V7.90908C9.51982 5.42845 11.5192 3.42908 13.9998 3.42908C16.4804 3.42908 18.4798 5.42845 18.4798 7.90908V9.02908C18.4776 9.23033 18.5826 9.41845 18.7576 9.52126C18.9326 9.62189 19.147 9.62189 19.322 9.52126C19.497 9.41845 19.602 9.23033 19.5998 9.02908V7.90908C19.5998 4.82251 17.0864 2.30908 13.9998 2.30908ZM8.95982 10.1491C8.34076 10.1491 7.83982 10.65 7.83982 11.269H5.03982C5.02232 11.269 5.00482 11.269 4.98732 11.269C4.7292 11.2909 4.5192 11.4856 4.47982 11.7415L2.23982 26.8615C2.21357 27.0256 2.2617 27.1897 2.36889 27.3143C2.47826 27.4412 2.63576 27.5112 2.79982 27.509H4.47982V28.069H6.15982V27.509H21.8398V28.069H23.5198V27.509H25.1998C25.3639 27.5112 25.5214 27.4412 25.6308 27.3143C25.738 27.1897 25.7861 27.0256 25.7598 26.8615L23.5198 11.7415C23.4761 11.4659 23.2376 11.2647 22.9598 11.269H20.1598C20.1598 10.65 19.6589 10.1491 19.0398 10.1491C18.4208 10.1491 17.9198 10.65 17.9198 11.269H10.0798C10.0798 10.65 9.57889 10.1491 8.95982 10.1491ZM5.52982 12.389H22.4698L24.5523 26.389H3.44732L5.52982 12.389ZM19.5998 15.469C19.3504 15.469 19.1229 15.5762 18.9698 15.749H8.39982C8.38232 15.749 8.36482 15.749 8.34732 15.749C8.03889 15.7643 7.79826 16.0268 7.81357 16.3353C7.82889 16.6437 8.09139 16.8843 8.39982 16.869H18.9698C19.1229 17.0418 19.3504 17.149 19.5998 17.149C20.0636 17.149 20.4398 16.7728 20.4398 16.309C20.4398 15.8453 20.0636 15.469 19.5998 15.469ZM19.5473 17.4115C19.5233 17.4159 19.4992 17.4225 19.4773 17.429C19.217 17.4881 19.0333 17.7222 19.0398 17.989V20.789C19.0376 20.9903 19.1426 21.1784 19.3176 21.2812C19.4926 21.3818 19.707 21.3818 19.882 21.2812C20.057 21.1784 20.162 20.9903 20.1598 20.789V17.989C20.1664 17.8272 20.1008 17.6718 19.9848 17.5625C19.8667 17.4509 19.707 17.3962 19.5473 17.4115Z" fill="white"/>
</svg>
