<svg width="29" height="30" viewBox="0 0 29 30" fill="none" xmlns="http://www.w3.org/2000/svg">
<path d="M5.38501 20.9068V14.9068C5.38501 12.5198 6.33322 10.2306 8.02105 8.54278C9.70888 6.85495 11.9981 5.90674 14.385 5.90674C16.772 5.90674 19.0611 6.85495 20.749 8.54278C22.4368 10.2306 23.385 12.5198 23.385 14.9068V20.9068M23.385 21.9068C23.385 22.4372 23.1743 22.9459 22.7992 23.321C22.4242 23.696 21.9154 23.9068 21.385 23.9068H20.385C19.8546 23.9068 19.3459 23.696 18.9708 23.321C18.5957 22.9459 18.385 22.4372 18.385 21.9068V18.9068C18.385 18.3763 18.5957 17.8676 18.9708 17.4925C19.3459 17.1175 19.8546 16.9068 20.385 16.9068H23.385V21.9068ZM5.38501 21.9068C5.38501 22.4372 5.59572 22.9459 5.9708 23.321C6.34587 23.696 6.85458 23.9068 7.38501 23.9068H8.38501C8.91544 23.9068 9.42415 23.696 9.79922 23.321C10.1743 22.9459 10.385 22.4372 10.385 21.9068V18.9068C10.385 18.3763 10.1743 17.8676 9.79922 17.4925C9.42415 17.1175 8.91544 16.9068 8.38501 16.9068H5.38501V21.9068Z" stroke="white" stroke-linecap="round" stroke-linejoin="round"/>
</svg>
