<svg width="29" height="29" viewBox="0 0 29 29" fill="none" xmlns="http://www.w3.org/2000/svg">
<mask id="mask0_2511_1729" style="mask-type:luminance" maskUnits="userSpaceOnUse" x="4" y="4" width="21" height="21">
<path d="M14.385 24.5C19.9079 24.5 24.385 20.0228 24.385 14.5C24.385 8.97715 19.9079 4.5 14.385 4.5C8.86216 4.5 4.38501 8.97715 4.38501 14.5C4.38501 20.0228 8.86216 24.5 14.385 24.5Z" fill="white"/>
<path d="M15.385 10.5C15.385 11.0523 14.9373 11.5 14.385 11.5C13.8327 11.5 13.385 11.0523 13.385 10.5C13.385 9.94772 13.8327 9.5 14.385 9.5C14.9373 9.5 15.385 9.94772 15.385 10.5Z" fill="white"/>
</mask>
<g mask="url(#mask0_2511_1729)">
<path d="M13.885 18.5C13.885 18.7761 14.1089 19 14.385 19C14.6612 19 14.885 18.7761 14.885 18.5H13.885ZM14.885 14.5C14.885 14.2239 14.6612 14 14.385 14C14.1089 14 13.885 14.2239 13.885 14.5H14.885ZM14.885 18.5V14.5H13.885V18.5H14.885ZM23.385 14.5C23.385 19.4706 19.3556 23.5 14.385 23.5V25.5C20.4601 25.5 25.385 20.5751 25.385 14.5H23.385ZM14.385 23.5C9.41445 23.5 5.38501 19.4706 5.38501 14.5H3.38501C3.38501 20.5751 8.30988 25.5 14.385 25.5V23.5ZM5.38501 14.5C5.38501 9.52944 9.41445 5.5 14.385 5.5V3.5C8.30988 3.5 3.38501 8.42487 3.38501 14.5H5.38501ZM14.385 5.5C19.3556 5.5 23.385 9.52944 23.385 14.5H25.385C25.385 8.42487 20.4601 3.5 14.385 3.5V5.5ZM14.385 10.5V12.5C15.4896 12.5 16.385 11.6046 16.385 10.5H14.385ZM14.385 10.5H12.385C12.385 11.6046 13.2804 12.5 14.385 12.5V10.5ZM14.385 10.5V8.5C13.2804 8.5 12.385 9.39543 12.385 10.5H14.385ZM14.385 10.5H16.385C16.385 9.39543 15.4896 8.5 14.385 8.5V10.5Z" fill="white"/>
</g>
</svg>
