<svg width="29" height="30" viewBox="0 0 29 30" fill="none" xmlns="http://www.w3.org/2000/svg">
<mask id="mask0_2511_1735" style="mask-type:luminance" maskUnits="userSpaceOnUse" x="4" y="4" width="21" height="21">
<path d="M19.1447 4.71387H9.14465C6.38323 4.71387 4.14465 6.95244 4.14465 9.71387V19.7139C4.14465 22.4753 6.38323 24.7139 9.14465 24.7139H19.1447C21.9061 24.7139 24.1447 22.4753 24.1447 19.7139V9.71387C24.1447 6.95244 21.9061 4.71387 19.1447 4.71387Z" fill="white"/>
<path d="M18.1447 14.0837C18.2681 14.9159 18.1259 15.7659 17.7384 16.5127C17.3509 17.2595 16.7378 17.8651 15.9863 18.2433C15.2348 18.6216 14.3831 18.7533 13.5524 18.6196C12.7218 18.4859 11.9544 18.0938 11.3595 17.4988C10.7646 16.9039 10.3724 16.1365 10.2387 15.3059C10.1051 14.4752 10.2367 13.6236 10.615 12.872C10.9932 12.1205 11.5988 11.5074 12.3456 11.1199C13.0924 10.7324 13.9424 10.5903 14.7747 10.7137C15.6236 10.8396 16.4095 11.2351 17.0163 11.842C17.6232 12.4488 18.0188 13.2347 18.1447 14.0837Z" fill="white"/>
<path d="M21.1447 8.71387C21.1447 9.26615 20.6969 9.71387 20.1447 9.71387C19.5924 9.71387 19.1447 9.26615 19.1447 8.71387C19.1447 8.16158 19.5924 7.71387 20.1447 7.71387C20.6969 7.71387 21.1447 8.16158 21.1447 8.71387Z" fill="white"/>
</mask>
<g mask="url(#mask0_2511_1735)">
<path d="M9.14465 5.71387H19.1447V3.71387H9.14465V5.71387ZM19.1447 5.71387C21.3538 5.71387 23.1447 7.50473 23.1447 9.71387H25.1447C25.1447 6.40016 22.4584 3.71387 19.1447 3.71387V5.71387ZM23.1447 9.71387V19.7139H25.1447V9.71387H23.1447ZM23.1447 19.7139C23.1447 21.923 21.3538 23.7139 19.1447 23.7139V25.7139C22.4584 25.7139 25.1447 23.0276 25.1447 19.7139H23.1447ZM19.1447 23.7139H9.14465V25.7139H19.1447V23.7139ZM9.14465 23.7139C6.93551 23.7139 5.14465 21.923 5.14465 19.7139H3.14465C3.14465 23.0276 5.83094 25.7139 9.14465 25.7139V23.7139ZM5.14465 19.7139V9.71387H3.14465V19.7139H5.14465ZM5.14465 9.71387C5.14465 7.50473 6.93551 5.71387 9.14465 5.71387V3.71387C5.83094 3.71387 3.14465 6.40016 3.14465 9.71387H5.14465ZM17.1555 14.2306C17.248 14.8547 17.1414 15.4922 16.8508 16.0523L18.626 16.9735C19.1104 16.04 19.2881 14.9775 19.1338 13.9372L17.1555 14.2306ZM16.8508 16.0523C16.5602 16.6124 16.1003 17.0666 15.5367 17.3503L16.4359 19.1368C17.3753 18.6639 18.1417 17.907 18.626 16.9735L16.8508 16.0523ZM15.5367 17.3503C14.973 17.634 14.3343 17.7327 13.7113 17.6325L13.3936 19.6071C14.4319 19.7742 15.4965 19.6096 16.4359 19.1368L15.5367 17.3503ZM13.7113 17.6325C13.0883 17.5323 12.5128 17.2381 12.0666 16.7919L10.6524 18.2061C11.396 18.9498 12.3552 19.44 13.3936 19.6071L13.7113 17.6325ZM12.0666 16.7919C11.6204 16.3457 11.3263 15.7702 11.226 15.1472L9.25142 15.465C9.4185 16.5033 9.90873 17.4625 10.6524 18.2061L12.0666 16.7919ZM11.226 15.1472C11.1258 14.5242 11.2245 13.8855 11.5082 13.3218L9.72175 12.4227C9.24892 13.3621 9.08434 14.4266 9.25142 15.465L11.226 15.1472ZM11.5082 13.3218C11.7919 12.7582 12.2461 12.2984 12.8062 12.0077L11.8851 10.2325C10.9516 10.7169 10.1946 11.4833 9.72175 12.4227L11.5082 13.3218ZM12.8062 12.0077C13.3663 11.7171 14.0038 11.6105 14.628 11.7031L14.9213 9.72468C13.881 9.57042 12.8186 9.74811 11.8851 10.2325L12.8062 12.0077ZM14.628 11.7031C15.2647 11.7975 15.8541 12.0941 16.3092 12.5493L17.7235 11.1351C16.9649 10.3765 15.9825 9.88204 14.9213 9.72468L14.628 11.7031ZM16.3092 12.5493C16.7644 13.0044 17.0611 13.5939 17.1555 14.2306L19.1338 13.9372C18.9765 12.876 18.482 11.8936 17.7235 11.1351L16.3092 12.5493ZM20.1447 8.71387V10.7139C21.2492 10.7139 22.1447 9.81844 22.1447 8.71387H20.1447ZM20.1447 8.71387H18.1447C18.1447 9.81844 19.0401 10.7139 20.1447 10.7139V8.71387ZM20.1447 8.71387V6.71387C19.0401 6.71387 18.1447 7.6093 18.1447 8.71387H20.1447ZM20.1447 8.71387H22.1447C22.1447 7.6093 21.2492 6.71387 20.1447 6.71387V8.71387Z" fill="white"/>
</g>
</svg>
