<svg width="28" height="30" viewBox="0 0 28 30" fill="none" xmlns="http://www.w3.org/2000/svg">
<path d="M6.16003 2.30908V28.069H12.8275L14 16.3331L15.1725 28.069H21.84V2.30908H6.16003ZM7.28003 3.42908H20.72V4.54908H19.04C17.0275 4.54908 15.6997 4.83783 14.8575 5.14408C14.466 5.28626 14.1991 5.42845 14 5.55095C13.801 5.42845 13.5341 5.28626 13.1425 5.14408C12.3003 4.83783 10.9725 4.54908 8.96003 4.54908H7.28003V3.42908ZM7.28003 5.66908H8.96003C10.8675 5.66908 12.0597 5.94033 12.7575 6.19408C13.1075 6.32314 13.335 6.44564 13.4663 6.52658C13.5953 6.6097 13.6041 6.62501 13.6041 6.62501L14 7.02095L14.396 6.62501C14.396 6.62501 14.4047 6.6097 14.5338 6.52658C14.665 6.44564 14.8925 6.32314 15.2425 6.19408C15.9403 5.94033 17.1325 5.66908 19.04 5.66908H20.72V6.78908H16.24V11.6147L19.04 13.0147L20.72 12.1747V26.949H16.1875L14.5578 10.6543L14 10.709L13.4422 10.6543L11.8125 26.949H7.28003V12.1747L8.96003 13.0147L11.76 11.6147V6.78908H7.28003V5.66908ZM7.28003 7.90908H10.64V10.9234L8.96003 11.7634L7.28003 10.9234V7.90908ZM17.36 7.90908H20.72V10.9234L19.04 11.7634L17.36 10.9234V7.90908Z" fill="white"/>
</svg>
