<svg width="28" height="30" viewBox="0 0 28 30" fill="none" xmlns="http://www.w3.org/2000/svg">
<path d="M14 1.74902C12.1078 1.74902 10.92 2.17121 10.57 2.30902C10.4584 2.32433 10.3556 2.37465 10.2725 2.44902C10.2594 2.45996 10.2484 2.4709 10.2375 2.48402L7.4025 4.84652C6.13156 5.92496 1.12 9.0684 1.12 15.189V23.029C1.12 23.3375 1.37156 23.589 1.68 23.589H5.04V27.509C5.04 27.8175 5.29156 28.069 5.6 28.069H22.4C22.7084 28.069 22.96 27.8175 22.96 27.509V23.589H26.32C26.6284 23.589 26.88 23.3375 26.88 23.029V15.189C26.88 9.0684 21.8684 5.92496 20.5975 4.84652L17.78 2.50152C17.7647 2.48183 17.7472 2.46433 17.7275 2.44902C17.7209 2.44246 17.7166 2.43808 17.71 2.43152C17.7034 2.42496 17.6991 2.42058 17.6925 2.41402C17.6816 2.40746 17.6684 2.4009 17.6575 2.39652C17.6509 2.38996 17.6466 2.38558 17.64 2.37902C17.6291 2.37902 17.6159 2.37902 17.605 2.37902C17.5984 2.37246 17.5941 2.36808 17.5875 2.36152C17.5437 2.33746 17.4956 2.31996 17.4475 2.30902C17.1259 2.17996 15.9272 1.74902 14 1.74902ZM14 2.86902C15.5837 2.86902 16.3909 3.11621 16.765 3.25402C16.6512 5.2884 15.6778 7.31402 14.63 9.25652C14.4397 9.61089 14.2778 9.94121 14.0875 10.289C14.0372 10.2125 14 10.1446 13.9475 10.0615C13.6237 9.55183 13.2169 8.95683 12.81 8.25902C12.0487 6.95527 11.3619 5.26871 11.27 3.25402C11.6659 3.11183 12.4578 2.86902 14 2.86902ZM17.8325 3.98902L19.88 5.70402L19.9675 5.79152L18.6025 6.85902C18.4756 6.95746 18.3969 7.10621 18.3859 7.26808C18.375 7.42777 18.4362 7.58527 18.55 7.69902L19.6875 8.83652L13.7025 13.789C13.8141 13.4412 13.9541 13.0825 14.1225 12.704C14.2537 12.5903 14.3237 12.4219 14.315 12.249C14.6847 11.4769 15.1441 10.6609 15.61 9.79902C16.5659 8.02933 17.5525 6.07808 17.8325 3.98902ZM10.15 4.00652C10.3666 5.96215 11.1016 7.57215 11.83 8.81902C12.2631 9.56058 12.6962 10.1775 13.0025 10.6565C13.2737 11.0831 13.3962 11.3872 13.4225 11.444L8.41749 8.73152L9.45 7.69902C9.56375 7.58527 9.625 7.42777 9.61406 7.26808C9.60312 7.10621 9.52437 6.95746 9.3975 6.85902L8.0325 5.79152L10.15 4.00652ZM7.1225 6.50902L8.2075 7.34902L7.0875 8.48652C6.96718 8.61121 6.91031 8.78402 6.93437 8.95465C6.95843 9.12527 7.06125 9.27621 7.21 9.36152L13.0025 12.4765C12.6153 13.3712 12.3309 14.2615 12.32 15.1365C12.32 15.154 12.32 15.1715 12.32 15.189V26.949H6.16V25.269H9.52C10.1325 25.269 10.64 24.7615 10.64 24.149V20.229C10.64 19.9206 10.3884 19.669 10.08 19.669H6.16V11.829H5.04V20.1765C5.04 20.194 5.04 20.2115 5.04 20.229V22.469H2.24V15.189C2.24 10.5515 5.23468 7.99652 7.1225 6.50902ZM20.8775 6.50902C22.7653 7.99652 25.76 10.5515 25.76 15.189V22.469H22.96V20.229C22.96 20.2115 22.96 20.194 22.96 20.1765V12.389C22.96 12.3715 22.96 12.354 22.96 12.3365V11.829H18.48C18.4625 11.829 18.445 11.829 18.4275 11.829C18.41 11.829 18.3925 11.829 18.375 11.829C18.1081 11.8794 17.9156 12.1156 17.92 12.389V15.749C17.92 16.3615 18.4275 16.869 19.04 16.869H21.84V19.669H17.92C17.9025 19.669 17.885 19.669 17.8675 19.669C17.5787 19.6953 17.3578 19.9381 17.36 20.229V24.149C17.36 24.7615 17.8675 25.269 18.48 25.269H21.84V26.949H13.44V15.4515L20.8775 9.30902C20.9978 9.20839 21.0678 9.06183 21.0744 8.90652C21.0809 8.74902 21.0219 8.59808 20.9125 8.48652L19.7925 7.34902L20.8775 6.50902ZM19.04 12.949H21.84V15.749H19.04V12.949ZM14.7875 16.204C14.4791 16.204 14.2275 16.4556 14.2275 16.764C14.2275 17.0725 14.4791 17.324 14.7875 17.324C15.0959 17.324 15.3475 17.0725 15.3475 16.764C15.3475 16.4556 15.0959 16.204 14.7875 16.204ZM14.7875 19.004C14.4791 19.004 14.2275 19.2556 14.2275 19.564C14.2275 19.8725 14.4791 20.124 14.7875 20.124C15.0959 20.124 15.3475 19.8725 15.3475 19.564C15.3475 19.2556 15.0959 19.004 14.7875 19.004ZM6.16 20.789H9.52V24.149H6.16V20.789ZM18.48 20.789H21.84V24.149H18.48V20.789ZM14.7875 21.804C14.4791 21.804 14.2275 22.0556 14.2275 22.364C14.2275 22.6725 14.4791 22.924 14.7875 22.924C15.0959 22.924 15.3475 22.6725 15.3475 22.364C15.3475 22.0556 15.0959 21.804 14.7875 21.804Z" fill="white"/>
</svg>
