<svg width="29" height="30" viewBox="0 0 29 30" fill="none" xmlns="http://www.w3.org/2000/svg">
<path d="M7.07465 7.83674L11.3147 12.0768M16.9747 17.7368L21.2147 21.9768M21.2147 7.83674L16.9747 12.0768L20.5047 8.54674M7.07465 21.9768L11.3147 17.7368M24.1447 14.9068C24.1447 20.4296 19.6675 24.9068 14.1447 24.9068C8.62181 24.9068 4.14465 20.4296 4.14465 14.9068C4.14465 9.38389 8.62181 4.90674 14.1447 4.90674C19.6675 4.90674 24.1447 9.38389 24.1447 14.9068ZM18.1447 14.9068C18.1447 17.1159 16.3538 18.9068 14.1447 18.9068C11.9355 18.9068 10.1447 17.1159 10.1447 14.9068C10.1447 12.6976 11.9355 10.9068 14.1447 10.9068C16.3538 10.9068 18.1447 12.6976 18.1447 14.9068Z" stroke="white" stroke-linecap="round" stroke-linejoin="round"/>
</svg>
