<svg width="28" height="29" viewBox="0 0 28 29" fill="none" xmlns="http://www.w3.org/2000/svg">
<path d="M17 9.5H20C20.6566 9.5 21.3068 9.62933 21.9134 9.8806C22.52 10.1319 23.0712 10.5002 23.5355 10.9645C23.9998 11.4288 24.3681 11.98 24.6194 12.5866C24.8707 13.1932 25 13.8434 25 14.5C25 15.1566 24.8707 15.8068 24.6194 16.4134C24.3681 17.02 23.9998 17.5712 23.5355 18.0355C23.0712 18.4998 22.52 18.8681 21.9134 19.1194C21.3068 19.3707 20.6566 19.5 20 19.5H17M11 19.5H8C7.34339 19.5 6.69321 19.3707 6.08658 19.1194C5.47995 18.8681 4.92876 18.4998 4.46447 18.0355C3.52678 17.0979 3 15.8261 3 14.5C3 13.1739 3.52678 11.9021 4.46447 10.9645C5.40215 10.0268 6.67392 9.5 8 9.5H11M10 14.5H18" stroke="white" stroke-linecap="round" stroke-linejoin="round"/>
</svg>
