<svg width="28" height="29" viewBox="0 0 28 29" fill="none" xmlns="http://www.w3.org/2000/svg">
<path d="M11.9436 15.4336C12.373 16.0077 12.9209 16.4827 13.5501 16.8265C14.1793 17.1703 14.8751 17.3747 15.5902 17.4259C16.3054 17.4771 17.0231 17.3739 17.6949 17.1233C18.3667 16.8728 18.9767 16.4806 19.4836 15.9736L22.4836 12.9736C23.3944 12.0305 23.8983 10.7675 23.8869 9.45655C23.8755 8.14557 23.3497 6.89151 22.4227 5.96447C21.4956 5.03743 20.2415 4.51158 18.9306 4.50019C17.6196 4.4888 16.3566 4.99277 15.4136 5.90356L13.6936 7.61356M15.9436 13.4336C15.5141 12.8594 14.9662 12.3844 14.337 12.0406C13.7078 11.6969 13.0121 11.4924 12.2969 11.4412C11.5818 11.39 10.864 11.4932 10.1922 11.7438C9.52045 11.9944 8.91044 12.3865 8.40356 12.8936L5.40356 15.8936C4.49277 16.8366 3.9888 18.0996 4.00019 19.4106C4.01158 20.7216 4.53743 21.9756 5.46447 22.9027C6.39151 23.8297 7.64557 24.3555 8.95655 24.3669C10.2675 24.3783 11.5305 23.8744 12.4736 22.9636L14.1836 21.2536" stroke="white" stroke-linecap="round" stroke-linejoin="round"/>
</svg>
