<svg width="29" height="30" viewBox="0 0 29 30" fill="none" xmlns="http://www.w3.org/2000/svg">
<path d="M9.88818 13.7139V9.71387C9.88818 8.38778 10.415 7.11602 11.3526 6.17833C12.2903 5.24065 13.5621 4.71387 14.8882 4.71387C16.2143 4.71387 17.486 5.24065 18.4237 6.17833C19.3614 7.11602 19.8882 8.38778 19.8882 9.71387V13.7139M7.88818 13.7139H21.8882C22.9928 13.7139 23.8882 14.6093 23.8882 15.7139V22.7139C23.8882 23.8184 22.9928 24.7139 21.8882 24.7139H7.88818C6.78361 24.7139 5.88818 23.8184 5.88818 22.7139V15.7139C5.88818 14.6093 6.78361 13.7139 7.88818 13.7139Z" stroke="white" stroke-linecap="round" stroke-linejoin="round"/>
</svg>
