<svg width="28" height="30" viewBox="0 0 28 30" fill="none" xmlns="http://www.w3.org/2000/svg">
<path d="M23 12.996C23 19.996 14 25.996 14 25.996C14 25.996 5 19.996 5 12.996C5 10.6091 5.94821 8.31996 7.63604 6.63213C9.32387 4.9443 11.6131 3.99609 14 3.99609C16.3869 3.99609 18.6761 4.9443 20.364 6.63213C22.0518 8.31996 23 10.6091 23 12.996Z" stroke="white" stroke-linecap="round" stroke-linejoin="round"/>
<path d="M14 15.996C15.6569 15.996 17 14.6529 17 12.996C17 11.3392 15.6569 9.99609 14 9.99609C12.3431 9.99609 11 11.3392 11 12.996C11 14.6529 12.3431 15.996 14 15.996Z" stroke="white" stroke-linecap="round" stroke-linejoin="round"/>
</svg>
