<svg width="28" height="30" viewBox="0 0 28 30" fill="none" xmlns="http://www.w3.org/2000/svg">
<path d="M14.0001 2.30908C11.5324 2.30908 9.52005 4.32147 9.52005 6.78908V9.02908C9.52009 9.05211 9.52155 9.07513 9.52443 9.09798C9.52935 9.57239 9.58498 10.0346 9.67865 10.4827C8.78591 10.7708 7.12988 11.518 7.10724 11.5283C7.10432 11.5293 7.1014 11.5304 7.09849 11.5315L7.09412 11.5337C7.08339 11.5385 7.07281 11.5436 7.0624 11.549L7.05912 11.5512C7.03309 11.5653 7.00822 11.5814 6.98474 11.5993C6.88354 11.6571 6.47084 11.9003 5.9238 12.4525C5.30543 13.0766 4.54958 14.0686 3.96052 15.5412C3.95621 15.5513 3.9522 15.5615 3.94849 15.5718C3.76431 16.1244 3.20099 17.2956 2.68958 18.4287C2.43388 18.9953 2.18905 19.5598 2.0038 20.0661C1.81855 20.5724 1.68005 20.9961 1.68005 21.4234V27.509C1.68007 27.6576 1.73907 27.8 1.84409 27.905C1.94911 28.01 2.09154 28.069 2.24005 28.069H5.60005C5.74857 28.069 5.891 28.01 5.99602 27.905C6.10103 27.8 6.16004 27.6576 6.16005 27.509V21.909C6.16005 21.978 6.17012 21.8564 6.2224 21.7122C6.27468 21.568 6.35679 21.3755 6.45755 21.1587C6.65908 20.7251 6.93529 20.193 7.21224 19.6811C7.23683 19.6356 7.25551 19.6047 7.28005 19.5597V27.509C7.28007 27.6576 7.33907 27.8 7.44409 27.905C7.54911 28.01 7.69154 28.069 7.84005 28.069H20.1601C20.3086 28.069 20.451 28.01 20.556 27.905C20.661 27.8 20.72 27.6576 20.7201 27.509V19.5597C20.7446 19.6047 20.7633 19.6356 20.7879 19.6811C21.0648 20.193 21.341 20.7251 21.5426 21.1587C21.6433 21.3755 21.7254 21.568 21.7777 21.7122C21.83 21.8564 21.8401 21.978 21.8401 21.909V27.509C21.8401 27.6576 21.8991 27.8 22.0041 27.905C22.1091 28.01 22.2515 28.069 22.4001 28.069H25.7601C25.9086 28.069 26.051 28.01 26.156 27.905C26.261 27.8 26.32 27.6576 26.3201 27.509V21.4234C26.3201 20.9961 26.1816 20.5724 25.9963 20.0661C25.8111 19.5598 25.5662 18.9953 25.3105 18.4287C24.7991 17.2956 24.2358 16.1244 24.0516 15.5718C24.0479 15.5615 24.0439 15.5513 24.0396 15.5412C23.4505 14.0686 22.6947 13.0766 22.0763 12.4525C21.5361 11.9072 21.132 11.6663 21.023 11.6037C20.9986 11.5848 20.9726 11.568 20.9454 11.5534C20.9428 11.5519 20.9403 11.5505 20.9377 11.549C20.927 11.5432 20.916 11.5377 20.9049 11.5326L20.8874 11.525C20.8567 11.5111 19.1376 10.7341 18.3215 10.4827C18.4151 10.0346 18.4708 9.57239 18.4757 9.09798C18.4786 9.07513 18.48 9.05211 18.4801 9.02908V6.78908C18.4801 4.32147 16.4677 2.30908 14.0001 2.30908ZM14.0001 3.42908C15.5759 3.42908 16.8868 4.50284 17.254 5.96111C16.4362 5.09436 15.281 4.54908 14.0001 4.54908C12.7191 4.54908 11.5639 5.09436 10.7461 5.96111C11.1133 4.50284 12.4242 3.42908 14.0001 3.42908ZM14.0001 5.66908C15.8624 5.66908 17.3601 7.16676 17.3601 9.02908C17.3601 12.2308 14.59 14.8877 14.0001 15.4351C13.4101 14.8877 10.6401 12.2308 10.6401 9.02908C10.6401 7.16676 12.1377 5.66908 14.0001 5.66908ZM14.0001 9.58908C13.2586 9.58908 12.5251 9.6902 11.9186 9.80892C11.9998 10.1813 12.102 10.5451 12.2336 10.8906C12.7623 10.7909 13.3835 10.709 14.0001 10.709C14.6177 10.709 15.2394 10.7909 15.7686 10.8906C15.8997 10.5451 16.0019 10.183 16.0826 9.81001C15.4761 9.69129 14.7421 9.58908 14.0001 9.58908ZM9.98599 11.5622C10.8833 14.078 12.8216 15.9655 13.4401 16.5201V19.669C13.439 19.7432 13.4527 19.8169 13.4804 19.8858C13.5081 19.9546 13.5491 20.0173 13.6012 20.0702C13.6533 20.123 13.7154 20.165 13.7839 20.1936C13.8524 20.2223 13.9258 20.237 14.0001 20.237C14.0743 20.237 14.1477 20.2223 14.2162 20.1936C14.2847 20.165 14.3468 20.123 14.3989 20.0702C14.451 20.0173 14.4921 19.9546 14.5197 19.8858C14.5474 19.8169 14.5611 19.7432 14.5601 19.669V16.5201C15.1785 15.9655 17.1168 14.078 18.0141 11.5622C18.4536 11.7009 19.3071 12.0775 19.8505 12.3125C19.3051 13.2501 18.5397 15.1679 19.6001 17.5187V26.949H8.40005V17.534C9.69442 15.1472 8.55791 13.0948 8.08068 12.3398C8.55953 12.1307 9.41801 11.7494 9.98599 11.5622ZM20.8065 12.8134C20.9401 12.9199 21.093 13.0512 21.2811 13.2411C21.8037 13.7685 22.4677 14.6279 22.9983 15.9525C23.2454 16.6822 23.7936 17.7893 24.2901 18.8892C24.5409 19.4451 24.7761 19.9919 24.9441 20.4511C25.1121 20.9102 25.2001 21.3075 25.2001 21.4234V26.949H22.9601V21.909C22.9601 21.6702 22.9001 21.5241 22.8299 21.3304C22.7597 21.1368 22.6668 20.9213 22.5576 20.6862C22.3391 20.2161 22.0553 19.6705 21.7722 19.1473C21.2203 18.1272 20.6871 17.2215 20.6599 17.1753C19.6578 15.0914 20.3614 13.5104 20.8065 12.8134ZM7.15755 12.8429C7.61178 13.672 8.35559 15.4789 7.36099 17.1392L7.3599 17.1414L7.35771 17.1447C7.35771 17.1447 6.79397 18.101 6.22787 19.1473C5.94482 19.6705 5.66103 20.2161 5.44255 20.6862C5.33332 20.9213 5.24043 21.1368 5.17021 21.3304C5.09999 21.5241 5.04005 21.6702 5.04005 21.909V26.949H2.80005V21.4234C2.80005 21.3075 2.888 20.9102 3.05599 20.4511C3.22398 19.9919 3.45917 19.4451 3.71005 18.8892C4.20555 17.7913 4.75184 16.6867 4.99958 15.9568L5.00177 15.9525C5.53239 14.6279 6.19641 13.7685 6.71896 13.2411C6.88957 13.0689 7.03122 12.9459 7.15755 12.8429Z" fill="white"/>
</svg>
