<svg width="29" height="29" viewBox="0 0 29 29" fill="none" xmlns="http://www.w3.org/2000/svg">
<path d="M23.1447 14C23.1481 15.3199 22.8397 16.6219 22.2447 17.8C21.5391 19.2118 20.4544 20.3992 19.1121 21.2293C17.7698 22.0594 16.2229 22.4994 14.6447 22.5C13.3248 22.5035 12.0228 22.1951 10.8447 21.6L5.14465 23.5L7.04465 17.8C6.44958 16.6219 6.14121 15.3199 6.14465 14C6.14526 12.4218 6.58527 10.8749 7.41537 9.53258C8.24548 8.19028 9.43291 7.1056 10.8447 6.40003C12.0228 5.80496 13.3248 5.49659 14.6447 5.50003H15.1447C17.229 5.61502 19.1977 6.49479 20.6738 7.97089C22.1499 9.44699 23.0297 11.4157 23.1447 13.5V14Z" stroke="white" stroke-linecap="round" stroke-linejoin="round"/>
</svg>
