<svg width="28" height="30" viewBox="0 0 28 30" fill="none" xmlns="http://www.w3.org/2000/svg">
<path d="M21 12.9068V14.9068C21 16.7633 20.2625 18.5438 18.9497 19.8565C17.637 21.1693 15.8565 21.9068 14 21.9068M14 21.9068C12.1435 21.9068 10.363 21.1693 9.05025 19.8565C7.7375 18.5438 7 16.7633 7 14.9068V12.9068M14 21.9068V25.9068M10 25.9068H18M14 3.90674C13.2044 3.90674 12.4413 4.22281 11.8787 4.78542C11.3161 5.34803 11 6.11109 11 6.90674V14.9068C11 15.7024 11.3161 16.4655 11.8787 17.0281C12.4413 17.5907 13.2044 17.9068 14 17.9068C14.7956 17.9068 15.5587 17.5907 16.1213 17.0281C16.6839 16.4655 17 15.7024 17 14.9068V6.90674C17 6.11109 16.6839 5.34803 16.1213 4.78542C15.5587 4.22281 14.7956 3.90674 14 3.90674Z" stroke="white" stroke-linecap="round" stroke-linejoin="round"/>
</svg>
