<svg width="29" height="30" viewBox="0 0 29 30" fill="none" xmlns="http://www.w3.org/2000/svg">
<path d="M24.385 6.73295C24.385 7.79227 21.3342 8.63973 17.563 8.63973C13.7918 8.63973 10.741 7.79227 10.741 6.73295C10.741 5.67363 13.7918 4.82617 17.563 4.82617C21.3342 4.82617 24.385 5.67363 24.385 6.73295Z" stroke="white" stroke-miterlimit="10" stroke-linecap="round"/>
<path d="M24.385 10.123C24.385 11.1824 21.3341 12.0298 17.5629 12.0298C16.8426 12.0298 16.1646 11.9875 15.4867 11.9451C15.4019 11.9451 11.3341 11.4366 11.2917 11.3943" stroke="white" stroke-miterlimit="10" stroke-linecap="round"/>
<path d="M24.3851 13.8096C24.3851 14.8266 21.5038 15.674 17.9021 15.7164" stroke="white" stroke-miterlimit="10" stroke-linecap="round"/>
<path d="M24.3849 17.4956C24.3849 18.5126 21.5459 19.3176 17.9866 19.4024" stroke="white" stroke-miterlimit="10" stroke-linecap="round"/>
<path d="M10.741 7.32617V11.6482" stroke="white" stroke-miterlimit="10" stroke-linecap="round"/>
<path d="M24.385 7.32617V17.4533" stroke="white" stroke-miterlimit="10" stroke-linecap="round"/>
<path d="M17.8172 18.4281C17.8172 22.157 14.8087 25.1654 11.0799 25.1654C7.39348 25.1654 4.38501 22.157 4.38501 18.4281C4.38501 14.6993 7.39348 11.6909 11.1223 11.6909C14.8087 11.7332 17.8172 14.7417 17.8172 18.4281Z" stroke="white" stroke-miterlimit="10" stroke-linecap="round"/>
<path d="M12.4084 19.1235C12.505 19.2421 12.5753 19.3763 12.6158 19.5418C12.5695 19.3906 12.4995 19.2514 12.4084 19.1235Z" stroke="white"/>
</svg>
