<svg width="28" height="29" viewBox="0 0 28 29" fill="none" xmlns="http://www.w3.org/2000/svg">
<path d="M14 15.5C14.5523 15.5 15 15.0523 15 14.5C15 13.9477 14.5523 13.5 14 13.5C13.4477 13.5 13 13.9477 13 14.5C13 15.0523 13.4477 15.5 14 15.5Z" stroke="white" stroke-linecap="round" stroke-linejoin="round"/>
<path d="M21 15.5C21.5523 15.5 22 15.0523 22 14.5C22 13.9477 21.5523 13.5 21 13.5C20.4477 13.5 20 13.9477 20 14.5C20 15.0523 20.4477 15.5 21 15.5Z" stroke="white" stroke-linecap="round" stroke-linejoin="round"/>
<path d="M7 15.5C7.55228 15.5 8 15.0523 8 14.5C8 13.9477 7.55228 13.5 7 13.5C6.44772 13.5 6 13.9477 6 14.5C6 15.0523 6.44772 15.5 7 15.5Z" stroke="white" stroke-linecap="round" stroke-linejoin="round"/>
</svg>
