<svg width="28" height="30" viewBox="0 0 28 30" fill="none" xmlns="http://www.w3.org/2000/svg">
<path d="M11 19.9068H7C6.46957 19.9068 5.96086 20.1175 5.58579 20.4925C5.21071 20.8676 5 21.3763 5 21.9068C5 22.4372 5.21071 22.9459 5.58579 23.321C5.96086 23.696 6.46957 23.9068 7 23.9068H9C9.53043 23.9068 10.0391 23.696 10.4142 23.321C10.7893 22.9459 11 22.4372 11 21.9068V19.9068ZM11 19.9068V7.90674L23 5.90674V17.9068M23 17.9068H19C18.4696 17.9068 17.9609 18.1175 17.5858 18.4925C17.2107 18.8676 17 19.3763 17 19.9068C17 20.4372 17.2107 20.9459 17.5858 21.321C17.9609 21.696 18.4696 21.9068 19 21.9068H21C21.5304 21.9068 22.0391 21.696 22.4142 21.321C22.7893 20.9459 23 20.4372 23 19.9068V17.9068Z" stroke="white" stroke-linecap="round" stroke-linejoin="round"/>
</svg>
