<svg width="29" height="30" viewBox="0 0 29 30" fill="none" xmlns="http://www.w3.org/2000/svg">
<path d="M23.5954 18.6039C22.9592 20.1083 21.9642 21.4341 20.6973 22.4652C19.4304 23.4963 17.9302 24.2013 16.3279 24.5186C14.7255 24.836 13.0698 24.756 11.5056 24.2857C9.94128 23.8153 8.51604 22.9689 7.35443 21.8205C6.19283 20.6721 5.33023 19.2566 4.84205 17.6978C4.35387 16.139 4.25497 14.4844 4.55401 12.8785C4.85305 11.2726 5.54091 9.76449 6.55746 8.4859C7.57401 7.2073 8.8883 6.19718 10.3854 5.54387M24.3854 14.7139C24.3854 13.4006 24.1268 12.1003 23.6242 10.887C23.1217 9.67378 22.3851 8.57139 21.4565 7.6428C20.5279 6.71421 19.4255 5.97762 18.2122 5.47507C16.999 4.97252 15.6986 4.71387 14.3854 4.71387V14.7139H24.3854Z" stroke="white" stroke-linecap="round" stroke-linejoin="round"/>
</svg>
