<svg width="29" height="30" viewBox="0 0 29 30" fill="none" xmlns="http://www.w3.org/2000/svg">
<path d="M8.38501 11.9068V4.90674H20.385V11.9068M8.38501 20.9068H6.38501C5.85458 20.9068 5.34587 20.696 4.9708 20.321C4.59572 19.9459 4.38501 19.4372 4.38501 18.9068V13.9068C4.38501 13.3763 4.59572 12.8676 4.9708 12.4925C5.34587 12.1175 5.85458 11.9068 6.38501 11.9068H22.385C22.9154 11.9068 23.4242 12.1175 23.7992 12.4925C24.1743 12.8676 24.385 13.3763 24.385 13.9068V18.9068C24.385 19.4372 24.1743 19.9459 23.7992 20.321C23.4242 20.696 22.9154 20.9068 22.385 20.9068H20.385M8.38501 16.9068H20.385V24.9068H8.38501V16.9068Z" stroke="white" stroke-linecap="round" stroke-linejoin="round"/>
</svg>
