<svg width="29" height="29" viewBox="0 0 29 29" fill="none" xmlns="http://www.w3.org/2000/svg">
<path d="M3.88818 6.49763V12.4976M3.88818 12.4976H9.88818M3.88818 12.4976L8.52818 8.13763C9.60293 7.06235 10.9326 6.27684 12.393 5.85441C13.8534 5.43198 15.3971 5.38639 16.8799 5.72189C18.3627 6.0574 19.7364 6.76307 20.8727 7.77305C22.0091 8.78304 22.871 10.0644 23.3782 11.4976M25.8882 22.4976V16.4976M25.8882 16.4976H19.8882M25.8882 16.4976L21.2482 20.8576C20.1734 21.9329 18.8438 22.7184 17.3834 23.1409C15.9229 23.5633 14.3793 23.6089 12.8965 23.2734C11.4136 22.9379 10.04 22.2322 8.90365 21.2222C7.76732 20.2122 6.90535 18.9308 6.39818 17.4976" stroke="white" stroke-linecap="round" stroke-linejoin="round"/>
</svg>
