<svg width="29" height="29" viewBox="0 0 29 29" fill="none" xmlns="http://www.w3.org/2000/svg">
<path d="M25.8882 6.49763V12.4976M25.8882 12.4976H19.8882M25.8882 12.4976L21.2482 8.13763C20.1734 7.06235 18.8438 6.27684 17.3834 5.85441C15.9229 5.43198 14.3793 5.38639 12.8965 5.72189C11.4136 6.0574 10.04 6.76307 8.90365 7.77305C7.76732 8.78304 6.90535 10.0644 6.39818 11.4976M3.88818 22.4976V16.4976M3.88818 16.4976H9.88818M3.88818 16.4976L8.52818 20.8576C9.60293 21.9329 10.9326 22.7184 12.393 23.1409C13.8534 23.5633 15.3971 23.6089 16.8799 23.2734C18.3627 22.9379 19.7364 22.2322 20.8727 21.2222C22.0091 20.2122 22.871 18.9308 23.3782 17.4976" stroke="white" stroke-linecap="round" stroke-linejoin="round"/>
</svg>
