<svg width="29" height="29" viewBox="0 0 29 29" fill="none" xmlns="http://www.w3.org/2000/svg">
<path d="M24.8842 6.49806V12.4981M24.8842 12.4981H18.8842M24.8842 12.4981L20.2542 8.13806C18.8748 6.7578 17.0841 5.86325 15.1521 5.5892C13.2201 5.31516 11.2513 5.67648 9.54251 6.6187C7.8337 7.56092 6.4774 9.03301 5.67802 10.8131C4.87863 12.5932 4.67946 14.585 5.11052 16.4881C5.54158 18.3913 6.57951 20.1028 8.06791 21.3647C9.55631 22.6267 11.4145 23.3707 13.3626 23.4846C15.3106 23.5986 17.2429 23.0764 18.8683 21.9966C20.4937 20.9168 21.7241 19.338 22.3742 17.4981" stroke="white" stroke-linecap="round" stroke-linejoin="round"/>
</svg>
