<svg width="28" height="29" viewBox="0 0 28 29" fill="none" xmlns="http://www.w3.org/2000/svg">
<path d="M14 17.5C15.6569 17.5 17 16.1569 17 14.5C17 12.8431 15.6569 11.5 14 11.5C12.3431 11.5 11 12.8431 11 14.5C11 16.1569 12.3431 17.5 14 17.5Z" stroke="white" stroke-linecap="round" stroke-linejoin="round"/>
<path d="M21.4 17.5C21.2669 17.8016 21.2272 18.1362 21.286 18.4606C21.3448 18.785 21.4995 19.0843 21.73 19.32L21.79 19.38C21.976 19.5657 22.1235 19.7863 22.2241 20.0291C22.3248 20.2719 22.3766 20.5322 22.3766 20.795C22.3766 21.0578 22.3248 21.3181 22.2241 21.5609C22.1235 21.8037 21.976 22.0243 21.79 22.21C21.6043 22.396 21.3837 22.5435 21.1409 22.6441C20.8981 22.7448 20.6378 22.7966 20.375 22.7966C20.1122 22.7966 19.8519 22.7448 19.6091 22.6441C19.3663 22.5435 19.1457 22.396 18.96 22.21L18.9 22.15C18.6643 21.9195 18.365 21.7648 18.0406 21.706C17.7162 21.6472 17.3816 21.6869 17.08 21.82C16.7842 21.9468 16.532 22.1572 16.3543 22.4255C16.1766 22.6938 16.0813 23.0082 16.08 23.33V23.5C16.08 24.0304 15.8693 24.5391 15.4942 24.9142C15.1191 25.2893 14.6104 25.5 14.08 25.5C13.5496 25.5 13.0409 25.2893 12.6658 24.9142C12.2907 24.5391 12.08 24.0304 12.08 23.5V23.41C12.0723 23.079 11.9651 22.758 11.7725 22.4887C11.5799 22.2194 11.3107 22.0143 11 21.9C10.6984 21.7669 10.3638 21.7272 10.0394 21.786C9.71502 21.8448 9.41568 21.9995 9.18 22.23L9.12 22.29C8.93425 22.476 8.71368 22.6235 8.47088 22.7241C8.22808 22.8248 7.96783 22.8766 7.705 22.8766C7.44217 22.8766 7.18192 22.8248 6.93912 22.7241C6.69632 22.6235 6.47575 22.476 6.29 22.29C6.10405 22.1043 5.95653 21.8837 5.85588 21.6409C5.75523 21.3981 5.70343 21.1378 5.70343 20.875C5.70343 20.6122 5.75523 20.3519 5.85588 20.1091C5.95653 19.8663 6.10405 19.6457 6.29 19.46L6.35 19.4C6.58054 19.1643 6.73519 18.865 6.794 18.5406C6.85282 18.2162 6.81312 17.8816 6.68 17.58C6.55324 17.2842 6.34276 17.032 6.07447 16.8543C5.80618 16.6766 5.49179 16.5813 5.17 16.58H5C4.46957 16.58 3.96086 16.3693 3.58579 15.9942C3.21071 15.6191 3 15.1104 3 14.58C3 14.0496 3.21071 13.5409 3.58579 13.1658C3.96086 12.7907 4.46957 12.58 5 12.58H5.09C5.42099 12.5723 5.742 12.4651 6.0113 12.2725C6.28059 12.0799 6.48572 11.8107 6.6 11.5C6.73312 11.1984 6.77282 10.8638 6.714 10.5394C6.65519 10.215 6.50054 9.91568 6.27 9.68L6.21 9.62C6.02405 9.43425 5.87653 9.21368 5.77588 8.97088C5.67523 8.72808 5.62343 8.46783 5.62343 8.205C5.62343 7.94217 5.67523 7.68192 5.77588 7.43912C5.87653 7.19632 6.02405 6.97575 6.21 6.79C6.39575 6.60405 6.61632 6.45653 6.85912 6.35588C7.10192 6.25523 7.36217 6.20343 7.625 6.20343C7.88783 6.20343 8.14808 6.25523 8.39088 6.35588C8.63368 6.45653 8.85425 6.60405 9.04 6.79L9.1 6.85C9.33568 7.08054 9.63502 7.23519 9.95941 7.294C10.2838 7.35282 10.6184 7.31312 10.92 7.18H11C11.2958 7.05324 11.548 6.84276 11.7257 6.57447C11.9034 6.30618 11.9987 5.99179 12 5.67V5.5C12 4.96957 12.2107 4.46086 12.5858 4.08579C12.9609 3.71071 13.4696 3.5 14 3.5C14.5304 3.5 15.0391 3.71071 15.4142 4.08579C15.7893 4.46086 16 4.96957 16 5.5V5.59C16.0013 5.91179 16.0966 6.22618 16.2743 6.49447C16.452 6.76276 16.7042 6.97324 17 7.1C17.3016 7.23312 17.6362 7.27282 17.9606 7.214C18.285 7.15519 18.5843 7.00054 18.82 6.77L18.88 6.71C19.0657 6.52405 19.2863 6.37653 19.5291 6.27588C19.7719 6.17523 20.0322 6.12343 20.295 6.12343C20.5578 6.12343 20.8181 6.17523 21.0609 6.27588C21.3037 6.37653 21.5243 6.52405 21.71 6.71C21.896 6.89575 22.0435 7.11632 22.1441 7.35912C22.2448 7.60192 22.2966 7.86217 22.2966 8.125C22.2966 8.38783 22.2448 8.64808 22.1441 8.89088C22.0435 9.13368 21.896 9.35425 21.71 9.54L21.65 9.6C21.4195 9.83568 21.2648 10.135 21.206 10.4594C21.1472 10.7838 21.1869 11.1184 21.32 11.42V11.5C21.4468 11.7958 21.6572 12.048 21.9255 12.2257C22.1938 12.4034 22.5082 12.4987 22.83 12.5H23C23.5304 12.5 24.0391 12.7107 24.4142 13.0858C24.7893 13.4609 25 13.9696 25 14.5C25 15.0304 24.7893 15.5391 24.4142 15.9142C24.0391 16.2893 23.5304 16.5 23 16.5H22.91C22.5882 16.5013 22.2738 16.5966 22.0055 16.7743C21.7372 16.952 21.5268 17.2042 21.4 17.5Z" stroke="white" stroke-linecap="round" stroke-linejoin="round"/>
</svg>
