<svg width="29" height="30" viewBox="0 0 29 30" fill="none" xmlns="http://www.w3.org/2000/svg">
<path d="M2.38501 3.71387H6.38501L9.06501 17.1039C9.15645 17.5643 9.40692 17.9778 9.77256 18.2722C10.1382 18.5665 10.5957 18.7229 11.065 18.7139H20.785C21.2543 18.7229 21.7118 18.5665 22.0775 18.2722C22.4431 17.9778 22.6936 17.5643 22.785 17.1039L24.385 8.71387H7.38501M11.385 23.7139C11.385 24.2662 10.9373 24.7139 10.385 24.7139C9.83272 24.7139 9.38501 24.2662 9.38501 23.7139C9.38501 23.1616 9.83272 22.7139 10.385 22.7139C10.9373 22.7139 11.385 23.1616 11.385 23.7139ZM22.385 23.7139C22.385 24.2662 21.9373 24.7139 21.385 24.7139C20.8327 24.7139 20.385 24.2662 20.385 23.7139C20.385 23.1616 20.8327 22.7139 21.385 22.7139C21.9373 22.7139 22.385 23.1616 22.385 23.7139Z" stroke="white" stroke-linecap="round" stroke-linejoin="round"/>
</svg>
