<svg width="28" height="30" viewBox="0 0 28 30" fill="none" xmlns="http://www.w3.org/2000/svg">
<path d="M2.13495 3.42871C1.86807 3.47903 1.67557 3.71528 1.67995 3.98871V6.64871C0.680259 9.73965 0.559946 13.7537 0.559946 13.7537C0.559946 13.7603 0.559946 13.7647 0.559946 13.7712V16.7462C0.544634 16.8206 0.544634 16.8994 0.559946 16.9737V26.3887C0.559946 26.6972 0.811509 26.9487 1.11995 26.9487H11.7599C12.0203 26.9465 12.2456 26.765 12.3024 26.5112L13.9999 18.4437L15.6974 26.5112C15.7543 26.765 15.9796 26.9465 16.2399 26.9487H26.8799C27.1884 26.9487 27.4399 26.6972 27.4399 26.3887V16.9912C27.4574 16.9103 27.4574 16.8272 27.4399 16.7462V13.7712C27.4399 13.7647 27.4399 13.7603 27.4399 13.7537C27.4399 13.7537 27.3196 9.73746 26.3199 6.64871V3.98871C26.3199 3.68028 26.0684 3.42871 25.7599 3.42871H2.23995C2.22245 3.42871 2.20495 3.42871 2.18745 3.42871C2.16995 3.42871 2.15245 3.42871 2.13495 3.42871ZM2.79995 4.54871H25.1999V6.47371C25.1693 6.57653 25.1693 6.6859 25.1999 6.78871H2.79995V6.71871C2.80213 6.69465 2.80213 6.67278 2.79995 6.64871V4.54871ZM2.46745 7.90871H7.83995C7.83995 11.6515 6.15338 13.6903 4.44495 14.8737C3.35776 15.6262 2.32526 15.9784 1.67995 16.1512V13.7712C1.67995 13.745 1.7937 10.5928 2.46745 7.90871ZM8.95995 7.90871H19.0399C19.0399 11.9972 20.9934 14.445 22.9249 15.7837C24.2965 16.7353 25.6396 17.1553 26.3199 17.3237V25.8287H16.6949L14.5424 15.6262C14.479 15.379 14.2559 15.2062 13.9999 15.2062C13.744 15.2062 13.5209 15.379 13.4574 15.6262L11.3049 25.8287H1.67995V17.3237C2.36026 17.1553 3.70338 16.7353 5.07495 15.7837C7.00651 14.445 8.95995 11.9972 8.95995 7.90871ZM20.1599 7.90871H25.5324C26.2062 10.5928 26.3199 13.745 26.3199 13.7712V16.1512C25.6746 15.9784 24.6421 15.6262 23.5549 14.8737C21.8465 13.6903 20.1599 11.6515 20.1599 7.90871Z" fill="white"/>
</svg>
