<svg width="28" height="30" viewBox="0 0 28 30" fill="none" xmlns="http://www.w3.org/2000/svg">
<path d="M5.51236 2.86885C5.23674 2.9126 5.03549 3.15104 5.03986 3.42885V5.59885L0.0173615 24.5689C-0.019826 24.7176 0.00423652 24.8773 0.0873615 25.0064C0.0873615 25.0064 0.170487 25.1092 0.262362 25.1989C0.354237 25.2885 0.476737 25.4089 0.664862 25.5314C1.0433 25.7785 1.6558 26.0804 2.62486 26.3714C4.56517 26.9554 7.96455 27.5089 13.9999 27.5089C20.0352 27.5089 23.4345 26.9554 25.3749 26.3714C26.3439 26.0804 26.9564 25.7785 27.3349 25.5314C27.523 25.4089 27.6455 25.2885 27.7374 25.1989C27.8292 25.1092 27.9124 25.0064 27.9124 25.0064C27.9955 24.8773 28.0195 24.7176 27.9824 24.5689L22.9599 5.59885V3.42885C22.962 3.26479 22.892 3.10729 22.7652 2.99791C22.6405 2.89073 22.4764 2.8426 22.3124 2.86885C22.3124 2.86885 18.4099 3.42885 13.9999 3.42885C9.58986 3.42885 5.68736 2.86885 5.68736 2.86885C5.6283 2.8601 5.57142 2.8601 5.51236 2.86885ZM6.15986 4.05885C6.99111 4.16823 10.0667 4.54885 13.9999 4.54885C17.933 4.54885 21.0086 4.16823 21.8399 4.05885V5.16135C21.2011 5.24666 18.0227 5.66885 13.9999 5.66885C9.97705 5.66885 6.79861 5.24666 6.15986 5.16135V4.05885ZM6.01986 6.29885C6.4683 6.35573 7.17049 6.43448 8.22486 6.52635C8.20299 6.75823 8.10892 7.30073 7.75236 7.94385C7.33455 8.69854 6.57111 9.55823 5.00486 10.1139L6.01986 6.29885ZM21.9799 6.29885L22.9949 10.1139C21.4286 9.55823 20.6652 8.69854 20.2474 7.94385C19.8908 7.30073 19.7967 6.75823 19.7749 6.52635C20.8292 6.43448 21.5314 6.35573 21.9799 6.29885ZM9.32736 6.61385C10.6858 6.71229 12.298 6.78885 13.9999 6.78885C15.7017 6.78885 17.3139 6.71229 18.6724 6.61385C18.7052 6.9551 18.8233 7.68573 19.2674 8.48635C19.8667 9.56916 21.0808 10.7876 23.3274 11.3914L26.8099 24.5164C26.7749 24.5426 26.7727 24.5535 26.7224 24.5864C26.4555 24.7592 25.9502 25.0173 25.0599 25.2864C23.2792 25.8223 19.9652 26.3889 13.9999 26.3889C8.03455 26.3889 4.72049 25.8223 2.93986 25.2864C2.04955 25.0173 1.54424 24.7592 1.27736 24.5864C1.22705 24.5535 1.22486 24.5426 1.18986 24.5164L4.67236 11.3914C6.91892 10.7876 8.13299 9.56916 8.73236 8.48635C9.17642 7.68573 9.29455 6.9551 9.32736 6.61385Z" fill="white"/>
</svg>
