<svg width="28" height="30" viewBox="0 0 28 30" fill="none" xmlns="http://www.w3.org/2000/svg">
<path d="M11.176 3.42017C11.1519 3.42236 11.1278 3.42455 11.1038 3.42892C11.1038 3.42892 11.1038 3.42892 11.1016 3.42892H11.0972C11.0338 3.44205 10.9725 3.46392 10.9178 3.49455L4.57189 5.80455L0.441895 21.7361L5.42502 23.1602L6.72002 18.6277V26.949H21.28V18.6277L22.575 23.1602L27.5603 21.7361L23.4281 5.80455L16.8985 3.42892H11.2875C11.2525 3.42236 11.2153 3.42017 11.176 3.42017ZM11.9788 4.54892H16.0366L14.0613 10.803L11.9788 4.54892ZM10.85 4.7108L13.4685 12.5661C13.475 12.5836 13.4816 12.599 13.4881 12.6165L13.2869 13.2552L10.1566 7.88924L10.7275 6.74955L9.65783 5.14392L10.85 4.7108ZM17.1588 4.71517L18.3422 5.14611L17.2725 6.74955L17.8369 7.87392L14.5425 12.9993L17.1588 4.71517ZM8.57502 5.53986L9.43252 6.83049L8.88346 7.92861L12.9303 14.863C12.8997 15.1255 12.88 15.3924 12.88 15.6571V25.829H7.84002V10.6302L4.65502 21.7777L1.79814 20.9618L5.50814 6.6533L8.57502 5.53986ZM19.425 5.53986L22.4919 6.6533L26.1997 20.9618L23.345 21.7777L20.16 10.6302V25.829H14V15.9152L19.1231 7.94392L18.5675 6.83049L19.425 5.53986ZM15.12 17.429C14.8116 17.429 14.56 17.6805 14.56 17.989C14.56 18.2974 14.8116 18.549 15.12 18.549C15.4285 18.549 15.68 18.2974 15.68 17.989C15.68 17.6805 15.4285 17.429 15.12 17.429ZM15.12 20.229C14.8116 20.229 14.56 20.4805 14.56 20.789C14.56 21.0974 14.8116 21.349 15.12 21.349C15.4285 21.349 15.68 21.0974 15.68 20.789C15.68 20.4805 15.4285 20.229 15.12 20.229ZM15.12 23.029C14.8116 23.029 14.56 23.2805 14.56 23.589C14.56 23.8974 14.8116 24.149 15.12 24.149C15.4285 24.149 15.68 23.8974 15.68 23.589C15.68 23.2805 15.4285 23.029 15.12 23.029Z" fill="white"/>
</svg>
