<svg width="28" height="30" viewBox="0 0 28 30" fill="none" xmlns="http://www.w3.org/2000/svg">
<path d="M9.52001 5.10875C8.40001 4.99719 7.61688 5.89188 7.56001 5.89188L2.76063 13.0275C2.32313 13.2725 1.98845 13.5853 1.74345 13.9571C1.08282 14.9678 1.12001 16.1971 1.12001 17.4287C1.12001 20.1806 3.26376 22.4687 5.9347 22.4687C8.59907 22.4687 10.6947 20.3162 11.8191 17.9493C11.9875 17.595 12.1188 17.234 12.2084 16.8687H15.7916C15.8813 17.234 16.0125 17.595 16.1809 17.9493C17.3053 20.3162 19.4009 22.4687 22.0653 22.4687C24.7363 22.4687 26.88 20.1806 26.88 17.4287C26.88 16.1971 26.9172 14.9678 26.2566 13.9571C26.0291 13.6115 25.7184 13.3206 25.3247 13.0821L20.4947 5.94875L20.44 5.89188C20.3831 5.89188 19.6569 4.99719 18.48 5.10875C17.5284 5.22031 16.6884 5.94875 15.96 7.23719L15.68 7.79719L16.6884 8.41406L16.9684 7.90875C17.4716 6.95719 18.0316 6.45406 18.5916 6.39719C19.0947 6.34031 19.4316 6.67719 19.5453 6.78875L23.3975 12.474C22.9928 12.4193 22.5553 12.3887 22.0653 12.3887C21.9866 12.3887 21.9166 12.3931 21.84 12.3953V12.3887H6.16001V12.3953C6.08345 12.3931 6.01345 12.3887 5.9347 12.3887C5.43595 12.3887 4.98751 12.4215 4.57626 12.4762L8.4547 6.73188C8.56845 6.62031 8.90532 6.28344 9.40845 6.34031C9.91157 6.39719 10.4716 6.95719 11.0316 7.85406L11.3116 8.35719L12.32 7.74031L12.04 7.23719C11.2569 5.94875 10.4169 5.22031 9.52001 5.10875ZM5.9347 13.5087C6.16657 13.5087 6.3722 13.5196 6.58439 13.5262C6.33501 13.5875 6.16001 13.8128 6.16001 14.0687C6.16001 14.3771 6.41157 14.6287 6.72001 14.6287C7.02845 14.6287 7.28001 14.3771 7.28001 14.0687C7.28001 13.8237 7.11813 13.605 6.88407 13.535C8.02376 13.594 8.88126 13.7646 9.52657 13.9943C9.5222 14.0184 9.52001 14.0446 9.52001 14.0687C9.52001 14.3771 9.77157 14.6287 10.08 14.6287C10.2244 14.6287 10.3644 14.5718 10.4672 14.4712C10.6159 14.5784 10.745 14.69 10.8391 14.8037C11.1213 15.145 11.2306 15.5125 11.2197 15.9609C11.2131 16.2781 11.1344 16.6325 10.9988 17C10.8981 16.9168 10.7713 16.8687 10.64 16.8687C10.3316 16.8687 10.08 17.1203 10.08 17.4287C10.08 17.6978 10.2703 17.9275 10.535 17.98C9.72563 19.4368 8.53345 20.6596 7.1597 21.1321C7.23845 21.0359 7.28001 20.9134 7.28001 20.7887C7.28001 20.4803 7.02845 20.2287 6.72001 20.2287C6.41157 20.2287 6.16001 20.4803 6.16001 20.7887C6.16001 21.0096 6.29126 21.2109 6.49251 21.2984C6.30876 21.329 6.12501 21.3487 5.9347 21.3487C5.19095 21.3487 4.49532 21.1125 3.91345 20.7078C3.87407 20.4321 3.63782 20.2287 3.36001 20.2287C3.35782 20.2287 3.35345 20.2287 3.35126 20.2287C2.66657 19.5178 2.24001 18.529 2.24001 17.4287C2.24001 16.1971 2.2772 15.1865 2.68188 14.5718C2.73438 14.4887 2.79782 14.4121 2.86782 14.3356C2.86782 14.3356 2.86782 14.3356 2.87001 14.3378C2.96626 14.5171 3.15438 14.6287 3.36001 14.6287C3.66845 14.6287 3.92001 14.3771 3.92001 14.0687C3.92001 13.9615 3.88938 13.8587 3.83251 13.769C4.32907 13.605 4.99845 13.5087 5.9347 13.5087ZM11.0513 13.5087H16.9488C16.6994 13.6837 16.4784 13.874 16.2991 14.0884C15.8944 14.5784 15.7063 15.1625 15.6734 15.7487H12.3266C12.2938 15.1625 12.1056 14.5784 11.7009 14.0884C11.5216 13.874 11.3006 13.6837 11.0513 13.5087ZM22.0653 13.5087C23.0016 13.5087 23.6688 13.6071 24.1675 13.769C24.1106 13.8587 24.08 13.9615 24.08 14.0687C24.08 14.3771 24.3316 14.6287 24.64 14.6287C24.8456 14.6287 25.0338 14.5171 25.1322 14.3356C25.2022 14.4121 25.2656 14.4887 25.3203 14.5718C25.7228 15.1865 25.76 16.1971 25.76 17.4287C25.76 18.529 25.3334 19.5178 24.6488 20.2287C24.6466 20.2287 24.6422 20.2287 24.64 20.2287C24.3622 20.2287 24.1259 20.4321 24.0866 20.7078C23.5025 21.1125 22.8091 21.3487 22.0653 21.3487C21.8772 21.3487 21.6913 21.329 21.5075 21.2984C21.7088 21.2087 21.84 21.0096 21.84 20.7887C21.84 20.4803 21.5884 20.2287 21.28 20.2287C20.9716 20.2287 20.72 20.4803 20.72 20.7887C20.72 20.9134 20.7616 21.0359 20.8403 21.1321C19.4666 20.6596 18.2744 19.4368 17.465 17.98C17.7297 17.9275 17.92 17.6978 17.92 17.4287C17.92 17.1203 17.6684 16.8687 17.36 16.8687C17.2288 16.8687 17.0997 16.9146 16.9991 17C16.8656 16.6303 16.7869 16.2759 16.7803 15.9609C16.7694 15.5125 16.8788 15.145 17.1609 14.8037C17.2113 14.7446 17.2747 14.6856 17.3381 14.6287C17.3447 14.6287 17.3534 14.6287 17.36 14.6287C17.6006 14.6287 17.8128 14.4756 17.8894 14.2481C18.5566 13.8915 19.5869 13.6137 21.1138 13.535C20.8797 13.6071 20.72 13.8237 20.72 14.0687C20.72 14.3771 20.9716 14.6287 21.28 14.6287C21.5884 14.6287 21.84 14.3771 21.84 14.0687C21.84 13.8128 21.665 13.5875 21.4156 13.5262C21.6278 13.5196 21.8334 13.5087 22.0653 13.5087ZM5.04001 15.1887C4.73157 15.1887 4.48001 15.4403 4.48001 15.7487C4.48001 16.0571 4.73157 16.3087 5.04001 16.3087C5.34845 16.3087 5.60001 16.0571 5.60001 15.7487C5.60001 15.4403 5.34845 15.1887 5.04001 15.1887ZM8.40001 15.1887C8.09157 15.1887 7.84001 15.4403 7.84001 15.7487C7.84001 16.0571 8.09157 16.3087 8.40001 16.3087C8.70845 16.3087 8.96001 16.0571 8.96001 15.7487C8.96001 15.4403 8.70845 15.1887 8.40001 15.1887ZM19.6 15.1887C19.2916 15.1887 19.04 15.4403 19.04 15.7487C19.04 16.0571 19.2916 16.3087 19.6 16.3087C19.9084 16.3087 20.16 16.0571 20.16 15.7487C20.16 15.4403 19.9084 15.1887 19.6 15.1887ZM22.96 15.1887C22.6516 15.1887 22.4 15.4403 22.4 15.7487C22.4 16.0571 22.6516 16.3087 22.96 16.3087C23.2684 16.3087 23.52 16.0571 23.52 15.7487C23.52 15.4403 23.2684 15.1887 22.96 15.1887ZM3.36001 16.8687C3.05157 16.8687 2.80001 17.1203 2.80001 17.4287C2.80001 17.7371 3.05157 17.9887 3.36001 17.9887C3.66845 17.9887 3.92001 17.7371 3.92001 17.4287C3.92001 17.1203 3.66845 16.8687 3.36001 16.8687ZM6.72001 16.8687C6.41157 16.8687 6.16001 17.1203 6.16001 17.4287C6.16001 17.7371 6.41157 17.9887 6.72001 17.9887C7.02845 17.9887 7.28001 17.7371 7.28001 17.4287C7.28001 17.1203 7.02845 16.8687 6.72001 16.8687ZM21.28 16.8687C20.9716 16.8687 20.72 17.1203 20.72 17.4287C20.72 17.7371 20.9716 17.9887 21.28 17.9887C21.5884 17.9887 21.84 17.7371 21.84 17.4287C21.84 17.1203 21.5884 16.8687 21.28 16.8687ZM24.64 16.8687C24.3316 16.8687 24.08 17.1203 24.08 17.4287C24.08 17.7371 24.3316 17.9887 24.64 17.9887C24.9484 17.9887 25.2 17.7371 25.2 17.4287C25.2 17.1203 24.9484 16.8687 24.64 16.8687ZM5.04001 18.5487C4.73157 18.5487 4.48001 18.8003 4.48001 19.1087C4.48001 19.4171 4.73157 19.6687 5.04001 19.6687C5.34845 19.6687 5.60001 19.4171 5.60001 19.1087C5.60001 18.8003 5.34845 18.5487 5.04001 18.5487ZM8.40001 18.5487C8.09157 18.5487 7.84001 18.8003 7.84001 19.1087C7.84001 19.4171 8.09157 19.6687 8.40001 19.6687C8.70845 19.6687 8.96001 19.4171 8.96001 19.1087C8.96001 18.8003 8.70845 18.5487 8.40001 18.5487ZM19.6 18.5487C19.2916 18.5487 19.04 18.8003 19.04 19.1087C19.04 19.4171 19.2916 19.6687 19.6 19.6687C19.9084 19.6687 20.16 19.4171 20.16 19.1087C20.16 18.8003 19.9084 18.5487 19.6 18.5487ZM22.96 18.5487C22.6516 18.5487 22.4 18.8003 22.4 19.1087C22.4 19.4171 22.6516 19.6687 22.96 19.6687C23.2684 19.6687 23.52 19.4171 23.52 19.1087C23.52 18.8003 23.2684 18.5487 22.96 18.5487Z" fill="white"/>
</svg>
