<svg width="28" height="30" viewBox="0 0 28 30" fill="none" xmlns="http://www.w3.org/2000/svg">
<g clip-path="url(#clip0_2511_2002)">
<mask id="mask0_2511_2002" style="mask-type:luminance" maskUnits="userSpaceOnUse" x="0" y="1" width="28" height="29">
<path d="M28 1.18896H0V29.189H28V1.18896Z" fill="white"/>
</mask>
<g mask="url(#mask0_2511_2002)">
<path d="M10.64 1.74902C10.4915 1.74904 10.3491 1.80804 10.244 1.91306C10.139 2.01807 10.08 2.1605 10.08 2.30902V5.1834C8.65575 5.51805 7.19879 5.97102 6.01016 6.73433C4.38829 7.776 3.33515 9.44667 2.765 11.1761L0.0284413 19.377C0.00938333 19.4345 -0.000220579 19.4947 3.84396e-06 19.5553V28.629C1.86934e-05 28.7776 0.0590233 28.92 0.16404 29.025C0.269058 29.13 0.411487 29.189 0.560004 29.189H4.48C4.62852 29.189 4.77095 29.13 4.87597 29.025C4.98098 28.92 5.03999 28.7776 5.04 28.629V20.135L6.16 18.0054V28.629C6.16002 28.7776 6.21902 28.92 6.32404 29.025C6.42906 29.13 6.57149 29.189 6.72 29.189H14H21.28C21.4285 29.189 21.5709 29.13 21.676 29.025C21.781 28.92 21.84 28.7776 21.84 28.629V18.0054L22.96 20.135V28.629C22.96 28.7776 23.019 28.92 23.124 29.025C23.2291 29.13 23.3715 29.189 23.52 29.189H27.44C27.5885 29.189 27.7309 29.13 27.836 29.025C27.941 28.92 28 28.7776 28 28.629V19.5553C28.0002 19.4947 27.9906 19.4345 27.9716 19.377L25.235 11.1761L25.2339 11.175C24.6637 9.44609 23.6113 7.77573 21.9898 6.73433C20.8008 5.97078 19.3447 5.50929 17.92 5.17465V2.30902C17.92 2.1605 17.861 2.01807 17.756 1.91306C17.6509 1.80804 17.5085 1.74904 17.36 1.74902H10.64ZM11.2 2.86902H16.8V5.24136C14.9196 5.83631 13.0703 5.78157 11.2 5.20636V2.86902ZM10.5328 6.21808C12.8176 6.99277 15.1585 7.0332 17.4781 6.21808C18.6222 6.47864 19.766 6.82697 20.72 7.30527C19.9601 9.8474 20.0137 12.6796 20.7156 15.737C20.716 15.7571 20.7175 15.7772 20.72 15.7972V20.2378C20.6692 20.2641 20.6227 20.298 20.5822 20.3384L18.7578 22.1781L16.9159 20.3362C16.815 20.2353 16.6793 20.1766 16.5366 20.1724C16.3939 20.1681 16.2549 20.2185 16.1481 20.3133L13.9967 22.2229L11.8519 20.3144C11.7452 20.2194 11.6063 20.1689 11.4636 20.1729C11.3209 20.177 11.1851 20.2354 11.0841 20.3362L9.24219 22.1781L7.41781 20.3384C7.3776 20.2965 7.33111 20.2611 7.28 20.2334V15.7983C7.28279 15.7761 7.28425 15.7538 7.28438 15.7315C7.9938 12.8406 8.03058 10.0084 7.27891 7.30636C8.2362 6.82749 9.38517 6.47896 10.5328 6.21808ZM21.7153 7.91558C22.8823 8.79351 23.7056 10.1162 24.1708 11.5272L24.1719 11.5294L26.88 19.6461V25.829H24.08V19.9961C24.0799 19.9054 24.0577 19.816 24.0155 19.7358L21.8083 15.5401C21.1525 12.7163 21.104 10.1735 21.7153 7.91558ZM6.27922 7.91996C6.89588 10.3502 6.85499 12.8908 6.195 15.5358L3.98453 19.7358C3.94226 19.816 3.92011 19.9054 3.92 19.9961V25.829H1.12V19.6461L3.82813 11.5294L3.82922 11.5272C4.29364 10.1185 5.11521 8.79792 6.27922 7.91996ZM16.497 21.5011L18.3641 23.3681C18.4162 23.4203 18.4781 23.4618 18.5463 23.49C18.6145 23.5182 18.6875 23.5327 18.7613 23.5326C18.8351 23.5325 18.9082 23.5178 18.9762 23.4894C19.0443 23.461 19.1062 23.4194 19.1581 23.367L20.72 21.7909V25.829H7.28V21.7909L8.84188 23.367C8.89385 23.4194 8.95566 23.461 9.02375 23.4894C9.09185 23.5178 9.16489 23.5325 9.23868 23.5326C9.31247 23.5327 9.38555 23.5182 9.45373 23.49C9.5219 23.4618 9.58382 23.4203 9.63594 23.3681L11.5019 21.5022L13.6227 23.3911C13.7252 23.4824 13.8578 23.5328 13.9951 23.5328C14.1324 23.5328 14.2649 23.4824 14.3675 23.3911L16.497 21.5011ZM1.12 26.949H3.92V28.069H1.12V26.949ZM7.28 26.949H20.72V28.069H14H7.28V26.949ZM24.08 26.949H26.88V28.069H24.08V26.949Z" fill="white"/>
</g>
</g>
<defs>
<clipPath id="clip0_2511_2002">
<rect width="28" height="29" fill="white" transform="translate(0 0.5)"/>
</clipPath>
</defs>
</svg>
