<svg width="28" height="30" viewBox="0 0 28 30" fill="none" xmlns="http://www.w3.org/2000/svg">
<path d="M21.829 2.28052L21.082 4.52161C20.0415 4.54199 18.3774 4.7939 16.8011 5.93364C15.8983 6.58604 15.1462 7.44814 14.6103 8.4427H13.5723C13.1803 7.47166 12.5764 6.61954 11.8081 5.96098C9.93531 4.35548 7.70189 4.34958 6.60293 4.46911L5.8734 2.28161L4.85074 2.62177L5.64371 4.99958C4.91141 6.21975 4.66135 7.64512 4.95027 9.04973C5.13475 9.9467 5.52077 10.7569 6.07136 11.4275C6.07274 11.4307 6.07574 11.4328 6.07574 11.4374C6.87654 12.8766 7.15076 14.1701 6.87636 15.2677C6.71396 15.9173 6.38356 16.4157 6.03636 16.9477C5.75076 17.3845 5.44906 17.855 5.21386 18.4374C5.06266 18.8014 4.93872 19.2148 4.87152 19.6908C4.76512 20.4244 4.79868 21.1812 4.96668 21.9428C5.20748 22.0044 5.43708 22.0713 5.66668 22.1441H5.67324C7.39804 22.6985 8.89801 23.5387 10.1412 24.6531C10.8188 25.2635 11.323 25.8625 11.7654 26.3889C12.5494 27.3241 13.1769 28.0689 14.1793 28.0689H14.28C15.288 28.0185 15.8475 27.2509 16.4915 26.3605C16.8723 25.8341 17.304 25.2404 17.92 24.6356C19.0904 23.4652 20.5744 22.6084 22.3496 22.0708C22.5792 21.998 22.8198 21.9366 23.0606 21.875C23.2286 21.1134 23.2621 20.3577 23.1557 19.6241C23.0941 19.1817 22.9828 18.7954 22.8484 18.4538C22.6076 17.8266 22.2822 17.3335 21.9854 16.8799C21.6382 16.3535 21.3077 15.8495 21.1509 15.1999C20.8933 14.1079 21.19 12.8261 22.0412 11.3925L22.0248 11.3805L22.0193 11.3772C22.5524 10.6631 22.907 9.80822 23.0332 8.89442C23.2237 7.51152 22.869 6.10119 22.0675 4.97333L22.8517 2.62177L21.829 2.28052ZM7.36199 5.5038C8.35946 5.49739 9.8543 5.70492 11.1059 6.77802C12.0109 7.55418 12.4657 8.49844 12.6875 9.15364L12.8121 9.52005H15.2786L15.4262 9.21489C15.7493 8.54345 16.3603 7.58096 17.4332 6.80536C18.8316 5.79456 20.3108 5.60346 21.2001 5.59786C21.8503 6.51066 22.122 7.61839 21.9668 8.74567C21.8602 9.51796 21.548 10.234 21.0842 10.8205H21.0787C21.0731 10.8261 21.0723 10.8324 21.0667 10.838C21.0667 10.838 21.0668 10.8435 21.0612 10.8435C21.0612 10.8491 21.0557 10.8488 21.0557 10.8544V10.8555C20.8314 11.1328 20.5753 11.3827 20.2857 11.5905C18.4736 12.8897 15.8445 12.4798 14.4232 10.6783L14.0196 10.1664L13.5931 10.6586C12.1192 12.3605 9.64332 12.7567 7.83339 11.5774C7.54871 11.3916 7.29463 11.1691 7.06668 10.9222L7.06558 10.9211C7.06014 10.9051 7.05567 10.8937 7.0448 10.8774L7.03386 10.8828L7.03168 10.8839C6.52506 10.3212 6.16801 9.62052 6.00574 8.83208C5.77278 7.69752 5.96896 6.54355 6.55808 5.55739C6.75254 5.53205 7.0295 5.50593 7.36199 5.5038ZM13.9836 11.8049C15.0347 12.8649 16.463 13.4236 17.8882 13.4236C18.6673 13.4236 19.4456 13.2551 20.16 12.9117C19.9029 13.8126 19.8745 14.6689 20.0648 15.4635C20.2664 16.3035 20.6639 16.9077 21.0503 17.4957C21.2631 17.8149 21.4651 18.1294 21.6387 18.4822C21.8011 18.807 21.93 19.1646 22.0084 19.5902C22.0252 19.6518 22.0355 19.7199 22.0467 19.7871C22.1027 20.1791 22.1144 20.5814 22.0696 20.9902C20.104 21.5782 18.4407 22.5357 17.1303 23.8405C16.4527 24.5125 15.9712 25.1733 15.5848 25.7053C14.9912 26.5285 14.6778 26.9265 14.2242 26.9489C13.737 26.9657 13.3386 26.5237 12.6218 25.6725C12.1794 25.1405 11.6251 24.4794 10.8915 23.8186C9.51952 22.5866 7.86271 21.6625 5.95871 21.0689C5.91391 20.6545 5.92458 20.2514 5.98058 19.8538C5.99178 19.7586 6.0085 19.6634 6.0309 19.5738C6.1149 19.1482 6.25542 18.7895 6.42902 18.4647C6.59142 18.1455 6.77552 17.8603 6.97152 17.5635C7.35792 16.9755 7.75075 16.3701 7.96355 15.5357C8.17635 14.6957 8.14266 13.7885 7.87386 12.8253C9.87223 13.7656 12.3124 13.3648 13.9836 11.8049Z" fill="white"/>
</svg>
