<svg width="28" height="30" viewBox="0 0 28 30" fill="none" xmlns="http://www.w3.org/2000/svg">
<mask id="mask0_2511_2068" style="mask-type:luminance" maskUnits="userSpaceOnUse" x="0" y="1" width="28" height="29">
<path d="M28 1.18896H0V29.189H28V1.18896Z" fill="white"/>
</mask>
<g mask="url(#mask0_2511_2068)">
<path d="M10.64 2.86893C10.6254 2.86909 10.6108 2.86982 10.5963 2.87112C10.5776 2.87237 10.559 2.87456 10.5405 2.87768C10.5062 2.88329 10.4725 2.89208 10.4399 2.90393L6.56581 4.01081C6.55921 4.01287 6.55265 4.01506 6.54612 4.01737C6.47256 4.03642 4.60275 4.53268 3.63566 6.14471C2.29432 8.37896 0.0787816 12.1024 0.0787816 12.1024C0.00317488 12.2294 -0.0191327 12.3812 0.0167235 12.5246C0.0525797 12.6681 0.143691 12.7915 0.270188 12.868L3.98019 15.108C4.10608 15.184 4.25683 15.2075 4.39988 15.1733C4.54293 15.1392 4.66679 15.0501 4.74472 14.9253L6.16003 12.6613V26.9489C6.16005 27.0975 6.21905 27.2399 6.32407 27.3449C6.42908 27.4499 6.57151 27.5089 6.72003 27.5089H21.28C21.4285 27.5089 21.571 27.4499 21.676 27.3449C21.781 27.2399 21.84 27.0975 21.84 26.9489V12.6613L23.2553 14.9253C23.3333 15.0501 23.4571 15.1392 23.6002 15.1733C23.7432 15.2075 23.894 15.184 24.0199 15.108L27.7299 12.868C27.8564 12.7915 27.9475 12.6681 27.9833 12.5246C28.0192 12.3812 27.9969 12.2294 27.9213 12.1024C27.9213 12.1024 25.7057 8.37896 24.3644 6.14471C23.415 4.56224 21.6137 4.06137 21.4769 4.02503C21.4629 4.01972 21.4486 4.01497 21.4342 4.01081L17.57 2.90721C17.5031 2.88111 17.4318 2.86811 17.36 2.86893C17.356 2.86889 17.352 2.86889 17.348 2.86893H14H10.6521H10.64ZM11.3991 3.98893H14H16.601C16.53 4.15466 16.4436 4.33126 16.3188 4.51612C15.9216 5.10451 15.2923 5.66893 14 5.66893C12.7078 5.66893 12.0784 5.10451 11.6813 4.51612C11.5565 4.33126 11.4701 4.15466 11.3991 3.98893ZM10.2616 4.11909C10.3625 4.41408 10.5035 4.77094 10.7538 5.14174C11.3016 5.95335 12.3523 6.78893 14 6.78893C15.6478 6.78893 16.6984 5.95335 17.2463 5.14174C17.4966 4.77094 17.6376 4.41408 17.7385 4.11909L20.5516 4.92299C20.3696 5.44367 20.16 6.20828 20.16 7.34893C20.16 9.43597 20.611 10.5312 20.7146 10.7669C20.716 10.779 20.7178 10.791 20.72 10.803V26.3889H7.28003V10.8041C7.28224 10.7921 7.28407 10.7801 7.2855 10.768C7.38866 10.5333 7.84003 9.43749 7.84003 7.34893C7.84003 6.20828 7.63049 5.44367 7.44847 4.92299L10.2616 4.11909ZM6.39956 5.28174C6.54407 5.71681 6.72003 6.41246 6.72003 7.34893C6.72003 9.46013 6.24057 10.4151 6.22456 10.4464L4.08737 13.8644L1.32675 12.1975C1.63566 11.6785 3.36462 8.77216 4.59597 6.72112C5.05344 5.95857 5.87864 5.5114 6.39956 5.28174ZM21.6005 5.28174C22.1214 5.5114 22.9466 5.95857 23.4041 6.72112C24.6354 8.77216 26.3644 11.6785 26.6733 12.1975L23.9127 13.8644L21.7755 10.4464C21.7595 10.4151 21.28 9.46013 21.28 7.34893C21.28 6.41246 21.456 5.71681 21.6005 5.28174Z" fill="white"/>
</g>
</svg>
