<svg width="29" height="30" viewBox="0 0 29 30" fill="none" xmlns="http://www.w3.org/2000/svg">
<path d="M18.8273 4.71423H21.4973C22.0633 4.70422 22.6132 4.90236 23.0427 5.27105C23.4722 5.63973 23.7514 6.15329 23.8273 6.71423V13.7142C23.7514 14.2752 23.4722 14.7887 23.0427 15.1574C22.6132 15.5261 22.0633 15.7242 21.4973 15.7142H18.8273M18.8273 4.71423V15.7142M18.8273 4.71423H7.5473C7.06497 4.70878 6.59692 4.87782 6.2294 5.19022C5.86187 5.50262 5.61962 5.93732 5.5473 6.41423L4.1673 15.4142C4.12379 15.7009 4.14313 15.9935 4.22396 16.272C4.3048 16.5504 4.4452 16.8079 4.63544 17.0267C4.82569 17.2455 5.06122 17.4203 5.32573 17.539C5.59024 17.6577 5.87739 17.7175 6.1673 17.7142H11.8273V21.7142C11.8273 22.5099 12.1434 23.2729 12.706 23.8356C13.2686 24.3982 14.0317 24.7142 14.8273 24.7142L18.8273 15.7142" stroke="white" stroke-linecap="round" stroke-linejoin="round"/>
</svg>
