<svg width="29" height="30" viewBox="0 0 29 30" fill="none" xmlns="http://www.w3.org/2000/svg">
<path d="M9.14465 25.2732H6.14465C5.61422 25.2732 5.10551 25.0625 4.73044 24.6874C4.35537 24.3123 4.14465 23.8036 4.14465 23.2732V16.2732C4.14465 15.7428 4.35537 15.2341 4.73044 14.859C5.10551 14.4839 5.61422 14.2732 6.14465 14.2732H9.14465M9.14465 25.2732V14.2732M9.14465 25.2732H20.4247C20.907 25.2786 21.375 25.1096 21.7426 24.7972C22.1101 24.4848 22.3523 24.0501 22.4247 23.5732L23.8047 14.5732C23.8482 14.2866 23.8288 13.9939 23.748 13.7154C23.6672 13.437 23.5268 13.1795 23.3365 12.9607C23.1463 12.7419 22.9107 12.5671 22.6462 12.4484C22.3817 12.3297 22.0946 12.2699 21.8047 12.2732H16.1447V8.27319C16.1447 7.47754 15.8286 6.71448 15.266 6.15187C14.7034 5.58926 13.9403 5.27319 13.1447 5.27319L9.14465 14.2732" stroke="white" stroke-linecap="round" stroke-linejoin="round"/>
</svg>
