<svg width="28" height="30" viewBox="0 0 28 30" fill="none" xmlns="http://www.w3.org/2000/svg">
<path d="M23.52 2.8689C23.1744 2.8689 22.925 3.01108 22.6712 3.17077C22.4197 3.33265 22.155 3.5339 21.8444 3.77015C21.2209 4.24046 20.4137 4.8464 19.2894 5.45671C19.2478 5.47858 19.2019 5.50046 19.1625 5.52233C19.0706 5.31015 18.8562 5.17671 18.6266 5.18546C18.4494 5.19202 18.2853 5.28171 18.1847 5.42827C18.0841 5.57483 18.06 5.76077 18.1191 5.92921L18.1475 6.01671C17.8194 6.16327 17.4628 6.30546 17.0887 6.44327L17.0866 6.43452C17.01 6.19608 16.7825 6.0364 16.5309 6.04515C16.3537 6.05171 16.1897 6.14358 16.0891 6.29015C15.9906 6.43671 15.9644 6.62265 16.0234 6.7889L16.0278 6.80202C15.6844 6.90702 15.33 7.00765 14.9516 7.1039C14.8706 6.87202 14.6475 6.7189 14.4025 6.72765C14.2472 6.73421 14.1028 6.80421 14 6.92233C13.8994 7.04046 13.8512 7.19358 13.8687 7.3489C13.5362 7.41452 13.195 7.47577 12.8406 7.53265L12.8187 7.46265C12.7422 7.22421 12.5147 7.06452 12.2631 7.07546C12.1078 7.07983 11.9612 7.14983 11.8606 7.26796C11.76 7.38608 11.7119 7.53921 11.7272 7.69452C11.3816 7.7339 11.0009 7.75796 10.6312 7.78858L10.6116 7.73171C10.535 7.49108 10.3097 7.3314 10.0559 7.34015C9.76936 7.35108 9.53531 7.58077 9.52 7.86733C8.97968 7.89358 8.42406 7.9089 7.84 7.9089C7.26031 7.9089 6.72437 8.11233 6.31531 8.44265C5.90625 8.77077 5.6 9.24983 5.6 9.80765C5.6 10.4114 5.91281 10.9802 6.41593 11.2996C6.77031 11.5249 7.28218 11.5861 7.77875 11.6714C7.70218 12.7324 7.40906 13.4542 6.94968 13.9224C6.42468 14.4583 5.68968 14.7646 4.89343 14.9789C4.09718 15.1955 3.26375 15.3092 2.55281 15.5477C2.19625 15.6658 1.85937 15.8167 1.58156 16.0814C1.30375 16.3483 1.12 16.7552 1.12 17.1839C1.12 18.6736 2.03656 19.5158 2.695 20.3077C2.98593 20.6599 3.47375 21.4299 3.85875 22.0861C4.23062 22.7161 4.49312 23.1996 4.51937 23.2455C4.87593 24.8336 5.67 25.8005 6.46625 26.3233C7.27781 26.8571 8.03686 26.9489 8.39999 26.9489C9.09561 26.9489 9.72562 26.8067 10.3337 26.4917C10.9397 26.1767 11.5237 25.7042 12.2391 25.048C12.2456 25.0414 12.25 25.0371 12.2566 25.0305C13.4925 23.7946 13.8206 23.0683 14.0262 22.5149C14.2319 21.9636 14.3019 21.6377 15.3016 20.638C16.73 19.2096 17.4016 18.9952 18.2437 18.7327C19.0859 18.4702 20.125 18.1683 21.7372 16.7814C24.9266 14.0405 26.8778 11.0217 26.8778 7.9089C26.8778 5.13952 24.9506 3.51858 24.885 3.4639C24.5175 3.0964 24.0384 2.8689 23.52 2.8689ZM23.52 3.9889C23.7278 3.9889 23.9006 4.05452 24.0647 4.21858C24.08 4.23827 24.0975 4.25796 24.115 4.27327C24.1609 4.32796 24.2069 4.38265 24.2528 4.45265C24.4737 4.79827 24.64 5.3714 24.64 6.12608C24.64 6.5439 24.3534 7.39046 23.8941 8.22171C23.4325 9.05077 22.8178 9.89515 22.2622 10.4617C21.8094 10.9233 21.385 11.0086 20.8578 11.0786C20.3306 11.1486 19.6656 11.1399 19.1012 11.6364C18.5281 12.1396 18.4122 12.8374 18.2503 13.4061C18.0862 13.9771 17.9178 14.4124 17.5875 14.6464C16.5506 15.3771 14.7044 16.7639 13.2125 17.9408C12.6241 18.4046 11.7469 18.5424 10.7712 18.8399C9.79343 19.1374 8.70843 19.6908 8.07406 21.0317C7.53812 22.1671 6.85562 22.4624 6.26718 22.5564C5.77062 22.6374 5.50375 22.5411 5.39 22.5083C5.29593 22.3399 5.14062 22.0555 4.82562 21.5174C4.4275 20.8436 3.95718 20.0758 3.55687 19.5924C2.83062 18.7174 2.24 18.2317 2.24 17.1839C2.24 17.0199 2.26625 16.9783 2.35593 16.893C2.44562 16.8055 2.63375 16.7005 2.90718 16.6086C3.45625 16.4271 4.30281 16.3002 5.18656 16.0617C6.07031 15.8233 7.01531 15.458 7.75031 14.7077C8.48531 13.9574 8.96 12.833 8.96 11.2689C8.96 10.978 8.73905 10.7374 8.4503 10.7111C7.74155 10.6499 7.25812 10.5077 7.0175 10.3545C6.77468 10.2014 6.72 10.1073 6.72 9.80765C6.72 9.67202 6.80968 9.48171 7.0175 9.31546C7.22312 9.14702 7.52937 9.0289 7.84 9.0289C8.53781 9.0289 9.205 9.00921 9.84375 8.9764L10.1084 9.76608C10.2069 10.0592 10.5241 10.2189 10.8172 10.1205C11.1103 10.022 11.27 9.70483 11.1716 9.41171L10.9987 8.89327C11.3706 8.86046 11.7228 8.81671 12.075 8.77515L12.3156 9.49921C12.3747 9.6939 12.5344 9.84265 12.7334 9.88421C12.9347 9.92796 13.1403 9.85796 13.2759 9.70483C13.4094 9.54952 13.4487 9.33515 13.3787 9.14265L13.1994 8.6089C13.5472 8.54983 13.8841 8.4864 14.21 8.41858L14.455 9.1514C14.5141 9.34827 14.6737 9.49702 14.8728 9.53858C15.0741 9.58233 15.2797 9.51233 15.4153 9.35921C15.5487 9.2039 15.5881 8.98952 15.5159 8.79921L15.3059 8.16702C15.6822 8.07077 16.0366 7.97015 16.38 7.86515L16.5834 8.4689C16.6425 8.66577 16.8022 8.81452 17.0012 8.85608C17.2025 8.89983 17.4081 8.82983 17.5437 8.67671C17.6772 8.5214 17.7166 8.30702 17.6466 8.11671L17.4409 7.5064C17.815 7.36858 18.1716 7.22858 18.5041 7.08421L18.6791 7.60921C18.7753 7.90233 19.0925 8.06202 19.3878 7.96358C19.6809 7.86515 19.8384 7.54796 19.74 7.25483L19.5212 6.5964C19.6219 6.5439 19.7269 6.49358 19.8231 6.44108C21.0241 5.7914 21.8947 5.13733 22.5203 4.66265C22.8331 4.4264 23.0869 4.2339 23.2706 4.12015C23.4544 4.00421 23.5616 3.9889 23.52 3.9889ZM25.6484 6.9114C25.7162 7.21983 25.7578 7.55015 25.7578 7.9089C25.7578 10.5471 24.0581 13.3099 21.0087 15.9327C19.5037 17.2277 18.7841 17.3917 17.9112 17.663C17.0384 17.9342 16.0344 18.3214 14.5097 19.8461C13.4247 20.9311 13.1731 21.6005 12.9762 22.1233C12.7816 22.6439 12.6241 23.0771 11.4734 24.2277C10.7909 24.8555 10.2725 25.2602 9.8153 25.4986C9.35592 25.7371 8.9578 25.8289 8.39999 25.8289C8.26217 25.8289 7.66062 25.7699 7.07875 25.3871C6.62156 25.0852 6.1425 24.5886 5.81656 23.7049C6.00906 23.7092 6.22125 23.7005 6.44656 23.6633C7.32593 23.5211 8.41312 22.9371 9.08687 21.5086C9.5725 20.4805 10.2353 20.1742 11.095 19.9117C11.9569 19.6492 13.0112 19.5267 13.9059 18.8202C15.3825 17.6564 17.2287 16.2696 18.2328 15.5608C18.9241 15.073 19.1537 14.3183 19.3266 13.7124C19.4994 13.1086 19.6525 12.6427 19.8428 12.4764C20.0397 12.3014 20.4072 12.2664 21.0022 12.1877C21.5994 12.1111 22.3891 11.9317 23.0628 11.2449C23.7125 10.5821 24.3644 9.68077 24.8741 8.76421C25.2241 8.12983 25.5041 7.5064 25.6484 6.9114Z" fill="white"/>
</svg>
