<svg width="28" height="29" viewBox="0 0 28 29" fill="none" xmlns="http://www.w3.org/2000/svg">
<path d="M5 8.5H7M7 8.5H23M7 8.5V22.5C7 23.0304 7.21071 23.5391 7.58579 23.9142C7.96086 24.2893 8.46957 24.5 9 24.5H19C19.5304 24.5 20.0391 24.2893 20.4142 23.9142C20.7893 23.5391 21 23.0304 21 22.5V8.5H7ZM10 8.5V6.5C10 5.96957 10.2107 5.46086 10.5858 5.08579C10.9609 4.71071 11.4696 4.5 12 4.5H16C16.5304 4.5 17.0391 4.71071 17.4142 5.08579C17.7893 5.46086 18 5.96957 18 6.5V8.5M12 13.5V19.5M16 13.5V19.5" stroke="white" stroke-linecap="round" stroke-linejoin="round"/>
</svg>
