<svg width="29" height="30" viewBox="0 0 29 30" fill="none" xmlns="http://www.w3.org/2000/svg">
<path d="M18.1447 18.9068V5.90674H3.14465V18.9068H18.1447ZM18.1447 18.9068H25.1447V13.9068L22.1447 10.9068H18.1447V18.9068ZM10.1447 21.4068C10.1447 22.7875 9.02537 23.9068 7.64465 23.9068C6.26394 23.9068 5.14465 22.7875 5.14465 21.4068C5.14465 20.026 6.26394 18.9068 7.64465 18.9068C9.02537 18.9068 10.1447 20.026 10.1447 21.4068ZM23.1447 21.4068C23.1447 22.7875 22.0254 23.9068 20.6447 23.9068C19.2639 23.9068 18.1447 22.7875 18.1447 21.4068C18.1447 20.026 19.2639 18.9068 20.6447 18.9068C22.0254 18.9068 23.1447 20.026 23.1447 21.4068Z" stroke="white" stroke-linecap="round" stroke-linejoin="round"/>
</svg>
