<svg width="29" height="30" viewBox="0 0 29 30" fill="none" xmlns="http://www.w3.org/2000/svg">
<path d="M19.8882 23.7139V21.7139C19.8882 20.653 19.4668 19.6356 18.7166 18.8854C17.9665 18.1353 16.949 17.7139 15.8882 17.7139H7.88818C6.82732 17.7139 5.8099 18.1353 5.05976 18.8854C4.30961 19.6356 3.88818 20.653 3.88818 21.7139V23.7139M25.8882 23.7139V21.7139C25.8875 20.8276 25.5925 19.9666 25.0495 19.2662C24.5066 18.5657 23.7463 18.0654 22.8882 17.8439M18.8882 5.84387C19.7486 6.06417 20.5112 6.56457 21.0558 7.26618C21.6004 7.96779 21.896 8.8307 21.896 9.71887C21.896 10.607 21.6004 11.4699 21.0558 12.1716C20.5112 12.8732 19.7486 13.3736 18.8882 13.5939M15.8882 9.71387C15.8882 11.923 14.0973 13.7139 11.8882 13.7139C9.67904 13.7139 7.88818 11.923 7.88818 9.71387C7.88818 7.50473 9.67904 5.71387 11.8882 5.71387C14.0973 5.71387 15.8882 7.50473 15.8882 9.71387Z" stroke="white" stroke-linecap="round" stroke-linejoin="round"/>
</svg>
