<svg width="29" height="30" viewBox="0 0 29 30" fill="none" xmlns="http://www.w3.org/2000/svg">
<path d="M18.8882 23.7139V21.7139C18.8882 20.653 18.4668 19.6356 17.7166 18.8854C16.9665 18.1353 15.949 17.7139 14.8882 17.7139H7.88818C6.82732 17.7139 5.8099 18.1353 5.05976 18.8854C4.30961 19.6356 3.88818 20.653 3.88818 21.7139V23.7139M20.8882 10.7139L25.8882 15.7139M25.8882 10.7139L20.8882 15.7139M15.3882 9.71387C15.3882 11.923 13.5973 13.7139 11.3882 13.7139C9.17904 13.7139 7.38818 11.923 7.38818 9.71387C7.38818 7.50473 9.17904 5.71387 11.3882 5.71387C13.5973 5.71387 15.3882 7.50473 15.3882 9.71387Z" stroke="white" stroke-linecap="round" stroke-linejoin="round"/>
</svg>
