<svg width="28" height="30" viewBox="0 0 28 30" fill="none" xmlns="http://www.w3.org/2000/svg">
<path d="M8.49405 2.8689L10.29 18.5052C10.36 19.1111 9.99468 19.6799 9.38874 19.8767L4.38374 21.5086C3.11062 21.9264 2.23999 23.1033 2.23999 24.4311V24.9911H2.35812C2.63593 26.4152 3.86312 27.5089 5.37249 27.5089H19.8712C21.5316 27.5089 22.96 26.1592 22.96 24.4727V4.21202L22.5159 4.12015C22.5159 4.12015 16.6162 2.8689 11.6528 2.8689H8.49405ZM9.74968 3.9889H11.6528C16.1262 3.9889 21.175 5.00171 21.84 5.13733V24.4727C21.84 25.5183 20.9212 26.3889 19.8712 26.3889H5.37249C4.26124 26.3889 3.35999 25.5096 3.35999 24.4311C3.35999 23.5911 3.90468 22.8452 4.73155 22.5739L9.73655 20.9421C10.8303 20.5855 11.5325 19.5114 11.4034 18.3761L9.74968 3.9889Z" fill="white"/>
</svg>
