<svg width="28" height="30" viewBox="0 0 28 30" fill="none" xmlns="http://www.w3.org/2000/svg">
<path d="M13.9999 2.30884C12.1428 2.30884 10.4649 2.90384 10.4649 2.90384C10.4103 2.91259 10.3578 2.93009 10.3074 2.95634L6.56245 4.00634C6.40932 4.05009 6.28026 4.15728 6.21026 4.29946C6.14026 4.44384 6.1337 4.61009 6.19495 4.75884C6.19495 4.75884 7.45057 8.22165 6.77245 10.5513C6.2212 12.4457 4.12995 14.1913 4.12995 14.1913C3.99651 14.2985 3.91995 14.4582 3.91995 14.6288V25.2688C3.91776 25.4985 4.05557 25.7085 4.26995 25.7938L9.86995 28.0338C9.98807 28.082 10.1171 28.0863 10.2374 28.0513L13.1424 27.2288C13.2168 27.2201 13.2868 27.196 13.3524 27.1588L17.8149 28.0513C17.9199 28.0754 18.0293 28.0688 18.1299 28.0338L23.7299 25.7938C23.9443 25.7085 24.0821 25.4985 24.0799 25.2688V14.6288C24.0799 14.4582 24.0034 14.2985 23.8699 14.1913C23.8699 14.1913 21.7787 12.4457 21.2274 10.5513C20.5493 8.22165 21.8049 4.75884 21.8049 4.75884C21.8662 4.61009 21.8596 4.44384 21.7896 4.29946C21.7196 4.15728 21.5906 4.05009 21.4374 4.00634L17.6749 2.93884L17.6224 2.92134C17.6049 2.91478 17.5874 2.90821 17.5699 2.90384H17.5349C17.5349 2.90384 17.4299 2.88634 17.3774 2.86884C17.0209 2.7529 15.6165 2.30884 13.9999 2.30884ZM13.9999 3.42884C15.004 3.42884 15.9534 3.62571 16.5549 3.77884L13.9124 9.71134L11.4274 3.77884C12.029 3.62571 12.9849 3.42884 13.9999 3.42884ZM10.3424 4.11134L13.2824 11.1113L11.8124 14.4013C11.7796 14.4735 11.7621 14.5501 11.7599 14.6288V26.3888C11.7578 26.4129 11.7578 26.4348 11.7599 26.4588L10.1149 26.9138L5.03995 24.8838V14.8738C5.36807 14.6092 7.21213 13.0823 7.85745 10.8663C8.59245 8.33759 7.70651 5.71478 7.41995 4.93384L10.3424 4.11134ZM17.6574 4.11134L20.5799 4.93384C20.2934 5.71478 19.4074 8.33759 20.1424 10.8663C20.7878 13.0823 22.6318 14.6092 22.9599 14.8738V24.8838L17.8499 26.9313L12.8799 25.9338V14.7338L17.6574 4.11134ZM15.1199 15.1888C14.8115 15.1888 14.5599 15.4404 14.5599 15.7488C14.5599 16.0573 14.8115 16.3088 15.1199 16.3088C15.4284 16.3088 15.6799 16.0573 15.6799 15.7488C15.6799 15.4404 15.4284 15.1888 15.1199 15.1888ZM15.1199 17.9888C14.8115 17.9888 14.5599 18.2404 14.5599 18.5488C14.5599 18.8573 14.8115 19.1088 15.1199 19.1088C15.4284 19.1088 15.6799 18.8573 15.6799 18.5488C15.6799 18.2404 15.4284 17.9888 15.1199 17.9888ZM6.00245 20.7888C5.69401 20.8326 5.47745 21.1192 5.5212 21.4276C5.56495 21.736 5.85151 21.9526 6.15995 21.9088H9.51995C9.7212 21.911 9.90932 21.806 10.0121 21.631C10.1128 21.456 10.1128 21.2417 10.0121 21.0667C9.90932 20.8917 9.7212 20.7867 9.51995 20.7888H6.15995C6.14245 20.7888 6.12495 20.7888 6.10745 20.7888C6.08995 20.7888 6.07245 20.7888 6.05495 20.7888C6.03745 20.7888 6.01995 20.7888 6.00245 20.7888ZM15.1199 20.7888C14.8115 20.7888 14.5599 21.0404 14.5599 21.3488C14.5599 21.6573 14.8115 21.9088 15.1199 21.9088C15.4284 21.9088 15.6799 21.6573 15.6799 21.3488C15.6799 21.0404 15.4284 20.7888 15.1199 20.7888ZM17.7624 20.7888C17.454 20.8326 17.2374 21.1192 17.2812 21.4276C17.3249 21.736 17.6115 21.9526 17.9199 21.9088H21.2799C21.4812 21.911 21.6693 21.806 21.7721 21.631C21.8728 21.456 21.8728 21.2417 21.7721 21.0667C21.6693 20.8917 21.4812 20.7867 21.2799 20.7888H17.9199C17.9024 20.7888 17.8849 20.7888 17.8674 20.7888C17.8499 20.7888 17.8324 20.7888 17.8149 20.7888C17.7974 20.7888 17.7799 20.7888 17.7624 20.7888ZM15.1199 23.5888C14.8115 23.5888 14.5599 23.8404 14.5599 24.1488C14.5599 24.4573 14.8115 24.7088 15.1199 24.7088C15.4284 24.7088 15.6799 24.4573 15.6799 24.1488C15.6799 23.8404 15.4284 23.5888 15.1199 23.5888Z" fill="white"/>
</svg>
