<svg width="28" height="30" viewBox="0 0 28 30" fill="none" xmlns="http://www.w3.org/2000/svg">
<path d="M8.31248 2.3089C8.06748 2.3439 7.87498 2.5364 7.83998 2.7814L7.27998 6.7014C7.27123 6.77797 7.27561 6.85453 7.29748 6.9289C4.89342 8.88015 3.35999 11.8552 3.35999 15.1889C3.35999 18.5139 4.88686 21.4802 7.27998 23.4314C7.26248 23.5124 7.26248 23.5955 7.27998 23.6764L7.83998 27.5964C7.88811 27.9049 8.17905 28.1171 8.48748 28.0689C8.79592 28.0208 9.00811 27.7299 8.95998 27.4214L8.50498 24.2889C10.1106 25.2602 11.9897 25.8289 14 25.8289C16.0103 25.8289 17.8894 25.2602 19.495 24.2889L19.04 27.4214C18.9919 27.7299 19.204 28.0208 19.5125 28.0689C19.8209 28.1171 20.1119 27.9049 20.16 27.5964L20.72 23.6764C20.7375 23.5955 20.7375 23.5124 20.72 23.4314C22.6997 21.8171 24.08 19.5005 24.5 16.8689H25.2C25.5084 16.8689 25.76 16.6174 25.76 16.3089V14.0689C25.76 13.7605 25.5084 13.5089 25.2 13.5089H24.5C24.0778 10.8686 22.6931 8.54328 20.7025 6.9289C20.7244 6.85453 20.7287 6.77797 20.72 6.7014L20.16 2.7814C20.1381 2.63265 20.0572 2.49703 19.9369 2.40953C19.8144 2.31984 19.6612 2.28484 19.5125 2.3089C19.3637 2.33078 19.2281 2.41172 19.1406 2.53203C19.0509 2.65453 19.0159 2.80765 19.04 2.9564L19.495 6.0889C17.8894 5.11765 16.0103 4.5489 14 4.5489C11.9897 4.5489 10.1106 5.11765 8.50498 6.0889L8.95998 2.9564C8.99061 2.77703 8.93373 2.59328 8.80467 2.46422C8.67561 2.33515 8.49186 2.27828 8.31248 2.3089ZM14 5.6689C19.2653 5.6689 23.52 9.92359 23.52 15.1889C23.52 20.4543 19.2653 24.7089 14 24.7089C8.73467 24.7089 4.47999 20.4543 4.47999 15.1889C4.47999 9.92359 8.73467 5.6689 14 5.6689ZM14 6.7889C9.36686 6.7889 5.59999 10.5558 5.59999 15.1889C5.59999 19.8221 9.36686 23.5889 14 23.5889C18.6331 23.5889 22.4 19.8221 22.4 15.1889C22.4 10.5558 18.6331 6.7889 14 6.7889ZM13.44 7.9264C13.4487 8.22828 13.6959 8.4689 14 8.4689C14.304 8.4689 14.5512 8.22828 14.56 7.9264C18.1431 8.19547 20.9934 11.0458 21.2625 14.6289C20.9606 14.6377 20.72 14.8849 20.72 15.1889C20.72 15.493 20.9606 15.7402 21.2625 15.7489C20.9934 19.3321 18.1431 22.1824 14.56 22.4514C14.5512 22.1496 14.304 21.9089 14 21.9089C13.6959 21.9089 13.4487 22.1496 13.44 22.4514C9.85685 22.1824 7.00655 19.3321 6.73749 15.7489C7.03936 15.7402 7.27998 15.493 7.27998 15.1889C7.27998 14.8849 7.03936 14.6377 6.73749 14.6289C7.00655 11.0458 9.85685 8.19547 13.44 7.9264ZM17.57 10.9889C17.4453 11.0021 17.3272 11.0589 17.2375 11.1464L14.28 14.1039C14.1903 14.0799 14.0962 14.0689 14 14.0689C13.3809 14.0689 12.88 14.5699 12.88 15.1889C12.88 15.808 13.3809 16.3089 14 16.3089C14.0962 16.3089 14.1903 16.298 14.28 16.2739L15.8375 17.8314C16.0606 18.0546 16.4194 18.0546 16.6425 17.8314C16.8656 17.6083 16.8656 17.2496 16.6425 17.0264L15.085 15.4689C15.109 15.3793 15.12 15.2852 15.12 15.1889C15.12 15.0927 15.109 14.9986 15.085 14.9089L18.0425 11.9514C18.224 11.783 18.2722 11.5161 18.1628 11.2952C18.0556 11.0721 17.8128 10.9496 17.57 10.9889Z" fill="white"/>
</svg>
