<svg width="28" height="30" viewBox="0 0 28 30" fill="none" xmlns="http://www.w3.org/2000/svg">
<g clip-path="url(#clip0_2511_2119)">
<mask id="mask0_2511_2119" style="mask-type:luminance" maskUnits="userSpaceOnUse" x="0" y="1" width="28" height="29">
<path d="M28 1.18896H0V29.189H28V1.18896Z" fill="white"/>
</mask>
<g mask="url(#mask0_2511_2119)">
<path d="M10.0275 1.17148C10.0034 1.17585 9.97937 1.18241 9.9575 1.18898C9.69718 1.24804 9.51343 1.4821 9.52 1.74897V4.84647C8.51156 5.23803 7.9625 5.87897 7.9625 5.87897L7.84 6.03647V6.22897C7.84 7.56116 8.64937 8.66366 9.3975 9.44897C9.86125 9.93678 10.0384 10.0221 10.325 10.2365C9.66437 10.7308 8.00187 12.028 6.02 14.2789C3.59406 17.033 1.12 20.8589 1.12 25.1639V25.3389L1.225 25.4789C1.225 25.4789 1.34531 25.6496 1.5575 25.8289C1.76968 26.0083 2.09125 26.2249 2.555 26.4414C3.45406 26.8614 4.9175 27.2399 7.105 27.2639C7.23187 27.3711 7.66281 27.7496 8.6975 28.2089C9.87 28.7274 11.6244 29.2414 14 29.2414C16.3756 29.2414 18.13 28.7274 19.3025 28.2089C20.3372 27.7496 20.7681 27.3711 20.895 27.2639C23.0825 27.2399 24.5459 26.8614 25.445 26.4414C25.9087 26.2249 26.2303 26.0083 26.4425 25.8289C26.6547 25.6496 26.775 25.4789 26.775 25.4789L26.88 25.3389V25.1639C26.88 20.8589 24.4059 17.0374 21.98 14.2964C19.9959 12.0565 18.3356 10.779 17.675 10.289C17.9616 10.0746 18.1387 9.98928 18.6025 9.50147C19.3506 8.71616 20.16 7.61366 20.16 6.28147V6.10647L20.055 5.94897C20.055 5.94897 19.5103 5.29491 18.48 4.89897V1.74897C18.4844 1.57616 18.4078 1.4121 18.2744 1.30273C18.1431 1.19335 17.9659 1.15179 17.7975 1.18898C17.5372 1.24804 17.3534 1.4821 17.36 1.74897V4.61897C17.2156 4.60585 17.0603 4.60147 16.905 4.60147C15.3147 4.60147 14.4462 5.33647 14 5.77397C13.5559 5.32553 12.6744 4.54897 11.095 4.54897C10.9375 4.54897 10.7866 4.56866 10.64 4.58397V1.74897C10.6466 1.5871 10.5809 1.43179 10.465 1.32241C10.3469 1.21085 10.1872 1.15616 10.0275 1.17148ZM11.095 5.66897C12.5956 5.66897 13.5625 6.85897 13.5625 6.85897L14 7.40147L14.4375 6.85897C14.4375 6.85897 15.3278 5.72147 16.905 5.72147C18.2722 5.72147 18.8147 6.27491 18.9875 6.47397C18.9087 7.27022 18.4012 8.0971 17.7975 8.73147C17.1456 9.41616 16.485 9.85147 16.485 9.85147L15.8025 10.3065L16.485 10.779C16.485 10.779 18.8059 12.413 21.14 15.0489C23.4303 17.6346 25.6419 21.1652 25.725 24.9539C25.7119 24.9649 25.7228 24.9583 25.7075 24.9714C25.5697 25.0874 25.3312 25.2514 24.955 25.4264C24.2681 25.748 23.1087 26.0849 21.2625 26.1439C21.0897 22.0052 18.97 18.2689 18.97 18.2689C18.8519 18.0502 18.6003 17.9364 18.3575 17.9889C18.1781 18.0261 18.0294 18.1464 17.955 18.3127C17.8828 18.4811 17.8959 18.6736 17.99 18.8289C17.99 18.8289 20.0856 22.5893 20.16 26.4589C19.9828 26.5989 19.6219 26.8505 18.8475 27.1939C17.8062 27.6555 16.2159 28.1214 14 28.1214C11.7841 28.1214 10.1937 27.6555 9.1525 27.1939C8.37812 26.8505 8.01718 26.5989 7.84 26.4589C7.91437 22.5893 10.01 18.8289 10.01 18.8289C10.1259 18.6386 10.1194 18.3958 9.9903 18.2121C9.85905 18.0305 9.63375 17.943 9.415 17.9889C9.25093 18.0196 9.11092 18.1224 9.02999 18.2689C9.02999 18.2689 6.91031 22.0052 6.7375 26.1439C4.89125 26.0849 3.73187 25.748 3.045 25.4264C2.66875 25.2514 2.43031 25.0874 2.2925 24.9714C2.27718 24.9583 2.28812 24.9649 2.275 24.9539C2.35812 21.163 4.56968 17.6149 6.86 15.0139C9.19406 12.3649 11.515 10.7265 11.515 10.7265L12.1975 10.254L11.515 9.79897C11.515 9.79897 10.8544 9.36366 10.2025 8.67897C9.59875 8.0446 9.09125 7.21772 9.0125 6.42147C9.15906 6.26397 9.53312 5.91835 10.255 5.75647C10.2725 5.7521 10.29 5.74553 10.3075 5.73897C10.5372 5.69085 10.7931 5.66897 11.095 5.66897Z" fill="white"/>
</g>
</g>
<defs>
<clipPath id="clip0_2511_2119">
<rect width="28" height="29" fill="white" transform="translate(0 0.5)"/>
</clipPath>
</defs>
</svg>
