<svg width="29" height="30" viewBox="0 0 29 30" fill="none" xmlns="http://www.w3.org/2000/svg">
<path d="M24.3586 14.8904C24.443 15.1015 24.3164 15.2703 24.1053 15.2703H4.6908C4.43757 15.2703 4.35317 15.1015 4.39537 14.8904L6.80108 8.3486C6.88549 8.13757 7.13873 7.96875 7.34976 7.96875H21.1509C21.362 7.96875 21.6574 8.13757 21.7418 8.3486L24.3586 14.8904Z" stroke="white" stroke-miterlimit="10" stroke-linecap="round" stroke-linejoin="round"/>
<path d="M16.8039 11.3874C16.9727 12.5691 15.8754 13.5821 14.356 13.5821C12.8366 13.5821 11.7392 12.5269 11.8236 11.3874C11.9503 10.3322 13.0476 9.57251 14.2716 9.57251C15.5377 9.57251 16.6773 10.3744 16.8039 11.3874Z" stroke="white" stroke-miterlimit="10" stroke-linecap="round" stroke-linejoin="round"/>
<path d="M9.59182 11.5505C9.65327 11.9806 9.25384 12.3493 8.70077 12.3493C8.14771 12.3493 7.74828 11.9653 7.779 11.5505C7.82509 11.1664 8.22452 10.8899 8.67005 10.8899C9.13093 10.8899 9.54573 11.1818 9.59182 11.5505Z" stroke="white" stroke-miterlimit="10" stroke-linecap="round" stroke-linejoin="round"/>
<path d="M20.8565 11.5505C20.9179 11.9806 20.5185 12.3493 19.9654 12.3493C19.4124 12.3493 19.0129 11.9653 19.0437 11.5505C19.0897 11.1664 19.4892 10.8899 19.9347 10.8899C20.3956 10.8899 20.8104 11.1818 20.8565 11.5505Z" stroke="white" stroke-miterlimit="10" stroke-linecap="round" stroke-linejoin="round"/>
<path d="M4.94385 17.5071H23.8097" stroke="white" stroke-miterlimit="10" stroke-linecap="round" stroke-linejoin="round"/>
<path d="M4.94385 19.7439H23.8097" stroke="white" stroke-miterlimit="10" stroke-linecap="round" stroke-linejoin="round"/>
<path d="M4.94385 22.0232H23.8097" stroke="white" stroke-miterlimit="10" stroke-linecap="round" stroke-linejoin="round"/>
</svg>
