<svg width="28" height="30" viewBox="0 0 28 30" fill="none" xmlns="http://www.w3.org/2000/svg">
<mask id="mask0_2511_2135" style="mask-type:luminance" maskUnits="userSpaceOnUse" x="0" y="1" width="28" height="29">
<path d="M28 1.18896H0V29.189H28V1.18896Z" fill="white"/>
</mask>
<g mask="url(#mask0_2511_2135)">
<path d="M1.6625 1.74902C1.42406 1.79277 1.2425 1.98308 1.2075 2.22152C1.2075 2.22152 0.864063 4.25808 0.9625 6.49152C0.730625 8.58715 0 14.9265 0 20.649C0 22.4297 0.172813 23.6328 0.2975 24.289C0.146563 24.3984 0.0240625 24.639 0.0175 24.779C0.013125 24.8709 0.0240625 24.9081 0.035 24.954V25.059L0.1925 27.7365V27.754C0.1925 27.7694 0.181563 27.9662 0.315 28.174C0.455 28.3906 0.7875 28.5765 1.12 28.5765C1.31031 28.5765 2.31 28.6115 2.31 28.6115C2.33844 28.6137 2.36906 28.6137 2.3975 28.6115C2.3975 28.6115 2.50688 28.5984 2.6425 28.5415C2.71031 28.5131 2.80875 28.4781 2.905 28.384C2.9925 28.2965 3.06688 28.1237 3.08 27.9465C3.08 28.0122 3.06031 28.0034 3.0975 28.1215C3.14125 28.2572 3.25719 28.4322 3.4125 28.524C3.56781 28.6159 3.7275 28.629 3.8675 28.629H6.3875C6.42906 28.6269 6.47063 28.6225 6.51 28.6115C6.51 28.6115 6.63906 28.5897 6.79 28.5065C6.94094 28.4234 7.21 28.1937 7.21 27.824C7.21 27.6709 7.21 27.345 7.21 27.2115C7.24063 27.2115 7.25156 27.2115 7.28 27.2115C7.29531 27.4172 7.315 27.6665 7.315 27.6665C7.31938 27.7212 7.33031 27.7737 7.35 27.824C7.35 27.824 7.41781 27.975 7.525 28.0865C7.63219 28.1981 7.80281 28.3206 8.015 28.3665C8.32781 28.4344 8.64938 28.4278 9.0125 28.4365C9.37563 28.4453 9.695 28.4365 9.695 28.4365C9.7125 28.4365 9.73 28.4365 9.7475 28.4365C9.7475 28.4365 9.86781 28.4212 10.01 28.384C10.0822 28.3644 10.1588 28.349 10.2725 28.279C10.3863 28.209 10.5875 28.0297 10.5875 27.7365C10.5875 27.9028 10.5875 27.7934 10.605 27.7365C10.6225 27.6797 10.6466 27.5987 10.675 27.509C10.6859 27.4762 10.6991 27.4369 10.71 27.404C11.0688 27.4019 11.3553 27.3887 11.48 27.3865C11.48 27.4784 11.48 27.614 11.48 27.614C11.4778 27.6862 11.4909 27.7562 11.515 27.824C11.515 27.824 11.5828 27.975 11.69 28.0865C11.7972 28.1981 11.9678 28.3206 12.18 28.3665C12.4556 28.4278 12.7466 28.4278 13.0375 28.4365C13.3284 28.4453 13.58 28.4365 13.58 28.4365C13.5909 28.4365 13.6041 28.4365 13.615 28.4365C13.615 28.4365 13.7353 28.4212 13.8775 28.384C13.9497 28.3644 14.0263 28.349 14.14 28.279C14.2538 28.209 14.455 28.0275 14.455 27.7365C14.455 27.7912 14.4791 27.6469 14.49 27.544C14.5403 27.544 14.5709 27.5462 14.6125 27.544C14.6147 27.555 14.6103 27.5681 14.6125 27.579C14.6366 27.7125 14.6475 27.8415 14.6475 27.8415H14.6825C14.6869 27.9159 14.6781 28.0034 14.77 28.1565C14.8991 28.3687 15.2381 28.5634 15.5575 28.5415C15.4788 28.5459 15.6363 28.5372 15.7675 28.5415C15.8988 28.5459 16.0584 28.5503 16.2225 28.559C16.5484 28.5744 16.87 28.594 16.87 28.594C16.8984 28.5962 16.9291 28.5962 16.9575 28.594C16.9575 28.594 17.1478 28.5678 17.3075 28.454C17.4672 28.3403 17.6203 28.1062 17.64 27.859C17.6488 27.7584 17.64 27.7256 17.64 27.6315C17.8194 27.6294 17.9616 27.6162 18.1825 27.614C18.3684 27.6119 18.55 27.614 18.69 27.614C18.7338 27.614 18.7206 27.6119 18.76 27.614L18.7775 27.9465C18.7863 28.069 18.8344 28.1872 18.9175 28.279C18.9175 28.279 19.0422 28.5022 19.425 28.594C19.5934 28.6356 19.5934 28.6115 19.6525 28.6115C19.7116 28.6115 19.775 28.6159 19.845 28.6115C19.985 28.6028 20.1403 28.5919 20.3 28.5765C20.6216 28.5481 20.93 28.5065 20.93 28.5065C21.1028 28.489 21.2581 28.3928 21.35 28.244C21.35 28.244 21.4178 28.1434 21.4725 28.034C21.4988 27.9794 21.5163 27.9181 21.5425 27.8415C21.5556 27.8022 21.5666 27.7694 21.5775 27.7015C21.5775 27.695 21.5753 27.6731 21.5775 27.6665C21.5775 27.6644 21.5775 27.6534 21.5775 27.649C21.5928 27.6053 21.6322 27.5134 21.665 27.439C21.6891 27.3844 21.6956 27.38 21.7175 27.334C21.9297 27.2881 22.1353 27.2487 22.295 27.2115C22.3147 27.24 22.3278 27.2684 22.3475 27.299C22.4131 27.3997 22.4503 27.4609 22.47 27.4915C22.4766 27.5112 22.4788 27.5047 22.4875 27.5265C22.5269 27.614 22.6013 27.7387 22.75 27.824C22.8988 27.9094 23.0869 27.9269 23.2225 27.894C23.1941 27.9006 23.3166 27.8787 23.4325 27.859C23.5484 27.8394 23.6928 27.8131 23.835 27.789C24.1172 27.7409 24.3775 27.684 24.3775 27.684C24.5219 27.6644 24.6553 27.59 24.745 27.474L24.92 27.2465C24.9834 27.159 25.0184 27.0562 25.025 26.949L25.095 26.4065C25.1606 26.3825 25.2197 26.3628 25.2875 26.3365C25.3772 26.3015 25.3947 26.295 25.4625 26.2665L25.62 26.5115C25.6747 26.6012 25.7534 26.6734 25.8475 26.7215C25.8475 26.7215 25.9263 26.7653 26.0225 26.7915C26.1188 26.8178 26.2566 26.8484 26.4775 26.774V26.7915C26.6197 26.7456 26.6175 26.7172 26.7225 26.669C26.8275 26.6209 26.9631 26.5684 27.09 26.5115C27.3416 26.3956 27.58 26.284 27.58 26.284C27.7047 26.2272 27.8031 26.1287 27.86 26.004C27.86 26.004 27.8928 25.9187 27.93 25.8115C27.9475 25.7569 27.9672 25.6978 27.9825 25.619C27.9978 25.5403 28.035 25.4615 27.965 25.2515C27.965 25.245 27.965 25.2406 27.965 25.234C27.9563 25.1925 27.9431 25.1137 27.93 25.0415C27.9059 24.8972 27.8731 24.72 27.8425 24.534C27.7834 24.1622 27.7375 23.799 27.7375 23.799C27.7134 23.6197 27.6019 23.4622 27.44 23.379C27.44 23.379 27.4072 23.3812 27.405 23.379C27.5559 22.5697 27.65 21.1784 26.7575 19.949C25.6178 18.3784 24.1172 17.8775 23.065 17.7615C21.7284 17.615 19.6919 17.0156 17.9725 15.9765C16.2531 14.9375 14.8794 13.4937 14.6125 11.689C14.2297 9.09902 14.5775 8.32902 14.5775 7.45402C14.5775 7.43433 14.5797 7.41902 14.5775 7.40152C14.6234 7.20465 15.1528 4.76996 14.5425 2.78152C14.4834 2.58683 14.3216 2.43808 14.1225 2.39652C12.3353 2.0684 9.27719 1.91746 6.6325 1.83652C3.98781 1.75558 1.7675 1.74902 1.7675 1.74902C1.75 1.74902 1.7325 1.74902 1.715 1.74902C1.6975 1.74902 1.68 1.74902 1.6625 1.74902ZM2.2575 2.88652C2.6425 2.88871 4.23719 2.88433 6.5975 2.95652C9.08469 3.03308 11.8541 3.19496 13.5275 3.46402C13.7616 4.56433 13.6259 5.91621 13.5275 6.66652C13.16 6.59871 12.6897 6.5484 12.1275 6.49152C10.9397 6.36902 9.37125 6.26183 7.805 6.17652C5.10563 6.02777 2.77813 5.9534 2.0825 5.93152C2.05844 4.50746 2.18531 3.38746 2.2575 2.88652ZM2.03 7.05152C2.49156 7.06683 4.8825 7.13902 7.735 7.29652C9.2925 7.38183 10.8522 7.4934 12.005 7.61152C12.5825 7.67058 13.0616 7.72527 13.37 7.78652C13.3984 7.7909 13.3984 7.79746 13.4225 7.80402C13.3591 8.39683 13.16 9.4709 13.51 11.8465C13.8447 14.1084 15.5094 15.7819 17.395 16.9215C19.2806 18.0612 21.4047 18.7131 22.9425 18.8815C23.7738 18.9734 24.9091 19.3212 25.8475 20.614C26.6109 21.6662 26.3703 22.97 26.25 23.449C25.3334 23.845 23.3822 24.6303 20.475 24.9365C17.3688 25.2669 15.3059 25.0415 8.5575 24.2365C7.595 24.1228 5.98063 24.09 4.445 24.0965C3.11063 24.1009 2.05188 24.1381 1.4175 24.149C1.30375 23.5978 1.12 22.4559 1.12 20.649C1.12 15.2284 1.77188 9.37246 2.03 7.05152ZM11.3925 9.99152C11.0206 9.99152 10.7275 10.2868 10.7275 10.6565C10.7275 11.0262 11.0206 11.3215 11.3925 11.3215C11.7644 11.3215 12.075 11.0262 12.075 10.6565C12.075 10.2868 11.7644 9.99152 11.3925 9.99152ZM11.9525 13.089C11.5806 13.089 11.27 13.3844 11.27 13.754C11.27 14.1237 11.5806 14.419 11.9525 14.419C12.3244 14.419 12.6175 14.1237 12.6175 13.754C12.6175 13.3844 12.3244 13.089 11.9525 13.089ZM13.4925 15.5915C13.1206 15.5915 12.81 15.8869 12.81 16.2565C12.81 16.6262 13.1206 16.9215 13.4925 16.9215C13.8644 16.9215 14.175 16.6262 14.175 16.2565C14.175 15.8869 13.8644 15.5915 13.4925 15.5915ZM15.6975 17.4815C15.3256 17.4815 15.015 17.7769 15.015 18.1465C15.015 18.5162 15.3256 18.829 15.6975 18.829C16.0694 18.829 16.3625 18.5162 16.3625 18.1465C16.3625 17.7769 16.0694 17.4815 15.6975 17.4815ZM18.7075 18.689C18.3356 18.689 18.025 18.9844 18.025 19.354C18.025 19.7237 18.3356 20.019 18.7075 20.019C19.0794 20.019 19.39 19.7237 19.39 19.354C19.39 18.9844 19.0794 18.689 18.7075 18.689ZM26.705 24.464C26.7225 24.5734 26.7203 24.5844 26.74 24.709C26.7706 24.8972 26.8013 25.0831 26.8275 25.234C26.8384 25.2975 26.8538 25.3434 26.8625 25.3915C26.7728 25.4331 26.74 25.4397 26.6175 25.4965C26.5322 25.5359 26.4513 25.5665 26.3725 25.6015L26.2325 25.3915C26.1406 25.2428 25.9853 25.1465 25.8125 25.129L25.515 25.094C25.4253 25.0897 25.3334 25.1072 25.2525 25.1465C25.2525 25.1465 25.0688 25.2144 24.885 25.2865C24.7931 25.3215 24.7078 25.35 24.64 25.374C24.605 25.385 24.5634 25.4047 24.5525 25.409C24.4213 25.4375 24.3009 25.5075 24.2375 25.5665C24.1566 25.6431 24.1238 25.7065 24.0975 25.759C24.045 25.864 24.0253 25.9209 24.01 25.9865C23.9794 26.1156 23.975 26.2315 23.975 26.2315L23.94 26.634C23.835 26.6515 23.7934 26.6603 23.6425 26.6865C23.5309 26.7062 23.4303 26.7215 23.3275 26.739C23.31 26.7128 23.31 26.715 23.2925 26.6865C23.2509 26.6209 23.1941 26.5531 23.1525 26.494C23.1109 26.435 23.1263 26.4153 23.0125 26.3015C22.8178 26.1134 22.7128 26.1156 22.6275 26.0915C22.5422 26.0675 22.47 26.0565 22.47 26.0565C22.3956 26.0412 22.3169 26.0412 22.2425 26.0565C22.2425 26.0565 21.4419 26.2512 21.3675 26.2665C21.2297 26.2928 21.1006 26.3365 21 26.4065C20.9497 26.4415 20.9125 26.4875 20.8775 26.529C20.8425 26.5706 20.79 26.6515 20.79 26.6515C20.79 26.6515 20.7091 26.8265 20.6325 27.0015C20.5953 27.089 20.5603 27.1744 20.5275 27.264C20.5122 27.3078 20.5056 27.345 20.4925 27.404C20.4903 27.4128 20.4947 27.4303 20.4925 27.439C20.3831 27.45 20.3569 27.4434 20.2125 27.4565C20.0878 27.4675 19.9697 27.485 19.8625 27.4915L19.8275 27.159C19.8166 27.019 19.7553 26.8878 19.6525 26.7915C19.6525 26.7915 19.46 26.5597 19.04 26.5115C18.9022 26.4962 18.8388 26.494 18.69 26.494C18.5413 26.494 18.3706 26.4919 18.1825 26.494C17.8084 26.4984 17.4059 26.5115 17.2725 26.5115C17.0778 26.5115 16.9006 26.6078 16.8 26.704C16.6994 26.8003 16.6425 26.8922 16.6075 26.9665C16.5397 27.1131 16.52 27.229 16.52 27.229C16.5156 27.2706 16.5156 27.31 16.52 27.3515C16.52 27.3515 16.52 27.4237 16.52 27.4565C16.415 27.4522 16.3997 27.4456 16.275 27.439C16.1088 27.4303 15.9403 27.4259 15.8025 27.4215C15.7631 27.4194 15.7434 27.4237 15.715 27.4215C15.7128 27.404 15.7172 27.404 15.715 27.3865C15.6931 27.2684 15.68 27.0759 15.68 27.159C15.68 26.9425 15.5597 26.774 15.47 26.6865C15.3803 26.599 15.3059 26.5597 15.2425 26.529C15.1156 26.4656 15.015 26.4415 15.015 26.4415C14.9472 26.4219 14.875 26.4175 14.805 26.424C14.805 26.424 14.5513 26.4459 14.3325 26.424C14.0984 26.4 13.8359 26.4394 13.6325 26.634C13.4881 26.7719 13.5034 26.9053 13.4925 27.019L13.44 27.0015C13.44 27.0015 13.4116 27.1328 13.3875 27.2815C13.3853 27.2925 13.3897 27.3056 13.3875 27.3165C13.2934 27.3165 13.2409 27.3209 13.0725 27.3165C12.8669 27.31 12.7006 27.2925 12.5825 27.2815C12.5825 27.1656 12.5934 27.1262 12.5825 27.0015C12.5563 26.6909 12.3003 26.4175 12.11 26.3365C11.9197 26.2556 11.76 26.2665 11.76 26.2665C11.76 26.2665 11.1191 26.2797 10.29 26.284C10.0166 26.2797 9.78031 26.4722 9.73 26.739C9.72125 26.7828 9.66656 26.9797 9.6075 27.159C9.59 27.2137 9.57031 27.264 9.555 27.3165C9.46094 27.3165 9.30563 27.3231 9.03 27.3165C8.75875 27.31 8.54438 27.2903 8.4175 27.2815C8.40656 27.1087 8.39344 26.9644 8.3825 26.8265C8.365 26.6253 8.2425 26.4109 8.1025 26.3015C7.9625 26.1922 7.82688 26.1506 7.7175 26.1265C7.49656 26.0784 7.30844 26.0915 7.1925 26.0915C6.93656 26.0915 6.685 26.0937 6.4225 26.3015C6.16 26.5094 6.09 26.8528 6.09 27.089C6.09 27.089 6.08781 27.3187 6.09 27.509C5.73563 27.509 4.72281 27.509 4.1825 27.509C4.17594 27.24 4.165 26.8615 4.165 26.8615C4.16063 26.844 4.15406 26.8265 4.1475 26.809C4.1475 26.809 4.10594 26.5487 3.9375 26.354C3.76906 26.1594 3.46281 25.9931 3.0975 25.969C2.72125 25.945 2.36906 26.0697 2.17 26.3015C1.98406 26.5159 1.995 26.7719 1.995 26.809H1.9775V26.844C1.9775 26.879 1.9775 27.1831 1.9775 27.474C1.74344 27.4653 1.54219 27.4609 1.295 27.4565L1.1725 25.269C1.77188 25.2625 3.01438 25.2231 4.445 25.2165C5.9675 25.21 7.59719 25.2406 8.4175 25.339C15.1681 26.144 17.3841 26.3803 20.5975 26.039C23.7147 25.7087 25.7863 24.8622 26.705 24.464Z" fill="white"/>
</g>
</svg>
