<svg width="28" height="30" viewBox="0 0 28 30" fill="none" xmlns="http://www.w3.org/2000/svg">
<path d="M11.6452 3.42871L5.49504 6.05809L5.40207 6.22434C4.97644 6.98778 4.56178 8.35635 4.09723 10.0907C3.63268 11.8252 3.1485 13.8884 2.70926 15.8712C1.83079 19.837 1.12989 23.4826 1.12989 23.4826L1.02161 24.047L5.46332 24.7875L7.67161 15.5158C7.7442 16.2922 7.84004 16.9614 7.84004 17.9887C7.84004 20.0421 6.72004 23.4394 6.72004 26.3887V26.9487H14H21.28V26.3887C21.28 23.4394 20.16 20.0421 20.16 17.9887C20.16 16.9614 20.2559 16.2922 20.3285 15.5158L22.5368 24.7875L26.9785 24.047L26.8702 23.4826C26.8702 23.4826 26.169 19.8366 25.2919 15.8723C24.8534 13.8902 24.3713 11.8289 23.9083 10.0962C23.4454 8.3635 23.0327 6.99722 22.61 6.23637L22.5171 6.06903L16.3549 3.42871H11.6452ZM11.9208 4.54871H16.0705L13.9388 12.5451C13.0556 9.01271 12.1427 5.41795 11.9208 4.54871ZM17.1172 4.97418L18.5424 5.58559L17.0691 7.54996L18.2427 8.13621L14.758 13.8248L17.1172 4.97418ZM10.8719 4.97746C11.0891 5.82902 12.192 10.1488 13.1185 13.873L9.74645 8.14168L10.8314 7.59918L9.75848 5.45324L10.8719 4.97746ZM8.72707 5.89403L9.32864 7.09824L8.17364 7.67574L14 17.5808V25.8287H7.91332C8.04121 23.2755 8.96004 20.2568 8.96004 17.9887C8.96004 17.599 8.95032 17.2279 8.93707 16.8687H10.64V15.7487H8.87582C8.71631 13.5991 8.38364 12.2531 8.38364 12.2531L7.82692 10.0262L4.61676 23.51L2.34723 23.1326C2.44054 22.6505 2.99352 19.7673 3.80301 16.113C4.24018 14.1394 4.7216 12.0881 5.17895 10.3806C5.61747 8.74339 6.04799 7.47035 6.33067 6.91887L8.72707 5.89403ZM19.6022 6.03949L21.6793 6.92981C21.9594 7.47861 22.3885 8.74933 22.8255 10.385C23.2813 12.091 23.7617 14.1423 24.1982 16.1151C25.0064 19.7682 25.5595 22.6504 25.6529 23.1326L23.3833 23.51L20.1732 10.0262L19.6164 12.2531C19.6164 12.2531 19.2838 13.5991 19.1243 15.7487H17.36V16.8687H19.063C19.0498 17.2279 19.04 17.599 19.04 17.9887C19.04 20.2568 19.9589 23.2755 20.0868 25.8287H15.12V17.3664L15.1069 17.3062C15.0473 17.0406 14.883 16.3831 14.7755 15.9369L19.8363 7.68121L18.771 7.14856L19.6022 6.03949ZM12.88 17.9887C12.7315 17.9887 12.5891 18.0477 12.4841 18.1528C12.379 18.2578 12.32 18.4002 12.32 18.5487C12.32 18.6973 12.379 18.8397 12.4841 18.9447C12.5891 19.0497 12.7315 19.1087 12.88 19.1087C13.0286 19.1087 13.171 19.0497 13.276 18.9447C13.381 18.8397 13.44 18.6973 13.44 18.5487C13.44 18.4002 13.381 18.2578 13.276 18.1528C13.171 18.0477 13.0286 17.9887 12.88 17.9887ZM12.88 20.2287C12.7315 20.2287 12.5891 20.2877 12.4841 20.3928C12.379 20.4978 12.32 20.6402 12.32 20.7887C12.32 20.9373 12.379 21.0797 12.4841 21.1847C12.5891 21.2897 12.7315 21.3487 12.88 21.3487C13.0286 21.3487 13.171 21.2897 13.276 21.1847C13.381 21.0797 13.44 20.9373 13.44 20.7887C13.44 20.6402 13.381 20.4978 13.276 20.3928C13.171 20.2877 13.0286 20.2287 12.88 20.2287Z" fill="white"/>
</svg>
