<svg width="28" height="30" viewBox="0 0 28 30" fill="none" xmlns="http://www.w3.org/2000/svg">
<path d="M22.0676 2.30884V2.32634C19.7467 2.47509 18.1476 3.91665 17.0626 5.82634C15.9163 7.84321 15.2317 10.4026 14.5601 12.7913C14.2101 14.0382 13.6392 15.8604 12.9326 17.4463C12.226 19.0323 11.3138 20.3426 10.6576 20.6488C9.93354 20.9879 8.5051 20.8063 8.5051 20.8063L8.2951 20.7538L8.1201 20.8588C8.1201 20.8588 7.04166 21.491 5.7926 22.3638C4.54354 23.2366 3.12822 24.3216 2.3451 25.4263C2.0476 25.8463 1.87479 26.2051 1.7851 26.4588C1.69541 26.7126 1.6801 26.9313 1.6801 26.9313L1.6626 27.3688L2.1001 27.4913C2.1001 27.4913 2.6776 27.6466 4.2176 27.7888C5.7576 27.931 8.29728 28.0688 12.3201 28.0688C16.3888 28.0688 18.5348 27.4366 19.7576 26.3363C20.9804 25.236 21.1051 23.7791 21.3151 22.6088C21.6432 20.7735 21.8248 19.0716 22.0326 17.8663C22.0829 17.5688 22.1354 17.4288 22.1901 17.2013C22.1945 17.2232 22.2032 17.232 22.2076 17.2538C22.3279 17.9538 22.4482 18.8638 22.5576 19.8613C22.7763 21.8498 22.9448 24.1707 22.9601 25.8113C22.9601 25.8157 22.9601 25.8245 22.9601 25.8288H23.5201L24.0801 25.8463V25.8288C24.0801 25.8113 24.1763 22.6307 24.3076 19.1963C24.4454 15.5826 26.3201 13.0691 26.3201 10.1488C26.3201 7.81915 25.747 5.91384 25.0076 4.56634C24.6379 3.89259 24.2135 3.35884 23.8001 2.97384C23.3867 2.58884 22.982 2.30884 22.4701 2.30884C22.376 2.30884 22.282 2.32196 22.1901 2.32634C22.1485 2.32196 22.1092 2.30884 22.0676 2.30884ZM22.1201 3.44634C22.1201 3.44634 22.142 3.45071 22.1551 3.53384C22.1857 3.73071 22.1223 4.18571 21.9801 4.70634C21.6935 5.7454 21.1051 7.07759 20.7201 8.03134C19.5913 10.8291 19.0335 13.6007 18.7426 15.8188C18.4517 18.037 18.4167 19.752 18.3751 20.1938C18.3357 20.616 18.1367 21.2416 17.7801 21.6988C17.4235 22.156 16.962 22.4688 16.2401 22.4688C14.8007 22.4688 13.777 21.9088 12.3026 21.9088C11.771 21.9088 11.0863 21.9307 10.4651 21.8913C10.686 21.8388 10.907 21.7688 11.1301 21.6638C12.3792 21.082 13.2192 19.5726 13.9651 17.9013C14.711 16.2301 15.2842 14.3685 15.6451 13.0888C16.3188 10.6935 17.0057 8.21071 18.0426 6.38634C19.0204 4.66696 20.2192 3.56884 22.1201 3.44634ZM23.2751 4.02384C23.5135 4.29946 23.7695 4.66915 24.0101 5.10884C24.6532 6.28352 25.2001 8.00727 25.2001 10.1488C25.2001 12.2226 23.8701 14.537 23.3976 17.6738C23.3692 17.4857 23.3385 17.2298 23.3101 17.0613C23.2467 16.6938 23.1832 16.3788 23.1176 16.1163C23.052 15.8538 22.9995 15.6788 22.8726 15.4688L22.7151 15.1888H22.4001C22.1267 15.1888 21.8685 15.3332 21.7001 15.5038C21.5317 15.6745 21.4223 15.867 21.3326 16.0813C21.1532 16.5123 21.0395 17.0395 20.9301 17.6738C20.7113 18.9448 20.532 20.6291 20.2126 22.4163C19.9895 23.6566 19.8932 24.6979 19.0051 25.4963C18.117 26.2948 16.2685 26.9488 12.3201 26.9488C8.32353 26.9488 5.81885 26.8066 4.3226 26.6688C3.3251 26.577 3.27041 26.542 3.0276 26.4938C3.09541 26.3604 3.11947 26.2663 3.2551 26.0738C3.85666 25.2251 5.2326 24.1182 6.4401 23.2738C7.22979 22.7226 7.77447 22.3879 8.1376 22.1713C8.24916 22.3179 8.37604 22.447 8.5226 22.5388C8.89666 22.7751 9.33416 22.8932 9.7826 22.9588C10.6773 23.0879 11.666 23.0288 12.3026 23.0288C13.4598 23.0288 14.5338 23.5888 16.2401 23.5888C17.3163 23.5888 18.1542 23.0463 18.6726 22.3813C19.191 21.7163 19.4338 20.942 19.4951 20.2988V20.2463C19.552 19.6076 19.5826 18.1048 19.8626 15.9763C20.147 13.8216 20.6895 11.1288 21.7701 8.45134C22.142 7.5304 22.7413 6.18071 23.0651 5.00384C23.1592 4.66478 23.2423 4.33665 23.2751 4.02384Z" fill="white"/>
</svg>
