<svg width="29" height="30" viewBox="0 0 29 30" fill="none" xmlns="http://www.w3.org/2000/svg">
<path d="M24.6852 9.13387C24.5664 8.65928 24.3245 8.22444 23.9839 7.87327C23.6432 7.52211 23.216 7.26705 22.7452 7.13387C21.0252 6.71387 14.1452 6.71387 14.1452 6.71387C14.1452 6.71387 7.26523 6.71387 5.54523 7.17387C5.07447 7.30705 4.6472 7.56211 4.30657 7.91327C3.96594 8.26444 3.72401 8.69928 3.60522 9.17387C3.29044 10.9194 3.13646 12.6902 3.14522 14.4639C3.134 16.2509 3.28799 18.0352 3.60522 19.7939C3.73618 20.2537 3.98353 20.672 4.32337 21.0083C4.66321 21.3447 5.08405 21.5877 5.54523 21.7139C7.26523 22.1739 14.1452 22.1739 14.1452 22.1739C14.1452 22.1739 21.0252 22.1739 22.7452 21.7139C23.216 21.5807 23.6432 21.3256 23.9839 20.9745C24.3245 20.6233 24.5664 20.1885 24.6852 19.7139C24.9976 17.9815 25.1516 16.2242 25.1452 14.4639C25.1564 12.6768 25.0025 10.8926 24.6852 9.13387Z" stroke="white" stroke-linecap="round" stroke-linejoin="round"/>
<path d="M11.8951 17.7338L17.6451 14.4638L11.8951 11.1938V17.7338Z" stroke="white" stroke-linecap="round" stroke-linejoin="round"/>
</svg>
