<svg width="29" height="28" viewBox="0 0 29 28" fill="none" xmlns="http://www.w3.org/2000/svg">
<mask id="path-1-inside-1_2511_892" fill="white">
<path d="M14.385 24C19.9079 24 24.385 19.5228 24.385 14C24.385 8.47715 19.9079 4 14.385 4C8.86216 4 4.38501 8.47715 4.38501 14C4.38501 19.5228 8.86216 24 14.385 24Z"/>
<path d="M15.385 18C15.385 18.5523 14.9373 19 14.385 19C13.8327 19 13.385 18.5523 13.385 18C13.385 17.4477 13.8327 17 14.385 17C14.9373 17 15.385 17.4477 15.385 18Z"/>
</mask>
<path d="M14.885 10C14.885 9.72386 14.6612 9.5 14.385 9.5C14.1089 9.5 13.885 9.72386 13.885 10H14.885ZM13.885 14C13.885 14.2761 14.1089 14.5 14.385 14.5C14.6612 14.5 14.885 14.2761 14.885 14H13.885ZM13.885 10V14H14.885V10H13.885ZM23.385 14C23.385 18.9706 19.3556 23 14.385 23V25C20.4601 25 25.385 20.0751 25.385 14H23.385ZM14.385 23C9.41445 23 5.38501 18.9706 5.38501 14H3.38501C3.38501 20.0751 8.30988 25 14.385 25V23ZM5.38501 14C5.38501 9.02944 9.41445 5 14.385 5V3C8.30988 3 3.38501 7.92487 3.38501 14H5.38501ZM14.385 5C19.3556 5 23.385 9.02944 23.385 14H25.385C25.385 7.92487 20.4601 3 14.385 3V5ZM14.385 18V20C15.4896 20 16.385 19.1046 16.385 18H14.385ZM14.385 18H12.385C12.385 19.1046 13.2804 20 14.385 20V18ZM14.385 18V16C13.2804 16 12.385 16.8954 12.385 18H14.385ZM14.385 18H16.385C16.385 16.8954 15.4896 16 14.385 16V18Z" fill="#6979F8" mask="url(#path-1-inside-1_2511_892)"/>
</svg>
