<svg width="29" height="28" viewBox="0 0 29 28" fill="none" xmlns="http://www.w3.org/2000/svg">
<mask id="path-1-inside-1_2511_893" fill="white">
<path d="M10.245 4H18.525L24.385 9.86V18.14L18.525 24H10.245L4.38501 18.14V9.86L10.245 4Z"/>
<path d="M15.385 18C15.385 18.5523 14.9373 19 14.385 19C13.8327 19 13.385 18.5523 13.385 18C13.385 17.4477 13.8327 17 14.385 17C14.9373 17 15.385 17.4477 15.385 18Z"/>
</mask>
<path d="M14.885 10C14.885 9.72386 14.6612 9.5 14.385 9.5C14.1089 9.5 13.885 9.72386 13.885 10H14.885ZM13.885 14C13.885 14.2761 14.1089 14.5 14.385 14.5C14.6612 14.5 14.885 14.2761 14.885 14H13.885ZM13.885 10V14H14.885V10H13.885ZM10.245 4V3C9.97979 3 9.72544 3.10536 9.5379 3.29289L10.245 4ZM18.525 4L19.2321 3.29289C19.0446 3.10536 18.7902 3 18.525 3V4ZM24.385 9.86H25.385C25.385 9.59478 25.2797 9.34043 25.0921 9.15289L24.385 9.86ZM24.385 18.14L25.0921 18.8471C25.2797 18.6596 25.385 18.4052 25.385 18.14H24.385ZM18.525 24V25C18.7902 25 19.0446 24.8946 19.2321 24.7071L18.525 24ZM10.245 24L9.5379 24.7071C9.72544 24.8946 9.97979 25 10.245 25V24ZM4.38501 18.14H3.38501C3.38501 18.4052 3.49037 18.6596 3.6779 18.8471L4.38501 18.14ZM4.38501 9.86L3.6779 9.15289C3.49037 9.34043 3.38501 9.59478 3.38501 9.86H4.38501ZM10.245 5H18.525V3H10.245V5ZM17.8179 4.70711L23.6779 10.5671L25.0921 9.15289L19.2321 3.29289L17.8179 4.70711ZM23.385 9.86V18.14H25.385V9.86H23.385ZM23.6779 17.4329L17.8179 23.2929L19.2321 24.7071L25.0921 18.8471L23.6779 17.4329ZM18.525 23H10.245V25H18.525V23ZM10.9521 23.2929L5.09212 17.4329L3.6779 18.8471L9.5379 24.7071L10.9521 23.2929ZM5.38501 18.14V9.86H3.38501V18.14H5.38501ZM5.09212 10.5671L10.9521 4.70711L9.5379 3.29289L3.6779 9.15289L5.09212 10.5671ZM14.385 18V20C15.4896 20 16.385 19.1046 16.385 18H14.385ZM14.385 18H12.385C12.385 19.1046 13.2804 20 14.385 20V18ZM14.385 18V16C13.2804 16 12.385 16.8954 12.385 18H14.385ZM14.385 18H16.385C16.385 16.8954 15.4896 16 14.385 16V18Z" fill="#6979F8" mask="url(#path-1-inside-1_2511_893)"/>
</svg>
