<svg width="29" height="28" viewBox="0 0 29 28" fill="none" xmlns="http://www.w3.org/2000/svg">
<mask id="path-1-inside-1_2511_894" fill="white">
<path d="M12.675 5.85996L4.20503 20C4.0304 20.3024 3.938 20.6453 3.93702 20.9945C3.93604 21.3437 4.02652 21.6871 4.19946 21.9905C4.37239 22.2939 4.62176 22.5467 4.92274 22.7238C5.22372 22.9009 5.56583 22.9961 5.91503 23H22.855C23.2042 22.9961 23.5463 22.9009 23.8473 22.7238C24.1483 22.5467 24.3977 22.2939 24.5706 21.9905C24.7435 21.6871 24.834 21.3437 24.833 20.9945C24.8321 20.6453 24.7397 20.3024 24.565 20L16.095 5.85996C15.9168 5.56607 15.6658 5.32308 15.3662 5.15444C15.0667 4.98581 14.7288 4.89722 14.385 4.89722C14.0413 4.89722 13.7034 4.98581 13.4038 5.15444C13.1043 5.32308 12.8533 5.56607 12.675 5.85996Z"/>
<path d="M15.385 19C15.385 19.5523 14.9373 20 14.385 20C13.8327 20 13.385 19.5523 13.385 19C13.385 18.4477 13.8327 18 14.385 18C14.9373 18 15.385 18.4477 15.385 19Z"/>
</mask>
<path d="M14.885 11C14.885 10.7238 14.6612 10.5 14.385 10.5C14.1089 10.5 13.885 10.7238 13.885 11H14.885ZM13.885 15C13.885 15.2761 14.1089 15.5 14.385 15.5C14.6612 15.5 14.885 15.2761 14.885 15H13.885ZM13.885 11V15H14.885V11H13.885ZM12.675 5.85996L11.82 5.34132L11.8172 5.34609L12.675 5.85996ZM4.20503 20L3.34716 19.4861C3.34442 19.4907 3.34171 19.4953 3.33904 19.4999L4.20503 20ZM5.91503 23L5.90404 24H5.91503V23ZM22.855 23L22.855 24L22.866 23.9999L22.855 23ZM24.565 20L25.431 19.4999C25.4284 19.4953 25.4256 19.4907 25.4229 19.4861L24.565 20ZM16.095 5.85996L16.9529 5.34608L16.95 5.34133L16.095 5.85996ZM14.385 4.89722L14.385 3.89722L14.385 4.89722ZM11.8172 5.34609L3.34716 19.4861L5.0629 20.5138L13.5329 6.37383L11.8172 5.34609ZM3.33904 19.4999C3.07709 19.9535 2.93849 20.4678 2.93702 20.9917L4.93702 20.9973C4.9375 20.8227 4.9837 20.6512 5.07102 20.5L3.33904 19.4999ZM2.93702 20.9917C2.93556 21.5155 3.07128 22.0306 3.33068 22.4857L5.06823 21.4953C4.98177 21.3436 4.93653 21.1719 4.93702 20.9973L2.93702 20.9917ZM3.33068 22.4857C3.59008 22.9408 3.96413 23.32 4.4156 23.5857L5.42988 21.8619C5.27938 21.7734 5.1547 21.647 5.06823 21.4953L3.33068 22.4857ZM4.4156 23.5857C4.86707 23.8513 5.38024 23.9941 5.90404 23.9999L5.92602 22C5.75142 21.9981 5.58037 21.9505 5.42988 21.8619L4.4156 23.5857ZM5.91503 24H22.855V22H5.91503V24ZM22.866 23.9999C23.3898 23.9941 23.903 23.8513 24.3545 23.5857L23.3402 21.8619C23.1897 21.9505 23.0186 21.9981 22.844 22L22.866 23.9999ZM24.3545 23.5857C24.8059 23.32 25.18 22.9408 25.4394 22.4857L23.7018 21.4953C23.6154 21.647 23.4907 21.7734 23.3402 21.8619L24.3545 23.5857ZM25.4394 22.4857C25.6988 22.0306 25.8345 21.5155 25.833 20.9917L23.833 20.9973C23.8335 21.1719 23.7883 21.3436 23.7018 21.4953L25.4394 22.4857ZM25.833 20.9917C25.8316 20.4678 25.693 19.9535 25.431 19.4999L23.699 20.5C23.7864 20.6512 23.8326 20.8227 23.833 20.9973L25.833 20.9917ZM25.4229 19.4861L16.9529 5.34609L15.2372 6.37383L23.7072 20.5138L25.4229 19.4861ZM16.95 5.34133C16.6826 4.90049 16.3061 4.53601 15.8568 4.28306L14.8756 6.02583C15.0254 6.11015 15.1509 6.23164 15.24 6.37859L16.95 5.34133ZM15.8568 4.28306C15.4075 4.0301 14.9006 3.89722 14.385 3.89722V5.89722C14.5569 5.89722 14.7259 5.94151 14.8756 6.02583L15.8568 4.28306ZM14.385 3.89722C13.8694 3.89722 13.3625 4.0301 12.9132 4.28306L13.8944 6.02583C14.0442 5.94151 14.2132 5.89722 14.385 5.89722L14.385 3.89722ZM12.9132 4.28306C12.4639 4.53601 12.0874 4.90049 11.82 5.34133L13.53 6.37859C13.6192 6.23164 13.7447 6.11015 13.8944 6.02583L12.9132 4.28306ZM14.385 19V21C15.4896 21 16.385 20.1046 16.385 19H14.385ZM14.385 19H12.385C12.385 20.1046 13.2804 21 14.385 21V19ZM14.385 19V17C13.2804 17 12.385 17.8954 12.385 19H14.385ZM14.385 19H16.385C16.385 17.8954 15.4896 17 14.385 17V19Z" fill="#6979F8" mask="url(#path-1-inside-1_2511_894)"/>
</svg>
