<svg width="29" height="29" viewBox="0 0 29 29" fill="none" xmlns="http://www.w3.org/2000/svg">
<path d="M14.1447 10.4069C15.8015 10.4069 17.1447 9.06371 17.1447 7.40686C17.1447 5.75001 15.8015 4.40686 14.1447 4.40686C12.4878 4.40686 11.1447 5.75001 11.1447 7.40686C11.1447 9.06371 12.4878 10.4069 14.1447 10.4069ZM14.1447 10.4069V24.4069M14.1447 24.4069C11.4925 24.4069 8.94895 23.3533 7.07359 21.4779C5.19822 19.6026 4.14465 17.059 4.14465 14.4069H7.14465M14.1447 24.4069C16.7968 24.4069 19.3404 23.3533 21.2157 21.4779C23.0911 19.6026 24.1447 17.059 24.1447 14.4069H21.1447" stroke="#6979F8" stroke-linecap="round" stroke-linejoin="round"/>
</svg>
