<svg width="29" height="28" viewBox="0 0 29 28" fill="none" xmlns="http://www.w3.org/2000/svg">
<path d="M18.1447 9.99938V14.9994C18.1447 15.795 18.4607 16.5581 19.0233 17.1207C19.586 17.6833 20.349 17.9994 21.1447 17.9994C21.9403 17.9994 22.7034 17.6833 23.266 17.1207C23.8286 16.5581 24.1447 15.795 24.1447 14.9994V13.9994C24.1445 11.7424 23.3809 9.55186 21.9779 7.78391C20.575 6.01596 18.6152 4.7746 16.4173 4.26168C14.2194 3.74875 11.9126 3.99442 9.87201 4.95875C7.83142 5.92307 6.17706 7.54933 5.17792 9.5731C4.17878 11.5969 3.89363 13.8991 4.36883 16.1055C4.84403 18.3119 6.05164 20.2926 7.79529 21.7256C9.53895 23.1587 11.7161 23.9597 13.9727 23.9985C16.2294 24.0373 18.4328 23.3116 20.2247 21.9394M18.1447 13.9994C18.1447 16.2085 16.3538 17.9994 14.1447 17.9994C11.9355 17.9994 10.1447 16.2085 10.1447 13.9994C10.1447 11.7902 11.9355 9.99938 14.1447 9.99938C16.3538 9.99938 18.1447 11.7902 18.1447 13.9994Z" stroke="#6979F8" stroke-linecap="round" stroke-linejoin="round"/>
</svg>
