<svg width="29" height="29" viewBox="0 0 29 29" fill="none" xmlns="http://www.w3.org/2000/svg">
<path d="M8.89344 10.6442H7.71124C6.33835 10.6442 5.23242 9.53822 5.23242 8.16534V7.97466C5.23242 6.60178 6.33835 5.49585 7.71124 5.49585H21.0968C22.4316 5.49585 23.5375 6.60178 23.5375 7.97466V8.16534C23.5375 9.53822 22.4316 10.6442 21.0587 10.6442H20.0672" stroke="#6979F8" stroke-miterlimit="10" stroke-linecap="round"/>
<path d="M19.8764 22.7331C19.8764 23.1526 19.5331 23.4958 19.1137 23.4958H9.65602C9.23653 23.4958 8.89331 23.1526 8.89331 22.7331V8.31783C8.89331 7.89833 9.23653 7.55511 9.65602 7.55511H19.1137C19.5331 7.55511 19.8764 7.89833 19.8764 8.31783V22.7331Z" stroke="#6979F8" stroke-miterlimit="10" stroke-linecap="round"/>
<path d="M15.2622 9.27124V21.9323" stroke="#6979F8" stroke-miterlimit="10" stroke-linecap="round"/>
</svg>
