<svg width="28" height="29" viewBox="0 0 28 29" fill="none" xmlns="http://www.w3.org/2000/svg">
<path d="M13.9998 1.80884C10.9133 1.80884 8.39982 4.32227 8.39982 7.40884V8.52884C8.39764 8.73009 8.50264 8.91821 8.67764 9.02102C8.85264 9.12165 9.06701 9.12165 9.24201 9.02102C9.41701 8.91821 9.52201 8.73009 9.51982 8.52884V7.40884C9.51982 4.92821 11.5192 2.92884 13.9998 2.92884C16.4804 2.92884 18.4798 4.92821 18.4798 7.40884V8.52884C18.4776 8.73009 18.5826 8.91821 18.7576 9.02102C18.9326 9.12165 19.147 9.12165 19.322 9.02102C19.497 8.91821 19.602 8.73009 19.5998 8.52884V7.40884C19.5998 4.32227 17.0864 1.80884 13.9998 1.80884ZM8.95982 9.64884C8.34076 9.64884 7.83982 10.1498 7.83982 10.7688H5.03982C5.02232 10.7688 5.00482 10.7688 4.98732 10.7688C4.7467 10.7929 4.54982 10.9701 4.49732 11.2063L2.81732 18.6088C2.76045 18.891 2.9267 19.171 3.20232 19.2563C3.20232 19.2563 3.28326 19.2716 3.28982 19.2738L2.23982 26.3613C2.21357 26.5254 2.2617 26.6895 2.36889 26.8141C2.47826 26.941 2.63576 27.011 2.79982 27.0088H4.47982V27.5688H6.15982V27.0088H21.8398V27.5688H23.5198V27.0088H25.1998C25.3639 27.011 25.5214 26.941 25.6308 26.8141C25.738 26.6895 25.7861 26.5254 25.7598 26.3613L24.7098 19.2738C24.7164 19.2716 24.7973 19.2563 24.7973 19.2563C25.073 19.171 25.2392 18.891 25.1823 18.6088L23.5023 11.2063C23.4455 10.9526 23.2201 10.771 22.9598 10.7688H20.1598C20.1598 10.1498 19.6589 9.64884 19.0398 9.64884C18.4208 9.64884 17.9198 10.1498 17.9198 10.7688H10.0798C10.0798 10.1498 9.57889 9.64884 8.95982 9.64884ZM5.47732 11.8888H22.5223L23.9748 18.3113C23.2683 18.5191 19.0442 19.7288 13.9998 19.7288C9.14795 19.7288 5.13389 18.6351 4.19982 18.3638C4.17795 18.3507 4.15389 18.3398 4.12982 18.3288C4.11451 18.3245 4.05545 18.3157 4.04232 18.3113C4.03576 18.3113 4.03139 18.3113 4.02482 18.3113L5.47732 11.8888ZM4.37482 19.5713C5.9542 19.9738 8.97514 20.6454 12.4248 20.8138C12.6479 21.4788 13.2604 21.9688 13.9998 21.9688C14.7392 21.9688 15.3517 21.4788 15.5748 20.8138C19.0136 20.6476 22.0236 19.976 23.6073 19.5713L24.5523 25.8888H3.44732L4.37482 19.5713Z" fill="#6979F8"/>
</svg>
