<svg width="28" height="29" viewBox="0 0 28 29" fill="none" xmlns="http://www.w3.org/2000/svg">
<path d="M14 1.24884C13.2869 1.24884 12.6416 1.41728 12.1275 1.73884C11.8212 1.92915 11.5434 2.17853 11.375 2.49134C8.40655 2.8654 5.74218 3.88915 3.79749 5.62384C1.7828 7.41978 0.55999 10.0054 0.55999 13.2538V19.2913C0.557803 19.3154 0.557803 19.3373 0.55999 19.3613V19.3788C0.55999 19.3854 0.55999 19.3898 0.55999 19.3963C0.55999 19.4379 0.56874 19.4904 0.57749 19.5363C0.599365 19.8535 0.684677 20.1729 0.82249 20.6038C0.97999 21.096 1.19874 21.6801 1.45249 22.3013C1.96218 23.546 2.61405 24.9285 3.21999 25.9063C3.77562 26.801 4.34218 27.3282 5.03999 27.4988C5.7378 27.6695 6.40499 27.4792 7.13999 27.2188C8.60999 26.7004 10.5394 25.8188 14 25.8188C17.4606 25.8188 19.3528 26.7004 20.8075 27.2188C21.5337 27.4792 22.1878 27.6695 22.89 27.4988C23.5922 27.3282 24.1719 26.8142 24.7625 25.9238C25.2897 25.1298 25.9262 23.756 26.46 22.4588C26.7269 21.8092 26.9697 21.1792 27.1425 20.6563C27.2934 20.1992 27.3962 19.871 27.4225 19.5363C27.4334 19.4838 27.44 19.427 27.44 19.3788V13.2538C27.44 9.99665 26.2172 7.42197 24.2025 5.62384C22.2556 3.88697 19.6044 2.85884 16.625 2.49134C16.4566 2.17853 16.1787 1.92915 15.8725 1.73884C15.3584 1.41728 14.7131 1.24884 14 1.24884ZM14 2.36884C14.525 2.36884 14.9975 2.5154 15.295 2.70134C15.5925 2.88728 15.68 3.06447 15.68 3.20884C15.68 3.35322 15.5925 3.5304 15.295 3.71634C14.9975 3.90228 14.525 4.04884 14 4.04884C13.475 4.04884 13.0025 3.90228 12.705 3.71634C12.4075 3.5304 12.32 3.35322 12.32 3.20884C12.32 3.06447 12.4075 2.88728 12.705 2.70134C13.0025 2.5154 13.475 2.36884 14 2.36884ZM16.73 3.64634C19.4316 4.01603 21.77 4.9479 23.45 6.44634C25.2416 8.0454 26.32 10.2701 26.32 13.2538V18.9413C26.2194 18.9173 26.1887 18.9217 26.04 18.8713C25.4253 18.6592 24.4737 18.2413 23.2925 17.7863C20.9278 16.8785 17.6247 15.8088 13.965 15.8088C10.3031 15.8088 7.02405 16.9048 4.67249 17.8213C3.4978 18.2785 2.54843 18.681 1.94249 18.8888C1.8003 18.937 1.77624 18.937 1.67999 18.9588V13.2538C1.67999 10.281 2.75843 8.06072 4.54999 6.46384C6.22999 4.9654 8.57499 4.04009 11.27 3.66384C11.41 4.0904 11.7425 4.43822 12.1275 4.67884C12.6416 5.0004 13.2869 5.16884 14 5.16884C14.7131 5.16884 15.3584 5.0004 15.8725 4.67884C16.2619 4.43603 16.5922 4.07947 16.73 3.64634ZM14.2275 6.84884C12.8559 6.84884 11.8431 7.3804 11.4275 8.44134C11.2678 8.87228 11.2 9.21353 11.2 10.2088C11.2 11.2042 11.2678 11.5454 11.4275 11.9763C11.8431 13.0373 12.8559 13.5688 14.2275 13.5688C15.4022 13.5688 16.2509 13.1204 16.6425 12.5363C16.7344 12.4029 16.8 12.2695 16.8 12.1163C16.8 11.7423 16.4566 11.4863 16.03 11.4863C15.7412 11.4863 15.5072 11.587 15.2775 11.8538C14.9887 12.1798 14.7241 12.3263 14.2275 12.3263C13.5931 12.3263 13.2103 12.0485 13.0375 11.6088C12.9456 11.3682 12.915 11.1363 12.915 10.2088C12.915 9.28134 12.9456 9.04728 13.0375 8.80884C13.2103 8.36915 13.5931 8.09134 14.2275 8.09134C14.7241 8.09134 14.9887 8.2379 15.2775 8.56384C15.5072 8.83072 15.7412 8.93134 16.03 8.93134C16.4566 8.93134 16.8 8.6754 16.8 8.30134C16.8 8.14822 16.7344 8.01478 16.6425 7.88134C16.2509 7.29728 15.4022 6.84884 14.2275 6.84884ZM13.965 16.9288C17.4037 16.9288 20.5756 17.946 22.89 18.8363C24.0472 19.2804 24.9769 19.6982 25.6725 19.9388C25.8344 19.9935 25.9853 20.0417 26.1275 20.0788C26.1034 20.1576 26.1034 20.221 26.075 20.3063C25.9131 20.7942 25.6856 21.4088 25.4275 22.0388C24.9091 23.2988 24.2572 24.6551 23.835 25.2938C23.3166 26.0748 22.9534 26.3351 22.6275 26.4138C22.3016 26.4926 21.8575 26.4117 21.175 26.1688C19.81 25.681 17.6531 24.6988 14 24.6988C10.3469 24.6988 8.15718 25.681 6.77249 26.1688C6.08124 26.4138 5.63718 26.4926 5.31999 26.4138C5.0028 26.3351 4.64843 26.0901 4.16499 25.3113C3.6203 24.432 2.99468 23.0823 2.50249 21.8813C2.25749 21.2798 2.03437 20.7242 1.88999 20.2713C1.8703 20.2101 1.85499 20.1729 1.83749 20.1138C1.98624 20.0767 2.14155 20.0132 2.30999 19.9563C3.00562 19.7179 3.94187 19.3023 5.09249 18.8538C7.39374 17.957 10.5262 16.9288 13.965 16.9288Z" fill="#6979F8"/>
</svg>
