<svg width="28" height="29" viewBox="0 0 28 29" fill="none" xmlns="http://www.w3.org/2000/svg">
<path d="M14 1.86133C12.46 1.86133 11.2 3.12133 11.2 4.66133C11.2 5.56695 11.6485 6.37195 12.32 6.88383C11.9307 7.11789 11.5435 7.41758 11.1475 7.75883C10.1807 8.59227 9.19192 9.71227 8.29504 10.9788C6.50348 13.5098 5.04004 16.5438 5.04004 18.9413V22.6863C4.76223 22.7782 4.49536 22.8854 4.28754 23.0888C4.06004 23.3098 3.92004 23.6488 3.92004 23.9813V26.0638C3.92004 26.112 3.92661 26.1579 3.93754 26.2038C4.03598 26.5495 4.35317 26.8754 4.74254 27.0438C5.13192 27.2123 5.62192 27.3041 6.33504 27.3763C7.75911 27.5207 10.0757 27.5688 14 27.5688C17.9157 27.5688 20.276 27.6082 21.735 27.4988C22.4635 27.4441 22.9775 27.3741 23.3975 27.1488C23.8175 26.9235 24.08 26.4204 24.08 25.9938V23.9813C24.08 23.6445 23.9269 23.3098 23.695 23.0888C23.4741 22.8766 23.2029 22.7607 22.9075 22.6688C22.9163 21.8507 22.96 19.392 22.96 18.9413C22.96 16.5438 21.4966 13.5098 19.705 10.9788C18.8082 9.71227 17.8194 8.59227 16.8525 7.75883C16.4566 7.41758 16.0694 7.11789 15.68 6.88383C16.3516 6.37195 16.8 5.56695 16.8 4.66133C16.8 3.12133 15.54 1.86133 14 1.86133ZM14 2.98133C14.9341 2.98133 15.68 3.72727 15.68 4.66133C15.68 5.59539 14.9341 6.34133 14 6.34133C13.066 6.34133 12.32 5.59539 12.32 4.66133C12.32 3.72727 13.066 2.98133 14 2.98133ZM14 7.46133C14.4419 7.46133 15.2644 7.84852 16.135 8.59883C17.0057 9.34914 17.9419 10.421 18.795 11.6263C20.5035 14.037 21.84 17.0273 21.84 18.9413C21.84 19.287 21.7985 21.4504 21.7875 22.4588C21.4179 22.4216 21.0154 22.3954 20.58 22.3888C18.7579 22.3604 16.3822 22.5288 14 22.5288C11.561 22.5288 9.19192 22.3604 7.38504 22.3888C6.93879 22.3954 6.53411 22.4195 6.16004 22.4588V18.9413C6.16004 17.0273 7.49661 14.037 9.20504 11.6263C10.0582 10.421 10.9944 9.34914 11.865 8.59883C12.7357 7.84852 13.5582 7.46133 14 7.46133ZM7.40254 23.5088C9.12192 23.4826 11.5107 23.6488 14 23.6488C16.4347 23.6488 18.8279 23.4826 20.5625 23.5088C21.431 23.522 22.1266 23.592 22.54 23.7188C22.7479 23.7823 22.8791 23.8501 22.925 23.8938C22.971 23.9376 22.96 23.9245 22.96 23.9813V25.9938C22.96 26.1535 23.0125 26.0945 22.8725 26.1688C22.7325 26.2432 22.3366 26.3285 21.665 26.3788C20.3241 26.4795 17.9244 26.4488 14 26.4488C10.0844 26.4488 7.75911 26.4095 6.44004 26.2738C5.77942 26.206 5.37254 26.112 5.18004 26.0288C5.01161 25.9566 5.04442 25.9545 5.04004 25.9238V23.9813C5.04004 23.9223 5.03129 23.9354 5.07504 23.8938C5.11879 23.8523 5.24129 23.7823 5.44254 23.7188C5.84504 23.5941 6.54286 23.522 7.40254 23.5088Z" fill="#6979F8"/>
</svg>
