<svg width="29" height="29" viewBox="0 0 29 29" fill="none" xmlns="http://www.w3.org/2000/svg">
<path d="M11.0117 5.47495C12.077 4.87383 13.2812 4.56236 14.5044 4.57157C15.7275 4.58078 16.9269 4.91035 17.9831 5.52744C19.0392 6.14454 19.9152 7.02761 20.5238 8.08867C21.1324 9.14973 21.4523 10.3517 21.4517 11.575V15.575M16.1817 23.575C16.0058 23.878 15.7535 24.1296 15.4499 24.3045C15.1463 24.4794 14.802 24.5714 14.4517 24.5714C14.1013 24.5714 13.7571 24.4794 13.4534 24.3045C13.1498 24.1296 12.8975 23.878 12.7217 23.575M3.45166 3.57495L25.4517 25.575M19.4517 19.575H4.45166C5.24731 19.575 6.01037 19.2589 6.57298 18.6963C7.13559 18.1337 7.45166 17.3706 7.45166 16.575V11.575C7.45025 10.4547 7.71774 9.3504 8.23166 8.35495L19.4517 19.575Z" stroke="#6979F8" stroke-linecap="round" stroke-linejoin="round"/>
</svg>
