<svg width="29" height="28" viewBox="0 0 29 28" fill="none" xmlns="http://www.w3.org/2000/svg">
<path d="M14.385 5C12.5285 5 10.748 5.7375 9.43526 7.05025C8.12251 8.36301 7.38501 10.1435 7.38501 12V17C7.38501 17.7956 7.06894 18.5587 6.50633 19.1213C5.94372 19.6839 5.18066 20 4.38501 20H24.385C23.5894 20 22.8263 19.6839 22.2637 19.1213C21.7011 18.5587 21.385 17.7956 21.385 17V12C21.385 10.1435 20.6475 8.36301 19.3348 7.05025C18.022 5.7375 16.2415 5 14.385 5ZM14.385 5V2M16.115 24C15.9392 24.3031 15.6869 24.5547 15.3832 24.7295C15.0796 24.9044 14.7354 24.9965 14.385 24.9965C14.0346 24.9965 13.6904 24.9044 13.3868 24.7295C13.0832 24.5547 12.8308 24.3031 12.655 24" stroke="#6979F8" stroke-linecap="round" stroke-linejoin="round"/>
</svg>
