<svg width="29" height="29" viewBox="0 0 29 29" fill="none" xmlns="http://www.w3.org/2000/svg">
<path d="M20.5912 20.8708C20.5912 22.2958 19.4287 23.4958 17.9662 23.4958H10.8037C9.37871 23.4958 8.17871 22.2958 8.17871 20.8708V8.12085C8.17871 6.69585 9.37871 5.49585 10.8037 5.49585H17.9662C19.4287 5.49585 20.5912 6.69585 20.5912 8.12085V20.8708Z" stroke="#6979F8" stroke-miterlimit="10"/>
<path d="M18.8287 7.4458H9.94116V10.7083H18.8287V7.4458Z" stroke="#6979F8" stroke-miterlimit="10"/>
<path d="M11.7412 12.8833H9.94116V14.6083H11.7412V12.8833Z" stroke="#6979F8" stroke-miterlimit="10"/>
<path d="M15.3037 12.8833H13.5037V14.6083H15.3037V12.8833Z" stroke="#6979F8" stroke-miterlimit="10"/>
<path d="M18.8288 12.8833H17.0288V14.6083H18.8288V12.8833Z" stroke="#6979F8" stroke-miterlimit="10"/>
<path d="M11.7412 15.9958H9.94116V17.7208H11.7412V15.9958Z" stroke="#6979F8" stroke-miterlimit="10"/>
<path d="M15.3037 15.9958H13.5037V17.7208H15.3037V15.9958Z" stroke="#6979F8" stroke-miterlimit="10"/>
<path d="M18.8288 15.9958H17.0288V17.7208H18.8288V15.9958Z" stroke="#6979F8" stroke-miterlimit="10"/>
<path d="M11.7412 19.0708H9.94116V20.7958H11.7412V19.0708Z" stroke="#6979F8" stroke-miterlimit="10"/>
<path d="M15.3037 19.0708H13.5037V20.7958H15.3037V19.0708Z" stroke="#6979F8" stroke-miterlimit="10"/>
<path d="M18.8288 19.0708H17.0288V20.7958H18.8288V19.0708Z" stroke="#6979F8" stroke-miterlimit="10"/>
</svg>
