<svg width="29" height="29" viewBox="0 0 29 29" fill="none" xmlns="http://www.w3.org/2000/svg">
<path d="M7.88818 14.4069H15.8882C16.949 14.4069 17.9665 13.9854 18.7166 13.2353C19.4668 12.4851 19.8882 11.4677 19.8882 10.4069C19.8882 9.34599 19.4668 8.32858 18.7166 7.57843C17.9665 6.82829 16.949 6.40686 15.8882 6.40686H7.88818V14.4069ZM7.88818 14.4069H16.8882C17.949 14.4069 18.9665 14.8283 19.7166 15.5784C20.4668 16.3286 20.8882 17.346 20.8882 18.4069C20.8882 19.4677 20.4668 20.4851 19.7166 21.2353C18.9665 21.9854 17.949 22.4069 16.8882 22.4069H7.88818V14.4069Z" stroke="#6979F8" stroke-linecap="round" stroke-linejoin="round"/>
</svg>
