<svg width="29" height="29" viewBox="0 0 29 29" fill="none" xmlns="http://www.w3.org/2000/svg">
<path d="M14.8882 9.40686C14.8882 8.34599 14.4668 7.32858 13.7166 6.57843C12.9665 5.82829 11.949 5.40686 10.8882 5.40686H4.88818V20.4069H11.8882C12.6838 20.4069 13.4469 20.7229 14.0095 21.2855C14.5721 21.8481 14.8882 22.6112 14.8882 23.4069M14.8882 9.40686V23.4069M14.8882 9.40686C14.8882 8.34599 15.3096 7.32858 16.0598 6.57843C16.8099 5.82829 17.8273 5.40686 18.8882 5.40686H24.8882V20.4069H17.8882C17.0925 20.4069 16.3295 20.7229 15.7669 21.2855C15.2043 21.8481 14.8882 22.6112 14.8882 23.4069" stroke="#6979F8" stroke-linecap="round" stroke-linejoin="round"/>
</svg>
