<svg width="28" height="29" viewBox="0 0 28 29" fill="none" xmlns="http://www.w3.org/2000/svg">
<g clip-path="url(#clip0_2511_700)">
<path d="M9.24004 1.24884C8.47661 1.24884 7.85536 1.45009 7.33254 1.66884C6.80973 1.88759 6.37879 2.1129 5.86254 2.24634C5.10348 2.44103 4.50411 2.3054 3.16754 2.57884C2.62504 2.6904 2.11098 3.06228 1.90754 3.61134C1.70411 4.1604 1.68004 4.81447 1.68004 5.79884C1.68004 6.66072 1.73911 10.887 1.68004 12.3263C1.61879 13.8095 1.48098 15.0192 1.10254 15.7913C0.487857 17.047 -0.0174561 18.8167 -0.0174561 20.4988C-0.0174561 21.1157 0.0481689 21.5685 0.122544 21.8813C0.140044 21.9557 0.155357 21.9973 0.175044 22.0563C0.0831692 22.2007 0.0175439 22.3823 0.0175439 22.5988C0.0175439 22.6054 0.0175439 22.6098 0.0175439 22.6163L0.175044 26.6588C0.175044 26.6588 0.192544 26.6917 0.192544 26.6938C0.192544 26.7267 0.188169 26.9148 0.315044 27.1138C0.452857 27.3304 0.770044 27.5163 1.10254 27.5163C1.29286 27.5163 2.29254 27.5513 2.29254 27.5513C2.32754 27.5557 2.36254 27.5557 2.39754 27.5513C2.39754 27.5513 2.50692 27.5382 2.64254 27.4813C2.71036 27.4529 2.79129 27.4026 2.88754 27.3063C2.97504 27.2188 3.04942 27.0613 3.06254 26.8863C3.06254 26.952 3.04286 26.9454 3.08004 27.0613C3.12161 27.1948 3.23973 27.3523 3.39504 27.4463C3.55036 27.5404 3.71004 27.5688 3.85004 27.5688H6.37004C6.41161 27.5667 6.45317 27.5623 6.49254 27.5513C6.49254 27.5513 6.62161 27.5295 6.77254 27.4463C6.92348 27.3632 7.19254 27.1313 7.19254 26.7638V25.5563C7.32817 25.5717 7.47036 25.5738 7.64754 25.5913C8.12442 25.6373 8.73036 25.6985 9.32754 25.7488C10.3972 25.8407 11.2219 25.9085 11.4275 25.9238C11.421 26.0901 11.41 26.2738 11.41 26.2738C11.4035 26.357 11.4144 26.4401 11.445 26.5188C11.445 26.5188 11.4975 26.6698 11.6025 26.7813C11.7075 26.8929 11.8957 26.9957 12.11 27.0438C12.3266 27.092 12.6307 27.1292 12.9325 27.1663C13.2344 27.2035 13.4925 27.2363 13.4925 27.2363C13.5275 27.2407 13.5625 27.2407 13.5975 27.2363C13.5975 27.2363 13.7157 27.2385 13.86 27.2013C13.9322 27.1817 14.0263 27.1488 14.14 27.0788C14.2538 27.0088 14.455 26.8251 14.455 26.5363C14.455 26.5648 14.4682 26.4882 14.4725 26.4663C14.525 26.4663 14.5513 26.4685 14.595 26.4663C14.5972 26.4817 14.5929 26.5013 14.595 26.5188C14.6191 26.6545 14.63 26.7638 14.63 26.7638H14.665C14.6694 26.8338 14.6563 26.9192 14.7525 27.0788C14.8794 27.2932 15.2185 27.5032 15.54 27.4813C15.4547 27.4879 15.6188 27.477 15.75 27.4813C15.8813 27.4857 16.0585 27.4901 16.2225 27.4988C16.5485 27.5142 16.8525 27.5338 16.8525 27.5338C16.881 27.536 16.9116 27.536 16.94 27.5338C16.94 27.5338 17.1304 27.5076 17.29 27.3938C17.4454 27.2823 17.5788 27.0373 17.605 26.7988H17.6225C17.6225 26.7945 17.6225 26.7857 17.6225 26.7813C17.6291 26.6785 17.6247 26.6479 17.6225 26.5538C17.8019 26.5517 17.9441 26.556 18.165 26.5538C18.351 26.5517 18.5325 26.5538 18.6725 26.5538C18.7163 26.5538 18.7032 26.5517 18.7425 26.5538L18.76 26.8863C18.7732 27.0045 18.8213 27.1138 18.9 27.2013C18.9 27.2013 19.0247 27.4398 19.4075 27.5338C19.5782 27.5776 19.576 27.5513 19.635 27.5513C19.6941 27.5513 19.7575 27.5557 19.8275 27.5513C19.9675 27.5426 20.1404 27.5317 20.3 27.5163C20.6216 27.4879 20.9125 27.4463 20.9125 27.4463C21.0919 27.4332 21.2538 27.337 21.35 27.1838C21.35 27.1838 21.4025 27.0832 21.455 26.9738C21.4813 26.9192 21.4988 26.8579 21.525 26.7813C21.5382 26.742 21.5666 26.7092 21.5775 26.6413C21.5797 26.6326 21.5579 26.5998 21.56 26.5888C21.571 26.532 21.5732 26.4335 21.525 26.3088C21.5732 26.4292 21.5797 26.5035 21.5775 26.5363C21.5754 26.5538 21.5797 26.5626 21.5775 26.5713C21.5929 26.5254 21.6147 26.4554 21.6475 26.3788C21.6738 26.3198 21.6782 26.3067 21.7 26.2563C21.91 26.2104 22.1113 26.1732 22.2775 26.1338C22.2972 26.1623 22.3104 26.1907 22.33 26.2213C22.3913 26.3154 22.4285 26.3592 22.4525 26.3963C22.4613 26.4313 22.4525 26.4248 22.47 26.4663C22.5094 26.5538 22.5816 26.6763 22.7325 26.7638C22.8835 26.8513 23.0869 26.8492 23.2225 26.8163C23.1919 26.8251 23.2991 26.801 23.415 26.7813C23.531 26.7617 23.6754 26.7354 23.8175 26.7113C24.0997 26.6632 24.3775 26.6238 24.3775 26.6238C24.5175 26.5998 24.6422 26.5254 24.7275 26.4138L24.9025 26.1688C24.9616 26.0857 24.9988 25.9895 25.0075 25.8888L25.0775 25.3288C25.1454 25.3026 25.2175 25.2698 25.2875 25.2413C25.3729 25.2085 25.3794 25.1976 25.445 25.1713L25.6025 25.4338C25.6572 25.5235 25.736 25.5957 25.83 25.6438C25.83 25.6438 25.9088 25.6876 26.005 25.7138C26.1013 25.7401 26.2369 25.7707 26.46 25.6963C26.6 25.6504 26.6175 25.6395 26.7225 25.5913C26.8275 25.5432 26.9457 25.4929 27.0725 25.4338C27.3241 25.3179 27.5625 25.2063 27.5625 25.2063C27.6872 25.1495 27.7857 25.051 27.8425 24.9263C27.8425 24.9263 27.8754 24.8432 27.9125 24.7338C27.93 24.6792 27.9497 24.6026 27.965 24.5238C27.9804 24.4451 28.0175 24.3642 27.9475 24.1563C27.9454 24.1498 27.9497 24.1454 27.9475 24.1388C27.9388 24.1017 27.9235 24.0448 27.9125 23.9813C27.8885 23.8523 27.871 23.6795 27.8425 23.5088C27.8141 23.3382 27.7747 23.161 27.755 23.0188C27.7354 22.8767 27.72 22.7498 27.72 22.7738C27.7179 22.5376 27.591 22.3429 27.4575 22.2138C27.4444 21.6801 27.3394 20.6279 26.74 19.7988C25.9766 18.7445 24.6794 18.1998 23.52 18.2413C22.5969 18.2742 22.0304 18.5345 21.7 18.6788C21.3697 18.8232 21.3479 18.8648 20.86 18.7138C20.2979 18.541 19.8932 18.3595 19.705 18.2763C19.6394 17.631 19.3747 17.0645 18.9 16.7363C18.3029 16.3229 17.5504 16.1457 16.765 16.0013C15.691 15.8045 15.1004 15.7563 14.105 15.0913C13.6479 14.7873 13.381 14.4613 13.1425 13.9013C12.9041 13.3413 12.7182 12.532 12.5125 11.4163C12.401 10.806 12.3354 9.19384 12.32 7.54884C12.3047 5.90384 12.32 4.18228 12.32 3.19134C12.32 2.50447 11.8257 1.98384 11.2525 1.68634C10.6794 1.38884 9.98379 1.24884 9.24004 1.24884ZM9.24004 2.36884C9.83286 2.36884 10.3907 2.50009 10.745 2.68384C11.0994 2.86759 11.2 3.02509 11.2 3.19134C11.2 4.16915 11.1847 5.90603 11.2 7.56634C11.2154 9.22665 11.2547 10.7798 11.41 11.6263C11.62 12.7638 11.806 13.6279 12.11 14.3388C12.4141 15.0498 12.8516 15.6032 13.475 16.0188C14.6388 16.7954 15.5379 16.9157 16.5725 17.1038C17.3032 17.2373 17.9288 17.4101 18.27 17.6463C18.6025 17.876 18.7294 18.0795 18.6725 18.5913C18.6704 18.6067 18.6747 18.611 18.6725 18.6263C18.666 18.6438 18.6594 18.6613 18.655 18.6788C18.6047 18.9785 18.3335 19.5407 17.99 20.1138C17.6357 20.7067 17.2354 21.2995 16.9575 21.7938C16.8307 21.9667 16.8132 22.1963 16.9116 22.3867C17.0122 22.577 17.2113 22.6929 17.4257 22.6863C17.6422 22.6798 17.8325 22.5507 17.92 22.3538C18.1541 21.9382 18.5741 21.3235 18.9525 20.6913C19.2063 20.267 19.3375 19.8273 19.495 19.3963C19.7772 19.5167 20.0047 19.637 20.5275 19.7988C21.2254 20.0132 21.781 19.8579 22.155 19.6938C22.5291 19.5298 22.8025 19.3876 23.555 19.3613C24.29 19.3351 25.3379 19.766 25.83 20.4463C26.1954 20.9517 26.2763 21.772 26.3025 22.1788C25.9197 22.3735 24.0035 23.3185 20.23 23.6838C16.4347 24.0513 13.6566 24.0732 8.83754 22.6163C7.97567 22.356 6.99348 22.251 6.09004 22.1963C5.18661 22.1417 4.34879 22.122 3.90254 22.0563C1.81129 21.7435 1.36067 21.6604 1.22504 21.6363C1.22286 21.6232 1.22942 21.632 1.22504 21.6188C1.17254 21.3957 1.10254 21.0326 1.10254 20.4988C1.10254 19.0507 1.57942 17.397 2.11754 16.2988C2.26629 15.9948 2.37786 15.6645 2.46754 15.3188C3.51973 15.857 6.66317 17.642 7.91004 20.5863C8.03036 20.8707 8.36067 21.0042 8.64504 20.8838C8.92942 20.7635 9.06286 20.4332 8.94254 20.1488C7.33692 16.3557 3.28129 14.4417 2.66004 14.1638C2.72786 13.5951 2.77379 12.9957 2.80004 12.3613C2.86348 10.8038 2.80004 6.60384 2.80004 5.79884C2.80004 4.84728 2.86129 4.25447 2.95754 3.99634C3.05379 3.73822 3.06254 3.73165 3.39504 3.66384C4.58067 3.42103 5.15161 3.58728 6.14254 3.33134C6.79879 3.1629 7.30192 2.89603 7.77004 2.70134C8.23817 2.50665 8.66692 2.36884 9.24004 2.36884ZM9.92254 3.85634C9.55067 3.85634 9.24004 4.16697 9.24004 4.53884C9.24004 4.91072 9.55067 5.20384 9.92254 5.20384C10.2944 5.20384 10.5875 4.91072 10.5875 4.53884C10.5875 4.16697 10.2944 3.85634 9.92254 3.85634ZM9.87004 6.81384C9.49817 6.81384 9.20504 7.12446 9.20504 7.49634C9.20504 7.86821 9.49817 8.16134 9.87004 8.16134C10.2419 8.16134 10.5525 7.86821 10.5525 7.49634C10.5525 7.12446 10.2419 6.81384 9.87004 6.81384ZM9.95754 9.59634C9.58567 9.59634 9.29254 9.90696 9.29254 10.2788C9.29254 10.6507 9.58567 10.9438 9.95754 10.9438C10.3294 10.9438 10.64 10.6507 10.64 10.2788C10.64 9.90696 10.3294 9.59634 9.95754 9.59634ZM10.36 12.6763C9.98817 12.6763 9.69504 12.9695 9.69504 13.3413C9.69504 13.7132 9.98817 14.0238 10.36 14.0238C10.7319 14.0238 11.0425 13.7132 11.0425 13.3413C11.0425 12.9695 10.7319 12.6763 10.36 12.6763ZM11.7075 15.1088C11.3357 15.1088 11.0425 15.4195 11.0425 15.7913C11.0425 16.1632 11.3357 16.4563 11.7075 16.4563C12.0794 16.4563 12.39 16.1632 12.39 15.7913C12.39 15.4195 12.0794 15.1088 11.7075 15.1088ZM13.825 16.6313C13.4532 16.6313 13.1425 16.942 13.1425 17.3138C13.1425 17.6857 13.4532 17.9788 13.825 17.9788C14.1969 17.9788 14.49 17.6857 14.49 17.3138C14.49 16.942 14.1969 16.6313 13.825 16.6313ZM16.4675 17.4888C16.0957 17.4888 15.785 17.782 15.785 18.1538C15.785 18.5257 16.0957 18.8363 16.4675 18.8363C16.8394 18.8363 17.1325 18.5257 17.1325 18.1538C17.1325 17.782 16.8394 17.4888 16.4675 17.4888ZM1.13754 22.7563C1.52254 22.8242 2.19192 22.9445 3.74504 23.1763C4.34223 23.266 5.14504 23.2638 6.02004 23.3163C6.89504 23.3688 7.82473 23.4717 8.52254 23.6838C13.4619 25.1757 16.4894 25.1582 20.335 24.7863C23.566 24.4735 25.7535 23.662 26.67 23.2638C26.6875 23.4017 26.6963 23.5482 26.7225 23.7013C26.7532 23.8785 26.7838 24.0535 26.81 24.1913C26.8188 24.2395 26.821 24.2767 26.8275 24.3138C26.74 24.3554 26.716 24.3663 26.6 24.4188C26.5147 24.4582 26.4338 24.4888 26.355 24.5238L26.215 24.3138C26.1232 24.1651 25.9679 24.0688 25.795 24.0513L25.4975 24.0163C25.4079 24.0076 25.3182 24.0185 25.235 24.0513C25.235 24.0513 25.0513 24.1367 24.8675 24.2088C24.7757 24.2438 24.6904 24.2723 24.6225 24.2963C24.5875 24.3073 24.546 24.327 24.535 24.3313C24.4016 24.3598 24.2835 24.4298 24.22 24.4888C24.1391 24.5654 24.1063 24.6288 24.08 24.6813C24.0275 24.7863 24.0079 24.8432 23.9925 24.9088C23.9641 25.0379 23.9575 25.1538 23.9575 25.1538L23.9225 25.5563C23.8175 25.5738 23.7782 25.5826 23.625 25.6088C23.5135 25.6285 23.4129 25.6438 23.31 25.6613C23.2947 25.6351 23.2925 25.6351 23.275 25.6088C23.2335 25.5432 23.1941 25.4776 23.1525 25.4163C23.111 25.3551 23.1088 25.3376 22.995 25.2238C22.8025 25.0313 22.6954 25.0379 22.61 25.0138C22.5247 24.9898 22.47 24.9788 22.47 24.9788C22.3957 24.9635 22.3169 24.9635 22.2425 24.9788C22.2425 24.9788 21.4266 25.1735 21.35 25.1888C21.2122 25.2173 21.0832 25.2742 20.9825 25.3463C20.9322 25.3813 20.895 25.4098 20.86 25.4513C20.825 25.4929 20.79 25.5738 20.79 25.5738C20.7835 25.5804 20.7791 25.5848 20.7725 25.5913C20.7725 25.5913 20.6916 25.7467 20.615 25.9238C20.5779 26.0113 20.5407 26.1142 20.51 26.2038C20.4947 26.2476 20.4882 26.2848 20.475 26.3438C20.4729 26.3526 20.4772 26.3701 20.475 26.3788C20.3657 26.3898 20.335 26.3832 20.195 26.3963C20.0704 26.4073 19.9522 26.4248 19.845 26.4313L19.8275 26.0988C19.8122 25.9567 19.7444 25.8254 19.635 25.7313C19.635 25.7313 19.4644 25.482 19.04 25.4338C18.9022 25.4185 18.8213 25.4338 18.6725 25.4338C18.5238 25.4338 18.3532 25.4317 18.165 25.4338C17.791 25.4382 17.3885 25.4338 17.255 25.4338C17.0582 25.4338 16.8832 25.5301 16.7825 25.6263C16.6819 25.7226 16.6229 25.8145 16.59 25.8888C16.5222 26.0354 16.5025 26.1688 16.5025 26.1688C16.4982 26.2038 16.4982 26.2388 16.5025 26.2738C16.5025 26.2738 16.5025 26.3548 16.5025 26.3963C16.4019 26.392 16.3954 26.3854 16.275 26.3788C16.1088 26.3701 15.9404 26.3657 15.8025 26.3613C15.7588 26.3592 15.7282 26.3635 15.6975 26.3613C15.6954 26.3438 15.6997 26.3438 15.6975 26.3263C15.6757 26.206 15.6625 26.0179 15.6625 26.0988C15.6625 25.8845 15.54 25.716 15.4525 25.6263C15.365 25.5367 15.2885 25.4842 15.225 25.4513C15.0982 25.3879 14.9975 25.3638 14.9975 25.3638C14.9275 25.3507 14.8575 25.3507 14.7875 25.3638C14.7875 25.3638 14.5316 25.3857 14.315 25.3638C14.081 25.3398 13.8185 25.3617 13.615 25.5563C13.4794 25.6876 13.5057 25.8057 13.4925 25.9238L13.44 25.9063C13.44 25.9063 13.4072 26.0004 13.3875 26.0988C13.2847 26.0879 13.2432 26.0857 13.0725 26.0638C12.8494 26.0354 12.6569 26.0004 12.5125 25.9763C12.5213 25.8188 12.5454 25.7379 12.53 25.5563C12.5038 25.2479 12.2479 24.9745 12.0575 24.8913C11.8979 24.8213 11.8016 24.8388 11.76 24.8388V24.8213C11.76 24.8213 11.7097 24.8213 11.7075 24.8213C11.6572 24.817 10.5766 24.7273 9.41504 24.6288C8.82004 24.5785 8.22067 24.5348 7.75254 24.4888C7.51848 24.4648 7.31942 24.4363 7.17504 24.4188C7.10286 24.4101 7.03942 24.4079 7.00004 24.4013C6.84473 24.3488 6.60411 24.3204 6.38754 24.4538C6.17098 24.5873 6.09223 24.8017 6.07254 24.9263C6.04629 25.086 6.07473 25.1101 6.09004 25.1713H6.07254V26.4488C5.71817 26.4488 4.70536 26.4488 4.16504 26.4488C4.15848 26.1776 4.14754 25.8013 4.14754 25.8013C4.14973 25.7773 4.14973 25.7554 4.14754 25.7313C4.14754 25.7313 4.08848 25.4885 3.92004 25.2938C3.75161 25.0992 3.44754 24.9329 3.08004 24.9088C2.70379 24.8848 2.35161 24.992 2.15254 25.2238C1.96661 25.4404 1.97754 25.6942 1.97754 25.7313H1.96004V25.7663C1.96004 25.8013 1.96004 26.1163 1.96004 26.4138C1.72817 26.4051 1.52473 26.4007 1.27754 26.3963L1.13754 22.7563Z" fill="#6979F8"/>
</g>
<defs>
<clipPath id="clip0_2511_700">
<rect width="28" height="28" fill="white" transform="translate(0 0.688843)"/>
</clipPath>
</defs>
</svg>
