<svg width="29" height="29" viewBox="0 0 29 29" fill="none" xmlns="http://www.w3.org/2000/svg">
<path d="M4.64465 8.40686L14.1447 12.9069L23.6447 8.40686M14.1447 24.9259V13.1659M15.0347 3.6158L23.0347 7.6158C23.3679 7.78138 23.6483 8.03662 23.8444 8.35284C24.0405 8.66906 24.1445 9.03371 24.1447 9.4058V18.9358C24.1445 19.3079 24.0405 19.6725 23.8444 19.9888C23.6483 20.305 23.3679 20.5602 23.0347 20.7258L15.0347 24.7258C14.7568 24.8648 14.4504 24.9372 14.1397 24.9372C13.829 24.9372 13.5226 24.8648 13.2447 24.7258L5.2447 20.7258C4.91183 20.5581 4.63245 20.3007 4.43809 19.9826C4.24373 19.6646 4.14211 19.2985 4.1447 18.9258V9.4058C4.1449 9.03371 4.24889 8.66906 4.44498 8.35284C4.64107 8.03662 4.92149 7.78138 5.2547 7.6158L13.2547 3.6158C13.5313 3.47837 13.8359 3.40686 14.1447 3.40686C14.4535 3.40686 14.7581 3.47837 15.0347 3.6158Z" stroke="#6979F8" stroke-linecap="round" stroke-linejoin="round"/>
</svg>
