<svg width="28" height="29" viewBox="0 0 28 29" fill="none" xmlns="http://www.w3.org/2000/svg">
<path d="M25.9351 4.06637C25.9045 4.07075 25.8761 4.07512 25.8476 4.08387C25.793 4.08825 25.7405 4.09919 25.6901 4.11887C24.8676 4.41856 24.4192 5.20825 24.1851 6.07887C23.9511 6.9495 23.903 7.96669 23.9401 9.03637C24.0036 10.9111 24.3142 12.8142 24.5351 14.1464C20.1383 14.2492 17.8086 15.3298 16.4151 16.4564C15.6845 17.047 15.2098 17.6464 14.8401 18.0314C14.4704 18.4164 14.2801 18.5389 14.0001 18.5389C13.7201 18.5389 13.5933 18.4317 13.2651 18.0489C12.937 17.6661 12.5148 17.0733 11.8126 16.4739C10.4717 15.332 8.12232 14.2448 3.46514 14.1464C3.68607 12.8142 3.9967 10.9111 4.06014 9.03637C4.09732 7.96669 4.0492 6.9495 3.81514 6.07887C3.58107 5.20825 3.13264 4.41856 2.31014 4.11887C2.23795 4.09262 2.1592 4.0795 2.08264 4.08387C1.79607 4.07294 1.54888 4.28075 1.50951 4.56512C1.46795 4.84731 1.64732 5.11637 1.92514 5.18637C2.28826 5.31981 2.54639 5.672 2.73014 6.35887C2.91389 7.04575 2.97514 7.99294 2.94014 9.00137C2.87014 11.0182 2.45232 13.2932 2.24014 14.6014C2.24014 14.6189 2.24014 14.6364 2.24014 14.6539C2.24014 14.6714 2.24014 14.6889 2.24014 14.7064C2.06076 15.6448 1.68014 17.3161 1.68014 19.7289C1.68014 21.0742 2.12639 22.472 3.09764 23.5439C4.06889 24.6157 5.56295 25.3289 7.54264 25.3289C9.79795 25.3289 10.9595 24.3292 11.7251 23.4564C12.1079 23.0189 12.4098 22.6273 12.7401 22.3714C13.0704 22.1154 13.4117 21.9689 14.0001 21.9689C14.5886 21.9689 14.9692 22.1242 15.3476 22.3889C15.7261 22.6536 16.0914 23.0451 16.5026 23.4739C17.3273 24.3314 18.4605 25.3289 20.4576 25.3289C22.4373 25.3289 23.9314 24.6157 24.9026 23.5439C25.8739 22.472 26.3201 21.0742 26.3201 19.7289C26.3201 17.3029 25.9373 15.6251 25.7601 14.6889C25.7623 14.6604 25.7623 14.6298 25.7601 14.6014C25.548 13.2932 25.1301 11.0182 25.0601 9.00137C25.0251 7.99294 25.0864 7.04575 25.2701 6.35887C25.4539 5.672 25.712 5.31981 26.0751 5.18637C26.3836 5.147 26.6045 4.86481 26.5651 4.55637C26.5258 4.24794 26.2436 4.027 25.9351 4.06637ZM3.25514 15.2664C7.84889 15.3364 9.93357 16.3404 11.0776 17.3139C11.6704 17.8192 12.027 18.3398 12.4076 18.7839C12.7883 19.2279 13.3001 19.6589 14.0001 19.6589C14.7001 19.6589 15.2186 19.2433 15.6451 18.8014C16.0717 18.3595 16.4808 17.8433 17.1151 17.3314C18.3358 16.3448 20.4248 15.3582 24.7451 15.2839C24.9376 16.2726 25.2001 17.6442 25.2001 19.7289C25.2001 20.8292 24.8392 21.9536 24.0801 22.7914C23.3211 23.6292 22.1748 24.2089 20.4576 24.2089C18.8039 24.2089 18.0973 23.5264 17.3076 22.7039C16.9139 22.2926 16.5179 21.8442 15.9951 21.4789C15.4723 21.1136 14.8117 20.8489 14.0001 20.8489C13.1886 20.8489 12.5411 21.1223 12.0576 21.4964C11.5742 21.8704 11.2395 22.3189 10.8851 22.7214C10.1786 23.5286 9.50045 24.2089 7.54264 24.2089C5.82545 24.2089 4.6792 23.6292 3.92014 22.7914C3.16107 21.9536 2.80014 20.8292 2.80014 19.7289C2.80014 17.6333 3.06264 16.2551 3.25514 15.2664Z" fill="#6979F8"/>
</svg>
