<svg width="29" height="29" viewBox="0 0 29 29" fill="none" xmlns="http://www.w3.org/2000/svg">
<path d="M18.385 23.2139V7.21387C18.385 6.68343 18.1743 6.17473 17.7992 5.79965C17.4242 5.42458 16.9154 5.21387 16.385 5.21387H12.385C11.8546 5.21387 11.3459 5.42458 10.9708 5.79965C10.5957 6.17473 10.385 6.68343 10.385 7.21387V23.2139M6.38501 9.21387H22.385C23.4896 9.21387 24.385 10.1093 24.385 11.2139V21.2139C24.385 22.3184 23.4896 23.2139 22.385 23.2139H6.38501C5.28044 23.2139 4.38501 22.3184 4.38501 21.2139V11.2139C4.38501 10.1093 5.28044 9.21387 6.38501 9.21387Z" stroke="#6979F8" stroke-linecap="round" stroke-linejoin="round"/>
</svg>
