<svg width="29" height="29" viewBox="0 0 29 29" fill="none" xmlns="http://www.w3.org/2000/svg">
<path d="M25.385 21.4069C25.385 21.9373 25.1743 22.446 24.7992 22.8211C24.4242 23.1961 23.9154 23.4069 23.385 23.4069H5.38501C4.85458 23.4069 4.34587 23.1961 3.9708 22.8211C3.59572 22.446 3.38501 21.9373 3.38501 21.4069V10.4069C3.38501 9.87643 3.59572 9.36772 3.9708 8.99265C4.34587 8.61757 4.85458 8.40686 5.38501 8.40686H9.38501L11.385 5.40686H17.385L19.385 8.40686H23.385C23.9154 8.40686 24.4242 8.61757 24.7992 8.99265C25.1743 9.36772 25.385 9.87643 25.385 10.4069V21.4069Z" stroke="#6979F8" stroke-linecap="round" stroke-linejoin="round"/>
<path d="M14.385 19.4069C16.5941 19.4069 18.385 17.616 18.385 15.4069C18.385 13.1977 16.5941 11.4069 14.385 11.4069C12.1759 11.4069 10.385 13.1977 10.385 15.4069C10.385 17.616 12.1759 19.4069 14.385 19.4069Z" stroke="#6979F8" stroke-linecap="round" stroke-linejoin="round"/>
</svg>
