<svg width="29" height="29" viewBox="0 0 29 29" fill="none" xmlns="http://www.w3.org/2000/svg">
<path d="M3.38501 3.40686L25.385 25.4069M17.665 17.6869C17.3331 18.1719 16.8984 18.5779 16.3918 18.8758C15.8852 19.1738 15.3192 19.3565 14.734 19.4109C14.1487 19.4652 13.5587 19.39 13.0059 19.1905C12.4531 18.9909 11.951 18.672 11.5354 18.2564C11.1198 17.8409 10.8009 17.3388 10.6014 16.786C10.4019 16.2331 10.3266 15.6431 10.381 15.0579C10.4354 14.4727 10.6181 13.9067 10.916 13.4001C11.214 12.8935 11.62 12.4588 12.105 12.1269M23.385 23.4069H5.38501C4.85458 23.4069 4.34587 23.1961 3.9708 22.8211C3.59572 22.446 3.38501 21.9373 3.38501 21.4069V10.4069C3.38501 9.87643 3.59572 9.36772 3.9708 8.99265C4.34587 8.61757 4.85458 8.40686 5.38501 8.40686H8.38501L23.385 23.4069ZM11.385 5.40686H17.385L19.385 8.40686H23.385C23.9154 8.40686 24.4242 8.61757 24.7992 8.99265C25.1743 9.36772 25.385 9.87643 25.385 10.4069V19.7469L11.385 5.40686Z" stroke="#6979F8" stroke-linecap="round" stroke-linejoin="round"/>
</svg>
