<svg width="29" height="29" viewBox="0 0 29 29" fill="none" xmlns="http://www.w3.org/2000/svg">
<mask id="path-1-inside-1_2511_811" fill="white">
<path d="M4.14465 9.40686V7.40686C4.14465 6.87643 4.35537 6.36772 4.73044 5.99265C5.10551 5.61757 5.61422 5.40686 6.14465 5.40686H22.1447C22.6751 5.40686 23.1838 5.61757 23.5589 5.99265C23.9339 6.36772 24.1447 6.87643 24.1447 7.40686V19.4069C24.1447 19.9373 23.9339 20.446 23.5589 20.8211C23.1838 21.1961 22.6751 21.4069 22.1447 21.4069H16.1447"/>
<path d="M5.14465 21.4069C5.14465 21.9591 4.69694 22.4069 4.14465 22.4069C3.59237 22.4069 3.14465 21.9591 3.14465 21.4069C3.14465 20.8546 3.59237 20.4069 4.14465 20.4069C4.69694 20.4069 5.14465 20.8546 5.14465 21.4069Z"/>
</mask>
<path d="M4.24457 17.0169C3.974 16.9618 3.70992 17.1364 3.65474 17.4069C3.59956 17.6775 3.77417 17.9416 4.04474 17.9968L4.24457 17.0169ZM7.55474 21.5068C7.60992 21.7773 7.874 21.952 8.14457 21.8968C8.41514 21.8416 8.58975 21.5775 8.53457 21.3069L7.55474 21.5068ZM4.19992 12.9599C3.92547 12.9294 3.67824 13.1271 3.64772 13.4016C3.61719 13.676 3.81493 13.9233 4.08938 13.9538L4.19992 12.9599ZM11.5977 21.4621C11.6282 21.7366 11.8755 21.9343 12.1499 21.9038C12.4244 21.8733 12.6221 21.626 12.5916 21.3516L11.5977 21.4621ZM4.04474 17.9968C4.90954 18.1731 5.70339 18.5999 6.32748 19.224L7.03459 18.5169C6.2718 17.7541 5.30155 17.2325 4.24457 17.0169L4.04474 17.9968ZM6.32748 19.224C6.95158 19.8481 7.37837 20.642 7.55474 21.5068L8.53457 21.3069C8.319 20.25 7.79737 19.2797 7.03459 18.5169L6.32748 19.224ZM4.08938 13.9538C6.00735 14.1671 7.79564 15.0267 9.16021 16.3913L9.86732 15.6842C8.34221 14.1591 6.34353 13.1983 4.19992 12.9599L4.08938 13.9538ZM9.16021 16.3913C10.5248 17.7559 11.3844 19.5442 11.5977 21.4621L12.5916 21.3516C12.3532 19.208 11.3924 17.2093 9.86732 15.6842L9.16021 16.3913ZM3.14465 9.40686C3.14465 9.95915 3.59237 10.4069 4.14465 10.4069C4.69694 10.4069 5.14465 9.95915 5.14465 9.40686H3.14465ZM6.14465 5.40686L6.14465 4.40686L6.14465 5.40686ZM22.1447 5.40686V4.40686V5.40686ZM16.1447 20.4069C15.5924 20.4069 15.1447 20.8546 15.1447 21.4069C15.1447 21.9591 15.5924 22.4069 16.1447 22.4069V20.4069ZM5.14465 9.40686V7.40686H3.14465V9.40686H5.14465ZM5.14465 7.40686C5.14465 7.14164 5.25001 6.88729 5.43755 6.69975L4.02333 5.28554C3.46072 5.84815 3.14465 6.61121 3.14465 7.40686H5.14465ZM5.43755 6.69975C5.62508 6.51222 5.87944 6.40686 6.14465 6.40686L6.14465 4.40686C5.349 4.40686 4.58594 4.72293 4.02333 5.28554L5.43755 6.69975ZM6.14465 6.40686H22.1447V4.40686H6.14465V6.40686ZM22.1447 6.40686C22.4099 6.40686 22.6642 6.51222 22.8518 6.69975L24.266 5.28554C23.7034 4.72293 22.9403 4.40686 22.1447 4.40686V6.40686ZM22.8518 6.69975C23.0393 6.88729 23.1447 7.14164 23.1447 7.40686H25.1447C25.1447 6.61121 24.8286 5.84815 24.266 5.28554L22.8518 6.69975ZM23.1447 7.40686V19.4069H25.1447V7.40686H23.1447ZM23.1447 19.4069C23.1447 19.6721 23.0393 19.9264 22.8518 20.114L24.266 21.5282C24.8286 20.9656 25.1447 20.2025 25.1447 19.4069H23.1447ZM22.8518 20.114C22.6642 20.3015 22.4099 20.4069 22.1447 20.4069V22.4069C22.9403 22.4069 23.7034 22.0908 24.266 21.5282L22.8518 20.114ZM22.1447 20.4069H16.1447V22.4069H22.1447V20.4069ZM4.14465 21.4069V23.4069C5.24922 23.4069 6.14465 22.5114 6.14465 21.4069H4.14465ZM4.14465 21.4069H2.14465C2.14465 22.5114 3.04008 23.4069 4.14465 23.4069V21.4069ZM4.14465 21.4069V19.4069C3.04008 19.4069 2.14465 20.3023 2.14465 21.4069H4.14465ZM4.14465 21.4069H6.14465C6.14465 20.3023 5.24922 19.4069 4.14465 19.4069V21.4069Z" fill="#6979F8" mask="url(#path-1-inside-1_2511_811)"/>
</svg>
