<svg width="28" height="29" viewBox="0 0 28 29" fill="none" xmlns="http://www.w3.org/2000/svg">
<path d="M17.9144 6.84882C17.8572 6.84963 17.8004 6.85922 17.746 6.87726L16.0627 7.43726C15.9625 7.47069 15.8739 7.53176 15.8069 7.61343C15.7399 7.69509 15.6974 7.79403 15.6843 7.89882C15.6843 7.89882 15.6661 8.08595 15.4951 8.4982C15.324 8.91044 15.0063 9.50518 14.4155 10.1946C14.2766 10.3567 14.1194 10.5251 13.9485 10.6966C13.9028 10.729 13.8623 10.7681 13.8282 10.8126C12.5285 12.0746 10.324 13.536 6.55584 14.714C5.61065 15.0095 4.09684 15.0255 2.74303 15.368C2.06613 15.5393 1.40879 15.8013 0.892407 16.2934C0.376021 16.7854 0.0447337 17.5086 0.00756347 18.4141C-0.0454789 19.7034 0.991764 20.7403 2.23991 20.8313V21.6888C2.23991 22.1525 2.61567 22.5288 3.07991 22.5288C3.54415 22.5288 3.91991 22.1525 3.91991 21.6888V20.8488H5.03991V21.6888C5.03991 22.1525 5.41567 22.5288 5.87991 22.5288C6.34415 22.5288 6.71991 22.1525 6.71991 21.6888V20.8488H7.83991V21.6888C7.83991 22.1525 8.21567 22.5288 8.67991 22.5288C9.14415 22.5288 9.51991 22.1525 9.51991 21.6888V20.8488H10.6399V21.6888C10.6399 22.1525 11.0157 22.5288 11.4799 22.5288C11.9441 22.5288 12.3199 22.1525 12.3199 21.6888V20.8488H21.2799V21.6888C21.2799 22.1525 21.6562 22.5288 22.1199 22.5288C22.5836 22.5288 22.9599 22.1525 22.9599 21.6888V20.8488H24.0799V21.6888C24.0799 22.1525 24.4562 22.5288 24.9199 22.5288C25.3836 22.5288 25.7599 22.1525 25.7599 21.6888V20.8105C26.4063 20.676 26.9379 20.172 27.0669 19.498C27.732 16.0272 27.4465 11.1804 26.8657 8.94773C26.8344 8.82768 26.7642 8.72141 26.666 8.6456C26.5678 8.56978 26.4472 8.52871 26.3232 8.52882C26.3232 8.52882 26.1591 8.55295 26.1558 8.55398C26.1526 8.55499 26.1516 8.55577 26.1504 8.55617C26.1479 8.55695 26.1458 8.55768 26.1438 8.55835C26.1398 8.5597 26.1349 8.56169 26.1285 8.56382C26.1157 8.56808 26.097 8.57363 26.0738 8.58132C26.0275 8.5967 25.9614 8.61849 25.8824 8.64476C25.7244 8.69729 25.5142 8.76725 25.3038 8.83726C24.8831 8.97728 24.4627 9.11726 24.4627 9.11726C24.3929 9.14055 24.3284 9.17737 24.2729 9.2256C24.2173 9.27383 24.1718 9.33253 24.139 9.39835C24.139 9.39834 23.7066 10.2088 22.9599 10.2088C21.7839 10.2088 20.6282 9.46896 19.7716 8.67757C18.9151 7.88619 18.3891 7.0982 18.3891 7.0982C18.3372 7.02025 18.2665 6.95658 18.1836 6.91301C18.1006 6.86944 18.0081 6.84737 17.9144 6.84882V6.84882ZM17.7515 8.05632C17.9268 8.30414 18.2317 8.77962 19.0115 9.50007C19.9732 10.3887 21.3359 11.3288 22.9599 11.3288C24.2124 11.3288 24.7816 10.4545 24.9702 10.1301C25.0839 10.0922 25.3141 10.0149 25.6582 9.90038C25.7278 9.8772 25.7818 9.85949 25.8496 9.83695C26.2868 11.9795 26.5406 16.2914 25.9666 19.2869C25.9174 19.544 25.6903 19.7288 25.4176 19.7288H19.6808L14.9668 11.2435C15.0669 11.1363 15.1758 11.0276 15.2654 10.923C15.9342 10.1425 16.3159 9.4422 16.5298 8.92695C16.6538 8.62807 16.6474 8.5701 16.684 8.41179L17.7515 8.05632ZM14.1323 12.0485L18.399 19.7288H16.8808L13.0735 12.8754C13.4652 12.5982 13.8178 12.3217 14.1323 12.0485ZM12.134 13.4912L15.599 19.7288H14.0808L10.9735 14.1365C11.388 13.9235 11.7759 13.7086 12.134 13.4912ZM9.96506 14.6276L12.799 19.7288H2.41381C1.69519 19.7288 1.09799 19.1523 1.12647 18.4601C1.15426 17.7831 1.35332 17.4015 1.66459 17.1049C1.97587 16.8083 2.44266 16.5985 3.01756 16.453C4.16738 16.1621 5.66684 16.1663 6.89053 15.7837C8.04397 15.4231 9.06252 15.0335 9.96506 14.6276Z" fill="#6979F8"/>
</svg>
