<svg width="29" height="29" viewBox="0 0 29 29" fill="none" xmlns="http://www.w3.org/2000/svg">
<path d="M18.8882 6.40686H20.8882C21.4186 6.40686 21.9273 6.61757 22.3024 6.99265C22.6775 7.36772 22.8882 7.87643 22.8882 8.40686V22.4069C22.8882 22.9373 22.6775 23.446 22.3024 23.8211C21.9273 24.1961 21.4186 24.4069 20.8882 24.4069H8.88818C8.35775 24.4069 7.84904 24.1961 7.47397 23.8211C7.0989 23.446 6.88818 22.9373 6.88818 22.4069V8.40686C6.88818 7.87643 7.0989 7.36772 7.47397 6.99265C7.84904 6.61757 8.35775 6.40686 8.88818 6.40686H10.8882M11.8882 4.40686H17.8882C18.4405 4.40686 18.8882 4.85458 18.8882 5.40686V7.40686C18.8882 7.95915 18.4405 8.40686 17.8882 8.40686H11.8882C11.3359 8.40686 10.8882 7.95915 10.8882 7.40686V5.40686C10.8882 4.85458 11.3359 4.40686 11.8882 4.40686Z" stroke="#6979F8" stroke-linecap="round" stroke-linejoin="round"/>
</svg>
