<svg width="28" height="29" viewBox="0 0 28 29" fill="none" xmlns="http://www.w3.org/2000/svg">
<g clip-path="url(#clip0_2511_703)">
<path d="M14 0.688843C12.1297 0.688843 10.9463 1.10228 10.57 1.24884C10.535 1.25759 10.4978 1.26853 10.465 1.28384C10.4519 1.28822 10.395 1.30134 10.395 1.30134C10.3447 1.32322 10.2966 1.35384 10.255 1.38884C10.255 1.39541 10.255 1.39978 10.255 1.40634C10.2288 1.42822 10.2069 1.45009 10.185 1.47634L9.0125 2.59634L6.7025 3.31384C6.685 3.31822 6.6675 3.32478 6.65 3.33134L6.5975 3.34884C6.58 3.35322 6.5625 3.35978 6.545 3.36634C6.53406 3.37072 6.52094 3.37728 6.51 3.38384C6.50344 3.39041 6.49906 3.39478 6.4925 3.40134C6.49031 3.40134 6.44438 3.41666 6.44 3.41884C6.42688 3.42978 6.41594 3.44072 6.405 3.45384C6.10313 3.61353 3.45188 5.06166 2.7475 7.88134C2.695 8.09353 2.49156 8.66009 2.2225 9.33384C1.95344 10.0076 1.62094 10.8192 1.295 11.6263C0.969063 12.4335 0.658437 13.2342 0.42 13.9188C0.181563 14.6035 0 15.1001 0 15.5813V24.2088C0 24.5173 0.251563 24.7688 0.56 24.7688H4.48C4.78844 24.7688 5.04 24.5173 5.04 24.2088V17.4888C5.04 17.561 5.05531 17.4123 5.11 17.2438C5.16469 17.0754 5.25 16.8501 5.355 16.5963C5.56281 16.091 5.84281 15.4698 6.125 14.8638C6.14906 14.8113 6.17094 14.7763 6.195 14.7238V28.1288C6.195 28.4373 6.44656 28.6888 6.755 28.6888H21.245C21.5534 28.6888 21.805 28.4373 21.805 28.1288V14.7238C21.8291 14.7763 21.8509 14.8113 21.875 14.8638C22.1572 15.4698 22.4372 16.091 22.645 16.5963C22.75 16.8501 22.8353 17.0754 22.89 17.2438C22.9447 17.4123 22.96 17.561 22.96 17.4888V24.2088C22.96 24.5173 23.2116 24.7688 23.52 24.7688H27.44C27.7484 24.7688 28 24.5173 28 24.2088V15.5813C28 15.1001 27.8184 14.6035 27.58 13.9188C27.3416 13.2342 27.0309 12.4335 26.705 11.6263C26.3791 10.8192 26.0466 10.0076 25.7775 9.33384C25.5084 8.66009 25.305 8.09353 25.2525 7.88134C24.5525 5.08134 21.9472 3.63103 21.6125 3.45384C21.5753 3.42541 21.5338 3.40134 21.49 3.38384C21.4791 3.37728 21.4659 3.37072 21.455 3.36634C21.4484 3.36634 21.4441 3.36634 21.4375 3.36634C21.4266 3.35978 21.4134 3.35322 21.4025 3.34884C21.385 3.34228 21.3675 3.33572 21.35 3.33134H21.3325C21.315 3.32478 21.2975 3.31822 21.28 3.31384L19.0225 2.61384H19.005L17.8325 1.49384C17.8216 1.48072 17.8106 1.46978 17.7975 1.45884L17.7625 1.40634C17.7559 1.40634 17.7516 1.40634 17.745 1.40634C17.7406 1.39541 17.7341 1.38228 17.7275 1.37134C17.7209 1.37134 17.7166 1.37134 17.71 1.37134C17.6991 1.35822 17.6881 1.34728 17.675 1.33634C17.6684 1.33634 17.6641 1.33634 17.6575 1.33634C17.6466 1.32978 17.6334 1.32322 17.6225 1.31884C17.6159 1.31228 17.6116 1.30791 17.605 1.30134C17.5547 1.27509 17.5022 1.25759 17.4475 1.24884C17.0975 1.11103 15.9075 0.688843 14 0.688843ZM14 1.80884C15.1769 1.80884 15.9753 1.96416 16.485 2.10634L14 5.83384L11.515 2.10634C12.0247 1.96416 12.8231 1.80884 14 1.80884ZM10.535 2.68384L13.1775 6.63884L11.0075 7.70634L9.905 3.29634L10.535 2.68384ZM17.465 2.68384L18.095 3.29634L16.9925 7.70634L14.8225 6.63884L17.465 2.68384ZM8.8725 3.82134L10.0975 8.66884C10.1391 8.83291 10.2506 8.96853 10.4038 9.04072C10.5569 9.11072 10.7341 9.11072 10.885 9.03634L14 7.47884L17.115 9.03634C17.2659 9.11072 17.4431 9.11072 17.5963 9.04072C17.7494 8.96853 17.8609 8.83291 17.9025 8.66884L19.1275 3.82134L20.615 4.27634C20.4728 4.95666 19.9063 7.98416 20.6675 12.2388C20.6697 12.2498 20.6653 12.2629 20.6675 12.2738C20.6675 12.2804 20.6675 12.2848 20.6675 12.2913C20.6719 12.322 20.6763 12.3504 20.685 12.3788C20.685 12.3854 20.685 12.3898 20.685 12.3963V27.5688H7.315V12.4138C7.34781 12.3176 7.35438 12.2148 7.3325 12.1163C8.12219 8.76072 7.51406 4.99603 7.385 4.27634L8.8725 3.82134ZM21.6475 4.80134C22.4547 5.37884 23.765 6.53166 24.1675 8.14384C24.2616 8.51791 24.4563 9.05166 24.7275 9.73634C24.9988 10.421 25.3334 11.2435 25.655 12.0463C25.9766 12.8492 26.3025 13.6345 26.53 14.2863C26.7575 14.9382 26.88 15.5201 26.88 15.5813V23.6488H24.08V17.4888C24.08 17.246 24.0275 17.1038 23.9575 16.8938C23.8875 16.6838 23.7869 16.4454 23.6775 16.1763C23.4566 15.6404 23.1766 15.006 22.89 14.3913C22.3475 13.232 21.8313 12.2192 21.77 12.0988C21.1706 8.79572 21.4484 6.07447 21.6475 4.80134ZM6.335 4.81884C6.53188 6.32166 6.83375 9.55259 6.2125 12.0113C6.20156 12.0573 6.195 12.1032 6.195 12.1513C6.10094 12.3417 5.63063 13.2801 5.11 14.3913C4.82344 15.006 4.54344 15.6404 4.3225 16.1763C4.21313 16.4454 4.1125 16.6838 4.0425 16.8938C3.9725 17.1038 3.92 17.246 3.92 17.4888V23.6488H1.12V15.5813C1.12 15.5201 1.2425 14.9382 1.47 14.2863C1.6975 13.6345 2.02344 12.8492 2.345 12.0463C2.66656 11.2435 3.00125 10.421 3.2725 9.73634C3.54375 9.05166 3.73844 8.51791 3.8325 8.14384C4.23281 6.54478 5.52563 5.40072 6.335 4.81884ZM11.76 12.4488C11.1409 12.4488 10.64 12.9498 10.64 13.5688C10.64 14.1879 11.1409 14.6888 11.76 14.6888C12.3791 14.6888 12.88 14.1879 12.88 13.5688C12.88 12.9498 12.3791 12.4488 11.76 12.4488ZM16.8 12.4488C16.1809 12.4488 15.68 12.9498 15.68 13.5688C15.68 14.1879 16.1809 14.6888 16.8 14.6888C17.4191 14.6888 17.92 14.1879 17.92 13.5688C17.92 12.9498 17.4191 12.4488 16.8 12.4488ZM11.76 16.9288C11.1409 16.9288 10.64 17.4298 10.64 18.0488C10.64 18.6679 11.1409 19.1688 11.76 19.1688C12.3791 19.1688 12.88 18.6679 12.88 18.0488C12.88 17.4298 12.3791 16.9288 11.76 16.9288ZM16.8 16.9288C16.1809 16.9288 15.68 17.4298 15.68 18.0488C15.68 18.6679 16.1809 19.1688 16.8 19.1688C17.4191 19.1688 17.92 18.6679 17.92 18.0488C17.92 17.4298 17.4191 16.9288 16.8 16.9288ZM11.76 21.4088C11.1409 21.4088 10.64 21.9098 10.64 22.5288C10.64 23.1479 11.1409 23.6488 11.76 23.6488C12.3791 23.6488 12.88 23.1479 12.88 22.5288C12.88 21.9098 12.3791 21.4088 11.76 21.4088ZM16.8 21.4088C16.1809 21.4088 15.68 21.9098 15.68 22.5288C15.68 23.1479 16.1809 23.6488 16.8 23.6488C17.4191 23.6488 17.92 23.1479 17.92 22.5288C17.92 21.9098 17.4191 21.4088 16.8 21.4088Z" fill="#6979F8"/>
</g>
<defs>
<clipPath id="clip0_2511_703">
<rect width="28" height="28" fill="white" transform="translate(0 0.688843)"/>
</clipPath>
</defs>
</svg>
