<svg width="29" height="29" viewBox="0 0 29 29" fill="none" xmlns="http://www.w3.org/2000/svg">
<path d="M7.88818 17.4069H6.88818C6.35775 17.4069 5.84904 17.1961 5.47397 16.8211C5.0989 16.446 4.88818 15.9373 4.88818 15.4069V6.40686C4.88818 5.87643 5.0989 5.36772 5.47397 4.99265C5.84904 4.61757 6.35775 4.40686 6.88818 4.40686H15.8882C16.4186 4.40686 16.9273 4.61757 17.3024 4.99265C17.6775 5.36772 17.8882 5.87643 17.8882 6.40686V7.40686M13.8882 11.4069H22.8882C23.9928 11.4069 24.8882 12.3023 24.8882 13.4069V22.4069C24.8882 23.5114 23.9928 24.4069 22.8882 24.4069H13.8882C12.7836 24.4069 11.8882 23.5114 11.8882 22.4069V13.4069C11.8882 12.3023 12.7836 11.4069 13.8882 11.4069Z" stroke="#6979F8" stroke-linecap="round" stroke-linejoin="round"/>
</svg>
