<svg width="28" height="29" viewBox="0 0 28 29" fill="none" xmlns="http://www.w3.org/2000/svg">
<path d="M13.9475 1.23135C13.9234 1.23573 13.8994 1.24229 13.8775 1.24885C13.6172 1.30791 13.4334 1.54198 13.44 1.80885V3.03385L11.2 3.50635C11.2 3.49979 11.2 3.49541 11.2 3.48885C11.2022 3.32698 11.1322 3.17385 11.0119 3.06666C10.8915 2.95948 10.7297 2.90916 10.57 2.92885C10.535 2.9376 10.4978 2.94854 10.465 2.96385L8.78498 3.52385C8.55748 3.59823 8.40217 3.81041 8.39998 4.04885C8.39998 4.07073 8.39998 4.09698 8.39998 4.11885L6.03748 4.62635C5.82311 4.64823 5.63936 4.7926 5.56717 4.99604C5.49498 5.19948 5.54748 5.42698 5.69842 5.5801C5.85154 5.73104 6.07904 5.78354 6.28248 5.71135L8.43498 5.23885C8.60342 8.78916 9.43029 12.591 9.50248 12.9214C9.50248 12.9389 9.50248 12.9564 9.50248 12.9739C9.44123 13.1839 7.05904 21.457 6.17748 26.3439C6.12279 26.6435 6.31748 26.9301 6.61498 26.9914C6.61498 26.9914 9.47404 27.5689 14 27.5689C18.5259 27.5689 21.385 26.9914 21.385 26.9914C21.6825 26.9301 21.8772 26.6435 21.8225 26.3439C20.9409 21.457 18.5587 13.1839 18.4975 12.9739C18.5478 12.7442 19.3944 8.84823 19.565 5.23885L21.7175 5.71135C21.9209 5.78354 22.1484 5.73104 22.3015 5.5801C22.4525 5.42698 22.505 5.19948 22.4328 4.99604C22.3606 4.7926 22.1769 4.64823 21.9625 4.62635L19.6 4.11885C19.6 4.09698 19.6 4.07073 19.6 4.04885C19.5978 3.81041 19.4425 3.59823 19.215 3.52385L17.535 2.96385C17.3665 2.90916 17.1806 2.93541 17.034 3.04041C16.8897 3.14323 16.8022 3.30948 16.8 3.48885C16.8 3.49541 16.8 3.49979 16.8 3.50635L14.56 3.03385V1.80885C14.5665 1.64698 14.5009 1.49166 14.385 1.38229C14.2669 1.27073 14.1072 1.21604 13.9475 1.23135ZM14 4.04885H14.0175L16.7125 4.64385C16.5047 5.89948 15.9469 6.47479 15.33 6.98885C14.9384 7.31479 14.5009 7.59041 14.1225 7.98635C14.0722 8.03885 14.0459 8.12198 14 8.17885C13.9562 8.12635 13.9234 8.05198 13.8775 8.00385C13.499 7.6101 13.079 7.33229 12.6875 7.00635C12.0706 6.4901 11.4997 5.90385 11.2875 4.64385L14 4.04885ZM10.1675 4.22385C10.3556 6.10948 11.1584 7.20104 11.9525 7.86385C12.4009 8.23791 12.8209 8.51135 13.0725 8.77385C13.324 9.03635 13.44 9.24198 13.44 9.64885H14.56C14.56 9.23104 14.6759 9.02104 14.9275 8.75635C15.179 8.49166 15.5815 8.21823 16.03 7.84635C16.824 7.18791 17.6444 6.10948 17.8325 4.22385L18.445 4.43385C18.3837 7.77198 17.6137 11.7314 17.4475 12.5539C16.7825 12.7004 15.2031 13.0089 14 13.0089C12.7969 13.0089 11.2175 12.7004 10.5525 12.5539C10.3884 11.7445 9.63592 7.89666 9.55498 4.59135C9.55498 4.57385 9.55498 4.55635 9.55498 4.53885C9.55498 4.50385 9.55498 4.46885 9.55498 4.43385L10.1675 4.22385ZM10.4825 13.6739C11.2503 13.8423 12.7181 14.1289 14 14.1289C15.2819 14.1289 16.7497 13.8423 17.5175 13.6739C17.885 14.9645 19.7487 21.5664 20.5975 25.9764C19.9194 26.0945 17.769 26.4489 14 26.4489C10.2309 26.4489 8.08061 26.0945 7.40248 25.9764C8.25123 21.5664 10.115 14.9645 10.4825 13.6739Z" fill="#6979F8"/>
</svg>
