<svg width="29" height="29" viewBox="0 0 29 29" fill="none" xmlns="http://www.w3.org/2000/svg">
<path d="M11.1447 3.40686V6.40686M17.1447 3.40686V6.40686M11.1447 22.4069V25.4069M17.1447 22.4069V25.4069M22.1447 11.4069H25.1447M22.1447 16.4069H25.1447M3.14465 11.4069H6.14465M3.14465 16.4069H6.14465M8.14465 6.40686H20.1447C21.2492 6.40686 22.1447 7.30229 22.1447 8.40686V20.4069C22.1447 21.5114 21.2492 22.4069 20.1447 22.4069H8.14465C7.04008 22.4069 6.14465 21.5114 6.14465 20.4069V8.40686C6.14465 7.30229 7.04008 6.40686 8.14465 6.40686ZM11.1447 11.4069H17.1447V17.4069H11.1447V11.4069Z" stroke="#6979F8" stroke-linecap="round" stroke-linejoin="round"/>
</svg>
