<svg width="29" height="29" viewBox="0 0 29 29" fill="none" xmlns="http://www.w3.org/2000/svg">
<path d="M23.1447 7.40686C23.1447 9.06371 19.1152 10.4069 14.1447 10.4069C9.17409 10.4069 5.14465 9.06371 5.14465 7.40686M23.1447 7.40686C23.1447 5.75001 19.1152 4.40686 14.1447 4.40686C9.17409 4.40686 5.14465 5.75001 5.14465 7.40686M23.1447 7.40686V21.4069C23.1447 23.0669 19.1447 24.4069 14.1447 24.4069C9.14465 24.4069 5.14465 23.0669 5.14465 21.4069V7.40686M23.1447 14.4069C23.1447 16.0669 19.1447 17.4069 14.1447 17.4069C9.14465 17.4069 5.14465 16.0669 5.14465 14.4069" stroke="#6979F8" stroke-linecap="round" stroke-linejoin="round"/>
</svg>
