<svg width="29" height="29" viewBox="0 0 29 29" fill="none" xmlns="http://www.w3.org/2000/svg">
<path d="M10.1536 19.5919L14.1536 23.5919M14.1536 23.5919L18.1536 19.5919M14.1536 23.5919V14.5919M23.0336 20.6819C23.903 20.0705 24.555 19.198 24.8949 18.191C25.2348 17.184 25.245 16.0949 24.924 15.0817C24.603 14.0685 23.9675 13.1839 23.1097 12.5564C22.2519 11.9289 21.2164 11.591 20.1536 11.5919H18.8936C18.5929 10.4197 18.0301 9.3311 17.2477 8.40793C16.4654 7.48476 15.4838 6.75111 14.3768 6.26221C13.2699 5.7733 12.0665 5.54188 10.8571 5.58537C9.64783 5.62886 8.46413 5.94612 7.39517 6.51328C6.32621 7.08043 5.39984 7.8827 4.68581 8.85968C3.97177 9.83666 3.48867 10.9629 3.27288 12.1536C3.05709 13.3443 3.11423 14.5684 3.44 15.7339C3.76577 16.8993 4.35168 17.9756 5.15362 18.8819" stroke="#6979F8" stroke-linecap="round" stroke-linejoin="round"/>
</svg>
