<svg width="29" height="29" viewBox="0 0 29 29" fill="none" xmlns="http://www.w3.org/2000/svg">
<path d="M20.7615 14.3305C20.7615 19.1966 16.793 23.1651 11.9268 23.1651C7.01343 23.2124 3.04492 19.2439 3.04492 14.3305C3.04492 9.46435 7.01343 5.49585 11.8796 5.49585C16.793 5.49585 20.7615 9.46435 20.7615 14.3305Z" stroke="#6979F8" stroke-miterlimit="10"/>
<path d="M14.3362 9.84231C14.3362 11.1651 13.2496 12.299 11.8795 12.299C10.5567 12.299 9.42285 11.2124 9.42285 9.84231C9.42285 8.51948 10.5095 7.38562 11.8795 7.38562C13.2496 7.38562 14.3362 8.47223 14.3362 9.84231Z" stroke="#6979F8" stroke-miterlimit="10"/>
<path d="M14.3362 18.8661C14.3362 20.189 13.2496 21.3228 11.8795 21.3228C10.5567 21.3228 9.42285 20.2362 9.42285 18.8661C9.42285 17.5433 10.5095 16.4094 11.8795 16.4094C13.2496 16.4094 14.3362 17.496 14.3362 18.8661Z" stroke="#6979F8" stroke-miterlimit="10"/>
<path d="M16.4149 16.7872C15.0921 16.7872 13.9583 15.7006 13.9583 14.3305C13.9583 13.0076 15.0449 11.8738 16.4149 11.8738C17.7378 11.8738 18.8716 12.9604 18.8716 14.3305C18.8244 15.7006 17.7378 16.7872 16.4149 16.7872Z" stroke="#6979F8" stroke-miterlimit="10"/>
<path d="M7.39126 16.7872C6.06843 16.7872 4.93457 15.7006 4.93457 14.3305C4.93457 13.0076 6.02118 11.8738 7.39126 11.8738C8.7141 11.8738 9.84796 12.9604 9.84796 14.3305C9.80071 15.7006 8.7141 16.7872 7.39126 16.7872Z" stroke="#6979F8" stroke-miterlimit="10"/>
<path d="M15.8481 6.44071C17.9269 6.29898 21.4702 5.02339 22.1789 7.99976C22.4623 9.22811 22.2261 11.1651 23.3127 12.0628C24.3048 12.9131 25.6277 13.1021 25.7222 14.6612C25.7694 15.8895 25.2497 17.4486 24.5411 18.488C24.0686 19.1966 23.5489 19.7163 23.3127 20.5667C23.0292 21.5116 22.982 22.5037 22.982 23.4958" stroke="#6979F8" stroke-miterlimit="10"/>
</svg>
