<svg width="29" height="29" viewBox="0 0 29 29" fill="none" xmlns="http://www.w3.org/2000/svg">
<path d="M16.549 16.6158C16.2743 16.9106 15.9431 17.147 15.5751 17.311C15.2071 17.4749 14.8099 17.5631 14.407 17.5702C14.0042 17.5773 13.6041 17.5032 13.2306 17.3523C12.857 17.2015 12.5177 16.9769 12.2328 16.692C11.9479 16.4071 11.7233 16.0678 11.5725 15.6942C11.4216 15.3207 11.3475 14.9206 11.3546 14.5178C11.3617 14.1149 11.4499 13.7177 11.6138 13.3497C11.7778 12.9817 12.0142 12.6505 12.309 12.3759M3.42896 3.49585L25.429 25.4958M20.369 20.4359C18.6595 21.7389 16.5781 22.4607 14.429 22.4958C7.42896 22.4958 3.42896 14.4958 3.42896 14.4958C4.67285 12.1777 6.39809 10.1525 8.48896 8.55585L20.369 20.4359ZM12.329 6.73585C13.0173 6.57473 13.722 6.49419 14.429 6.49585C21.429 6.49585 25.429 14.4958 25.429 14.4958C24.8219 15.6315 24.098 16.7006 23.269 17.6858L12.329 6.73585Z" stroke="#6979F8" stroke-linecap="round" stroke-linejoin="round"/>
</svg>
