<svg width="29" height="29" viewBox="0 0 29 29" fill="none" xmlns="http://www.w3.org/2000/svg">
<path d="M16.1447 4.5802H8.14465C7.61422 4.5802 7.10551 4.79091 6.73044 5.16599C6.35537 5.54106 6.14465 6.04977 6.14465 6.5802V22.5802C6.14465 23.1106 6.35537 23.6193 6.73044 23.9944C7.10551 24.3695 7.61422 24.5802 8.14465 24.5802H20.1447C20.6751 24.5802 21.1838 24.3695 21.5589 23.9944C21.9339 23.6193 22.1447 23.1106 22.1447 22.5802V10.5802M16.1447 4.5802L22.1447 10.5802M16.1447 4.5802V10.5802H22.1447M18.1447 15.5802H10.1447M18.1447 19.5802H10.1447M12.1447 11.5802H10.1447" stroke="#6979F8" stroke-linecap="round" stroke-linejoin="round"/>
</svg>
