<svg width="28" height="29" viewBox="0 0 28 29" fill="none" xmlns="http://www.w3.org/2000/svg">
<path d="M7.84 1.80884C5.66562 1.80884 3.94625 2.76915 2.8175 4.16259C1.68656 5.55384 1.12 7.35634 1.12 9.11727C1.12 12.5866 2.84593 16.511 3.50218 19.8929C3.74281 21.1354 4.04031 23.0079 4.04031 23.0079V23.0013C4.1125 23.4826 4.28312 24.6026 4.97656 25.6307C5.67 26.6588 6.94968 27.5688 8.96 27.5688C10.0144 27.5688 11.1628 27.2407 12.0312 26.3416C12.8975 25.4404 13.44 24.0185 13.44 21.9688C13.44 20.4529 12.88 18.3288 12.88 16.0429C12.88 12.5429 13.44 10.7273 13.44 7.40884C13.44 5.60852 12.7947 4.17353 11.7556 3.22196C10.7166 2.2704 9.31218 1.80884 7.84 1.80884ZM20.16 1.80884C18.6878 1.80884 17.2834 2.2704 16.2444 3.22196C15.2053 4.17353 14.56 5.60852 14.56 7.40884C14.56 10.7273 15.12 12.5429 15.12 16.0429C15.12 18.3288 14.56 20.4529 14.56 21.9688C14.56 24.0185 15.1025 25.4404 15.9687 26.3416C16.8372 27.2407 17.9856 27.5688 19.04 27.5688C21.0503 27.5688 22.33 26.6588 23.0234 25.6307C23.7169 24.6026 23.8875 23.4826 23.9597 23.0013V23.0057C23.9597 23.0057 24.2572 21.1376 24.4978 19.8929C25.1541 16.511 26.88 12.5866 26.88 9.11727C26.88 7.35852 26.3134 5.55384 25.1825 4.16259C24.0537 2.76915 22.3344 1.80884 20.16 1.80884ZM7.84 2.92884C9.08031 2.92884 10.1981 3.31603 10.9987 4.04884C11.8016 4.78165 12.32 5.86665 12.32 7.40884C12.32 10.6004 11.76 12.4248 11.76 16.0429C11.76 18.5038 12.32 20.7591 12.32 21.9688C12.32 23.8238 11.8453 24.9198 11.2241 25.5651C10.6006 26.2082 9.78906 26.4488 8.96 26.4488C7.26687 26.4488 6.43125 25.786 5.90406 25.0051C5.37687 24.222 5.21718 23.2988 5.14718 22.8351C5.14718 22.8351 5.14718 22.8329 5.14718 22.8307C5.14718 22.8307 4.84968 20.9604 4.6025 19.6785C3.90906 16.1063 2.24 12.1995 2.24 9.11727C2.24 7.60134 2.74093 6.03071 3.68593 4.86696C4.63093 3.70321 5.98937 2.92884 7.84 2.92884ZM20.16 2.92884C22.0106 2.92884 23.3691 3.70321 24.3141 4.86696C25.2591 6.03071 25.76 7.60134 25.76 9.11727C25.76 12.1995 24.0909 16.1063 23.3975 19.6785C23.1503 20.9604 22.8528 22.8285 22.8528 22.8285C22.8528 22.8307 22.8528 22.8329 22.8528 22.8351C22.7828 23.2966 22.6231 24.222 22.0959 25.0051C21.5687 25.786 20.7331 26.4488 19.04 26.4488C18.2109 26.4488 17.3994 26.2082 16.7759 25.5651C16.1547 24.9198 15.68 23.8238 15.68 21.9688C15.68 20.7591 16.24 18.5038 16.24 16.0429C16.24 12.4248 15.68 10.6004 15.68 7.40884C15.68 5.86665 16.1984 4.78165 17.0012 4.04884C17.8019 3.31603 18.9197 2.92884 20.16 2.92884ZM7.28 5.16884C1.99062 8.87665 4.32687 17.2788 4.87593 18.1713C6.265 20.4288 7.37406 18.1823 6.2475 17.7141C4.27437 16.5876 4.71625 8.54415 7.28 6.84884C9.30562 9.05384 11.2897 12.1163 9.73875 16.3645C8.92937 17.7207 10.6159 19.2104 10.9791 16.6488C11.0687 15.9226 11.2 15.426 11.2 12.7376C11.2 10.5348 9.82625 6.46165 7.28 5.16884ZM20.72 5.16884C18.1737 6.46165 16.8 10.5348 16.8 12.7376C16.8 15.426 16.9291 15.9204 17.0187 16.6488C17.3819 19.2104 19.0706 17.7207 18.2612 16.3666C16.7103 12.1185 18.6944 9.05384 20.72 6.84884C23.2837 8.54415 23.7234 16.5876 21.7525 17.7141C20.6259 18.1823 21.7372 20.4288 23.1262 18.1713C23.6731 17.2788 26.0094 8.87665 20.72 5.16884Z" fill="#6979F8"/>
</svg>
