<svg width="29" height="29" viewBox="0 0 29 29" fill="none" xmlns="http://www.w3.org/2000/svg">
<path d="M20.2473 5.49585L4.37231 17.3709L23.2057 23.4958C23.2473 23.4958 27.289 16.1209 20.2473 5.49585Z" stroke="#6979F8" stroke-miterlimit="10"/>
<path d="M18.2473 7.12079C18.4556 8.49579 19.7056 8.91246 20.3723 10.0375C21.0806 11.1625 20.8306 12.2041 20.914 13.4541C20.9973 14.6625 21.9556 15.4125 22.2056 16.5375C22.414 17.5791 21.3723 18.0791 21.4556 19.0791C21.4973 19.7041 21.8723 20.4958 21.789 21.1208C21.7056 21.7458 21.164 22.3291 20.789 22.7875" stroke="#6979F8" stroke-miterlimit="10"/>
<path d="M17.164 15.1208C16.2057 15.2875 15.3307 14.6208 15.164 13.6625C14.9973 12.7041 15.664 11.8291 16.6223 11.6625C17.5807 11.4958 18.4557 12.1625 18.6223 13.1208C18.789 14.0791 18.1223 14.9541 17.164 15.1208Z" stroke="#6979F8" stroke-miterlimit="10"/>
<path d="M18.2474 19.8292C17.3724 19.9542 16.5391 19.3709 16.3724 18.4959C16.2057 17.6209 16.8307 16.7876 17.7474 16.6209C18.6224 16.4959 19.4557 17.0792 19.6224 17.9542C19.7474 18.8292 19.1641 19.6626 18.2474 19.8292Z" stroke="#6979F8" stroke-miterlimit="10"/>
<path d="M12.7889 17.5792C11.9556 17.7042 11.1639 17.1625 11.0389 16.3292C10.9139 15.4958 11.4556 14.7042 12.2889 14.5792C13.1222 14.4542 13.9139 14.9958 14.0389 15.8292C14.1639 16.6625 13.6222 17.4125 12.7889 17.5792Z" stroke="#6979F8" stroke-miterlimit="10"/>
</svg>
