<svg width="28" height="29" viewBox="0 0 28 29" fill="none" xmlns="http://www.w3.org/2000/svg">
<path d="M11.4625 8.35387C11.41 8.35606 11.3575 8.35825 11.305 8.37137C11.0993 8.42606 10.92 8.55294 10.78 8.70387C10.6684 8.82637 10.6815 8.85044 10.6575 8.89637C10.6334 8.94231 10.6115 9.00137 10.5875 9.05387C10.5393 9.16106 10.4868 9.28794 10.4125 9.43887C10.2659 9.74294 10.0581 10.1192 9.78246 10.4889C9.23121 11.2261 8.46778 11.8889 7.27996 11.8889C6.29996 11.8889 5.24996 11.5148 4.28746 11.1014C3.32496 10.6879 2.51996 10.2089 1.67996 10.2089C1.47434 10.2111 1.28621 10.3248 1.18996 10.5064C0.492151 11.8451 0.538089 13.5754 0.577463 14.7239C0.647463 16.7976 1.07184 18.4908 1.11996 18.6789V20.8489C1.11996 21.1573 1.37153 21.4089 1.67996 21.4089H7.83996C8.1484 21.4089 8.39996 21.1573 8.39996 20.8489V19.1864C9.59653 19.2301 10.2528 19.3089 10.71 19.5189C13.0287 20.582 13.7703 21.4089 19.04 21.4089C22.7981 21.4089 24.769 21.3083 25.8825 21.0939C26.4403 20.9867 26.8056 20.862 27.09 20.6039C27.3743 20.3458 27.44 19.9433 27.44 19.7289C27.44 18.4383 27.0068 17.4123 26.32 16.6664C25.6331 15.9204 24.7275 15.4567 23.7825 15.1089C21.8925 14.4111 19.7553 14.1376 18.725 13.6214C17.605 13.0614 15.925 11.8145 14.56 10.7164C13.195 9.61825 12.1275 8.66887 12.1275 8.66887L12.11 8.68637C12.0575 8.60106 12.0618 8.53544 11.8825 8.44137C11.7709 8.38231 11.62 8.34731 11.4625 8.35387ZM11.55 9.64887C11.679 9.76262 12.5628 10.5458 13.86 11.5914C15.249 12.7092 16.9312 13.9845 18.235 14.6364C19.6284 15.3342 21.6934 15.5311 23.3975 16.1589C24.2484 16.4739 24.9878 16.8654 25.4975 17.4189C26.0071 17.9723 26.32 18.6767 26.32 19.7289C26.32 19.7683 26.3331 19.7617 26.3375 19.7639C26.3221 19.777 26.1384 19.9017 25.6725 19.9914C24.7406 20.1708 22.7762 20.2889 19.04 20.2889C13.8775 20.2889 13.6237 19.6239 11.1825 18.5039C10.4168 18.1517 9.58121 18.097 7.99746 18.0664C7.98653 18.0664 7.9734 18.0664 7.96246 18.0664C7.92309 18.0554 7.88153 18.0511 7.83996 18.0489H7.01746C6.70246 18.0445 6.43996 18.0379 6.07246 18.0314C6.0659 18.0248 6.06153 18.0204 6.05496 18.0139L2.13496 18.0489C2.02121 17.5654 1.75434 16.3579 1.69746 14.6889C1.66465 13.7089 1.73246 12.4183 2.06496 11.4689C2.45871 11.5695 3.01215 11.7642 3.83246 12.1164C4.82996 12.5429 6.01996 13.0089 7.27996 13.0089C8.89215 13.0089 10.0034 12.0726 10.675 11.1714C11.0118 10.7208 11.2634 10.2701 11.4275 9.92887C11.4822 9.81512 11.5106 9.73419 11.55 9.64887ZM2.23996 19.1689H7.27996V20.2889H2.23996V19.1689Z" fill="#6979F8"/>
</svg>
