<svg width="29" height="29" viewBox="0 0 29 29" fill="none" xmlns="http://www.w3.org/2000/svg">
<path d="M24.0617 13.7354C23.2275 10.1067 20.9751 7.52071 19.0982 7.9378C18.5143 8.06293 18.0555 8.48003 17.6801 9.06397C17.6801 9.06397 14.7187 11.066 11.0899 9.06397C10.7146 8.48003 10.2558 8.06293 9.67182 7.9378C7.79488 7.52071 5.54256 10.1067 4.70837 13.7354C3.87417 17.3642 4.70837 20.6593 6.5853 21.0763C8.21198 21.4517 12.0493 16.822 12.0493 16.822C12.0493 16.822 14.385 14.6113 16.3871 16.822C16.3871 16.822 20.558 21.4517 22.1847 21.0763C24.0617 20.6175 24.8958 17.3642 24.0617 13.7354Z" stroke="#6979F8" stroke-miterlimit="10" stroke-linejoin="round"/>
<path d="M20.2661 11.7334C20.2661 12.2339 19.849 12.651 19.3485 12.651C18.848 12.651 18.4309 12.2339 18.4309 11.7334C18.4309 11.2329 18.848 10.8158 19.3485 10.8158C19.849 10.8158 20.2661 11.2329 20.2661 11.7334Z" stroke="#6979F8" stroke-miterlimit="10" stroke-linejoin="round"/>
<path d="M20.2661 15.9461C20.2661 16.4466 19.849 16.8637 19.3485 16.8637C18.848 16.8637 18.4309 16.4466 18.4309 15.9461C18.4309 15.4455 18.848 15.0284 19.3485 15.0284C19.849 15.0284 20.2661 15.4455 20.2661 15.9461Z" stroke="#6979F8" stroke-miterlimit="10" stroke-linejoin="round"/>
<path d="M21.434 14.7781C20.9335 14.7781 20.5164 14.361 20.5164 13.8605C20.5164 13.36 20.9335 12.9429 21.434 12.9429C21.9345 12.9429 22.3516 13.36 22.3516 13.8605C22.3516 14.361 21.9345 14.7781 21.434 14.7781Z" stroke="#6979F8" stroke-miterlimit="10" stroke-linejoin="round"/>
<path d="M17.2213 14.7782C16.7208 14.7782 16.3037 14.3611 16.3037 13.8605C16.3037 13.36 16.7208 12.9429 17.2213 12.9429C17.7218 12.9429 18.1389 13.36 18.1389 13.8605C18.1806 14.3611 17.7635 14.7782 17.2213 14.7782Z" stroke="#6979F8" stroke-miterlimit="10" stroke-linejoin="round"/>
<path d="M11.8406 13.1516C11.8406 14.6114 10.6728 15.7793 9.21291 15.7793C7.75308 15.7793 6.58521 14.6114 6.58521 13.1516C6.58521 11.6917 7.75308 10.5239 9.21291 10.5239C10.6728 10.5656 11.8406 11.7334 11.8406 13.1516Z" stroke="#6979F8" stroke-miterlimit="10" stroke-linejoin="round"/>
</svg>
