<svg width="29" height="29" viewBox="0 0 29 29" fill="none" xmlns="http://www.w3.org/2000/svg">
<mask id="path-1-inside-1_2511_684" fill="white">
<path d="M12.5163 6.33483V12.7797H6.0714V6.33483H12.5163ZM13.3553 5.49585H5.23242V13.6187H13.3553V5.49585Z"/>
</mask>
<path d="M12.5163 6.33483H13.5163V5.33483H12.5163V6.33483ZM12.5163 12.7797V13.7797H13.5163V12.7797H12.5163ZM6.0714 12.7797H5.0714V13.7797H6.0714V12.7797ZM6.0714 6.33483V5.33483H5.0714V6.33483H6.0714ZM13.3553 5.49585H14.3553V4.49585H13.3553V5.49585ZM5.23242 5.49585V4.49585H4.23242V5.49585H5.23242ZM5.23242 13.6187H4.23242V14.6187H5.23242V13.6187ZM13.3553 13.6187V14.6187H14.3553V13.6187H13.3553ZM11.5163 6.33483V12.7797H13.5163V6.33483H11.5163ZM12.5163 11.7797H6.0714V13.7797H12.5163V11.7797ZM7.0714 12.7797V6.33483H5.0714V12.7797H7.0714ZM6.0714 7.33483H12.5163V5.33483H6.0714V7.33483ZM13.3553 4.49585H5.23242V6.49585H13.3553V4.49585ZM4.23242 5.49585V13.6187H6.23242V5.49585H4.23242ZM5.23242 14.6187H13.3553V12.6187H5.23242V14.6187ZM14.3553 13.6187V5.49585H12.3553V13.6187H14.3553Z" fill="#6979F8" mask="url(#path-1-inside-1_2511_684)"/>
<mask id="path-3-inside-2_2511_684" fill="white">
<path d="M22.6984 6.33483V12.7797H16.2535V6.33483H22.6984ZM23.5374 5.49585H15.4146V13.6187H23.5374V5.49585Z"/>
</mask>
<path d="M22.6984 6.33483H23.6984V5.33483H22.6984V6.33483ZM22.6984 12.7797V13.7797H23.6984V12.7797H22.6984ZM16.2535 12.7797H15.2535V13.7797H16.2535V12.7797ZM16.2535 6.33483V5.33483H15.2535V6.33483H16.2535ZM23.5374 5.49585H24.5374V4.49585H23.5374V5.49585ZM15.4146 5.49585V4.49585H14.4146V5.49585H15.4146ZM15.4146 13.6187H14.4146V14.6187H15.4146V13.6187ZM23.5374 13.6187V14.6187H24.5374V13.6187H23.5374ZM21.6984 6.33483V12.7797H23.6984V6.33483H21.6984ZM22.6984 11.7797H16.2535V13.7797H22.6984V11.7797ZM17.2535 12.7797V6.33483H15.2535V12.7797H17.2535ZM16.2535 7.33483H22.6984V5.33483H16.2535V7.33483ZM23.5374 4.49585H15.4146V6.49585H23.5374V4.49585ZM14.4146 5.49585V13.6187H16.4146V5.49585H14.4146ZM15.4146 14.6187H23.5374V12.6187H15.4146V14.6187ZM24.5374 13.6187V5.49585H22.5374V13.6187H24.5374Z" fill="#6979F8" mask="url(#path-3-inside-2_2511_684)"/>
<mask id="path-5-inside-3_2511_684" fill="white">
<path d="M12.5163 16.1738V22.6568H6.0714V16.1738H12.5163ZM13.3553 15.3729H5.23242V23.4958H13.3553V15.3729Z"/>
</mask>
<path d="M12.5163 16.1738H13.5163V15.1738H12.5163V16.1738ZM12.5163 22.6568V23.6568H13.5163V22.6568H12.5163ZM6.0714 22.6568H5.0714V23.6568H6.0714V22.6568ZM6.0714 16.1738V15.1738H5.0714V16.1738H6.0714ZM13.3553 15.3729H14.3553V14.3729H13.3553V15.3729ZM5.23242 15.3729V14.3729H4.23242V15.3729H5.23242ZM5.23242 23.4958H4.23242V24.4958H5.23242V23.4958ZM13.3553 23.4958V24.4958H14.3553V23.4958H13.3553ZM11.5163 16.1738V22.6568H13.5163V16.1738H11.5163ZM12.5163 21.6568H6.0714V23.6568H12.5163V21.6568ZM7.0714 22.6568V16.1738H5.0714V22.6568H7.0714ZM6.0714 17.1738H12.5163V15.1738H6.0714V17.1738ZM13.3553 14.3729H5.23242V16.3729H13.3553V14.3729ZM4.23242 15.3729V23.4958H6.23242V15.3729H4.23242ZM5.23242 24.4958H13.3553V22.4958H5.23242V24.4958ZM14.3553 23.4958V15.3729H12.3553V23.4958H14.3553Z" fill="#6979F8" mask="url(#path-5-inside-3_2511_684)"/>
<mask id="path-7-inside-4_2511_684" fill="white">
<path d="M22.6984 16.1738V22.6568H16.2535V16.1738H22.6984ZM23.5374 15.3729H15.4146V23.4958H23.5374V15.3729Z"/>
</mask>
<path d="M22.6984 16.1738H23.6984V15.1738H22.6984V16.1738ZM22.6984 22.6568V23.6568H23.6984V22.6568H22.6984ZM16.2535 22.6568H15.2535V23.6568H16.2535V22.6568ZM16.2535 16.1738V15.1738H15.2535V16.1738H16.2535ZM23.5374 15.3729H24.5374V14.3729H23.5374V15.3729ZM15.4146 15.3729V14.3729H14.4146V15.3729H15.4146ZM15.4146 23.4958H14.4146V24.4958H15.4146V23.4958ZM23.5374 23.4958V24.4958H24.5374V23.4958H23.5374ZM21.6984 16.1738V22.6568H23.6984V16.1738H21.6984ZM22.6984 21.6568H16.2535V23.6568H22.6984V21.6568ZM17.2535 22.6568V16.1738H15.2535V22.6568H17.2535ZM16.2535 17.1738H22.6984V15.1738H16.2535V17.1738ZM23.5374 14.3729H15.4146V16.3729H23.5374V14.3729ZM14.4146 15.3729V23.4958H16.4146V15.3729H14.4146ZM15.4146 24.4958H23.5374V22.4958H15.4146V24.4958ZM24.5374 23.4958V15.3729H22.5374V23.4958H24.5374Z" fill="#6979F8" mask="url(#path-7-inside-4_2511_684)"/>
</svg>
