<svg width="29" height="29" viewBox="0 0 29 29" fill="none" xmlns="http://www.w3.org/2000/svg">
<path d="M22.1447 14.4069V24.4069H6.14465V14.4069M14.1447 24.4069V9.40686M14.1447 9.40686H9.64465C8.98161 9.40686 8.34573 9.14347 7.87689 8.67463C7.40805 8.20579 7.14465 7.5699 7.14465 6.90686C7.14465 6.24382 7.40805 5.60793 7.87689 5.13909C8.34573 4.67025 8.98161 4.40686 9.64465 4.40686C13.1447 4.40686 14.1447 9.40686 14.1447 9.40686ZM14.1447 9.40686H18.6447C19.3077 9.40686 19.9436 9.14347 20.4124 8.67463C20.8813 8.20579 21.1447 7.5699 21.1447 6.90686C21.1447 6.24382 20.8813 5.60793 20.4124 5.13909C19.9436 4.67025 19.3077 4.40686 18.6447 4.40686C15.1447 4.40686 14.1447 9.40686 14.1447 9.40686ZM4.14465 9.40686H24.1447V14.4069H4.14465V9.40686Z" stroke="#6979F8" stroke-linecap="round" stroke-linejoin="round"/>
</svg>
