<svg width="28" height="29" viewBox="0 0 28 29" fill="none" xmlns="http://www.w3.org/2000/svg">
<g clip-path="url(#clip0_2511_707)">
<path d="M5.88002 5.72882C5.6744 5.72882 5.36377 5.82288 5.14502 6.00882C4.92627 6.19476 4.75346 6.44195 4.51502 6.83132C4.33346 7.12663 4.04252 7.75663 3.60502 8.68632C3.16752 9.61601 2.62502 10.7776 2.10002 11.9238C1.05002 14.2141 0.0525233 16.4213 0.0525233 16.4213C-0.0459142 16.5876 -0.0524767 16.791 0.0350233 16.9638C0.0393983 16.9748 0.0459608 16.9879 0.0525233 16.9988C0.0831486 17.1016 0.118149 17.1913 0.175023 17.2613C0.277836 17.386 0.389399 17.4451 0.472523 17.4888C0.640961 17.5785 0.759086 17.6157 0.840023 17.6638C1.0019 17.7623 1.12002 17.7841 1.12002 18.4338C1.12002 19.7419 1.4919 21.1901 2.50252 22.3188C3.51315 23.4476 5.15159 24.2088 7.50752 24.2088C9.41721 24.2088 10.8391 23.5854 11.7075 22.4588C12.576 21.3323 12.88 19.7966 12.88 18.0488V16.6838C13.0769 16.5591 13.4247 16.3688 14 16.3688C14.5753 16.3688 14.9231 16.5591 15.12 16.6838V18.0488C15.12 19.7966 15.4241 21.3323 16.2925 22.4588C17.161 23.5854 18.5828 24.2088 20.4925 24.2088C22.8485 24.2088 24.4869 23.4563 25.4975 22.3363C26.5081 21.2163 26.88 19.7857 26.88 18.5038C26.88 17.8213 27.0069 17.7863 27.16 17.6988C27.2366 17.6551 27.3416 17.6244 27.51 17.5413C27.5953 17.4998 27.6981 17.4385 27.8075 17.3138C27.8906 17.2176 27.9541 17.0819 27.9825 16.9463C28.0591 16.7757 28.046 16.5788 27.9475 16.4213C27.9475 16.4213 26.95 14.2141 25.9 11.9238C25.375 10.7776 24.8325 9.61601 24.395 8.68632C23.9575 7.75663 23.6666 7.12663 23.485 6.83132C23.2466 6.44195 23.0738 6.19476 22.855 6.00882C22.6363 5.82288 22.3256 5.72882 22.12 5.72882C21.8685 5.72882 21.5863 5.84695 21.385 6.02632C21.1838 6.2057 21.0175 6.44851 20.8075 6.77882C20.4772 7.33007 20.2475 7.65382 20.2475 7.65382C20.0725 7.91413 20.1447 8.26632 20.405 8.44132C20.6653 8.61632 21.0175 8.54413 21.1925 8.28382C21.1925 8.28382 21.4178 7.92945 21.7525 7.37382C21.7569 7.36507 21.7481 7.36507 21.7525 7.35632C21.921 7.09163 22.0544 6.94726 22.12 6.88382C22.1835 6.93851 22.3344 7.09382 22.54 7.42632C22.5816 7.49413 22.9622 8.2357 23.3975 9.15882C23.8328 10.0819 24.36 11.2523 24.885 12.3963C25.6594 14.0829 26.051 14.9623 26.39 15.7038C26.2303 15.6688 26.0881 15.6316 25.9 15.5988C24.7144 15.3932 22.9272 15.2488 20.3875 15.2488C18.7403 15.2488 17.0647 15.6185 15.785 15.7913C15.5225 15.6076 14.9516 15.2488 14 15.2488C13.0485 15.2488 12.4775 15.6076 12.215 15.7913C10.9353 15.6185 9.25971 15.2488 7.61252 15.2488C5.07284 15.2488 3.28346 15.3844 2.10002 15.5813C1.9119 15.6119 1.76752 15.6513 1.61002 15.6863C1.95127 14.9404 2.34502 14.0763 3.11502 12.3963C3.64002 11.2523 4.16721 10.0819 4.60252 9.15882C5.03784 8.2357 5.41846 7.49413 5.46002 7.42632V7.40882C5.65909 7.08945 5.81877 6.93851 5.88002 6.88382C5.94565 6.94726 6.07909 7.09163 6.24752 7.35632C6.2519 7.36507 6.24315 7.36507 6.24752 7.37382C6.58221 7.92945 6.80752 8.28382 6.80752 8.28382C6.98252 8.54413 7.33471 8.61632 7.59502 8.44132C7.85534 8.26632 7.92752 7.91413 7.75252 7.65382C7.75252 7.65382 7.52284 7.33007 7.19252 6.77882C6.98252 6.44851 6.81627 6.2057 6.61502 6.02632C6.41377 5.84695 6.13159 5.72882 5.88002 5.72882ZM7.61252 16.3688C8.98409 16.3688 10.4606 16.6882 11.76 16.8763V18.0488C11.76 19.661 11.4581 20.9254 10.815 21.7588C10.1719 22.5923 9.18315 23.0888 7.50752 23.0888C5.38346 23.0888 4.10596 22.4391 3.32502 21.5663C2.54409 20.6935 2.24002 19.5341 2.24002 18.4338C2.24002 17.6376 1.90315 17.1454 1.55752 16.8588C1.76971 16.7998 1.94252 16.7429 2.29252 16.6838C3.37752 16.5023 5.11221 16.3688 7.61252 16.3688ZM20.3875 16.3688C22.8878 16.3688 24.6247 16.5154 25.7075 16.7013C26.0706 16.7648 26.2478 16.8282 26.46 16.8938C26.1035 17.176 25.76 17.6813 25.76 18.5038C25.76 19.5735 25.456 20.7176 24.675 21.5838C23.8941 22.4501 22.6166 23.0888 20.4925 23.0888C18.8169 23.0888 17.8281 22.5923 17.185 21.7588C16.5419 20.9254 16.24 19.661 16.24 18.0488V16.8763C17.5394 16.6882 19.016 16.3688 20.3875 16.3688Z" fill="#6979F8"/>
</g>
<defs>
<clipPath id="clip0_2511_707">
<rect width="28" height="28" fill="white" transform="translate(0 0.688843)"/>
</clipPath>
</defs>
</svg>
