<svg width="29" height="29" viewBox="0 0 29 29" fill="none" xmlns="http://www.w3.org/2000/svg">
<path d="M5.70219 10.0938L8.52844 12.3251M5.67594 19.2813L8.51094 17.0501M18.3809 20.1038L21.2072 22.3351M24.7072 14.7138C24.7053 15.301 24.6496 15.8868 24.5409 16.4638C24.1567 18.6354 23.068 20.6199 21.443 22.1107C19.818 23.6015 17.7472 24.5156 15.5506 24.7117C13.3541 24.9078 11.1542 24.375 9.29077 23.1956C7.42738 22.0162 6.00431 20.2559 5.24149 18.1868C4.47868 16.1177 4.4186 13.8549 5.07054 11.7482C5.72247 9.64153 7.05012 7.80821 8.8483 6.5316C10.6465 5.255 12.8151 4.60619 15.0189 4.68544C17.2227 4.7647 19.3391 5.56761 21.0409 6.97009L18.5734 9.46384C17.4435 8.60679 16.0629 8.14555 14.6447 8.15134C13.4218 8.14996 12.2228 8.49033 11.183 9.13403C10.1432 9.77773 9.304 10.6992 8.75997 11.7944C8.21594 12.8896 7.98876 14.1151 8.10406 15.3326C8.21936 16.55 8.67255 17.7111 9.41251 18.6847C10.1525 19.6583 11.1498 20.4058 12.2919 20.8429C13.4341 21.28 14.6756 21.3892 15.8765 21.1583C17.0774 20.9274 18.1899 20.3655 19.0885 19.536C19.9871 18.7065 20.6361 17.6425 20.9622 16.4638H15.0822V12.9638H24.5409C24.6452 13.5415 24.7008 14.1269 24.7072 14.7138Z" stroke="#6979F8" stroke-linecap="round" stroke-linejoin="round"/>
</svg>
