<svg width="29" height="29" viewBox="0 0 29 29" fill="none" xmlns="http://www.w3.org/2000/svg">
<path d="M3.38501 3.99585H7.38501L10.065 17.3858C10.1565 17.8462 10.4069 18.2598 10.7726 18.5541C11.1382 18.8485 11.5957 19.0048 12.065 18.9958H21.785C22.2543 19.0048 22.7118 18.8485 23.0775 18.5541C23.4431 18.2598 23.6936 17.8462 23.785 17.3858L25.385 8.99585H8.38501M12.385 23.9958C12.385 24.5481 11.9373 24.9958 11.385 24.9958C10.8327 24.9958 10.385 24.5481 10.385 23.9958C10.385 23.4436 10.8327 22.9958 11.385 22.9958C11.9373 22.9958 12.385 23.4436 12.385 23.9958ZM23.385 23.9958C23.385 24.5481 22.9373 24.9958 22.385 24.9958C21.8327 24.9958 21.385 24.5481 21.385 23.9958C21.385 23.4436 21.8327 22.9958 22.385 22.9958C22.9373 22.9958 23.385 23.4436 23.385 23.9958Z" stroke="#6979F8" stroke-linecap="round" stroke-linejoin="round"/>
</svg>
