<svg width="28" height="29" viewBox="0 0 28 29" fill="none" xmlns="http://www.w3.org/2000/svg">
<path d="M13.9998 1.80884C10.9133 1.80884 8.39982 4.32227 8.39982 7.40884V8.52884C8.39764 8.73009 8.50264 8.91821 8.67764 9.02102C8.85264 9.12165 9.06701 9.12165 9.24201 9.02102C9.41701 8.91821 9.52201 8.73009 9.51982 8.52884V7.40884C9.51982 4.92821 11.5192 2.92884 13.9998 2.92884C16.4804 2.92884 18.4798 4.92821 18.4798 7.40884V8.52884C18.4776 8.73009 18.5826 8.91821 18.7576 9.02102C18.9326 9.12165 19.147 9.12165 19.322 9.02102C19.497 8.91821 19.602 8.73009 19.5998 8.52884V7.40884C19.5998 4.32227 17.0864 1.80884 13.9998 1.80884ZM8.95982 9.64884C8.34076 9.64884 7.83982 10.1498 7.83982 10.7688H5.03982C5.02232 10.7688 5.00482 10.7688 4.98732 10.7688C4.7292 10.7907 4.5192 10.9854 4.47982 11.2413L2.23982 26.3613C2.21357 26.5254 2.2617 26.6895 2.36889 26.8141C2.47826 26.941 2.63576 27.011 2.79982 27.0088H4.47982V27.5688H6.15982V27.0088H21.8398V27.5688H23.5198V27.0088H25.1998C25.3639 27.011 25.5214 26.941 25.6308 26.8141C25.738 26.6895 25.7861 26.5254 25.7598 26.3613L23.5198 11.2413C23.4761 10.9657 23.2376 10.7645 22.9598 10.7688H20.1598C20.1598 10.1498 19.6589 9.64884 19.0398 9.64884C18.4208 9.64884 17.9198 10.1498 17.9198 10.7688H10.0798C10.0798 10.1498 9.57889 9.64884 8.95982 9.64884ZM5.52982 11.8888H22.4698L24.5523 25.8888H3.44732L5.52982 11.8888ZM19.5998 14.9688C19.3504 14.9688 19.1229 15.076 18.9698 15.2488H8.39982C8.38232 15.2488 8.36482 15.2488 8.34732 15.2488C8.03889 15.2641 7.79826 15.5266 7.81357 15.8351C7.82889 16.1435 8.09139 16.3841 8.39982 16.3688H18.9698C19.1229 16.5416 19.3504 16.6488 19.5998 16.6488C20.0636 16.6488 20.4398 16.2726 20.4398 15.8088C20.4398 15.3451 20.0636 14.9688 19.5998 14.9688ZM19.5473 16.9113C19.5233 16.9157 19.4992 16.9223 19.4773 16.9288C19.217 16.9879 19.0333 17.222 19.0398 17.4888V20.2888C19.0376 20.4901 19.1426 20.6782 19.3176 20.781C19.4926 20.8816 19.707 20.8816 19.882 20.781C20.057 20.6782 20.162 20.4901 20.1598 20.2888V17.4888C20.1664 17.327 20.1008 17.1716 19.9848 17.0623C19.8667 16.9507 19.707 16.896 19.5473 16.9113Z" fill="#6979F8"/>
</svg>
