<svg width="29" height="29" viewBox="0 0 29 29" fill="none" xmlns="http://www.w3.org/2000/svg">
<mask id="path-1-inside-1_2511_778" fill="white">
<path d="M7.83501 7.51686L4.38501 14.4069V20.4069C4.38501 20.9373 4.59572 21.446 4.9708 21.8211C5.34587 22.1961 5.85458 22.4069 6.38501 22.4069H22.385C22.9154 22.4069 23.4242 22.1961 23.7992 21.8211C24.1743 21.446 24.385 20.9373 24.385 20.4069V14.4069L20.935 7.51686C20.7694 7.18365 20.5142 6.90323 20.198 6.70714C19.8817 6.51105 19.5171 6.40706 19.145 6.40686H9.62501C9.25293 6.40706 8.88827 6.51105 8.57205 6.70714C8.25583 6.90323 8.00059 7.18365 7.83501 7.51686Z"/>
<path d="M9.38501 18.4069C9.38501 18.9591 8.93729 19.4069 8.38501 19.4069C7.83273 19.4069 7.38501 18.9591 7.38501 18.4069C7.38501 17.8546 7.83273 17.4069 8.38501 17.4069C8.93729 17.4069 9.38501 17.8546 9.38501 18.4069Z"/>
<path d="M13.385 18.4069C13.385 18.9591 12.9373 19.4069 12.385 19.4069C11.8327 19.4069 11.385 18.9591 11.385 18.4069C11.385 17.8546 11.8327 17.4069 12.385 17.4069C12.9373 17.4069 13.385 17.8546 13.385 18.4069Z"/>
</mask>
<path d="M24.385 14.9069C24.6612 14.9069 24.885 14.683 24.885 14.4069C24.885 14.1307 24.6612 13.9069 24.385 13.9069V14.9069ZM4.38501 13.9069C4.10887 13.9069 3.88501 14.1307 3.88501 14.4069C3.88501 14.683 4.10887 14.9069 4.38501 14.9069V13.9069ZM24.385 13.9069H4.38501V14.9069H24.385V13.9069ZM24.385 14.4069H25.385C25.385 14.2514 25.3488 14.0981 25.2792 13.9591L24.385 14.4069ZM4.38501 14.4069L3.49084 13.9591C3.42125 14.0981 3.38501 14.2514 3.38501 14.4069H4.38501ZM7.83501 7.51686L8.72918 7.9646L8.73054 7.96186L7.83501 7.51686ZM4.38501 20.4069H3.38501H4.38501ZM20.935 7.51686L20.0395 7.96186L20.0408 7.96459L20.935 7.51686ZM19.145 6.40686L19.1455 5.40686H19.145V6.40686ZM9.62501 6.40686L9.62501 5.40686L9.62448 5.40686L9.62501 6.40686ZM6.94084 7.06913L3.49084 13.9591L5.27918 14.8546L8.72918 7.96459L6.94084 7.06913ZM3.38501 14.4069V20.4069H5.38501V14.4069H3.38501ZM3.38501 20.4069C3.38501 21.2025 3.70108 21.9656 4.26369 22.5282L5.6779 21.114C5.49037 20.9264 5.38501 20.6721 5.38501 20.4069H3.38501ZM4.26369 22.5282C4.8263 23.0908 5.58936 23.4069 6.38501 23.4069V21.4069C6.11979 21.4069 5.86544 21.3015 5.6779 21.114L4.26369 22.5282ZM6.38501 23.4069H22.385V21.4069H6.38501V23.4069ZM22.385 23.4069C23.1807 23.4069 23.9437 23.0908 24.5063 22.5282L23.0921 21.114C22.9046 21.3015 22.6502 21.4069 22.385 21.4069V23.4069ZM24.5063 22.5282C25.0689 21.9656 25.385 21.2025 25.385 20.4069H23.385C23.385 20.6721 23.2797 20.9264 23.0921 21.114L24.5063 22.5282ZM25.385 20.4069V14.4069H23.385V20.4069H25.385ZM25.2792 13.9591L21.8292 7.06913L20.0408 7.96459L23.4908 14.8546L25.2792 13.9591ZM21.8305 7.07186C21.5822 6.57204 21.1993 6.15142 20.725 5.85728L19.671 7.557C19.8291 7.65504 19.9567 7.79525 20.0395 7.96186L21.8305 7.07186ZM20.725 5.85728C20.2506 5.56314 19.7037 5.40716 19.1455 5.40686L19.1445 7.40686C19.3305 7.40696 19.5128 7.45895 19.671 7.557L20.725 5.85728ZM19.145 5.40686H9.62501V7.40686H19.145V5.40686ZM9.62448 5.40686C9.06635 5.40716 8.51937 5.56314 8.04505 5.85728L9.09906 7.557C9.25717 7.45895 9.4395 7.40696 9.62554 7.40686L9.62448 5.40686ZM8.04505 5.85728C7.57072 6.15142 7.18785 6.57204 6.93948 7.07186L8.73054 7.96186C8.81333 7.79525 8.94095 7.65505 9.09906 7.557L8.04505 5.85728ZM8.38501 18.4069V20.4069C9.48958 20.4069 10.385 19.5114 10.385 18.4069H8.38501ZM8.38501 18.4069H6.38501C6.38501 19.5114 7.28044 20.4069 8.38501 20.4069V18.4069ZM8.38501 18.4069V16.4069C7.28044 16.4069 6.38501 17.3023 6.38501 18.4069H8.38501ZM8.38501 18.4069H10.385C10.385 17.3023 9.48958 16.4069 8.38501 16.4069V18.4069ZM12.385 18.4069V20.4069C13.4896 20.4069 14.385 19.5114 14.385 18.4069H12.385ZM12.385 18.4069H10.385C10.385 19.5114 11.2804 20.4069 12.385 20.4069V18.4069ZM12.385 18.4069V16.4069C11.2804 16.4069 10.385 17.3023 10.385 18.4069H12.385ZM12.385 18.4069H14.385C14.385 17.3023 13.4896 16.4069 12.385 16.4069V18.4069Z" fill="#6979F8" mask="url(#path-1-inside-1_2511_778)"/>
</svg>
