<svg width="29" height="29" viewBox="0 0 29 29" fill="none" xmlns="http://www.w3.org/2000/svg">
<path d="M5.38501 20.4069V14.4069C5.38501 12.0199 6.33322 9.73073 8.02105 8.0429C9.70888 6.35507 11.9981 5.40686 14.385 5.40686C16.772 5.40686 19.0611 6.35507 20.749 8.0429C22.4368 9.73073 23.385 12.0199 23.385 14.4069V20.4069M23.385 21.4069C23.385 21.9373 23.1743 22.446 22.7992 22.8211C22.4242 23.1961 21.9154 23.4069 21.385 23.4069H20.385C19.8546 23.4069 19.3459 23.1961 18.9708 22.8211C18.5957 22.446 18.385 21.9373 18.385 21.4069V18.4069C18.385 17.8764 18.5957 17.3677 18.9708 16.9926C19.3459 16.6176 19.8546 16.4069 20.385 16.4069H23.385V21.4069ZM5.38501 21.4069C5.38501 21.9373 5.59572 22.446 5.9708 22.8211C6.34587 23.1961 6.85458 23.4069 7.38501 23.4069H8.38501C8.91544 23.4069 9.42415 23.1961 9.79922 22.8211C10.1743 22.446 10.385 21.9373 10.385 21.4069V18.4069C10.385 17.8764 10.1743 17.3677 9.79922 16.9926C9.42415 16.6176 8.91544 16.4069 8.38501 16.4069H5.38501V21.4069Z" stroke="#6979F8" stroke-linecap="round" stroke-linejoin="round"/>
</svg>
