<svg width="29" height="29" viewBox="0 0 29 29" fill="none" xmlns="http://www.w3.org/2000/svg">
<path d="M22.6025 7.36452C22.1138 6.86003 21.5335 6.45982 20.8949 6.18678C20.2563 5.91373 19.5718 5.77319 18.8805 5.77319C18.1893 5.77319 17.5048 5.91373 16.8661 6.18678C16.2275 6.45982 15.6473 6.86003 15.1586 7.36452L14.1444 8.41105L13.1302 7.36452C12.1431 6.34595 10.8043 5.77372 9.40826 5.77372C8.01227 5.77372 6.67345 6.34595 5.68633 7.36452C4.69921 8.3831 4.14465 9.76458 4.14465 11.2051C4.14465 12.6455 4.69921 14.027 5.68633 15.0456L6.70053 16.0921L14.1444 23.7732L21.5883 16.0921L22.6025 15.0456C23.0914 14.5413 23.4792 13.9426 23.7438 13.2836C24.0085 12.6247 24.1447 11.9184 24.1447 11.2051C24.1447 10.4918 24.0085 9.78545 23.7438 9.12648C23.4792 8.4675 23.0914 7.86879 22.6025 7.36452V7.36452Z" stroke="#6979F8" stroke-linecap="round" stroke-linejoin="round"/>
</svg>
