<svg width="29" height="28" viewBox="0 0 29 28" fill="none" xmlns="http://www.w3.org/2000/svg">
<mask id="path-1-inside-1_2511_895" fill="white">
<path d="M14.385 24C19.9079 24 24.385 19.5228 24.385 14C24.385 8.47715 19.9079 4 14.385 4C8.86216 4 4.38501 8.47715 4.38501 14C4.38501 19.5228 8.86216 24 14.385 24Z"/>
<path d="M11.475 11C11.7101 10.3317 12.1742 9.76811 12.785 9.40913C13.3958 9.05016 14.1139 8.91894 14.8122 9.03871C15.5105 9.15849 16.1438 9.52152 16.6001 10.0635C17.0563 10.6055 17.3061 11.2915 17.305 12C17.305 14 14.305 15 14.305 15"/>
<path d="M15.385 19C15.385 19.5523 14.9373 20 14.385 20C13.8327 20 13.385 19.5523 13.385 19C13.385 18.4477 13.8327 18 14.385 18C14.9373 18 15.385 18.4477 15.385 19Z"/>
</mask>
<path d="M10.5317 10.6682C10.3484 11.1891 10.6222 11.7601 11.1432 11.9433C11.6642 12.1266 12.2351 11.8528 12.4183 11.3318L10.5317 10.6682ZM17.305 12L16.305 11.9985V12H17.305ZM13.9888 14.0513C13.4648 14.226 13.1817 14.7923 13.3563 15.3162C13.531 15.8402 14.0973 16.1233 14.6212 15.9487L13.9888 14.0513ZM23.385 14C23.385 18.9706 19.3556 23 14.385 23V25C20.4601 25 25.385 20.0751 25.385 14H23.385ZM14.385 23C9.41445 23 5.38501 18.9706 5.38501 14H3.38501C3.38501 20.0751 8.30988 25 14.385 25V23ZM5.38501 14C5.38501 9.02944 9.41445 5 14.385 5V3C8.30988 3 3.38501 7.92487 3.38501 14H5.38501ZM14.385 5C19.3556 5 23.385 9.02944 23.385 14H25.385C25.385 7.92487 20.4601 3 14.385 3V5ZM12.4183 11.3318C12.5751 10.8863 12.8844 10.5106 13.2916 10.2713L12.2783 8.547C11.4639 9.02563 10.8451 9.77705 10.5317 10.6682L12.4183 11.3318ZM13.2916 10.2713C13.6988 10.0319 14.1776 9.94447 14.6431 10.0243L14.9812 8.05311C14.0502 7.89341 13.0927 8.06837 12.2783 8.547L13.2916 10.2713ZM14.6431 10.0243C15.1086 10.1042 15.5309 10.3462 15.8351 10.7075L17.3651 9.41953C16.7568 8.69686 15.9123 8.2128 14.9812 8.05311L14.6431 10.0243ZM15.8351 10.7075C16.1392 11.0689 16.3057 11.5262 16.305 11.9985L18.305 12.0015C18.3064 11.0569 17.9735 10.1422 17.3651 9.41953L15.8351 10.7075ZM16.305 12C16.305 12.4691 15.9399 12.9582 15.2503 13.4179C14.9359 13.6275 14.6145 13.789 14.3676 13.8987C14.2456 13.9529 14.1454 13.9929 14.0779 14.0186C14.0443 14.0314 14.0191 14.0406 14.0037 14.0461C13.996 14.0488 13.9908 14.0506 13.9883 14.0515C13.987 14.0519 13.9864 14.0521 13.9864 14.0521C13.9865 14.0521 13.9867 14.052 13.9871 14.0519C13.9873 14.0518 13.9875 14.0517 13.9878 14.0516C13.9879 14.0516 13.9882 14.0515 13.9883 14.0515C13.9885 14.0514 13.9888 14.0513 14.305 15C14.6212 15.9487 14.6215 15.9486 14.6218 15.9485C14.6219 15.9484 14.6223 15.9483 14.6225 15.9483C14.623 15.9481 14.6235 15.9479 14.624 15.9478C14.6251 15.9474 14.6264 15.9469 14.6279 15.9464C14.6309 15.9454 14.6346 15.9442 14.639 15.9427C14.6478 15.9396 14.6594 15.9356 14.6737 15.9305C14.7023 15.9203 14.7415 15.9061 14.7899 15.8876C14.8865 15.8508 15.0206 15.7971 15.1799 15.7263C15.4956 15.586 15.9241 15.3725 16.3597 15.0821C17.1701 14.5418 18.305 13.5309 18.305 12H16.305ZM14.385 19V21C15.4896 21 16.385 20.1046 16.385 19H14.385ZM14.385 19H12.385C12.385 20.1046 13.2804 21 14.385 21V19ZM14.385 19V17C13.2804 17 12.385 17.8954 12.385 19H14.385ZM14.385 19H16.385C16.385 17.8954 15.4896 17 14.385 17V19Z" fill="#6979F8" mask="url(#path-1-inside-1_2511_895)"/>
</svg>
