<svg width="29" height="29" viewBox="0 0 29 29" fill="none" xmlns="http://www.w3.org/2000/svg">
<path d="M7.14465 23.496H21.1447C22.2492 23.496 23.1447 22.6005 23.1447 21.496V7.49597C23.1447 6.3914 22.2492 5.49597 21.1447 5.49597H7.14465C6.04008 5.49597 5.14465 6.3914 5.14465 7.49597V21.496C5.14465 22.6005 6.04008 23.496 7.14465 23.496ZM7.14465 23.496L18.1447 12.496L23.1447 17.496M12.1447 10.996C12.1447 11.8244 11.4731 12.496 10.6447 12.496C9.81623 12.496 9.14465 11.8244 9.14465 10.996C9.14465 10.1675 9.81623 9.49597 10.6447 9.49597C11.4731 9.49597 12.1447 10.1675 12.1447 10.996Z" stroke="#6979F8" stroke-linecap="round" stroke-linejoin="round"/>
</svg>
