<svg width="29" height="28" viewBox="0 0 29 28" fill="none" xmlns="http://www.w3.org/2000/svg">
<path d="M24.1447 14H18.1447L16.1447 17H12.1447L10.1447 14H4.14465M24.1447 14V20C24.1447 20.5304 23.9339 21.0391 23.5589 21.4142C23.1838 21.7893 22.6751 22 22.1447 22H6.14465C5.61422 22 5.10551 21.7893 4.73044 21.4142C4.35537 21.0391 4.14465 20.5304 4.14465 20V14M24.1447 14L20.6947 7.11C20.5291 6.77679 20.2738 6.49637 19.9576 6.30028C19.6414 6.10419 19.2767 6.0002 18.9047 6H9.38465C9.01257 6.0002 8.64792 6.10419 8.3317 6.30028C8.01548 6.49637 7.76023 6.77679 7.59465 7.11L4.14465 14" stroke="#6979F8" stroke-linecap="round" stroke-linejoin="round"/>
</svg>
