<svg width="29" height="28" viewBox="0 0 29 28" fill="none" xmlns="http://www.w3.org/2000/svg">
<mask id="path-1-inside-1_2511_896" fill="white">
<path d="M14.385 24C19.9079 24 24.385 19.5228 24.385 14C24.385 8.47715 19.9079 4 14.385 4C8.86216 4 4.38501 8.47715 4.38501 14C4.38501 19.5228 8.86216 24 14.385 24Z"/>
<path d="M15.385 10C15.385 10.5523 14.9373 11 14.385 11C13.8327 11 13.385 10.5523 13.385 10C13.385 9.44772 13.8327 9 14.385 9C14.9373 9 15.385 9.44772 15.385 10Z"/>
</mask>
<path d="M13.885 18C13.885 18.2761 14.1089 18.5 14.385 18.5C14.6612 18.5 14.885 18.2761 14.885 18H13.885ZM14.885 14C14.885 13.7239 14.6612 13.5 14.385 13.5C14.1089 13.5 13.885 13.7239 13.885 14H14.885ZM14.885 18V14H13.885V18H14.885ZM23.385 14C23.385 18.9706 19.3556 23 14.385 23V25C20.4601 25 25.385 20.0751 25.385 14H23.385ZM14.385 23C9.41445 23 5.38501 18.9706 5.38501 14H3.38501C3.38501 20.0751 8.30988 25 14.385 25V23ZM5.38501 14C5.38501 9.02944 9.41445 5 14.385 5V3C8.30988 3 3.38501 7.92487 3.38501 14H5.38501ZM14.385 5C19.3556 5 23.385 9.02944 23.385 14H25.385C25.385 7.92487 20.4601 3 14.385 3V5ZM14.385 10V12C15.4896 12 16.385 11.1046 16.385 10H14.385ZM14.385 10H12.385C12.385 11.1046 13.2804 12 14.385 12V10ZM14.385 10V8C13.2804 8 12.385 8.89543 12.385 10H14.385ZM14.385 10H16.385C16.385 8.89543 15.4896 8 14.385 8V10Z" fill="#6979F8" mask="url(#path-1-inside-1_2511_896)"/>
</svg>
