<svg width="29" height="29" viewBox="0 0 29 29" fill="none" xmlns="http://www.w3.org/2000/svg">
<mask id="path-1-inside-1_2511_875" fill="white">
<path d="M19.1447 4.21387H9.14465C6.38323 4.21387 4.14465 6.45244 4.14465 9.21387V19.2139C4.14465 21.9753 6.38323 24.2139 9.14465 24.2139H19.1447C21.9061 24.2139 24.1447 21.9753 24.1447 19.2139V9.21387C24.1447 6.45244 21.9061 4.21387 19.1447 4.21387Z"/>
<path d="M18.1447 13.5839C18.2681 14.4161 18.1259 15.2661 17.7384 16.0129C17.3509 16.7597 16.7378 17.3653 15.9863 17.7435C15.2348 18.1218 14.3831 18.2535 13.5524 18.1198C12.7218 17.9861 11.9544 17.594 11.3595 16.999C10.7646 16.4041 10.3724 15.6367 10.2387 14.8061C10.1051 13.9754 10.2367 13.1238 10.615 12.3722C10.9932 11.6207 11.5988 11.0076 12.3456 10.6201C13.0924 10.2326 13.9424 10.0905 14.7747 10.2139C15.6236 10.3398 16.4095 10.7353 17.0163 11.3422C17.6232 11.949 18.0188 12.7349 18.1447 13.5839Z"/>
<path d="M21.1447 8.21387C21.1447 8.76615 20.6969 9.21387 20.1447 9.21387C19.5924 9.21387 19.1447 8.76615 19.1447 8.21387C19.1447 7.66158 19.5924 7.21387 20.1447 7.21387C20.6969 7.21387 21.1447 7.66158 21.1447 8.21387Z"/>
</mask>
<path d="M18.1447 13.5839L17.1555 13.7306L18.1447 13.5839ZM14.7747 10.2139L14.628 11.2031L14.7747 10.2139ZM9.14465 5.21387H19.1447V3.21387H9.14465V5.21387ZM19.1447 5.21387C21.3538 5.21387 23.1447 7.00473 23.1447 9.21387H25.1447C25.1447 5.90016 22.4584 3.21387 19.1447 3.21387V5.21387ZM23.1447 9.21387V19.2139H25.1447V9.21387H23.1447ZM23.1447 19.2139C23.1447 21.423 21.3538 23.2139 19.1447 23.2139V25.2139C22.4584 25.2139 25.1447 22.5276 25.1447 19.2139H23.1447ZM19.1447 23.2139H9.14465V25.2139H19.1447V23.2139ZM9.14465 23.2139C6.93551 23.2139 5.14465 21.423 5.14465 19.2139H3.14465C3.14465 22.5276 5.83094 25.2139 9.14465 25.2139V23.2139ZM5.14465 19.2139V9.21387H3.14465V19.2139H5.14465ZM5.14465 9.21387C5.14465 7.00473 6.93551 5.21387 9.14465 5.21387V3.21387C5.83094 3.21387 3.14465 5.90016 3.14465 9.21387H5.14465ZM17.1555 13.7306C17.248 14.3547 17.1414 14.9922 16.8508 15.5523L18.626 16.4735C19.1104 15.54 19.2881 14.4775 19.1338 13.4372L17.1555 13.7306ZM16.8508 15.5523C16.5602 16.1124 16.1003 16.5666 15.5367 16.8503L16.4359 18.6368C17.3753 18.1639 18.1417 17.407 18.626 16.4735L16.8508 15.5523ZM15.5367 16.8503C14.973 17.134 14.3343 17.2327 13.7113 17.1325L13.3936 19.1071C14.4319 19.2742 15.4965 19.1096 16.4359 18.6368L15.5367 16.8503ZM13.7113 17.1325C13.0883 17.0323 12.5128 16.7381 12.0666 16.2919L10.6524 17.7061C11.396 18.4498 12.3552 18.94 13.3936 19.1071L13.7113 17.1325ZM12.0666 16.2919C11.6204 15.8457 11.3263 15.2702 11.226 14.6472L9.25142 14.965C9.4185 16.0033 9.90873 16.9625 10.6524 17.7061L12.0666 16.2919ZM11.226 14.6472C11.1258 14.0242 11.2245 13.3855 11.5082 12.8218L9.72175 11.9227C9.24892 12.8621 9.08434 13.9266 9.25142 14.965L11.226 14.6472ZM11.5082 12.8218C11.7919 12.2582 12.2461 11.7984 12.8062 11.5077L11.8851 9.73249C10.9516 10.2169 10.1946 10.9833 9.72175 11.9227L11.5082 12.8218ZM12.8062 11.5077C13.3663 11.2171 14.0038 11.1105 14.628 11.2031L14.9213 9.22468C13.881 9.07042 12.8186 9.24811 11.8851 9.73249L12.8062 11.5077ZM14.628 11.2031C15.2647 11.2975 15.8541 11.5941 16.3092 12.0493L17.7235 10.6351C16.9649 9.87651 15.9825 9.38204 14.9213 9.22468L14.628 11.2031ZM16.3092 12.0493C16.7644 12.5044 17.0611 13.0939 17.1555 13.7306L19.1338 13.4372C18.9765 12.376 18.482 11.3936 17.7235 10.6351L16.3092 12.0493ZM20.1447 8.21387V10.2139C21.2492 10.2139 22.1447 9.31844 22.1447 8.21387H20.1447ZM20.1447 8.21387H18.1447C18.1447 9.31844 19.0401 10.2139 20.1447 10.2139V8.21387ZM20.1447 8.21387V6.21387C19.0401 6.21387 18.1447 7.1093 18.1447 8.21387H20.1447ZM20.1447 8.21387H22.1447C22.1447 7.1093 21.2492 6.21387 20.1447 6.21387V8.21387Z" fill="#6979F8" mask="url(#path-1-inside-1_2511_875)"/>
</svg>
