<svg width="28" height="29" viewBox="0 0 28 29" fill="none" xmlns="http://www.w3.org/2000/svg">
<g clip-path="url(#clip0_2511_709)">
<path d="M14 0.688843C11.8716 0.688843 9.29906 1.18541 8.9775 1.24884C8.96656 1.25103 8.91188 1.24884 8.9075 1.24884C8.8725 1.25103 8.8375 1.25759 8.8025 1.26634C8.785 1.27072 8.7675 1.27728 8.75 1.28384C8.53563 1.33197 8.36938 1.50041 8.32344 1.71478C8.27969 1.92916 8.36281 2.15009 8.54 2.28134C8.6625 2.58103 9.05406 3.57853 9.205 4.53884C8.23594 4.85822 6.7725 5.34384 6.6675 5.37884C6.61938 5.38978 6.57125 5.40728 6.5275 5.43134C6.51 5.44228 6.4925 5.45322 6.475 5.46634C6.3175 5.54509 3.78656 6.84665 2.765 9.91134C2.56156 10.5238 1.87469 12.4073 1.2425 14.2688C0.925313 15.2007 0.6125 16.1238 0.385 16.8938C0.1575 17.6638 0 18.2085 0 18.6788V27.5688C0 27.8773 0.251563 28.1288 0.56 28.1288H4.48C4.78844 28.1288 5.04 27.8773 5.04 27.5688V19.1688C5.04 19.2388 5.05531 19.1032 5.11 18.9413C5.16469 18.7795 5.25219 18.5563 5.355 18.3113C5.55844 17.8235 5.82969 17.2132 6.1075 16.6313C6.13375 16.5767 6.13375 16.581 6.16 16.5263V25.3288C6.16 25.6373 6.41156 25.8888 6.72 25.8888H21.28C21.5884 25.8888 21.84 25.6373 21.84 25.3288V16.5263C21.8663 16.581 21.8663 16.5767 21.8925 16.6313C22.1703 17.2132 22.4416 17.8235 22.645 18.3113C22.7478 18.5563 22.8353 18.7795 22.89 18.9413C22.9447 19.1032 22.96 19.2388 22.96 19.1688V27.5688C22.96 27.8773 23.2116 28.1288 23.52 28.1288H27.44C27.7484 28.1288 28 27.8773 28 27.5688V18.6788C28 18.2085 27.8425 17.6638 27.615 16.8938C27.3875 16.1238 27.0747 15.2007 26.7575 14.2688C26.1253 12.4073 25.4384 10.5238 25.235 9.91134C24.2659 7.00415 21.9888 5.7179 21.6125 5.51884C21.595 5.50572 21.5775 5.49478 21.56 5.48384C21.5469 5.47728 21.4725 5.43134 21.4725 5.43134C21.4222 5.40509 21.3697 5.38759 21.315 5.37884C21.1903 5.33728 19.6656 4.82103 18.7425 4.52134C18.8234 3.47353 19.04 1.89634 19.04 1.89634C19.04 1.88978 19.04 1.88541 19.04 1.87884C19.04 1.86791 19.04 1.85478 19.04 1.84384C19.04 1.83728 19.04 1.83291 19.04 1.82634C19.04 1.81541 19.04 1.80228 19.04 1.79134C19.04 1.78478 19.04 1.78041 19.04 1.77384C19.04 1.75634 19.04 1.73884 19.04 1.72134C19.04 1.71478 19.04 1.71041 19.04 1.70384C19.0356 1.69291 19.0291 1.67978 19.0225 1.66884C19.0225 1.66228 19.0225 1.65791 19.0225 1.65134C19.0181 1.64041 19.0116 1.62728 19.005 1.61634C19.005 1.60978 19.005 1.60541 19.005 1.59884C19.0006 1.58791 18.9941 1.57478 18.9875 1.56384C18.9809 1.55728 18.9766 1.55291 18.97 1.54634C18.9656 1.53541 18.9591 1.52228 18.9525 1.51134C18.9481 1.50041 18.9416 1.48728 18.935 1.47634C18.9284 1.46978 18.9241 1.46541 18.9175 1.45884C18.9131 1.44791 18.9066 1.43478 18.9 1.42384C18.8934 1.42384 18.8891 1.42384 18.8825 1.42384C18.8716 1.41072 18.8606 1.39978 18.8475 1.38884C18.8409 1.38228 18.8366 1.37791 18.83 1.37134C18.8234 1.36478 18.8191 1.36041 18.8125 1.35384C18.8059 1.34728 18.8016 1.34291 18.795 1.33634C18.7841 1.32978 18.7709 1.32322 18.76 1.31884C18.7534 1.31884 18.7491 1.31884 18.7425 1.31884C18.7316 1.31228 18.7184 1.30572 18.7075 1.30134C18.7009 1.29478 18.6966 1.29041 18.69 1.28384C18.6791 1.28384 18.6659 1.28384 18.655 1.28384C18.6441 1.27728 18.6309 1.27072 18.62 1.26634H18.6025C18.585 1.25978 18.5675 1.25322 18.55 1.24884C18.5434 1.24666 18.5084 1.25103 18.4975 1.24884C18.1847 1.17447 16.1 0.688843 14 0.688843ZM14 1.80884C15.1091 1.80884 16.2378 1.96197 17.08 2.10634L15.75 3.03384C15.6516 3.10166 15.5794 3.20009 15.54 3.31384C15.54 3.31384 14.7919 5.83384 14 9.36884C13.195 5.81634 12.46 3.31384 12.46 3.31384C12.4206 3.18259 12.3331 3.07103 12.215 2.99884L10.64 2.10634C11.6353 1.96416 12.9106 1.80884 14 1.80884ZM17.78 2.96384C17.6859 3.65509 17.5919 4.18666 17.57 4.88884C17.5591 5.14478 17.7253 5.37665 17.9725 5.44884C18.5238 5.61509 20.0616 6.14228 20.5975 6.32384C20.4269 7.04134 19.6394 10.7338 20.685 14.0238C20.6806 14.1004 20.6938 14.1792 20.72 14.2513V24.7688H7.28V14.2338C7.28 14.2229 7.28 14.2098 7.28 14.1988C7.28438 14.1923 7.29313 14.1879 7.2975 14.1813C7.30406 14.1638 7.31063 14.1463 7.315 14.1288C8.07188 12.6392 8.05219 10.6704 7.875 9.00134C7.7175 7.5204 7.47688 6.69353 7.385 6.32384C7.88156 6.1554 9.34938 5.6654 10.0275 5.44884C10.2747 5.37665 10.4409 5.14478 10.43 4.88884C10.3994 4.25228 10.1938 3.62009 10.01 3.05134L11.445 3.85634C11.5281 4.11447 12.495 7.04134 13.4575 11.9588C13.5253 12.206 13.7506 12.3745 14.0066 12.3723C14.2625 12.3679 14.4834 12.1907 14.5425 11.9413C15.4634 7.04572 16.4566 4.07728 16.5375 3.83884L17.78 2.96384ZM6.405 6.81384C6.5275 7.36509 6.66531 8.12415 6.7725 9.12384C6.94531 10.7579 6.88188 12.6742 6.2825 13.7613C6.26063 13.7942 6.24313 13.8292 6.23 13.8663C6.21688 13.8948 6.20375 13.9232 6.195 13.9538C6.13156 14.0763 5.62406 15.0454 5.0925 16.1588C4.81031 16.7517 4.52156 17.3532 4.305 17.8738C4.19781 18.1342 4.11031 18.3682 4.0425 18.5738C3.97469 18.7795 3.92 18.9304 3.92 19.1688V27.0088H1.12V18.6788C1.12 18.6067 1.25125 17.9701 1.47 17.2263C1.68875 16.4826 1.9775 15.5595 2.2925 14.6363C2.92031 12.7901 3.60938 10.9307 3.8325 10.2613C4.445 8.42165 5.67219 7.33009 6.405 6.81384ZM21.63 6.84884C22.3672 7.37603 23.5659 8.45447 24.1675 10.2613C24.3906 10.9307 25.0797 12.7901 25.7075 14.6363C26.0225 15.5595 26.3113 16.4826 26.53 17.2263C26.7488 17.9701 26.88 18.6067 26.88 18.6788V27.0088H24.08V19.1688C24.08 18.9304 24.0253 18.7795 23.9575 18.5738C23.8897 18.3682 23.8022 18.1342 23.695 17.8738C23.4784 17.3532 23.1897 16.7517 22.9075 16.1588C22.3716 15.0345 21.8575 14.0392 21.805 13.9363C20.9584 11.5629 21.3719 8.3079 21.63 6.84884Z" fill="#6979F8"/>
</g>
<defs>
<clipPath id="clip0_2511_709">
<rect width="28" height="28" fill="white" transform="translate(0 0.688843)"/>
</clipPath>
</defs>
</svg>
