<svg width="28" height="29" viewBox="0 0 28 29" fill="none" xmlns="http://www.w3.org/2000/svg">
<path d="M6.16003 1.80884V27.5688H12.8275L14 15.8329L15.1725 27.5688H21.84V1.80884H6.16003ZM7.28003 2.92884H20.72V4.04884H19.04C17.0275 4.04884 15.6997 4.33759 14.8575 4.64384C14.466 4.78602 14.1991 4.92821 14 5.05071C13.801 4.92821 13.5341 4.78602 13.1425 4.64384C12.3003 4.33759 10.9725 4.04884 8.96003 4.04884H7.28003V2.92884ZM7.28003 5.16884H8.96003C10.8675 5.16884 12.0597 5.44009 12.7575 5.69384C13.1075 5.8229 13.335 5.9454 13.4663 6.02634C13.5953 6.10946 13.6041 6.12477 13.6041 6.12477L14 6.52071L14.396 6.12477C14.396 6.12477 14.4047 6.10946 14.5338 6.02634C14.665 5.9454 14.8925 5.8229 15.2425 5.69384C15.9403 5.44009 17.1325 5.16884 19.04 5.16884H20.72V6.28884H16.24V11.1145L19.04 12.5145L20.72 11.6745V26.4488H16.1875L14.5578 10.1541L14 10.2088L13.4422 10.1541L11.8125 26.4488H7.28003V11.6745L8.96003 12.5145L11.76 11.1145V6.28884H7.28003V5.16884ZM7.28003 7.40884H10.64V10.4232L8.96003 11.2632L7.28003 10.4232V7.40884ZM17.36 7.40884H20.72V10.4232L19.04 11.2632L17.36 10.4232V7.40884Z" fill="#6979F8"/>
</svg>
