<svg width="28" height="29" viewBox="0 0 28 29" fill="none" xmlns="http://www.w3.org/2000/svg">
<path d="M14 1.24884C12.0925 1.24884 10.9025 1.67103 10.5525 1.80884H10.535L6.685 2.38634H6.65C6.6325 2.39072 6.615 2.39728 6.5975 2.40384C6.5625 2.41259 6.52531 2.42353 6.4925 2.43884C6.44 2.46728 6.39406 2.50228 6.3525 2.54384C6.34594 2.5504 6.34156 2.55478 6.335 2.56134C6.31531 2.57665 6.29781 2.59415 6.2825 2.61384C6.26938 2.62478 6.25844 2.63572 6.2475 2.64884C6.24313 2.65322 6.23438 2.66197 6.23 2.66634C6.22344 2.67728 6.21688 2.6904 6.2125 2.70134C5.8975 3.03165 4.5675 4.45134 3.185 6.53384C1.61219 8.9029 0 12.0485 0 15.2488V23.0888C0 23.3973 0.251563 23.6488 0.56 23.6488H4.48C4.78844 23.6488 5.04 23.3973 5.04 23.0888V15.2488C5.04 15.321 5.05531 15.1723 5.11 15.0038C5.16469 14.8354 5.25 14.6101 5.355 14.3563C5.56281 13.851 5.84281 13.2298 6.125 12.6238C6.13813 12.5976 6.14688 12.5801 6.16 12.5538V27.0088C6.16 27.3173 6.41156 27.5688 6.72 27.5688H21.28C21.5884 27.5688 21.84 27.3173 21.84 27.0088V12.5538C21.8531 12.5801 21.8619 12.5976 21.875 12.6238C22.1572 13.2298 22.4372 13.851 22.645 14.3563C22.75 14.6101 22.8353 14.8354 22.89 15.0038C22.9447 15.1723 22.96 15.321 22.96 15.2488V23.0888C22.96 23.3973 23.2116 23.6488 23.52 23.6488H27.44C27.7484 23.6488 28 23.3973 28 23.0888V15.2488C28 12.0485 26.3878 8.9029 24.815 6.53384C23.4063 4.41197 22.05 2.97697 21.77 2.68384C21.77 2.67728 21.77 2.6729 21.77 2.66634C21.7153 2.57665 21.6366 2.50447 21.5425 2.45634C21.4834 2.42134 21.4178 2.39728 21.35 2.38634H21.3325L17.465 1.80884C17.4584 1.80665 17.4541 1.81103 17.4475 1.80884C17.0975 1.67103 15.9075 1.24884 14 1.24884ZM14 2.36884C15.1922 2.36884 15.995 2.52415 16.5025 2.66634C16.065 3.23509 15.2184 4.04884 14 4.04884C12.7816 4.04884 11.935 3.23509 11.4975 2.66634C12.005 2.52415 12.8078 2.36884 14 2.36884ZM10.4125 2.98134C10.7231 3.51947 11.7644 5.16884 14 5.16884C16.2356 5.16884 17.2769 3.51947 17.5875 2.98134L20.615 3.41884C20.3897 4.2304 19.7356 6.97353 20.6675 9.99884C20.6719 10.0098 20.6631 10.0229 20.6675 10.0338C20.6675 10.0404 20.6675 10.0448 20.6675 10.0513C20.6763 10.1126 20.6938 10.1717 20.72 10.2263C20.72 10.2329 20.72 10.2373 20.72 10.2438V26.4488H7.28V10.2263C7.28 10.2198 7.28 10.2154 7.28 10.2088C7.29313 10.1804 7.30625 10.152 7.315 10.1213C7.32375 10.0929 7.32375 10.0623 7.3325 10.0338C7.3325 10.0273 7.3325 10.0229 7.3325 10.0163C8.27094 6.98447 7.61031 4.2304 7.385 3.41884L10.4125 2.98134ZM6.4225 4.10134C6.66969 5.35259 6.95188 7.61446 6.3 9.71884C6.29781 9.7254 6.28469 9.72978 6.2825 9.73634C6.27594 9.74728 6.26938 9.7604 6.265 9.77134C6.265 9.77134 5.68531 10.922 5.11 12.1513C4.82344 12.766 4.54344 13.4004 4.3225 13.9363C4.21313 14.2054 4.1125 14.4438 4.0425 14.6538C3.9725 14.8638 3.92 15.006 3.92 15.2488V22.5288H1.12V15.2488C1.12 12.4292 2.60094 9.42353 4.1125 7.14634C5.005 5.80322 5.845 4.76634 6.4225 4.10134ZM21.5775 4.10134C22.155 4.76634 22.995 5.80322 23.8875 7.14634C25.3991 9.42353 26.88 12.4292 26.88 15.2488V22.5288H24.08V15.2488C24.08 15.006 24.0275 14.8638 23.9575 14.6538C23.8875 14.4438 23.7869 14.2054 23.6775 13.9363C23.4566 13.4004 23.1766 12.766 22.89 12.1513C22.3147 10.922 21.735 9.77134 21.735 9.77134C21.7219 9.73415 21.7044 9.69915 21.6825 9.66634C21.0503 7.57728 21.3325 5.34165 21.5775 4.10134Z" fill="#6979F8"/>
</svg>
