<svg width="28" height="29" viewBox="0 0 28 29" fill="none" xmlns="http://www.w3.org/2000/svg">
<path d="M14 1.24884C12.1078 1.24884 10.92 1.67103 10.57 1.80884C10.4584 1.82415 10.3556 1.87447 10.2725 1.94884C10.2594 1.95978 10.2484 1.97072 10.2375 1.98384L7.4025 4.34634C6.13156 5.42478 1.12 8.56822 1.12 14.6888V22.5288C1.12 22.8373 1.37156 23.0888 1.68 23.0888H5.04V27.0088C5.04 27.3173 5.29156 27.5688 5.6 27.5688H22.4C22.7084 27.5688 22.96 27.3173 22.96 27.0088V23.0888H26.32C26.6284 23.0888 26.88 22.8373 26.88 22.5288V14.6888C26.88 8.56822 21.8684 5.42478 20.5975 4.34634L17.78 2.00134C17.7647 1.98165 17.7472 1.96415 17.7275 1.94884C17.7209 1.94228 17.7166 1.9379 17.71 1.93134C17.7034 1.92478 17.6991 1.9204 17.6925 1.91384C17.6816 1.90728 17.6684 1.90072 17.6575 1.89634C17.6509 1.88978 17.6466 1.8854 17.64 1.87884C17.6291 1.87884 17.6159 1.87884 17.605 1.87884C17.5984 1.87228 17.5941 1.8679 17.5875 1.86134C17.5437 1.83728 17.4956 1.81978 17.4475 1.80884C17.1259 1.67978 15.9272 1.24884 14 1.24884ZM14 2.36884C15.5837 2.36884 16.3909 2.61603 16.765 2.75384C16.6512 4.78822 15.6778 6.81384 14.63 8.75634C14.4397 9.11071 14.2778 9.44103 14.0875 9.78884C14.0372 9.71228 14 9.64446 13.9475 9.56134C13.6237 9.05165 13.2169 8.45665 12.81 7.75884C12.0487 6.45509 11.3619 4.76853 11.27 2.75384C11.6659 2.61165 12.4578 2.36884 14 2.36884ZM17.8325 3.48884L19.88 5.20384L19.9675 5.29134L18.6025 6.35884C18.4756 6.45728 18.3969 6.60603 18.3859 6.7679C18.375 6.92759 18.4362 7.08509 18.55 7.19884L19.6875 8.33634L13.7025 13.2888C13.8141 12.941 13.9541 12.5823 14.1225 12.2038C14.2537 12.0901 14.3237 11.9217 14.315 11.7488C14.6847 10.9767 15.1441 10.1607 15.61 9.29884C16.5659 7.52915 17.5525 5.5779 17.8325 3.48884ZM10.15 3.50634C10.3666 5.46197 11.1016 7.07197 11.83 8.31884C12.2631 9.0604 12.6962 9.67728 13.0025 10.1563C13.2737 10.5829 13.3962 10.887 13.4225 10.9438L8.4175 8.23134L9.45 7.19884C9.56375 7.08509 9.625 6.92759 9.61406 6.7679C9.60312 6.60603 9.52437 6.45728 9.3975 6.35884L8.0325 5.29134L10.15 3.50634ZM7.1225 6.00884L8.2075 6.84884L7.0875 7.98634C6.96718 8.11103 6.91031 8.28384 6.93437 8.45447C6.95843 8.62509 7.06125 8.77603 7.21 8.86134L13.0025 11.9763C12.6153 12.871 12.3309 13.7613 12.32 14.6363C12.32 14.6538 12.32 14.6713 12.32 14.6888V26.4488H6.16V24.7688H9.52C10.1325 24.7688 10.64 24.2613 10.64 23.6488V19.7288C10.64 19.4204 10.3884 19.1688 10.08 19.1688H6.16V11.3288H5.04V19.6763C5.04 19.6938 5.04 19.7113 5.04 19.7288V21.9688H2.24V14.6888C2.24 10.0513 5.23468 7.49634 7.1225 6.00884ZM20.8775 6.00884C22.7653 7.49634 25.76 10.0513 25.76 14.6888V21.9688H22.96V19.7288C22.96 19.7113 22.96 19.6938 22.96 19.6763V11.8888C22.96 11.8713 22.96 11.8538 22.96 11.8363V11.3288H18.48C18.4625 11.3288 18.445 11.3288 18.4275 11.3288C18.41 11.3288 18.3925 11.3288 18.375 11.3288C18.1081 11.3792 17.9156 11.6154 17.92 11.8888V15.2488C17.92 15.8613 18.4275 16.3688 19.04 16.3688H21.84V19.1688H17.92C17.9025 19.1688 17.885 19.1688 17.8675 19.1688C17.5787 19.1951 17.3578 19.4379 17.36 19.7288V23.6488C17.36 24.2613 17.8675 24.7688 18.48 24.7688H21.84V26.4488H13.44V14.9513L20.8775 8.80884C20.9978 8.70821 21.0678 8.56165 21.0744 8.40634C21.0809 8.24884 21.0219 8.0979 20.9125 7.98634L19.7925 6.84884L20.8775 6.00884ZM19.04 12.4488H21.84V15.2488H19.04V12.4488ZM14.7875 15.7038C14.4791 15.7038 14.2275 15.9554 14.2275 16.2638C14.2275 16.5723 14.4791 16.8238 14.7875 16.8238C15.0959 16.8238 15.3475 16.5723 15.3475 16.2638C15.3475 15.9554 15.0959 15.7038 14.7875 15.7038ZM14.7875 18.5038C14.4791 18.5038 14.2275 18.7554 14.2275 19.0638C14.2275 19.3723 14.4791 19.6238 14.7875 19.6238C15.0959 19.6238 15.3475 19.3723 15.3475 19.0638C15.3475 18.7554 15.0959 18.5038 14.7875 18.5038ZM6.16 20.2888H9.52V23.6488H6.16V20.2888ZM18.48 20.2888H21.84V23.6488H18.48V20.2888ZM14.7875 21.3038C14.4791 21.3038 14.2275 21.5554 14.2275 21.8638C14.2275 22.1723 14.4791 22.4238 14.7875 22.4238C15.0959 22.4238 15.3475 22.1723 15.3475 21.8638C15.3475 21.5554 15.0959 21.3038 14.7875 21.3038Z" fill="#6979F8"/>
</svg>
