<svg width="29" height="29" viewBox="0 0 29 29" fill="none" xmlns="http://www.w3.org/2000/svg">
<path d="M7.07465 7.33686L11.3147 11.5769M16.9747 17.2369L21.2147 21.4769M21.2147 7.33686L16.9747 11.5769L20.5047 8.04686M7.07465 21.4769L11.3147 17.2369M24.1447 14.4069C24.1447 19.9297 19.6675 24.4069 14.1447 24.4069C8.62181 24.4069 4.14465 19.9297 4.14465 14.4069C4.14465 8.88401 8.62181 4.40686 14.1447 4.40686C19.6675 4.40686 24.1447 8.88401 24.1447 14.4069ZM18.1447 14.4069C18.1447 16.616 16.3538 18.4069 14.1447 18.4069C11.9355 18.4069 10.1447 16.616 10.1447 14.4069C10.1447 12.1977 11.9355 10.4069 14.1447 10.4069C16.3538 10.4069 18.1447 12.1977 18.1447 14.4069Z" stroke="#6979F8" stroke-linecap="round" stroke-linejoin="round"/>
</svg>
