<svg width="29" height="29" viewBox="0 0 29 29" fill="none" xmlns="http://www.w3.org/2000/svg">
<path d="M18.1447 10.2139C19.736 10.2139 21.2621 10.846 22.3873 11.9712C23.5125 13.0964 24.1447 14.6226 24.1447 16.2139V23.2139H20.1447V16.2139C20.1447 15.6834 19.9339 15.1747 19.5589 14.7997C19.1838 14.4246 18.6751 14.2139 18.1447 14.2139C17.6142 14.2139 17.1055 14.4246 16.7304 14.7997C16.3554 15.1747 16.1447 15.6834 16.1447 16.2139V23.2139H12.1447V16.2139C12.1447 14.6226 12.7768 13.0964 13.902 11.9712C15.0272 10.846 16.5534 10.2139 18.1447 10.2139Z" stroke="#6979F8" stroke-linecap="round" stroke-linejoin="round"/>
<path d="M8.14465 11.2139H4.14465V23.2139H8.14465V11.2139Z" stroke="#6979F8" stroke-linecap="round" stroke-linejoin="round"/>
<path d="M6.14465 8.21387C7.24922 8.21387 8.14465 7.31844 8.14465 6.21387C8.14465 5.1093 7.24922 4.21387 6.14465 4.21387C5.04008 4.21387 4.14465 5.1093 4.14465 6.21387C4.14465 7.31844 5.04008 8.21387 6.14465 8.21387Z" stroke="#6979F8" stroke-linecap="round" stroke-linejoin="round"/>
</svg>
