<svg width="28" height="28" viewBox="0 0 28 28" fill="none" xmlns="http://www.w3.org/2000/svg">
<path d="M10 8H23M10 14H23M10 20H23" stroke="#6979F8" stroke-linecap="round" stroke-linejoin="round"/>
<path d="M5.5 8C5.5 8.27614 5.27614 8.5 5 8.5C4.72386 8.5 4.5 8.27614 4.5 8C4.5 7.72386 4.72386 7.5 5 7.5C5.27614 7.5 5.5 7.72386 5.5 8ZM5.5 14C5.5 14.2761 5.27614 14.5 5 14.5C4.72386 14.5 4.5 14.2761 4.5 14C4.5 13.7239 4.72386 13.5 5 13.5C5.27614 13.5 5.5 13.7239 5.5 14ZM5.5 20C5.5 20.2761 5.27614 20.5 5 20.5C4.72386 20.5 4.5 20.2761 4.5 20C4.5 19.7239 4.72386 19.5 5 19.5C5.27614 19.5 5.5 19.7239 5.5 20Z" stroke="#6979F8"/>
</svg>
