<svg width="28" height="29" viewBox="0 0 28 29" fill="none" xmlns="http://www.w3.org/2000/svg">
<path d="M11.6177 1.63821L8.88334 2.5504L9.46084 5.79228C9.27928 5.88853 9.17866 5.91696 8.89428 6.14009C8.41303 6.51853 7.83991 7.10696 7.83991 7.95134C7.83991 8.89634 8.34303 9.65759 8.76084 10.3445C9.18084 11.0313 9.51991 11.6416 9.51991 12.1688C9.51991 12.5516 9.42584 12.8054 9.24647 13.1138C9.06491 13.4245 8.78709 13.7723 8.48959 14.2316C7.89241 15.1526 7.27991 16.5154 7.27991 18.9435C7.27991 22.0957 8.41741 26.5845 8.41741 26.5845L8.49616 26.9038L8.81334 26.9891C8.81334 26.9891 10.9177 27.5579 13.9999 27.5579C17.0821 27.5579 19.1865 26.9891 19.1865 26.9891L19.5037 26.9038L19.5824 26.5845C19.5824 26.5845 20.7199 22.0957 20.7199 18.9435C20.7199 16.5154 20.1074 15.1526 19.5102 14.2316C19.2127 13.7723 18.9349 13.4245 18.7533 13.1138C18.574 12.8054 18.4799 12.5516 18.4799 12.1688C18.4799 11.6416 18.819 11.0313 19.239 10.3445C19.6568 9.65759 20.1599 8.89634 20.1599 7.95134C20.1599 7.10696 19.5868 6.51853 19.1055 6.14009C18.8212 5.91696 18.7205 5.88853 18.539 5.79228L19.1165 2.5504L16.3821 1.63821L16.2508 2.25071C15.8768 4.01165 14.3608 4.86696 13.9999 5.05946C13.639 4.86696 12.123 4.01165 11.749 2.25071L11.6177 1.63821ZM10.8958 3.06009C11.6855 5.22134 13.7637 6.23634 13.7637 6.23634L13.9999 6.34571L14.2362 6.23634C14.2362 6.23634 16.3143 5.22134 17.104 3.06009L17.8433 3.30728L17.2921 6.39821L17.6924 6.57759C17.6924 6.57759 18.0555 6.74165 18.4143 7.02165C18.773 7.30165 19.0399 7.65821 19.0399 7.95134C19.0399 8.4654 18.703 9.07134 18.2808 9.7604C17.8608 10.4495 17.3599 11.2173 17.3599 12.1688C17.3599 12.766 17.5458 13.2626 17.7865 13.676C18.0249 14.0916 18.3071 14.4373 18.5696 14.8398C19.0924 15.6491 19.5999 16.6926 19.5999 18.9435C19.5999 21.632 18.6943 25.4491 18.5674 25.9741C18.1671 26.0726 16.5877 26.4379 13.9999 26.4379C11.4121 26.4379 9.83272 26.0726 9.43241 25.9741C9.30553 25.4491 8.39991 21.632 8.39991 18.9435C8.39991 16.6926 8.90741 15.6491 9.43022 14.8398C9.69272 14.4373 9.97491 14.0916 10.2133 13.676C10.454 13.2626 10.6399 12.766 10.6399 12.1688C10.6399 11.2173 10.139 10.4495 9.71897 9.7604C9.29678 9.07134 8.95991 8.4654 8.95991 7.95134C8.95991 7.65821 9.22678 7.30165 9.58553 7.02165C9.94428 6.74165 10.3074 6.57759 10.3074 6.57759L10.7077 6.39821L10.1565 3.30728L10.8958 3.06009Z" fill="#6979F8"/>
</svg>
