<svg width="29" height="29" viewBox="0 0 29 29" fill="none" xmlns="http://www.w3.org/2000/svg">
<path d="M9.88818 13.2139V9.21387C9.88818 7.88778 10.415 6.61602 11.3526 5.67833C12.2903 4.74065 13.5621 4.21387 14.8882 4.21387C16.2143 4.21387 17.486 4.74065 18.4237 5.67833C19.3614 6.61602 19.8882 7.88778 19.8882 9.21387V13.2139M7.88818 13.2139H21.8882C22.9928 13.2139 23.8882 14.1093 23.8882 15.2139V22.2139C23.8882 23.3184 22.9928 24.2139 21.8882 24.2139H7.88818C6.78361 24.2139 5.88818 23.3184 5.88818 22.2139V15.2139C5.88818 14.1093 6.78361 13.2139 7.88818 13.2139Z" stroke="#6979F8" stroke-linecap="round" stroke-linejoin="round"/>
</svg>
