<svg width="28" height="29" viewBox="0 0 28 29" fill="none" xmlns="http://www.w3.org/2000/svg">
<path d="M5.60005 2.92883C5.45153 2.92885 5.3091 2.98785 5.20408 3.09287C5.09907 3.19789 5.04006 3.34032 5.04005 3.48883V5.39086C3.91251 7.97093 3.92005 10.7163 3.92005 10.7163V12.4466V12.9126V25.8888C3.92006 26.0373 3.97906 26.1798 4.08408 26.2848C4.1891 26.3898 4.33153 26.4488 4.48005 26.4488H12.32C12.4564 26.4488 12.5882 26.399 12.6905 26.3088C12.7927 26.2186 12.8586 26.0942 12.8757 25.9588L13.9957 16.9956L15.1004 25.9577C15.1172 26.0933 15.1829 26.218 15.2853 26.3084C15.3876 26.3989 15.5194 26.4488 15.656 26.4488H23.52C23.6686 26.4488 23.811 26.3898 23.916 26.2848C24.021 26.1798 24.08 26.0373 24.08 25.8888V12.9126V12.4696V10.7163C24.08 10.7163 24.0876 7.97093 22.96 5.39086V3.48883C22.96 3.34032 22.901 3.19789 22.796 3.09287C22.691 2.98785 22.5486 2.92885 22.4 2.92883H5.60005ZM6.16005 4.04883H21.84V5.16883H6.16005V4.04883ZM5.8877 6.28883H9.52005C9.52005 9.00261 8.27347 10.3115 6.99786 11.0554C6.24869 11.4923 5.53188 11.6913 5.04005 11.7915V10.7163C5.04005 10.7163 5.06279 8.46568 5.8877 6.28883ZM10.64 6.28883H17.36C17.36 9.36377 18.9135 11.1344 20.4379 12.0234C21.4366 12.6058 22.3911 12.8326 22.96 12.9301V25.3288H16.1515L14.5557 12.3799C14.5387 12.2446 14.4729 12.1202 14.3707 12.0299C14.2685 11.9396 14.1369 11.8898 14.0005 11.8896C13.8642 11.8895 13.7324 11.9391 13.6301 12.0292C13.5277 12.1192 13.4617 12.2436 13.4444 12.3788L11.8257 25.3288H5.04005V12.9301C5.60896 12.8326 6.5635 12.6058 7.56223 12.0234C9.08662 11.1344 10.64 9.36377 10.64 6.28883ZM18.48 6.28883H22.1124C22.9373 8.46568 22.96 10.7163 22.96 10.7163V11.7915C22.4682 11.6913 21.7514 11.4923 21.0022 11.0554C19.7266 10.3115 18.48 9.00261 18.48 6.28883Z" fill="#6979F8"/>
</svg>
