<svg width="28" height="29" viewBox="0 0 28 29" fill="none" xmlns="http://www.w3.org/2000/svg">
<path d="M23 12.4958C23 19.4958 14 25.4958 14 25.4958C14 25.4958 5 19.4958 5 12.4958C5 10.1089 5.94821 7.81972 7.63604 6.13189C9.32387 4.44406 11.6131 3.49585 14 3.49585C16.3869 3.49585 18.6761 4.44406 20.364 6.13189C22.0518 7.81972 23 10.1089 23 12.4958Z" stroke="#6979F8" stroke-linecap="round" stroke-linejoin="round"/>
<path d="M14 15.4958C15.6569 15.4958 17 14.1527 17 12.4958C17 10.839 15.6569 9.49585 14 9.49585C12.3431 9.49585 11 10.839 11 12.4958C11 14.1527 12.3431 15.4958 14 15.4958Z" stroke="#6979F8" stroke-linecap="round" stroke-linejoin="round"/>
</svg>
