<svg width="28" height="29" viewBox="0 0 28 29" fill="none" xmlns="http://www.w3.org/2000/svg">
<path d="M11.1125 1.80884L7.75249 2.36884L7.50749 2.42134L7.38499 2.61384L1.22499 11.5738L0.92749 11.9938L1.32999 12.3263L4.68999 15.1263L5.14499 15.5113L5.49499 15.0038L6.71999 13.2888V21.9688H7.27999V27.5688H8.39999V21.9688H19.6V27.5688H20.72V21.9688H21.28V13.8488L22.505 15.5638L22.855 16.0713L23.31 15.6863L26.67 12.8863L27.055 12.5538L26.7925 12.1513L20.6325 2.63134L20.4925 2.42134L20.2475 2.36884L16.8875 1.80884H11.1125ZM12.04 2.92884H15.9775L14.1225 7.74134L12.04 2.92884ZM10.8675 2.99884L14.56 11.5388V20.8488H7.83999V9.75384L6.82499 11.2063L4.93499 13.8663L2.43249 11.7838L8.15499 3.45384L10.8675 2.99884ZM17.15 2.99884L19.8275 3.45384L25.585 12.3438L23.065 14.4263L21.175 11.7663L20.16 10.3138V20.8488H15.68V11.3288L15.6275 11.2238L14.77 9.21134L17.15 2.99884ZM12.88 13.5688C12.5716 13.5688 12.32 13.8204 12.32 14.1288C12.32 14.4373 12.5716 14.6888 12.88 14.6888C13.1884 14.6888 13.44 14.4373 13.44 14.1288C13.44 13.8204 13.1884 13.5688 12.88 13.5688ZM12.88 15.8088C12.5716 15.8088 12.32 16.0604 12.32 16.3688C12.32 16.6773 12.5716 16.9288 12.88 16.9288C13.1884 16.9288 13.44 16.6773 13.44 16.3688C13.44 16.0604 13.1884 15.8088 12.88 15.8088ZM12.88 18.0488C12.5716 18.0488 12.32 18.3004 12.32 18.6088C12.32 18.9173 12.5716 19.1688 12.88 19.1688C13.1884 19.1688 13.44 18.9173 13.44 18.6088C13.44 18.3004 13.1884 18.0488 12.88 18.0488ZM13.44 25.3288V27.5688H14.56V25.3288H13.44Z" fill="#6979F8"/>
</svg>
