<svg width="28" height="29" viewBox="0 0 28 29" fill="none" xmlns="http://www.w3.org/2000/svg">
<path d="M3.02749 6.20137C2.78249 6.20137 2.64468 6.33262 2.57249 6.41137C2.5003 6.49012 2.4653 6.55793 2.43249 6.62137C2.36687 6.74606 2.30562 6.87293 2.25749 7.02387C2.16124 7.32793 2.0628 7.72387 1.95999 8.19637C1.75437 9.14356 1.5378 10.3839 1.32999 11.6264C0.914365 14.1114 0.55999 16.5964 0.55999 16.5964C0.557803 16.6204 0.557803 16.6423 0.55999 16.6664C0.55999 16.9639 0.739365 17.117 0.82249 17.1739C0.905615 17.2307 0.975615 17.2395 1.03249 17.2614C1.14624 17.3029 1.24905 17.3357 1.38249 17.3664C1.65155 17.4276 2.00593 17.4801 2.43249 17.5589C3.2878 17.7164 4.42312 17.9461 5.58249 18.2764C6.74186 18.6067 7.92968 19.0398 8.85499 19.6239C9.7803 20.2079 10.4256 20.9211 10.6575 21.7764L10.6925 21.7589C10.7516 22.0629 10.9375 22.2904 11.13 22.4239C11.3553 22.5792 11.6025 22.6776 11.9 22.7739C12.495 22.9664 13.2387 23.0889 14 23.0889C14.7612 23.0889 15.505 22.9664 16.1 22.7739C16.3975 22.6776 16.6447 22.5792 16.87 22.4239C17.0625 22.2904 17.2484 22.0629 17.3075 21.7589L17.3425 21.7764C17.5744 20.9211 18.2197 20.2079 19.145 19.6239C20.0703 19.0398 21.2581 18.6067 22.4175 18.2764C23.5769 17.9461 24.7122 17.7164 25.5675 17.5589C25.9941 17.4801 26.3484 17.4254 26.6175 17.3664C26.7509 17.3357 26.8537 17.3029 26.9675 17.2614C27.0244 17.2395 27.0944 17.2307 27.1775 17.1739C27.2606 17.117 27.44 16.9661 27.44 16.6664C27.4422 16.6423 27.4422 16.6204 27.44 16.5964C27.44 16.5964 27.0856 14.1114 26.67 11.6264C26.4622 10.3839 26.2456 9.14356 26.04 8.19637C25.9372 7.72387 25.8387 7.32793 25.7425 7.02387C25.6944 6.87293 25.6331 6.74606 25.5675 6.62137C25.5347 6.55793 25.4997 6.49012 25.4275 6.41137C25.3553 6.33262 25.2175 6.20137 24.9725 6.20137C24.8741 6.19918 24.7778 6.22325 24.6925 6.27137C24.6925 6.27137 24.6728 6.29325 24.395 6.37637C24.1172 6.4595 23.6294 6.58856 22.855 6.70887C21.3041 6.9495 18.5916 7.19887 14 7.19887C9.40843 7.19887 6.69593 6.9495 5.14499 6.70887C4.37062 6.58856 3.8828 6.4595 3.60499 6.37637C3.32718 6.29325 3.30749 6.27137 3.30749 6.27137C3.22218 6.22325 3.12593 6.19918 3.02749 6.20137ZM3.28999 7.46137C3.62905 7.56418 4.15405 7.6845 4.96999 7.81137C6.60186 8.06512 9.36905 8.31887 14 8.31887C18.6309 8.31887 21.3981 8.06512 23.03 7.81137C23.8459 7.6845 24.3709 7.56418 24.71 7.46137C24.7822 7.69981 24.8478 8.01481 24.9375 8.42387C25.1366 9.33387 25.3619 10.5676 25.5675 11.8014C25.9394 14.0348 26.1931 15.8745 26.25 16.2814C26.0247 16.3295 25.7359 16.3864 25.3575 16.4564C24.4978 16.6161 23.3231 16.8436 22.1025 17.1914C21.2603 17.432 20.405 17.7361 19.6 18.1189C19.6372 15.4282 19.4687 12.1382 18.4275 9.96387C18.3225 9.73856 18.0797 9.6095 17.8325 9.64887C17.6553 9.67512 17.5 9.7845 17.4169 9.94418C17.3337 10.1039 17.3316 10.2942 17.4125 10.4539C18.34 12.392 18.5303 15.9926 18.4625 18.7139C18.4625 18.7204 18.4625 18.7248 18.4625 18.7314C17.4322 19.4007 16.5769 20.2998 16.2575 21.4789C16.2509 21.4854 16.2466 21.4898 16.24 21.4964C16.1591 21.5532 15.9775 21.632 15.75 21.7064C15.295 21.8529 14.6387 21.9689 14 21.9689C13.3612 21.9689 12.705 21.8529 12.25 21.7064C12.0225 21.632 11.8409 21.5532 11.76 21.4964C11.7491 21.4876 11.7469 21.4942 11.7425 21.4964C11.7425 21.4898 11.7425 21.4854 11.7425 21.4789C11.4231 20.2998 10.5678 19.4007 9.53749 18.7314C9.53749 18.7248 9.53749 18.7204 9.53749 18.7139C9.46968 15.9926 9.65999 12.392 10.5875 10.4539C10.6837 10.2657 10.6641 10.0382 10.5394 9.86762C10.4125 9.697 10.2003 9.61387 9.99249 9.64887C9.80874 9.67731 9.65124 9.79543 9.57249 9.96387C8.53124 12.1382 8.3628 15.4282 8.39999 18.1189C7.59499 17.7361 6.73968 17.4298 5.89749 17.1914C4.67687 16.8457 3.50218 16.6336 2.64249 16.4739C2.26405 16.4039 1.9753 16.3295 1.74999 16.2814C1.80687 15.8745 2.06062 14.0348 2.43249 11.8014C2.63812 10.5676 2.86343 9.33387 3.06249 8.42387C3.15218 8.01481 3.2178 7.69981 3.28999 7.46137Z" fill="#6979F8"/>
</svg>
