<svg width="28" height="29" viewBox="0 0 28 29" fill="none" xmlns="http://www.w3.org/2000/svg">
<path d="M14.0001 1.80884C11.5324 1.80884 9.52005 3.82123 9.52005 6.28884V8.52884C9.52009 8.55187 9.52155 8.57489 9.52443 8.59774C9.52935 9.07215 9.58498 9.53431 9.67865 9.98243C8.78591 10.2706 7.12988 11.0178 7.10724 11.0281C7.10432 11.0291 7.1014 11.0302 7.09849 11.0313C7.09847 11.0313 7.09412 11.0335 7.09412 11.0335C7.08339 11.0383 7.07281 11.0434 7.0624 11.0488C7.0624 11.0488 7.05914 11.051 7.05912 11.051C7.03309 11.0651 7.00822 11.0812 6.98474 11.0991C6.88354 11.1569 6.47084 11.4001 5.9238 11.9523C5.30543 12.5764 4.54958 13.5684 3.96052 15.041C3.95621 15.0511 3.9522 15.0613 3.94849 15.0716C3.76431 15.6242 3.20099 16.7954 2.68958 17.9285C2.43388 18.4951 2.18905 19.0596 2.0038 19.5659C1.81855 20.0722 1.68005 20.4959 1.68005 20.9232V27.0088C1.68007 27.1574 1.73907 27.2998 1.84409 27.4048C1.94911 27.5098 2.09154 27.5688 2.24005 27.5688H5.60005C5.74857 27.5688 5.891 27.5098 5.99602 27.4048C6.10103 27.2998 6.16004 27.1574 6.16005 27.0088V21.4088C6.16005 21.4778 6.17012 21.3562 6.2224 21.212C6.27468 21.0678 6.35679 20.8753 6.45755 20.6585C6.65908 20.2249 6.93529 19.6928 7.21224 19.1809C7.23683 19.1354 7.25551 19.1045 7.28005 19.0595V27.0088C7.28007 27.1574 7.33907 27.2998 7.44409 27.4048C7.54911 27.5098 7.69154 27.5688 7.84005 27.5688H20.1601C20.3086 27.5688 20.451 27.5098 20.556 27.4048C20.661 27.2998 20.72 27.1574 20.7201 27.0088V19.0595C20.7446 19.1045 20.7633 19.1354 20.7879 19.1809C21.0648 19.6928 21.341 20.2249 21.5426 20.6585C21.6433 20.8753 21.7254 21.0678 21.7777 21.212C21.83 21.3562 21.8401 21.4778 21.8401 21.4088V27.0088C21.8401 27.1574 21.8991 27.2998 22.0041 27.4048C22.1091 27.5098 22.2515 27.5688 22.4001 27.5688H25.7601C25.9086 27.5688 26.051 27.5098 26.156 27.4048C26.261 27.2998 26.32 27.1574 26.3201 27.0088V20.9232C26.3201 20.4959 26.1816 20.0722 25.9963 19.5659C25.8111 19.0596 25.5662 18.4951 25.3105 17.9285C24.7991 16.7954 24.2358 15.6242 24.0516 15.0716C24.0479 15.0613 24.0439 15.0511 24.0396 15.041C23.4505 13.5684 22.6947 12.5764 22.0763 11.9523C21.5361 11.407 21.132 11.1661 21.023 11.1035C20.9986 11.0846 20.9726 11.0678 20.9454 11.0532C20.9428 11.0517 20.9403 11.0503 20.9377 11.0488C20.927 11.043 20.916 11.0375 20.9049 11.0324C20.9049 11.0324 20.8877 11.0249 20.8874 11.0248C20.8567 11.0109 19.1376 10.2339 18.3215 9.98243C18.4151 9.53431 18.4708 9.07215 18.4757 8.59774C18.4786 8.57489 18.48 8.55187 18.4801 8.52884V6.28884C18.4801 3.82123 16.4677 1.80884 14.0001 1.80884ZM14.0001 2.92884C15.5759 2.92884 16.8868 4.0026 17.254 5.46087C16.4362 4.59412 15.281 4.04884 14.0001 4.04884C12.7191 4.04884 11.5639 4.59412 10.7461 5.46087C11.1133 4.0026 12.4242 2.92884 14.0001 2.92884ZM14.0001 5.16884C15.8624 5.16884 17.3601 6.66652 17.3601 8.52884C17.3601 11.7306 14.59 14.3875 14.0001 14.9349C13.4101 14.3875 10.6401 11.7306 10.6401 8.52884C10.6401 6.66652 12.1377 5.16884 14.0001 5.16884ZM14.0001 9.08884C13.2586 9.08884 12.5251 9.18996 11.9186 9.30868C11.9998 9.68108 12.102 10.0449 12.2336 10.3904C12.7623 10.2907 13.3835 10.2088 14.0001 10.2088C14.6177 10.2088 15.2394 10.2907 15.7686 10.3904C15.8997 10.0449 16.0019 9.68273 16.0826 9.30977C15.4761 9.19105 14.7421 9.08884 14.0001 9.08884ZM9.98599 11.062C10.8833 13.5778 12.8216 15.4653 13.4401 16.0199V19.1688C13.439 19.243 13.4527 19.3167 13.4804 19.3856C13.5081 19.4544 13.5491 19.5171 13.6012 19.57C13.6533 19.6228 13.7154 19.6648 13.7839 19.6934C13.8524 19.7221 13.9258 19.7368 14.0001 19.7368C14.0743 19.7368 14.1477 19.7221 14.2162 19.6934C14.2847 19.6648 14.3468 19.6228 14.3989 19.57C14.451 19.5171 14.4921 19.4544 14.5197 19.3856C14.5474 19.3167 14.5611 19.243 14.5601 19.1688V16.0199C15.1785 15.4653 17.1168 13.5778 18.0141 11.062C18.4536 11.2007 19.3071 11.5773 19.8505 11.8123C19.3051 12.7499 18.5397 14.6677 19.6001 17.0185V26.4488H8.40005V17.0338C9.69442 14.647 8.55791 12.5946 8.08068 11.8396C8.55953 11.6305 9.41801 11.2492 9.98599 11.062ZM20.8065 12.3132C20.9401 12.4197 21.093 12.551 21.2811 12.7409C21.8037 13.2683 22.4677 14.1277 22.9983 15.4523C23.2454 16.182 23.7936 17.2891 24.2901 18.389C24.5409 18.9449 24.7761 19.4917 24.9441 19.9509C25.1121 20.41 25.2001 20.8073 25.2001 20.9232V26.4488H22.9601V21.4088C22.9601 21.17 22.9001 21.0239 22.8299 20.8302C22.7597 20.6366 22.6668 20.4211 22.5576 20.186C22.3391 19.7159 22.0553 19.1703 21.7722 18.6471C21.2203 17.627 20.6871 16.7213 20.6599 16.6751C19.6578 14.5912 20.3614 13.0102 20.8065 12.3132ZM7.15755 12.3427C7.61178 13.1718 8.35559 14.9787 7.36099 16.639C7.36056 16.6397 7.36033 16.6405 7.3599 16.6412C7.35916 16.6423 7.35844 16.6434 7.35771 16.6445C7.35771 16.6445 6.79397 17.6008 6.22787 18.6471C5.94482 19.1703 5.66103 19.7159 5.44255 20.186C5.33332 20.4211 5.24043 20.6366 5.17021 20.8302C5.09999 21.0239 5.04005 21.17 5.04005 21.4088V26.4488H2.80005V20.9232C2.80005 20.8073 2.888 20.41 3.05599 19.9509C3.22398 19.4917 3.45917 18.9449 3.71005 18.389C4.20555 17.2911 4.75184 16.1865 4.99958 15.4566L5.00177 15.4523C5.53239 14.1277 6.19641 13.2683 6.71896 12.7409C6.88957 12.5687 7.03122 12.4457 7.15755 12.3427Z" fill="#6979F8"/>
</svg>
