<svg width="29" height="28" viewBox="0 0 29 28" fill="none" xmlns="http://www.w3.org/2000/svg">
<path d="M23.1447 13.5C23.1481 14.8199 22.8397 16.1219 22.2447 17.3C21.5391 18.7118 20.4544 19.8992 19.1121 20.7293C17.7698 21.5594 16.2229 21.9994 14.6447 22C13.3248 22.0035 12.0228 21.6951 10.8447 21.1L5.14465 23L7.04465 17.3C6.44958 16.1219 6.14121 14.8199 6.14465 13.5C6.14526 11.9218 6.58527 10.3749 7.41537 9.03258C8.24548 7.69028 9.43291 6.6056 10.8447 5.90003C12.0228 5.30496 13.3248 4.99659 14.6447 5.00003H15.1447C17.229 5.11502 19.1977 5.99479 20.6738 7.47089C22.1499 8.94699 23.0297 10.9157 23.1447 13V13.5Z" stroke="#6979F8" stroke-linecap="round" stroke-linejoin="round"/>
</svg>
