<svg width="28" height="29" viewBox="0 0 28 29" fill="none" xmlns="http://www.w3.org/2000/svg">
<g clip-path="url(#clip0_2511_718)">
<path d="M14.245 0.688865C14.0087 0.69324 13.7768 0.730427 13.545 0.793865C12.414 1.10011 11.4734 1.69949 10.92 2.78886C10.3665 3.87824 10.15 5.38105 10.15 7.56636V8.52886C9.00154 8.95324 7.33247 9.57886 7.33247 9.57886C7.32154 9.58324 7.30841 9.5898 7.29747 9.59636C6.88622 9.78886 6.40279 9.95949 5.93247 10.2789C5.91716 10.2898 5.89529 10.2854 5.87997 10.2964C5.84935 10.3117 5.82091 10.3292 5.79247 10.3489C5.76185 10.3686 5.73122 10.3926 5.70497 10.4189C5.67216 10.4451 5.63279 10.4407 5.59997 10.4714C5.0356 10.9964 4.67904 11.8604 4.51497 13.3589L3.35997 25.3814C3.34685 25.552 3.41029 25.7204 3.53497 25.8364C5.60435 27.7439 9.11747 28.6714 9.11747 28.6714C9.2531 28.7042 9.39747 28.6867 9.51997 28.6189L23.065 21.6539C23.2531 21.562 23.3756 21.3739 23.38 21.1639C23.38 18.6898 22.9993 16.3426 22.995 16.3164C23.1809 16.1523 23.625 15.7914 23.625 15.7914C23.7497 15.6754 23.8131 15.507 23.8 15.3364C23.8 15.3364 23.3318 10.7711 22.435 8.26636C21.969 6.96699 21.164 6.17511 20.2825 5.81636C19.8406 5.63699 19.4031 5.55386 18.97 5.55386C18.5368 5.55386 18.1168 5.63043 17.745 5.74636C17.6772 5.76824 17.349 5.89293 17.22 5.93886V4.97636C17.22 3.41668 16.8393 2.24855 16.1525 1.51136C15.809 1.14386 15.3978 0.896677 14.945 0.776365C14.7197 0.717302 14.4812 0.68449 14.245 0.688865ZM14.2625 1.80886C14.6672 1.79355 15.015 1.9423 15.33 2.28136C15.75 2.73199 16.1 3.60043 16.1 4.97636V6.34136C15.9556 6.39386 15.9468 6.3873 15.785 6.44636C14.7743 6.81605 13.5012 7.29511 12.25 7.75886C11.7512 7.94261 11.7447 7.95136 11.27 8.12636V7.56636C11.27 5.4598 11.504 4.11011 11.9175 3.29636C12.3309 2.48261 12.8953 2.1348 13.8425 1.87886C13.9912 1.83949 14.1268 1.81324 14.2625 1.80886ZM18.9525 6.67386C19.2587 6.67386 19.5693 6.73074 19.8625 6.84886C20.4465 7.0873 21.0043 7.58824 21.385 8.65136C22.1309 10.7317 22.5925 14.7086 22.645 15.1614C22.3431 15.4348 20.3525 17.2176 18.2175 18.1889C14.1137 20.0548 11.6681 20.6214 10.9375 20.7789C10.8806 19.8404 10.6487 16.1129 10.01 13.3764C9.63591 11.7773 8.72154 10.957 7.87497 10.5764C7.93404 10.5545 9.28591 10.0579 10.01 9.78887C10.1784 9.99668 10.5065 10.1389 10.9025 10.1389C11.4625 10.1389 11.9175 9.84355 11.9175 9.49136C11.9175 9.35793 11.8693 9.24418 11.76 9.14136C12.18 8.98605 12.1865 8.97511 12.635 8.80886C13.6762 8.42386 14.6672 8.04105 15.575 7.70636C15.7281 7.93605 16.1 8.09136 16.52 8.09136C17.08 8.09136 17.535 7.79605 17.535 7.44386C17.535 7.30386 17.4628 7.18136 17.3425 7.07636C17.559 6.9998 18.0293 6.82918 18.0775 6.81386C18.3465 6.72855 18.6462 6.67386 18.9525 6.67386ZM6.64997 11.3639C6.8206 11.3726 7.04372 11.4164 7.31497 11.5214C7.7656 11.6964 8.25779 12.0157 8.60997 12.7464L8.62747 27.3064C7.65404 26.9629 5.77497 26.2192 4.51497 25.1539L5.63497 13.4814V13.4639C5.77497 12.1973 6.03966 11.6745 6.31747 11.3814C6.35904 11.377 6.47935 11.3551 6.64997 11.3639ZM21.98 17.1564C22.0762 17.8454 22.2162 19.1492 22.2425 20.8314L9.74747 27.2539L9.72997 19.7639C9.81091 20.7439 9.86997 21.5139 9.86997 21.5139C9.8831 21.6736 9.96185 21.8201 10.0887 21.9164C10.2156 22.0126 10.3775 22.052 10.535 22.0214C10.535 22.0214 12.6503 21.6254 15.9775 20.3414C16.2334 20.9014 16.8853 21.1311 17.5525 20.8489C18.2218 20.5667 18.6768 19.8776 18.6375 19.2214C18.655 19.2126 18.6725 19.2126 18.69 19.2039C19.9172 18.6461 21.0787 17.8432 21.98 17.1564Z" fill="#6979F8"/>
</g>
<defs>
<clipPath id="clip0_2511_718">
<rect width="28" height="28" fill="white" transform="translate(0 0.688843)"/>
</clipPath>
</defs>
</svg>
