<svg width="28" height="29" viewBox="0 0 28 29" fill="none" xmlns="http://www.w3.org/2000/svg">
<path d="M3 3.40988L25 25.4099M17 11.7499V6.40988C17.0007 5.66591 16.725 4.9482 16.2264 4.39608C15.7277 3.84396 15.0417 3.49682 14.3015 3.42206C13.5613 3.34729 12.8197 3.55022 12.2207 3.99147C11.6217 4.43272 11.208 5.08079 11.06 5.80988M19 19.3599C18.0238 20.3563 16.7721 21.0383 15.4056 21.3185C14.0391 21.5986 12.62 21.4641 11.3305 20.9322C10.041 20.4002 8.93976 19.4951 8.16817 18.333C7.39658 17.1709 6.9898 15.8048 7 14.4099V12.4099M21 12.4099V14.4099C20.9996 14.8223 20.9628 15.2339 20.89 15.6399M14 21.4099V25.4099M10 25.4099H18M11 11.4099V14.4099C11.0005 15.0028 11.1768 15.5824 11.5064 16.0752C11.8361 16.5681 12.3045 16.9522 12.8523 17.179C13.4002 17.4059 14.0029 17.4653 14.5845 17.3497C15.1661 17.2342 15.7005 16.9489 16.12 16.5299L11 11.4099Z" stroke="#6979F8" stroke-linecap="round" stroke-linejoin="round"/>
</svg>
