<svg width="28" height="29" viewBox="0 0 28 29" fill="none" xmlns="http://www.w3.org/2000/svg">
<path d="M21 12.4069V14.4069C21 16.2634 20.2625 18.0439 18.9497 19.3566C17.637 20.6694 15.8565 21.4069 14 21.4069M14 21.4069C12.1435 21.4069 10.363 20.6694 9.05025 19.3566C7.7375 18.0439 7 16.2634 7 14.4069V12.4069M14 21.4069V25.4069M10 25.4069H18M14 3.40686C13.2044 3.40686 12.4413 3.72293 11.8787 4.28554C11.3161 4.84815 11 5.61121 11 6.40686V14.4069C11 15.2025 11.3161 15.9656 11.8787 16.5282C12.4413 17.0908 13.2044 17.4069 14 17.4069C14.7956 17.4069 15.5587 17.0908 16.1213 16.5282C16.6839 15.9656 17 15.2025 17 14.4069V6.40686C17 5.61121 16.6839 4.84815 16.1213 4.28554C15.5587 3.72293 14.7956 3.40686 14 3.40686Z" stroke="#6979F8" stroke-linecap="round" stroke-linejoin="round"/>
</svg>
