<svg width="29" height="29" viewBox="0 0 29 29" fill="none" xmlns="http://www.w3.org/2000/svg">
<path d="M24.385 6.23301C24.385 7.29233 21.3342 8.13979 17.563 8.13979C13.7918 8.13979 10.741 7.29233 10.741 6.23301C10.741 5.17369 13.7918 4.32623 17.563 4.32623C21.3342 4.32623 24.385 5.17369 24.385 6.23301Z" stroke="#6979F8" stroke-miterlimit="10" stroke-linecap="round"/>
<path d="M24.385 9.62286C24.385 10.6822 21.3341 11.5296 17.5629 11.5296C16.8426 11.5296 16.1646 11.4873 15.4867 11.4449C15.4019 11.4449 11.3341 10.9364 11.2917 10.8941" stroke="#6979F8" stroke-miterlimit="10" stroke-linecap="round"/>
<path d="M24.3851 13.3095C24.3851 14.3265 21.5038 15.1739 17.9021 15.2163" stroke="#6979F8" stroke-miterlimit="10" stroke-linecap="round"/>
<path d="M24.3849 16.9956C24.3849 18.0126 21.5459 18.8176 17.9866 18.9024" stroke="#6979F8" stroke-miterlimit="10" stroke-linecap="round"/>
<path d="M10.741 6.82611V11.1481" stroke="#6979F8" stroke-miterlimit="10" stroke-linecap="round"/>
<path d="M24.385 6.82611V16.9532" stroke="#6979F8" stroke-miterlimit="10" stroke-linecap="round"/>
<path d="M17.8172 17.9281C17.8172 21.657 14.8087 24.6654 11.0799 24.6654C7.39348 24.6654 4.38501 21.657 4.38501 17.9281C4.38501 14.1993 7.39348 11.1909 11.1223 11.1909C14.8087 11.2332 17.8172 14.2417 17.8172 17.9281Z" stroke="#6979F8" stroke-miterlimit="10" stroke-linecap="round"/>
<path d="M12.4084 18.6237C12.505 18.7423 12.5753 18.8765 12.6158 19.042C12.5695 18.8908 12.4995 18.7516 12.4084 18.6237Z" stroke="#6979F8"/>
</svg>
