<svg width="28" height="29" viewBox="0 0 28 29" fill="none" xmlns="http://www.w3.org/2000/svg">
<path d="M11 19.4069H7C6.46957 19.4069 5.96086 19.6176 5.58579 19.9926C5.21071 20.3677 5 20.8764 5 21.4069C5 21.9373 5.21071 22.446 5.58579 22.8211C5.96086 23.1961 6.46957 23.4069 7 23.4069H9C9.53043 23.4069 10.0391 23.1961 10.4142 22.8211C10.7893 22.446 11 21.9373 11 21.4069V19.4069ZM11 19.4069V7.40686L23 5.40686V17.4069M23 17.4069H19C18.4696 17.4069 17.9609 17.6176 17.5858 17.9926C17.2107 18.3677 17 18.8764 17 19.4069C17 19.9373 17.2107 20.446 17.5858 20.8211C17.9609 21.1961 18.4696 21.4069 19 21.4069H21C21.5304 21.4069 22.0391 21.1961 22.4142 20.8211C22.7893 20.446 23 19.9373 23 19.4069V17.4069Z" stroke="#6979F8" stroke-linecap="round" stroke-linejoin="round"/>
</svg>
