<svg width="29" height="29" viewBox="0 0 29 29" fill="none" xmlns="http://www.w3.org/2000/svg">
<path d="M4.70506 8.13281L14.3851 12.9728M14.3851 12.9728L24.0651 8.13281M14.3851 12.9728L14.3851 24.7328M9.38506 5.47281L19.3851 10.4728M15.2751 3.42281L23.2751 7.42281C23.6083 7.58838 23.8887 7.84363 24.0848 8.15985C24.2809 8.47607 24.3849 8.84072 24.3851 9.21281V18.7428C24.3849 19.1149 24.2809 19.4795 24.0848 19.7958C23.8887 20.112 23.6083 20.3672 23.2751 20.5328L15.2751 24.5328C14.9972 24.6718 14.6908 24.7442 14.3801 24.7442C14.0694 24.7442 13.7629 24.6718 13.4851 24.5328L5.48506 20.5328C5.15219 20.3651 4.87281 20.1077 4.67845 19.7896C4.48408 19.4716 4.38246 19.1055 4.38506 18.7328V9.21281C4.38526 8.84072 4.48925 8.47607 4.68534 8.15985C4.88143 7.84363 5.16185 7.58838 5.49506 7.42281L13.4951 3.42281C13.7716 3.28538 14.0762 3.21387 14.3851 3.21387C14.6939 3.21387 14.9985 3.28538 15.2751 3.42281Z" stroke="#6979F8" stroke-linecap="round" stroke-linejoin="round"/>
</svg>
