<svg width="28" height="29" viewBox="0 0 28 29" fill="none" xmlns="http://www.w3.org/2000/svg">
<path d="M2.24006 9.08885C1.97975 9.08885 1.79162 9.21792 1.66256 9.33385C1.5335 9.44979 1.44818 9.56792 1.36506 9.70135C1.19881 9.96604 1.05881 10.2767 0.945059 10.5764C0.719746 11.1735 0.577559 11.7489 0.577559 11.7489C0.566621 11.7948 0.560059 11.8407 0.560059 11.8889C0.560059 12.1579 0.715371 12.3089 0.805059 12.3789C0.894746 12.4489 0.964746 12.4729 1.03256 12.5014C1.17037 12.5582 1.31475 12.6151 1.48756 12.6589C1.831 12.7485 2.28818 12.847 2.83506 12.9739C3.92662 13.2276 5.366 13.5907 6.79006 14.1814C8.21412 14.772 9.59881 15.5748 10.6226 16.6839C11.6463 17.7929 12.3201 19.1973 12.3201 21.0764C12.3201 21.3454 12.4994 21.5795 12.6526 21.6889C12.8057 21.7982 12.9457 21.8442 13.0901 21.8814C13.381 21.9557 13.6916 21.9689 14.0001 21.9689C14.3085 21.9689 14.6191 21.9557 14.9101 21.8814C15.0544 21.8442 15.1944 21.7982 15.3476 21.6889C15.5007 21.5795 15.6801 21.3454 15.6801 21.0764C15.6801 19.1973 16.3538 17.7929 17.3776 16.6839C18.4013 15.5748 19.786 14.772 21.2101 14.1814C22.6341 13.5907 24.0735 13.2276 25.1651 12.9739C25.7119 12.847 26.1691 12.7485 26.5126 12.6589C26.6854 12.6151 26.8297 12.5582 26.9676 12.5014C27.0354 12.4729 27.1054 12.4489 27.1951 12.3789C27.2847 12.3089 27.4401 12.1579 27.4401 11.8889C27.4401 11.8407 27.4335 11.7948 27.4226 11.7489C27.4226 11.7489 27.2804 11.1735 27.0551 10.5764C26.9413 10.2767 26.8013 9.96604 26.6351 9.70135C26.5519 9.56792 26.4666 9.44979 26.3376 9.33385C26.2085 9.21792 26.0204 9.08885 25.7601 9.08885C25.701 9.08448 25.6419 9.09104 25.5851 9.10635C25.5851 9.10635 25.2416 9.23104 23.5726 9.36885C21.9035 9.50667 18.9854 9.64885 14.0001 9.64885C9.01475 9.64885 6.09662 9.50667 4.42756 9.36885C2.7585 9.23104 2.41506 9.10635 2.41506 9.10635C2.35818 9.09104 2.29912 9.08448 2.24006 9.08885ZM2.36256 10.2264C2.496 10.2614 2.83506 10.3664 4.32256 10.4889C6.03537 10.631 8.99506 10.7689 14.0001 10.7689C19.0051 10.7689 21.9647 10.631 23.6776 10.4889C25.1651 10.3664 25.5041 10.2614 25.6376 10.2264C25.6551 10.2482 25.666 10.257 25.6901 10.2964C25.7863 10.4517 25.9066 10.701 26.0051 10.9614C26.1188 11.261 26.1385 11.3682 26.1976 11.5739C25.8979 11.6504 25.4626 11.7445 24.9201 11.8714C23.8066 12.1295 22.306 12.5189 20.7901 13.1489C19.2741 13.7789 17.7188 14.6495 16.5376 15.9314C15.4088 17.1542 14.6454 18.7817 14.5776 20.7964C14.4419 20.8248 14.2297 20.8489 14.0001 20.8489C13.7704 20.8489 13.5582 20.8248 13.4226 20.7964C13.3547 18.7817 12.5913 17.1542 11.4626 15.9314C10.2813 14.6495 8.726 13.7789 7.21006 13.1489C5.69412 12.5189 4.1935 12.1295 3.08006 11.8714C2.53756 11.7445 2.10225 11.6504 1.80256 11.5739C1.86162 11.3682 1.88131 11.261 1.99506 10.9614C2.0935 10.701 2.21381 10.4517 2.31006 10.2964C2.33412 10.257 2.34506 10.2482 2.36256 10.2264Z" fill="#6979F8"/>
</svg>
