<svg width="29" height="28" viewBox="0 0 29 28" fill="none" xmlns="http://www.w3.org/2000/svg">
<path d="M23.583 13.6622L14.393 22.8522C13.2671 23.9781 11.7402 24.6106 10.148 24.6106C8.55581 24.6106 7.02883 23.9781 5.90299 22.8522C4.77715 21.7264 4.14465 20.1994 4.14465 18.6072C4.14465 17.015 4.77715 15.4881 5.90299 14.3622L15.093 5.17222C15.8436 4.42166 16.8615 4 17.923 4C18.9844 4 20.0024 4.42166 20.753 5.17222C21.5036 5.92279 21.9252 6.94077 21.9252 8.00222C21.9252 9.06368 21.5036 10.0817 20.753 10.8322L11.553 20.0222C11.1777 20.3975 10.6687 20.6083 10.138 20.6083C9.60726 20.6083 9.09827 20.3975 8.72299 20.0222C8.34771 19.6469 8.13688 19.138 8.13688 18.6072C8.13688 18.0765 8.34771 17.5675 8.72299 17.1922L17.213 8.71222" stroke="#6979F8" stroke-linecap="round" stroke-linejoin="round"/>
</svg>
