<svg width="29" height="29" viewBox="0 0 29 29" fill="none" xmlns="http://www.w3.org/2000/svg">
<path d="M23.5954 18.1039C22.9592 19.6083 21.9642 20.9341 20.6973 21.9652C19.4304 22.9963 17.9302 23.7013 16.3279 24.0186C14.7255 24.336 13.0698 24.256 11.5056 23.7857C9.94128 23.3153 8.51604 22.4689 7.35443 21.3205C6.19283 20.1721 5.33023 18.7566 4.84205 17.1978C4.35387 15.639 4.25497 13.9844 4.55401 12.3785C4.85305 10.7726 5.54091 9.26449 6.55746 7.9859C7.57401 6.7073 8.8883 5.69718 10.3854 5.04387M24.3854 14.2139C24.3854 12.9006 24.1268 11.6003 23.6242 10.387C23.1217 9.17378 22.3851 8.07139 21.4565 7.1428C20.5279 6.21421 19.4255 5.47762 18.2122 4.97507C16.999 4.47252 15.6986 4.21387 14.3854 4.21387V14.2139H24.3854Z" stroke="#6979F8" stroke-linecap="round" stroke-linejoin="round"/>
</svg>
