<svg width="29" height="29" viewBox="0 0 29 29" fill="none" xmlns="http://www.w3.org/2000/svg">
<path d="M8.38501 11.4069V4.40686H20.385V11.4069M8.38501 20.4069H6.38501C5.85458 20.4069 5.34587 20.1961 4.9708 19.8211C4.59572 19.446 4.38501 18.9373 4.38501 18.4069V13.4069C4.38501 12.8764 4.59572 12.3677 4.9708 11.9926C5.34587 11.6176 5.85458 11.4069 6.38501 11.4069H22.385C22.9154 11.4069 23.4242 11.6176 23.7992 11.9926C24.1743 12.3677 24.385 12.8764 24.385 13.4069V18.4069C24.385 18.9373 24.1743 19.446 23.7992 19.8211C23.4242 20.1961 22.9154 20.4069 22.385 20.4069H20.385M8.38501 16.4069H20.385V24.4069H8.38501V16.4069Z" stroke="#6979F8" stroke-linecap="round" stroke-linejoin="round"/>
</svg>
