<svg width="29" height="29" viewBox="0 0 29 29" fill="none" xmlns="http://www.w3.org/2000/svg">
<path d="M18.3825 10.2369C18.9404 10.7941 19.3829 11.4558 19.6849 12.1842C19.9868 12.9126 20.1422 13.6934 20.1422 14.4819C20.1422 15.2704 19.9868 16.0511 19.6849 16.7795C19.3829 17.5079 18.9404 18.1696 18.3825 18.7269M9.90252 18.7169C9.34466 18.1596 8.90211 17.4979 8.60016 16.7695C8.29821 16.0411 8.1428 15.2604 8.1428 14.4719C8.1428 13.6834 8.29821 12.9026 8.60016 12.1742C8.90211 11.4458 9.34466 10.7841 9.90252 10.2269M21.2125 7.40686C23.0872 9.28214 24.1404 11.8252 24.1404 14.4769C24.1404 17.1285 23.0872 19.6716 21.2125 21.5469M7.07252 21.5469C5.19781 19.6716 4.14465 17.1285 4.14465 14.4769C4.14465 11.8252 5.19781 9.28214 7.07252 7.40686M16.1425 14.4769C16.1425 15.5814 15.2471 16.4769 14.1425 16.4769C13.0379 16.4769 12.1425 15.5814 12.1425 14.4769C12.1425 13.3723 13.0379 12.4769 14.1425 12.4769C15.2471 12.4769 16.1425 13.3723 16.1425 14.4769Z" stroke="#6979F8" stroke-linecap="round" stroke-linejoin="round"/>
</svg>
