<svg width="29" height="28" viewBox="0 0 29 28" fill="none" xmlns="http://www.w3.org/2000/svg">
<path d="M25.8882 5.99763V11.9976M25.8882 11.9976H19.8882M25.8882 11.9976L21.2482 7.63763C20.1734 6.56235 18.8438 5.77684 17.3834 5.35441C15.9229 4.93198 14.3793 4.88639 12.8965 5.22189C11.4136 5.5574 10.04 6.26307 8.90365 7.27305C7.76732 8.28304 6.90535 9.56442 6.39818 10.9976M3.88818 21.9976V15.9976M3.88818 15.9976H9.88818M3.88818 15.9976L8.52818 20.3576C9.60293 21.4329 10.9326 22.2184 12.393 22.6409C13.8534 23.0633 15.3971 23.1089 16.8799 22.7734C18.3627 22.4379 19.7364 21.7322 20.8727 20.7222C22.0091 19.7122 22.871 18.4308 23.3782 16.9976" stroke="#6979F8" stroke-linecap="round" stroke-linejoin="round"/>
</svg>
