<svg width="29" height="28" viewBox="0 0 29 28" fill="none" xmlns="http://www.w3.org/2000/svg">
<path d="M3.88818 5.99763V11.9976M3.88818 11.9976H9.88818M3.88818 11.9976L8.52818 7.63763C9.60293 6.56235 10.9326 5.77684 12.393 5.35441C13.8534 4.93198 15.3971 4.88639 16.8799 5.22189C18.3627 5.5574 19.7364 6.26307 20.8727 7.27305C22.0091 8.28304 22.871 9.56442 23.3782 10.9976M25.8882 21.9976V15.9976M25.8882 15.9976H19.8882M25.8882 15.9976L21.2482 20.3576C20.1734 21.4329 18.8438 22.2184 17.3834 22.6409C15.9229 23.0633 14.3793 23.1089 12.8965 22.7734C11.4136 22.4379 10.04 21.7322 8.90365 20.7222C7.76732 19.7122 6.90535 18.4308 6.39818 16.9976" stroke="#6979F8" stroke-linecap="round" stroke-linejoin="round"/>
</svg>
