<svg width="28" height="29" viewBox="0 0 28 29" fill="none" xmlns="http://www.w3.org/2000/svg">
<g clip-path="url(#clip0_2511_720)">
<path d="M9.41406 0.689815C9.36593 0.700752 9.31781 0.718252 9.27406 0.742315L0.314057 5.20481C0.0799946 5.32075 -0.0425053 5.58106 0.0165572 5.83481L1.55656 11.9423C1.62437 12.2179 1.88906 12.3973 2.16906 12.3623L5.52906 11.9423C5.37374 12.9508 4.63218 18.0126 5.59906 23.7373C5.63406 23.9604 5.80031 24.1398 6.01906 24.1923C8.32687 24.7895 9.28937 25.7979 9.72906 26.6248C10.1687 27.4517 10.0791 28.0598 10.0791 28.0598C10.0594 28.2195 10.1097 28.3814 10.2169 28.5017C10.3241 28.622 10.4772 28.692 10.6391 28.6898H17.3591C17.5209 28.692 17.6741 28.622 17.7812 28.5017C17.8884 28.3814 17.9387 28.2195 17.9191 28.0598C17.9191 28.0598 17.8294 27.4517 18.2691 26.6248C18.7087 25.7979 19.6712 24.7895 21.9791 24.1923C22.1978 24.1398 22.3641 23.9604 22.3991 23.7373C23.2719 18.7542 22.6112 12.3492 22.4691 11.0323L25.6891 12.3273C25.84 12.3886 26.0084 12.3798 26.1528 12.3054C26.2972 12.2333 26.4022 12.0998 26.4416 11.9423L27.9816 5.83481C28.0406 5.58106 27.9181 5.32075 27.6841 5.20481L18.7241 0.742315C18.5819 0.674502 18.4156 0.66794 18.2691 0.72919C18.1225 0.788252 18.0087 0.908565 17.9541 1.05731C17.6478 1.86888 16.9128 2.31294 16.0816 2.57981C15.2503 2.84669 14.3709 2.89481 13.9991 2.89481C13.6272 2.89481 12.7478 2.84669 11.9166 2.57981C11.0853 2.31294 10.3503 1.86888 10.0441 1.05731C9.95656 0.81669 9.72031 0.665752 9.46656 0.689815C9.44906 0.689815 9.43156 0.689815 9.41406 0.689815ZM9.37906 1.94981C9.92812 2.80294 10.7331 3.37825 11.5666 3.64731C12.5772 3.97325 13.5528 4.01481 13.9991 4.01481C14.4453 4.01481 15.4209 3.97325 16.4316 3.64731C17.265 3.37825 18.07 2.80294 18.6191 1.94981L26.7916 5.99231L25.5141 11.0498L22.0491 9.66731C21.8675 9.59294 21.6575 9.61919 21.5 9.73731C21.3425 9.85544 21.2572 10.0479 21.2791 10.2448C21.2791 10.2448 22.1475 18.0454 21.3141 23.2473C19.0544 23.9254 17.8425 25.0586 17.2891 26.0998C16.9872 26.6664 16.8603 27.1804 16.8166 27.5698H11.1816C11.1378 27.1804 11.0109 26.6664 10.7091 26.0998C10.1556 25.0586 8.94374 23.9254 6.68406 23.2473C5.74124 17.2711 6.71906 11.3998 6.71906 11.3998C6.74968 11.2248 6.69281 11.0433 6.56812 10.9164C6.44343 10.7895 6.26624 10.7283 6.08906 10.7523L2.51906 11.1898L1.20656 5.99231L9.37906 1.94981ZM13.9991 7.40981C13.2137 7.40981 12.7237 7.99825 12.4416 8.45981C12.2841 8.71794 12.2819 8.7945 12.2141 8.96731C11.9537 8.97388 11.6169 8.99575 11.2341 9.14231C10.7966 9.31075 10.3197 9.68481 10.1491 10.2973C9.93249 11.0739 10.2891 11.7586 10.6391 12.1698C10.8359 12.4017 10.9125 12.4279 11.0591 12.5373C11.0109 12.7123 10.9759 12.7867 10.9541 13.0973C10.9169 13.6311 10.9912 14.3748 11.5841 14.8823C11.8837 15.1383 12.2534 15.2498 12.5816 15.2498C13.2706 15.2498 13.7366 14.9654 14.0341 14.7423C14.3469 14.937 14.8194 15.1798 15.4866 15.1798C15.7731 15.1798 16.0816 15.1208 16.3616 14.9348C16.6897 14.7161 16.8866 14.3726 16.9741 14.0598C17.0616 13.747 17.0616 13.4408 17.0441 13.1673C17.0222 12.8129 16.985 12.6992 16.9391 12.5198C17.0769 12.4039 17.1578 12.3667 17.3591 12.1173C17.6937 11.7017 18.0656 11.0454 17.8666 10.2973C17.6828 9.61044 17.0725 9.27575 16.5891 9.12481C16.2456 9.01763 16.04 9.03075 15.8191 9.01981C15.7556 8.847 15.7316 8.74419 15.5566 8.45981C15.2744 7.99825 14.7844 7.40981 13.9991 7.40981ZM13.9991 8.52981C14.185 8.52981 14.4169 8.72013 14.6116 9.03731C14.8062 9.3545 14.9091 9.68481 14.9091 9.68481L15.0316 10.1048L15.4516 10.0873H15.5041C15.6178 10.0873 15.9569 10.1004 16.2566 10.1923C16.5562 10.2842 16.7312 10.4067 16.7816 10.5948C16.845 10.8311 16.7116 11.1351 16.4841 11.4173C16.2566 11.6995 15.9941 11.8723 15.9941 11.8723L15.6616 12.1173L15.8016 12.5023C15.8016 12.5023 15.9 12.8523 15.9241 13.2373C15.9372 13.4298 15.9262 13.6267 15.8891 13.7623C15.8519 13.8979 15.8103 13.9483 15.7491 13.9898C15.6812 14.0336 15.6047 14.0598 15.4866 14.0598C15.0687 14.0598 14.3316 13.6223 14.3316 13.6223L13.9816 13.3598L13.6316 13.6398C13.6316 13.6398 12.9469 14.1298 12.5816 14.1298C12.4656 14.1298 12.4066 14.1167 12.3191 14.0423C12.1134 13.8651 12.0478 13.5436 12.0741 13.1848C12.1003 12.8261 12.2141 12.5198 12.2141 12.5198L12.3541 12.0998L11.9691 11.8548C11.9691 11.8548 11.7197 11.6951 11.4966 11.4348C11.2734 11.1745 11.1312 10.9011 11.2166 10.5948C11.28 10.3695 11.4069 10.2798 11.6366 10.1923C11.8662 10.1048 12.1747 10.0698 12.3541 10.0698C12.4591 10.0698 12.5116 10.0873 12.5116 10.0873L12.9666 10.1398L13.1066 9.68481C13.1066 9.68481 13.2094 9.3545 13.4041 9.03731C13.5987 8.72013 13.8153 8.52981 13.9991 8.52981ZM13.9991 10.2623C13.5987 10.2623 13.9291 11.3473 13.9291 11.3473C13.9291 11.3473 13.0562 10.6954 12.9141 11.0848C12.7719 11.4764 13.8941 11.4698 13.8941 11.4698C13.8941 11.4698 13.0453 12.1261 13.3341 12.3798C13.6228 12.6336 13.9991 11.5573 13.9991 11.5573C13.9991 11.5573 14.3469 12.6423 14.6641 12.3798C14.9812 12.1173 14.1041 11.4698 14.1041 11.4698C14.1041 11.4698 15.2328 11.4742 15.0841 11.0848C14.9353 10.6954 14.0691 11.3473 14.0691 11.3473C14.0691 11.3473 14.3994 10.2623 13.9991 10.2623Z" fill="#6979F8"/>
</g>
<defs>
<clipPath id="clip0_2511_720">
<rect width="28" height="28" fill="white" transform="translate(0 0.688843)"/>
</clipPath>
</defs>
</svg>
