<svg width="29" height="28" viewBox="0 0 29 28" fill="none" xmlns="http://www.w3.org/2000/svg">
<path d="M4.88818 5.99067V11.9907M4.88818 11.9907H10.8882M4.88818 11.9907L9.52818 7.63067C10.9091 6.25209 12.7006 5.35964 14.6329 5.08779C16.5651 4.81593 18.5333 5.17941 20.241 6.12344C21.9487 7.06747 23.3033 8.54091 24.1008 10.3218C24.8983 12.1026 25.0954 14.0944 24.6624 15.997C24.2294 17.8996 23.1899 19.61 21.7003 20.8704C20.2108 22.1308 18.3519 22.873 16.4039 22.9851C14.4559 23.0973 12.5242 22.5732 10.8998 21.492C9.27552 20.4109 8.04658 18.831 7.39818 16.9907" stroke="#6979F8" stroke-linecap="round" stroke-linejoin="round"/>
</svg>
