<svg width="29" height="28" viewBox="0 0 29 28" fill="none" xmlns="http://www.w3.org/2000/svg">
<path d="M24.8842 5.99806V11.9981M24.8842 11.9981H18.8842M24.8842 11.9981L20.2542 7.63806C18.8748 6.2578 17.0841 5.36325 15.1521 5.0892C13.2201 4.81516 11.2513 5.17648 9.54251 6.1187C7.8337 7.06092 6.4774 8.53301 5.67802 10.3131C4.87863 12.0932 4.67946 14.085 5.11052 15.9881C5.54158 17.8913 6.57951 19.6028 8.06791 20.8647C9.55631 22.1267 11.4145 22.8707 13.3626 22.9846C15.3106 23.0986 17.2429 22.5764 18.8683 21.4966C20.4937 20.4168 21.7241 18.838 22.3742 16.9981" stroke="#6979F8" stroke-linecap="round" stroke-linejoin="round"/>
</svg>
