<svg width="29" height="29" viewBox="0 0 29 29" fill="none" xmlns="http://www.w3.org/2000/svg">
<mask id="path-1-inside-1_2511_821" fill="white">
<path d="M22.1447 4.40686H6.14465C5.04008 4.40686 4.14465 5.30229 4.14465 6.40686V10.4069C4.14465 11.5114 5.04008 12.4069 6.14465 12.4069H22.1447C23.2492 12.4069 24.1447 11.5114 24.1447 10.4069V6.40686C24.1447 5.30229 23.2492 4.40686 22.1447 4.40686Z"/>
<path d="M22.1447 16.4069H6.14465C5.04008 16.4069 4.14465 17.3023 4.14465 18.4069V22.4069C4.14465 23.5114 5.04008 24.4069 6.14465 24.4069H22.1447C23.2492 24.4069 24.1447 23.5114 24.1447 22.4069V18.4069C24.1447 17.3023 23.2492 16.4069 22.1447 16.4069Z"/>
<path d="M9.14465 20.4069C9.14465 20.9591 8.69694 21.4069 8.14465 21.4069C7.59237 21.4069 7.14465 20.9591 7.14465 20.4069C7.14465 19.8546 7.59237 19.4069 8.14465 19.4069C8.69694 19.4069 9.14465 19.8546 9.14465 20.4069Z"/>
<path d="M9.14465 8.40686C9.14465 8.95915 8.69694 9.40686 8.14465 9.40686C7.59237 9.40686 7.14465 8.95915 7.14465 8.40686C7.14465 7.85458 7.59237 7.40686 8.14465 7.40686C8.69694 7.40686 9.14465 7.85458 9.14465 8.40686Z"/>
</mask>
<path d="M6.14465 5.40686H22.1447V3.40686H6.14465V5.40686ZM22.1447 5.40686C22.6969 5.40686 23.1447 5.85458 23.1447 6.40686H25.1447C25.1447 4.75001 23.8015 3.40686 22.1447 3.40686V5.40686ZM23.1447 6.40686V10.4069H25.1447V6.40686H23.1447ZM23.1447 10.4069C23.1447 10.9591 22.6969 11.4069 22.1447 11.4069V13.4069C23.8015 13.4069 25.1447 12.0637 25.1447 10.4069H23.1447ZM22.1447 11.4069H6.14465V13.4069H22.1447V11.4069ZM6.14465 11.4069C5.59237 11.4069 5.14465 10.9591 5.14465 10.4069H3.14465C3.14465 12.0637 4.4878 13.4069 6.14465 13.4069V11.4069ZM5.14465 10.4069V6.40686H3.14465V10.4069H5.14465ZM5.14465 6.40686C5.14465 5.85458 5.59237 5.40686 6.14465 5.40686V3.40686C4.4878 3.40686 3.14465 4.75001 3.14465 6.40686H5.14465ZM6.14465 17.4069H22.1447V15.4069H6.14465V17.4069ZM22.1447 17.4069C22.6969 17.4069 23.1447 17.8546 23.1447 18.4069H25.1447C25.1447 16.75 23.8015 15.4069 22.1447 15.4069V17.4069ZM23.1447 18.4069V22.4069H25.1447V18.4069H23.1447ZM23.1447 22.4069C23.1447 22.9591 22.6969 23.4069 22.1447 23.4069V25.4069C23.8015 25.4069 25.1447 24.0637 25.1447 22.4069H23.1447ZM22.1447 23.4069H6.14465V25.4069H22.1447V23.4069ZM6.14465 23.4069C5.59237 23.4069 5.14465 22.9591 5.14465 22.4069H3.14465C3.14465 24.0637 4.4878 25.4069 6.14465 25.4069V23.4069ZM5.14465 22.4069V18.4069H3.14465V22.4069H5.14465ZM5.14465 18.4069C5.14465 17.8546 5.59237 17.4069 6.14465 17.4069V15.4069C4.4878 15.4069 3.14465 16.75 3.14465 18.4069H5.14465ZM8.14465 20.4069V22.4069C9.24922 22.4069 10.1447 21.5114 10.1447 20.4069H8.14465ZM8.14465 20.4069H6.14465C6.14465 21.5114 7.04008 22.4069 8.14465 22.4069V20.4069ZM8.14465 20.4069V18.4069C7.04008 18.4069 6.14465 19.3023 6.14465 20.4069H8.14465ZM8.14465 20.4069H10.1447C10.1447 19.3023 9.24922 18.4069 8.14465 18.4069V20.4069ZM8.14465 8.40686V10.4069C9.24922 10.4069 10.1447 9.51143 10.1447 8.40686H8.14465ZM8.14465 8.40686H6.14465C6.14465 9.51143 7.04008 10.4069 8.14465 10.4069V8.40686ZM8.14465 8.40686V6.40686C7.04008 6.40686 6.14465 7.30229 6.14465 8.40686H8.14465ZM8.14465 8.40686H10.1447C10.1447 7.30229 9.24922 6.40686 8.14465 6.40686V8.40686Z" fill="#6979F8" mask="url(#path-1-inside-1_2511_821)"/>
</svg>
