<svg width="28" height="29" viewBox="0 0 28 29" fill="none" xmlns="http://www.w3.org/2000/svg">
<g clip-path="url(#clip0_2511_721)">
<path d="M14 1.24884C12.0575 1.24884 10.8566 1.67978 10.535 1.80884C10.4781 1.82415 10.4256 1.84822 10.3775 1.87884C10.3709 1.87884 10.3666 1.87884 10.36 1.87884C10.3491 1.88322 10.3359 1.88978 10.325 1.89634C10.3184 1.9029 10.3141 1.90728 10.3075 1.91384C10.2966 1.91822 10.2834 1.92478 10.2725 1.93134C10.2659 1.9379 10.2616 1.94228 10.255 1.94884C10.2353 1.96415 10.2178 1.98165 10.2025 2.00134C10.1959 2.01228 10.1894 2.0254 10.185 2.03634C10.1784 2.0429 10.1741 2.04728 10.1675 2.05384C10.1609 2.06478 10.1544 2.0779 10.15 2.08884L9.1525 3.55884L6.5975 4.38134C6.5625 4.39009 6.52531 4.40103 6.4925 4.41634C5.99594 4.57822 5.40969 4.94572 4.76 5.60634C4.05125 6.32822 3.3075 7.37822 2.765 8.84384C2.345 9.97697 1.66688 11.7554 1.085 13.3763C0.794063 14.1879 0.527187 14.947 0.3325 15.5988C0.137813 16.2507 0 16.7407 0 17.1738V25.3288C0 25.6373 0.251563 25.8888 0.56 25.8888H4.48C4.78844 25.8888 5.04 25.6373 5.04 25.3288V17.5063C5.04 17.5085 5.04 17.5063 5.04 17.4888C5.04438 17.4626 5.05969 17.397 5.0925 17.3138C5.145 17.1804 5.23469 17.0076 5.3375 16.8063C5.54094 16.4017 5.82531 15.8985 6.1075 15.4238C6.13375 15.3779 6.13375 15.3823 6.16 15.3363V27.5688C6.16 27.8773 6.41156 28.1288 6.72 28.1288H21.28C21.5884 28.1288 21.84 27.8773 21.84 27.5688L21.805 16.4213V16.4038L21.8225 15.3013C21.8597 15.3626 21.8553 15.3604 21.8925 15.4238C22.1747 15.8985 22.4591 16.4017 22.6625 16.8063C22.7653 17.0076 22.855 17.1804 22.9075 17.3138C22.9469 17.4145 22.9578 17.4976 22.96 17.5063V25.3288C22.96 25.6373 23.2116 25.8888 23.52 25.8888H27.44C27.7484 25.8888 28 25.6373 28 25.3288V17.1738C28 16.7407 27.8622 16.2507 27.6675 15.5988C27.4728 14.947 27.2059 14.1879 26.915 13.3763C26.3331 11.7554 25.655 9.97697 25.235 8.84384C24.6925 7.37822 23.9488 6.32822 23.24 5.60634C22.5838 4.93915 21.9909 4.57384 21.49 4.41634C21.4616 4.40322 21.4331 4.39009 21.4025 4.38134L18.8475 3.55884L17.8675 2.10634C17.8566 2.08884 17.8456 2.07134 17.8325 2.05384C17.8216 2.04072 17.8106 2.02978 17.7975 2.01884C17.7975 2.01228 17.7975 2.0079 17.7975 2.00134C17.745 1.94228 17.6794 1.89415 17.605 1.86134C17.605 1.86134 17.5897 1.84384 17.5875 1.84384C17.5547 1.82853 17.5175 1.81759 17.4825 1.80884C17.1894 1.69072 15.9797 1.24884 14 1.24884ZM14 2.36884C15.3584 2.36884 16.2247 2.5679 16.695 2.71884C16.6141 3.00322 16.4872 3.3729 16.2575 3.76884C15.8288 4.50822 15.1922 5.16884 14 5.16884C12.8078 5.16884 12.1713 4.50822 11.7425 3.76884C11.5128 3.3729 11.3859 3.00322 11.305 2.71884C11.7753 2.5679 12.6416 2.36884 14 2.36884ZM10.4825 3.62884C10.5766 3.8629 10.6334 4.07509 10.78 4.32884C11.1234 4.92165 11.6638 5.55822 12.425 5.93884L10.9375 7.42634L10.1325 4.17134L10.4825 3.62884ZM17.5175 3.62884L17.8675 4.17134L17.0625 7.42634L15.575 5.93884C16.3363 5.55822 16.8766 4.92165 17.22 4.32884C17.3666 4.07509 17.4234 3.8629 17.5175 3.62884ZM9.1175 4.76634L10.0975 8.66884C10.1456 8.8679 10.2966 9.0254 10.4934 9.08009C10.6881 9.13259 10.9003 9.0779 11.0425 8.93134L13.72 6.25384C13.8141 6.2604 13.9016 6.28884 14 6.28884C14.0984 6.28884 14.1859 6.2604 14.28 6.25384L16.9575 8.93134C17.0997 9.0779 17.3119 9.13259 17.5066 9.08009C17.7034 9.0254 17.8544 8.8679 17.9025 8.66884L18.8825 4.76634L20.615 5.30884C20.5406 5.66322 20.3678 6.4354 20.2475 7.91634C20.1163 9.53728 20.1338 11.5192 20.6325 13.2538C20.6369 13.2713 20.6434 13.2888 20.65 13.3063C20.6522 13.3107 20.6478 13.3195 20.65 13.3238C20.6588 13.3785 20.6763 13.431 20.7025 13.4813C20.7113 13.5098 20.7113 13.5404 20.72 13.5688L20.685 16.4038L20.72 27.0088H7.28V13.6388C8.08281 12.1207 8.05438 10.0229 7.875 8.21384C7.71531 6.61697 7.49 5.68728 7.4025 5.30884L9.1175 4.76634ZM6.37 5.74634C6.49688 6.33259 6.65875 7.17697 6.7725 8.31884C6.92563 9.86103 6.88844 11.6395 6.475 12.7813C6.40063 12.836 6.33938 12.9082 6.3 12.9913C6.3 12.9913 5.7225 13.8904 5.145 14.8638C4.85625 15.3517 4.56313 15.8548 4.34 16.2988C4.22844 16.522 4.13219 16.7232 4.06 16.9113C3.98781 17.0995 3.92 17.246 3.92 17.4888V24.7688H1.12V17.1738C1.12 17.0645 1.21406 16.5504 1.4 15.9313C1.58594 15.3123 1.84844 14.5445 2.135 13.7438C2.71031 12.1426 3.38844 10.397 3.815 9.24634C4.305 7.92728 4.96781 7.00197 5.565 6.39384C5.84938 6.10509 6.13813 5.90165 6.37 5.74634ZM21.6475 5.74634C21.8772 5.89947 22.155 6.10947 22.435 6.39384C23.0322 7.00197 23.695 7.92728 24.185 9.24634C24.6116 10.397 25.2897 12.1426 25.865 13.7438C26.1516 14.5445 26.4141 15.3123 26.6 15.9313C26.7859 16.5504 26.88 17.0645 26.88 17.1738V24.7688H24.08V17.4888C24.08 17.246 24.0122 17.0995 23.94 16.9113C23.8678 16.7232 23.7716 16.522 23.66 16.2988C23.4369 15.8548 23.1438 15.3517 22.855 14.8638C22.2775 13.8904 21.7 12.9913 21.7 12.9913C21.6847 12.9607 21.6672 12.9323 21.6475 12.9038C21.2341 11.4054 21.2428 9.53947 21.3675 8.00384C21.4484 7.01728 21.5534 6.28009 21.6475 5.74634Z" fill="#6979F8"/>
</g>
<defs>
<clipPath id="clip0_2511_721">
<rect width="28" height="28" fill="white" transform="translate(0 0.688843)"/>
</clipPath>
</defs>
</svg>
