<svg width="29" height="29" viewBox="0 0 29 29" fill="none" xmlns="http://www.w3.org/2000/svg">
<path d="M5.38501 8.21387L8.38501 4.21387H20.385L23.385 8.21387M5.38501 8.21387V22.2139C5.38501 22.7443 5.59572 23.253 5.9708 23.6281C6.34587 24.0032 6.85458 24.2139 7.38501 24.2139H21.385C21.9154 24.2139 22.4242 24.0032 22.7992 23.6281C23.1743 23.253 23.385 22.7443 23.385 22.2139V8.21387M5.38501 8.21387H23.385M18.385 12.2139C18.385 13.2747 17.9636 14.2921 17.2134 15.0423C16.4633 15.7924 15.4459 16.2139 14.385 16.2139C13.3241 16.2139 12.3067 15.7924 11.5566 15.0423C10.8064 14.2921 10.385 13.2747 10.385 12.2139" stroke="#6979F8" stroke-linecap="round" stroke-linejoin="round"/>
</svg>
