<svg width="29" height="29" viewBox="0 0 29 29" fill="none" xmlns="http://www.w3.org/2000/svg">
<path d="M5.85767 8.2959L8.85767 4.2959H20.8577L23.8577 8.2959M5.85767 8.2959V22.2959C5.85767 22.8263 6.06838 23.335 6.44345 23.7101C6.81853 24.0852 7.32723 24.2959 7.85767 24.2959H21.8577C22.3881 24.2959 22.8968 24.0852 23.2719 23.7101C23.647 23.335 23.8577 22.8263 23.8577 22.2959V8.2959M5.85767 8.2959H23.8577M18.8577 12.2959C18.8577 13.3568 18.4362 14.3742 17.6861 15.1243C16.9359 15.8745 15.9185 16.2959 14.8577 16.2959C13.7968 16.2959 12.7794 15.8745 12.0292 15.1243C11.2791 14.3742 10.8577 13.3568 10.8577 12.2959" stroke="#6979F8" stroke-linecap="round" stroke-linejoin="round"/>
</svg>
