<svg width="29" height="29" viewBox="0 0 29 29" fill="none" xmlns="http://www.w3.org/2000/svg">
<path d="M2.38501 3.21387H6.38501L9.06501 16.6039C9.15645 17.0643 9.40692 17.4778 9.77256 17.7722C10.1382 18.0665 10.5957 18.2229 11.065 18.2139H20.785C21.2543 18.2229 21.7118 18.0665 22.0775 17.7722C22.4431 17.4778 22.6936 17.0643 22.785 16.6039L24.385 8.21387H7.38501M11.385 23.2139C11.385 23.7662 10.9373 24.2139 10.385 24.2139C9.83272 24.2139 9.38501 23.7662 9.38501 23.2139C9.38501 22.6616 9.83272 22.2139 10.385 22.2139C10.9373 22.2139 11.385 22.6616 11.385 23.2139ZM22.385 23.2139C22.385 23.7662 21.9373 24.2139 21.385 24.2139C20.8327 24.2139 20.385 23.7662 20.385 23.2139C20.385 22.6616 20.8327 22.2139 21.385 22.2139C21.9373 22.2139 22.385 22.6616 22.385 23.2139Z" stroke="#6979F8" stroke-linecap="round" stroke-linejoin="round"/>
</svg>
