<svg width="28" height="29" viewBox="0 0 28 29" fill="none" xmlns="http://www.w3.org/2000/svg">
<path d="M2.13495 2.92883C1.86807 2.97915 1.67557 3.2154 1.67995 3.48883V6.14883C0.680259 9.23977 0.559946 13.2538 0.559946 13.2538C0.559946 13.2604 0.559946 13.2648 0.559946 13.2713V16.2463C0.544634 16.3207 0.544634 16.3995 0.559946 16.4738V25.8888C0.559946 26.1973 0.811509 26.4488 1.11995 26.4488H11.7599C12.0203 26.4466 12.2456 26.2651 12.3024 26.0113L13.9999 17.9438L15.6974 26.0113C15.7543 26.2651 15.9796 26.4466 16.2399 26.4488H26.8799C27.1884 26.4488 27.4399 26.1973 27.4399 25.8888V16.4913C27.4574 16.4104 27.4574 16.3273 27.4399 16.2463V13.2713C27.4399 13.2648 27.4399 13.2604 27.4399 13.2538C27.4399 13.2538 27.3196 9.23758 26.3199 6.14883V3.48883C26.3199 3.1804 26.0684 2.92883 25.7599 2.92883H2.23995C2.22245 2.92883 2.20495 2.92883 2.18745 2.92883C2.16995 2.92883 2.15245 2.92883 2.13495 2.92883ZM2.79995 4.04883H25.1999V5.97383C25.1693 6.07665 25.1693 6.18602 25.1999 6.28883H2.79995V6.21883C2.80213 6.19477 2.80213 6.1729 2.79995 6.14883V4.04883ZM2.46745 7.40883H7.83995C7.83995 11.1516 6.15338 13.1904 4.44495 14.3738C3.35776 15.1263 2.32526 15.4785 1.67995 15.6513V13.2713C1.67995 13.2451 1.7937 10.0929 2.46745 7.40883ZM8.95995 7.40883H19.0399C19.0399 11.4973 20.9934 13.9451 22.9249 15.2838C24.2965 16.2354 25.6396 16.6554 26.3199 16.8238V25.3288H16.6949L14.5424 15.1263C14.479 14.8791 14.2559 14.7063 13.9999 14.7063C13.744 14.7063 13.5209 14.8791 13.4574 15.1263L11.3049 25.3288H1.67995V16.8238C2.36026 16.6554 3.70338 16.2354 5.07495 15.2838C7.00651 13.9451 8.95995 11.4973 8.95995 7.40883ZM20.1599 7.40883H25.5324C26.2062 10.0929 26.3199 13.2451 26.3199 13.2713V15.6513C25.6746 15.4785 24.6421 15.1263 23.5549 14.3738C21.8465 13.1904 20.1599 11.1516 20.1599 7.40883Z" fill="#6979F8"/>
</svg>
