<svg width="28" height="29" viewBox="0 0 28 29" fill="none" xmlns="http://www.w3.org/2000/svg">
<path d="M5.51236 2.36885C5.23674 2.4126 5.03549 2.65104 5.03986 2.92885V5.09885L0.0173615 24.0689C-0.019826 24.2176 0.00423652 24.3773 0.0873615 24.5064C0.0873615 24.5064 0.170487 24.6092 0.262362 24.6989C0.354237 24.7885 0.476737 24.9089 0.664862 25.0314C1.0433 25.2785 1.6558 25.5804 2.62486 25.8714C4.56517 26.4554 7.96455 27.0089 13.9999 27.0089C20.0352 27.0089 23.4345 26.4554 25.3749 25.8714C26.3439 25.5804 26.9564 25.2785 27.3349 25.0314C27.523 24.9089 27.6455 24.7885 27.7374 24.6989C27.8292 24.6092 27.9124 24.5064 27.9124 24.5064C27.9955 24.3773 28.0195 24.2176 27.9824 24.0689L22.9599 5.09885V2.92885C22.962 2.76479 22.892 2.60729 22.7652 2.49791C22.6405 2.39073 22.4764 2.3426 22.3124 2.36885C22.3124 2.36885 18.4099 2.92885 13.9999 2.92885C9.58986 2.92885 5.68736 2.36885 5.68736 2.36885C5.6283 2.3601 5.57142 2.3601 5.51236 2.36885ZM6.15986 3.55885C6.99111 3.66823 10.0667 4.04885 13.9999 4.04885C17.933 4.04885 21.0086 3.66823 21.8399 3.55885V4.66135C21.2011 4.74666 18.0227 5.16885 13.9999 5.16885C9.97705 5.16885 6.79861 4.74666 6.15986 4.66135V3.55885ZM6.01986 5.79885C6.4683 5.85573 7.17049 5.93448 8.22486 6.02635C8.20299 6.25823 8.10892 6.80073 7.75236 7.44385C7.33455 8.19854 6.57111 9.05823 5.00486 9.61385L6.01986 5.79885ZM21.9799 5.79885L22.9949 9.61385C21.4286 9.05823 20.6652 8.19854 20.2474 7.44385C19.8908 6.80073 19.7967 6.25823 19.7749 6.02635C20.8292 5.93448 21.5314 5.85573 21.9799 5.79885ZM9.32736 6.11385C10.6858 6.21229 12.298 6.28885 13.9999 6.28885C15.7017 6.28885 17.3139 6.21229 18.6724 6.11385C18.7052 6.4551 18.8233 7.18573 19.2674 7.98635C19.8667 9.06916 21.0808 10.2876 23.3274 10.8914L26.8099 24.0164C26.7749 24.0426 26.7727 24.0535 26.7224 24.0864C26.4555 24.2592 25.9502 24.5173 25.0599 24.7864C23.2792 25.3223 19.9652 25.8889 13.9999 25.8889C8.03455 25.8889 4.72049 25.3223 2.93986 24.7864C2.04955 24.5173 1.54424 24.2592 1.27736 24.0864C1.22705 24.0535 1.22486 24.0426 1.18986 24.0164L4.67236 10.8914C6.91892 10.2876 8.13299 9.06916 8.73236 7.98635C9.17642 7.18573 9.29455 6.4551 9.32736 6.11385Z" fill="#6979F8"/>
</svg>
