<svg width="28" height="29" viewBox="0 0 28 29" fill="none" xmlns="http://www.w3.org/2000/svg">
<path d="M10.5875 1.79135C10.5635 1.79572 10.5394 1.80229 10.5175 1.80885C10.2572 1.86791 10.0735 2.10197 10.08 2.36885V3.94385C10.01 4.10354 9.74316 4.72041 9.46754 5.57135C9.15473 6.53822 8.83535 7.66041 8.96004 8.59885C9.14379 9.96822 9.55285 11.2588 9.52004 12.4313C9.46973 14.1398 8.6691 15.9598 8.17254 17.8388C7.42879 20.6476 7.1641 23.9792 6.73754 26.3438C6.68066 26.6326 6.85785 26.9148 7.14004 26.9913C7.14004 26.9913 9.4741 27.5688 14 27.5688C18.526 27.5688 20.86 26.9913 20.86 26.9913C21.1422 26.9148 21.3194 26.6326 21.2625 26.3438C20.836 23.9792 20.5713 20.6476 19.8275 17.8388C19.331 15.9598 18.5304 14.1398 18.48 12.4313C18.4472 11.2588 18.8563 9.96822 19.04 8.59885C19.1647 7.66041 18.8454 6.53822 18.5325 5.57135C18.2569 4.72041 17.99 4.10354 17.92 3.94385V2.36885C17.9244 2.19604 17.8479 2.03197 17.7144 1.9226C17.5832 1.81322 17.406 1.77166 17.2375 1.80885C16.9772 1.86791 16.7935 2.10197 16.8 2.36885V4.04885C16.8 6.72197 14.5097 8.49603 14 8.87885C13.4882 8.5026 11.2 6.75697 11.2 4.04885C11.2 4.03135 11.2 4.01385 11.2 3.99635V2.36885C11.2066 2.20697 11.141 2.05166 11.025 1.94229C10.9069 1.83072 10.7472 1.77604 10.5875 1.79135ZM10.5 6.14885C11.4341 8.64041 13.685 10.1213 13.685 10.1213C13.8754 10.2504 14.1247 10.2504 14.315 10.1213C14.315 10.1213 16.5638 8.62072 17.5 6.14885C17.7582 7.00635 17.9813 7.99728 17.92 8.45885C17.756 9.69041 17.3185 11.0292 17.36 12.4663C17.4191 14.4898 18.2963 16.3863 18.76 18.1363C19.4163 20.6082 19.6963 23.5832 20.09 25.9763C19.5388 26.0945 17.7669 26.4488 14 26.4488C10.2332 26.4488 8.46129 26.0945 7.91004 25.9763C8.30379 23.5832 8.58379 20.6082 9.24004 18.1363C9.70379 16.3863 10.581 14.4898 10.64 12.4663C10.6816 11.0292 10.2441 9.69041 10.08 8.45885C10.0188 7.99728 10.2419 7.00635 10.5 6.14885Z" fill="#6979F8"/>
</svg>
