<svg width="28" height="29" viewBox="0 0 28 29" fill="none" xmlns="http://www.w3.org/2000/svg">
<path d="M7.84 2.36884C4.13533 2.36884 1.12 5.38417 1.12 9.08884V15.8088H1.14843C1.13788 15.9019 1.12 15.9931 1.12 16.0888C1.12 16.954 1.56241 17.7214 2.23234 18.1757L2.91156 23.1971C3.20866 25.3761 5.07788 27.0088 7.27781 27.0088H7.28218C9.48163 27.0088 11.3513 25.3767 11.6484 23.1971L12.3277 18.1757C12.9976 17.7214 13.44 16.954 13.44 16.0888C13.44 15.9931 13.4221 15.9019 13.4116 15.8088H13.44V7.96884C13.44 4.88249 10.9263 2.36884 7.84 2.36884ZM20.16 2.36884C17.0736 2.36884 14.56 4.88249 14.56 7.96884V15.8088H14.5884C14.5779 15.9019 14.56 15.9931 14.56 16.0888C14.56 16.954 15.0024 17.7214 15.6723 18.1757L16.3516 23.1971C16.6487 25.3767 18.5184 27.0088 20.7178 27.0088H20.7222C22.9221 27.0088 24.7913 25.3761 25.0884 23.1971L25.7677 18.1757C26.4376 17.7214 26.88 16.954 26.88 16.0888C26.88 15.9931 26.8621 15.9019 26.8516 15.8088H26.88V9.08884C26.88 5.38417 23.8647 2.36884 20.16 2.36884ZM7.84 3.48884C10.3212 3.48884 12.32 5.48766 12.32 7.96884V13.9976C11.9188 13.7275 11.4368 13.5688 10.92 13.5688H10.9156C10.4796 12.5916 9.53561 11.8888 8.4 11.8888C7.98659 11.8888 7.62643 12.0392 7.28 12.1984C6.93356 12.0392 6.5734 11.8888 6.16 11.8888C5.02402 11.8888 4.08024 12.5917 3.64437 13.5688H3.64C3.12318 13.5688 2.64118 13.7275 2.24 13.9976V9.08884C2.24 5.9895 4.74066 3.48884 7.84 3.48884ZM20.16 3.48884C23.2593 3.48884 25.76 5.9895 25.76 9.08884V13.9976C25.3588 13.7275 24.8768 13.5688 24.36 13.5688H24.3556C23.9197 12.5917 22.976 11.8888 21.84 11.8888C21.4266 11.8888 21.0664 12.0392 20.72 12.1984C20.3736 12.0392 20.0134 11.8888 19.6 11.8888C18.4644 11.8888 17.5203 12.5916 17.0844 13.5688H17.08C16.5632 13.5688 16.0812 13.7275 15.68 13.9976V7.96884C15.68 5.48766 17.6788 3.48884 20.16 3.48884ZM6.16 13.0088C6.4623 13.0088 6.7426 13.0941 6.99781 13.2429C7.08346 13.2929 7.18084 13.3192 7.28 13.3192C7.37915 13.3192 7.47653 13.2929 7.56218 13.2429C7.81739 13.0941 8.09769 13.0088 8.4 13.0088C9.18578 13.0088 9.82999 13.5443 10.0177 14.2688C10.0487 14.3891 10.1189 14.4956 10.2171 14.5716C10.3153 14.6477 10.436 14.6889 10.5602 14.6888H10.92C11.6998 14.6888 12.32 15.309 12.32 16.0888C12.32 16.8687 11.6998 17.4888 10.92 17.4888C10.5581 17.4888 10.2359 17.3507 9.98265 17.1202C9.87492 17.0222 9.73322 16.97 9.58763 16.9747C9.44203 16.9794 9.304 17.0406 9.20281 17.1454C8.99754 17.3582 8.71828 17.4888 8.4 17.4888C8.11275 17.4888 7.85899 17.3803 7.65515 17.1968C7.55225 17.104 7.41858 17.0526 7.28 17.0526C7.14141 17.0526 7.00774 17.104 6.90484 17.1968C6.701 17.3803 6.44724 17.4888 6.16 17.4888C5.84171 17.4888 5.56245 17.3582 5.35718 17.1454C5.25599 17.0406 5.11796 16.9794 4.97236 16.9747C4.82677 16.97 4.68507 17.0222 4.57734 17.1202C4.32406 17.3507 4.0019 17.4888 3.64 17.4888C2.86016 17.4888 2.24 16.8687 2.24 16.0888C2.24 15.309 2.86016 14.6888 3.64 14.6888H3.99984C4.12403 14.6889 4.24472 14.6477 4.34293 14.5716C4.44113 14.4956 4.51128 14.3891 4.54234 14.2688C4.73005 13.5441 5.37352 13.0088 6.16 13.0088ZM19.6 13.0088C19.9023 13.0088 20.1826 13.0941 20.4378 13.2429C20.5235 13.2929 20.6208 13.3192 20.72 13.3192C20.8192 13.3192 20.9165 13.2929 21.0022 13.2429C21.2574 13.0941 21.5377 13.0088 21.84 13.0088C22.6265 13.0088 23.2699 13.5441 23.4577 14.2688C23.4887 14.3891 23.5589 14.4956 23.6571 14.5716C23.7553 14.6477 23.876 14.6889 24.0002 14.6888H24.36C25.1398 14.6888 25.76 15.309 25.76 16.0888C25.76 16.8687 25.1398 17.4888 24.36 17.4888C23.9981 17.4888 23.6759 17.3507 23.4227 17.1202C23.3149 17.0222 23.1732 16.97 23.0276 16.9747C22.882 16.9794 22.744 17.0406 22.6428 17.1454C22.4375 17.3582 22.1583 17.4888 21.84 17.4888C21.5528 17.4888 21.299 17.3803 21.0952 17.1968C20.9923 17.104 20.8586 17.0526 20.72 17.0526C20.5814 17.0526 20.4477 17.104 20.3448 17.1968C20.141 17.3803 19.8872 17.4888 19.6 17.4888C19.2817 17.4888 19.0025 17.3582 18.7972 17.1454C18.696 17.0406 18.558 16.9794 18.4124 16.9747C18.2668 16.97 18.1251 17.0222 18.0173 17.1202C17.7641 17.3507 17.4419 17.4888 17.08 17.4888C16.3002 17.4888 15.68 16.8687 15.68 16.0888C15.68 15.309 16.3002 14.6888 17.08 14.6888H17.4398C17.564 14.6889 17.6847 14.6477 17.7829 14.5716C17.8811 14.4956 17.9513 14.3891 17.9823 14.2688C18.17 13.5443 18.8142 13.0088 19.6 13.0088ZM4.94046 18.1932C5.29661 18.4328 5.70011 18.6088 6.16 18.6088C6.57758 18.6088 6.94762 18.4625 7.28 18.2632C7.61237 18.4625 7.98241 18.6088 8.4 18.6088C8.85988 18.6088 9.26338 18.4328 9.61953 18.1932C10.0029 18.433 10.4334 18.6088 10.92 18.6088C10.9959 18.6088 11.0677 18.5925 11.142 18.5859L10.5383 23.0462C10.3157 24.6791 8.92994 25.8888 7.28218 25.8888H7.27781C5.62976 25.8888 4.24475 24.6791 4.02171 23.0473V23.0462L3.41687 18.5859C3.4915 18.5926 3.5637 18.6088 3.64 18.6088C4.1266 18.6088 4.55711 18.433 4.94046 18.1932ZM18.3805 18.1932C18.7366 18.4328 19.1401 18.6088 19.6 18.6088C20.0176 18.6088 20.3876 18.4625 20.72 18.2632C21.0524 18.4625 21.4224 18.6088 21.84 18.6088C22.2999 18.6088 22.7034 18.4328 23.0595 18.1932C23.4429 18.433 23.8734 18.6088 24.36 18.6088C24.4363 18.6088 24.5085 18.5926 24.5831 18.5859L23.9783 23.0473C23.7552 24.6791 22.3702 25.8888 20.7222 25.8888H20.7178C19.0701 25.8888 17.6843 24.6791 17.4617 23.0462L16.858 18.5859C16.9322 18.5925 17.0041 18.6088 17.08 18.6088C17.5666 18.6088 17.9971 18.433 18.3805 18.1932Z" fill="#6979F8"/>
</svg>
