<svg width="29" height="29" viewBox="0 0 29 29" fill="none" xmlns="http://www.w3.org/2000/svg">
<mask id="path-1-inside-1_2511_779" fill="white">
<path d="M19.385 4.40686H9.38501C8.28044 4.40686 7.38501 5.30229 7.38501 6.40686V22.4069C7.38501 23.5114 8.28044 24.4069 9.38501 24.4069H19.385C20.4896 24.4069 21.385 23.5114 21.385 22.4069V6.40686C21.385 5.30229 20.4896 4.40686 19.385 4.40686Z"/>
<path d="M15.385 20.4069C15.385 20.9591 14.9373 21.4069 14.385 21.4069C13.8327 21.4069 13.385 20.9591 13.385 20.4069C13.385 19.8546 13.8327 19.4069 14.385 19.4069C14.9373 19.4069 15.385 19.8546 15.385 20.4069Z"/>
</mask>
<path d="M9.38501 5.40686H19.385V3.40686H9.38501V5.40686ZM19.385 5.40686C19.9373 5.40686 20.385 5.85458 20.385 6.40686H22.385C22.385 4.75001 21.0419 3.40686 19.385 3.40686V5.40686ZM20.385 6.40686V22.4069H22.385V6.40686H20.385ZM20.385 22.4069C20.385 22.9591 19.9373 23.4069 19.385 23.4069V25.4069C21.0419 25.4069 22.385 24.0637 22.385 22.4069H20.385ZM19.385 23.4069H9.38501V25.4069H19.385V23.4069ZM9.38501 23.4069C8.83272 23.4069 8.38501 22.9591 8.38501 22.4069H6.38501C6.38501 24.0637 7.72816 25.4069 9.38501 25.4069V23.4069ZM8.38501 22.4069V6.40686H6.38501V22.4069H8.38501ZM8.38501 6.40686C8.38501 5.85458 8.83272 5.40686 9.38501 5.40686V3.40686C7.72816 3.40686 6.38501 4.75001 6.38501 6.40686H8.38501ZM14.385 20.4069V22.4069C15.4896 22.4069 16.385 21.5114 16.385 20.4069H14.385ZM14.385 20.4069H12.385C12.385 21.5114 13.2804 22.4069 14.385 22.4069V20.4069ZM14.385 20.4069V18.4069C13.2804 18.4069 12.385 19.3023 12.385 20.4069H14.385ZM14.385 20.4069H16.385C16.385 19.3023 15.4896 18.4069 14.385 18.4069V20.4069Z" fill="#6979F8" mask="url(#path-1-inside-1_2511_779)"/>
</svg>
