<svg width="28" height="29" viewBox="0 0 28 29" fill="none" xmlns="http://www.w3.org/2000/svg">
<g clip-path="url(#clip0_2511_726)">
<path d="M14.0351 0.688843C12.6001 0.688843 11.5304 0.739155 10.7276 0.916343C10.3251 1.00603 9.98166 1.13291 9.6951 1.33634C9.40853 1.53978 9.18103 1.85478 9.1351 2.21134C9.10666 2.42353 9.10228 2.41697 9.0476 2.57884C8.99291 2.74072 8.9251 3.00103 8.8376 3.52384C8.58166 5.07041 7.80072 4.98291 7.0876 5.74634C7.06135 5.77478 7.02635 5.78572 7.0001 5.81634C6.15791 6.42884 5.6001 7.41322 5.6001 8.52884V20.8488C5.6001 21.9645 6.15791 22.9488 7.0001 23.5613C7.00666 23.5679 7.01103 23.5723 7.0176 23.5788C7.04166 23.5963 7.06353 23.616 7.0876 23.6313C7.7876 24.3838 8.54666 24.3226 8.8376 25.8713C8.9251 26.3417 8.99947 26.5779 9.0476 26.7288C9.09572 26.8798 9.10228 26.9192 9.1351 27.1663C9.17885 27.512 9.39978 27.8204 9.6776 28.0238C9.95541 28.2273 10.2813 28.352 10.6751 28.4438C11.4626 28.6276 12.5279 28.6888 13.9651 28.6888C15.4001 28.6888 16.4698 28.6385 17.2726 28.4613C17.6751 28.3717 18.0185 28.2448 18.3051 28.0413C18.5917 27.8379 18.8192 27.5229 18.8651 27.1663C18.8935 26.9542 18.8979 26.9607 18.9526 26.7988C19.0073 26.637 19.0751 26.3767 19.1626 25.8538C19.4185 24.3073 20.1995 24.3948 20.9126 23.6313C20.9367 23.616 20.9585 23.5963 20.9826 23.5788C20.9892 23.5723 20.9935 23.5679 21.0001 23.5613C21.8423 22.9488 22.4001 21.9645 22.4001 20.8488V19.7288C22.7085 19.7288 22.9601 19.4773 22.9601 19.1688V15.8088C22.9601 15.5004 22.7085 15.2488 22.4001 15.2488V13.5688C23.0235 13.5229 23.5201 12.9957 23.5201 12.3613V10.2963C23.5201 9.66197 23.0235 9.13478 22.4001 9.08884V8.52884C22.4001 7.41322 21.8423 6.42884 21.0001 5.81634C20.9935 5.80978 20.9892 5.80541 20.9826 5.79884C20.9585 5.78134 20.9367 5.76166 20.9126 5.74634C20.2126 4.99384 19.4535 5.05509 19.1626 3.50634C19.0751 3.03603 19.0007 2.79978 18.9526 2.64884C18.9045 2.49791 18.8979 2.45853 18.8651 2.21134C18.8213 1.86572 18.6004 1.55728 18.3226 1.35384C18.0448 1.15041 17.7188 1.02572 17.3251 0.933843C16.5376 0.750093 15.4723 0.688843 14.0351 0.688843ZM14.0351 1.80884C15.4373 1.80884 16.4676 1.87666 17.0801 2.01884C17.3863 2.09103 17.5679 2.18072 17.6576 2.24634C17.7473 2.31197 17.7385 2.32509 17.7451 2.36884C17.7845 2.66853 17.8392 2.83697 17.8851 2.98134C17.931 3.12572 17.9792 3.28103 18.0601 3.71634C18.176 4.33541 18.4035 4.79259 18.6551 5.16884H9.3626C9.61416 4.79041 9.83728 4.32228 9.9401 3.69884C10.021 3.21322 10.0735 3.05134 10.1151 2.92884C10.1567 2.80634 10.2179 2.65103 10.2551 2.36884C10.2617 2.32072 10.2485 2.31416 10.3426 2.24634C10.4367 2.17853 10.6379 2.08884 10.9551 2.01884C11.5873 1.87884 12.6307 1.80884 14.0351 1.80884ZM8.9601 6.28884H19.0401C20.2826 6.28884 21.2801 7.28634 21.2801 8.52884V9.73634C21.0942 10.082 20.9651 10.5807 20.9651 11.3288C20.9651 12.0748 21.0963 12.5735 21.2801 12.9213V20.8488C21.2801 22.0913 20.2826 23.0888 19.0401 23.0888H8.9601C7.7176 23.0888 6.7201 22.0913 6.7201 20.8488V8.52884C6.7201 7.28634 7.7176 6.28884 8.9601 6.28884ZM16.2401 8.52884C15.3192 8.52884 14.5601 9.28791 14.5601 10.2088C14.5601 11.1298 15.3192 11.8888 16.2401 11.8888C17.161 11.8888 17.9201 11.1298 17.9201 10.2088C17.9201 9.28791 17.161 8.52884 16.2401 8.52884ZM12.0401 9.08884C11.2745 9.08884 10.6401 9.72322 10.6401 10.4888C10.6401 11.2545 11.2745 11.8888 12.0401 11.8888C12.8057 11.8888 13.4401 11.2545 13.4401 10.4888C13.4401 9.72322 12.8057 9.08884 12.0401 9.08884ZM16.2401 9.64884C16.5551 9.64884 16.8001 9.89384 16.8001 10.2088C16.8001 10.5238 16.5551 10.7688 16.2401 10.7688C15.9251 10.7688 15.6801 10.5238 15.6801 10.2088C15.6801 9.89384 15.9251 9.64884 16.2401 9.64884ZM9.2401 10.2088C8.77635 10.2088 8.4001 10.5851 8.4001 11.0488C8.4001 11.5126 8.77635 11.8888 9.2401 11.8888C9.70385 11.8888 10.0801 11.5126 10.0801 11.0488C10.0801 10.5851 9.70385 10.2088 9.2401 10.2088ZM12.0401 10.2088C12.202 10.2088 12.3201 10.327 12.3201 10.4888C12.3201 10.6507 12.202 10.7688 12.0401 10.7688C11.8782 10.7688 11.7601 10.6507 11.7601 10.4888C11.7601 10.327 11.8782 10.2088 12.0401 10.2088ZM22.3126 10.2088C22.3695 10.2088 22.4001 10.2395 22.4001 10.2963V12.3613C22.4001 12.4182 22.3695 12.4488 22.3126 12.4488H22.2951C22.2885 12.4401 22.2863 12.4445 22.2776 12.4313C22.2032 12.311 22.0851 12.0048 22.0851 11.3288C22.0851 10.6529 22.2207 10.3445 22.2951 10.2263C22.306 10.2088 22.3038 10.2198 22.3126 10.2088ZM14.0001 12.4488C12.7685 12.4488 11.7601 13.4573 11.7601 14.6888C11.7601 15.9204 12.7685 16.9288 14.0001 16.9288C15.2317 16.9288 16.2401 15.9204 16.2401 14.6888C16.2401 13.4573 15.2317 12.4488 14.0001 12.4488ZM9.5201 13.0088C8.59916 13.0088 7.8401 13.7679 7.8401 14.6888C7.8401 15.6098 8.59916 16.3688 9.5201 16.3688C10.441 16.3688 11.2001 15.6098 11.2001 14.6888C11.2001 13.7679 10.441 13.0088 9.5201 13.0088ZM18.4801 13.0088C17.5592 13.0088 16.8001 13.7679 16.8001 14.6888C16.8001 15.6098 17.5592 16.3688 18.4801 16.3688C19.401 16.3688 20.1601 15.6098 20.1601 14.6888C20.1601 13.7679 19.401 13.0088 18.4801 13.0088ZM14.0001 13.5688C14.6257 13.5688 15.1201 14.0632 15.1201 14.6888C15.1201 15.3145 14.6257 15.8088 14.0001 15.8088C13.3745 15.8088 12.8801 15.3145 12.8801 14.6888C12.8801 14.0632 13.3745 13.5688 14.0001 13.5688ZM9.5201 14.1288C9.8351 14.1288 10.0801 14.3738 10.0801 14.6888C10.0801 15.0038 9.8351 15.2488 9.5201 15.2488C9.2051 15.2488 8.9601 15.0038 8.9601 14.6888C8.9601 14.3738 9.2051 14.1288 9.5201 14.1288ZM18.4801 14.1288C18.7951 14.1288 19.0401 14.3738 19.0401 14.6888C19.0401 15.0038 18.7951 15.2488 18.4801 15.2488C18.1651 15.2488 17.9201 15.0038 17.9201 14.6888C17.9201 14.3738 18.1651 14.1288 18.4801 14.1288ZM18.7601 16.9288C18.2963 16.9288 17.9201 17.3051 17.9201 17.7688C17.9201 18.2326 18.2963 18.6088 18.7601 18.6088C19.2238 18.6088 19.6001 18.2326 19.6001 17.7688C19.6001 17.3051 19.2238 16.9288 18.7601 16.9288ZM11.7601 17.4888C10.8392 17.4888 10.0801 18.2479 10.0801 19.1688C10.0801 20.0898 10.8392 20.8488 11.7601 20.8488C12.681 20.8488 13.4401 20.0898 13.4401 19.1688C13.4401 18.2479 12.681 17.4888 11.7601 17.4888ZM15.9601 17.4888C15.1945 17.4888 14.5601 18.1232 14.5601 18.8888C14.5601 19.6545 15.1945 20.2888 15.9601 20.2888C16.7257 20.2888 17.3601 19.6545 17.3601 18.8888C17.3601 18.1232 16.7257 17.4888 15.9601 17.4888ZM11.7601 18.6088C12.0751 18.6088 12.3201 18.8538 12.3201 19.1688C12.3201 19.4838 12.0751 19.7288 11.7601 19.7288C11.4451 19.7288 11.2001 19.4838 11.2001 19.1688C11.2001 18.8538 11.4451 18.6088 11.7601 18.6088ZM15.9601 18.6088C16.122 18.6088 16.2401 18.727 16.2401 18.8888C16.2401 19.0507 16.122 19.1688 15.9601 19.1688C15.7982 19.1688 15.6801 19.0507 15.6801 18.8888C15.6801 18.727 15.7982 18.6088 15.9601 18.6088ZM9.3451 24.2088H18.6376C18.386 24.5873 18.1629 25.0554 18.0601 25.6788C17.9792 26.1645 17.9267 26.3263 17.8851 26.4488C17.8435 26.5713 17.7823 26.7267 17.7451 27.0088C17.7385 27.057 17.7517 27.0635 17.6576 27.1313C17.5635 27.1992 17.3623 27.2888 17.0451 27.3588C16.4129 27.4988 15.3695 27.5688 13.9651 27.5688C12.5629 27.5688 11.5326 27.501 10.9201 27.3588C10.6138 27.2867 10.4323 27.197 10.3426 27.1313C10.2529 27.0657 10.2617 27.0526 10.2551 27.0088C10.2157 26.7092 10.161 26.5407 10.1151 26.3963C10.0692 26.252 10.021 26.0967 9.9401 25.6613C9.82416 25.0423 9.59666 24.5851 9.3451 24.2088Z" fill="#6979F8"/>
</g>
<defs>
<clipPath id="clip0_2511_726">
<rect width="28" height="28" fill="white" transform="translate(0 0.688843)"/>
</clipPath>
</defs>
</svg>
