<svg width="28" height="29" viewBox="0 0 28 29" fill="none" xmlns="http://www.w3.org/2000/svg">
<g clip-path="url(#clip0_2511_727)">
<path d="M7.26358 3.48883C7.20889 3.4904 7.15472 3.49998 7.1028 3.51726C6.11407 3.84684 5.13089 4.60106 4.2689 5.40726C4.17203 5.49786 4.08502 5.58949 3.99218 5.6807C3.92736 5.7225 3.87188 5.77724 3.82921 5.84148C3.16966 6.5083 2.62674 7.16957 2.31983 7.68117C0.566393 10.6036 0.00764703 14.0369 0.00764703 14.0369C-0.00480961 14.1116 -0.00202488 14.1879 0.0158332 14.2614C0.0336913 14.3349 0.0662528 14.404 0.111553 14.4646C0.112797 14.4663 0.114683 14.4674 0.115928 14.469C0.139211 14.4997 0.165601 14.5279 0.194678 14.5532C1.33946 16.0505 2.78698 17.291 4.45483 18.1713L17.2539 24.9285C18.2962 25.588 19.5523 25.8888 20.72 25.8888C20.7463 25.8889 20.7727 25.887 20.7987 25.8834L24.7187 25.3234L24.6859 25.3266C25.2309 25.282 25.9927 25.1385 26.6842 24.7327C27.3757 24.3269 28 23.5729 28 22.5288C28.0001 22.5109 27.9994 22.493 27.9978 22.4752C27.9978 22.4752 27.9548 22.0279 27.883 21.5444C27.847 21.3027 27.8042 21.0514 27.7517 20.828C27.7255 20.7164 27.6966 20.613 27.6598 20.5109C27.6231 20.4087 27.5989 20.3111 27.4684 20.1685C27.4042 20.0987 27.3233 20.0464 27.2333 20.0165L23.263 18.6799L22.3212 17.7382L22.1353 17.2405L22.4733 17.071C22.5872 17.0153 22.6789 16.9225 22.7332 16.8079C22.7876 16.6932 22.8014 16.5635 22.7724 16.44C22.7434 16.3165 22.6734 16.2065 22.5737 16.128C22.4741 16.0495 22.3508 16.0071 22.2239 16.0079C22.136 16.0085 22.0494 16.0299 21.9712 16.0702L21.7394 16.1862L21.4451 15.4019L21.6497 15.3155C21.7721 15.2659 21.873 15.1745 21.9346 15.0576C21.9962 14.9407 22.0145 14.8058 21.9862 14.6767C21.9579 14.5477 21.8849 14.4327 21.7801 14.3523C21.6753 14.2718 21.5454 14.231 21.4134 14.2371C21.344 14.2402 21.2758 14.2561 21.2122 14.2841L21.0514 14.3519L20.7276 13.4879L20.8753 13.4343C21.0001 13.3912 21.1057 13.3053 21.1733 13.1919C21.241 13.0785 21.2664 12.9448 21.2451 12.8145C21.2237 12.6842 21.1571 12.5656 21.0568 12.4797C20.9565 12.3937 20.8291 12.346 20.697 12.3449C20.6279 12.3444 20.5593 12.3566 20.4947 12.381L20.3339 12.439L20.0069 11.5684L20.2092 11.4951C20.334 11.4519 20.4396 11.3661 20.5072 11.2527C20.5749 11.1393 20.6003 11.0056 20.579 10.8753C20.5577 10.745 20.491 10.6264 20.3907 10.5404C20.2904 10.4545 20.163 10.4068 20.0309 10.4057C19.9615 10.405 19.8925 10.4172 19.8275 10.4418L19.6142 10.5194L19.2784 9.62367C19.28 9.58599 19.2778 9.54825 19.2719 9.51101C19.2719 9.51101 19.0071 7.84339 19.5475 5.99023C19.7697 5.22809 19.0939 4.54093 18.3487 4.62195C16.3656 4.83652 13.8119 5.76164 13.8119 5.76164C13.679 5.80893 13.5688 5.90463 13.5034 6.02961L12.5508 7.85179C12.0579 7.95409 11.1813 7.87668 10.3709 7.57507C9.45088 7.23264 8.62807 6.62556 8.34312 6.04273C8.00971 5.36069 7.83999 5.09248 7.83999 4.04883C7.84002 3.97389 7.825 3.8997 7.79583 3.83067C7.76667 3.76164 7.72395 3.69917 7.6702 3.64695C7.61645 3.59473 7.55276 3.55383 7.48292 3.52667C7.41308 3.49951 7.33849 3.48664 7.26358 3.48883V3.48883ZM6.83155 4.91617C6.93723 5.54853 7.10733 6.06536 7.33687 6.53492C7.82975 7.54305 8.88283 8.21655 9.98046 8.62507C10.231 8.71833 10.4846 8.79547 10.7373 8.86023C10.5783 8.90631 10.4193 8.95215 10.2605 8.98382C9.42553 9.15036 8.61826 9.13116 7.72843 8.7082C6.91428 8.32121 6.01427 7.56514 5.03671 6.2232C5.62041 5.67767 6.25012 5.23747 6.83155 4.91617ZM18.4636 5.73648C18.2285 6.56725 18.1354 7.35481 18.1059 8.01039C17.4936 7.66352 16.7251 7.51329 15.9611 7.44711C15.8434 7.43691 15.7266 7.43861 15.6089 7.43289C15.5672 7.42369 15.5247 7.41929 15.482 7.41976C15.4576 7.41976 15.4342 7.42482 15.4098 7.42523C14.9217 7.41185 14.4471 7.43494 14 7.49632L14.3894 6.75257C14.6955 6.64701 16.8478 5.91264 18.4636 5.73648ZM4.24265 7.03695C5.25916 8.39762 6.25405 9.24733 7.24827 9.71992C8.37403 10.255 9.48041 10.2812 10.4792 10.0819C12.437 9.69146 14.0847 8.59138 15.4 8.54742C15.5557 8.55066 15.712 8.54949 15.8648 8.56273C16.8805 8.65071 17.7378 9.0054 17.9911 9.37867L18.562 10.9001L18.1081 11.0641C18.039 11.0892 17.9754 11.1276 17.9211 11.1773C17.8668 11.2269 17.8228 11.2867 17.7916 11.3533C17.7604 11.42 17.7427 11.4921 17.7394 11.5656C17.7361 11.6391 17.7473 11.7125 17.7723 11.7816C17.7974 11.8508 17.8358 11.9143 17.8855 11.9686C17.9351 12.0229 17.9949 12.0669 18.0615 12.0981C18.1282 12.1293 18.2003 12.1471 18.2738 12.1504C18.3473 12.1537 18.4207 12.1425 18.4898 12.1174L18.9547 11.949L19.2817 12.8196L18.7753 13.0034C18.7049 13.0274 18.6401 13.0652 18.5845 13.1146C18.5289 13.164 18.4837 13.224 18.4516 13.2911C18.4194 13.3581 18.4009 13.4309 18.3972 13.5052C18.3934 13.5794 18.4045 13.6537 18.4298 13.7236C18.4551 13.7936 18.494 13.8578 18.5444 13.9125C18.5947 13.9672 18.6555 14.0114 18.7231 14.0424C18.7906 14.0734 18.8637 14.0906 18.9381 14.093C19.0124 14.0955 19.0864 14.0831 19.1559 14.0566L19.6744 13.8685L20.02 14.7905L19.6066 14.9655C19.5362 14.9924 19.472 15.0332 19.4178 15.0854C19.3636 15.1376 19.3204 15.2002 19.291 15.2695C19.2615 15.3388 19.2463 15.4133 19.2463 15.4886C19.2462 15.5638 19.2614 15.6384 19.2908 15.7077C19.3202 15.777 19.3633 15.8396 19.4175 15.8919C19.4717 15.9441 19.5359 15.9849 19.6062 16.0118C19.6765 16.0387 19.7515 16.0512 19.8267 16.0484C19.902 16.0457 19.9759 16.0278 20.0441 15.9959L20.4137 15.8394L20.7331 16.6915L20.3284 16.8949C20.2627 16.9279 20.2041 16.9736 20.156 17.0293C20.1079 17.0849 20.0713 17.1495 20.0482 17.2194C20.0251 17.2892 20.0159 17.3629 20.0213 17.4363C20.0267 17.5096 20.0464 17.5812 20.0795 17.6469C20.1125 17.7127 20.1582 17.7712 20.2139 17.8193C20.2695 17.8674 20.3341 17.904 20.404 17.9271C20.4738 17.9502 20.5475 17.9593 20.6209 17.9539C20.6943 17.9485 20.7658 17.9288 20.8316 17.8957L21.1291 17.7459L21.3161 18.2457C21.3441 18.3204 21.3877 18.3883 21.4441 18.4448L22.5641 19.5648C22.6253 19.6258 22.6997 19.6718 22.7817 19.6993L26.6361 20.9965C26.6448 21.0277 26.6521 21.0463 26.6612 21.0851C26.6991 21.246 26.7363 21.4617 26.7684 21.6735C26.6474 21.7646 26.47 21.8397 26.227 21.889C25.893 21.9568 25.4717 21.9688 25.0676 21.9688H22.5323C21.9938 21.9688 21.3941 22.125 20.8841 22.2707C20.5242 22.3735 20.3883 22.4246 20.2387 22.4763C17.7507 21.1215 17.7509 20.0019 16.6151 19.0835C14.983 17.7636 13.9022 18.1663 13.2147 18.0991C13.2143 18.0991 13.2139 18.0991 13.2136 18.0991C13.0343 18.0817 12.186 17.8022 11.9766 17.6879C11.9736 17.6864 11.9707 17.6849 11.9678 17.6835L9.97937 16.6434C8.78402 15.9917 7.93531 14.6628 7.21437 13.3063C6.47159 11.9077 4.8947 10.0231 2.74858 9.23211C2.91087 8.90529 3.08689 8.57857 3.28015 8.25648C3.45347 7.96755 3.80774 7.51682 4.24265 7.03695ZM2.28593 10.258C4.0749 10.897 5.59645 12.6466 6.22562 13.8313C6.97076 15.2334 7.8959 16.783 9.44343 17.6266C9.44633 17.6281 9.44925 17.6296 9.45218 17.631L11.4406 18.6712H11.4417C11.883 18.9118 12.5479 19.1594 13.1064 19.2137C14.2175 19.3218 14.5121 18.8226 15.9108 19.9541C15.9111 19.9541 15.9115 19.9541 15.9119 19.9541C16.6155 20.5231 16.9494 22.0554 19.9019 23.5865C19.9706 23.6219 20.0459 23.6428 20.1231 23.6476C20.2003 23.6525 20.2776 23.6414 20.3503 23.6149C20.3503 23.6149 20.7212 23.4813 21.1914 23.3469C21.6616 23.2126 22.2477 23.0888 22.5323 23.0888H25.0676C25.4874 23.0888 25.972 23.0841 26.4501 22.9871C26.5786 22.961 26.7088 22.9257 26.8373 22.8821C26.7453 23.2935 26.4881 23.5484 26.1176 23.7659C25.6499 24.0403 25.0123 24.1767 24.5941 24.211C24.5831 24.2118 24.5721 24.2129 24.5612 24.2143L20.6992 24.7655C19.7207 24.7618 18.6404 24.4928 17.8194 23.9627C17.8055 23.9541 17.7913 23.9461 17.7767 23.9387L4.97765 17.1804C3.49172 16.3961 2.20739 15.2908 1.17358 13.9691C1.22413 13.692 1.53058 12.0853 2.28593 10.258Z" fill="#6979F8"/>
</g>
<defs>
<clipPath id="clip0_2511_727">
<rect width="28" height="28" fill="white" transform="translate(0 0.688843)"/>
</clipPath>
</defs>
</svg>
