<svg width="29" height="29" viewBox="0 0 29 29" fill="none" xmlns="http://www.w3.org/2000/svg">
<mask id="path-1-inside-1_2511_780" fill="white">
<path d="M20.385 4.40686H8.38501C7.28044 4.40686 6.38501 5.30229 6.38501 6.40686V22.4069C6.38501 23.5114 7.28044 24.4069 8.38501 24.4069H20.385C21.4896 24.4069 22.385 23.5114 22.385 22.4069V6.40686C22.385 5.30229 21.4896 4.40686 20.385 4.40686Z"/>
<path d="M14.385 20.4069C16.5941 20.4069 18.385 18.616 18.385 16.4069C18.385 14.1977 16.5941 12.4069 14.385 12.4069C12.1759 12.4069 10.385 14.1977 10.385 16.4069C10.385 18.616 12.1759 20.4069 14.385 20.4069Z"/>
<path d="M15.385 8.40686C15.385 8.95915 14.9373 9.40686 14.385 9.40686C13.8327 9.40686 13.385 8.95915 13.385 8.40686C13.385 7.85458 13.8327 7.40686 14.385 7.40686C14.9373 7.40686 15.385 7.85458 15.385 8.40686Z"/>
</mask>
<path d="M8.38501 5.40686H20.385V3.40686H8.38501V5.40686ZM20.385 5.40686C20.9373 5.40686 21.385 5.85458 21.385 6.40686H23.385C23.385 4.75001 22.0419 3.40686 20.385 3.40686V5.40686ZM21.385 6.40686V22.4069H23.385V6.40686H21.385ZM21.385 22.4069C21.385 22.9591 20.9373 23.4069 20.385 23.4069V25.4069C22.0419 25.4069 23.385 24.0637 23.385 22.4069H21.385ZM20.385 23.4069H8.38501V25.4069H20.385V23.4069ZM8.38501 23.4069C7.83272 23.4069 7.38501 22.9591 7.38501 22.4069H5.38501C5.38501 24.0637 6.72816 25.4069 8.38501 25.4069V23.4069ZM7.38501 22.4069V6.40686H5.38501V22.4069H7.38501ZM7.38501 6.40686C7.38501 5.85458 7.83272 5.40686 8.38501 5.40686V3.40686C6.72816 3.40686 5.38501 4.75001 5.38501 6.40686H7.38501ZM17.385 16.4069C17.385 18.0637 16.0419 19.4069 14.385 19.4069V21.4069C17.1464 21.4069 19.385 19.1683 19.385 16.4069H17.385ZM14.385 19.4069C12.7282 19.4069 11.385 18.0637 11.385 16.4069H9.38501C9.38501 19.1683 11.6236 21.4069 14.385 21.4069V19.4069ZM11.385 16.4069C11.385 14.75 12.7282 13.4069 14.385 13.4069V11.4069C11.6236 11.4069 9.38501 13.6454 9.38501 16.4069H11.385ZM14.385 13.4069C16.0419 13.4069 17.385 14.75 17.385 16.4069H19.385C19.385 13.6454 17.1464 11.4069 14.385 11.4069V13.4069ZM14.385 8.40686V10.4069C15.4896 10.4069 16.385 9.51143 16.385 8.40686H14.385ZM14.385 8.40686H12.385C12.385 9.51143 13.2804 10.4069 14.385 10.4069V8.40686ZM14.385 8.40686V6.40686C13.2804 6.40686 12.385 7.30229 12.385 8.40686H14.385ZM14.385 8.40686H16.385C16.385 7.30229 15.4896 6.40686 14.385 6.40686V8.40686Z" fill="#6979F8" mask="url(#path-1-inside-1_2511_780)"/>
</svg>
