<svg width="29" height="29" viewBox="0 0 29 29" fill="none" xmlns="http://www.w3.org/2000/svg">
<path d="M17.3467 10.0145L9.92212 17.4391L11.4601 18.977L18.8846 11.5525L17.3467 10.0145Z" stroke="#6979F8" stroke-miterlimit="10" stroke-linejoin="round"/>
<path d="M13.4663 20.9834C13.9163 21.4334 13.9163 22.2209 13.4663 22.6709L12.9788 23.1584C12.5288 23.6084 11.7413 23.6084 11.2913 23.1584L5.74131 17.6084C5.29131 17.1584 5.29131 16.3709 5.74131 15.9209L6.22881 15.4334C6.67881 14.9834 7.46631 14.9834 7.91631 15.4334L13.4663 20.9834Z" stroke="#6979F8" stroke-miterlimit="10" stroke-linejoin="round"/>
<path d="M9.79126 21.6583C10.2413 22.1083 10.3538 22.7833 10.0163 23.1583C9.67876 23.4958 9.00376 23.4208 8.51626 22.9333L6.00376 20.4208C5.55376 19.9708 5.44126 19.2958 5.77876 18.9208C6.11626 18.5833 6.79126 18.6583 7.27876 19.1458L9.79126 21.6583Z" stroke="#6979F8" stroke-miterlimit="10" stroke-linejoin="round"/>
<path d="M7.24131 21.6584L6.52881 22.3709" stroke="#6979F8" stroke-miterlimit="10" stroke-linejoin="round"/>
<path d="M15.3414 8.00835C14.8914 7.55835 14.8914 6.77085 15.3414 6.32085L15.8289 5.83335C16.2789 5.38335 17.0664 5.38335 17.5164 5.83335L23.0289 11.3458C23.4789 11.7958 23.4789 12.5833 23.0289 13.0333L22.5414 13.5208C22.0914 13.9708 21.3039 13.9708 20.8539 13.5208L15.3414 8.00835Z" stroke="#6979F8" stroke-miterlimit="10" stroke-linejoin="round"/>
<path d="M19.0165 7.33332C18.5665 6.88332 18.454 6.20832 18.7915 5.83332C19.129 5.49582 19.804 5.57082 20.2915 6.05832L22.804 8.57082C23.254 9.02082 23.3665 9.69582 23.029 10.0708C22.6915 10.4083 22.0165 10.3333 21.529 9.84582L19.0165 7.33332Z" stroke="#6979F8" stroke-miterlimit="10" stroke-linejoin="round"/>
<path d="M21.5664 7.33335L22.2789 6.62085" stroke="#6979F8" stroke-miterlimit="10" stroke-linejoin="round"/>
</svg>
