<svg width="28" height="29" viewBox="0 0 28 29" fill="none" xmlns="http://www.w3.org/2000/svg">
<path d="M11.176 2.9201C11.1519 2.92229 11.1278 2.92448 11.1038 2.92885C11.1038 2.92885 11.1038 2.92885 11.1016 2.92885H11.0972C11.0338 2.94198 10.9725 2.96385 10.9178 2.99448L4.57189 5.30448L0.441895 21.236L5.42502 22.6601L6.72002 18.1276V26.4489H21.28V18.1276L22.575 22.6601L27.5603 21.236L23.4281 5.30448L16.8985 2.92885H11.2875C11.2525 2.92229 11.2153 2.9201 11.176 2.9201ZM11.9788 4.04885H16.0366L14.0613 10.3029L11.9788 4.04885ZM10.85 4.21073L13.4685 12.066C13.475 12.0835 13.4816 12.0989 13.4881 12.1164L13.2869 12.7551L10.1566 7.38917L10.7275 6.24948L9.65783 4.64385L10.85 4.21073ZM17.1588 4.2151L18.3422 4.64604L17.2725 6.24948L17.8369 7.37385L14.5425 12.4992L17.1588 4.2151ZM8.57502 5.03979L9.43252 6.33042L8.88346 7.42854L12.9303 14.3629C12.8997 14.6254 12.88 14.8923 12.88 15.157V25.3289H7.84002V10.1301L4.65502 21.2776L1.79814 20.4617L5.50814 6.15323L8.57502 5.03979ZM19.425 5.03979L22.4919 6.15323L26.1997 20.4617L23.345 21.2776L20.16 10.1301V25.3289H14V15.4151L19.1231 7.44385L18.5675 6.33042L19.425 5.03979ZM15.12 16.9289C14.8116 16.9289 14.56 17.1804 14.56 17.4889C14.56 17.7973 14.8116 18.0489 15.12 18.0489C15.4285 18.0489 15.68 17.7973 15.68 17.4889C15.68 17.1804 15.4285 16.9289 15.12 16.9289ZM15.12 19.7289C14.8116 19.7289 14.56 19.9804 14.56 20.2889C14.56 20.5973 14.8116 20.8489 15.12 20.8489C15.4285 20.8489 15.68 20.5973 15.68 20.2889C15.68 19.9804 15.4285 19.7289 15.12 19.7289ZM15.12 22.5289C14.8116 22.5289 14.56 22.7804 14.56 23.0889C14.56 23.3973 14.8116 23.6489 15.12 23.6489C15.4285 23.6489 15.68 23.3973 15.68 23.0889C15.68 22.7804 15.4285 22.5289 15.12 22.5289Z" fill="#6979F8"/>
</svg>
