<svg width="28" height="29" viewBox="0 0 28 29" fill="none" xmlns="http://www.w3.org/2000/svg">
<path d="M9.52001 4.60881C8.40001 4.49725 7.61688 5.39194 7.56001 5.39194L2.76063 12.5276C2.32313 12.7726 1.98845 13.0854 1.74345 13.4572C1.08282 14.4679 1.12001 15.6972 1.12001 16.9288C1.12001 19.6807 3.26376 21.9688 5.9347 21.9688C8.59907 21.9688 10.6947 19.8163 11.8191 17.4494C11.9875 17.0951 12.1188 16.7341 12.2084 16.3688H15.7916C15.8813 16.7341 16.0125 17.0951 16.1809 17.4494C17.3053 19.8163 19.4009 21.9688 22.0653 21.9688C24.7363 21.9688 26.88 19.6807 26.88 16.9288C26.88 15.6972 26.9172 14.4679 26.2566 13.4572C26.0291 13.1116 25.7184 12.8207 25.3247 12.5822L20.4947 5.44881L20.44 5.39194C20.3831 5.39194 19.6569 4.49725 18.48 4.60881C17.5284 4.72037 16.6884 5.44881 15.96 6.73725L15.68 7.29725L16.6884 7.91412L16.9684 7.40881C17.4716 6.45725 18.0316 5.95412 18.5916 5.89725C19.0947 5.84037 19.4316 6.17725 19.5453 6.28881L23.3975 11.9741C22.9928 11.9194 22.5553 11.8888 22.0653 11.8888C21.9866 11.8888 21.9166 11.8932 21.84 11.8954V11.8888H6.16001V11.8954C6.08345 11.8932 6.01345 11.8888 5.9347 11.8888C5.43595 11.8888 4.98751 11.9216 4.57626 11.9763L8.4547 6.23194C8.56845 6.12037 8.90532 5.7835 9.40845 5.84037C9.91157 5.89725 10.4716 6.45725 11.0316 7.35412L11.3116 7.85725L12.32 7.24037L12.04 6.73725C11.2569 5.44881 10.4169 4.72037 9.52001 4.60881ZM5.9347 13.0088C6.16657 13.0088 6.3722 13.0197 6.58439 13.0263C6.33501 13.0876 6.16001 13.3129 6.16001 13.5688C6.16001 13.8772 6.41157 14.1288 6.72001 14.1288C7.02845 14.1288 7.28001 13.8772 7.28001 13.5688C7.28001 13.3238 7.11813 13.1051 6.88407 13.0351C8.02376 13.0941 8.88126 13.2647 9.52657 13.4944C9.5222 13.5185 9.52001 13.5447 9.52001 13.5688C9.52001 13.8772 9.77157 14.1288 10.08 14.1288C10.2244 14.1288 10.3644 14.0719 10.4672 13.9713C10.6159 14.0785 10.745 14.1901 10.8391 14.3038C11.1213 14.6451 11.2306 15.0126 11.2197 15.461C11.2131 15.7782 11.1344 16.1326 10.9988 16.5001C10.8981 16.4169 10.7713 16.3688 10.64 16.3688C10.3316 16.3688 10.08 16.6204 10.08 16.9288C10.08 17.1979 10.2703 17.4276 10.535 17.4801C9.72563 18.9369 8.53345 20.1597 7.1597 20.6322C7.23845 20.536 7.28001 20.4135 7.28001 20.2888C7.28001 19.9804 7.02845 19.7288 6.72001 19.7288C6.41157 19.7288 6.16001 19.9804 6.16001 20.2888C6.16001 20.5097 6.29126 20.711 6.49251 20.7985C6.30876 20.8291 6.12501 20.8488 5.9347 20.8488C5.19095 20.8488 4.49532 20.6126 3.91345 20.2079C3.87407 19.9322 3.63782 19.7288 3.36001 19.7288C3.35782 19.7288 3.35345 19.7288 3.35126 19.7288C2.66657 19.0179 2.24001 18.0291 2.24001 16.9288C2.24001 15.6972 2.2772 14.6866 2.68188 14.0719C2.73438 13.9888 2.79782 13.9122 2.86782 13.8357C2.86782 13.8357 2.86782 13.8357 2.87001 13.8379C2.96626 14.0172 3.15438 14.1288 3.36001 14.1288C3.66845 14.1288 3.92001 13.8772 3.92001 13.5688C3.92001 13.4616 3.88938 13.3588 3.83251 13.2691C4.32907 13.1051 4.99845 13.0088 5.9347 13.0088ZM11.0513 13.0088H16.9488C16.6994 13.1838 16.4784 13.3741 16.2991 13.5885C15.8944 14.0785 15.7063 14.6626 15.6734 15.2488H12.3266C12.2938 14.6626 12.1056 14.0785 11.7009 13.5885C11.5216 13.3741 11.3006 13.1838 11.0513 13.0088ZM22.0653 13.0088C23.0016 13.0088 23.6688 13.1072 24.1675 13.2691C24.1106 13.3588 24.08 13.4616 24.08 13.5688C24.08 13.8772 24.3316 14.1288 24.64 14.1288C24.8456 14.1288 25.0338 14.0172 25.1322 13.8357C25.2022 13.9122 25.2656 13.9888 25.3203 14.0719C25.7228 14.6866 25.76 15.6972 25.76 16.9288C25.76 18.0291 25.3334 19.0179 24.6488 19.7288C24.6466 19.7288 24.6422 19.7288 24.64 19.7288C24.3622 19.7288 24.1259 19.9322 24.0866 20.2079C23.5025 20.6126 22.8091 20.8488 22.0653 20.8488C21.8772 20.8488 21.6913 20.8291 21.5075 20.7985C21.7088 20.7088 21.84 20.5097 21.84 20.2888C21.84 19.9804 21.5884 19.7288 21.28 19.7288C20.9716 19.7288 20.72 19.9804 20.72 20.2888C20.72 20.4135 20.7616 20.536 20.8403 20.6322C19.4666 20.1597 18.2744 18.9369 17.465 17.4801C17.7297 17.4276 17.92 17.1979 17.92 16.9288C17.92 16.6204 17.6684 16.3688 17.36 16.3688C17.2288 16.3688 17.0997 16.4147 16.9991 16.5001C16.8656 16.1304 16.7869 15.776 16.7803 15.461C16.7694 15.0126 16.8788 14.6451 17.1609 14.3038C17.2113 14.2447 17.2747 14.1857 17.3381 14.1288C17.3447 14.1288 17.3534 14.1288 17.36 14.1288C17.6006 14.1288 17.8128 13.9757 17.8894 13.7482C18.5566 13.3916 19.5869 13.1138 21.1138 13.0351C20.8797 13.1072 20.72 13.3238 20.72 13.5688C20.72 13.8772 20.9716 14.1288 21.28 14.1288C21.5884 14.1288 21.84 13.8772 21.84 13.5688C21.84 13.3129 21.665 13.0876 21.4156 13.0263C21.6278 13.0197 21.8334 13.0088 22.0653 13.0088ZM5.04001 14.6888C4.73157 14.6888 4.48001 14.9404 4.48001 15.2488C4.48001 15.5572 4.73157 15.8088 5.04001 15.8088C5.34845 15.8088 5.60001 15.5572 5.60001 15.2488C5.60001 14.9404 5.34845 14.6888 5.04001 14.6888ZM8.40001 14.6888C8.09157 14.6888 7.84001 14.9404 7.84001 15.2488C7.84001 15.5572 8.09157 15.8088 8.40001 15.8088C8.70845 15.8088 8.96001 15.5572 8.96001 15.2488C8.96001 14.9404 8.70845 14.6888 8.40001 14.6888ZM19.6 14.6888C19.2916 14.6888 19.04 14.9404 19.04 15.2488C19.04 15.5572 19.2916 15.8088 19.6 15.8088C19.9084 15.8088 20.16 15.5572 20.16 15.2488C20.16 14.9404 19.9084 14.6888 19.6 14.6888ZM22.96 14.6888C22.6516 14.6888 22.4 14.9404 22.4 15.2488C22.4 15.5572 22.6516 15.8088 22.96 15.8088C23.2684 15.8088 23.52 15.5572 23.52 15.2488C23.52 14.9404 23.2684 14.6888 22.96 14.6888ZM3.36001 16.3688C3.05157 16.3688 2.80001 16.6204 2.80001 16.9288C2.80001 17.2372 3.05157 17.4888 3.36001 17.4888C3.66845 17.4888 3.92001 17.2372 3.92001 16.9288C3.92001 16.6204 3.66845 16.3688 3.36001 16.3688ZM6.72001 16.3688C6.41157 16.3688 6.16001 16.6204 6.16001 16.9288C6.16001 17.2372 6.41157 17.4888 6.72001 17.4888C7.02845 17.4888 7.28001 17.2372 7.28001 16.9288C7.28001 16.6204 7.02845 16.3688 6.72001 16.3688ZM21.28 16.3688C20.9716 16.3688 20.72 16.6204 20.72 16.9288C20.72 17.2372 20.9716 17.4888 21.28 17.4888C21.5884 17.4888 21.84 17.2372 21.84 16.9288C21.84 16.6204 21.5884 16.3688 21.28 16.3688ZM24.64 16.3688C24.3316 16.3688 24.08 16.6204 24.08 16.9288C24.08 17.2372 24.3316 17.4888 24.64 17.4888C24.9484 17.4888 25.2 17.2372 25.2 16.9288C25.2 16.6204 24.9484 16.3688 24.64 16.3688ZM5.04001 18.0488C4.73157 18.0488 4.48001 18.3004 4.48001 18.6088C4.48001 18.9172 4.73157 19.1688 5.04001 19.1688C5.34845 19.1688 5.60001 18.9172 5.60001 18.6088C5.60001 18.3004 5.34845 18.0488 5.04001 18.0488ZM8.40001 18.0488C8.09157 18.0488 7.84001 18.3004 7.84001 18.6088C7.84001 18.9172 8.09157 19.1688 8.40001 19.1688C8.70845 19.1688 8.96001 18.9172 8.96001 18.6088C8.96001 18.3004 8.70845 18.0488 8.40001 18.0488ZM19.6 18.0488C19.2916 18.0488 19.04 18.3004 19.04 18.6088C19.04 18.9172 19.2916 19.1688 19.6 19.1688C19.9084 19.1688 20.16 18.9172 20.16 18.6088C20.16 18.3004 19.9084 18.0488 19.6 18.0488ZM22.96 18.0488C22.6516 18.0488 22.4 18.3004 22.4 18.6088C22.4 18.9172 22.6516 19.1688 22.96 19.1688C23.2684 19.1688 23.52 18.9172 23.52 18.6088C23.52 18.3004 23.2684 18.0488 22.96 18.0488Z" fill="#6979F8"/>
</svg>
