<svg width="28" height="29" viewBox="0 0 28 29" fill="none" xmlns="http://www.w3.org/2000/svg">
<g clip-path="url(#clip0_2511_730)">
<path d="M10.64 1.24884C10.4915 1.24886 10.3491 1.30786 10.244 1.41288C10.139 1.51789 10.08 1.66032 10.08 1.80884V4.68322C8.65575 5.01787 7.19879 5.47084 6.01016 6.23415C4.38829 7.27582 3.33515 8.94649 2.765 10.6759L0.0284413 18.8768C0.00938333 18.9343 -0.000220579 18.9945 3.84396e-06 19.0551V28.1288C1.86934e-05 28.2774 0.0590233 28.4198 0.16404 28.5248C0.269058 28.6298 0.411487 28.6888 0.560004 28.6888H4.48C4.62852 28.6888 4.77095 28.6298 4.87597 28.5248C4.98098 28.4198 5.03999 28.2774 5.04 28.1288V19.6348L6.16 17.5052V28.1288C6.16002 28.2774 6.21902 28.4198 6.32404 28.5248C6.42906 28.6298 6.57149 28.6888 6.72 28.6888H14H21.28C21.4285 28.6888 21.5709 28.6298 21.676 28.5248C21.781 28.4198 21.84 28.2774 21.84 28.1288V17.5052L22.96 19.6348V28.1288C22.96 28.2774 23.019 28.4198 23.124 28.5248C23.2291 28.6298 23.3715 28.6888 23.52 28.6888H27.44C27.5885 28.6888 27.7309 28.6298 27.836 28.5248C27.941 28.4198 28 28.2774 28 28.1288V19.0551C28.0002 18.9945 27.9906 18.9343 27.9716 18.8768L25.235 10.6759L25.2339 10.6748C24.6637 8.94591 23.6113 7.27555 21.9898 6.23415C20.8008 5.4706 19.3447 5.00911 17.92 4.67447V1.80884C17.92 1.66032 17.861 1.51789 17.756 1.41288C17.6509 1.30786 17.5085 1.24886 17.36 1.24884H10.64ZM11.2 2.36884H16.8V4.74118C14.9196 5.33613 13.0703 5.28139 11.2 4.70618V2.36884ZM10.5328 5.7179C12.8176 6.49259 15.1585 6.53302 17.4781 5.7179C18.6222 5.97846 19.766 6.32679 20.72 6.80509C19.9601 9.34722 20.0137 12.1794 20.7156 15.2368C20.716 15.2569 20.7175 15.277 20.72 15.297V19.7376C20.6692 19.7639 20.6227 19.7978 20.5822 19.8382L18.7578 21.6779L16.9159 19.836C16.815 19.7351 16.6793 19.6764 16.5366 19.6722C16.3939 19.6679 16.2549 19.7183 16.1481 19.8131L13.9967 21.7227L11.8519 19.8142C11.7452 19.7192 11.6063 19.6687 11.4636 19.6727C11.3209 19.6768 11.1851 19.7352 11.0841 19.836L9.24219 21.6779L7.41781 19.8382C7.3776 19.7963 7.33111 19.7609 7.28 19.7332V15.2981C7.28279 15.2759 7.28425 15.2536 7.28438 15.2313C7.9938 12.3404 8.03058 9.50826 7.27891 6.80618C8.2362 6.32731 9.38517 5.97878 10.5328 5.7179ZM21.7153 7.4154C22.8823 8.29333 23.7056 9.61602 24.1708 11.027C24.1711 11.0277 24.1715 11.0284 24.1719 11.0292L26.88 19.1459V25.3288H24.08V19.4959C24.0799 19.4052 24.0577 19.3158 24.0155 19.2356L21.8083 15.0399C21.1525 12.2161 21.104 9.67328 21.7153 7.4154ZM6.27922 7.41978C6.89588 9.85003 6.85499 12.3906 6.195 15.0356L3.98453 19.2356C3.94226 19.3158 3.92011 19.4052 3.92 19.4959V25.3288H1.12V19.1459L3.82813 11.0292C3.82849 11.0284 3.82886 11.0277 3.82922 11.027C4.29364 9.61827 5.11521 8.29774 6.27922 7.41978ZM16.497 21.0009L18.3641 22.8679C18.4162 22.9201 18.4781 22.9616 18.5463 22.9898C18.6145 23.018 18.6875 23.0325 18.7613 23.0324C18.8351 23.0323 18.9082 23.0176 18.9762 22.9892C19.0443 22.9608 19.1062 22.9192 19.1581 22.8668L20.72 21.2907V25.3288H7.28V21.2907L8.84188 22.8668C8.89385 22.9192 8.95566 22.9608 9.02375 22.9892C9.09185 23.0176 9.16489 23.0323 9.23868 23.0324C9.31247 23.0325 9.38555 23.018 9.45373 22.9898C9.5219 22.9616 9.58382 22.9201 9.63594 22.8679L11.5019 21.002L13.6227 22.8909C13.7252 22.9822 13.8578 23.0326 13.9951 23.0326C14.1324 23.0326 14.2649 22.9822 14.3675 22.8909L16.497 21.0009ZM1.12 26.4488H3.92V27.5688H1.12V26.4488ZM7.28 26.4488H20.72V27.5688H14H7.28V26.4488ZM24.08 26.4488H26.88V27.5688H24.08V26.4488Z" fill="#6979F8"/>
</g>
<defs>
<clipPath id="clip0_2511_730">
<rect width="28" height="28" fill="white" transform="translate(0 0.688843)"/>
</clipPath>
</defs>
</svg>
