<svg width="28" height="29" viewBox="0 0 28 29" fill="none" xmlns="http://www.w3.org/2000/svg">
<path d="M21.829 1.7804L21.082 4.02149C20.0415 4.04187 18.3774 4.29378 16.8011 5.43352C15.8983 6.08592 15.1462 6.94802 14.6103 7.94258H13.5723C13.1803 6.97154 12.5764 6.11942 11.8081 5.46086C9.93531 3.85536 7.70189 3.84946 6.60293 3.96899L5.8734 1.78149L4.85074 2.12165L5.64371 4.49946C4.91141 5.71963 4.66135 7.145 4.95027 8.54961C5.13475 9.44658 5.52077 10.2568 6.07136 10.9274C6.07274 10.9306 6.07574 10.9327 6.07574 10.9373C6.87654 12.3765 7.15076 13.67 6.87636 14.7676C6.71396 15.4172 6.38356 15.9156 6.03636 16.4476C5.75076 16.8844 5.44906 17.3549 5.21386 17.9373C5.06266 18.3013 4.93872 18.7147 4.87152 19.1907C4.76512 19.9243 4.79868 20.6811 4.96668 21.4427C5.20748 21.5043 5.43708 21.5712 5.66668 21.644H5.67324C7.39804 22.1984 8.89801 23.0386 10.1412 24.153C10.8188 24.7634 11.323 25.3624 11.7654 25.8888C12.5494 26.824 13.1769 27.5688 14.1793 27.5688H14.28C15.288 27.5184 15.8475 26.7508 16.4915 25.8604C16.8723 25.334 17.304 24.7403 17.92 24.1355C19.0904 22.9651 20.5744 22.1083 22.3496 21.5707C22.5792 21.4979 22.8198 21.4365 23.0606 21.3749C23.2286 20.6133 23.2621 19.8576 23.1557 19.124C23.0941 18.6816 22.9828 18.2953 22.8484 17.9537C22.6076 17.3265 22.2822 16.8334 21.9854 16.3798C21.6382 15.8534 21.3077 15.3494 21.1509 14.6998C20.8933 13.6078 21.19 12.326 22.0412 10.8924L22.0248 10.8804L22.0193 10.8771C22.5524 10.163 22.907 9.3081 23.0332 8.3943C23.2237 7.0114 22.869 5.60107 22.0675 4.47321L22.8517 2.12165L21.829 1.7804ZM7.36199 5.00368C8.35946 4.99727 9.8543 5.2048 11.1059 6.2779C12.0109 7.05406 12.4657 7.99832 12.6875 8.65352L12.8121 9.01993H15.2786L15.4262 8.71477C15.7493 8.04333 16.3603 7.08084 17.4332 6.30524C18.8316 5.29444 20.3108 5.10334 21.2001 5.09774C21.8503 6.01054 22.122 7.11827 21.9668 8.24555C21.8602 9.01784 21.548 9.7339 21.0842 10.3204H21.0787C21.0731 10.326 21.0723 10.3323 21.0667 10.3379C21.0667 10.3379 21.0668 10.3434 21.0612 10.3434C21.0612 10.349 21.0557 10.3487 21.0557 10.3543C21.0556 10.3546 21.0559 10.3551 21.0557 10.3554C20.8314 10.6327 20.5753 10.8826 20.2857 11.0904C18.4736 12.3896 15.8445 11.9797 14.4232 10.1782L14.0196 9.66633L13.5931 10.1585C12.1192 11.8604 9.64332 12.2566 7.83339 11.0773C7.54871 10.8915 7.29463 10.669 7.06668 10.4221L7.06558 10.421C7.06014 10.405 7.05567 10.3936 7.0448 10.3773L7.03386 10.3827L7.03168 10.3838C6.52506 9.82105 6.16801 9.1204 6.00574 8.33196C5.77278 7.1974 5.96896 6.04343 6.55808 5.05727C6.75254 5.03193 7.0295 5.00581 7.36199 5.00368ZM13.9836 11.3048C15.0347 12.3648 16.463 12.9235 17.8882 12.9235C18.6673 12.9235 19.4456 12.755 20.16 12.4116C19.9029 13.3125 19.8745 14.1688 20.0648 14.9634C20.2664 15.8034 20.6639 16.4076 21.0503 16.9956C21.2631 17.3148 21.4651 17.6293 21.6387 17.9821C21.8011 18.3069 21.93 18.6645 22.0084 19.0901C22.0252 19.1517 22.0355 19.2198 22.0467 19.287C22.1027 19.679 22.1144 20.0813 22.0696 20.4901C20.104 21.0781 18.4407 22.0356 17.1303 23.3404C16.4527 24.0124 15.9712 24.6732 15.5848 25.2052C14.9912 26.0284 14.6778 26.4264 14.2242 26.4488C13.737 26.4656 13.3386 26.0236 12.6218 25.1724C12.1794 24.6404 11.6251 23.9793 10.8915 23.3185C9.51952 22.0865 7.86271 21.1624 5.95871 20.5688C5.91391 20.1544 5.92458 19.7513 5.98058 19.3537C5.99178 19.2585 6.0085 19.1633 6.0309 19.0737C6.1149 18.6481 6.25542 18.2894 6.42902 17.9646C6.59142 17.6454 6.77552 17.3602 6.97152 17.0634C7.35792 16.4754 7.75075 15.87 7.96355 15.0356C8.17635 14.1956 8.14266 13.2884 7.87386 12.3252C9.87223 13.2655 12.3124 12.8647 13.9836 11.3048Z" fill="#6979F8"/>
</svg>
