<svg width="28" height="29" viewBox="0 0 28 29" fill="none" xmlns="http://www.w3.org/2000/svg">
<g clip-path="url(#clip0_2511_732)">
<path d="M10.64 2.36884C10.6254 2.369 10.6108 2.36973 10.5963 2.37103C10.5776 2.37228 10.559 2.37447 10.5405 2.37759C10.5062 2.3832 10.4725 2.39199 10.4399 2.40384L6.56581 3.51072C6.55921 3.51278 6.55265 3.51497 6.54612 3.51728C6.47256 3.53633 4.60275 4.03259 3.63566 5.64462C2.29432 7.87887 0.0787816 11.6023 0.0787816 11.6023C0.0031749 11.7293 -0.0191327 11.8811 0.0167235 12.0245C0.0525797 12.168 0.143691 12.2914 0.270188 12.3679L3.98019 14.6079C4.10608 14.6839 4.25683 14.7074 4.39988 14.6732C4.54293 14.6391 4.66679 14.55 4.74472 14.4252L6.16003 12.1612V26.4488C6.16005 26.5974 6.21905 26.7398 6.32407 26.8448C6.42908 26.9498 6.57151 27.0088 6.72003 27.0088H21.28C21.4285 27.0088 21.571 26.9498 21.676 26.8448C21.781 26.7398 21.84 26.5974 21.84 26.4488V12.1612L23.2553 14.4252C23.3333 14.55 23.4571 14.6391 23.6002 14.6732C23.7432 14.7074 23.894 14.6839 24.0199 14.6079L27.7299 12.3679C27.8564 12.2914 27.9475 12.168 27.9833 12.0245C28.0192 11.8811 27.9969 11.7293 27.9213 11.6023C27.9213 11.6023 25.7057 7.87887 24.3644 5.64462C23.415 4.06215 21.6137 3.56128 21.4769 3.52494C21.4629 3.51963 21.4486 3.51488 21.4342 3.51072L17.57 2.40712C17.5031 2.38102 17.4318 2.36802 17.36 2.36884C17.356 2.3688 17.352 2.3688 17.348 2.36884H14H10.6521H10.64ZM11.3991 3.48884H14H16.601C16.53 3.65457 16.4436 3.83117 16.3188 4.01603C15.9216 4.60442 15.2923 5.16884 14 5.16884C12.7078 5.16884 12.0784 4.60442 11.6813 4.01603C11.5565 3.83117 11.4701 3.65457 11.3991 3.48884ZM10.2616 3.619C10.3625 3.91399 10.5035 4.27085 10.7538 4.64165C11.3016 5.45326 12.3523 6.28884 14 6.28884C15.6478 6.28884 16.6984 5.45326 17.2463 4.64165C17.4966 4.27085 17.6376 3.91399 17.7385 3.619L20.5516 4.4229C20.3696 4.94358 20.16 5.70819 20.16 6.84884C20.16 8.93588 20.611 10.0311 20.7146 10.2668C20.716 10.2789 20.7178 10.2909 20.72 10.3029V25.8888H7.28003V10.304C7.28224 10.292 7.28407 10.28 7.2855 10.2679C7.38866 10.0332 7.84003 8.9374 7.84003 6.84884C7.84003 5.70819 7.63049 4.94358 7.44847 4.4229L10.2616 3.619ZM6.39956 4.78165C6.54407 5.21672 6.72003 5.91237 6.72003 6.84884C6.72003 8.96004 6.24057 9.91499 6.22456 9.94634L4.08737 13.3643L1.32675 11.6974C1.63566 11.1784 3.36462 8.27207 4.59597 6.22103C5.05344 5.45848 5.87864 5.01131 6.39956 4.78165ZM21.6005 4.78165C22.1214 5.01131 22.9466 5.45848 23.4041 6.22103C24.6354 8.27207 26.3644 11.1784 26.6733 11.6974L23.9127 13.3643L21.7755 9.94634C21.7595 9.91499 21.28 8.96004 21.28 6.84884C21.28 5.91237 21.456 5.21672 21.6005 4.78165Z" fill="#6979F8"/>
</g>
<defs>
<clipPath id="clip0_2511_732">
<rect width="28" height="28" fill="white" transform="translate(0 0.688843)"/>
</clipPath>
</defs>
</svg>
