<svg width="29" height="29" viewBox="0 0 29 29" fill="none" xmlns="http://www.w3.org/2000/svg">
<mask id="path-1-inside-1_2511_781" fill="white">
<path d="M8.38501 24.4069H20.385C21.4896 24.4069 22.385 23.5114 22.385 22.4069V6.40686C22.385 5.30229 21.4896 4.40686 20.385 4.40686H8.38501C7.28044 4.40686 6.38501 5.30229 6.38501 6.40686V22.4069C6.38501 23.5114 7.28044 24.4069 8.38501 24.4069Z"/>
<path d="M15.385 20.4069C15.385 20.9591 14.9373 21.4069 14.385 21.4069C13.8327 21.4069 13.385 20.9591 13.385 20.4069C13.385 19.8546 13.8327 19.4069 14.385 19.4069C14.9373 19.4069 15.385 19.8546 15.385 20.4069Z"/>
</mask>
<path d="M20.385 23.4069H8.38501V25.4069H20.385V23.4069ZM8.38501 23.4069C7.83273 23.4069 7.38501 22.9591 7.38501 22.4069H5.38501C5.38501 24.0637 6.72816 25.4069 8.38501 25.4069V23.4069ZM7.38501 22.4069V6.40686H5.38501V22.4069H7.38501ZM7.38501 6.40686C7.38501 5.85458 7.83272 5.40686 8.38501 5.40686V3.40686C6.72816 3.40686 5.38501 4.75 5.38501 6.40686H7.38501ZM8.38501 5.40686H20.385V3.40686H8.38501V5.40686ZM20.385 5.40686C20.9373 5.40686 21.385 5.85457 21.385 6.40686H23.385C23.385 4.75 22.0419 3.40686 20.385 3.40686V5.40686ZM21.385 6.40686V22.4069H23.385V6.40686H21.385ZM21.385 22.4069C21.385 22.9591 20.9373 23.4069 20.385 23.4069V25.4069C22.0419 25.4069 23.385 24.0637 23.385 22.4069H21.385ZM14.385 20.4069V22.4069C15.4896 22.4069 16.385 21.5114 16.385 20.4069H14.385ZM14.385 20.4069H12.385C12.385 21.5114 13.2804 22.4069 14.385 22.4069V20.4069ZM14.385 20.4069V18.4069C13.2804 18.4069 12.385 19.3023 12.385 20.4069H14.385ZM14.385 20.4069H16.385C16.385 19.3023 15.4896 18.4069 14.385 18.4069V20.4069Z" fill="#6979F8" mask="url(#path-1-inside-1_2511_781)"/>
</svg>
