<svg width="29" height="29" viewBox="0 0 29 29" fill="none" xmlns="http://www.w3.org/2000/svg">
<path d="M14.1447 24.4069C19.6675 24.4069 24.1447 19.9297 24.1447 14.4069C24.1447 8.88401 19.6675 4.40686 14.1447 4.40686C8.62181 4.40686 4.14465 8.88401 4.14465 14.4069C4.14465 19.9297 8.62181 24.4069 14.1447 24.4069Z" stroke="#6979F8" stroke-linecap="round" stroke-linejoin="round"/>
<path d="M14.1447 20.4069C17.4584 20.4069 20.1447 17.7206 20.1447 14.4069C20.1447 11.0932 17.4584 8.40686 14.1447 8.40686C10.8309 8.40686 8.14465 11.0932 8.14465 14.4069C8.14465 17.7206 10.8309 20.4069 14.1447 20.4069Z" stroke="#6979F8" stroke-linecap="round" stroke-linejoin="round"/>
<path d="M14.1447 16.4069C15.2492 16.4069 16.1447 15.5114 16.1447 14.4069C16.1447 13.3023 15.2492 12.4069 14.1447 12.4069C13.0401 12.4069 12.1447 13.3023 12.1447 14.4069C12.1447 15.5114 13.0401 16.4069 14.1447 16.4069Z" stroke="#6979F8" stroke-linecap="round" stroke-linejoin="round"/>
</svg>
