<svg width="29" height="29" viewBox="0 0 29 29" fill="none" xmlns="http://www.w3.org/2000/svg">
<path d="M18.8273 4.21423H21.4973C22.0633 4.20422 22.6132 4.40236 23.0427 4.77105C23.4722 5.13973 23.7514 5.65329 23.8273 6.21423V13.2142C23.7514 13.7752 23.4722 14.2887 23.0427 14.6574C22.6132 15.0261 22.0633 15.2242 21.4973 15.2142H18.8273M11.8273 17.2142V21.2142C11.8273 22.0099 12.1434 22.7729 12.706 23.3356C13.2686 23.8982 14.0317 24.2142 14.8273 24.2142L18.8273 15.2142V4.21423H7.5473C7.06497 4.20878 6.59692 4.37782 6.2294 4.69022C5.86187 5.00262 5.61962 5.43732 5.5473 5.91423L4.1673 14.9142C4.12379 15.2009 4.14313 15.4935 4.22396 15.772C4.3048 16.0504 4.4452 16.3079 4.63544 16.5267C4.82569 16.7455 5.06122 16.9203 5.32573 17.039C5.59024 17.1577 5.87739 17.2175 6.1673 17.2142H11.8273Z" stroke="#6979F8" stroke-linecap="round" stroke-linejoin="round"/>
</svg>
