<svg width="29" height="29" viewBox="0 0 29 29" fill="none" xmlns="http://www.w3.org/2000/svg">
<path d="M9.14465 24.7732H6.14465C5.61422 24.7732 5.10551 24.5625 4.73044 24.1874C4.35537 23.8123 4.14465 23.3036 4.14465 22.7732V15.7732C4.14465 15.2428 4.35537 14.7341 4.73044 14.359C5.10551 13.9839 5.61422 13.7732 6.14465 13.7732H9.14465M16.1447 11.7732V7.77319C16.1447 6.97754 15.8286 6.21448 15.266 5.65187C14.7034 5.08926 13.9403 4.77319 13.1447 4.77319L9.14465 13.7732V24.7732H20.4247C20.907 24.7786 21.375 24.6096 21.7426 24.2972C22.1101 23.9848 22.3523 23.5501 22.4247 23.0732L23.8047 14.0732C23.8482 13.7866 23.8288 13.4939 23.748 13.2154C23.6672 12.937 23.5268 12.6795 23.3365 12.4607C23.1463 12.2419 22.9107 12.0671 22.6462 11.9484C22.3817 11.8297 22.0946 11.7699 21.8047 11.7732H16.1447Z" stroke="#6979F8" stroke-linecap="round" stroke-linejoin="round"/>
</svg>
