<svg width="28" height="29" viewBox="0 0 28 29" fill="none" xmlns="http://www.w3.org/2000/svg">
<path d="M8.24241 2.36884C8.06085 2.40165 7.90772 2.51977 7.83116 2.68821C7.75241 2.85665 7.76335 3.04915 7.85741 3.20884L8.39991 19.0288C7.3346 21.2295 6.0921 21.8113 5.23241 22.3713C4.46898 22.8701 3.99648 23.5416 3.91991 24.2788C3.84335 25.016 4.21523 25.7598 4.91741 26.1863C5.40085 26.4795 5.96741 26.5013 6.49241 26.4138C7.01741 26.3263 7.53366 26.1316 8.03241 25.9063C8.98397 25.4776 9.84585 24.9263 10.2024 24.7513C10.2046 24.7491 10.2177 24.7535 10.2199 24.7513C10.4102 24.7448 10.6443 24.7295 10.9024 24.6988C10.9133 24.6966 10.9265 24.701 10.9374 24.6988C11.1321 24.6726 11.3202 24.6245 11.4974 24.5588C11.9262 24.3991 12.3002 24.1016 12.5824 23.7013C12.893 23.2616 13.0046 22.7279 13.0374 22.1788C13.0637 21.7195 13.0155 21.2645 12.8799 20.8488V10.7688H15.1199V20.8138C14.9755 21.2382 14.934 21.7085 14.9624 22.1788C14.9952 22.7279 15.1068 23.2616 15.4174 23.7013C15.6996 24.1016 16.0737 24.3991 16.5024 24.5588C16.6905 24.6288 16.8896 24.6726 17.0974 24.6988C17.3621 24.7295 17.6049 24.747 17.7974 24.7513C18.154 24.9263 19.0158 25.4776 19.9674 25.9063C20.4662 26.1316 20.9824 26.3263 21.5074 26.4138C22.0324 26.5013 22.599 26.4795 23.0824 26.1863C23.7846 25.7598 24.1565 25.016 24.0799 24.2788C24.0033 23.5416 23.5308 22.8701 22.7674 22.3713C21.9077 21.8113 20.6652 21.2295 19.5999 19.0288L20.1599 3.03384C20.1621 3.0054 20.1621 2.97477 20.1599 2.94634C20.1621 2.9179 20.1621 2.88727 20.1599 2.85884C20.1599 2.85227 20.1599 2.8479 20.1599 2.84134C20.1599 2.8304 20.1599 2.81727 20.1599 2.80634C20.1533 2.79977 20.149 2.7954 20.1424 2.78884C20.1315 2.74071 20.114 2.69259 20.0899 2.64884C20.0833 2.64227 20.079 2.6379 20.0724 2.63134C20.0199 2.5504 19.9477 2.48477 19.8624 2.43884C19.8515 2.43227 19.8383 2.42571 19.8274 2.42134C19.8208 2.41477 19.8165 2.4104 19.8099 2.40384C19.799 2.39727 19.7858 2.39071 19.7749 2.38634C19.7683 2.38634 19.764 2.38634 19.7574 2.38634C19.7355 2.37977 19.7115 2.37321 19.6874 2.36884C19.6699 2.36884 19.6524 2.36884 19.6349 2.36884C19.624 2.36884 19.6108 2.36884 19.5999 2.36884H8.39991C8.38241 2.36884 8.36491 2.36884 8.34741 2.36884C8.32991 2.36884 8.31241 2.36884 8.29491 2.36884C8.27741 2.36884 8.25991 2.36884 8.24241 2.36884ZM8.97741 3.48884H19.0224L18.9874 4.60884H9.01241L8.97741 3.48884ZM9.04741 5.72884H13.4399V9.64884H12.3199C12.3024 9.64884 12.2849 9.64884 12.2674 9.64884C12.2499 9.64884 12.2324 9.64884 12.2149 9.64884C12.0355 9.66852 11.878 9.77134 11.7862 9.92665C11.6965 10.082 11.6877 10.2723 11.7599 10.4363V19.8863C10.1302 20.3566 9.51991 21.9076 9.51991 23.3688C9.51991 23.5263 9.53304 23.6663 9.55491 23.8238C9.02554 24.1038 8.32991 24.5523 7.57741 24.8913C7.12897 25.0948 6.67397 25.2479 6.29991 25.3113C5.92585 25.3748 5.6721 25.3376 5.51241 25.2413C5.11429 24.9985 4.9896 24.7229 5.02241 24.4013C5.05523 24.0798 5.29585 23.6576 5.84491 23.2988C6.57335 22.822 8.20304 21.9688 9.39741 19.5188C9.40397 19.5079 9.41054 19.4948 9.41491 19.4838C9.41929 19.4773 9.42804 19.4729 9.43241 19.4663C9.44554 19.4445 9.45647 19.4204 9.46741 19.3963C9.47397 19.3898 9.47835 19.3854 9.48491 19.3788C9.48491 19.3679 9.48491 19.3548 9.48491 19.3438C9.49147 19.3373 9.49585 19.3329 9.50241 19.3263C9.51991 19.2629 9.52429 19.1995 9.51991 19.1338V19.1163C9.51991 19.0988 9.51991 19.0813 9.51991 19.0638L9.04741 5.72884ZM14.5599 5.72884H18.9524L18.4799 18.9938C18.4777 19.0223 18.4777 19.0529 18.4799 19.0813V19.1338C18.4755 19.1688 18.4755 19.2038 18.4799 19.2388C18.4843 19.2563 18.4908 19.2738 18.4974 19.2913C18.4974 19.2979 18.4974 19.3023 18.4974 19.3088C18.5018 19.3198 18.5083 19.3329 18.5149 19.3438C18.5149 19.3504 18.5149 19.3548 18.5149 19.3613C18.5193 19.3723 18.5258 19.3854 18.5324 19.3963C18.5324 19.4029 18.5324 19.4073 18.5324 19.4138C18.5368 19.4204 18.5455 19.4248 18.5499 19.4313C18.5652 19.4554 18.5827 19.4795 18.6024 19.5013C19.7968 21.9623 21.4243 22.822 22.1549 23.2988C22.704 23.6576 22.9446 24.0798 22.9774 24.4013C23.0102 24.7229 22.8855 24.9985 22.4874 25.2413C22.3277 25.3376 22.074 25.3748 21.6999 25.3113C21.3258 25.2479 20.8708 25.0948 20.4224 24.8913C19.6699 24.5523 18.9743 24.1038 18.4449 23.8238C18.4668 23.6663 18.4799 23.5263 18.4799 23.3688C18.4799 21.9076 17.8696 20.3566 16.2399 19.8863V10.2088C16.2399 9.9004 15.9883 9.64884 15.6799 9.64884H14.5599V5.72884ZM11.7774 21.0588C11.878 21.282 11.959 21.7041 11.9349 22.1088C11.9108 22.5135 11.7818 22.916 11.6724 23.0713C11.4952 23.3207 11.3443 23.4235 11.1124 23.5088C10.9899 23.5548 10.8412 23.5898 10.6574 23.6138C10.6465 23.5307 10.6399 23.452 10.6399 23.3688C10.6399 22.496 10.8587 21.4898 11.7774 21.0588ZM16.2224 21.0588C17.1412 21.4898 17.3599 22.496 17.3599 23.3688C17.3599 23.452 17.3533 23.5307 17.3424 23.6138C17.1587 23.5898 17.0099 23.5548 16.8874 23.5088C16.6555 23.4235 16.5046 23.3207 16.3274 23.0713C16.218 22.916 16.089 22.5135 16.0649 22.1088C16.0408 21.7041 16.1218 21.282 16.2224 21.0588Z" fill="#6979F8"/>
</svg>
