<svg width="28" height="29" viewBox="0 0 28 29" fill="none" xmlns="http://www.w3.org/2000/svg">
<path d="M23.52 2.36884C23.1744 2.36884 22.925 2.51102 22.6712 2.67071C22.4197 2.83259 22.155 3.03384 21.8444 3.27009C21.2209 3.7404 20.4137 4.34634 19.2894 4.95665C19.2478 4.97852 19.2019 5.0004 19.1625 5.02227C19.0706 4.81009 18.8562 4.67665 18.6266 4.6854C18.4494 4.69196 18.2853 4.78165 18.1847 4.92821C18.0841 5.07477 18.06 5.26071 18.1191 5.42915L18.1475 5.51665C17.8194 5.66321 17.4628 5.8054 17.0887 5.94321L17.0866 5.93446C17.01 5.69602 16.7825 5.53634 16.5309 5.54509C16.3537 5.55165 16.1897 5.64352 16.0891 5.79009C15.9906 5.93665 15.9644 6.12259 16.0234 6.28884L16.0278 6.30196C15.6844 6.40696 15.33 6.50759 14.9516 6.60384C14.8706 6.37196 14.6475 6.21884 14.4025 6.22759C14.2472 6.23415 14.1028 6.30415 14 6.42227C13.8994 6.5404 13.8512 6.69352 13.8687 6.84884C13.5362 6.91446 13.195 6.97571 12.8406 7.03259L12.8187 6.96259C12.7422 6.72415 12.5147 6.56446 12.2631 6.5754C12.1078 6.57977 11.9612 6.64977 11.8606 6.7679C11.76 6.88602 11.7119 7.03915 11.7272 7.19446C11.3816 7.23384 11.0009 7.2579 10.6312 7.28852L10.6116 7.23165C10.535 6.99102 10.3097 6.83134 10.0559 6.84009C9.76937 6.85102 9.53531 7.08071 9.52 7.36727C8.97968 7.39352 8.42406 7.40884 7.84 7.40884C7.26031 7.40884 6.72437 7.61227 6.31531 7.94259C5.90625 8.27071 5.6 8.74977 5.6 9.30759C5.6 9.91134 5.91281 10.4801 6.41593 10.7995C6.77031 11.0248 7.28218 11.086 7.77875 11.1713C7.70218 12.2323 7.40906 12.9541 6.94968 13.4223C6.42468 13.9582 5.68968 14.2645 4.89343 14.4788C4.09718 14.6954 3.26375 14.8091 2.55281 15.0476C2.19625 15.1657 1.85937 15.3166 1.58156 15.5813C1.30375 15.8482 1.12 16.2551 1.12 16.6838C1.12 18.1735 2.03656 19.0157 2.695 19.8076C2.98593 20.1598 3.47375 20.9298 3.85875 21.586C4.23062 22.216 4.49312 22.6995 4.51937 22.7454C4.87593 24.3335 5.67 25.3004 6.46625 25.8232C7.27781 26.357 8.03687 26.4488 8.4 26.4488C9.09562 26.4488 9.72562 26.3066 10.3337 25.9916C10.9397 25.6766 11.5237 25.2041 12.2391 24.5479C12.2456 24.5413 12.25 24.537 12.2566 24.5304C13.4925 23.2945 13.8206 22.5682 14.0262 22.0148C14.2319 21.4635 14.3019 21.1376 15.3016 20.1379C16.73 18.7095 17.4016 18.4951 18.2437 18.2326C19.0859 17.9701 20.125 17.6682 21.7372 16.2813C24.9266 13.5404 26.8778 10.5216 26.8778 7.40884C26.8778 4.63946 24.9506 3.01852 24.885 2.96384C24.5175 2.59634 24.0384 2.36884 23.52 2.36884ZM23.52 3.48884C23.7278 3.48884 23.9006 3.55446 24.0647 3.71852C24.08 3.73821 24.0975 3.7579 24.115 3.77321C24.1609 3.8279 24.2069 3.88259 24.2528 3.95259C24.4737 4.29821 24.64 4.87134 24.64 5.62602C24.64 6.04384 24.3534 6.8904 23.8941 7.72165C23.4325 8.55071 22.8178 9.39509 22.2622 9.96165C21.8094 10.4232 21.385 10.5085 20.8578 10.5785C20.3306 10.6485 19.6656 10.6398 19.1012 11.1363C18.5281 11.6395 18.4122 12.3373 18.2503 12.906C18.0862 13.477 17.9178 13.9123 17.5875 14.1463C16.5506 14.877 14.7044 16.2638 13.2125 17.4407C12.6241 17.9045 11.7469 18.0423 10.7712 18.3398C9.79343 18.6373 8.70843 19.1907 8.07406 20.5316C7.53812 21.667 6.85562 21.9623 6.26718 22.0563C5.77062 22.1373 5.50375 22.041 5.39 22.0082C5.29593 21.8398 5.14062 21.5554 4.82562 21.0173C4.4275 20.3435 3.95718 19.5757 3.55687 19.0923C2.83062 18.2173 2.24 17.7316 2.24 16.6838C2.24 16.5198 2.26625 16.4782 2.35593 16.3929C2.44562 16.3054 2.63375 16.2004 2.90718 16.1085C3.45625 15.927 4.30281 15.8001 5.18656 15.5616C6.07031 15.3232 7.01531 14.9579 7.75031 14.2076C8.48531 13.4573 8.96 12.3329 8.96 10.7688C8.96 10.4779 8.73906 10.2373 8.45031 10.211C7.74156 10.1498 7.25812 10.0076 7.0175 9.85446C6.77468 9.70134 6.72 9.60727 6.72 9.30759C6.72 9.17196 6.80968 8.98165 7.0175 8.8154C7.22312 8.64696 7.52937 8.52884 7.84 8.52884C8.53781 8.52884 9.205 8.50915 9.84375 8.47634L10.1084 9.26602C10.2069 9.55915 10.5241 9.71884 10.8172 9.6204C11.1103 9.52196 11.27 9.20477 11.1716 8.91165L10.9987 8.39321C11.3706 8.3604 11.7228 8.31665 12.075 8.27509L12.3156 8.99915C12.3747 9.19384 12.5344 9.34259 12.7334 9.38415C12.9347 9.4279 13.1403 9.3579 13.2759 9.20477C13.4094 9.04946 13.4487 8.83509 13.3787 8.64259L13.1994 8.10884C13.5472 8.04977 13.8841 7.98634 14.21 7.91852L14.455 8.65134C14.5141 8.84821 14.6737 8.99696 14.8728 9.03852C15.0741 9.08227 15.2797 9.01227 15.4153 8.85915C15.5487 8.70384 15.5881 8.48946 15.5159 8.29915L15.3059 7.66696C15.6822 7.57071 16.0366 7.47009 16.38 7.36509L16.5834 7.96884C16.6425 8.16571 16.8022 8.31446 17.0012 8.35602C17.2025 8.39977 17.4081 8.32977 17.5437 8.17665C17.6772 8.02134 17.7166 7.80696 17.6466 7.61665L17.4409 7.00634C17.815 6.86852 18.1716 6.72852 18.5041 6.58415L18.6791 7.10915C18.7753 7.40227 19.0925 7.56196 19.3878 7.46352C19.6809 7.36509 19.8384 7.0479 19.74 6.75477L19.5212 6.09634C19.6219 6.04384 19.7269 5.99352 19.8231 5.94102C21.0241 5.29134 21.8947 4.63727 22.5203 4.16259C22.8331 3.92634 23.0869 3.73384 23.2706 3.62009C23.4544 3.50415 23.5616 3.48884 23.52 3.48884ZM25.6484 6.41134C25.7162 6.71977 25.7578 7.05009 25.7578 7.40884C25.7578 10.047 24.0581 12.8098 21.0087 15.4326C19.5037 16.7276 18.7841 16.8916 17.9112 17.1629C17.0384 17.4341 16.0344 17.8213 14.5097 19.346C13.4247 20.431 13.1731 21.1004 12.9762 21.6232C12.7816 22.1438 12.6241 22.577 11.4734 23.7276C10.7909 24.3554 10.2725 24.7601 9.81531 24.9985C9.35593 25.237 8.95781 25.3288 8.4 25.3288C8.26218 25.3288 7.66062 25.2698 7.07875 24.887C6.62156 24.5851 6.1425 24.0885 5.81656 23.2048C6.00906 23.2091 6.22125 23.2004 6.44656 23.1632C7.32593 23.021 8.41312 22.437 9.08687 21.0085C9.5725 19.9804 10.2353 19.6741 11.095 19.4116C11.9569 19.1491 13.0112 19.0266 13.9059 18.3201C15.3825 17.1563 17.2287 15.7695 18.2328 15.0607C18.9241 14.5729 19.1537 13.8182 19.3266 13.2123C19.4994 12.6085 19.6525 12.1426 19.8428 11.9763C20.0397 11.8013 20.4072 11.7663 21.0022 11.6876C21.5994 11.611 22.3891 11.4316 23.0628 10.7448C23.7125 10.082 24.3644 9.18071 24.8741 8.26415C25.2241 7.62977 25.5041 7.00634 25.6484 6.41134Z" fill="#6979F8"/>
</svg>
