<svg width="29" height="29" viewBox="0 0 29 29" fill="none" xmlns="http://www.w3.org/2000/svg">
<path d="M12.4595 21.3756H16.6133" stroke="#6979F8" stroke-miterlimit="10"/>
<path d="M4.02197 21.3756H7.52678" stroke="#6979F8" stroke-miterlimit="10" stroke-linecap="round" stroke-linejoin="round"/>
<path d="M21.5028 21.3757H22.1518C23.5797 21.3757 24.748 20.2074 24.748 18.7795V13.9766H15.0557V5.49585H6.61816" stroke="#6979F8" stroke-miterlimit="10" stroke-linecap="round" stroke-linejoin="round"/>
<path d="M14.623 6.7074H19.599L24.7481 14.0199" stroke="#6979F8" stroke-miterlimit="10" stroke-linejoin="round"/>
<path d="M12.4593 21.0295C12.4593 22.3708 11.3776 23.4958 9.99296 23.4958C8.60834 23.4958 7.52661 22.4141 7.52661 21.0295C7.52661 19.6881 8.60834 18.5631 9.99296 18.5631C11.3776 18.5631 12.4593 19.6881 12.4593 21.0295Z" stroke="#6979F8" stroke-miterlimit="10" stroke-linejoin="round"/>
<path d="M21.5028 21.0295C21.5028 22.3708 20.421 23.4958 19.0364 23.4958C17.6951 23.4958 16.5701 22.4141 16.5701 21.0295C16.5701 19.6881 17.6518 18.5631 19.0364 18.5631C20.421 18.5631 21.5028 19.6881 21.5028 21.0295Z" stroke="#6979F8" stroke-miterlimit="10" stroke-linejoin="round"/>
<path d="M6.31519 8.82758H11.7238" stroke="#6979F8" stroke-miterlimit="10" stroke-linecap="round" stroke-linejoin="round"/>
<path d="M4.97388 12.2459H10.3825" stroke="#6979F8" stroke-miterlimit="10" stroke-linecap="round" stroke-linejoin="round"/>
<path d="M4.19507 15.6641H9.60372" stroke="#6979F8" stroke-miterlimit="10" stroke-linecap="round" stroke-linejoin="round"/>
</svg>
