<svg width="28" height="29" viewBox="0 0 28 29" fill="none" xmlns="http://www.w3.org/2000/svg">
<g clip-path="url(#clip0_2511_735)">
<path d="M6.65002 0.688843C6.38314 0.739155 6.19064 0.975405 6.19502 1.24884V28.1288C6.19502 28.4373 6.44658 28.6888 6.75502 28.6888H11.935C12.2194 28.691 12.46 28.481 12.495 28.1988L14 14.6363L15.505 28.1988C15.54 28.481 15.7806 28.691 16.065 28.6888H21.245C21.5535 28.6888 21.805 28.4373 21.805 28.1288V1.24884C21.805 0.940405 21.5535 0.688843 21.245 0.688843H6.75502C6.73752 0.688843 6.72002 0.688843 6.70252 0.688843C6.68502 0.688843 6.66752 0.688843 6.65002 0.688843ZM7.31502 1.80884H20.685V2.92884H17.465C17.3906 2.91353 17.3119 2.91353 17.2375 2.92884H10.745C10.6706 2.91353 10.5919 2.91353 10.5175 2.92884H7.31502V1.80884ZM7.31502 4.04884H10.0625C9.93564 5.88853 9.19189 6.81384 8.47002 7.33884C8.02596 7.66259 7.61252 7.80478 7.31502 7.88134V4.04884ZM11.165 4.04884H16.835C16.9772 6.21447 17.9003 7.52916 18.865 8.23134C19.5825 8.75416 20.2978 8.93791 20.685 9.01884V27.5688H16.5725L14.56 9.45634C14.5556 9.15009 14.3063 8.90509 14 8.90509C13.6938 8.90509 13.4444 9.15009 13.44 9.45634L11.4275 27.5688H7.31502V9.01884C7.70221 8.93791 8.41752 8.75416 9.13502 8.23134C10.0997 7.52916 11.0228 6.21447 11.165 4.04884ZM17.9375 4.04884H20.685V7.88134C20.3875 7.80478 19.9741 7.66259 19.53 7.33884C18.8081 6.81384 18.0644 5.88853 17.9375 4.04884Z" fill="#6979F8"/>
</g>
<defs>
<clipPath id="clip0_2511_735">
<rect width="28" height="28" fill="white" transform="translate(0 0.688843)"/>
</clipPath>
</defs>
</svg>
