<svg width="29" height="29" viewBox="0 0 29 29" fill="none" xmlns="http://www.w3.org/2000/svg">
<path d="M18.1447 18.4069V5.40686H3.14465V18.4069H18.1447ZM18.1447 18.4069H25.1447V13.4069L22.1447 10.4069H18.1447V18.4069ZM10.1447 20.9069C10.1447 22.2876 9.02537 23.4069 7.64465 23.4069C6.26394 23.4069 5.14465 22.2876 5.14465 20.9069C5.14465 19.5261 6.26394 18.4069 7.64465 18.4069C9.02537 18.4069 10.1447 19.5261 10.1447 20.9069ZM23.1447 20.9069C23.1447 22.2876 22.0254 23.4069 20.6447 23.4069C19.2639 23.4069 18.1447 22.2876 18.1447 20.9069C18.1447 19.5261 19.2639 18.4069 20.6447 18.4069C22.0254 18.4069 23.1447 19.5261 23.1447 20.9069Z" stroke="#6979F8" stroke-linecap="round" stroke-linejoin="round"/>
</svg>
