<svg width="29" height="29" viewBox="0 0 29 29" fill="none" xmlns="http://www.w3.org/2000/svg">
<path d="M25.1447 5.22392C24.187 5.8994 23.1268 6.41603 22.0047 6.75392C21.4024 6.06143 20.602 5.57061 19.7117 5.34785C18.8214 5.12508 17.8841 5.18112 17.0267 5.50838C16.1693 5.83563 15.4331 6.41832 14.9176 7.17764C14.4022 7.93695 14.1324 8.83626 14.1447 9.75392V10.7539C12.3873 10.7995 10.6459 10.4097 9.07566 9.61937C7.5054 8.829 6.15497 7.66256 5.14465 6.22392C5.14465 6.22392 1.14465 15.2239 10.1447 19.2239C8.08518 20.6219 5.63181 21.3229 3.14465 21.2239C12.1447 26.2239 23.1447 21.2239 23.1447 9.72392C23.1437 9.44538 23.117 9.16752 23.0647 8.89392C24.0853 7.88742 24.8055 6.61664 25.1447 5.22392V5.22392Z" stroke="#6979F8" stroke-linecap="round" stroke-linejoin="round"/>
</svg>
