<svg width="29" height="29" viewBox="0 0 29 29" fill="none" xmlns="http://www.w3.org/2000/svg">
<path d="M18.15 18.4935L14.15 14.4935M14.15 14.4935L10.15 18.4935M14.15 14.4935V23.4935M22.54 20.8835C23.5153 20.3518 24.2858 19.5104 24.7299 18.4921C25.1739 17.4739 25.2662 16.3367 24.9922 15.2602C24.7182 14.1837 24.0935 13.229 23.2167 12.547C22.3398 11.8649 21.2608 11.4942 20.15 11.4935H18.89C18.5873 10.3228 18.0231 9.23585 17.2399 8.31451C16.4567 7.39317 15.4748 6.66136 14.3681 6.17412C13.2613 5.68688 12.0585 5.45687 10.8501 5.5014C9.64167 5.54592 8.45905 5.86381 7.39116 6.43118C6.32327 6.99854 5.3979 7.80062 4.68461 8.7771C3.97132 9.75357 3.48867 10.8791 3.27296 12.0689C3.05725 13.2588 3.11409 14.482 3.4392 15.6468C3.76431 16.8115 4.34923 17.8874 5.14999 18.7935" stroke="#6979F8" stroke-linecap="round" stroke-linejoin="round"/>
</svg>
