<svg width="29" height="29" viewBox="0 0 29 29" fill="none" xmlns="http://www.w3.org/2000/svg">
<path d="M18.8882 23.2139V21.2139C18.8882 20.153 18.4668 19.1356 17.7166 18.3854C16.9665 17.6353 15.949 17.2139 14.8882 17.2139H7.88818C6.82732 17.2139 5.8099 17.6353 5.05976 18.3854C4.30961 19.1356 3.88818 20.153 3.88818 21.2139V23.2139M25.8882 13.2139H19.8882M15.3882 9.21387C15.3882 11.423 13.5973 13.2139 11.3882 13.2139C9.17904 13.2139 7.38818 11.423 7.38818 9.21387C7.38818 7.00473 9.17904 5.21387 11.3882 5.21387C13.5973 5.21387 15.3882 7.00473 15.3882 9.21387Z" stroke="#6979F8" stroke-linecap="round" stroke-linejoin="round"/>
</svg>
