<svg width="29" height="29" viewBox="0 0 29 29" fill="none" xmlns="http://www.w3.org/2000/svg">
<path d="M19.8882 23.2139V21.2139C19.8882 20.153 19.4668 19.1356 18.7166 18.3854C17.9665 17.6353 16.949 17.2139 15.8882 17.2139H7.88818C6.82732 17.2139 5.8099 17.6353 5.05976 18.3854C4.30961 19.1356 3.88818 20.153 3.88818 21.2139V23.2139M25.8882 23.2139V21.2139C25.8875 20.3276 25.5925 19.4666 25.0495 18.7662C24.5066 18.0657 23.7463 17.5654 22.8882 17.3439M18.8882 5.34387C19.7486 5.56417 20.5112 6.06457 21.0558 6.76618C21.6004 7.46779 21.896 8.3307 21.896 9.21887C21.896 10.107 21.6004 10.9699 21.0558 11.6716C20.5112 12.3732 19.7486 12.8736 18.8882 13.0939M15.8882 9.21387C15.8882 11.423 14.0973 13.2139 11.8882 13.2139C9.67904 13.2139 7.88818 11.423 7.88818 9.21387C7.88818 7.00473 9.67904 5.21387 11.8882 5.21387C14.0973 5.21387 15.8882 7.00473 15.8882 9.21387Z" stroke="#6979F8" stroke-linecap="round" stroke-linejoin="round"/>
</svg>
