<svg width="28" height="29" viewBox="0 0 28 29" fill="none" xmlns="http://www.w3.org/2000/svg">
<path d="M8.49405 2.36884L10.29 18.0051C10.36 18.611 9.99468 19.1798 9.38874 19.3766L4.38374 21.0085C3.11062 21.4263 2.23999 22.6032 2.23999 23.931V24.491H2.35812C2.63593 25.9151 3.86312 27.0088 5.37249 27.0088H19.8712C21.5316 27.0088 22.96 25.6591 22.96 23.9726V3.71196L22.5159 3.62009C22.5159 3.62009 16.6162 2.36884 11.6528 2.36884H8.49405ZM9.74968 3.48884H11.6528C16.1262 3.48884 21.175 4.50165 21.84 4.63727V23.9726C21.84 25.0182 20.9212 25.8888 19.8712 25.8888H5.37249C4.26124 25.8888 3.35999 25.0095 3.35999 23.931C3.35999 23.091 3.90468 22.3451 4.73155 22.0738L9.73655 20.442C10.8303 20.0854 11.5325 19.0113 11.4034 17.876L9.74968 3.48884Z" fill="#6979F8"/>
</svg>
