<svg width="28" height="29" viewBox="0 0 28 29" fill="none" xmlns="http://www.w3.org/2000/svg">
<path d="M13.9999 1.80884C12.1428 1.80884 10.4649 2.40384 10.4649 2.40384C10.4103 2.41259 10.3578 2.43009 10.3074 2.45634L6.56245 3.50634C6.40932 3.55009 6.28026 3.65728 6.21026 3.79946C6.14026 3.94384 6.1337 4.11009 6.19495 4.25884C6.19495 4.25884 7.45057 7.72165 6.77245 10.0513C6.2212 11.9457 4.12995 13.6913 4.12995 13.6913C3.99651 13.7985 3.91995 13.9582 3.91995 14.1288V24.7688C3.91776 24.9985 4.05557 25.2085 4.26995 25.2938L9.86995 27.5338C9.98807 27.582 10.1171 27.5863 10.2374 27.5513L13.1424 26.7288C13.2168 26.7201 13.2868 26.696 13.3524 26.6588L17.8149 27.5513C17.9199 27.5754 18.0293 27.5688 18.1299 27.5338L23.7299 25.2938C23.9443 25.2085 24.0821 24.9985 24.0799 24.7688V14.1288C24.0799 13.9582 24.0034 13.7985 23.8699 13.6913C23.8699 13.6913 21.7787 11.9457 21.2274 10.0513C20.5493 7.72165 21.8049 4.25884 21.8049 4.25884C21.8662 4.11009 21.8596 3.94384 21.7896 3.79946C21.7196 3.65728 21.5906 3.55009 21.4374 3.50634L17.6749 2.43884L17.6224 2.42134C17.6049 2.41478 17.5874 2.40821 17.5699 2.40384H17.5349C17.5349 2.40384 17.4299 2.38634 17.3774 2.36884C17.0209 2.2529 15.6165 1.80884 13.9999 1.80884ZM13.9999 2.92884C15.004 2.92884 15.9534 3.12571 16.5549 3.27884L13.9124 9.21134L11.4274 3.27884C12.029 3.12571 12.9849 2.92884 13.9999 2.92884ZM10.3424 3.61134L13.2824 10.6113L11.8124 13.9013C11.7796 13.9735 11.7621 14.0501 11.7599 14.1288V25.8888C11.7578 25.9129 11.7578 25.9348 11.7599 25.9588L10.1149 26.4138L5.03995 24.3838V14.3738C5.36807 14.1092 7.21213 12.5823 7.85745 10.3663C8.59245 7.83759 7.70651 5.21478 7.41995 4.43384L10.3424 3.61134ZM17.6574 3.61134L20.5799 4.43384C20.2934 5.21478 19.4074 7.83759 20.1424 10.3663C20.7878 12.5823 22.6318 14.1092 22.9599 14.3738V24.3838L17.8499 26.4313L12.8799 25.4338V14.2338L17.6574 3.61134ZM15.1199 14.6888C14.8115 14.6888 14.5599 14.9404 14.5599 15.2488C14.5599 15.5573 14.8115 15.8088 15.1199 15.8088C15.4284 15.8088 15.6799 15.5573 15.6799 15.2488C15.6799 14.9404 15.4284 14.6888 15.1199 14.6888ZM15.1199 17.4888C14.8115 17.4888 14.5599 17.7404 14.5599 18.0488C14.5599 18.3573 14.8115 18.6088 15.1199 18.6088C15.4284 18.6088 15.6799 18.3573 15.6799 18.0488C15.6799 17.7404 15.4284 17.4888 15.1199 17.4888ZM6.00245 20.2888C5.69401 20.3326 5.47745 20.6192 5.5212 20.9276C5.56495 21.236 5.85151 21.4526 6.15995 21.4088H9.51995C9.7212 21.411 9.90932 21.306 10.0121 21.131C10.1128 20.956 10.1128 20.7417 10.0121 20.5667C9.90932 20.3917 9.7212 20.2867 9.51995 20.2888H6.15995C6.14245 20.2888 6.12495 20.2888 6.10745 20.2888C6.08995 20.2888 6.07245 20.2888 6.05495 20.2888C6.03745 20.2888 6.01995 20.2888 6.00245 20.2888ZM15.1199 20.2888C14.8115 20.2888 14.5599 20.5404 14.5599 20.8488C14.5599 21.1573 14.8115 21.4088 15.1199 21.4088C15.4284 21.4088 15.6799 21.1573 15.6799 20.8488C15.6799 20.5404 15.4284 20.2888 15.1199 20.2888ZM17.7624 20.2888C17.454 20.3326 17.2374 20.6192 17.2812 20.9276C17.3249 21.236 17.6115 21.4526 17.9199 21.4088H21.2799C21.4812 21.411 21.6693 21.306 21.7721 21.131C21.8728 20.956 21.8728 20.7417 21.7721 20.5667C21.6693 20.3917 21.4812 20.2867 21.2799 20.2888H17.9199C17.9024 20.2888 17.8849 20.2888 17.8674 20.2888C17.8499 20.2888 17.8324 20.2888 17.8149 20.2888C17.7974 20.2888 17.7799 20.2888 17.7624 20.2888ZM15.1199 23.0888C14.8115 23.0888 14.5599 23.3404 14.5599 23.6488C14.5599 23.9573 14.8115 24.2088 15.1199 24.2088C15.4284 24.2088 15.6799 23.9573 15.6799 23.6488C15.6799 23.3404 15.4284 23.0888 15.1199 23.0888Z" fill="#6979F8"/>
</svg>
