<svg width="29" height="29" viewBox="0 0 29 29" fill="none" xmlns="http://www.w3.org/2000/svg">
<path d="M13.045 7.40686H16.385C16.9154 7.40686 17.4242 7.61757 17.7992 7.99265C18.1743 8.36772 18.385 8.87643 18.385 9.40686V12.7469L19.385 13.7469L25.385 9.40686V19.4069M3.38501 3.40686L25.385 25.4069M18.385 18.4069V19.4069C18.385 19.9373 18.1743 20.446 17.7992 20.8211C17.4242 21.1961 16.9154 21.4069 16.385 21.4069H5.38501C4.85458 21.4069 4.34587 21.1961 3.9708 20.8211C3.59572 20.446 3.38501 19.9373 3.38501 19.4069V9.40686C3.38501 8.87643 3.59572 8.36772 3.9708 7.99265C4.34587 7.61757 4.85458 7.40686 5.38501 7.40686H7.38501L18.385 18.4069Z" stroke="#6979F8" stroke-linecap="round" stroke-linejoin="round"/>
</svg>
