<svg width="28" height="29" viewBox="0 0 28 29" fill="none" xmlns="http://www.w3.org/2000/svg">
<path d="M8.31248 1.80884C8.06748 1.84384 7.87498 2.03634 7.83998 2.28134L7.27998 6.20134C7.27123 6.27791 7.27561 6.35447 7.29748 6.42884C4.89342 8.38009 3.35999 11.3551 3.35999 14.6888C3.35999 18.0138 4.88686 20.9801 7.27998 22.9313C7.26248 23.0123 7.26248 23.0954 7.27998 23.1763L7.83998 27.0963C7.88811 27.4048 8.17905 27.617 8.48748 27.5688C8.79592 27.5207 9.00811 27.2298 8.95998 26.9213L8.50498 23.7888C10.1106 24.7601 11.9897 25.3288 14 25.3288C16.0103 25.3288 17.8894 24.7601 19.495 23.7888L19.04 26.9213C18.9919 27.2298 19.204 27.5207 19.5125 27.5688C19.8209 27.617 20.1119 27.4048 20.16 27.0963L20.72 23.1763C20.7375 23.0954 20.7375 23.0123 20.72 22.9313C22.6997 21.317 24.08 19.0004 24.5 16.3688H25.2C25.5084 16.3688 25.76 16.1173 25.76 15.8088V13.5688C25.76 13.2604 25.5084 13.0088 25.2 13.0088H24.5C24.0778 10.3685 22.6931 8.04322 20.7025 6.42884C20.7244 6.35447 20.7287 6.27791 20.72 6.20134L20.16 2.28134C20.1381 2.13259 20.0572 1.99697 19.9369 1.90947C19.8144 1.81978 19.6612 1.78478 19.5125 1.80884C19.3637 1.83072 19.2281 1.91166 19.1406 2.03197C19.0509 2.15447 19.0159 2.30759 19.04 2.45634L19.495 5.58884C17.8894 4.61759 16.0103 4.04884 14 4.04884C11.9897 4.04884 10.1106 4.61759 8.50498 5.58884L8.95998 2.45634C8.99061 2.27697 8.93373 2.09322 8.80467 1.96416C8.67561 1.83509 8.49186 1.77822 8.31248 1.80884ZM14 5.16884C19.2653 5.16884 23.52 9.42353 23.52 14.6888C23.52 19.9542 19.2653 24.2088 14 24.2088C8.73467 24.2088 4.47999 19.9542 4.47999 14.6888C4.47999 9.42353 8.73467 5.16884 14 5.16884ZM14 6.28884C9.36686 6.28884 5.59999 10.0557 5.59999 14.6888C5.59999 19.322 9.36686 23.0888 14 23.0888C18.6331 23.0888 22.4 19.322 22.4 14.6888C22.4 10.0557 18.6331 6.28884 14 6.28884ZM13.44 7.42634C13.4487 7.72822 13.6959 7.96884 14 7.96884C14.304 7.96884 14.5512 7.72822 14.56 7.42634C18.1431 7.69541 20.9934 10.5457 21.2625 14.1288C20.9606 14.1376 20.72 14.3848 20.72 14.6888C20.72 14.9929 20.9606 15.2401 21.2625 15.2488C20.9934 18.832 18.1431 21.6823 14.56 21.9513C14.5512 21.6495 14.304 21.4088 14 21.4088C13.6959 21.4088 13.4487 21.6495 13.44 21.9513C9.85686 21.6823 7.00655 18.832 6.73749 15.2488C7.03936 15.2401 7.27998 14.9929 7.27998 14.6888C7.27998 14.3848 7.03936 14.1376 6.73749 14.1288C7.00655 10.5457 9.85686 7.69541 13.44 7.42634ZM17.57 10.4888C17.4453 10.502 17.3272 10.5588 17.2375 10.6463L14.28 13.6038C14.1903 13.5798 14.0962 13.5688 14 13.5688C13.3809 13.5688 12.88 14.0698 12.88 14.6888C12.88 15.3079 13.3809 15.8088 14 15.8088C14.0962 15.8088 14.1903 15.7979 14.28 15.7738L15.8375 17.3313C16.0606 17.5545 16.4194 17.5545 16.6425 17.3313C16.8656 17.1082 16.8656 16.7495 16.6425 16.5263L15.085 14.9688C15.109 14.8792 15.12 14.7851 15.12 14.6888C15.12 14.5926 15.109 14.4985 15.085 14.4088L18.0425 11.4513C18.224 11.2829 18.2722 11.016 18.1628 10.7951C18.0556 10.572 17.8128 10.4495 17.57 10.4888Z" fill="#6979F8"/>
</svg>
