<svg width="29" height="29" viewBox="0 0 29 29" fill="none" xmlns="http://www.w3.org/2000/svg">
<path d="M14.385 11.4069V14.4069L15.885 15.9069M18.895 19.7569L18.545 23.5869C18.5 24.0855 18.2695 24.5491 17.8992 24.8861C17.5289 25.2231 17.0457 25.4089 16.545 25.4069H12.215C11.7143 25.4089 11.2311 25.2231 10.8608 24.8861C10.4905 24.5491 10.2601 24.0855 10.215 23.5869L9.86501 19.7569M9.87501 9.05688L10.225 5.22688C10.2699 4.72995 10.4989 4.26776 10.8671 3.93103C11.2353 3.5943 11.7161 3.40735 12.215 3.40688H16.565C17.0657 3.40485 17.5489 3.59067 17.9192 3.92765C18.2895 4.26462 18.52 4.72823 18.565 5.22688L18.915 9.05688M21.385 14.4069C21.385 18.2729 18.251 21.4069 14.385 21.4069C10.519 21.4069 7.38501 18.2729 7.38501 14.4069C7.38501 10.5409 10.519 7.40688 14.385 7.40688C18.251 7.40688 21.385 10.5409 21.385 14.4069Z" stroke="#6979F8" stroke-linecap="round" stroke-linejoin="round"/>
</svg>
