<svg width="28" height="29" viewBox="0 0 28 29" fill="none" xmlns="http://www.w3.org/2000/svg">
<g clip-path="url(#clip0_2511_739)">
<path d="M10.0275 0.671353C10.0034 0.675728 9.97937 0.68229 9.9575 0.688853C9.69718 0.747916 9.51343 0.981978 9.52 1.24885V4.34635C8.51156 4.73791 7.9625 5.37885 7.9625 5.37885L7.84 5.53635V5.72885C7.84 7.06104 8.64937 8.16354 9.3975 8.94885C9.86125 9.43666 10.0384 9.52198 10.325 9.73635C9.66437 10.2307 8.00187 11.5279 6.02 13.7788C3.59406 16.5329 1.12 20.3588 1.12 24.6638V24.8388L1.225 24.9788C1.225 24.9788 1.34531 25.1495 1.5575 25.3288C1.76968 25.5082 2.09125 25.7248 2.555 25.9413C3.45406 26.3613 4.9175 26.7398 7.105 26.7638C7.23187 26.871 7.66281 27.2495 8.6975 27.7088C9.87 28.2273 11.6244 28.7413 14 28.7413C16.3756 28.7413 18.13 28.2273 19.3025 27.7088C20.3372 27.2495 20.7681 26.871 20.895 26.7638C23.0825 26.7398 24.5459 26.3613 25.445 25.9413C25.9087 25.7248 26.2303 25.5082 26.4425 25.3288C26.6547 25.1495 26.775 24.9788 26.775 24.9788L26.88 24.8388V24.6638C26.88 20.3588 24.4059 16.5373 21.98 13.7963C19.9959 11.5564 18.3356 10.2789 17.675 9.78885C17.9616 9.57448 18.1387 9.48916 18.6025 9.00135C19.3506 8.21604 20.16 7.11354 20.16 5.78135V5.60635L20.055 5.44885C20.055 5.44885 19.5103 4.79479 18.48 4.39885V1.24885C18.4844 1.07604 18.4078 0.911978 18.2744 0.802603C18.1431 0.693228 17.9659 0.651665 17.7975 0.688853C17.5372 0.747916 17.3534 0.981978 17.36 1.24885V4.11885C17.2156 4.10573 17.0603 4.10135 16.905 4.10135C15.3147 4.10135 14.4462 4.83635 14 5.27385C13.5559 4.82541 12.6744 4.04885 11.095 4.04885C10.9375 4.04885 10.7866 4.06854 10.64 4.08385V1.24885C10.6466 1.08698 10.5809 0.931665 10.465 0.82229C10.3469 0.710728 10.1872 0.65604 10.0275 0.671353ZM11.095 5.16885C12.5956 5.16885 13.5625 6.35885 13.5625 6.35885L14 6.90135L14.4375 6.35885C14.4375 6.35885 15.3278 5.22135 16.905 5.22135C18.2722 5.22135 18.8147 5.77479 18.9875 5.97385C18.9087 6.7701 18.4012 7.59698 17.7975 8.23135C17.1456 8.91604 16.485 9.35135 16.485 9.35135L15.8025 9.80635L16.485 10.2789C16.485 10.2789 18.8059 11.9129 21.14 14.5488C23.4303 17.1345 25.6419 20.6651 25.725 24.4538C25.7119 24.4648 25.7228 24.4582 25.7075 24.4713C25.5697 24.5873 25.3312 24.7513 24.955 24.9263C24.2681 25.2479 23.1087 25.5848 21.2625 25.6438C21.0897 21.5051 18.97 17.7688 18.97 17.7688C18.8519 17.5501 18.6003 17.4363 18.3575 17.4888C18.1781 17.526 18.0294 17.6463 17.955 17.8126C17.8828 17.981 17.8959 18.1735 17.99 18.3288C17.99 18.3288 20.0856 22.0892 20.16 25.9588C19.9828 26.0988 19.6219 26.3504 18.8475 26.6938C17.8062 27.1554 16.2159 27.6213 14 27.6213C11.7841 27.6213 10.1937 27.1554 9.1525 26.6938C8.37812 26.3504 8.01718 26.0988 7.84 25.9588C7.91437 22.0892 10.01 18.3288 10.01 18.3288C10.1259 18.1385 10.1194 17.8957 9.99031 17.712C9.85906 17.5304 9.63375 17.4429 9.415 17.4888C9.25093 17.5195 9.11093 17.6223 9.03 17.7688C9.03 17.7688 6.91031 21.5051 6.7375 25.6438C4.89125 25.5848 3.73187 25.2479 3.045 24.9263C2.66875 24.7513 2.43031 24.5873 2.2925 24.4713C2.27718 24.4582 2.28812 24.4648 2.275 24.4538C2.35812 20.6629 4.56968 17.1148 6.86 14.5138C9.19406 11.8648 11.515 10.2264 11.515 10.2264L12.1975 9.75385L11.515 9.29885C11.515 9.29885 10.8544 8.86354 10.2025 8.17885C9.59875 7.54448 9.09125 6.7176 9.0125 5.92135C9.15906 5.76385 9.53312 5.41823 10.255 5.25635C10.2725 5.25198 10.29 5.24541 10.3075 5.23885C10.5372 5.19073 10.7931 5.16885 11.095 5.16885Z" fill="#6979F8"/>
</g>
<defs>
<clipPath id="clip0_2511_739">
<rect width="28" height="28" fill="white" transform="translate(0 0.688843)"/>
</clipPath>
</defs>
</svg>
