<svg width="29" height="29" viewBox="0 0 29 29" fill="none" xmlns="http://www.w3.org/2000/svg">
<path d="M24.3586 14.3903C24.443 14.6014 24.3164 14.7702 24.1053 14.7702H4.6908C4.43757 14.7702 4.35317 14.6014 4.39537 14.3903L6.80108 7.84848C6.88549 7.63745 7.13873 7.46863 7.34976 7.46863H21.1509C21.362 7.46863 21.6574 7.63745 21.7418 7.84848L24.3586 14.3903Z" stroke="#6979F8" stroke-miterlimit="10" stroke-linecap="round" stroke-linejoin="round"/>
<path d="M16.8039 10.8875C16.9727 12.0692 15.8754 13.0822 14.356 13.0822C12.8366 13.0822 11.7392 12.027 11.8236 10.8875C11.9503 9.83233 13.0476 9.07263 14.2716 9.07263C15.5377 9.07263 16.6773 9.87454 16.8039 10.8875Z" stroke="#6979F8" stroke-miterlimit="10" stroke-linecap="round" stroke-linejoin="round"/>
<path d="M9.59182 11.0504C9.65327 11.4805 9.25384 11.8492 8.70077 11.8492C8.14771 11.8492 7.74828 11.4652 7.779 11.0504C7.82509 10.6663 8.22452 10.3898 8.67005 10.3898C9.13093 10.3898 9.54573 10.6817 9.59182 11.0504Z" stroke="#6979F8" stroke-miterlimit="10" stroke-linecap="round" stroke-linejoin="round"/>
<path d="M20.8565 11.0504C20.9179 11.4805 20.5185 11.8492 19.9654 11.8492C19.4124 11.8492 19.0129 11.4652 19.0437 11.0504C19.0897 10.6663 19.4892 10.3898 19.9347 10.3898C20.3956 10.3898 20.8104 10.6817 20.8565 11.0504Z" stroke="#6979F8" stroke-miterlimit="10" stroke-linecap="round" stroke-linejoin="round"/>
<path d="M4.94385 17.0071H23.8097" stroke="#6979F8" stroke-miterlimit="10" stroke-linecap="round" stroke-linejoin="round"/>
<path d="M4.94385 19.244H23.8097" stroke="#6979F8" stroke-miterlimit="10" stroke-linecap="round" stroke-linejoin="round"/>
<path d="M4.94385 21.5231H23.8097" stroke="#6979F8" stroke-miterlimit="10" stroke-linecap="round" stroke-linejoin="round"/>
</svg>
