<svg width="29" height="29" viewBox="0 0 29 29" fill="none" xmlns="http://www.w3.org/2000/svg">
<path d="M6.72465 13.9542C8.70122 12.3079 11.1923 11.4063 13.7647 11.4063C16.337 11.4063 18.8281 12.3079 20.8047 13.9542M3.14465 10.4042C6.06708 7.82818 9.82895 6.40686 13.7247 6.40686C17.6204 6.40686 21.3822 7.82818 24.3047 10.4042M10.2547 17.5142C11.2699 16.793 12.4843 16.4055 13.7297 16.4055C14.975 16.4055 16.1895 16.793 17.2047 17.5142M14.7247 22.4042C14.7247 22.9565 14.277 23.4042 13.7247 23.4042C13.1724 23.4042 12.7247 22.9565 12.7247 22.4042C12.7247 21.8519 13.1724 21.4042 13.7247 21.4042C14.277 21.4042 14.7247 21.8519 14.7247 22.4042Z" stroke="#6979F8" stroke-linecap="round" stroke-linejoin="round"/>
</svg>
