<svg width="28" height="29" viewBox="0 0 28 29" fill="none" xmlns="http://www.w3.org/2000/svg">
<g clip-path="url(#clip0_2511_740)">
<path d="M1.6625 1.24884C1.42406 1.29259 1.2425 1.4829 1.2075 1.72134C1.2075 1.72134 0.864063 3.7579 0.9625 5.99134C0.730625 8.08697 0 14.4263 0 20.1488C0 21.9295 0.172813 23.1326 0.2975 23.7888C0.146563 23.8982 0.0240625 24.1388 0.0175 24.2788C0.013125 24.3707 0.0240625 24.4079 0.035 24.4538V24.5588L0.1925 27.2363V27.2538C0.1925 27.2692 0.181563 27.466 0.315 27.6738C0.455 27.8904 0.7875 28.0763 1.12 28.0763C1.31031 28.0763 2.31 28.1113 2.31 28.1113C2.33844 28.1135 2.36906 28.1135 2.3975 28.1113C2.3975 28.1113 2.50688 28.0982 2.6425 28.0413C2.71031 28.0129 2.80875 27.9779 2.905 27.8838C2.9925 27.7963 3.06688 27.6235 3.08 27.4463C3.08 27.512 3.06031 27.5032 3.0975 27.6213C3.14125 27.757 3.25719 27.932 3.4125 28.0238C3.56781 28.1157 3.7275 28.1288 3.8675 28.1288H6.3875C6.42906 28.1267 6.47063 28.1223 6.51 28.1113C6.51 28.1113 6.63906 28.0895 6.79 28.0063C6.94094 27.9232 7.21 27.6935 7.21 27.3238C7.21 27.1707 7.21 26.8448 7.21 26.7113C7.24063 26.7113 7.25156 26.7113 7.28 26.7113C7.29531 26.917 7.315 27.1663 7.315 27.1663C7.31938 27.221 7.33031 27.2735 7.35 27.3238C7.35 27.3238 7.41781 27.4748 7.525 27.5863C7.63219 27.6979 7.80281 27.8204 8.015 27.8663C8.32781 27.9342 8.64938 27.9276 9.0125 27.9363C9.37563 27.9451 9.695 27.9363 9.695 27.9363C9.7125 27.9363 9.73 27.9363 9.7475 27.9363C9.7475 27.9363 9.86781 27.921 10.01 27.8838C10.0822 27.8642 10.1588 27.8488 10.2725 27.7788C10.3863 27.7088 10.5875 27.5295 10.5875 27.2363C10.5875 27.4026 10.5875 27.2932 10.605 27.2363C10.6225 27.1795 10.6466 27.0985 10.675 27.0088C10.6859 26.976 10.6991 26.9367 10.71 26.9038C11.0688 26.9017 11.3553 26.8885 11.48 26.8863C11.48 26.9782 11.48 27.1138 11.48 27.1138C11.4778 27.186 11.4909 27.256 11.515 27.3238C11.515 27.3238 11.5828 27.4748 11.69 27.5863C11.7972 27.6979 11.9678 27.8204 12.18 27.8663C12.4556 27.9276 12.7466 27.9276 13.0375 27.9363C13.3284 27.9451 13.58 27.9363 13.58 27.9363C13.5909 27.9363 13.6041 27.9363 13.615 27.9363C13.615 27.9363 13.7353 27.921 13.8775 27.8838C13.9497 27.8642 14.0263 27.8488 14.14 27.7788C14.2538 27.7088 14.455 27.5273 14.455 27.2363C14.455 27.291 14.4791 27.1467 14.49 27.0438C14.5403 27.0438 14.5709 27.046 14.6125 27.0438C14.6147 27.0548 14.6103 27.0679 14.6125 27.0788C14.6366 27.2123 14.6475 27.3413 14.6475 27.3413H14.6825C14.6869 27.4157 14.6781 27.5032 14.77 27.6563C14.8991 27.8685 15.2381 28.0632 15.5575 28.0413C15.4788 28.0457 15.6363 28.037 15.7675 28.0413C15.8988 28.0457 16.0584 28.0501 16.2225 28.0588C16.5484 28.0742 16.87 28.0938 16.87 28.0938C16.8984 28.096 16.9291 28.096 16.9575 28.0938C16.9575 28.0938 17.1478 28.0676 17.3075 27.9538C17.4672 27.8401 17.6203 27.606 17.64 27.3588C17.6488 27.2582 17.64 27.2254 17.64 27.1313C17.8194 27.1292 17.9616 27.116 18.1825 27.1138C18.3684 27.1117 18.55 27.1138 18.69 27.1138C18.7338 27.1138 18.7206 27.1117 18.76 27.1138L18.7775 27.4463C18.7863 27.5688 18.8344 27.687 18.9175 27.7788C18.9175 27.7788 19.0422 28.002 19.425 28.0938C19.5934 28.1354 19.5934 28.1113 19.6525 28.1113C19.7116 28.1113 19.775 28.1157 19.845 28.1113C19.985 28.1026 20.1403 28.0917 20.3 28.0763C20.6216 28.0479 20.93 28.0063 20.93 28.0063C21.1028 27.9888 21.2581 27.8926 21.35 27.7438C21.35 27.7438 21.4178 27.6432 21.4725 27.5338C21.4988 27.4792 21.5163 27.4179 21.5425 27.3413C21.5556 27.302 21.5666 27.2692 21.5775 27.2013C21.5775 27.1948 21.5753 27.1729 21.5775 27.1663C21.5775 27.1642 21.5775 27.1532 21.5775 27.1488C21.5928 27.1051 21.6322 27.0132 21.665 26.9388C21.6891 26.8842 21.6956 26.8798 21.7175 26.8338C21.9297 26.7879 22.1353 26.7485 22.295 26.7113C22.3147 26.7398 22.3278 26.7682 22.3475 26.7988C22.4131 26.8995 22.4503 26.9607 22.47 26.9913C22.4766 27.011 22.4788 27.0045 22.4875 27.0263C22.5269 27.1138 22.6013 27.2385 22.75 27.3238C22.8988 27.4092 23.0869 27.4267 23.2225 27.3938C23.1941 27.4004 23.3166 27.3785 23.4325 27.3588C23.5484 27.3392 23.6928 27.3129 23.835 27.2888C24.1172 27.2407 24.3775 27.1838 24.3775 27.1838C24.5219 27.1642 24.6553 27.0898 24.745 26.9738L24.92 26.7463C24.9834 26.6588 25.0184 26.556 25.025 26.4488L25.095 25.9063C25.1606 25.8823 25.2197 25.8626 25.2875 25.8363C25.3772 25.8013 25.3947 25.7948 25.4625 25.7663L25.62 26.0113C25.6747 26.101 25.7534 26.1732 25.8475 26.2213C25.8475 26.2213 25.9263 26.2651 26.0225 26.2913C26.1188 26.3176 26.2566 26.3482 26.4775 26.2738V26.2913C26.6197 26.2454 26.6175 26.217 26.7225 26.1688C26.8275 26.1207 26.9631 26.0682 27.09 26.0113C27.3416 25.8954 27.58 25.7838 27.58 25.7838C27.7047 25.727 27.8031 25.6285 27.86 25.5038C27.86 25.5038 27.8928 25.4185 27.93 25.3113C27.9475 25.2567 27.9672 25.1976 27.9825 25.1188C27.9978 25.0401 28.035 24.9613 27.965 24.7513C27.965 24.7448 27.965 24.7404 27.965 24.7338C27.9563 24.6923 27.9431 24.6135 27.93 24.5413C27.9059 24.397 27.8731 24.2198 27.8425 24.0338C27.7834 23.662 27.7375 23.2988 27.7375 23.2988C27.7134 23.1195 27.6019 22.962 27.44 22.8788C27.44 22.8788 27.4072 22.881 27.405 22.8788C27.5559 22.0695 27.65 20.6782 26.7575 19.4488C25.6178 17.8782 24.1172 17.3773 23.065 17.2613C21.7284 17.1148 19.6919 16.5154 17.9725 15.4763C16.2531 14.4373 14.8794 12.9935 14.6125 11.1888C14.2297 8.59884 14.5775 7.82884 14.5775 6.95384C14.5775 6.93415 14.5797 6.91884 14.5775 6.90134C14.6234 6.70447 15.1528 4.26978 14.5425 2.28134C14.4834 2.08665 14.3216 1.9379 14.1225 1.89634C12.3353 1.56822 9.27719 1.41728 6.6325 1.33634C3.98781 1.2554 1.7675 1.24884 1.7675 1.24884C1.75 1.24884 1.7325 1.24884 1.715 1.24884C1.6975 1.24884 1.68 1.24884 1.6625 1.24884ZM2.2575 2.38634C2.6425 2.38853 4.23719 2.38415 6.5975 2.45634C9.08469 2.5329 11.8541 2.69478 13.5275 2.96384C13.7616 4.06415 13.6259 5.41603 13.5275 6.16634C13.16 6.09853 12.6897 6.04822 12.1275 5.99134C10.9397 5.86884 9.37125 5.76165 7.805 5.67634C5.10563 5.52759 2.77813 5.45322 2.0825 5.43134C2.05844 4.00728 2.18531 2.88728 2.2575 2.38634ZM2.03 6.55134C2.49156 6.56665 4.8825 6.63884 7.735 6.79634C9.2925 6.88165 10.8522 6.99322 12.005 7.11134C12.5825 7.1704 13.0616 7.22509 13.37 7.28634C13.3984 7.29072 13.3984 7.29728 13.4225 7.30384C13.3591 7.89665 13.16 8.97072 13.51 11.3463C13.8447 13.6082 15.5094 15.2817 17.395 16.4213C19.2806 17.561 21.4047 18.2129 22.9425 18.3813C23.7738 18.4732 24.9091 18.821 25.8475 20.1138C26.6109 21.166 26.3703 22.4698 26.25 22.9488C25.3334 23.3448 23.3822 24.1301 20.475 24.4363C17.3688 24.7667 15.3059 24.5413 8.5575 23.7363C7.595 23.6226 5.98063 23.5898 4.445 23.5963C3.11063 23.6007 2.05188 23.6379 1.4175 23.6488C1.30375 23.0976 1.12 21.9557 1.12 20.1488C1.12 14.7282 1.77188 8.87228 2.03 6.55134ZM11.3925 9.49134C11.0206 9.49134 10.7275 9.78665 10.7275 10.1563C10.7275 10.526 11.0206 10.8213 11.3925 10.8213C11.7644 10.8213 12.075 10.526 12.075 10.1563C12.075 9.78665 11.7644 9.49134 11.3925 9.49134ZM11.9525 12.5888C11.5806 12.5888 11.27 12.8842 11.27 13.2538C11.27 13.6235 11.5806 13.9188 11.9525 13.9188C12.3244 13.9188 12.6175 13.6235 12.6175 13.2538C12.6175 12.8842 12.3244 12.5888 11.9525 12.5888ZM13.4925 15.0913C13.1206 15.0913 12.81 15.3867 12.81 15.7563C12.81 16.126 13.1206 16.4213 13.4925 16.4213C13.8644 16.4213 14.175 16.126 14.175 15.7563C14.175 15.3867 13.8644 15.0913 13.4925 15.0913ZM15.6975 16.9813C15.3256 16.9813 15.015 17.2767 15.015 17.6463C15.015 18.016 15.3256 18.3288 15.6975 18.3288C16.0694 18.3288 16.3625 18.016 16.3625 17.6463C16.3625 17.2767 16.0694 16.9813 15.6975 16.9813ZM18.7075 18.1888C18.3356 18.1888 18.025 18.4842 18.025 18.8538C18.025 19.2235 18.3356 19.5188 18.7075 19.5188C19.0794 19.5188 19.39 19.2235 19.39 18.8538C19.39 18.4842 19.0794 18.1888 18.7075 18.1888ZM26.705 23.9638C26.7225 24.0732 26.7203 24.0842 26.74 24.2088C26.7706 24.397 26.8013 24.5829 26.8275 24.7338C26.8384 24.7973 26.8538 24.8432 26.8625 24.8913C26.7728 24.9329 26.74 24.9395 26.6175 24.9963C26.5322 25.0357 26.4513 25.0663 26.3725 25.1013L26.2325 24.8913C26.1406 24.7426 25.9853 24.6463 25.8125 24.6288L25.515 24.5938C25.4253 24.5895 25.3334 24.607 25.2525 24.6463C25.2525 24.6463 25.0688 24.7142 24.885 24.7863C24.7931 24.8213 24.7078 24.8498 24.64 24.8738C24.605 24.8848 24.5634 24.9045 24.5525 24.9088C24.4213 24.9373 24.3009 25.0073 24.2375 25.0663C24.1566 25.1429 24.1238 25.2063 24.0975 25.2588C24.045 25.3638 24.0253 25.4207 24.01 25.4863C23.9794 25.6154 23.975 25.7313 23.975 25.7313L23.94 26.1338C23.835 26.1513 23.7934 26.1601 23.6425 26.1863C23.5309 26.206 23.4303 26.2213 23.3275 26.2388C23.31 26.2126 23.31 26.2148 23.2925 26.1863C23.2509 26.1207 23.1941 26.0529 23.1525 25.9938C23.1109 25.9348 23.1263 25.9151 23.0125 25.8013C22.8178 25.6132 22.7128 25.6154 22.6275 25.5913C22.5422 25.5673 22.47 25.5563 22.47 25.5563C22.3956 25.541 22.3169 25.541 22.2425 25.5563C22.2425 25.5563 21.4419 25.751 21.3675 25.7663C21.2297 25.7926 21.1006 25.8363 21 25.9063C20.9497 25.9413 20.9125 25.9873 20.8775 26.0288C20.8425 26.0704 20.79 26.1513 20.79 26.1513C20.79 26.1513 20.7091 26.3263 20.6325 26.5013C20.5953 26.5888 20.5603 26.6742 20.5275 26.7638C20.5122 26.8076 20.5056 26.8448 20.4925 26.9038C20.4903 26.9126 20.4947 26.9301 20.4925 26.9388C20.3831 26.9498 20.3569 26.9432 20.2125 26.9563C20.0878 26.9673 19.9697 26.9848 19.8625 26.9913L19.8275 26.6588C19.8166 26.5188 19.7553 26.3876 19.6525 26.2913C19.6525 26.2913 19.46 26.0595 19.04 26.0113C18.9022 25.996 18.8388 25.9938 18.69 25.9938C18.5413 25.9938 18.3706 25.9917 18.1825 25.9938C17.8084 25.9982 17.4059 26.0113 17.2725 26.0113C17.0778 26.0113 16.9006 26.1076 16.8 26.2038C16.6994 26.3001 16.6425 26.392 16.6075 26.4663C16.5397 26.6129 16.52 26.7288 16.52 26.7288C16.5156 26.7704 16.5156 26.8098 16.52 26.8513C16.52 26.8513 16.52 26.9235 16.52 26.9563C16.415 26.952 16.3997 26.9454 16.275 26.9388C16.1088 26.9301 15.9403 26.9257 15.8025 26.9213C15.7631 26.9192 15.7434 26.9235 15.715 26.9213C15.7128 26.9038 15.7172 26.9038 15.715 26.8863C15.6931 26.7682 15.68 26.5757 15.68 26.6588C15.68 26.4423 15.5597 26.2738 15.47 26.1863C15.3803 26.0988 15.3059 26.0595 15.2425 26.0288C15.1156 25.9654 15.015 25.9413 15.015 25.9413C14.9472 25.9217 14.875 25.9173 14.805 25.9238C14.805 25.9238 14.5513 25.9457 14.3325 25.9238C14.0984 25.8998 13.8359 25.9392 13.6325 26.1338C13.4881 26.2717 13.5034 26.4051 13.4925 26.5188L13.44 26.5013C13.44 26.5013 13.4116 26.6326 13.3875 26.7813C13.3853 26.7923 13.3897 26.8054 13.3875 26.8163C13.2934 26.8163 13.2409 26.8207 13.0725 26.8163C12.8669 26.8098 12.7006 26.7923 12.5825 26.7813C12.5825 26.6654 12.5934 26.626 12.5825 26.5013C12.5563 26.1907 12.3003 25.9173 12.11 25.8363C11.9197 25.7554 11.76 25.7663 11.76 25.7663C11.76 25.7663 11.1191 25.7795 10.29 25.7838C10.0166 25.7795 9.78031 25.972 9.73 26.2388C9.72125 26.2826 9.66656 26.4795 9.6075 26.6588C9.59 26.7135 9.57031 26.7638 9.555 26.8163C9.46094 26.8163 9.30563 26.8229 9.03 26.8163C8.75875 26.8098 8.54438 26.7901 8.4175 26.7813C8.40656 26.6085 8.39344 26.4642 8.3825 26.3263C8.365 26.1251 8.2425 25.9107 8.1025 25.8013C7.9625 25.692 7.82688 25.6504 7.7175 25.6263C7.49656 25.5782 7.30844 25.5913 7.1925 25.5913C6.93656 25.5913 6.685 25.5935 6.4225 25.8013C6.16 26.0092 6.09 26.3526 6.09 26.5888C6.09 26.5888 6.08781 26.8185 6.09 27.0088C5.73563 27.0088 4.72281 27.0088 4.1825 27.0088C4.17594 26.7398 4.165 26.3613 4.165 26.3613C4.16063 26.3438 4.15406 26.3263 4.1475 26.3088C4.1475 26.3088 4.10594 26.0485 3.9375 25.8538C3.76906 25.6592 3.46281 25.4929 3.0975 25.4688C2.72125 25.4448 2.36906 25.5695 2.17 25.8013C1.98406 26.0157 1.995 26.2717 1.995 26.3088H1.9775V26.3438C1.9775 26.3788 1.9775 26.6829 1.9775 26.9738C1.74344 26.9651 1.54219 26.9607 1.295 26.9563L1.1725 24.7688C1.77188 24.7623 3.01438 24.7229 4.445 24.7163C5.9675 24.7098 7.59719 24.7404 8.4175 24.8388C15.1681 25.6438 17.3841 25.8801 20.5975 25.5388C23.7147 25.2085 25.7863 24.362 26.705 23.9638Z" fill="#6979F8"/>
</g>
<defs>
<clipPath id="clip0_2511_740">
<rect width="28" height="28" fill="white" transform="translate(0 0.688843)"/>
</clipPath>
</defs>
</svg>
