<svg width="28" height="29" viewBox="0 0 28 29" fill="none" xmlns="http://www.w3.org/2000/svg">
<path d="M11.6452 2.92883L5.49504 5.55821L5.40207 5.72446C4.97644 6.4879 4.56178 7.85647 4.09723 9.59086C3.63268 11.3253 3.1485 13.3885 2.70926 15.3713C1.83079 19.3371 1.12989 22.9827 1.12989 22.9827L1.02161 23.5471L5.46332 24.2876L7.67161 15.0159C7.7442 15.7923 7.84004 16.4615 7.84004 17.4888C7.84004 19.5422 6.72004 22.9395 6.72004 25.8888V26.4488H14H21.28V25.8888C21.28 22.9395 20.16 19.5422 20.16 17.4888C20.16 16.4615 20.2559 15.7923 20.3285 15.0159L22.5368 24.2876L26.9785 23.5471L26.8702 22.9827C26.8702 22.9827 26.169 19.3367 25.2919 15.3724C24.8534 13.3903 24.3713 11.329 23.9083 9.59633C23.4454 7.86362 23.0327 6.49734 22.61 5.73649L22.5171 5.56915L16.3549 2.92883H11.6452ZM11.9208 4.04883H16.0705L13.9388 12.0452C13.0556 8.51283 12.1427 4.91807 11.9208 4.04883ZM17.1172 4.4743L18.5424 5.08571L17.0691 7.05008L18.2427 7.63633L14.758 13.3249L17.1172 4.4743ZM10.8719 4.47758C11.0891 5.32914 12.192 9.6489 13.1185 13.3731L9.74645 7.6418L10.8314 7.0993L9.75848 4.95336L10.8719 4.47758ZM8.72707 5.39415L9.32864 6.59836L8.17364 7.17586L14 17.0809V25.3288H7.91332C8.04121 22.7756 8.96004 19.7569 8.96004 17.4888C8.96004 17.0991 8.95032 16.728 8.93707 16.3688H10.64V15.2488H8.87582C8.71631 13.0992 8.38364 11.7532 8.38364 11.7532L7.82692 9.52633L4.61676 23.0101L2.34723 22.6327C2.44054 22.1506 2.99352 19.2674 3.80301 15.6131C4.24018 13.6395 4.7216 11.5882 5.17895 9.88071C5.61747 8.24351 6.04799 6.97047 6.33067 6.41899L8.72707 5.39415ZM19.6022 5.53961L21.6793 6.42993C21.9594 6.97873 22.3885 8.24945 22.8255 9.88508C23.2813 11.5911 23.7617 13.6424 24.1982 15.6152C25.0064 19.2683 25.5595 22.1505 25.6529 22.6327L23.3833 23.0101L20.1732 9.52633L19.6164 11.7532C19.6164 11.7532 19.2838 13.0992 19.1243 15.2488H17.36V16.3688H19.063C19.0498 16.728 19.04 17.0991 19.04 17.4888C19.04 19.7569 19.9589 22.7756 20.0868 25.3288H15.12V16.8665L15.1069 16.8063C15.0473 16.5407 14.883 15.8832 14.7755 15.437L19.8363 7.18133L18.771 6.64868L19.6022 5.53961ZM12.88 17.4888C12.7315 17.4888 12.5891 17.5478 12.4841 17.6529C12.379 17.7579 12.32 17.9003 12.32 18.0488C12.32 18.1974 12.379 18.3398 12.4841 18.4448C12.5891 18.5498 12.7315 18.6088 12.88 18.6088C13.0286 18.6088 13.171 18.5498 13.276 18.4448C13.381 18.3398 13.44 18.1974 13.44 18.0488C13.44 17.9003 13.381 17.7579 13.276 17.6529C13.171 17.5478 13.0286 17.4888 12.88 17.4888ZM12.88 19.7288C12.7315 19.7288 12.5891 19.7878 12.4841 19.8929C12.379 19.9979 12.32 20.1403 12.32 20.2888C12.32 20.4374 12.379 20.5798 12.4841 20.6848C12.5891 20.7898 12.7315 20.8488 12.88 20.8488C13.0286 20.8488 13.171 20.7898 13.276 20.6848C13.381 20.5798 13.44 20.4374 13.44 20.2888C13.44 20.1403 13.381 19.9979 13.276 19.8929C13.171 19.7878 13.0286 19.7288 12.88 19.7288Z" fill="#6979F8"/>
</svg>
