<svg width="28" height="29" viewBox="0 0 28 29" fill="none" xmlns="http://www.w3.org/2000/svg">
<path d="M9.52008 2.36885C9.50695 2.36875 9.49381 2.36912 9.4807 2.36994C9.47888 2.3703 9.47706 2.37066 9.47523 2.37104C9.45839 2.3721 9.4416 2.37393 9.42492 2.37651C9.37982 2.38351 9.33574 2.396 9.29367 2.41369C9.19669 2.44275 8.43699 2.67233 7.54258 3.05791C7.06614 3.2633 6.56558 3.50693 6.12289 3.79182C5.6802 4.07671 5.28339 4.38866 5.04555 4.83854C5.04518 4.8389 5.04482 4.83927 5.04445 4.83963C4.3687 6.12121 1.75227 10.7743 1.75227 10.7743C1.68028 10.9024 1.66149 11.0536 1.69996 11.1954C1.73842 11.3372 1.83105 11.4582 1.95789 11.5323L5.31789 13.4923C5.44517 13.5665 5.59656 13.5875 5.73925 13.5509C5.88195 13.5142 6.00446 13.4229 6.08023 13.2965L6.86992 11.9807L7.26258 16.5657C7.27674 16.7544 7.28311 16.9429 7.28008 17.1301C7.27392 17.5307 7.22761 17.931 7.14336 18.3245C7.14259 18.3285 7.14186 18.3325 7.14117 18.3365L5.60992 26.3439C5.59447 26.4248 5.5971 26.5082 5.6176 26.5881C5.6381 26.6679 5.67598 26.7423 5.72853 26.8058C5.78109 26.8693 5.84701 26.9205 5.92161 26.9556C5.99621 26.9907 6.07764 27.0089 6.16008 27.0089H21.8401C21.9225 27.0089 22.0039 26.9907 22.0785 26.9556C22.1531 26.9205 22.2191 26.8693 22.2716 26.8058C22.3242 26.7423 22.3621 26.6679 22.3826 26.5881C22.4031 26.5082 22.4057 26.4248 22.3902 26.3439L20.859 18.3365C20.8583 18.3325 20.8576 18.3285 20.8568 18.3245C20.7725 17.931 20.7262 17.5307 20.7201 17.1301C20.717 16.9415 20.723 16.7528 20.7376 16.5657V16.5614L21.1302 11.9807L21.9199 13.2965C21.9957 13.4229 22.1182 13.5142 22.2609 13.5509C22.4036 13.5875 22.555 13.5665 22.6823 13.4923L26.0423 11.5323C26.1691 11.4582 26.2617 11.3372 26.3002 11.1954C26.3387 11.0536 26.3199 10.9024 26.2479 10.7743C26.2479 10.7743 23.6315 6.12121 22.9557 4.83963C22.9553 4.83927 22.955 4.8389 22.9546 4.83854C22.7168 4.38865 22.32 4.07671 21.8773 3.79182C21.4346 3.50693 20.934 3.2633 20.4576 3.05791C19.5651 2.67319 18.8086 2.44475 18.7087 2.41479C18.6517 2.39038 18.5911 2.3756 18.5293 2.37104C18.5129 2.36959 18.4965 2.36886 18.4801 2.36885C18.4775 2.36883 18.475 2.36883 18.4724 2.36885H14.0001H9.53648H9.52008ZM10.2441 3.48885H14.0001H17.756C17.6516 3.80246 17.4938 4.18903 17.2387 4.58588C16.6801 5.45478 15.7734 6.28885 14.0001 6.28885C12.2267 6.28885 11.3201 5.45478 10.7615 4.58588C10.5064 4.18903 10.3485 3.80246 10.2441 3.48885ZM9.12414 3.66932C9.24807 4.0828 9.45671 4.62877 9.81867 5.19182C10.5201 6.28292 11.8534 7.40885 14.0001 7.40885C16.1467 7.40885 17.4801 6.28292 18.1815 5.19182C18.5434 4.62877 18.7521 4.0828 18.876 3.66932C19.18 3.76791 19.4222 3.83066 20.0146 4.08604C20.4551 4.27594 20.9092 4.50052 21.2713 4.73354C21.6334 4.96656 21.8904 5.22181 21.9648 5.36244C22.6175 6.60022 24.6463 10.2025 25.0054 10.841L22.5959 12.2465L21.2002 9.9212C21.1393 9.81983 21.0479 9.74034 20.939 9.69413C20.8302 9.64792 20.7095 9.63735 20.5942 9.66394C20.479 9.69054 20.3752 9.75292 20.2976 9.84216C20.22 9.9314 20.1726 10.0429 20.1623 10.1607L19.622 16.4695C19.6216 16.4709 19.6212 16.4724 19.6209 16.4739C19.6032 16.6986 19.5975 16.9233 19.6012 17.1476C19.6085 17.6218 19.6625 18.0941 19.762 18.5585L19.7587 18.5465L21.163 25.8889H6.83711L8.24148 18.5465L8.2382 18.5585C8.33763 18.0941 8.3917 17.6218 8.39898 17.1476C8.40262 16.9222 8.39619 16.6977 8.3793 16.4749C8.37894 16.4731 8.37858 16.4713 8.3782 16.4695L7.83789 10.1607C7.82756 10.0429 7.7802 9.9314 7.7026 9.84216C7.625 9.75292 7.52114 9.69054 7.40591 9.66394C7.29068 9.63735 7.16999 9.64792 7.06113 9.69413C6.95227 9.74034 6.86083 9.81983 6.79992 9.9212L5.4043 12.2465L2.99477 10.841C3.35385 10.2025 5.38269 6.60022 6.03539 5.36244C6.10975 5.22181 6.36674 4.96656 6.72883 4.73354C7.09091 4.50052 7.54505 4.27594 7.98555 4.08604C8.57794 3.83066 8.82013 3.76791 9.12414 3.66932Z" fill="#6979F8"/>
</svg>
