<svg width="28" height="29" viewBox="0 0 28 29" fill="none" xmlns="http://www.w3.org/2000/svg">
<path d="M22.0676 1.80884V1.82634C19.7467 1.97509 18.1476 3.41665 17.0626 5.32634C15.9163 7.34321 15.2317 9.90259 14.5601 12.2913C14.2101 13.5382 13.6392 15.3604 12.9326 16.9463C12.226 18.5323 11.3138 19.8426 10.6576 20.1488C9.93354 20.4879 8.5051 20.3063 8.5051 20.3063L8.2951 20.2538L8.1201 20.3588C8.1201 20.3588 7.04166 20.991 5.7926 21.8638C4.54354 22.7366 3.12822 23.8216 2.3451 24.9263C2.0476 25.3463 1.87479 25.7051 1.7851 25.9588C1.69541 26.2126 1.6801 26.4313 1.6801 26.4313L1.6626 26.8688L2.1001 26.9913C2.1001 26.9913 2.6776 27.1466 4.2176 27.2888C5.7576 27.431 8.29728 27.5688 12.3201 27.5688C16.3888 27.5688 18.5348 26.9366 19.7576 25.8363C20.9804 24.736 21.1051 23.2791 21.3151 22.1088C21.6432 20.2735 21.8248 18.5716 22.0326 17.3663C22.0829 17.0688 22.1354 16.9288 22.1901 16.7013C22.1945 16.7232 22.2032 16.732 22.2076 16.7538C22.3279 17.4538 22.4482 18.3638 22.5576 19.3613C22.7763 21.3498 22.9448 23.6707 22.9601 25.3113C22.9601 25.3157 22.9601 25.3245 22.9601 25.3288H23.5201L24.0801 25.3463V25.3288C24.0801 25.3113 24.1763 22.1307 24.3076 18.6963C24.4454 15.0826 26.3201 12.5691 26.3201 9.64884C26.3201 7.31915 25.747 5.41384 25.0076 4.06634C24.6379 3.39259 24.2135 2.85884 23.8001 2.47384C23.3867 2.08884 22.982 1.80884 22.4701 1.80884C22.376 1.80884 22.282 1.82196 22.1901 1.82634C22.1485 1.82196 22.1092 1.80884 22.0676 1.80884ZM22.1201 2.94634C22.1201 2.94634 22.142 2.95071 22.1551 3.03384C22.1857 3.23071 22.1223 3.68571 21.9801 4.20634C21.6935 5.2454 21.1051 6.57759 20.7201 7.53134C19.5913 10.3291 19.0335 13.1007 18.7426 15.3188C18.4517 17.537 18.4167 19.252 18.3751 19.6938C18.3357 20.116 18.1367 20.7416 17.7801 21.1988C17.4235 21.656 16.962 21.9688 16.2401 21.9688C14.8007 21.9688 13.777 21.4088 12.3026 21.4088C11.771 21.4088 11.0863 21.4307 10.4651 21.3913C10.686 21.3388 10.907 21.2688 11.1301 21.1638C12.3792 20.582 13.2192 19.0726 13.9651 17.4013C14.711 15.7301 15.2842 13.8685 15.6451 12.5888C16.3188 10.1935 17.0057 7.71071 18.0426 5.88634C19.0204 4.16696 20.2192 3.06884 22.1201 2.94634ZM23.2751 3.52384C23.5135 3.79946 23.7695 4.16915 24.0101 4.60884C24.6532 5.78352 25.2001 7.50727 25.2001 9.64884C25.2001 11.7226 23.8701 14.037 23.3976 17.1738C23.3692 16.9857 23.3385 16.7298 23.3101 16.5613C23.2467 16.1938 23.1832 15.8788 23.1176 15.6163C23.052 15.3538 22.9995 15.1788 22.8726 14.9688L22.7151 14.6888H22.4001C22.1267 14.6888 21.8685 14.8332 21.7001 15.0038C21.5317 15.1745 21.4223 15.367 21.3326 15.5813C21.1532 16.0123 21.0395 16.5395 20.9301 17.1738C20.7113 18.4448 20.532 20.1291 20.2126 21.9163C19.9895 23.1566 19.8932 24.1979 19.0051 24.9963C18.117 25.7948 16.2685 26.4488 12.3201 26.4488C8.32353 26.4488 5.81885 26.3066 4.3226 26.1688C3.3251 26.077 3.27041 26.042 3.0276 25.9938C3.09541 25.8604 3.11947 25.7663 3.2551 25.5738C3.85666 24.7251 5.2326 23.6182 6.4401 22.7738C7.22979 22.2226 7.77447 21.8879 8.1376 21.6713C8.24916 21.8179 8.37604 21.947 8.5226 22.0388C8.89666 22.2751 9.33416 22.3932 9.7826 22.4588C10.6773 22.5879 11.666 22.5288 12.3026 22.5288C13.4598 22.5288 14.5338 23.0888 16.2401 23.0888C17.3163 23.0888 18.1542 22.5463 18.6726 21.8813C19.191 21.2163 19.4338 20.442 19.4951 19.7988V19.7463C19.552 19.1076 19.5826 17.6048 19.8626 15.4763C20.147 13.3216 20.6895 10.6288 21.7701 7.95134C22.142 7.0304 22.7413 5.68071 23.0651 4.50384C23.1592 4.16478 23.2423 3.83665 23.2751 3.52384Z" fill="#6979F8"/>
</svg>
