<svg width="28" height="29" viewBox="0 0 28 29" fill="none" xmlns="http://www.w3.org/2000/svg">
<path d="M11.06 1.80884L7.45499 3.61134L7.38499 3.73384L1.22499 12.6938L0.92749 13.1138L1.32999 13.4463L4.12999 15.6863L4.58499 16.0538L4.93499 15.5813L6.59749 13.3588L6.15999 20.2538L6.12499 20.8488H7.17499C7.0153 21.9273 6.71999 24.1673 6.71999 25.8888V26.4488H7.27999C9.92686 26.4488 12.075 27.5163 12.075 27.5163L12.355 27.6563L12.635 27.4813L14 26.5713L15.365 27.4813L15.645 27.6563L15.925 27.5163C15.925 27.5163 18.0491 26.4488 20.72 26.4488H21.28V25.8888C21.28 23.8129 20.9934 21.8332 20.825 20.8488H21.875L21.84 20.2538L21.4025 13.9363L23.065 16.1413L23.415 16.6138L23.87 16.2463L26.67 14.0063L27.0725 13.6913L26.7925 13.2713L20.6325 3.75134L20.545 3.61134L16.94 1.80884H11.06ZM12.1625 2.92884H15.8375L14 6.25384L12.1625 2.92884ZM10.9725 3.12134L14.665 9.75384L12.145 8.28384C10.8675 7.5379 10.08 6.17509 10.08 4.69634V3.55884L10.9725 3.12134ZM17.0275 3.12134L17.92 3.55884V4.69634C17.92 6.17509 17.1325 7.5379 15.855 8.28384L15.3125 8.59884L14.6475 7.40884L17.0275 3.12134ZM8.95999 4.11884V4.69634C8.95999 6.57103 9.96405 8.31884 11.585 9.26384L15.68 11.6613V19.7288H7.31499L7.83999 11.5563L7.96249 9.68384L6.82499 11.1888L4.37499 14.4438L2.43249 12.8863L8.20749 4.50384L8.95999 4.11884ZM19.04 4.11884L19.775 4.48634L25.5675 13.4463L23.625 15.0038L21.175 11.7488L20.0375 10.2438L20.16 12.1163L20.685 19.7288H16.8V11.2938L16.73 11.1713L15.855 9.57884L16.415 9.26384C18.0359 8.31884 19.04 6.57103 19.04 4.69634V4.11884ZM14 13.0088C13.6916 13.0088 13.44 13.2604 13.44 13.5688C13.44 13.8773 13.6916 14.1288 14 14.1288C14.3084 14.1288 14.56 13.8773 14.56 13.5688C14.56 13.2604 14.3084 13.0088 14 13.0088ZM14 15.2488C13.6916 15.2488 13.44 15.5004 13.44 15.8088C13.44 16.1173 13.6916 16.3688 14 16.3688C14.3084 16.3688 14.56 16.1173 14.56 15.8088C14.56 15.5004 14.3084 15.2488 14 15.2488ZM14 17.4888C13.6916 17.4888 13.44 17.7404 13.44 18.0488C13.44 18.3573 13.6916 18.6088 14 18.6088C14.3084 18.6088 14.56 18.3573 14.56 18.0488C14.56 17.7404 14.3084 17.4888 14 17.4888ZM8.32999 20.8488H19.6875C19.8166 21.6648 20.0769 23.4848 20.125 25.3813C17.7603 25.5104 16.1328 26.1973 15.75 26.3788L14.315 25.4163L14 25.2238L13.685 25.4163L12.2325 26.3788C11.8344 26.1929 10.2134 25.5104 7.87499 25.3813C7.93405 23.5373 8.23374 21.4745 8.32999 20.8488Z" fill="#6979F8"/>
</svg>
