<svg width="29" height="29" viewBox="0 0 29 29" fill="none" xmlns="http://www.w3.org/2000/svg">
<path d="M24.6852 8.63387C24.5664 8.15928 24.3245 7.72444 23.9839 7.37327C23.6432 7.02211 23.216 6.76705 22.7452 6.63387C21.0252 6.21387 14.1452 6.21387 14.1452 6.21387C14.1452 6.21387 7.26523 6.21387 5.54523 6.67387C5.07447 6.80705 4.6472 7.06211 4.30657 7.41327C3.96594 7.76444 3.72401 8.19928 3.60522 8.67387C3.29044 10.4194 3.13646 12.1902 3.14522 13.9639C3.134 15.7509 3.28799 17.5352 3.60522 19.2939C3.73618 19.7537 3.98353 20.172 4.32337 20.5083C4.66321 20.8447 5.08405 21.0877 5.54523 21.2139C7.26523 21.6739 14.1452 21.6739 14.1452 21.6739C14.1452 21.6739 21.0252 21.6739 22.7452 21.2139C23.216 21.0807 23.6432 20.8256 23.9839 20.4745C24.3245 20.1233 24.5664 19.6885 24.6852 19.2139C24.9976 17.4815 25.1516 15.7242 25.1452 13.9639C25.1564 12.1768 25.0025 10.3926 24.6852 8.63387Z" stroke="#6979F8" stroke-linecap="round" stroke-linejoin="round"/>
<path d="M11.8952 17.2339L17.6452 13.9639L11.8952 10.6939V17.2339Z" stroke="#6979F8" stroke-linecap="round" stroke-linejoin="round"/>
</svg>
